<?xml version="1.0" standalone="no"?>
<!DOCTYPE svg PUBLIC "-//W3C//DTD SVG 1.1//EN" "http://www.w3.org/Graphics/SVG/1.1/DTD/svg11.dtd" >
<svg xmlns="http://www.w3.org/2000/svg" xmlns:xlink="http://www.w3.org/1999/xlink" version="1.1">
<metadata>
Created by FontForge 20170731 at Tue Sep 18 00:41:25 2018
 By Aleksey,,,
Copyright (c) 2017 by Deni Anggara. All rights reserved.
</metadata>
<defs>
<font id="AllianceNo.1-Light" horiz-adv-x="0" >
  <font-face 
    font-family="Alliance No.1 Light"
    font-weight="300"
    font-stretch="normal"
    units-per-em="1000"
    panose-1="0 0 4 0 0 0 0 0 0 0"
    ascent="806"
    descent="-194"
    x-height="517"
    cap-height="729"
    bbox="-435 -222 2113 943"
    underline-thickness="50"
    underline-position="-150"
    unicode-range="U+000D-FB02"
  />
<missing-glyph horiz-adv-x="644" 
d="M644 0v729h-644v-729h644zM63 666h518v-604h-518v604zM518 125v478h-392v-478h392zM189 540h266v-351h-266v351zM252 252h140v225h-140v-225z" />
    <glyph glyph-name=".notdef" horiz-adv-x="644" 
d="M644 0v729h-644v-729h644zM63 666h518v-604h-518v604zM518 125v478h-392v-478h392zM189 540h266v-351h-266v351zM252 252h140v225h-140v-225z" />
    <glyph glyph-name="glyph1" 
 />
    <glyph glyph-name="glyph2" horiz-adv-x="333" 
 />
    <glyph glyph-name="uni000D" unicode="&#xd;" horiz-adv-x="257" 
 />
    <glyph glyph-name="space" unicode=" " horiz-adv-x="240" 
 />
    <glyph glyph-name="exclam" unicode="!" horiz-adv-x="272" 
d="M151 215l17 309v205h-63v-205l17 -309h29zM174 0v71h-76v-71h76z" />
    <glyph glyph-name="quotedbl" unicode="&#x22;" horiz-adv-x="301" 
d="M111 608v121h-62v-121l18 -152h26zM253 608v121h-62v-121l18 -152h26z" />
    <glyph glyph-name="numbersign" unicode="#" horiz-adv-x="725" 
d="M659 536h-117v214h-55v-214h-247v214h-56v-214h-117v-52h117v-214h-117v-53h117v-217h56v217h247v-217h55v217h117v53h-117v214h117v52zM240 270v214h247v-214h-247z" />
    <glyph glyph-name="dollar" unicode="$" horiz-adv-x="547" 
d="M485 225q0 122 -146 159l-91 24q-58 14 -86 39q-29 25 -29 69q1 51 35 81q34 29 95 30q67 -1 105 -35q37 -34 40 -92h62q-2 77 -48 122q-47 45 -126 54v98h-56v-98q-80 -8 -124 -51q-45 -44 -46 -112q0 -120 152 -158l92 -23q107 -29 107 -110q0 -57 -39 -88
q-39 -32 -111 -32q-75 0 -116 37q-41 36 -41 105h-63q1 -82 50 -132q48 -50 139 -59v-98h56v98q89 7 138 53q50 45 51 119v0z" />
    <glyph glyph-name="percent" unicode="%" horiz-adv-x="898" 
d="M62 557q1 -83 48 -132t126 -50q80 1 127 50t48 132q-1 82 -48 131q-47 48 -127 49q-79 -1 -126 -49q-47 -49 -48 -131v0zM262 0l461 729h-71l-461 -729h71zM123 557q1 58 31 93q31 35 82 36q52 -1 83 -36q30 -35 31 -93q-1 -59 -31 -94q-31 -35 -83 -36q-51 1 -82 36
q-30 35 -31 94v0zM486 172q1 -83 48 -132t127 -50q79 1 126 50q46 49 47 132q-1 82 -47 131q-47 49 -126 50q-79 -1 -126 -50q-48 -49 -49 -131v0zM547 172q1 58 32 94q30 35 82 36q51 -1 82 -36q30 -36 31 -94q-1 -59 -31 -94q-31 -35 -82 -36q-51 1 -82 36t-32 94v0z" />
    <glyph glyph-name="ampersand" unicode="&#x26;" horiz-adv-x="675" 
d="M544 356q-12 -90 -50 -178l-191 209v9q73 50 105 95q31 45 30 94q-1 70 -45 111q-44 40 -119 41q-78 -1 -124 -43q-45 -42 -46 -113q0 -23 5 -44q6 -20 17 -39t32 -43q20 -24 51 -54v-7q-84 -50 -124 -102q-39 -53 -39 -116q0 -84 61 -135t160 -51q150 0 233 98l80 -88
h80l-126 137q50 88 69 206zM164 581q1 46 30 74q29 27 78 28q49 -1 77 -27t29 -71q0 -38 -28 -78q-29 -39 -85 -79h-10q-51 47 -71 83q-21 35 -20 70v0zM108 179q0 107 142 182l213 -234q-31 -37 -82 -59q-50 -22 -112 -23q-75 1 -118 36q-42 35 -43 98v0z" />
    <glyph glyph-name="quotesingle" unicode="'" horiz-adv-x="159" 
d="M111 608v121h-62v-121l18 -152h26z" />
    <glyph glyph-name="parenleft" unicode="(" horiz-adv-x="412" 
d="M90 318q0 -135 62 -259q31 -62 73 -110q41 -47 93 -81h54q-50 34 -91 81q-41 48 -72 110q-62 124 -62 259q0 68 16 133q15 65 46 127t72 110q41 47 91 80h-54q-103 -67 -166 -192q-62 -124 -62 -258v0z" />
    <glyph glyph-name="parenright" unicode=")" horiz-adv-x="412" 
d="M323 318q0 134 -63 258q-61 125 -165 192h-54q101 -66 162 -190q62 -123 62 -260q0 -135 -62 -259q-61 -124 -162 -191h54q104 67 165 190q63 124 63 260v0z" />
    <glyph glyph-name="asterisk" unicode="*" horiz-adv-x="344" 
d="M64 497l97 70l-11 -123h43l-10 123l98 -70l22 37l-108 52l108 52l-22 39l-98 -71l10 123h-43l11 -122l-97 70l-23 -39l108 -52l-108 -52z" />
    <glyph glyph-name="plus" unicode="+" horiz-adv-x="655" 
d="M559 293v56h-202v209h-60v-209h-202v-56h202v-222h60v222h202z" />
    <glyph glyph-name="comma" unicode="," horiz-adv-x="193" 
d="M43 -134q49 1 77 27q28 27 29 73v143h-99v-109h56v-29q1 -30 -12 -48t-51 -19v-38z" />
    <glyph glyph-name="hyphen" unicode="-" horiz-adv-x="457" 
d="M394 276v49h-331v-49h331z" />
    <glyph glyph-name="period" unicode="." horiz-adv-x="236" 
d="M168 0v112h-100v-112h100z" />
    <glyph glyph-name="slash" unicode="/" horiz-adv-x="427" 
d="M94 0l296 729h-56l-297 -729h57z" />
    <glyph glyph-name="zero" unicode="0" horiz-adv-x="623" 
d="M313 -6q107 0 172 93q64 92 66 276q0 92 -17 161q-16 68 -50 114q-66 92 -172 92t-174 -92q-66 -91 -66 -275q0 -186 67 -278q68 -91 174 -91v0zM311 52q-86 1 -129 82q-43 80 -43 229q0 151 44 230q43 78 128 79q86 -1 130 -81q43 -79 43 -228q0 -151 -44 -230
q-44 -80 -129 -81v0z" />
    <glyph glyph-name="one" unicode="1" horiz-adv-x="458" 
d="M246 549v-549h62v721h-58q-9 -60 -54 -92q-44 -32 -119 -32h-20v-48h189z" />
    <glyph glyph-name="two" unicode="2" horiz-adv-x="572" 
d="M270 58q-29 0 -62 -1q-34 -1 -72 -3q1 20 7 39t20 38q14 18 26 33q12 14 35 32l37 29l43 32l42 30q39 29 69 57t50 56q42 56 42 132q0 87 -58 142q-58 56 -153 56q-99 0 -161 -60q-61 -59 -57 -154h64q-3 71 36 112q39 42 115 43q68 -1 107 -38t40 -104q0 -61 -34 -106
q-35 -45 -101 -92l-40 -28l-43 -31q-12 -9 -39 -31q-26 -21 -38 -35t-29 -36q-18 -22 -27 -43t-15 -47q-6 -27 -6 -55v-25h449v58h-247z" />
    <glyph glyph-name="three" unicode="3" horiz-adv-x="587" 
d="M294 -10q101 0 165 57q64 58 64 151q0 58 -30 104q-31 46 -94 70v6q112 50 112 164q0 89 -62 138q-31 25 -69 37q-38 13 -82 13q-97 0 -159 -63q-61 -62 -57 -163h67q0 81 39 124q38 43 110 43q64 0 104 -33t41 -96q0 -61 -41 -99q-40 -39 -116 -40h-42v-59h40
q80 -1 124 -40q45 -39 46 -108q-1 -68 -44 -107q-43 -40 -116 -41q-71 0 -111 43q-41 42 -38 127h-69q-4 -103 54 -166q60 -62 164 -62v0z" />
    <glyph glyph-name="four" unicode="4" horiz-adv-x="603" 
d="M463 721h-104l-321 -498v-61h362v-162h63v162h92v56h-92v503zM400 680v-462h-294z" />
    <glyph glyph-name="five" unicode="5" horiz-adv-x="601" 
d="M304 473q-47 0 -89 -17q-43 -17 -67 -45l-3 1l12 252h344v57h-400l-14 -383h59q17 34 58 56q40 21 90 22q77 -1 122 -52t46 -134q-1 -84 -46 -133q-45 -48 -121 -49q-73 0 -117 48q-22 25 -32 55t-9 67h-65q-2 -102 61 -165t161 -63q52 0 94 17t76 51t50 78q17 44 17 97
q0 105 -65 172q-64 68 -162 68v0z" />
    <glyph glyph-name="six" unicode="6" horiz-adv-x="607" 
d="M315 -10q105 0 167 65q62 66 62 172t-60 170q-60 65 -155 65q-65 0 -110 -28q-44 -29 -69 -85h-4q-15 323 176 323q59 0 98 -29q39 -30 47 -92h67q-8 84 -63 131q-56 47 -149 48q-246 0 -246 -370t239 -370v0zM320 48q-35 0 -64 12t-51 37t-33 57q-11 31 -11 71
q0 37 10 69q11 32 31 58q42 53 118 53q70 -1 112 -46q41 -46 42 -130q-1 -84 -42 -132t-112 -49v0z" />
    <glyph glyph-name="seven" unicode="7" horiz-adv-x="542" 
d="M101 527v137h321q-99 -148 -176 -328q-76 -180 -105 -336h69q32 165 110 349q79 184 181 328v44h-457v-194h57z" />
    <glyph glyph-name="eight" unicode="8" horiz-adv-x="582" 
d="M63 183q0 -85 63 -139t164 -54q102 0 165 54t63 139q0 56 -28 102q-27 45 -78 71v8q49 24 77 70t29 102q0 85 -64 139q-63 54 -164 54q-50 0 -91 -14q-41 -13 -73 -41q-63 -54 -63 -138q1 -56 29 -102q29 -47 78 -70v-8q-51 -25 -79 -71q-28 -45 -28 -102v0zM130 529
q1 65 43 103q41 38 117 39q74 -1 117 -38t44 -104q-1 -65 -43 -103q-42 -39 -118 -40q-72 1 -116 39q-43 37 -44 104v0zM130 191q1 64 43 103q41 38 117 39q74 -1 117 -38q43 -38 44 -104q-1 -65 -43 -103q-42 -39 -118 -40q-72 1 -116 38q-43 38 -44 105v0z" />
    <glyph glyph-name="nine" unicode="9" horiz-adv-x="607" 
d="M290 -10q122 0 183 83q62 84 62 280q0 377 -240 377q-104 0 -166 -66q-62 -64 -62 -171q0 -105 59 -170q60 -64 154 -64q64 0 109 28q46 28 72 84h4q19 -323 -173 -323q-61 0 -100 32q-38 31 -45 88h-66q7 -79 64 -129q58 -49 145 -49v0zM290 316q-70 1 -111 46
q-42 45 -43 129q1 84 41 132q41 48 113 49q73 -1 116 -49t44 -127q0 -75 -42 -128q-42 -52 -118 -52v0z" />
    <glyph glyph-name="colon" unicode=":" horiz-adv-x="270" 
d="M190 418v99h-100v-99h100zM190 0v98h-100v-98h100z" />
    <glyph glyph-name="semicolon" unicode=";" horiz-adv-x="236" 
d="M151 418v99h-99v-99h99zM45 -120q49 0 77 24q28 23 29 65v129h-99v-98h56v-26q1 -27 -12 -43q-14 -17 -51 -17v-34z" />
    <glyph glyph-name="less" unicode="&#x3c;" horiz-adv-x="565" 
d="M470 118l-146 82l-163 88v7l163 81l146 71v79l-379 -207v-52l379 -225v76z" />
    <glyph glyph-name="equal" unicode="=" horiz-adv-x="552" 
d="M460 365v65h-367v-65h367zM460 164v64h-367v-64h367z" />
    <glyph glyph-name="greater" unicode="&#x3e;" horiz-adv-x="565" 
d="M474 267v52l-379 207v-79l310 -152v-7l-164 -88l-146 -82v-76z" />
    <glyph glyph-name="question" unicode="?" horiz-adv-x="575" 
d="M260 191v136q56 -2 101 11q44 13 78 41t51 67q17 38 17 87q0 46 -16 83q-15 37 -46 65t-71 42q-41 14 -93 14q-101 -1 -161 -53q-61 -52 -65 -143h63q3 64 45 101q41 36 116 37q75 0 119 -38q43 -38 44 -108q-1 -70 -47 -109t-129 -40q-25 0 -67 6v-199h61zM278 0v96h-99
v-96h99z" />
    <glyph glyph-name="at" unicode="@" horiz-adv-x="916" 
d="M49 312q0 -187 112 -300q113 -113 297 -113q140 0 240 50v58q-108 -53 -240 -53q-166 0 -255 101q-88 101 -88 260q0 166 93 266q93 101 253 101q74 0 134 -22t104 -66q89 -87 89 -231q0 -46 -9 -83t-26 -66q-35 -57 -91 -57q-29 -1 -47 20q-18 20 -16 68l18 259h-52
l-9 -56h-5q-17 34 -45 51t-68 17q-72 0 -120 -62q-48 -61 -48 -159q0 -93 44 -141q45 -48 107 -48q44 0 76 21t51 62h6q17 -84 108 -84q43 0 77 18t60 55q52 74 52 189q0 166 -108 268q-107 103 -278 103q-186 0 -301 -118q-115 -117 -115 -308v0zM332 297q0 74 30 119
q30 46 85 47q48 -1 75 -38q26 -38 26 -102q0 -73 -31 -117q-31 -45 -88 -46q-47 0 -72 36q-25 35 -25 101v0z" />
    <glyph glyph-name="A" unicode="A" horiz-adv-x="649" 
d="M642 0l-281 729h-74l-281 -729h69l72 188h353l72 -188h70zM222 385l100 280h4l99 -280l53 -140h-309z" />
    <glyph glyph-name="B" unicode="B" horiz-adv-x="708" 
d="M417 0q108 1 170 54q61 52 62 144q0 62 -32 108q-31 45 -91 65v8q51 22 78 65q27 42 27 100q-1 84 -56 134t-156 51h-309v-729h307zM175 667h242q68 -1 107 -35q39 -35 40 -98q0 -61 -38 -95q-37 -35 -109 -36h-242v264zM175 342h245q76 0 118 -36q41 -36 42 -103
q0 -64 -38 -101q-39 -38 -122 -39h-245v279z" />
    <glyph glyph-name="C" unicode="C" horiz-adv-x="750" 
d="M627 235q-18 -87 -81 -135q-62 -48 -162 -49q-61 0 -109 22q-48 21 -85 64q-72 86 -72 228q0 141 72 226q37 43 85 64q48 22 109 22q94 -1 159 -48q64 -48 84 -133h67q-19 111 -103 176q-84 66 -207 66q-150 0 -243 -104q-46 -52 -69 -119t-23 -150q0 -168 92 -272
q93 -103 243 -103q126 0 210 66q42 34 67 78q25 45 33 101h-67z" />
    <glyph glyph-name="D" unicode="D" horiz-adv-x="745" 
d="M377 0q149 0 234 99q85 100 85 265q0 166 -85 265q-84 100 -234 100h-267v-729h267zM175 666h203q114 0 181 -81q68 -80 68 -221q0 -135 -66 -218t-183 -83h-203v603z" />
    <glyph glyph-name="E" unicode="E" horiz-adv-x="646" 
d="M583 0v63h-408v282h361v60h-361v261h408v63h-473v-729h473z" />
    <glyph glyph-name="F" unicode="F" horiz-adv-x="609" 
d="M175 0v298h357v61h-357v307h397v63h-462v-729h65z" />
    <glyph glyph-name="G" unicode="G" horiz-adv-x="804" 
d="M355 320h290q-1 -59 -20 -107q-19 -49 -56 -87q-73 -76 -193 -76q-118 0 -187 78q-69 77 -71 227q0 74 18 133t53 102q71 87 197 87q90 0 153 -42q62 -42 81 -120h67q-16 99 -99 161q-82 62 -198 62q-77 0 -139 -26t-109 -78q-93 -103 -93 -276q0 -171 92 -270
q46 -49 105 -73q59 -25 130 -25q90 1 161 39q70 39 107 109h7l10 -138h54v380h-360v-60z" />
    <glyph glyph-name="H" unicode="H" horiz-adv-x="800" 
d="M175 0v344h450v-344h65v729h-65v-325h-450v325h-65v-729h65z" />
    <glyph glyph-name="I" unicode="I" horiz-adv-x="285" 
d="M175 729h-65v-729h65v729z" />
    <glyph glyph-name="J" unicode="J" horiz-adv-x="384" 
d="M279 729h-65v-541q0 -131 -117 -131q-55 0 -81 6v-63q25 -8 79 -8q80 0 132 45t52 151v541z" />
    <glyph glyph-name="K" unicode="K" horiz-adv-x="652" 
d="M648 0l-276 411l266 318h-75l-388 -468v468h-65v-729h65v174l155 186l242 -360h76z" />
    <glyph glyph-name="L" unicode="L" horiz-adv-x="569" 
d="M534 0v63h-359v666h-65v-729h424z" />
    <glyph glyph-name="M" unicode="M" horiz-adv-x="908" 
d="M175 0v426l-8 219h6l281 -631l281 631h6l-8 -219v-426h65v729h-92l-250 -570h-5l-248 570h-93v-729h65z" />
    <glyph glyph-name="N" unicode="N" horiz-adv-x="790" 
d="M175 0v440l-5 217h4l419 -657h87v729h-65v-430l6 -225h-4l-421 655h-86v-729h65z" />
    <glyph glyph-name="O" unicode="O" horiz-adv-x="769" 
d="M384 738q-150 0 -243 -104q-92 -103 -92 -270q0 -166 92 -270t243 -104q152 0 243 103q93 104 93 272q0 167 -93 270q-91 103 -243 103v0zM384 53q-61 0 -109 21t-85 64q-72 85 -72 227t72 227q37 43 85 64t109 21t109 -22q48 -21 85 -64q73 -86 73 -227t-73 -226
q-72 -85 -194 -85v0z" />
    <glyph glyph-name="P" unicode="P" horiz-adv-x="671" 
d="M110 729v-729h65v278l218 -1q111 -1 178 60q34 31 51 73q17 41 17 93q-1 103 -65 164t-181 62h-283zM175 337v329h211q12 0 24 -1q13 -1 36 -5q25 -4 44 -15q31 -13 56 -47q25 -35 24 -94q0 -79 -47 -123q-47 -43 -137 -44h-211z" />
    <glyph glyph-name="Q" unicode="Q" horiz-adv-x="769" 
d="M456 -3q122 24 192 123q72 99 72 245q0 167 -93 270q-91 103 -243 103q-150 0 -243 -104q-92 -103 -92 -270q0 -166 92 -270t243 -104h16q26 -78 92 -122q65 -44 171 -45q23 0 36 1v60q-14 -2 -41 -2q-75 1 -127 31q-51 30 -75 84v0zM384 53q-61 0 -109 21t-85 64
q-72 85 -72 227t72 227q37 43 85 64t109 21t109 -22q48 -21 85 -64q73 -86 73 -227t-73 -226q-72 -85 -194 -85v0z" />
    <glyph glyph-name="R" unicode="R" horiz-adv-x="708" 
d="M175 0v300h268q66 0 93 -28t26 -90v-95q0 -66 10 -87h66q-5 13 -8 32q-2 19 -2 45v121q0 117 -107 138v7q61 26 91 73q31 46 31 111q0 94 -57 148q-57 53 -170 54h-306v-729h65zM175 668h236q164 0 164 -148q-1 -73 -50 -115q-49 -43 -133 -44h-217v307z" />
    <glyph glyph-name="S" unicode="S" horiz-adv-x="672" 
d="M55 224q2 -107 73 -170q70 -63 208 -64q124 1 196 55q71 54 72 154q0 156 -185 195l-138 29q-26 6 -45 12q-19 7 -43 21q-25 14 -38 39q-14 24 -14 57q1 61 47 96q45 35 130 36q88 0 138 -38q50 -39 56 -116h66q-3 98 -68 153t-186 56q-113 0 -182 -53q-69 -52 -69 -141
q1 -40 16 -72q14 -33 34 -51t51 -33q31 -14 51 -19q20 -6 46 -11l140 -31q62 -14 93 -47q31 -32 31 -84q-1 -70 -53 -110q-53 -41 -149 -42q-101 0 -154 45t-57 134h-67z" />
    <glyph glyph-name="T" unicode="T" horiz-adv-x="548" 
d="M5 729v-63h238v-666h65v666h235v63h-538z" />
    <glyph glyph-name="U" unicode="U" horiz-adv-x="778" 
d="M104 267q0 -126 76 -202q77 -75 209 -75t208 75q77 76 77 202v462h-65v-455q-1 -105 -59 -163q-59 -57 -161 -58q-102 1 -161 58q-58 58 -59 163v455h-65v-462z" />
    <glyph glyph-name="V" unicode="V" horiz-adv-x="631" 
d="M359 0l264 729h-68l-133 -366l-104 -307h-6l-103 308l-131 365h-70l264 -729h87z" />
    <glyph glyph-name="W" unicode="W" horiz-adv-x="905" 
d="M162 0h93l195 671h5l195 -671h93l149 729h-68l-93 -458l-35 -198h-6l-190 656h-95l-190 -656h-6l-35 198l-93 458h-68z" />
    <glyph glyph-name="X" unicode="X" horiz-adv-x="587" 
d="M85 0l91 136l116 181h6l107 -171l95 -146h71l-233 366l236 363h-71l-96 -149l-106 -168h-6l-96 159l-101 158h-71l227 -358l-241 -371h72z" />
    <glyph glyph-name="Y" unicode="Y" horiz-adv-x="626" 
d="M280 301v-301h65v301l274 428h-80l-123 -200l-98 -163h-7l-97 161l-126 202h-81z" />
    <glyph glyph-name="Z" unicode="Z" horiz-adv-x="571" 
d="M18 729v-63h449l-449 -614v-52h531v64h-444l448 613v52h-535z" />
    <glyph glyph-name="bracketleft" unicode="[" horiz-adv-x="317" 
d="M292 -209v49h-115v887h115v51h-171v-987h171z" />
    <glyph glyph-name="backslash" unicode="\" horiz-adv-x="431" 
d="M93 729h-56l296 -729h57z" />
    <glyph glyph-name="bracketright" unicode="]" horiz-adv-x="317" 
d="M196 -209v987h-171v-51h115v-887h-115v-49h171z" />
    <glyph glyph-name="asciicircum" unicode="^" horiz-adv-x="341" 
d="M328 475l-131 254h-52l-132 -254h61l96 191l97 -191h61z" />
    <glyph glyph-name="underscore" unicode="_" horiz-adv-x="335" 
d="M337 -65v65h-339v-65h339z" />
    <glyph glyph-name="grave" unicode="`" horiz-adv-x="441" 
d="M311 759l-165 124l-32 -56l175 -101z" />
    <glyph glyph-name="a" unicode="a" horiz-adv-x="558" 
d="M50 142q1 -69 48 -110t125 -42q62 1 109 27q48 26 67 71h6q-1 -93 79 -93q20 0 33 5v52q-4 -1 -9 -1q-5 -1 -10 -1q-25 3 -31 14t-4 29v249q0 88 -50 136q-49 48 -143 49q-82 0 -138 -43q-55 -42 -60 -111h60q4 46 39 74q35 27 96 28q134 0 134 -126v-42h-145
q-97 0 -151 -42t-55 -123v0zM115 148q0 51 35 79q36 27 107 27h144v-31q0 -78 -48 -128q-23 -25 -54 -37q-32 -12 -70 -12q-54 0 -84 27q-30 26 -30 75v0z" />
    <glyph glyph-name="b" unicode="b" horiz-adv-x="621" 
d="M156 0l3 90h6q20 -46 67 -73q47 -26 110 -27q103 0 166 74q63 75 63 194q0 120 -63 194q-61 75 -159 75q-64 -1 -113 -30q-50 -30 -71 -81h-6v313h-63v-729h60zM159 294q0 76 50 124q51 49 126 49q74 0 122 -52q47 -51 49 -157q0 -53 -13 -92q-12 -40 -37 -66
q-49 -51 -122 -51t-124 48t-51 120v77z" />
    <glyph glyph-name="c" unicode="c" horiz-adv-x="561" 
d="M449 171q-8 -56 -50 -88q-42 -33 -107 -34q-82 1 -129 54q-47 54 -48 153q1 97 47 154q46 56 131 57q58 0 99 -28t54 -84h65q-5 38 -22 70q-17 31 -46 54q-58 48 -147 48q-112 0 -180 -74q-66 -74 -66 -196q0 -121 66 -195q66 -72 176 -72q92 0 153 49q61 50 70 132h-66z
" />
    <glyph glyph-name="d" unicode="d" horiz-adv-x="621" 
d="M525 729h-63v-314h-5q-22 51 -69 81t-111 31q-102 0 -165 -75q-62 -75 -62 -198q0 -120 61 -192q62 -72 164 -72q65 1 113 28q48 26 69 72h5l4 -90h59v729zM462 217q0 -70 -51 -120q-51 -48 -127 -48q-79 0 -123 53q-45 52 -46 151q0 100 45 157q44 56 126 57
q75 0 125 -49q51 -48 51 -124v-77z" />
    <glyph glyph-name="e" unicode="e" horiz-adv-x="566" 
d="M289 -10q92 1 153 45q60 44 74 118h-64q-12 -49 -54 -78t-106 -30q-83 1 -130 53t-47 148h395q3 22 3 49q-1 107 -59 169t-165 63q-108 0 -174 -74q-65 -73 -65 -196q0 -121 66 -194t173 -73v0zM115 298q4 80 51 126q46 47 123 48q78 0 119 -45q42 -45 42 -129h-335z" />
    <glyph glyph-name="f" unicode="f" horiz-adv-x="314" 
d="M298 517h-127v72q0 46 18 68q19 22 61 22q26 0 48 -5v54q-20 6 -53 6q-66 0 -101 -33q-36 -34 -36 -103v-81h-92v-54h92v-463h63v463h127v54z" />
    <glyph glyph-name="g" unicode="g" horiz-adv-x="528" 
d="M45 -50q0 -60 53 -93q52 -33 160 -34q113 0 175 37t63 109q-1 58 -39 90q-39 32 -109 32h-145q-72 0 -72 48q0 45 51 53q33 -9 73 -9q83 0 134 47q52 47 52 123q0 72 -45 120q7 25 34 41q26 16 65 16v56q-49 0 -86 -23q-36 -22 -52 -61q-19 13 -44 19q-26 6 -60 6
q-83 0 -136 -48q-26 -23 -39 -54q-13 -32 -13 -70q0 -93 72 -140v-6q-28 -9 -46 -30q-17 -22 -18 -52q0 -24 14 -41q13 -18 35 -27v-6q-36 -12 -56 -39q-21 -27 -21 -64v0zM128 354q0 57 33 90q32 33 92 34q58 -1 91 -33q33 -33 34 -91q0 -57 -33 -90q-32 -32 -92 -33
q-58 0 -91 33q-33 32 -34 90v0zM101 -41q0 36 24 56q24 21 71 21h149q9 0 20 -1q10 -2 28 -8q19 -5 30 -21t11 -40q0 -93 -174 -93q-159 0 -159 86v0z" />
    <glyph glyph-name="h" unicode="h" horiz-adv-x="609" 
d="M159 0v273q1 88 46 141q45 52 121 53q132 0 132 -151v-316h63v322q-1 96 -49 150t-131 55q-59 0 -105 -28t-71 -77h-6v307h-63v-729h63z" />
    <glyph glyph-name="i" unicode="i" horiz-adv-x="254" 
d="M158 616v102h-62v-102h62zM158 0v517h-62v-517h62z" />
    <glyph glyph-name="j" unicode="j" horiz-adv-x="261" 
d="M165 616v102h-62v-102h62zM36 -172q60 1 94 36t35 99v554h-62v-550q0 -39 -21 -60q-20 -21 -60 -21q-21 0 -31 4v-58q24 -4 45 -4v0z" />
    <glyph glyph-name="k" unicode="k" horiz-adv-x="540" 
d="M513 0l-212 315l202 202h-83l-261 -265v477h-63v-729h63v173l98 98l183 -271h73z" />
    <glyph glyph-name="l" unicode="l" horiz-adv-x="254" 
d="M158 0v729h-62v-729h62z" />
    <glyph glyph-name="m" unicode="m" horiz-adv-x="923" 
d="M159 0v269q1 89 42 143q40 54 111 55q123 0 123 -153v-314h63v269q0 92 37 144q37 53 111 54q126 0 126 -152v-315h63v321q-1 98 -46 151q-46 54 -127 55q-58 0 -104 -30t-69 -85h-7q-18 51 -58 83q-39 31 -94 32q-54 0 -97 -27q-42 -27 -67 -80h-7l-9 97h-54v-517h63z
" />
    <glyph glyph-name="n" unicode="n" horiz-adv-x="610" 
d="M159 0v270q0 88 46 142q47 55 122 55q132 0 132 -152v-315h63v321q-1 96 -48 151q-48 54 -132 55q-59 0 -105 -28t-71 -79h-6l-9 97h-55v-517h63z" />
    <glyph glyph-name="o" unicode="o" horiz-adv-x="588" 
d="M50 256q0 -59 17 -108q16 -48 50 -85t79 -55q44 -18 99 -18t99 19q43 18 77 55t50 85q17 49 17 108q0 120 -67 195t-176 75q-55 0 -99 -19q-45 -19 -79 -57q-67 -75 -67 -195v0zM115 258q1 99 49 154q48 54 131 55q85 -1 131 -56q46 -56 47 -152q-1 -100 -49 -154
q-47 -54 -130 -55q-85 1 -132 57q-46 56 -47 151v0z" />
    <glyph glyph-name="p" unicode="p" horiz-adv-x="622" 
d="M96 -167h63v264h6q21 -49 68 -78q47 -28 110 -29q103 0 166 74t63 198q0 121 -62 193q-61 72 -164 72q-66 -1 -114 -28q-47 -28 -67 -74h-6l-3 92h-60v-684zM159 297q0 72 51 121t127 49q79 0 124 -53t46 -152q-1 -99 -45 -156q-45 -56 -127 -57q-75 0 -126 47
q-50 48 -50 123v78z" />
    <glyph glyph-name="q" unicode="q" horiz-adv-x="621" 
d="M466 517l-4 -92h-5q-21 48 -68 75t-111 27q-102 0 -165 -75q-63 -74 -63 -194t62 -194t162 -74q63 1 112 30q49 28 71 77h5v-264h63v684h-59zM462 219q0 -75 -51 -123q-50 -47 -125 -47q-74 0 -122 52q-47 51 -49 157q2 106 49 157q48 52 122 52t125 -49t51 -121v-78z
" />
    <glyph glyph-name="r" unicode="r" horiz-adv-x="351" 
d="M159 0v246q0 214 177 220v58q-58 0 -103 -28q-44 -29 -68 -86h-5l-8 107h-56v-517h63z" />
    <glyph glyph-name="s" unicode="s" horiz-adv-x="503" 
d="M50 155q1 -76 55 -120t150 -45q89 0 143 41q55 41 55 108q0 117 -132 142l-107 20q-44 8 -67 29q-22 20 -22 54q0 42 33 67q32 24 92 24q126 0 130 -104h60q-1 72 -51 114q-50 41 -140 42q-87 -1 -137 -40q-50 -40 -51 -110q0 -106 133 -132l117 -23q75 -13 75 -80
q-1 -46 -36 -72q-35 -27 -96 -27q-67 1 -105 31q-38 29 -39 81h-60z" />
    <glyph glyph-name="t" unicode="t" horiz-adv-x="320" 
d="M15 463h91v-331q0 -139 127 -139q16 0 29 2q13 1 24 5v56q-14 -6 -41 -6q-26 0 -43 8t-24 23q-6 15 -7 27q-2 11 -2 28v327h117v54h-117v191l-63 -24v-167h-91v-54z" />
    <glyph glyph-name="u" unicode="u" horiz-adv-x="595" 
d="M444 517v-270q-1 -90 -46 -144q-45 -53 -123 -54q-124 0 -124 143v325h-63v-332q1 -94 47 -144q45 -51 124 -51q62 1 109 29q48 29 70 77h7l10 -96h52v517h-63z" />
    <glyph glyph-name="v" unicode="v" horiz-adv-x="456" 
d="M194 0h72l188 517h-69l-103 -297l-49 -146h-6l-52 146l-103 297h-70z" />
    <glyph glyph-name="w" unicode="w" horiz-adv-x="726" 
d="M565 217l-35 -152h-4l-121 452h-82l-115 -455h-5l-36 158l-82 297h-74l152 -517h90l71 283l36 159h6l38 -159l75 -283h87l149 517h-71z" />
    <glyph glyph-name="x" unicode="x" horiz-adv-x="450" 
d="M74 0l149 216h6l144 -216h73l-179 264l169 253h-72l-134 -209h-6l-137 209h-73l173 -256l-183 -261h70z" />
    <glyph glyph-name="y" unicode="y" horiz-adv-x="449" 
d="M200 7l-13 -32q-36 -94 -115 -94q-15 0 -33 3v-57q10 -2 19 -3t19 -1q36 1 66 13q29 12 47 30q9 8 17 19q9 11 17 25q15 26 22 43t15 40l186 524h-69l-91 -270l-53 -164h-6l-56 164l-100 270h-70z" />
    <glyph glyph-name="z" unicode="z" horiz-adv-x="462" 
d="M419 465v52h-379v-54h305l-305 -414v-49h382v54h-308z" />
    <glyph glyph-name="braceleft" unicode="{" horiz-adv-x="281" 
d="M23 261q28 0 46 -17q17 -18 18 -56v-335q0 -62 61 -62h109v49h-113v346q-1 45 -21 72t-50 31v3q30 3 50 29q20 27 21 73v333h113v51h-109q-61 0 -61 -63v-323q0 -73 -64 -73v-58z" />
    <glyph glyph-name="bar" unicode="|" horiz-adv-x="308" 
d="M185 -27v780h-62v-780h62z" />
    <glyph glyph-name="braceright" unicode="}" horiz-adv-x="281" 
d="M259 319q-65 0 -65 73v323q0 63 -61 63h-108v-51h112v-333q1 -46 21 -73q21 -26 51 -29v-3q-31 -4 -51 -31t-21 -72v-346h-112v-49h108q61 0 61 62v335q1 38 19 56q18 17 46 17v58z" />
    <glyph glyph-name="asciitilde" unicode="~" horiz-adv-x="348" 
d="M66 289q-3 54 33 54q8 0 25 -6t42 -17q50 -22 81 -22q40 -1 65 27q25 27 21 90h-43q0 -60 -43 -60q-21 0 -71 22q-49 23 -78 23q-34 1 -57 -24q-22 -26 -18 -87h43z" />
    <glyph glyph-name="uni00A0" unicode="&#xa0;" horiz-adv-x="240" 
 />
    <glyph glyph-name="exclamdown" unicode="&#xa1;" horiz-adv-x="272" 
d="M98 657h76v72h-76v-72zM105 205v-205h63v205l-17 309h-29z" />
    <glyph glyph-name="cent" unicode="&#xa2;" horiz-adv-x="518" 
d="M417 280q-13 -55 -55 -86t-104 -32q-78 1 -121 52q-43 52 -44 146q1 95 44 150q44 55 123 56q60 0 100 -29q41 -28 54 -80h62q-11 70 -62 113t-129 51v78h-56v-79q-92 -12 -145 -81q-53 -68 -54 -177q1 -108 53 -176q53 -67 146 -78v-78h56v77q76 9 128 53q51 45 67 120
h-63z" />
    <glyph glyph-name="sterling" unicode="&#xa3;" horiz-adv-x="637" 
d="M513 61h-317v271h235v56h-235v143q1 70 39 110q37 39 102 40q55 -1 94 -28t47 -73h61q-10 72 -63 115q-53 42 -138 43q-95 -1 -148 -57q-54 -55 -55 -150v-143h-74v-56h74v-271h-74v-61h512v240h-60v-179z" />
    <glyph glyph-name="currency" unicode="&#xa4;" horiz-adv-x="686" 
d="M156 99l58 70q59 -46 130 -45q35 1 67 12q32 12 60 34l59 -71l48 45l-70 63q44 56 43 129q0 74 -44 131l69 61l-46 47l-60 -73q-26 21 -58 32q-32 10 -69 11t-69 -9q-33 -10 -61 -32l-59 70l-46 -46l71 -61q-22 -28 -32 -61q-11 -32 -12 -69q0 -37 11 -69q11 -33 33 -62
l-72 -63zM343 180q-64 -1 -108 43q-43 44 -42 115q2 72 43 111t105 40q65 0 107 -43q43 -42 43 -109q0 -34 -11 -62q-10 -28 -32 -50q-42 -43 -105 -45v0z" />
    <glyph glyph-name="yen" unicode="&#xa5;" horiz-adv-x="578" 
d="M501 729l-118 -214l-90 -170h-6l-90 170l-119 214h-71l218 -387h-121v-57h153v-70h-153v-57h153v-158h65v158h152v57h-152v70h152v57h-120l217 387h-70z" />
    <glyph glyph-name="brokenbar" unicode="&#xa6;" horiz-adv-x="308" 
d="M185 467v286h-62v-286h62zM185 -26v286h-62v-286h62z" />
    <glyph glyph-name="section" unicode="&#xa7;" horiz-adv-x="487" 
d="M51 379q0 -29 12 -53q11 -23 32 -39q21 -15 35 -23q15 -9 35 -17l107 -44q46 -18 67 -38q22 -21 22 -58q0 -82 -106 -82q-60 0 -96 24t-42 66h-64q6 -70 58 -108t138 -39q84 0 132 37q47 36 48 105q0 56 -44 92v10q28 16 42 41t14 59q0 87 -102 127l-114 47q-20 9 -32 15
q-11 6 -29 17q-18 13 -26 31q-9 17 -9 39q0 81 106 81q59 0 95 -23q37 -23 43 -65h64q-5 66 -56 106q-52 40 -137 41q-83 -1 -131 -39q-49 -38 -50 -102q0 -29 11 -54q11 -24 33 -43v-10q-28 -17 -42 -42t-14 -59v0zM112 398q0 19 7 34q7 16 21 27q24 -12 32 -15q9 -4 14 -6
l121 -54q14 -5 23 -10t21 -16q13 -10 19 -26q7 -17 7 -39q0 -37 -24 -60q-10 7 -21 11q-10 5 -21 10l-122 51q-77 35 -77 93v0z" />
    <glyph glyph-name="dieresis" unicode="&#xa8;" horiz-adv-x="379" 
d="M130 742v110h-66v-110h66zM314 742v110h-66v-110h66z" />
    <glyph glyph-name="copyright" unicode="&#xa9;" horiz-adv-x="932" 
d="M466 -49q171 0 288 113q117 112 120 295q0 177 -118 290q-118 114 -289 114q-172 0 -291 -114q-118 -114 -118 -292q0 -179 118 -293q59 -56 132 -85q72 -28 158 -28v0zM844 359q0 -167 -111 -274q-55 -53 -122 -80t-146 -27t-146 26q-67 27 -122 80q-110 107 -110 273
q0 167 110 273q111 107 270 107q158 0 267 -106q55 -53 82 -121q28 -68 28 -151v0zM470 142q83 0 140 47q58 48 67 119h-64q-9 -50 -47 -80q-38 -31 -96 -32q-68 1 -108 43t-41 120q1 74 40 117q39 44 109 45q57 -1 96 -31t47 -82h64q-10 75 -67 120q-57 46 -138 46
q-94 0 -156 -60q-60 -60 -60 -157q0 -98 60 -157q61 -58 154 -58v0z" />
    <glyph glyph-name="ordfeminine" unicode="&#xaa;" horiz-adv-x="422" 
d="M46 468q1 -52 34 -82t88 -31q90 0 120 72h10l-5 -5q0 -30 15 -47q15 -18 43 -18q15 0 30 5v43h-5q-4 -1 -7 -1q-25 0 -25 29v157q0 67 -36 103t-106 36q-60 0 -101 -28q-40 -27 -48 -76h52q15 57 93 57q93 0 93 -84v-18h-105q-65 0 -102 -29t-38 -83v0zM101 468
q0 70 90 70h100v-22q-1 -50 -31 -81q-30 -32 -82 -33q-36 0 -56 17q-21 17 -21 49v0z" />
    <glyph glyph-name="guillemotleft" unicode="&#xab;" horiz-adv-x="512" 
d="M217 68h58l-110 206l110 204h-58l-122 -204zM390 68h59l-111 206l111 204h-59l-122 -204z" />
    <glyph glyph-name="logicalnot" unicode="&#xac;" horiz-adv-x="659" 
d="M570 156v243h-475v-64h408v-179h67z" />
    <glyph glyph-name="registered" unicode="&#xae;" horiz-adv-x="617" 
d="M308 213q114 0 189 74t75 189q0 114 -75 188t-189 74q-113 0 -188 -74q-37 -37 -55 -83q-19 -47 -19 -105q0 -115 74 -189q75 -74 188 -74v0zM543 475q0 -102 -67 -169q-66 -66 -166 -66t-167 66t-67 168q0 104 66 171q34 34 75 51q42 17 92 17t92 -17q41 -17 75 -51
t50 -76q17 -42 17 -94v0zM249 345v101h82q23 0 32 -10q8 -10 8 -30v-30q0 -24 4 -31h37q-3 9 -3 29v40q0 42 -38 51v1q42 19 42 68q0 34 -21 54q-22 21 -61 21h-119v-264h37zM249 576h73q53 0 53 -47q0 -52 -57 -52h-69v99z" />
    <glyph glyph-name="macron" unicode="&#xaf;" horiz-adv-x="352" 
d="M320 738v45h-292v-45h292z" />
    <glyph glyph-name="degree" unicode="&#xb0;" horiz-adv-x="412" 
d="M348 593q0 63 -42 102q-41 39 -103 39q-60 -1 -99 -39q-38 -39 -39 -102q0 -61 39 -100q41 -39 99 -39q62 0 103 39q42 39 42 100v0zM297 593q-1 -40 -27 -66t-65 -27q-38 1 -63 27q-26 26 -27 66q1 42 27 68q25 26 63 27q39 -1 65 -27t27 -68v0z" />
    <glyph glyph-name="plusminus" unicode="&#xb1;" horiz-adv-x="687" 
d="M591 343v67h-211v181h-75v-181h-210v-67h210v-181h75v181h211zM591 0v72h-496v-72h496z" />
    <glyph glyph-name="uni00B2" unicode="&#xb2;" horiz-adv-x="448" 
d="M126 353q28 93 139 161t126 198q-1 70 -47 113q-45 43 -122 44q-79 0 -129 -48q-49 -46 -48 -123h63q0 54 29 84t83 30q49 0 76 -27q28 -27 28 -75q-2 -59 -42 -99q-40 -41 -92 -78q-51 -37 -91 -87t-42 -127v-19h342v57h-172z" />
    <glyph glyph-name="uni00B3" unicode="&#xb3;" horiz-adv-x="460" 
d="M230 292q81 0 132 45q51 46 51 118q0 46 -23 82q-24 35 -72 54v4q86 39 86 127q0 68 -50 107q-25 20 -55 30t-67 10q-79 0 -129 -49q-48 -49 -45 -127h65q0 57 28 88q29 31 81 31q46 0 75 -24t30 -69q0 -45 -29 -73q-30 -27 -86 -28h-36v-55h37q58 0 90 -28t33 -79
q-1 -49 -32 -77q-31 -29 -84 -30q-52 0 -81 31q-30 30 -28 90h-67q-2 -81 45 -129t131 -49v0z" />
    <glyph glyph-name="acute" unicode="&#xb4;" horiz-adv-x="443" 
d="M327 827l-32 56l-165 -124l22 -33z" />
    <glyph glyph-name="paragraph" unicode="&#xb6;" horiz-adv-x="674" 
d="M258 729q-88 -1 -139 -46q-51 -46 -52 -128q1 -82 51 -128q49 -47 140 -48v-461h-157v-50h251q126 0 126 132v674h75v55h-295zM321 -82v756h97v-673q0 -43 -15 -63q-16 -20 -52 -20h-30z" />
    <glyph glyph-name="periodcentered" unicode="&#xb7;" horiz-adv-x="263" 
d="M131 350q-27 -1 -45 -20t-19 -48q1 -28 19 -47q18 -18 45 -19q28 1 47 20q18 18 19 46q-1 29 -19 48q-19 19 -47 20v0z" />
    <glyph glyph-name="cedilla" unicode="&#xb8;" horiz-adv-x="535" 
d="M284 -1v30h-22l-51 -90v-20q45 11 66 1q21 -11 21 -36q0 -36 -43 -39q-42 -4 -60 22v-40q34 -31 87 -18q54 13 57 76q-1 36 -24 55t-58 17z" />
    <glyph glyph-name="uni00B9" unicode="&#xb9;" horiz-adv-x="357" 
d="M186 717v-417h62v562h-58q-2 -43 -35 -69t-88 -27h-22v-49h141z" />
    <glyph glyph-name="ordmasculine" unicode="&#xba;" horiz-adv-x="434" 
d="M217 729q-76 0 -126 -53q-48 -52 -48 -135q0 -82 48 -135q50 -51 126 -51t124 52q25 26 37 60q12 33 12 74q0 83 -49 135q-48 53 -124 53v0zM98 542q1 64 33 101t86 38q57 -1 87 -39q31 -37 31 -99q-1 -65 -32 -102q-32 -37 -86 -38q-57 1 -88 38q-31 38 -31 101v0z" />
    <glyph glyph-name="guillemotright" unicode="&#xbb;" horiz-adv-x="511" 
d="M125 478h-59l111 -204l-111 -206h59l120 206zM298 478h-59l111 -204l-111 -206h59l121 206z" />
    <glyph glyph-name="onequarter" unicode="&#xbc;" horiz-adv-x="881" 
d="M173 -46h57l407 814h-57zM219 729h-61v-4q0 -77 -81 -77h-45v-52h123v-340h64v473zM786 480h-107l-175 -328v-56h217v-96h65v96h56v59h-56v325zM721 426v-271h-146z" />
    <glyph glyph-name="onehalf" unicode="&#xbd;" horiz-adv-x="880" 
d="M173 -46h57l407 814h-57zM219 729h-61v-4q0 -77 -81 -77h-45v-52h123v-340h64v473zM623 57q14 43 58 80t89 73q31 26 50 62q19 35 20 77q-1 61 -39 99q-39 37 -106 38q-69 -1 -111 -40q-41 -39 -43 -105l64 -5q0 41 23 66q23 26 63 27q39 -1 60 -22q22 -22 22 -59
q-1 -36 -23 -67t-56 -56q-50 -33 -95 -82t-48 -127v-16h289v61h-137z" />
    <glyph glyph-name="threequarters" unicode="&#xbe;" horiz-adv-x="957" 
d="M251 -46h57l407 814h-57zM347 386q0 84 -77 113v5q69 32 69 103q-1 60 -42 94q-41 33 -106 34q-72 -1 -111 -43q-39 -41 -37 -106h66q0 43 22 67q22 25 62 25q34 0 55 -18q21 -19 22 -54q0 -34 -23 -55t-65 -22h-30v-60h33q43 0 69 -22q25 -21 26 -61q-1 -36 -25 -58
t-63 -23q-39 0 -62 24t-23 68h-66q-1 -68 40 -108t111 -41q68 0 111 38q44 39 44 100v0zM864 480h-107l-175 -328v-56h217v-96h65v96h56v59h-56v325zM799 426v-271h-146z" />
    <glyph glyph-name="questiondown" unicode="&#xbf;" horiz-adv-x="575" 
d="M297 729v-96h99v96h-99zM315 538v-136q-112 4 -180 -52q-34 -28 -50 -66q-17 -39 -17 -88q0 -46 15 -83t46 -65q62 -56 165 -56q101 1 161 53q61 52 65 143h-63q-3 -64 -45 -101q-41 -36 -116 -37q-75 1 -119 39q-43 38 -44 107q1 70 47 109t129 40q25 0 67 -6v199h-61z
" />
    <glyph glyph-name="Agrave" unicode="&#xc0;" horiz-adv-x="649" 
d="M182 941l-32 -56l175 -101l22 33zM642 0l-281 729h-74l-281 -729h69l72 188h353l72 -188h70zM222 385l100 280h4l99 -280l53 -140h-309z" />
    <glyph glyph-name="Aacute" unicode="&#xc1;" horiz-adv-x="649" 
d="M466 941l-165 -124l22 -33l175 101zM642 0l-281 729h-74l-281 -729h69l72 188h353l72 -188h70zM222 385l100 280h4l99 -280l53 -140h-309z" />
    <glyph glyph-name="Acircumflex" unicode="&#xc2;" horiz-adv-x="649" 
d="M426 784l34 31l-110 118h-48l-111 -119l32 -30l102 106zM642 0l-281 729h-74l-281 -729h69l72 188h353l72 -188h70zM222 385l100 280h4l99 -280l53 -140h-309z" />
    <glyph glyph-name="Atilde" unicode="&#xc3;" horiz-adv-x="649" 
d="M255 825q8 1 23 -4t35 -15q42 -19 77 -18q45 2 81 62l-30 24q-23 -31 -52 -33q-10 -1 -26 4t-38 15q-44 21 -65 19q-26 -2 -45 -17q-18 -15 -38 -46l30 -22q21 30 48 31v0zM642 0l-281 729h-74l-281 -729h69l72 188h353l72 -188h70zM222 385l100 280h4l99 -280l53 -140
h-309z" />
    <glyph glyph-name="Adieresis" unicode="&#xc4;" horiz-adv-x="649" 
d="M199 914v-110h66v110h-66zM383 914v-110h66v110h-66zM642 0l-281 729h-74l-281 -729h69l72 188h353l72 -188h70zM222 385l100 280h4l99 -280l53 -140h-309z" />
    <glyph glyph-name="Aring" unicode="&#xc5;" horiz-adv-x="649" 
d="M642 0l-271 702q57 26 57 94q-1 46 -28 74q-28 28 -76 29q-48 -1 -76 -29q-27 -28 -28 -74q0 -68 57 -94l-271 -702h69l72 188h353l72 -188h70zM325 861q27 0 43 -18q16 -17 16 -47t-16 -47q-16 -18 -43 -18t-44 18q-17 17 -17 47t17 47q17 18 44 18v0zM222 385l100 280
h4l99 -280l53 -140h-309z" />
    <glyph glyph-name="AE" unicode="&#xc6;" horiz-adv-x="943" 
d="M880 729h-619l-255 -729h69l72 215h248v-215h485v63h-420v273h361v59h-361v271h420v63zM166 272l133 394h96v-394h-229z" />
    <glyph glyph-name="Ccedilla" unicode="&#xc7;" horiz-adv-x="750" 
d="M384 51q-61 0 -109 22q-48 21 -85 64q-72 86 -72 228q0 141 72 226q37 43 85 64q48 22 109 22q94 -1 159 -48q64 -48 84 -133h67q-19 111 -103 176q-84 66 -207 66q-150 0 -243 -104q-46 -52 -69 -119t-23 -150q0 -163 88 -267q89 -103 234 -108l-26 -45v-20q45 11 66 1
q21 -11 21 -36q0 -36 -43 -39q-42 -4 -60 22v-40q34 -31 87 -18q54 13 57 76q-1 36 -24 55t-58 17l18 28q116 8 193 72q77 66 92 172h-67q-18 -87 -81 -135q-62 -48 -162 -49v0z" />
    <glyph glyph-name="Egrave" unicode="&#xc8;" horiz-adv-x="646" 
d="M352 817l-165 124l-32 -56l175 -101zM583 0v63h-408v282h361v60h-361v261h408v63h-473v-729h473z" />
    <glyph glyph-name="Eacute" unicode="&#xc9;" horiz-adv-x="646" 
d="M503 885l-32 56l-165 -124l22 -33zM583 0v63h-408v282h361v60h-361v261h408v63h-473v-729h473z" />
    <glyph glyph-name="Ecircumflex" unicode="&#xca;" horiz-adv-x="646" 
d="M228 784l102 106l101 -106l34 31l-110 118h-48l-111 -119zM583 0v63h-408v282h361v60h-361v261h408v63h-473v-729h473z" />
    <glyph glyph-name="Edieresis" unicode="&#xcb;" horiz-adv-x="646" 
d="M270 804v110h-66v-110h66zM454 804v110h-66v-110h66zM583 0v63h-408v282h361v60h-361v261h408v63h-473v-729h473z" />
    <glyph glyph-name="Igrave" unicode="&#xcc;" horiz-adv-x="285" 
d="M166 817l-165 124l-32 -56l175 -101zM175 729h-65v-729h65v729z" />
    <glyph glyph-name="Iacute" unicode="&#xcd;" horiz-adv-x="285" 
d="M317 885l-32 56l-165 -124l22 -33zM175 729h-65v-729h65v729z" />
    <glyph glyph-name="Icircumflex" unicode="&#xce;" horiz-adv-x="285" 
d="M42 784l102 106l101 -106l34 31l-110 118h-48l-111 -119zM175 729h-65v-729h65v729z" />
    <glyph glyph-name="Idieresis" unicode="&#xcf;" horiz-adv-x="285" 
d="M84 804v110h-66v-110h66zM268 804v110h-66v-110h66zM175 729h-65v-729h65v729z" />
    <glyph glyph-name="Eth" unicode="&#xd0;" horiz-adv-x="745" 
d="M110 729v-326h-84v-57h84v-346h267q149 0 234 99q85 100 85 265q0 166 -85 265q-84 100 -234 100h-267zM175 63v283h143v57h-143v263h203q114 0 181 -81q68 -80 68 -221q0 -135 -66 -218t-183 -83h-203z" />
    <glyph glyph-name="Ntilde" unicode="&#xd1;" horiz-adv-x="790" 
d="M496 788q45 2 81 62l-30 24q-23 -31 -52 -33q-10 -1 -26 4t-38 15q-44 21 -65 19q-26 -2 -45 -17q-18 -15 -38 -46l30 -22q21 30 48 31q8 1 23 -4t35 -15q42 -19 77 -18v0zM175 0v440l-5 217h4l419 -657h87v729h-65v-430l6 -225h-4l-421 655h-86v-729h65z" />
    <glyph glyph-name="Ograve" unicode="&#xd2;" horiz-adv-x="769" 
d="M407 817l-165 124l-32 -56l175 -101zM384 738q-150 0 -243 -104q-92 -103 -92 -270q0 -166 92 -270t243 -104q152 0 243 103q93 104 93 272q0 167 -93 270q-91 103 -243 103v0zM384 53q-61 0 -109 21t-85 64q-72 85 -72 227t72 227q37 43 85 64t109 21t109 -22
q48 -21 85 -64q73 -86 73 -227t-73 -226q-72 -85 -194 -85v0z" />
    <glyph glyph-name="Oacute" unicode="&#xd3;" horiz-adv-x="769" 
d="M558 885l-32 56l-165 -124l22 -33zM384 738q-150 0 -243 -104q-92 -103 -92 -270q0 -166 92 -270t243 -104q152 0 243 103q93 104 93 272q0 167 -93 270q-91 103 -243 103v0zM384 53q-61 0 -109 21t-85 64q-72 85 -72 227t72 227q37 43 85 64t109 21t109 -22
q48 -21 85 -64q73 -86 73 -227t-73 -226q-72 -85 -194 -85v0z" />
    <glyph glyph-name="Ocircumflex" unicode="&#xd4;" horiz-adv-x="769" 
d="M283 784l102 106l101 -106l34 31l-110 118h-48l-111 -119zM384 738q-150 0 -243 -104q-92 -103 -92 -270q0 -166 92 -270t243 -104q152 0 243 103q93 104 93 272q0 167 -93 270q-91 103 -243 103v0zM384 53q-61 0 -109 21t-85 64q-72 85 -72 227t72 227q37 43 85 64
t109 21t109 -22q48 -21 85 -64q73 -86 73 -227t-73 -226q-72 -85 -194 -85v0z" />
    <glyph glyph-name="Otilde" unicode="&#xd5;" horiz-adv-x="769" 
d="M450 788q45 2 81 62l-30 24q-23 -31 -52 -33q-10 -1 -26 4t-38 15q-44 21 -65 19q-26 -2 -45 -17q-18 -15 -38 -46l30 -22q21 30 48 31q8 1 23 -4t35 -15q42 -19 77 -18v0zM384 738q-150 0 -243 -104q-92 -103 -92 -270q0 -166 92 -270t243 -104q152 0 243 103
q93 104 93 272q0 167 -93 270q-91 103 -243 103v0zM384 53q-61 0 -109 21t-85 64q-72 85 -72 227t72 227q37 43 85 64t109 21t109 -22q48 -21 85 -64q73 -86 73 -227t-73 -226q-72 -85 -194 -85v0z" />
    <glyph glyph-name="Odieresis" unicode="&#xd6;" horiz-adv-x="769" 
d="M325 804v110h-66v-110h66zM509 804v110h-66v-110h66zM384 738q-150 0 -243 -104q-92 -103 -92 -270q0 -166 92 -270t243 -104q152 0 243 103q93 104 93 272q0 167 -93 270q-91 103 -243 103v0zM384 53q-61 0 -109 21t-85 64q-72 85 -72 227t72 227q37 43 85 64t109 21
t109 -22q48 -21 85 -64q73 -86 73 -227t-73 -226q-72 -85 -194 -85v0z" />
    <glyph glyph-name="multiply" unicode="&#xd7;" horiz-adv-x="749" 
d="M154 26l217 226h8l217 -226l43 46l-221 228l221 229l-43 44l-217 -225h-8l-217 225l-43 -44l221 -229l-221 -228z" />
    <glyph glyph-name="Oslash" unicode="&#xd8;" horiz-adv-x="882" 
d="M776 652l-80 -59q-45 69 -115 107t-160 38q-150 0 -243 -104q-92 -103 -92 -270q0 -106 40 -192l-66 -49l33 -46l62 46q93 -133 266 -133q152 0 243 103q93 104 93 272q0 96 -33 176l87 64zM155 365q0 142 72 227q37 43 85 64t109 21q74 0 129 -31t92 -93l-460 -340
q-27 66 -27 152v0zM688 364q0 -141 -73 -226q-72 -85 -194 -85q-70 0 -122 27q-53 27 -90 82l458 337q21 -60 21 -135v0z" />
    <glyph glyph-name="Ugrave" unicode="&#xd9;" horiz-adv-x="778" 
d="M412 817l-165 124l-32 -56l175 -101zM104 267q0 -126 76 -202q77 -75 209 -75t208 75q77 76 77 202v462h-65v-455q-1 -105 -59 -163q-59 -57 -161 -58q-102 1 -161 58q-58 58 -59 163v455h-65v-462z" />
    <glyph glyph-name="Uacute" unicode="&#xda;" horiz-adv-x="778" 
d="M563 885l-32 56l-165 -124l22 -33zM104 267q0 -126 76 -202q77 -75 209 -75t208 75q77 76 77 202v462h-65v-455q-1 -105 -59 -163q-59 -57 -161 -58q-102 1 -161 58q-58 58 -59 163v455h-65v-462z" />
    <glyph glyph-name="Ucircumflex" unicode="&#xdb;" horiz-adv-x="778" 
d="M288 784l102 106l101 -106l34 31l-110 118h-48l-111 -119zM104 267q0 -126 76 -202q77 -75 209 -75t208 75q77 76 77 202v462h-65v-455q-1 -105 -59 -163q-59 -57 -161 -58q-102 1 -161 58q-58 58 -59 163v455h-65v-462z" />
    <glyph glyph-name="Udieresis" unicode="&#xdc;" horiz-adv-x="778" 
d="M330 804v110h-66v-110h66zM514 804v110h-66v-110h66zM104 267q0 -126 76 -202q77 -75 209 -75t208 75q77 76 77 202v462h-65v-455q-1 -105 -59 -163q-59 -57 -161 -58q-102 1 -161 58q-58 58 -59 163v455h-65v-462z" />
    <glyph glyph-name="Yacute" unicode="&#xdd;" horiz-adv-x="626" 
d="M488 885l-32 56l-165 -124l22 -33zM280 301v-301h65v301l274 428h-80l-123 -200l-98 -163h-7l-97 161l-126 202h-81z" />
    <glyph glyph-name="Thorn" unicode="&#xde;" horiz-adv-x="675" 
d="M185 600v150h-63v-750h63v149h187q117 1 184 58t68 163q-1 106 -64 168q-62 61 -178 62h-197zM185 209v329h198q83 -1 130 -43q47 -43 48 -122q-1 -76 -47 -119q-46 -44 -131 -45h-198z" />
    <glyph glyph-name="germandbls" unicode="&#xdf;" horiz-adv-x="581" 
d="M380 404q50 19 76 61q25 41 25 96q0 40 -14 72q-13 31 -41 56q-54 50 -140 50q-88 -1 -140 -53q-53 -52 -54 -147v-42h-77v-57h77v-440h62v534q0 67 34 105q33 37 97 38q60 -1 96 -34q35 -34 36 -92q0 -57 -32 -92t-90 -36h-17v-59h16q76 -1 124 -41q47 -41 48 -113
q-1 -70 -47 -112t-127 -43h-59v-55h66q104 0 168 58q32 29 48 66q16 36 16 80q0 68 -38 121q-39 52 -113 72v7z" />
    <glyph glyph-name="agrave" unicode="&#xe0;" horiz-adv-x="558" 
d="M293 621l-165 124l-32 -56l175 -101zM50 142q1 -69 48 -110t125 -42q62 1 109 27q48 26 67 71h6q-1 -93 79 -93q20 0 33 5v52q-4 -1 -9 -1q-5 -1 -10 -1q-25 3 -31 14t-4 29v249q0 88 -50 136q-49 48 -143 49q-82 0 -138 -43q-55 -42 -60 -111h60q4 46 39 74q35 27 96 28
q134 0 134 -126v-42h-145q-97 0 -151 -42t-55 -123v0zM115 148q0 51 35 79q36 27 107 27h144v-31q0 -78 -48 -128q-23 -25 -54 -37q-32 -12 -70 -12q-54 0 -84 27q-30 26 -30 75v0z" />
    <glyph glyph-name="aacute" unicode="&#xe1;" horiz-adv-x="558" 
d="M444 689l-32 56l-165 -124l22 -33zM50 142q1 -69 48 -110t125 -42q62 1 109 27q48 26 67 71h6q-1 -93 79 -93q20 0 33 5v52q-4 -1 -9 -1q-5 -1 -10 -1q-25 3 -31 14t-4 29v249q0 88 -50 136q-49 48 -143 49q-82 0 -138 -43q-55 -42 -60 -111h60q4 46 39 74q35 27 96 28
q134 0 134 -126v-42h-145q-97 0 -151 -42t-55 -123v0zM115 148q0 51 35 79q36 27 107 27h144v-31q0 -78 -48 -128q-23 -25 -54 -37q-32 -12 -70 -12q-54 0 -84 27q-30 26 -30 75v0z" />
    <glyph glyph-name="acircumflex" unicode="&#xe2;" horiz-adv-x="558" 
d="M169 588l102 106l101 -106l34 31l-110 118h-48l-111 -119zM50 142q1 -69 48 -110t125 -42q62 1 109 27q48 26 67 71h6q-1 -93 79 -93q20 0 33 5v52q-4 -1 -9 -1q-5 -1 -10 -1q-25 3 -31 14t-4 29v249q0 88 -50 136q-49 48 -143 49q-82 0 -138 -43q-55 -42 -60 -111h60
q4 46 39 74q35 27 96 28q134 0 134 -126v-42h-145q-97 0 -151 -42t-55 -123v0zM115 148q0 51 35 79q36 27 107 27h144v-31q0 -78 -48 -128q-23 -25 -54 -37q-32 -12 -70 -12q-54 0 -84 27q-30 26 -30 75v0z" />
    <glyph glyph-name="atilde" unicode="&#xe3;" horiz-adv-x="558" 
d="M336 592q45 2 81 62l-30 24q-23 -31 -52 -33q-10 -1 -26 4t-38 15q-44 21 -65 19q-26 -2 -45 -17q-18 -15 -38 -46l30 -22q21 30 48 31q8 1 23 -4t35 -15q42 -19 77 -18v0zM50 142q1 -69 48 -110t125 -42q62 1 109 27q48 26 67 71h6q-1 -93 79 -93q20 0 33 5v52
q-4 -1 -9 -1q-5 -1 -10 -1q-25 3 -31 14t-4 29v249q0 88 -50 136q-49 48 -143 49q-82 0 -138 -43q-55 -42 -60 -111h60q4 46 39 74q35 27 96 28q134 0 134 -126v-42h-145q-97 0 -151 -42t-55 -123v0zM115 148q0 51 35 79q36 27 107 27h144v-31q0 -78 -48 -128
q-23 -25 -54 -37q-32 -12 -70 -12q-54 0 -84 27q-30 26 -30 75v0z" />
    <glyph glyph-name="adieresis" unicode="&#xe4;" horiz-adv-x="558" 
d="M211 608v110h-66v-110h66zM395 608v110h-66v-110h66zM50 142q1 -69 48 -110t125 -42q62 1 109 27q48 26 67 71h6q-1 -93 79 -93q20 0 33 5v52q-4 -1 -9 -1q-5 -1 -10 -1q-25 3 -31 14t-4 29v249q0 88 -50 136q-49 48 -143 49q-82 0 -138 -43q-55 -42 -60 -111h60
q4 46 39 74q35 27 96 28q134 0 134 -126v-42h-145q-97 0 -151 -42t-55 -123v0zM115 148q0 51 35 79q36 27 107 27h144v-31q0 -78 -48 -128q-23 -25 -54 -37q-32 -12 -70 -12q-54 0 -84 27q-30 26 -30 75v0z" />
    <glyph glyph-name="aring" unicode="&#xe5;" horiz-adv-x="558" 
d="M498 50q-25 3 -31 14t-4 29v249q0 69 -31 115q-32 46 -94 62q36 29 36 81q-1 46 -28 74q-28 28 -76 29q-48 -1 -76 -29q-27 -28 -28 -74q0 -52 36 -81q-57 -16 -91 -54q-35 -38 -39 -92h60q4 46 39 74q35 27 96 28q134 0 134 -126v-42h-145q-97 0 -151 -42t-55 -123
q1 -69 48 -110t125 -42q62 1 109 27q48 26 67 71h6q-1 -93 79 -93q20 0 33 5v52q-4 -1 -9 -1q-5 -1 -10 -1v0zM271 665q27 0 43 -18q16 -17 16 -47t-16 -47q-16 -18 -43 -18t-44 18q-17 17 -17 47t17 47q17 18 44 18v0zM401 223q0 -78 -48 -128q-23 -25 -54 -37
q-32 -12 -70 -12q-54 0 -84 27q-30 26 -30 75q0 51 35 79q36 27 107 27h144v-31z" />
    <glyph glyph-name="ae" unicode="&#xe6;" horiz-adv-x="938" 
d="M825 145q-15 -45 -56 -70q-42 -26 -103 -26q-90 1 -136 54t-44 141h394q3 33 3 54q0 101 -64 165t-163 64q-132 0 -196 -106q-48 106 -190 106q-86 -1 -141 -41q-55 -41 -65 -110h61q7 45 45 71q38 25 99 25q69 0 107 -35q37 -34 38 -101v-22h-153q-97 -1 -150 -45
q-52 -45 -53 -123q0 -70 48 -113q50 -43 126 -43q76 1 133 38q56 37 79 101q60 -139 221 -139q86 1 145 41q60 41 78 114h-63zM656 468q73 -1 118 -45t46 -120h-334q3 75 49 120q46 44 121 45v0zM414 237q-1 -86 -46 -136q-46 -51 -125 -52q-57 0 -89 27q-31 27 -32 79
q0 104 138 104h154v-22z" />
    <glyph glyph-name="ccedilla" unicode="&#xe7;" horiz-adv-x="561" 
d="M449 171q-8 -56 -50 -88q-42 -33 -107 -34q-82 1 -129 54q-47 54 -48 153q1 97 47 154q46 56 131 57q58 0 99 -28t54 -84h65q-5 38 -22 70q-17 31 -46 54q-58 48 -147 48q-112 0 -180 -74q-66 -74 -66 -196q0 -118 62 -190q31 -36 73 -55q41 -20 93 -22l-29 -51v-20
q45 11 66 1q21 -11 21 -36q0 -36 -43 -39q-42 -4 -60 22v-40q34 -31 87 -18q54 13 57 76q-1 36 -24 55t-58 17l22 34q83 8 136 56q53 47 62 124h-66z" />
    <glyph glyph-name="egrave" unicode="&#xe8;" horiz-adv-x="566" 
d="M305 621l-165 124l-32 -56l175 -101zM289 -10q92 1 153 45q60 44 74 118h-64q-12 -49 -54 -78t-106 -30q-83 1 -130 53t-47 148h395q3 22 3 49q-1 107 -59 169t-165 63q-108 0 -174 -74q-65 -73 -65 -196q0 -121 66 -194t173 -73v0zM115 298q4 80 51 126q46 47 123 48
q78 0 119 -45q42 -45 42 -129h-335z" />
    <glyph glyph-name="eacute" unicode="&#xe9;" horiz-adv-x="566" 
d="M456 689l-32 56l-165 -124l22 -33zM289 -10q92 1 153 45q60 44 74 118h-64q-12 -49 -54 -78t-106 -30q-83 1 -130 53t-47 148h395q3 22 3 49q-1 107 -59 169t-165 63q-108 0 -174 -74q-65 -73 -65 -196q0 -121 66 -194t173 -73v0zM115 298q4 80 51 126q46 47 123 48
q78 0 119 -45q42 -45 42 -129h-335z" />
    <glyph glyph-name="ecircumflex" unicode="&#xea;" horiz-adv-x="566" 
d="M181 588l102 106l101 -106l34 31l-110 118h-48l-111 -119zM289 -10q92 1 153 45q60 44 74 118h-64q-12 -49 -54 -78t-106 -30q-83 1 -130 53t-47 148h395q3 22 3 49q-1 107 -59 169t-165 63q-108 0 -174 -74q-65 -73 -65 -196q0 -121 66 -194t173 -73v0zM115 298
q4 80 51 126q46 47 123 48q78 0 119 -45q42 -45 42 -129h-335z" />
    <glyph glyph-name="edieresis" unicode="&#xeb;" horiz-adv-x="566" 
d="M223 608v110h-66v-110h66zM407 608v110h-66v-110h66zM289 -10q92 1 153 45q60 44 74 118h-64q-12 -49 -54 -78t-106 -30q-83 1 -130 53t-47 148h395q3 22 3 49q-1 107 -59 169t-165 63q-108 0 -174 -74q-65 -73 -65 -196q0 -121 66 -194t173 -73v0zM115 298q4 80 51 126
q46 47 123 48q78 0 119 -45q42 -45 42 -129h-335z" />
    <glyph glyph-name="igrave" unicode="&#xec;" horiz-adv-x="255" 
d="M151 605l-165 124l-32 -56l175 -101zM159 0v517h-63v-517h63z" />
    <glyph glyph-name="iacute" unicode="&#xed;" horiz-adv-x="255" 
d="M302 673l-32 56l-165 -124l22 -33zM159 0v517h-63v-517h63z" />
    <glyph glyph-name="icircumflex" unicode="&#xee;" horiz-adv-x="255" 
d="M27 572l102 106l101 -106l34 31l-110 118h-48l-111 -119zM159 0v517h-63v-517h63z" />
    <glyph glyph-name="idieresis" unicode="&#xef;" horiz-adv-x="255" 
d="M69 592v110h-66v-110h66zM253 592v110h-66v-110h66zM159 0v517h-63v-517h63z" />
    <glyph glyph-name="eth" unicode="&#xf0;" horiz-adv-x="615" 
d="M58 237q0 -110 69 -179q35 -34 80 -51q44 -17 99 -17q110 0 180 69t70 171q0 50 -21 102q-10 26 -19 45q-10 19 -19 32q-18 26 -47 63l-113 145l97 35v49l-127 -46l-77 98h-84l96 -122l-86 -33v-50l118 44l51 -64l44 -48l-2 -1q-33 14 -67 14q-106 0 -174 -74
q-34 -37 -51 -82t-17 -100v0zM123 242q0 43 13 77t39 60q53 53 132 53q83 0 132 -54q51 -53 51 -136q0 -85 -51 -139q-51 -53 -133 -53t-133 53q-25 26 -37 61q-13 35 -13 78v0z" />
    <glyph glyph-name="ntilde" unicode="&#xf1;" horiz-adv-x="610" 
d="M410 592q45 2 81 62l-30 24q-23 -31 -52 -33q-10 -1 -26 4t-38 15q-44 21 -65 19q-26 -2 -45 -17q-18 -15 -38 -46l30 -22q21 30 48 31q8 1 23 -4t35 -15q42 -19 77 -18v0zM159 0v270q0 88 46 142q47 55 122 55q132 0 132 -152v-315h63v321q-1 96 -48 151q-48 54 -132 55
q-59 0 -105 -28t-71 -79h-6l-9 97h-55v-517h63z" />
    <glyph glyph-name="ograve" unicode="&#xf2;" horiz-adv-x="588" 
d="M318 621l-165 124l-32 -56l175 -101zM50 256q0 -59 17 -108q16 -48 50 -85t79 -55q44 -18 99 -18t99 19q43 18 77 55t50 85q17 49 17 108q0 120 -67 195t-176 75q-55 0 -99 -19q-45 -19 -79 -57q-67 -75 -67 -195v0zM115 258q1 99 49 154q48 54 131 55q85 -1 131 -56
q46 -56 47 -152q-1 -100 -49 -154q-47 -54 -130 -55q-85 1 -132 57q-46 56 -47 151v0z" />
    <glyph glyph-name="oacute" unicode="&#xf3;" horiz-adv-x="588" 
d="M469 689l-32 56l-165 -124l22 -33zM50 256q0 -59 17 -108q16 -48 50 -85t79 -55q44 -18 99 -18t99 19q43 18 77 55t50 85q17 49 17 108q0 120 -67 195t-176 75q-55 0 -99 -19q-45 -19 -79 -57q-67 -75 -67 -195v0zM115 258q1 99 49 154q48 54 131 55q85 -1 131 -56
q46 -56 47 -152q-1 -100 -49 -154q-47 -54 -130 -55q-85 1 -132 57q-46 56 -47 151v0z" />
    <glyph glyph-name="ocircumflex" unicode="&#xf4;" horiz-adv-x="588" 
d="M194 588l102 106l101 -106l34 31l-110 118h-48l-111 -119zM50 256q0 -59 17 -108q16 -48 50 -85t79 -55q44 -18 99 -18t99 19q43 18 77 55t50 85q17 49 17 108q0 120 -67 195t-176 75q-55 0 -99 -19q-45 -19 -79 -57q-67 -75 -67 -195v0zM115 258q1 99 49 154
q48 54 131 55q85 -1 131 -56q46 -56 47 -152q-1 -100 -49 -154q-47 -54 -130 -55q-85 1 -132 57q-46 56 -47 151v0z" />
    <glyph glyph-name="otilde" unicode="&#xf5;" horiz-adv-x="588" 
d="M361 592q45 2 81 62l-30 24q-23 -31 -52 -33q-10 -1 -26 4t-38 15q-44 21 -65 19q-26 -2 -45 -17q-18 -15 -38 -46l30 -22q21 30 48 31q8 1 23 -4t35 -15q42 -19 77 -18v0zM50 256q0 -59 17 -108q16 -48 50 -85t79 -55q44 -18 99 -18t99 19q43 18 77 55t50 85
q17 49 17 108q0 120 -67 195t-176 75q-55 0 -99 -19q-45 -19 -79 -57q-67 -75 -67 -195v0zM115 258q1 99 49 154q48 54 131 55q85 -1 131 -56q46 -56 47 -152q-1 -100 -49 -154q-47 -54 -130 -55q-85 1 -132 57q-46 56 -47 151v0z" />
    <glyph glyph-name="odieresis" unicode="&#xf6;" horiz-adv-x="588" 
d="M236 608v110h-66v-110h66zM420 608v110h-66v-110h66zM50 256q0 -59 17 -108q16 -48 50 -85t79 -55q44 -18 99 -18t99 19q43 18 77 55t50 85q17 49 17 108q0 120 -67 195t-176 75q-55 0 -99 -19q-45 -19 -79 -57q-67 -75 -67 -195v0zM115 258q1 99 49 154q48 54 131 55
q85 -1 131 -56q46 -56 47 -152q-1 -100 -49 -154q-47 -54 -130 -55q-85 1 -132 57q-46 56 -47 151v0z" />
    <glyph glyph-name="divide" unicode="&#xf7;" horiz-adv-x="680" 
d="M387 442v112h-101v-112h101zM585 263v65h-492v-65h492zM387 47v111h-101v-111h101z" />
    <glyph glyph-name="oslash" unicode="&#xf8;" horiz-adv-x="630" 
d="M564 475l-58 -43q-66 95 -192 95q-55 0 -99 -19q-45 -19 -79 -57q-67 -75 -67 -195q0 -71 26 -128l-57 -42l28 -42l54 40q69 -94 194 -94q55 0 99 19q43 18 77 55t50 85q17 49 17 108q0 35 -6 68t-19 62l61 45zM134 258q1 99 49 154q48 54 131 55q97 0 142 -72l-308 -228
q-14 42 -14 91v0zM492 259q-1 -100 -49 -154q-47 -54 -130 -55q-96 0 -143 71l309 227q13 -38 13 -89v0z" />
    <glyph glyph-name="ugrave" unicode="&#xf9;" horiz-adv-x="595" 
d="M321 621l-165 124l-32 -56l175 -101zM444 517v-270q-1 -90 -46 -144q-45 -53 -123 -54q-124 0 -124 143v325h-63v-332q1 -94 47 -144q45 -51 124 -51q62 1 109 29q48 29 70 77h7l10 -96h52v517h-63z" />
    <glyph glyph-name="uacute" unicode="&#xfa;" horiz-adv-x="595" 
d="M472 689l-32 56l-165 -124l22 -33zM444 517v-270q-1 -90 -46 -144q-45 -53 -123 -54q-124 0 -124 143v325h-63v-332q1 -94 47 -144q45 -51 124 -51q62 1 109 29q48 29 70 77h7l10 -96h52v517h-63z" />
    <glyph glyph-name="ucircumflex" unicode="&#xfb;" horiz-adv-x="595" 
d="M197 588l102 106l101 -106l34 31l-110 118h-48l-111 -119zM444 517v-270q-1 -90 -46 -144q-45 -53 -123 -54q-124 0 -124 143v325h-63v-332q1 -94 47 -144q45 -51 124 -51q62 1 109 29q48 29 70 77h7l10 -96h52v517h-63z" />
    <glyph glyph-name="udieresis" unicode="&#xfc;" horiz-adv-x="595" 
d="M239 608v110h-66v-110h66zM423 608v110h-66v-110h66zM444 517v-270q-1 -90 -46 -144q-45 -53 -123 -54q-124 0 -124 143v325h-63v-332q1 -94 47 -144q45 -51 124 -51q62 1 109 29q48 29 70 77h7l10 -96h52v517h-63z" />
    <glyph glyph-name="yacute" unicode="&#xfd;" horiz-adv-x="449" 
d="M399 689l-32 56l-165 -124l22 -33zM200 7l-13 -32q-36 -94 -115 -94q-15 0 -33 3v-57q10 -2 19 -3t19 -1q36 1 66 13q29 12 47 30q9 8 17 19q9 11 17 25q15 26 22 43t15 40l186 524h-69l-91 -270l-53 -164h-6l-56 164l-100 270h-70z" />
    <glyph glyph-name="thorn" unicode="&#xfe;" horiz-adv-x="621" 
d="M96 -167h63v263h6q20 -49 67 -77q48 -28 111 -29q102 0 165 73q63 74 63 196q0 123 -61 195q-31 37 -71 55q-41 18 -93 18q-66 -1 -114 -28q-47 -28 -67 -73h-6v303h-63v-896zM159 299q0 72 51 120t127 48q79 0 124 -53q44 -53 45 -155q-1 -98 -45 -153q-44 -56 -126 -57
q-75 0 -126 47q-25 23 -37 54q-13 30 -13 67v82z" />
    <glyph glyph-name="ydieresis" unicode="&#xff;" horiz-adv-x="449" 
d="M166 608v110h-66v-110h66zM350 608v110h-66v-110h66zM200 7l-13 -32q-36 -94 -115 -94q-15 0 -33 3v-57q10 -2 19 -3t19 -1q36 1 66 13q29 12 47 30q9 8 17 19q9 11 17 25q15 26 22 43t15 40l186 524h-69l-91 -270l-53 -164h-6l-56 164l-100 270h-70z" />
    <glyph glyph-name="Amacron" unicode="&#x100;" horiz-adv-x="649" 
d="M178 841v-45h292v45h-292zM642 0l-281 729h-74l-281 -729h69l72 188h353l72 -188h70zM222 385l100 280h4l99 -280l53 -140h-309z" />
    <glyph glyph-name="amacron" unicode="&#x101;" horiz-adv-x="558" 
d="M416 600v45h-292v-45h292zM50 142q1 -69 48 -110t125 -42q62 1 109 27q48 26 67 71h6q-1 -93 79 -93q20 0 33 5v52q-4 -1 -9 -1q-5 -1 -10 -1q-25 3 -31 14t-4 29v249q0 88 -50 136q-49 48 -143 49q-82 0 -138 -43q-55 -42 -60 -111h60q4 46 39 74q35 27 96 28
q134 0 134 -126v-42h-145q-97 0 -151 -42t-55 -123v0zM115 148q0 51 35 79q36 27 107 27h144v-31q0 -78 -48 -128q-23 -25 -54 -37q-32 -12 -70 -12q-54 0 -84 27q-30 26 -30 75v0z" />
    <glyph glyph-name="Abreve" unicode="&#x102;" horiz-adv-x="649" 
d="M324 784q63 1 100 37q36 36 37 98h-48q-1 -43 -25 -67q-24 -25 -64 -26q-40 1 -64 26q-24 24 -25 67h-47q1 -62 38 -98q36 -36 98 -37v0zM642 0l-281 729h-74l-281 -729h69l72 188h353l72 -188h70zM222 385l100 280h4l99 -280l53 -140h-309z" />
    <glyph glyph-name="abreve" unicode="&#x103;" horiz-adv-x="558" 
d="M359 723q-1 -43 -25 -67q-24 -25 -64 -26q-40 1 -64 26q-24 24 -25 67h-47q1 -62 38 -98q36 -36 98 -37q63 1 100 37q36 36 37 98h-48zM50 142q1 -69 48 -110t125 -42q62 1 109 27q48 26 67 71h6q-1 -93 79 -93q20 0 33 5v52q-4 -1 -9 -1q-5 -1 -10 -1q-25 3 -31 14
t-4 29v249q0 88 -50 136q-49 48 -143 49q-82 0 -138 -43q-55 -42 -60 -111h60q4 46 39 74q35 27 96 28q134 0 134 -126v-42h-145q-97 0 -151 -42t-55 -123v0zM115 148q0 51 35 79q36 27 107 27h144v-31q0 -78 -48 -128q-23 -25 -54 -37q-32 -12 -70 -12q-54 0 -84 27
q-30 26 -30 75v0z" />
    <glyph glyph-name="Aogonek" unicode="&#x104;" horiz-adv-x="649" 
d="M626 -133q-28 0 -44 12q-17 13 -17 36q0 58 79 85l-14 30l-269 699h-74l-281 -729h69l72 188h353l70 -184q-54 -39 -54 -96q1 -37 27 -59q26 -23 69 -24q20 -1 38 2q19 2 36 9v44q-28 -13 -60 -13v0zM222 385l100 280h4l99 -280l53 -140h-309z" />
    <glyph glyph-name="aogonek" unicode="&#x105;" horiz-adv-x="558" 
d="M503 -133q-28 0 -44 12q-17 13 -17 36q0 58 79 85l-4 9v43q-4 -1 -9 -1q-5 -1 -10 -1q-25 3 -31 14t-4 29v249q0 88 -50 136q-49 48 -143 49q-82 0 -138 -43q-55 -42 -60 -111h60q4 46 39 74q35 27 96 28q134 0 134 -126v-42h-145q-97 0 -151 -42t-55 -123q1 -69 48 -110
t125 -42q62 1 109 27q48 26 67 71h6q-1 -33 10 -54q10 -21 30 -31q-52 -39 -52 -95q1 -37 27 -59q26 -23 69 -24q20 -1 38 2q19 2 36 9v44q-28 -13 -60 -13v0zM401 223q0 -78 -48 -128q-23 -25 -54 -37q-32 -12 -70 -12q-54 0 -84 27q-30 26 -30 75q0 51 35 79q36 27 107 27
h144v-31z" />
    <glyph glyph-name="Cacute" unicode="&#x106;" horiz-adv-x="750" 
d="M553 885l-32 56l-165 -124l22 -33zM627 235q-18 -87 -81 -135q-62 -48 -162 -49q-61 0 -109 22q-48 21 -85 64q-72 86 -72 228q0 141 72 226q37 43 85 64q48 22 109 22q94 -1 159 -48q64 -48 84 -133h67q-19 111 -103 176q-84 66 -207 66q-150 0 -243 -104
q-46 -52 -69 -119t-23 -150q0 -168 92 -272q93 -103 243 -103q126 0 210 66q42 34 67 78q25 45 33 101h-67z" />
    <glyph glyph-name="cacute" unicode="&#x107;" horiz-adv-x="561" 
d="M455 689l-32 56l-165 -124l22 -33zM449 171q-8 -56 -50 -88q-42 -33 -107 -34q-82 1 -129 54q-47 54 -48 153q1 97 47 154q46 56 131 57q58 0 99 -28t54 -84h65q-5 38 -22 70q-17 31 -46 54q-58 48 -147 48q-112 0 -180 -74q-66 -74 -66 -196q0 -121 66 -195
q66 -72 176 -72q92 0 153 49q61 50 70 132h-66z" />
    <glyph glyph-name="Cdotaccent" unicode="&#x10a;" horiz-adv-x="750" 
d="M413 804v110h-67v-110h67zM627 235q-18 -87 -81 -135q-62 -48 -162 -49q-61 0 -109 22q-48 21 -85 64q-72 86 -72 228q0 141 72 226q37 43 85 64q48 22 109 22q94 -1 159 -48q64 -48 84 -133h67q-19 111 -103 176q-84 66 -207 66q-150 0 -243 -104q-46 -52 -69 -119
t-23 -150q0 -168 92 -272q93 -103 243 -103q126 0 210 66q42 34 67 78q25 45 33 101h-67z" />
    <glyph glyph-name="cdotaccent" unicode="&#x10b;" horiz-adv-x="561" 
d="M315 608v110h-67v-110h67zM449 171q-8 -56 -50 -88q-42 -33 -107 -34q-82 1 -129 54q-47 54 -48 153q1 97 47 154q46 56 131 57q58 0 99 -28t54 -84h65q-5 38 -22 70q-17 31 -46 54q-58 48 -147 48q-112 0 -180 -74q-66 -74 -66 -196q0 -121 66 -195q66 -72 176 -72
q92 0 153 49q61 50 70 132h-66z" />
    <glyph glyph-name="Ccaron" unicode="&#x10c;" horiz-adv-x="750" 
d="M354 793h49l110 120l-34 30l-101 -107l-100 107l-34 -30zM627 235q-18 -87 -81 -135q-62 -48 -162 -49q-61 0 -109 22q-48 21 -85 64q-72 86 -72 228q0 141 72 226q37 43 85 64q48 22 109 22q94 -1 159 -48q64 -48 84 -133h67q-19 111 -103 176q-84 66 -207 66
q-150 0 -243 -104q-46 -52 -69 -119t-23 -150q0 -168 92 -272q93 -103 243 -103q126 0 210 66q42 34 67 78q25 45 33 101h-67z" />
    <glyph glyph-name="ccaron" unicode="&#x10d;" horiz-adv-x="561" 
d="M256 597h49l110 120l-34 30l-101 -107l-100 107l-34 -30zM449 171q-8 -56 -50 -88q-42 -33 -107 -34q-82 1 -129 54q-47 54 -48 153q1 97 47 154q46 56 131 57q58 0 99 -28t54 -84h65q-5 38 -22 70q-17 31 -46 54q-58 48 -147 48q-112 0 -180 -74q-66 -74 -66 -196
q0 -121 66 -195q66 -72 176 -72q92 0 153 49q61 50 70 132h-66z" />
    <glyph glyph-name="Dcaron" unicode="&#x10e;" horiz-adv-x="745" 
d="M292 793h49l110 120l-34 30l-101 -107l-100 107l-34 -30zM377 0q149 0 234 99q85 100 85 265q0 166 -85 265q-84 100 -234 100h-267v-729h267zM175 666h203q114 0 181 -81q68 -80 68 -221q0 -135 -66 -218t-183 -83h-203v603z" />
    <glyph glyph-name="dcaron" unicode="&#x10f;" horiz-adv-x="699" 
d="M528 729h-63v-314h-5q-22 51 -69 81t-111 31q-102 0 -165 -75q-62 -75 -62 -198q0 -120 61 -192q62 -72 164 -72q65 1 113 28q48 26 69 72h5l4 -90h59v729zM631 529q49 0 78 24t30 66v110h-101v-98h57v-7q0 -9 -1 -17q-2 -7 -7 -19q-5 -11 -20 -18q-14 -6 -36 -6v-35z
M465 217q0 -70 -51 -120q-51 -48 -127 -48q-79 0 -123 53q-45 52 -46 151q0 100 45 157q44 56 126 57q75 0 125 -49q51 -48 51 -124v-77z" />
    <glyph glyph-name="Dcroat" unicode="&#x110;" horiz-adv-x="745" 
d="M110 729v-326h-84v-57h84v-346h267q149 0 234 99q85 100 85 265q0 166 -85 265q-84 100 -234 100h-267zM175 63v283h143v57h-143v263h203q114 0 181 -81q68 -80 68 -221q0 -135 -66 -218t-183 -83h-203z" />
    <glyph glyph-name="dcroat" unicode="&#x111;" horiz-adv-x="621" 
d="M525 632v97h-63v-97h-160v-48h160v-169h-5q-22 51 -69 81t-111 31q-102 0 -165 -75q-62 -75 -62 -198q0 -120 61 -192q62 -72 164 -72q65 1 113 28q48 26 69 72h5l4 -90h59v584h103v48h-103zM462 217q0 -70 -51 -120q-51 -48 -127 -48q-79 0 -123 53q-45 52 -46 151
q0 100 45 157q44 56 126 57q75 0 125 -49q51 -48 51 -124v-77z" />
    <glyph glyph-name="Emacron" unicode="&#x112;" horiz-adv-x="646" 
d="M475 796v45h-292v-45h292zM583 0v63h-408v282h361v60h-361v261h408v63h-473v-729h473z" />
    <glyph glyph-name="emacron" unicode="&#x113;" horiz-adv-x="566" 
d="M428 600v45h-292v-45h292zM289 -10q92 1 153 45q60 44 74 118h-64q-12 -49 -54 -78t-106 -30q-83 1 -130 53t-47 148h395q3 22 3 49q-1 107 -59 169t-165 63q-108 0 -174 -74q-65 -73 -65 -196q0 -121 66 -194t173 -73v0zM115 298q4 80 51 126q46 47 123 48q78 0 119 -45
q42 -45 42 -129h-335z" />
    <glyph glyph-name="Edotaccent" unicode="&#x116;" horiz-adv-x="646" 
d="M363 804v110h-67v-110h67zM583 0v63h-408v282h361v60h-361v261h408v63h-473v-729h473z" />
    <glyph glyph-name="edotaccent" unicode="&#x117;" horiz-adv-x="566" 
d="M316 608v110h-67v-110h67zM289 -10q92 1 153 45q60 44 74 118h-64q-12 -49 -54 -78t-106 -30q-83 1 -130 53t-47 148h395q3 22 3 49q-1 107 -59 169t-165 63q-108 0 -174 -74q-65 -73 -65 -196q0 -121 66 -194t173 -73v0zM115 298q4 80 51 126q46 47 123 48q78 0 119 -45
q42 -45 42 -129h-335z" />
    <glyph glyph-name="Eogonek" unicode="&#x118;" horiz-adv-x="646" 
d="M567 -133q-28 0 -44 12q-17 13 -17 36q0 58 79 85l-2 4v59h-408v282h361v60h-361v261h408v63h-473v-729h396q-49 -38 -49 -92q1 -37 27 -59q26 -23 69 -24q20 -1 38 2q19 2 36 9v44q-28 -13 -60 -13v0z" />
    <glyph glyph-name="eogonek" unicode="&#x119;" horiz-adv-x="566" 
d="M452 153q-12 -49 -54 -78t-106 -30q-83 1 -130 53t-47 148h395q3 22 3 49q-1 107 -59 169t-165 63q-108 0 -174 -74q-65 -73 -65 -196q0 -59 16 -107q15 -47 46 -84q63 -72 166 -76q-19 -17 -28 -38t-9 -44q1 -37 27 -59q26 -23 69 -24q20 -1 38 2q19 2 36 9v44
q-28 -13 -60 -13q-28 0 -44 12q-17 13 -17 36q0 58 79 85q60 18 99 58q38 40 48 95h-64zM289 472q78 0 119 -45q42 -45 42 -129h-335q4 80 51 126q46 47 123 48v0z" />
    <glyph glyph-name="Ecaron" unicode="&#x11a;" horiz-adv-x="646" 
d="M304 793h49l110 120l-34 30l-101 -107l-100 107l-34 -30zM583 0v63h-408v282h361v60h-361v261h408v63h-473v-729h473z" />
    <glyph glyph-name="ecaron" unicode="&#x11b;" horiz-adv-x="566" 
d="M257 597h49l110 120l-34 30l-101 -107l-100 107l-34 -30zM289 -10q92 1 153 45q60 44 74 118h-64q-12 -49 -54 -78t-106 -30q-83 1 -130 53t-47 148h395q3 22 3 49q-1 107 -59 169t-165 63q-108 0 -174 -74q-65 -73 -65 -196q0 -121 66 -194t173 -73v0zM115 298
q4 80 51 126q46 47 123 48q78 0 119 -45q42 -45 42 -129h-335z" />
    <glyph glyph-name="Gbreve" unicode="&#x11e;" horiz-adv-x="804" 
d="M392 784q63 1 100 37q36 36 37 98h-48q-1 -43 -25 -67q-24 -25 -64 -26q-40 1 -64 26q-24 24 -25 67h-47q1 -62 38 -98q36 -36 98 -37v0zM355 320h290q-1 -59 -20 -107q-19 -49 -56 -87q-73 -76 -193 -76q-118 0 -187 78q-69 77 -71 227q0 74 18 133t53 102q71 87 197 87
q90 0 153 -42q62 -42 81 -120h67q-16 99 -99 161q-82 62 -198 62q-77 0 -139 -26t-109 -78q-93 -103 -93 -276q0 -171 92 -270q46 -49 105 -73q59 -25 130 -25q90 1 161 39q70 39 107 109h7l10 -138h54v380h-360v-60z" />
    <glyph glyph-name="gbreve" unicode="&#x11f;" horiz-adv-x="528" 
d="M342 723q-1 -43 -25 -67q-24 -25 -64 -26q-40 1 -64 26q-24 24 -25 67h-47q1 -62 38 -98q36 -36 98 -37q63 1 100 37q36 36 37 98h-48zM45 -50q0 -60 53 -93q52 -33 160 -34q113 0 175 37t63 109q-1 58 -39 90q-39 32 -109 32h-145q-72 0 -72 48q0 45 51 53q33 -9 73 -9
q83 0 134 47q52 47 52 123q0 72 -45 120q7 25 34 41q26 16 65 16v56q-49 0 -86 -23q-36 -22 -52 -61q-19 13 -44 19q-26 6 -60 6q-83 0 -136 -48q-26 -23 -39 -54q-13 -32 -13 -70q0 -93 72 -140v-6q-28 -9 -46 -30q-17 -22 -18 -52q0 -24 14 -41q13 -18 35 -27v-6
q-36 -12 -56 -39q-21 -27 -21 -64v0zM128 354q0 57 33 90q32 33 92 34q58 -1 91 -33q33 -33 34 -91q0 -57 -33 -90q-32 -32 -92 -33q-58 0 -91 33q-33 32 -34 90v0zM101 -41q0 36 24 56q24 21 71 21h149q9 0 20 -1q10 -2 28 -8q19 -5 30 -21t11 -40q0 -93 -174 -93
q-159 0 -159 86v0z" />
    <glyph glyph-name="Gdotaccent" unicode="&#x120;" horiz-adv-x="804" 
d="M359 914v-110h67v110h-67zM355 320h290q-1 -59 -20 -107q-19 -49 -56 -87q-73 -76 -193 -76q-118 0 -187 78q-69 77 -71 227q0 74 18 133t53 102q71 87 197 87q90 0 153 -42q62 -42 81 -120h67q-16 99 -99 161q-82 62 -198 62q-77 0 -139 -26t-109 -78q-93 -103 -93 -276
q0 -171 92 -270q46 -49 105 -73q59 -25 130 -25q90 1 161 39q70 39 107 109h7l10 -138h54v380h-360v-60z" />
    <glyph glyph-name="gdotaccent" unicode="&#x121;" horiz-adv-x="528" 
d="M287 608v110h-67v-110h67zM45 -50q0 -60 53 -93q52 -33 160 -34q113 0 175 37t63 109q-1 58 -39 90q-39 32 -109 32h-145q-72 0 -72 48q0 45 51 53q33 -9 73 -9q83 0 134 47q52 47 52 123q0 72 -45 120q7 25 34 41q26 16 65 16v56q-49 0 -86 -23q-36 -22 -52 -61
q-19 13 -44 19q-26 6 -60 6q-83 0 -136 -48q-26 -23 -39 -54q-13 -32 -13 -70q0 -93 72 -140v-6q-28 -9 -46 -30q-17 -22 -18 -52q0 -24 14 -41q13 -18 35 -27v-6q-36 -12 -56 -39q-21 -27 -21 -64v0zM128 354q0 57 33 90q32 33 92 34q58 -1 91 -33q33 -33 34 -91
q0 -57 -33 -90q-32 -32 -92 -33q-58 0 -91 33q-33 32 -34 90v0zM101 -41q0 36 24 56q24 21 71 21h149q9 0 20 -1q10 -2 28 -8q19 -5 30 -21t11 -40q0 -93 -174 -93q-159 0 -159 86v0z" />
    <glyph glyph-name="uni0122" unicode="&#x122;" horiz-adv-x="804" 
d="M355 320h290q-1 -59 -20 -107q-19 -49 -56 -87q-73 -76 -193 -76q-118 0 -187 78q-69 77 -71 227q0 74 18 133t53 102q71 87 197 87q90 0 153 -42q62 -42 81 -120h67q-16 99 -99 161q-82 62 -198 62q-77 0 -139 -26t-109 -78q-93 -103 -93 -276q0 -171 92 -270
q46 -49 105 -73q59 -25 130 -25q90 1 161 39q70 39 107 109h7l10 -138h54v380h-360v-60zM398 -149v-2q0 -41 -42 -41v-22q72 0 72 72v79h-72v-86h42z" />
    <glyph glyph-name="uni0123" unicode="&#x123;" horiz-adv-x="528" 
d="M289 774q-72 0 -72 -72v-98h72v86h-42v19q0 43 42 43v22zM45 -50q0 -60 53 -93q52 -33 160 -34q113 0 175 37t63 109q-1 58 -39 90q-39 32 -109 32h-145q-72 0 -72 48q0 45 51 53q33 -9 73 -9q83 0 134 47q52 47 52 123q0 72 -45 120q7 25 34 41q26 16 65 16v56
q-49 0 -86 -23q-36 -22 -52 -61q-19 13 -44 19q-26 6 -60 6q-83 0 -136 -48q-26 -23 -39 -54q-13 -32 -13 -70q0 -93 72 -140v-6q-28 -9 -46 -30q-17 -22 -18 -52q0 -24 14 -41q13 -18 35 -27v-6q-36 -12 -56 -39q-21 -27 -21 -64v0zM128 354q0 57 33 90q32 33 92 34
q58 -1 91 -33q33 -33 34 -91q0 -57 -33 -90q-32 -32 -92 -33q-58 0 -91 33q-33 32 -34 90v0zM101 -41q0 36 24 56q24 21 71 21h149q9 0 20 -1q10 -2 28 -8q19 -5 30 -21t11 -40q0 -93 -174 -93q-159 0 -159 86v0z" />
    <glyph glyph-name="Hbar" unicode="&#x126;" horiz-adv-x="800" 
d="M690 620v109h-65v-109h-450v109h-65v-109h-72v-55h72v-565h65v344h450v-344h65v565h79v55h-79zM175 404v161h450v-161h-450z" />
    <glyph glyph-name="hbar" unicode="&#x127;" horiz-adv-x="609" 
d="M341 527q-59 0 -105 -28t-71 -77h-6v162h172v48h-172v97h-63v-97h-91v-48h91v-584h63v273q1 88 46 141q45 52 121 53q132 0 132 -151v-316h63v322q-1 96 -49 150t-131 55v0z" />
    <glyph glyph-name="Imacron" unicode="&#x12a;" horiz-adv-x="285" 
d="M289 796v45h-292v-45h292zM175 729h-65v-729h65v729z" />
    <glyph glyph-name="imacron" unicode="&#x12b;" horiz-adv-x="255" 
d="M274 584v45h-292v-45h292zM159 0v517h-63v-517h63z" />
    <glyph glyph-name="Iogonek" unicode="&#x12e;" horiz-adv-x="285" 
d="M158 -133q-28 0 -44 12q-17 13 -17 36q0 58 79 85l-1 2v727h-65v-720q-62 -39 -62 -101q1 -37 27 -59q26 -23 69 -24q20 -1 38 2q19 2 36 9v44q-28 -13 -60 -13v0z" />
    <glyph glyph-name="iogonek" unicode="&#x12f;" horiz-adv-x="255" 
d="M95 702v-110h67v110h-67zM142 -133q-28 0 -44 12q-17 13 -17 36q0 58 79 85l-1 2v515h-63v-507q-64 -37 -64 -102q1 -37 27 -59q26 -23 69 -24q20 -1 38 2q19 2 36 9v44q-28 -13 -60 -13v0z" />
    <glyph glyph-name="Idotaccent" unicode="&#x130;" horiz-adv-x="285" 
d="M177 804v110h-67v-110h67zM175 729h-65v-729h65v729z" />
    <glyph glyph-name="dotlessi" unicode="&#x131;" horiz-adv-x="255" 
d="M159 0v517h-63v-517h63z" />
    <glyph glyph-name="Jcircumflex" unicode="&#x134;" horiz-adv-x="384" 
d="M144 784l102 106l101 -106l34 31l-110 118h-48l-111 -119zM279 729h-65v-541q0 -131 -117 -131q-55 0 -81 6v-63q25 -8 79 -8q80 0 132 45t52 151v541z" />
    <glyph glyph-name="jcircumflex" unicode="&#x135;" horiz-adv-x="261" 
d="M33 572l102 106l101 -106l34 31l-110 118h-48l-111 -119zM35 -171q60 0 95 35q34 35 35 99v554h-63v-549q0 -37 -20 -59q-21 -22 -60 -22q-18 0 -31 4v-58q24 -4 44 -4v0z" />
    <glyph glyph-name="uni0136" unicode="&#x136;" horiz-adv-x="652" 
d="M638 729h-75l-388 -468v468h-65v-729h65v174l155 186l242 -360h76l-276 411zM347 -149v-2q0 -41 -42 -41v-22q72 0 72 72v79h-72v-86h42z" />
    <glyph glyph-name="uni0137" unicode="&#x137;" horiz-adv-x="540" 
d="M503 517h-83l-261 -265v477h-63v-729h63v173l98 98l183 -271h73l-212 315zM301 -149v-2q0 -41 -42 -41v-22q72 0 72 72v79h-72v-86h42z" />
    <glyph glyph-name="Lacute" unicode="&#x139;" horiz-adv-x="569" 
d="M387 885l-32 56l-165 -124l22 -33zM534 0v63h-359v666h-65v-729h424z" />
    <glyph glyph-name="lacute" unicode="&#x13a;" horiz-adv-x="254" 
d="M302 885l-32 56l-165 -124l22 -33zM158 0v729h-62v-729h62z" />
    <glyph glyph-name="uni013B" unicode="&#x13b;" horiz-adv-x="569" 
d="M534 0v63h-359v666h-65v-729h424zM286 -214q72 0 72 72v79h-72v-86h42v-2q0 -41 -42 -41v-22z" />
    <glyph glyph-name="uni013C" unicode="&#x13c;" horiz-adv-x="254" 
d="M158 0v729h-62v-729h62zM92 -214q72 0 72 72v79h-72v-86h42v-2q0 -41 -42 -41v-22z" />
    <glyph glyph-name="Lcaron" unicode="&#x13d;" horiz-adv-x="585" 
d="M540 0v63h-359v666h-65v-729h424zM318 484q49 0 78 27q28 26 29 74v144h-100v-110h57v-29q0 -68 -64 -68v-38z" />
    <glyph glyph-name="lcaron" unicode="&#x13e;" horiz-adv-x="254" 
d="M103 793h49l110 120l-34 30l-101 -107l-100 107l-34 -30zM158 0v729h-62v-729h62z" />
    <glyph glyph-name="Ldot" unicode="&#x13f;" horiz-adv-x="602" 
d="M534 0v63h-359v666h-65v-729h424zM375 444q-27 -1 -45 -20t-19 -48q1 -28 19 -47q18 -18 45 -19q28 1 47 20q18 18 19 46q-1 29 -19 48q-19 19 -47 20v0z" />
    <glyph glyph-name="ldot" unicode="&#x140;" horiz-adv-x="378" 
d="M158 0v729h-62v-729h62zM311 445q-27 -1 -45 -20t-19 -48q1 -28 19 -47q18 -18 45 -19q28 1 47 20q18 18 19 46q-1 29 -19 48q-19 19 -47 20v0z" />
    <glyph glyph-name="Lslash" unicode="&#x141;" horiz-adv-x="563" 
d="M169 383l209 74v60l-209 -74v286h-65v-309l-69 -24v-60l69 24v-360h424v63h-359v320z" />
    <glyph glyph-name="lslash" unicode="&#x142;" horiz-adv-x="241" 
d="M151 489v240h-62v-263l-74 -27v-60l74 28v-407h62v430l75 28v59z" />
    <glyph glyph-name="Nacute" unicode="&#x143;" horiz-adv-x="790" 
d="M604 885l-32 56l-165 -124l22 -33zM175 0v440l-5 217h4l419 -657h87v729h-65v-430l6 -225h-4l-421 655h-86v-729h65z" />
    <glyph glyph-name="nacute" unicode="&#x144;" horiz-adv-x="610" 
d="M518 689l-32 56l-165 -124l22 -33zM159 0v270q0 88 46 142q47 55 122 55q132 0 132 -152v-315h63v321q-1 96 -48 151q-48 54 -132 55q-59 0 -105 -28t-71 -79h-6l-9 97h-55v-517h63z" />
    <glyph glyph-name="uni0145" unicode="&#x145;" horiz-adv-x="790" 
d="M175 0v440l-5 217h4l419 -657h87v729h-65v-430l6 -225h-4l-421 655h-86v-729h65zM394 -214q72 0 72 72v79h-72v-86h42v-2q0 -41 -42 -41v-22z" />
    <glyph glyph-name="uni0146" unicode="&#x146;" horiz-adv-x="610" 
d="M159 0v270q0 88 46 142q47 55 122 55q132 0 132 -152v-315h63v321q-1 96 -48 151q-48 54 -132 55q-59 0 -105 -28t-71 -79h-6l-9 97h-55v-517h63zM273 -214q72 0 72 72v79h-72v-86h42v-2q0 -41 -42 -41v-22z" />
    <glyph glyph-name="Ncaron" unicode="&#x147;" horiz-adv-x="790" 
d="M405 793h49l110 120l-34 30l-101 -107l-100 107l-34 -30zM175 0v440l-5 217h4l419 -657h87v729h-65v-430l6 -225h-4l-421 655h-86v-729h65z" />
    <glyph glyph-name="ncaron" unicode="&#x148;" horiz-adv-x="610" 
d="M319 597h49l110 120l-34 30l-101 -107l-100 107l-34 -30zM159 0v270q0 88 46 142q47 55 122 55q132 0 132 -152v-315h63v321q-1 96 -48 151q-48 54 -132 55q-59 0 -105 -28t-71 -79h-6l-9 97h-55v-517h63z" />
    <glyph glyph-name="Eng" unicode="&#x14a;" horiz-adv-x="790" 
d="M615 299l6 -225h-4l-421 655h-86v-729h65v440l-5 217h4l419 -657h23v-33q1 -39 -16 -58q-16 -20 -55 -20q-22 0 -39 4v-52q21 -6 51 -6q58 0 90 29t33 86v779h-65v-430z" />
    <glyph glyph-name="eng" unicode="&#x14b;" horiz-adv-x="610" 
d="M342 527q-59 0 -105 -28t-71 -79h-6l-9 97h-55v-517h63v270q0 88 46 142q47 55 122 55q132 0 132 -152v-353q0 -14 -1 -25q-1 -10 -7 -25q-6 -16 -22 -24q-16 -9 -40 -9t-41 4v-51q21 -6 50 -6q57 1 90 33q33 33 34 91v371q-1 96 -48 151q-48 54 -132 55v0z" />
    <glyph glyph-name="Omacron" unicode="&#x14c;" horiz-adv-x="769" 
d="M530 796v45h-292v-45h292zM384 738q-150 0 -243 -104q-92 -103 -92 -270q0 -166 92 -270t243 -104q152 0 243 103q93 104 93 272q0 167 -93 270q-91 103 -243 103v0zM384 53q-61 0 -109 21t-85 64q-72 85 -72 227t72 227q37 43 85 64t109 21t109 -22q48 -21 85 -64
q73 -86 73 -227t-73 -226q-72 -85 -194 -85v0z" />
    <glyph glyph-name="omacron" unicode="&#x14d;" horiz-adv-x="588" 
d="M441 600v45h-292v-45h292zM50 256q0 -59 17 -108q16 -48 50 -85t79 -55q44 -18 99 -18t99 19q43 18 77 55t50 85q17 49 17 108q0 120 -67 195t-176 75q-55 0 -99 -19q-45 -19 -79 -57q-67 -75 -67 -195v0zM115 258q1 99 49 154q48 54 131 55q85 -1 131 -56
q46 -56 47 -152q-1 -100 -49 -154q-47 -54 -130 -55q-85 1 -132 57q-46 56 -47 151v0z" />
    <glyph glyph-name="Ohungarumlaut" unicode="&#x150;" horiz-adv-x="769" 
d="M464 885l-33 56l-165 -124l22 -33zM657 885l-34 56l-164 -124l21 -33zM384 738q-150 0 -243 -104q-92 -103 -92 -270q0 -166 92 -270t243 -104q152 0 243 103q93 104 93 272q0 167 -93 270q-91 103 -243 103v0zM384 53q-61 0 -109 21t-85 64q-72 85 -72 227t72 227
q37 43 85 64t109 21t109 -22q48 -21 85 -64q73 -86 73 -227t-73 -226q-72 -85 -194 -85v0z" />
    <glyph glyph-name="ohungarumlaut" unicode="&#x151;" horiz-adv-x="588" 
d="M375 689l-33 56l-165 -124l22 -33zM568 689l-34 56l-164 -124l21 -33zM50 256q0 -59 17 -108q16 -48 50 -85t79 -55q44 -18 99 -18t99 19q43 18 77 55t50 85q17 49 17 108q0 120 -67 195t-176 75q-55 0 -99 -19q-45 -19 -79 -57q-67 -75 -67 -195v0zM115 258q1 99 49 154
q48 54 131 55q85 -1 131 -56q46 -56 47 -152q-1 -100 -49 -154q-47 -54 -130 -55q-85 1 -132 57q-46 56 -47 151v0z" />
    <glyph glyph-name="OE" unicode="&#x152;" horiz-adv-x="971" 
d="M49 365q0 -163 98 -264q99 -101 259 -101h502v65h-392v271h293v59h-293v271h392v63h-501q-160 0 -259 -101t-99 -263v0zM406 65q-65 0 -117 21t-92 62t-59 96q-20 54 -20 121t20 121q19 55 59 96q79 84 209 84h47v-601h-47z" />
    <glyph glyph-name="oe" unicode="&#x153;" horiz-adv-x="997" 
d="M883 153q-12 -49 -54 -78t-106 -30q-83 1 -130 53t-47 148h395q3 22 3 49q-1 107 -59 169t-165 63q-73 0 -127 -34q-54 -35 -84 -98q-31 63 -86 97q-55 35 -128 35q-55 0 -99 -19q-45 -19 -79 -57q-67 -75 -67 -195q0 -59 17 -108q16 -48 50 -85t79 -55q44 -18 99 -18
q73 0 128 34t86 97q30 -63 84 -97t127 -34q92 1 153 45q60 44 74 118h-64zM720 472q78 0 119 -45q42 -45 42 -129h-335q4 80 51 126q46 47 123 48v0zM294 50q-85 1 -132 57q-46 56 -47 151q1 99 49 154q48 54 131 55q85 -1 131 -56q46 -56 47 -152q-1 -100 -49 -154
q-47 -54 -130 -55v0z" />
    <glyph glyph-name="Racute" unicode="&#x154;" horiz-adv-x="708" 
d="M536 885l-32 56l-165 -124l22 -33zM175 0v300h268q66 0 93 -28t26 -90v-95q0 -66 10 -87h66q-5 13 -8 32q-2 19 -2 45v121q0 117 -107 138v7q61 26 91 73q31 46 31 111q0 94 -57 148q-57 53 -170 54h-306v-729h65zM175 668h236q164 0 164 -148q-1 -73 -50 -115
q-49 -43 -133 -44h-217v307z" />
    <glyph glyph-name="racute" unicode="&#x155;" horiz-adv-x="351" 
d="M383 689l-32 56l-165 -124l22 -33zM159 0v246q0 214 177 220v58q-58 0 -103 -28q-44 -29 -68 -86h-5l-8 107h-56v-517h63z" />
    <glyph glyph-name="uni0156" unicode="&#x156;" horiz-adv-x="708" 
d="M175 0v300h268q66 0 93 -28t26 -90v-95q0 -66 10 -87h66q-5 13 -8 32q-2 19 -2 45v121q0 117 -107 138v7q61 26 91 73q31 46 31 111q0 94 -57 148q-57 53 -170 54h-306v-729h65zM175 668h236q164 0 164 -148q-1 -73 -50 -115q-49 -43 -133 -44h-217v307zM350 -214
q72 0 72 72v79h-72v-86h42v-2q0 -41 -42 -41v-22z" />
    <glyph glyph-name="uni0157" unicode="&#x157;" horiz-adv-x="351" 
d="M159 0v246q0 214 177 220v58q-58 0 -103 -28q-44 -29 -68 -86h-5l-8 107h-56v-517h63zM92 -214q72 0 72 72v79h-72v-86h42v-2q0 -41 -42 -41v-22z" />
    <glyph glyph-name="Rcaron" unicode="&#x158;" horiz-adv-x="708" 
d="M337 793h49l110 120l-34 30l-101 -107l-100 107l-34 -30zM175 0v300h268q66 0 93 -28t26 -90v-95q0 -66 10 -87h66q-5 13 -8 32q-2 19 -2 45v121q0 117 -107 138v7q61 26 91 73q31 46 31 111q0 94 -57 148q-57 53 -170 54h-306v-729h65zM175 668h236q164 0 164 -148
q-1 -73 -50 -115q-49 -43 -133 -44h-217v307z" />
    <glyph glyph-name="rcaron" unicode="&#x159;" horiz-adv-x="351" 
d="M184 597h49l110 120l-34 30l-101 -107l-100 107l-34 -30zM159 0v246q0 214 177 220v58q-58 0 -103 -28q-44 -29 -68 -86h-5l-8 107h-56v-517h63z" />
    <glyph glyph-name="Sacute" unicode="&#x15a;" horiz-adv-x="672" 
d="M507 885l-32 56l-165 -124l22 -33zM55 224q2 -107 73 -170q70 -63 208 -64q124 1 196 55q71 54 72 154q0 156 -185 195l-138 29q-26 6 -45 12q-19 7 -43 21q-25 14 -38 39q-14 24 -14 57q1 61 47 96q45 35 130 36q88 0 138 -38q50 -39 56 -116h66q-3 98 -68 153t-186 56
q-113 0 -182 -53q-69 -52 -69 -141q1 -40 16 -72q14 -33 34 -51t51 -33q31 -14 51 -19q20 -6 46 -11l140 -31q62 -14 93 -47q31 -32 31 -84q-1 -70 -53 -110q-53 -41 -149 -42q-101 0 -154 45t-57 134h-67z" />
    <glyph glyph-name="sacute" unicode="&#x15b;" horiz-adv-x="503" 
d="M425 689l-32 56l-165 -124l22 -33zM50 155q1 -76 55 -120t150 -45q89 0 143 41q55 41 55 108q0 117 -132 142l-107 20q-44 8 -67 29q-22 20 -22 54q0 42 33 67q32 24 92 24q126 0 130 -104h60q-1 72 -51 114q-50 41 -140 42q-87 -1 -137 -40q-50 -40 -51 -110
q0 -106 133 -132l117 -23q75 -13 75 -80q-1 -46 -36 -72q-35 -27 -96 -27q-67 1 -105 31q-38 29 -39 81h-60z" />
    <glyph glyph-name="Scedilla" unicode="&#x15e;" horiz-adv-x="672" 
d="M604 199q0 156 -185 195l-138 29q-26 6 -45 12q-19 7 -43 21q-25 14 -38 39q-14 24 -14 57q1 61 47 96q45 35 130 36q88 0 138 -38q50 -39 56 -116h66q-3 98 -68 153t-186 56q-113 0 -182 -53q-69 -52 -69 -141q1 -40 16 -72q14 -33 34 -51t51 -33q31 -14 51 -19
q20 -6 46 -11l140 -31q62 -14 93 -47q31 -32 31 -84q-1 -70 -53 -110q-53 -41 -149 -42q-101 0 -154 45t-57 134h-67q2 -106 71 -168q69 -63 202 -66l-29 -51v-20q45 11 66 1q21 -11 21 -36q0 -36 -43 -39q-42 -4 -60 22v-40q34 -31 87 -18q54 13 57 76q-1 36 -24 55t-58 17
l22 34q111 7 174 61q62 54 63 147v0z" />
    <glyph glyph-name="scedilla" unicode="&#x15f;" horiz-adv-x="503" 
d="M453 139q0 117 -132 142l-107 20q-44 8 -67 29q-22 20 -22 54q0 42 33 67q32 24 92 24q126 0 130 -104h60q-1 72 -51 114q-50 41 -140 42q-87 -1 -137 -40q-50 -40 -51 -110q0 -106 133 -132l117 -23q75 -13 75 -80q-1 -46 -36 -72q-35 -27 -96 -27q-67 1 -105 31
q-38 29 -39 81h-60q1 -71 49 -114q48 -44 135 -50l-23 -41v-20q45 11 66 1q21 -11 21 -36q0 -36 -43 -39q-42 -4 -60 22v-40q34 -31 87 -18q54 13 57 76q-1 36 -24 55t-58 17l14 22q84 6 133 45q48 40 49 104v0z" />
    <glyph glyph-name="Scaron" unicode="&#x160;" horiz-adv-x="672" 
d="M308 793h49l110 120l-34 30l-101 -107l-100 107l-34 -30zM55 224q2 -107 73 -170q70 -63 208 -64q124 1 196 55q71 54 72 154q0 156 -185 195l-138 29q-26 6 -45 12q-19 7 -43 21q-25 14 -38 39q-14 24 -14 57q1 61 47 96q45 35 130 36q88 0 138 -38q50 -39 56 -116h66
q-3 98 -68 153t-186 56q-113 0 -182 -53q-69 -52 -69 -141q1 -40 16 -72q14 -33 34 -51t51 -33q31 -14 51 -19q20 -6 46 -11l140 -31q62 -14 93 -47q31 -32 31 -84q-1 -70 -53 -110q-53 -41 -149 -42q-101 0 -154 45t-57 134h-67z" />
    <glyph glyph-name="scaron" unicode="&#x161;" horiz-adv-x="503" 
d="M226 597h49l110 120l-34 30l-101 -107l-100 107l-34 -30zM50 155q1 -76 55 -120t150 -45q89 0 143 41q55 41 55 108q0 117 -132 142l-107 20q-44 8 -67 29q-22 20 -22 54q0 42 33 67q32 24 92 24q126 0 130 -104h60q-1 72 -51 114q-50 41 -140 42q-87 -1 -137 -40
q-50 -40 -51 -110q0 -106 133 -132l117 -23q75 -13 75 -80q-1 -46 -36 -72q-35 -27 -96 -27q-67 1 -105 31q-38 29 -39 81h-60z" />
    <glyph glyph-name="uni0162" unicode="&#x162;" horiz-adv-x="548" 
d="M308 666h235v63h-538v-63h238v-666h27l-35 -61v-20q45 11 66 1q21 -11 21 -36q0 -36 -43 -39q-42 -4 -60 22v-40q34 -31 87 -18q54 13 57 76q-1 36 -24 55t-58 17l27 42v667z" />
    <glyph glyph-name="uni0163" unicode="&#x163;" horiz-adv-x="320" 
d="M236 -7q29 0 50 7v56q-14 -6 -41 -6q-26 0 -43 8t-24 23q-6 15 -7 27q-2 11 -2 28v327h117v54h-117v191l-63 -24v-167h-91v-54h91v-331q0 -119 93 -136l-32 -57v-20q45 11 66 1q21 -11 21 -36q0 -36 -43 -39q-42 -4 -60 22v-40q34 -31 87 -18q54 13 57 76q-1 36 -24 55
t-58 17z" />
    <glyph glyph-name="Tcaron" unicode="&#x164;" horiz-adv-x="548" 
d="M409 913l-34 30l-101 -107l-100 107l-34 -30l110 -120h49zM5 729v-63h238v-666h65v666h235v63h-538z" />
    <glyph glyph-name="tcaron" unicode="&#x165;" horiz-adv-x="320" 
d="M113 751h49l110 120l-34 30l-101 -107l-100 107l-34 -30zM15 463h91v-331q0 -139 127 -139q16 0 29 2q13 1 24 5v56q-14 -6 -41 -6q-26 0 -43 8t-24 23q-6 15 -7 27q-2 11 -2 28v327h117v54h-117v191l-63 -24v-167h-91v-54z" />
    <glyph glyph-name="Tbar" unicode="&#x166;" horiz-adv-x="548" 
d="M543 729h-538v-63h238v-242h-177v-56h177v-368h65v368h174v56h-174v242h235v63z" />
    <glyph glyph-name="tbar" unicode="&#x167;" horiz-adv-x="320" 
d="M289 320h-120v143h117v54h-117v191l-63 -24v-167h-91v-54h91v-143h-91v-49h91v-139q0 -139 127 -139q16 0 29 2q13 1 24 5v56q-14 -6 -41 -6q-26 0 -43 8t-24 23q-6 15 -7 27q-2 11 -2 28v135h120v49z" />
    <glyph glyph-name="Umacron" unicode="&#x16a;" horiz-adv-x="778" 
d="M535 796v45h-292v-45h292zM104 267q0 -126 76 -202q77 -75 209 -75t208 75q77 76 77 202v462h-65v-455q-1 -105 -59 -163q-59 -57 -161 -58q-102 1 -161 58q-58 58 -59 163v455h-65v-462z" />
    <glyph glyph-name="umacron" unicode="&#x16b;" horiz-adv-x="595" 
d="M444 600v45h-292v-45h292zM444 517v-270q-1 -90 -46 -144q-45 -53 -123 -54q-124 0 -124 143v325h-63v-332q1 -94 47 -144q45 -51 124 -51q62 1 109 29q48 29 70 77h7l10 -96h52v517h-63z" />
    <glyph glyph-name="Uring" unicode="&#x16e;" horiz-adv-x="778" 
d="M464 870q-28 29 -75 29q-23 0 -42 -7q-20 -8 -34 -22t-21 -32q-7 -19 -7 -42q0 -46 28 -75q14 -14 34 -21q19 -7 42 -7q47 0 75 28q29 29 29 75q0 23 -7 42q-8 18 -22 32v0zM390 861q27 0 43 -18q16 -17 16 -47t-16 -47q-16 -18 -43 -18t-44 18q-17 17 -17 47t17 47
q17 18 44 18v0zM104 267q0 -126 76 -202q77 -75 209 -75t208 75q77 76 77 202v462h-65v-455q-1 -105 -59 -163q-59 -57 -161 -58q-102 1 -161 58q-58 58 -59 163v455h-65v-462z" />
    <glyph glyph-name="uring" unicode="&#x16f;" horiz-adv-x="595" 
d="M373 674q-28 29 -75 29q-23 0 -42 -7q-20 -8 -34 -22t-21 -32q-7 -19 -7 -42q0 -46 28 -75q14 -14 34 -21q19 -7 42 -7q47 0 75 28q29 29 29 75q0 23 -7 42q-8 18 -22 32v0zM299 665q27 0 43 -18q16 -17 16 -47t-16 -47q-16 -18 -43 -18t-44 18q-17 17 -17 47t17 47
q17 18 44 18v0zM444 517v-270q-1 -90 -46 -144q-45 -53 -123 -54q-124 0 -124 143v325h-63v-332q1 -94 47 -144q45 -51 124 -51q62 1 109 29q48 29 70 77h7l10 -96h52v517h-63z" />
    <glyph glyph-name="Uhungarumlaut" unicode="&#x170;" horiz-adv-x="778" 
d="M469 885l-33 56l-165 -124l22 -33zM662 885l-34 56l-164 -124l21 -33zM104 267q0 -126 76 -202q77 -75 209 -75t208 75q77 76 77 202v462h-65v-455q-1 -105 -59 -163q-59 -57 -161 -58q-102 1 -161 58q-58 58 -59 163v455h-65v-462z" />
    <glyph glyph-name="uhungarumlaut" unicode="&#x171;" horiz-adv-x="595" 
d="M378 689l-33 56l-165 -124l22 -33zM571 689l-34 56l-164 -124l21 -33zM444 517v-270q-1 -90 -46 -144q-45 -53 -123 -54q-124 0 -124 143v325h-63v-332q1 -94 47 -144q45 -51 124 -51q62 1 109 29q48 29 70 77h7l10 -96h52v517h-63z" />
    <glyph glyph-name="Uogonek" unicode="&#x172;" horiz-adv-x="778" 
d="M609 274q-1 -105 -59 -163q-59 -57 -161 -58q-102 1 -161 58q-58 58 -59 163v455h-65v-462q0 -122 71 -197q72 -75 198 -80q-19 -17 -28 -38q-10 -21 -10 -44q1 -37 27 -59q26 -23 69 -24q20 -1 38 2q19 2 36 9v44q-28 -13 -60 -13q-28 0 -44 12q-17 13 -17 36
q0 52 64 79q108 18 167 90q58 71 59 183v462h-65v-455z" />
    <glyph glyph-name="uogonek" unicode="&#x173;" horiz-adv-x="595" 
d="M490 -133q-28 0 -44 12q-17 13 -17 36q0 58 79 85l-1 2v515h-63v-270q-1 -90 -46 -144q-45 -53 -123 -54q-124 0 -124 143v325h-63v-332q1 -94 47 -144q45 -51 124 -51q62 1 109 29q48 29 70 77h7l8 -80q-73 -39 -73 -108q1 -37 27 -59q26 -23 69 -24q20 -1 38 2
q19 2 36 9v44q-28 -13 -60 -13v0z" />
    <glyph glyph-name="Wcircumflex" unicode="&#x174;" horiz-adv-x="905" 
d="M333 784l102 106l101 -106l34 31l-110 118h-48l-111 -119zM162 0h93l195 671h5l195 -671h93l149 729h-68l-93 -458l-35 -198h-6l-190 656h-95l-190 -656h-6l-35 198l-93 458h-68z" />
    <glyph glyph-name="wcircumflex" unicode="&#x175;" horiz-adv-x="726" 
d="M465 588l34 31l-110 118h-48l-111 -119l32 -30l102 106zM565 217l-35 -152h-4l-121 452h-82l-115 -455h-5l-36 158l-82 297h-74l152 -517h90l71 283l36 159h6l38 -159l75 -283h87l149 517h-71z" />
    <glyph glyph-name="Ycircumflex" unicode="&#x176;" horiz-adv-x="626" 
d="M213 784l102 106l101 -106l34 31l-110 118h-48l-111 -119zM280 301v-301h65v301l274 428h-80l-123 -200l-98 -163h-7l-97 161l-126 202h-81z" />
    <glyph glyph-name="ycircumflex" unicode="&#x177;" horiz-adv-x="449" 
d="M124 588l102 106l101 -106l34 31l-110 118h-48l-111 -119zM200 7l-13 -32q-36 -94 -115 -94q-15 0 -33 3v-57q10 -2 19 -3t19 -1q36 1 66 13q29 12 47 30q9 8 17 19q9 11 17 25q15 26 22 43t15 40l186 524h-69l-91 -270l-53 -164h-6l-56 164l-100 270h-70z" />
    <glyph glyph-name="Ydieresis" unicode="&#x178;" horiz-adv-x="626" 
d="M255 804v110h-66v-110h66zM439 804v110h-66v-110h66zM280 301v-301h65v301l274 428h-80l-123 -200l-98 -163h-7l-97 161l-126 202h-81z" />
    <glyph glyph-name="Zacute" unicode="&#x179;" horiz-adv-x="571" 
d="M415 941l-165 -124l22 -33l175 101zM18 729v-63h449l-449 -614v-52h531v64h-444l448 613v52h-535z" />
    <glyph glyph-name="zacute" unicode="&#x17a;" horiz-adv-x="462" 
d="M372 745l-165 -124l22 -33l175 101zM419 465v52h-379v-54h305l-305 -414v-49h382v54h-308z" />
    <glyph glyph-name="Zdotaccent" unicode="&#x17b;" horiz-adv-x="571" 
d="M240 914v-110h67v110h-67zM18 729v-63h449l-449 -614v-52h531v64h-444l448 613v52h-535z" />
    <glyph glyph-name="zdotaccent" unicode="&#x17c;" horiz-adv-x="462" 
d="M197 718v-110h67v110h-67zM419 465v52h-379v-54h305l-305 -414v-49h382v54h-308z" />
    <glyph glyph-name="Zcaron" unicode="&#x17d;" horiz-adv-x="571" 
d="M407 913l-34 30l-101 -107l-100 107l-34 -30l110 -120h49zM18 729v-63h449l-449 -614v-52h531v64h-444l448 613v52h-535z" />
    <glyph glyph-name="zcaron" unicode="&#x17e;" horiz-adv-x="462" 
d="M364 717l-34 30l-101 -107l-100 107l-34 -30l110 -120h49zM419 465v52h-379v-54h305l-305 -414v-49h382v54h-308z" />
    <glyph glyph-name="uni018F" unicode="&#x18f;" horiz-adv-x="700" 
d="M348 739q-113 0 -197 -58q-82 -57 -102 -150h65q8 33 28 60t52 47t69 31q37 10 80 10q116 0 178 -76q63 -77 64 -229h-529q-3 -36 -3 -54q0 -148 75 -239q76 -91 217 -91q70 0 126 24t97 71q83 95 83 278q-1 179 -79 277q-79 98 -224 99v0zM345 52q-103 0 -163 65
t-61 200h464q-4 -127 -67 -195q-63 -69 -173 -70v0z" />
    <glyph glyph-name="florin" unicode="&#x192;" horiz-adv-x="499" 
d="M467 672v57h-138q-42 -4 -54 -21q-13 -18 -13 -39l-17 -115l-16 -124h-110v-56h102l-44 -328l-17 -111h-143v-56h138q29 0 46 15t22 44l16 108l45 328h123v56h-116l17 124l17 118h142z" />
    <glyph glyph-name="AEacute" unicode="&#x1fc;" horiz-adv-x="943" 
d="M698 941l-165 -124l22 -33l175 101zM880 729h-619l-255 -729h69l72 215h248v-215h485v63h-420v273h361v59h-361v271h420v63zM166 272l133 394h96v-394h-229z" />
    <glyph glyph-name="Oslashacute" unicode="&#x1fe;" horiz-adv-x="882" 
d="M618 941l-165 -124l22 -33l175 101zM776 652l-80 -59q-45 69 -115 107t-160 38q-150 0 -243 -104q-92 -103 -92 -270q0 -106 40 -192l-66 -49l33 -46l62 46q93 -133 266 -133q152 0 243 103q93 104 93 272q0 96 -33 176l87 64zM155 365q0 142 72 227q37 43 85 64t109 21
q74 0 129 -31t92 -93l-460 -340q-27 66 -27 152v0zM688 364q0 -141 -73 -226q-72 -85 -194 -85q-70 0 -122 27q-53 27 -90 82l458 337q21 -60 21 -135v0z" />
    <glyph glyph-name="oslashacute" unicode="&#x1ff;" horiz-adv-x="630" 
d="M456 745l-165 -124l22 -33l175 101zM564 475l-58 -43q-66 95 -192 95q-55 0 -99 -19q-45 -19 -79 -57q-67 -75 -67 -195q0 -71 26 -128l-57 -42l28 -42l54 40q69 -94 194 -94q55 0 99 19q43 18 77 55t50 85q17 49 17 108q0 35 -6 68t-19 62l61 45zM134 258q1 99 49 154
q48 54 131 55q97 0 142 -72l-308 -228q-14 42 -14 91v0zM492 259q-1 -100 -49 -154q-47 -54 -130 -55q-96 0 -143 71l309 227q13 -38 13 -89v0z" />
    <glyph glyph-name="uni0218" unicode="&#x218;" horiz-adv-x="672" 
d="M55 224q2 -107 73 -170q70 -63 208 -64q124 1 196 55q71 54 72 154q0 156 -185 195l-138 29q-26 6 -45 12q-19 7 -43 21q-25 14 -38 39q-14 24 -14 57q1 61 47 96q45 35 130 36q88 0 138 -38q50 -39 56 -116h66q-3 98 -68 153t-186 56q-113 0 -182 -53q-69 -52 -69 -141
q1 -40 16 -72q14 -33 34 -51t51 -33q31 -14 51 -19q20 -6 46 -11l140 -31q62 -14 93 -47q31 -32 31 -84q-1 -70 -53 -110q-53 -41 -149 -42q-101 0 -154 45t-57 134h-67zM303 -214q72 0 72 72v79h-72v-86h42v-2q0 -41 -42 -41v-22z" />
    <glyph glyph-name="uni0219" unicode="&#x219;" horiz-adv-x="503" 
d="M50 155q1 -76 55 -120t150 -45q89 0 143 41q55 41 55 108q0 117 -132 142l-107 20q-44 8 -67 29q-22 20 -22 54q0 42 33 67q32 24 92 24q126 0 130 -104h60q-1 72 -51 114q-50 41 -140 42q-87 -1 -137 -40q-50 -40 -51 -110q0 -106 133 -132l117 -23q75 -13 75 -80
q-1 -46 -36 -72q-35 -27 -96 -27q-67 1 -105 31q-38 29 -39 81h-60zM215 -203q72 0 72 72v79h-72v-86h42v-2q0 -41 -42 -41v-22z" />
    <glyph glyph-name="uni021A" unicode="&#x21a;" horiz-adv-x="548" 
d="M5 666h238v-666h65v666h235v63h-538v-63zM281 -149v-2q0 -41 -42 -41v-22q72 0 72 72v79h-72v-86h42z" />
    <glyph glyph-name="uni021B" unicode="&#x21b;" horiz-adv-x="320" 
d="M15 463h91v-331q0 -139 127 -139q16 0 29 2q13 1 24 5v56q-14 -6 -41 -6q-26 0 -43 8t-24 23q-6 15 -7 27q-2 11 -2 28v327h117v54h-117v191l-63 -24v-167h-91v-54zM171 -214q72 0 72 72v79h-72v-86h42v-2q0 -41 -42 -41v-22z" />
    <glyph glyph-name="uni0237" unicode="&#x237;" horiz-adv-x="261" 
d="M35 -171q60 0 95 35q34 35 35 99v554h-63v-549q0 -37 -20 -59q-21 -22 -60 -22q-18 0 -31 4v-58q24 -4 44 -4v0z" />
    <glyph glyph-name="circumflex" unicode="&#x2c6;" horiz-adv-x="349" 
d="M73 726l102 106l101 -106l34 31l-110 118h-48l-111 -119z" />
    <glyph glyph-name="caron" unicode="&#x2c7;" horiz-adv-x="349" 
d="M151 735h49l110 120l-34 30l-101 -107l-100 107l-34 -30z" />
    <glyph glyph-name="breve" unicode="&#x2d8;" horiz-adv-x="364" 
d="M271 861q-1 -43 -25 -67q-24 -25 -64 -26q-40 1 -64 26q-24 24 -25 67h-47q1 -62 38 -98q36 -36 98 -37q63 1 100 37q36 36 37 98h-48z" />
    <glyph glyph-name="dotaccent" unicode="&#x2d9;" horiz-adv-x="173" 
d="M120 742v110h-67v-110h67z" />
    <glyph glyph-name="ring" unicode="&#x2da;" horiz-adv-x="384" 
d="M271 845q-28 29 -75 29q-23 0 -42 -7q-20 -8 -34 -22t-21 -32q-7 -19 -7 -42q0 -46 28 -75q14 -14 34 -21q19 -7 42 -7q47 0 75 28q29 29 29 75q0 23 -7 42q-8 18 -22 32v0zM197 836q27 0 43 -18q16 -17 16 -47t-16 -47q-16 -18 -43 -18t-44 18q-17 17 -17 47t17 47
q17 18 44 18v0z" />
    <glyph glyph-name="ogonek" unicode="&#x2db;" horiz-adv-x="417" 
d="M141 -92q1 -37 27 -59q26 -23 69 -24q20 -1 38 2q19 2 36 9v44q-28 -13 -60 -13q-28 0 -44 12q-17 13 -17 36q0 58 79 85l-14 31q-52 -14 -82 -47q-31 -33 -32 -76v0z" />
    <glyph glyph-name="tilde" unicode="&#x2dc;" horiz-adv-x="326" 
d="M228 730q45 2 81 62l-30 24q-23 -31 -52 -33q-10 -1 -26 4t-38 15q-44 21 -65 19q-26 -2 -45 -17q-18 -15 -38 -46l30 -22q21 30 48 31q8 1 23 -4t35 -15q42 -19 77 -18v0z" />
    <glyph glyph-name="hungarumlaut" unicode="&#x2dd;" horiz-adv-x="454" 
d="M217 827l-33 56l-165 -124l22 -33zM410 827l-34 56l-164 -124l21 -33z" />
    <glyph glyph-name="gravecomb" unicode="&#x300;" 
d="M-130 759l-165 124l-32 -56l175 -101z" />
    <glyph glyph-name="acutecomb" unicode="&#x301;" 
d="M-116 827l-32 56l-165 -124l22 -33z" />
    <glyph glyph-name="uni0302" unicode="&#x302;" 
d="M-276 726l102 106l101 -106l34 31l-110 118h-48l-111 -119z" />
    <glyph glyph-name="tildecomb" unicode="&#x303;" 
d="M-98 730q45 2 81 62l-30 24q-23 -31 -52 -33q-10 -1 -26 4t-38 15q-44 21 -65 19q-26 -2 -45 -17q-18 -15 -38 -46l30 -22q21 30 48 31q8 1 23 -4t36 -15q41 -19 76 -18v0z" />
    <glyph glyph-name="uni0304" unicode="&#x304;" 
d="M-32 738v45h-292v-45h292z" />
    <glyph glyph-name="uni0306" unicode="&#x306;" 
d="M-93 861q-1 -43 -25 -67q-24 -25 -64 -26q-40 1 -64 26q-24 24 -25 67h-47q1 -62 38 -98q36 -36 98 -37q63 1 100 37q36 36 37 98h-48z" />
    <glyph glyph-name="uni0307" unicode="&#x307;" 
d="M-53 742v110h-67v-110h67z" />
    <glyph glyph-name="uni0308" unicode="&#x308;" 
d="M-249 742v110h-66v-110h66zM-65 742v110h-66v-110h66z" />
    <glyph glyph-name="uni030A" unicode="&#x30a;" 
d="M-112 845q-14 14 -33 22q-20 7 -43 7q-46 0 -75 -29q-14 -14 -22 -32q-7 -19 -7 -42q0 -46 29 -75q29 -28 75 -28q23 0 43 7q19 7 33 21q28 29 28 75q0 23 -7 42q-7 18 -21 32v0zM-187 836q27 0 43 -18q16 -17 16 -47t-16 -47q-16 -18 -43 -18t-44 18q-17 17 -17 47
t17 47q17 18 44 18v0z" />
    <glyph glyph-name="uni030B" unicode="&#x30b;" 
d="M-237 827l-33 56l-165 -124l22 -33zM-44 827l-34 56l-164 -124l21 -33z" />
    <glyph glyph-name="uni030C" unicode="&#x30c;" 
d="M-198 735h49l110 120l-34 30l-101 -107l-100 107l-34 -30z" />
    <glyph glyph-name="uni0312" unicode="&#x312;" 
d="M-42 912q-72 0 -72 -72v-98h72v86h-42v19q0 43 42 43v22z" />
    <glyph glyph-name="uni0326" unicode="&#x326;" 
d="M-190 -222q72 0 72 72v79h-72v-86h42v-2q0 -41 -42 -41v-22z" />
    <glyph glyph-name="uni0327" unicode="&#x327;" 
d="M-251 -1v30h-22l-51 -90v-20q45 11 66 1q21 -11 21 -36q0 -36 -42 -39q-22 -2 -37 4q-15 5 -24 18v-40q34 -31 87 -18q54 13 57 76q-1 36 -24 55t-58 17z" />
    <glyph glyph-name="uni0328" unicode="&#x328;" 
d="M-276 -92q1 -37 27 -59q26 -23 69 -24q20 -1 38 2q19 2 36 9v44q-28 -13 -60 -13q-28 0 -44 12q-17 13 -17 36q0 58 79 85l-14 31q-52 -14 -82 -47q-31 -33 -32 -76v0z" />
    <glyph glyph-name="uni0335" unicode="&#x335;" 
d="M-61 306v43h-290v-43h290z" />
    <glyph glyph-name="uni0336" unicode="&#x336;" 
 />
    <glyph glyph-name="uni0337" unicode="&#x337;" 
d="M-333 0l296 729h-56l-297 -729h57z" />
    <glyph glyph-name="uni0338" unicode="&#x338;" 
d="M-333 0l296 729h-56l-297 -729h57z" />
    <glyph glyph-name="uni03BC" unicode="&#x3bc;" horiz-adv-x="571" 
d="M145 -173v217h6q16 -24 47 -39t66 -15q52 0 94 27q41 26 63 78h5l-4 -95h59v517h-63v-295q0 -83 -37 -129q-36 -47 -103 -48q-58 0 -91 37q-34 36 -35 105v330h-63v-690h56z" />
    <glyph glyph-name="pi" unicode="&#x3c0;" horiz-adv-x="568" 
d="M537 57q-10 -2 -19 -3q-10 -1 -18 -1q-52 0 -52 64v346h90v54h-513v-54h92v-463h64v463h205v-345q0 -125 107 -125q29 0 44 6v58z" />
    <glyph glyph-name="omega" unicode="&#x3c9;" horiz-adv-x="806" 
d="M664 0v52h-164v74q103 29 164 111q61 83 61 194q0 135 -89 221q-89 87 -233 87t-233 -87q-89 -86 -89 -221q0 -56 15 -104q15 -49 46 -90q61 -82 164 -111v-74h-164v-52h224v162q-101 20 -159 89q-59 69 -60 173q0 113 70 185q71 72 186 72t185 -72q35 -35 53 -81
q18 -47 18 -103q0 -103 -60 -174t-160 -89v-162h225z" />
    <glyph glyph-name="Wgrave" unicode="&#x1e80;" horiz-adv-x="905" 
d="M457 817l-165 124l-32 -56l175 -101zM162 0h93l195 671h5l195 -671h93l149 729h-68l-93 -458l-35 -198h-6l-190 656h-95l-190 -656h-6l-35 198l-93 458h-68z" />
    <glyph glyph-name="wgrave" unicode="&#x1e81;" horiz-adv-x="726" 
d="M221 745l-32 -56l175 -101l22 33zM565 217l-35 -152h-4l-121 452h-82l-115 -455h-5l-36 158l-82 297h-74l152 -517h90l71 283l36 159h6l38 -159l75 -283h87l149 517h-71z" />
    <glyph glyph-name="Wacute" unicode="&#x1e82;" horiz-adv-x="905" 
d="M608 885l-32 56l-165 -124l22 -33zM162 0h93l195 671h5l195 -671h93l149 729h-68l-93 -458l-35 -198h-6l-190 656h-95l-190 -656h-6l-35 198l-93 458h-68z" />
    <glyph glyph-name="wacute" unicode="&#x1e83;" horiz-adv-x="726" 
d="M505 745l-165 -124l22 -33l175 101zM565 217l-35 -152h-4l-121 452h-82l-115 -455h-5l-36 158l-82 297h-74l152 -517h90l71 283l36 159h6l38 -159l75 -283h87l149 517h-71z" />
    <glyph glyph-name="Wdieresis" unicode="&#x1e84;" horiz-adv-x="905" 
d="M375 804v110h-66v-110h66zM559 804v110h-66v-110h66zM162 0h93l195 671h5l195 -671h93l149 729h-68l-93 -458l-35 -198h-6l-190 656h-95l-190 -656h-6l-35 198l-93 458h-68z" />
    <glyph glyph-name="wdieresis" unicode="&#x1e85;" horiz-adv-x="726" 
d="M238 718v-110h66v110h-66zM422 718v-110h66v110h-66zM565 217l-35 -152h-4l-121 452h-82l-115 -455h-5l-36 158l-82 297h-74l152 -517h90l71 283l36 159h6l38 -159l75 -283h87l149 517h-71z" />
    <glyph glyph-name="Ygrave" unicode="&#x1ef2;" horiz-adv-x="626" 
d="M337 817l-165 124l-32 -56l175 -101zM280 301v-301h65v301l274 428h-80l-123 -200l-98 -163h-7l-97 161l-126 202h-81z" />
    <glyph glyph-name="ygrave" unicode="&#x1ef3;" horiz-adv-x="449" 
d="M248 621l-165 124l-32 -56l175 -101zM200 7l-13 -32q-36 -94 -115 -94q-15 0 -33 3v-57q10 -2 19 -3t19 -1q36 1 66 13q29 12 47 30q9 8 17 19q9 11 17 25q15 26 22 43t15 40l186 524h-69l-91 -270l-53 -164h-6l-56 164l-100 270h-70z" />
    <glyph glyph-name="endash" unicode="&#x2013;" horiz-adv-x="633" 
d="M570 276v49h-507v-49h507z" />
    <glyph glyph-name="emdash" unicode="&#x2014;" horiz-adv-x="829" 
d="M766 276v49h-703v-49h703z" />
    <glyph glyph-name="quoteleft" unicode="&#x2018;" horiz-adv-x="193" 
d="M150 739q-49 -1 -77 -27q-28 -27 -29 -73v-143h99v109h-56v29q-1 30 12 48t51 19v38z" />
    <glyph glyph-name="quoteright" unicode="&#x2019;" horiz-adv-x="189" 
d="M47 486q49 1 77 27q28 27 29 73v143h-99v-109h56v-29q1 -30 -12 -48t-51 -19v-38z" />
    <glyph glyph-name="quotesinglbase" unicode="&#x201a;" horiz-adv-x="193" 
d="M43 -134q49 1 77 27q28 27 29 73v143h-99v-109h56v-29q1 -30 -12 -48t-51 -19v-38z" />
    <glyph glyph-name="quotedblleft" unicode="&#x201c;" horiz-adv-x="376" 
d="M150 739q-49 -1 -77 -27q-28 -27 -29 -73v-143h99v109h-56v29q-1 30 12 48t51 19v38zM333 739q-49 -1 -77 -27q-28 -27 -29 -73v-143h99v109h-56v29q-1 30 12 48t51 19v38z" />
    <glyph glyph-name="quotedblright" unicode="&#x201d;" horiz-adv-x="366" 
d="M47 486q49 1 77 27q28 27 29 73v143h-99v-109h56v-29q1 -30 -12 -48t-51 -19v-38zM223 486q49 1 77 27q28 27 29 73v143h-99v-109h56v-29q1 -30 -12 -48t-51 -19v-38z" />
    <glyph glyph-name="quotedblbase" unicode="&#x201e;" horiz-adv-x="376" 
d="M55 -134q49 1 77 27q28 27 29 73v143h-99v-109h56v-29q1 -30 -12 -48t-51 -19v-38zM241 -134q49 1 77 27q28 27 29 73v143h-99v-109h56v-29q1 -30 -12 -48t-51 -19v-38z" />
    <glyph glyph-name="dagger" unicode="&#x2020;" horiz-adv-x="406" 
d="M232 733h-59v-363h-134v-56h134v-156h59v156h134v56h-134v363z" />
    <glyph glyph-name="daggerdbl" unicode="&#x2021;" horiz-adv-x="407" 
d="M368 580h-136v153h-59v-153h-133v-54h133v-156h-134v-56h134v-156h59v156h134v56h-134v156h136v54z" />
    <glyph glyph-name="bullet" unicode="&#x2022;" horiz-adv-x="392" 
d="M74 276q0 -49 36 -87q36 -37 84 -37q25 0 46 9t40 28q37 38 37 87q0 53 -37 90q-36 38 -86 38q-49 0 -85 -38q-35 -37 -35 -90v0z" />
    <glyph glyph-name="ellipsis" unicode="&#x2026;" horiz-adv-x="622" 
d="M168 0v112h-100v-112h100zM361 0v112h-100v-112h100zM554 0v112h-100v-112h100z" />
    <glyph glyph-name="perthousand" unicode="&#x2030;" horiz-adv-x="1298" 
d="M62 557q1 -83 48 -132t126 -50q80 1 127 50t48 132q-1 82 -48 131q-47 48 -127 49q-79 -1 -126 -49q-47 -49 -48 -131v0zM262 0l461 729h-71l-461 -729h71zM123 557q1 58 31 93q31 35 82 36q52 -1 83 -36q30 -35 31 -93q-1 -59 -31 -94q-31 -35 -83 -36q-51 1 -82 36
q-30 35 -31 94v0zM486 172q1 -83 48 -132t127 -50q79 1 126 50q46 49 47 132q-1 82 -47 131q-47 49 -126 50q-79 -1 -126 -50q-48 -49 -49 -131v0zM884 172q1 -83 48 -132t127 -50q79 1 126 50t48 132q0 80 -48 130q-48 51 -126 51q-79 -1 -126 -50q-48 -49 -49 -131v0z
M547 172q1 58 32 94q30 35 82 36q51 -1 82 -36q30 -36 31 -94q-1 -59 -31 -94q-31 -35 -82 -36q-51 1 -82 36t-32 94v0zM1059 42q-52 1 -82 37q-31 35 -32 93q1 58 32 94q30 35 82 36q51 -1 82 -36q30 -36 31 -94q-1 -59 -31 -94q-31 -35 -82 -36v0z" />
    <glyph glyph-name="guilsinglleft" unicode="&#x2039;" horiz-adv-x="332" 
d="M186 68h63l-111 206l111 204h-63l-121 -204z" />
    <glyph glyph-name="guilsinglright" unicode="&#x203a;" horiz-adv-x="333" 
d="M148 478h-65l111 -204l-111 -206h65l120 206z" />
    <glyph glyph-name="fraction" unicode="&#x2044;" horiz-adv-x="192" 
d="M-80 -46l407 814h-57l-407 -814h57z" />
    <glyph glyph-name="uni2070" unicode="&#x2070;" horiz-adv-x="489" 
d="M246 295q86 0 137 72q52 73 53 216q-1 142 -52 214q-52 72 -139 72t-139 -72t-53 -214q1 -143 53 -216q52 -72 140 -72v0zM244 352q-125 0 -125 232q0 229 126 229q125 0 125 -231q0 -230 -126 -230v0z" />
    <glyph glyph-name="uni2074" unicode="&#x2074;" horiz-adv-x="474" 
d="M368 862h-99l-241 -383v-56h278v-123h62v123h71v54h-71v385zM306 817v-340h-212z" />
    <glyph glyph-name="uni2075" unicode="&#x2075;" horiz-adv-x="472" 
d="M241 671q-35 0 -66 -12q-32 -12 -51 -33l-3 1l9 179h263v56h-319l-12 -305h59q13 27 43 43q29 16 66 16q57 -1 90 -38q32 -37 33 -97q-1 -61 -34 -96q-32 -35 -88 -36q-54 1 -86 34q-31 34 -30 88h-64q-1 -40 12 -72q12 -33 37 -58q51 -49 130 -49q41 0 76 13
q34 14 60 40q54 54 54 138q0 83 -51 135q-50 53 -128 53v0z" />
    <glyph glyph-name="uni2076" unicode="&#x2076;" horiz-adv-x="476" 
d="M247 292q41 0 75 13q33 13 58 39q50 52 50 136q0 82 -48 133q-47 51 -121 51q-97 0 -135 -82h-4q-10 232 129 232q41 0 69 -20q29 -21 36 -66h66q-7 67 -52 104q-45 36 -118 37q-197 0 -197 -288q0 -289 192 -289v0zM250 609q52 0 82 -34q30 -33 31 -94q0 -60 -31 -96
q-30 -36 -82 -36t-84 35q-32 36 -32 94q0 55 31 93q30 37 85 38v0z" />
    <glyph glyph-name="uni2077" unicode="&#x2077;" horiz-adv-x="425" 
d="M84 702v104h235q-76 -111 -135 -249q-58 -137 -81 -257h69q11 62 32 129q20 66 51 137q62 143 141 252v44h-366v-160h54z" />
    <glyph glyph-name="uni2078" unicode="&#x2078;" horiz-adv-x="458" 
d="M46 444q1 -68 50 -109q49 -42 132 -43q82 0 133 42t51 110q0 45 -21 80q-22 35 -61 54v6q39 19 60 54q22 36 22 79q-1 68 -51 109q-49 42 -132 43q-81 0 -132 -43q-51 -42 -51 -109q1 -45 23 -80q23 -35 60 -53v-6q-83 -42 -83 -134v0zM112 710q0 46 31 74q31 27 86 28
q54 0 85 -27t32 -75q-1 -46 -31 -74q-31 -28 -86 -29q-53 0 -84 28q-32 27 -33 75v0zM112 452q0 46 31 74t86 29q54 -1 85 -28t32 -75q0 -46 -31 -74t-86 -29q-53 0 -84 28q-32 27 -33 75v0z" />
    <glyph glyph-name="uni2079" unicode="&#x2079;" horiz-adv-x="476" 
d="M227 292q97 -1 146 67q50 67 50 217q0 293 -192 293q-84 0 -134 -52q-49 -52 -49 -135q0 -82 47 -133q23 -25 54 -37q30 -13 67 -13q96 0 136 81h4q7 -116 -25 -174t-102 -58q-45 0 -73 23q-28 22 -32 62h-65q7 -65 53 -102q45 -38 115 -39v0zM227 553q-51 1 -82 34
q-30 34 -31 94q1 61 31 96t82 36q53 -1 84 -35q32 -35 33 -93q0 -56 -31 -93q-31 -38 -86 -39v0z" />
    <glyph glyph-name="uni2080" unicode="&#x2080;" horiz-adv-x="489" 
d="M246 -105q86 0 137 72q52 73 53 216q-1 142 -52 214q-52 72 -139 72t-139 -72t-53 -214q1 -143 53 -216q52 -72 140 -72v0zM244 -48q-125 0 -125 232q0 229 126 229q125 0 125 -231q0 -230 -126 -230v0z" />
    <glyph glyph-name="uni2081" unicode="&#x2081;" horiz-adv-x="357" 
d="M186 317v-417h62v562h-58q-2 -43 -35 -69t-88 -27h-22v-49h141z" />
    <glyph glyph-name="uni2082" unicode="&#x2082;" horiz-adv-x="448" 
d="M126 -47q28 93 139 161t126 198q-1 70 -47 113q-45 43 -122 44q-79 0 -129 -48q-49 -46 -48 -123h63q0 54 29 84t83 30q49 0 76 -27q28 -27 28 -75q-2 -59 -42 -99q-40 -41 -92 -78q-51 -37 -91 -87t-42 -127v-19h342v57h-172z" />
    <glyph glyph-name="uni2083" unicode="&#x2083;" horiz-adv-x="460" 
d="M230 -108q81 0 132 46q51 45 51 117q0 46 -23 82q-24 35 -72 54v4q86 39 86 127q0 68 -50 107q-25 20 -55 30t-67 10q-79 0 -129 -49q-48 -49 -45 -127h65q0 57 28 88q29 31 81 31q46 0 75 -24t30 -69q0 -45 -29 -73q-30 -27 -86 -28h-36v-55h37q58 0 90 -28t33 -79
q-1 -49 -32 -77q-31 -29 -84 -30q-52 0 -81 31q-30 30 -28 90h-67q-2 -81 45 -129t131 -49v0z" />
    <glyph glyph-name="uni2084" unicode="&#x2084;" horiz-adv-x="474" 
d="M368 462h-99l-241 -383v-56h278v-123h62v123h71v54h-71v385zM306 417v-340h-212z" />
    <glyph glyph-name="uni2085" unicode="&#x2085;" horiz-adv-x="472" 
d="M241 271q-35 0 -66 -12q-32 -12 -51 -33l-3 1l9 179h263v56h-319l-12 -305h59q13 27 43 43q29 16 66 16q57 -1 90 -38q32 -37 33 -97q-1 -61 -34 -96q-32 -35 -88 -36q-54 1 -86 34q-31 34 -30 88h-64q-1 -79 49 -129q51 -50 130 -50q83 0 136 54q54 53 54 137
q0 83 -51 135q-50 53 -128 53v0z" />
    <glyph glyph-name="uni2086" unicode="&#x2086;" horiz-adv-x="476" 
d="M247 -108q41 0 75 13q33 13 58 39q50 52 50 136q0 82 -48 133q-47 51 -121 51q-97 0 -135 -82h-4q-10 232 129 232q41 0 69 -20q29 -21 36 -66h66q-7 67 -52 104q-45 36 -118 37q-197 0 -197 -288q0 -289 192 -289v0zM250 209q52 0 82 -34q30 -33 31 -94q0 -60 -31 -96
q-30 -36 -82 -36t-84 36q-32 35 -32 93q0 55 31 93q30 37 85 38v0z" />
    <glyph glyph-name="uni2087" unicode="&#x2087;" horiz-adv-x="425" 
d="M84 302v104h235q-76 -111 -135 -249q-58 -137 -81 -257h69q23 126 84 266q61 141 140 252v44h-366v-160h54z" />
    <glyph glyph-name="uni2088" unicode="&#x2088;" horiz-adv-x="458" 
d="M46 44q1 -68 50 -109q49 -42 132 -43q82 0 133 42t51 110q0 45 -21 80q-22 35 -61 54v6q39 19 60 54q22 36 22 79q-1 68 -51 109q-49 42 -132 43q-81 0 -132 -43q-51 -42 -51 -109q1 -45 23 -80q23 -35 60 -53v-6q-83 -42 -83 -134v0zM112 310q0 46 31 74q31 27 86 28
q54 0 85 -27t32 -75q-1 -46 -31 -74q-31 -28 -86 -29q-53 0 -84 28q-32 27 -33 75v0zM112 52q0 46 31 74t86 29q54 -1 85 -28t32 -75q0 -46 -31 -74t-86 -29q-53 0 -84 28q-32 27 -33 75v0z" />
    <glyph glyph-name="uni2089" unicode="&#x2089;" horiz-adv-x="476" 
d="M227 -108q97 -1 146 67q50 67 50 217q0 293 -192 293q-84 0 -134 -52q-49 -52 -49 -135q0 -82 47 -133q23 -25 54 -37q30 -13 67 -13q96 0 136 81h4q7 -116 -25 -174t-102 -58q-43 0 -72 23q-28 22 -33 62h-65q7 -65 53 -102q45 -38 115 -39v0zM227 153q-51 1 -82 34
q-30 34 -31 94q1 61 31 96t82 36q53 -1 84 -35q32 -35 33 -93q0 -56 -31 -93q-31 -38 -86 -39v0z" />
    <glyph glyph-name="uni20A6" unicode="&#x20a6;" horiz-adv-x="691" 
d="M600 393v336h-64v-336h-173l-198 336h-74v-336h-84v-58h84v-335h65v335h174l197 -335h73v335h84v58h-84zM156 439l-4 192h4l140 -238h-140v46zM536 100l-139 235h139v-35l4 -200h-4z" />
    <glyph glyph-name="uni20A9" unicode="&#x20a9;" horiz-adv-x="758" 
d="M662 393l60 336h-58l-55 -336h-115l-78 336h-64l-78 -336h-119l-59 336h-60l64 -336h-87v-58h98l64 -335h56l78 335h149l78 -335h56l60 335h93v58h-83zM337 455l45 205h4l44 -206l14 -61h-121zM209 96h-4l-29 178l-11 61h95l-14 -62zM563 96h-5l-36 177l-14 62h91
l-10 -62z" />
    <glyph glyph-name="uni20AA" unicode="&#x20aa;" horiz-adv-x="663" 
d="M379 158h61v494q0 44 -19 61q-20 17 -58 16h-299v-729h63v670h252v-512zM535 60h-252v512h-62v-495q0 -44 20 -61t58 -16h299v729h-63v-669z" />
    <glyph glyph-name="Euro" unicode="&#x20ac;" horiz-adv-x="747" 
d="M401 50q-91 0 -150 53t-78 158h283l7 58h-297q-1 14 -1 44q0 41 4 69h300l7 58h-298q21 91 77 140t145 49q85 0 141 -43q57 -44 76 -125h69q-19 102 -96 164q-77 63 -188 63q-115 -1 -190 -64q-75 -64 -102 -184h-82v-58h72q-3 -32 -3 -67q0 -16 2 -46h-71v-58h77
q23 -128 98 -198q75 -71 194 -72q56 0 104 16q48 15 86 46q78 62 99 166h-69q-19 -79 -74 -123q-55 -45 -142 -46v0z" />
    <glyph glyph-name="uni20B2" unicode="&#x20b2;" horiz-adv-x="695" 
d="M317 316h220q0 -88 -58 -144q-29 -28 -66 -41q-37 -14 -83 -14q-100 1 -157 65t-58 181q1 116 57 182q57 67 162 68q74 0 124 -37t66 -106h67q-7 43 -26 78t-51 62q-32 28 -71 43q-40 15 -87 18v103h-56v-104q-114 -11 -183 -94q-68 -82 -68 -210q0 -131 68 -215
q69 -84 183 -94v-102h56v102q110 9 180 83q70 75 70 197v39h-289v-60z" />
    <glyph glyph-name="uni20B8" unicode="&#x20b8;" horiz-adv-x="548" 
d="M5 670h538v59h-538v-59zM243 499v-499h65v499h235v59h-538v-59h238z" />
    <glyph glyph-name="uni20B9" unicode="&#x20b9;" horiz-adv-x="785" 
d="M147 729v-61h206q72 0 115 -34q44 -34 51 -103h-372v-58h371q-15 -136 -165 -136h-206v-57h175q23 0 41 -4q17 -5 30 -13q25 -17 49 -68l97 -195h74l-101 194l-8 16l-9 15l-7 14q-5 9 -7 13q-3 4 -8 9q-6 10 -16 17t-21 9v6q137 41 150 180h77v58h-76q-8 88 -62 139h138
v59h-516z" />
    <glyph glyph-name="uni20BA" unicode="&#x20ba;" horiz-adv-x="562" 
d="M466 319q-18 -118 -95 -189q-38 -35 -85 -53q-47 -17 -102 -17v267l204 83v60l-204 -84v98l204 84v60l-204 -83v184h-64v-208l-105 -44v-59l105 42v-98l-105 -42v-60l105 41v-301h55q138 0 235 84q49 43 79 101q29 59 39 134h-62z" />
    <glyph glyph-name="uni20BC" unicode="&#x20bc;" horiz-adv-x="621" 
d="M112 0v366q0 83 43 131t127 53v-550h59v550q80 -3 124 -50q45 -46 46 -134v-366h59v366q0 110 -58 174q-58 63 -171 68v121h-59v-121q-108 -5 -169 -67q-61 -61 -62 -175v-366h61z" />
    <glyph glyph-name="uni20BD" unicode="&#x20bd;" horiz-adv-x="664" 
d="M375 275q119 0 187 57q69 56 70 164q-1 107 -65 169q-64 63 -182 64h-221v-396h-99v-58h99v-84h-99v-59h99v-132h64v132h233v59h-233v85zM564 499q-1 -75 -47 -119q-47 -43 -132 -44h-157v329h157q84 -1 131 -44t48 -122v0z" />
    <glyph glyph-name="uni20BF" unicode="&#x20bf;" horiz-adv-x="718" 
d="M571 221q0 53 -27 93q-26 40 -75 59v7q39 18 63 53q23 35 24 77q0 67 -39 110q-38 43 -110 54v100h-56v-97h-84v97h-55v-97h-66v-625h66v-97h55v97h84v-97h56v99q79 10 121 54q43 43 43 113v0zM363 616q58 0 92 -27q33 -28 34 -82q0 -49 -33 -77q-33 -29 -93 -30h-152
v216h152zM211 111v230h155q64 0 101 -29q36 -29 37 -85q0 -54 -34 -85q-35 -30 -104 -31h-155z" />
    <glyph glyph-name="uni2105" unicode="&#x2105;" horiz-adv-x="950" 
d="M324 502q-6 -39 -34 -62q-27 -23 -70 -23q-51 1 -80 35q-29 35 -29 98q1 64 30 100q29 35 81 36q37 0 65 -20q27 -19 35 -53h61q-9 56 -52 90q-43 35 -108 36q-77 -1 -124 -51q-48 -50 -49 -138q1 -87 48 -136t123 -50q66 1 111 37q45 37 54 101h-62zM277 0l460 729h-69
l-461 -729h70zM726 368q-79 0 -127 -53q-48 -52 -48 -135q0 -82 48 -135q48 -52 127 -52q78 0 126 52q48 53 48 135q0 83 -48 135q-48 53 -126 53v0zM612 181q1 63 31 98q31 35 83 36q54 -1 83 -36q30 -36 30 -97q-1 -63 -31 -99q-30 -35 -82 -36q-54 1 -84 37
q-30 35 -30 97v0z" />
    <glyph glyph-name="uni2116" unicode="&#x2116;" horiz-adv-x="1426" 
d="M828 504q0 -97 65 -163t163 -66q99 0 164 66q66 66 66 163q0 95 -63 164q-63 70 -167 70q-103 0 -166 -70q-62 -69 -62 -164v0zM175 0v440l-5 217h4l419 -657h87v729h-65v-430l6 -225h-4l-421 655h-86v-729h65zM894 506q0 75 45 124q23 25 53 37q29 12 66 12
q74 0 118 -51q45 -51 45 -121q0 -37 -12 -68t-35 -56q-46 -49 -118 -49q-70 0 -117 50q-45 51 -45 122v0zM891 0h332v60h-332v-60z" />
    <glyph glyph-name="uni2117" unicode="&#x2117;" horiz-adv-x="949" 
d="M472 -76q179 0 300 117q122 118 122 304q0 184 -122 301t-299 117t-300 -118q-122 -118 -122 -303q0 -184 122 -301t299 -117v0zM472 -50q-162 0 -276 110q-114 111 -114 282q0 172 114 283q114 112 276 112q164 0 277 -111q114 -109 114 -282q0 -172 -114 -283
q-113 -111 -277 -111v0zM392 138v128h137q69 1 109 40q39 38 40 102q-1 64 -40 102q-40 38 -109 39h-201v-411h64zM390 486h142q39 -1 61 -22q22 -22 22 -56q0 -37 -22 -59t-61 -23h-142v160z" />
    <glyph glyph-name="trademark" unicode="&#x2122;" horiz-adv-x="701" 
d="M121 689v-270h43v270h97v40h-233v-40h93zM460 512h-2l-95 217h-55v-310h41v160l-3 89h3l110 -243l111 243h3l-4 -89v-160h43v310h-57z" />
    <glyph glyph-name="estimated" unicode="&#x212e;" horiz-adv-x="830" 
d="M714 230q-26 -90 -107 -146q-40 -28 -87 -41q-47 -14 -100 -14q-82 0 -148 32q-67 32 -103 92v185h600q0 36 -1 57q-7 159 -99 246q-46 44 -106 66t-136 22q-83 0 -149 -26q-67 -25 -117 -77q-100 -102 -100 -267q0 -164 97 -266q98 -102 260 -102q129 0 222 65
q93 66 120 174h-46zM169 561q86 123 244 126q161 3 249 -108v-205h-493v187z" />
    <glyph glyph-name="oneeighth" unicode="&#x215b;" horiz-adv-x="898" 
d="M230 -46l407 814h-57l-407 -814h57zM155 596v-340h64v473h-61v-4q0 -77 -81 -77h-45v-52h123zM541 125q1 -60 44 -96q43 -35 115 -36q72 1 115 36q42 35 43 95q0 78 -69 113v5q33 16 51 46t18 67q-1 59 -43 94q-42 36 -115 37q-72 -1 -115 -37q-43 -35 -44 -94
q0 -37 18 -67t52 -46v-5q-34 -16 -52 -46t-18 -66v0zM608 348q1 37 25 59q25 21 67 22q40 0 65 -21q24 -21 25 -60q0 -37 -24 -58q-24 -22 -66 -23q-42 0 -67 21q-24 21 -25 60v0zM608 131q1 37 25 59q25 21 67 22q40 0 65 -21q24 -21 25 -60q0 -36 -24 -58q-24 -21 -66 -22
q-42 0 -67 21q-24 21 -25 59v0z" />
    <glyph glyph-name="threeeighths" unicode="&#x215c;" horiz-adv-x="974" 
d="M308 -46l407 814h-57l-407 -814h57zM192 248q68 0 111 38q44 39 44 100q0 84 -77 113v5q69 32 69 103q-1 60 -42 94q-41 33 -106 34q-72 -1 -111 -43q-39 -41 -37 -106h66q0 43 22 67q22 25 62 25q34 0 55 -18q21 -19 22 -54q0 -34 -23 -55t-65 -22h-30v-60h33
q43 0 69 -22q25 -21 26 -61q-1 -36 -25 -58t-63 -23q-39 0 -62 24t-23 68h-66q-1 -68 40 -108t111 -41v0zM619 125q1 -60 44 -96q43 -35 115 -36q72 1 115 36q42 35 43 95q0 78 -69 113v5q33 16 51 46t18 67q-1 59 -43 94q-42 36 -115 37q-72 -1 -115 -37q-43 -35 -44 -94
q0 -37 18 -67t52 -46v-5q-34 -16 -52 -46t-18 -66v0zM686 348q1 37 25 59q25 21 67 22q40 0 65 -21q24 -21 25 -60q0 -37 -24 -58q-24 -22 -66 -23q-42 0 -67 21q-24 21 -25 60v0zM686 131q1 37 25 59q25 21 67 22q40 0 65 -21q24 -21 25 -60q0 -36 -24 -58q-24 -21 -66 -22
q-42 0 -67 21q-24 21 -25 59v0z" />
    <glyph glyph-name="fiveeighths" unicode="&#x215d;" horiz-adv-x="983" 
d="M316 -46l407 814h-57l-407 -814h57zM43 399q0 -69 42 -110q42 -40 111 -41q71 0 115 45q45 46 45 118q0 69 -42 113q-42 45 -107 45q-61 0 -91 -33l-1 1l2 51v81h216v60h-280v-264h62q9 22 31 35t50 13q43 -1 67 -30q25 -28 25 -75q-1 -46 -25 -73q-25 -27 -67 -28
q-40 1 -64 27q-23 25 -23 65h-66zM627 125q1 -60 44 -96q43 -35 115 -36q72 1 115 36q42 35 43 95q0 78 -69 113v5q33 16 51 46t18 67q-1 59 -43 94q-42 36 -115 37q-72 -1 -115 -37q-43 -35 -44 -94q0 -37 18 -67t52 -46v-5q-34 -16 -52 -46t-18 -66v0zM694 348q1 37 25 59
q25 21 67 22q40 0 65 -21q24 -21 25 -60q0 -37 -24 -58q-24 -22 -66 -23q-42 0 -67 21q-24 21 -25 60v0zM694 131q1 37 25 59q25 21 67 22q40 0 65 -21q24 -21 25 -60q0 -36 -24 -58q-24 -21 -66 -22q-42 0 -67 21q-24 21 -25 59v0z" />
    <glyph glyph-name="seveneighths" unicode="&#x215e;" horiz-adv-x="886" 
d="M161 -46h57l407 814h-57zM37 729v-120h49v60h175q-136 -178 -177 -413h64q10 60 26 115t38 105q44 101 128 206v47h-303zM777 242q33 16 51 46t18 67q-1 59 -43 94q-42 36 -115 37q-72 -1 -115 -37q-43 -35 -44 -94q0 -37 18 -67t52 -46v-5q-34 -16 -52 -46t-18 -66
q1 -60 44 -96q43 -35 115 -36q72 1 115 36q42 35 43 95q0 78 -69 113v5zM596 348q1 37 25 59q25 21 67 22q40 0 65 -21q24 -21 25 -60q0 -37 -24 -58q-24 -22 -66 -23q-42 0 -67 21q-24 21 -25 60v0zM778 131q0 -36 -24 -58q-24 -21 -66 -22q-42 0 -67 21q-24 21 -25 59
q1 37 25 59q25 21 67 22q40 0 65 -21q24 -21 25 -60v0z" />
    <glyph glyph-name="arrowleft" unicode="&#x2190;" horiz-adv-x="847" 
d="M750 283h-624l169 234h-59l-193 -259l193 -258h59l-169 233h624v50z" />
    <glyph glyph-name="arrowup" unicode="&#x2191;" horiz-adv-x="691" 
d="M571 371l-227 197l-224 -197v-64l201 177v-431h-201v-50h451v50h-202v431l202 -177v64z" />
    <glyph glyph-name="arrowright" unicode="&#x2192;" horiz-adv-x="867" 
d="M721 233l-169 -233h59l193 258l-193 259h-59l169 -234h-624v-50h624z" />
    <glyph glyph-name="arrowdown" unicode="&#x2193;" horiz-adv-x="691" 
d="M571 517h-451v-50h201v-431l-201 177v-64l224 -197l227 197v64l-202 -177v431h202v50z" />
    <glyph glyph-name="arrowboth" unicode="&#x2194;" horiz-adv-x="1083" 
d="M295 118h58l-168 207h712l-167 -207h57l195 231l-195 233h-57l167 -208h-712l168 208h-58l-194 -233z" />
    <glyph glyph-name="arrowupdn" unicode="&#x2195;" horiz-adv-x="790" 
d="M395 -141l281 252v68l-258 -231v723l258 -230v67l-281 252l-283 -252v-67l259 230v-723l-259 231v-68z" />
    <glyph glyph-name="uni2196" unicode="&#x2196;" horiz-adv-x="678" 
d="M615 34l-418 430h346v52h-426v-442h48v360l417 -434z" />
    <glyph glyph-name="uni2197" unicode="&#x2197;" horiz-adv-x="712" 
d="M547 435v-359h46v441h-426v-50h348l-422 -433l33 -34z" />
    <glyph glyph-name="uni2198" unicode="&#x2198;" horiz-adv-x="682" 
d="M564 0l1 443h-48l-1 -359l-420 433l-33 -32l418 -434h-345v-53z" />
    <glyph glyph-name="uni2199" unicode="&#x2199;" horiz-adv-x="680" 
d="M546 0v51h-346l417 432l-35 34l-417 -433v359h-48v-443h429z" />
    <glyph glyph-name="uni21A9" unicode="&#x21a9;" horiz-adv-x="985" 
d="M861 498q0 93 -64 151q-64 59 -165 59h-13v-47h13q83 -1 130 -44q48 -44 49 -119q-1 -80 -51 -122q-51 -42 -138 -42h-359v124l-163 -149l163 -148v124h359q117 1 178 57q61 57 61 156v0z" />
    <glyph glyph-name="uni21AA" unicode="&#x21aa;" horiz-adv-x="985" 
d="M125 498q0 -99 61 -156q61 -56 178 -57h359v-124l163 148l-163 149v-124h-359q-88 0 -137 42q-49 41 -50 122q1 75 47 119q46 43 130 44h13v47h-13q-102 0 -166 -59q-63 -58 -63 -151v0z" />
    <glyph glyph-name="uni21B2" unicode="&#x21b2;" horiz-adv-x="832" 
d="M659 334h-369v124l-164 -149l164 -148v124h418v444h-49v-395z" />
    <glyph glyph-name="uni21B3" unicode="&#x21b3;" horiz-adv-x="832" 
d="M543 458v-124h-369v395h-48v-444h417v-124l165 148z" />
    <glyph glyph-name="uni21BA" unicode="&#x21ba;" horiz-adv-x="823" 
d="M414 -12q140 0 234 94q47 47 71 104q23 57 23 122q0 50 -12 93q-12 42 -35 76q-46 68 -204 201l1 3l67 -5h151v53h-302v-311h50v154l-5 71l3 2q152 -135 191 -192q20 -28 30 -64q10 -37 10 -81q0 -113 -78 -191t-196 -78q-119 0 -199 78q-40 40 -60 89t-20 108
q0 170 149 260l-27 43q-81 -49 -127 -129t-47 -174q0 -68 24 -126q24 -59 71 -106q95 -94 237 -94v0z" />
    <glyph glyph-name="uni21BB" unicode="&#x21bb;" horiz-adv-x="823" 
d="M409 -12q143 0 237 94q96 95 96 232q0 93 -49 175q-48 83 -126 128l-28 -43q70 -41 109 -107q38 -66 39 -153q0 -59 -20 -108t-60 -89q-79 -78 -198 -78q-117 0 -196 78q-40 40 -59 87q-20 48 -20 104q0 89 39 144q39 57 191 193l3 -2l-5 -71v-154h53v311h-305v-53h152
l69 5v-3q-77 -65 -128 -115t-74 -84q-47 -67 -47 -171q0 -132 94 -226q47 -47 105 -71q58 -23 128 -23v0z" />
    <glyph glyph-name="emptyset" unicode="&#x2205;" horiz-adv-x="783" 
d="M621 645l-2 -2q-93 95 -236 95q-150 0 -243 -104q-92 -103 -92 -270q0 -166 92 -270t243 -104q152 0 243 103q93 104 93 272q0 159 -85 260zM383 677q117 0 191 -82l-407 -426q-50 81 -50 196q0 142 72 227q37 43 85 64t109 21v0zM383 53q-108 0 -179 69l405 423
q41 -79 41 -181q0 -141 -73 -226q-72 -85 -194 -85v0z" />
    <glyph glyph-name="product" unicode="&#x220f;" horiz-adv-x="713" 
d="M113 729v-53h107v-676h61v676h156v-676h60v676h104v53h-488z" />
    <glyph glyph-name="summation" unicode="&#x2211;" horiz-adv-x="576" 
d="M529 -161v53h-256l-150 -6v6l251 395l-251 389v5l150 -5l256 1v52h-476v-37l254 -403v-6l-254 -407v-37h476z" />
    <glyph glyph-name="minus" unicode="&#x2212;" horiz-adv-x="652" 
d="M93 261h470v70h-470v-70z" />
    <glyph glyph-name="radical" unicode="&#x221a;" horiz-adv-x="686" 
d="M379 241l-87 -253h-6l-92 258l-47 120h-103v-47h58l141 -379h92l290 789h-67z" />
    <glyph glyph-name="infinity" unicode="&#x221e;" horiz-adv-x="906" 
d="M238 78q37 0 69 12q31 13 59 39q29 27 45 48q17 21 42 57l33 -46l34 -40q12 -13 23 -22q10 -9 20 -16q19 -12 48 -22q28 -9 59 -10q40 0 72 14q32 15 55 44t35 63t12 74q0 81 -47 139q-23 29 -55 44q-32 14 -72 14q-67 0 -126 -49q-16 -14 -39 -40q-23 -27 -52 -67
q-28 39 -43 57q-7 9 -18 20q-11 12 -25 26q-29 28 -60 40q-32 13 -70 13q-80 0 -128 -58q-48 -57 -48 -139q0 -83 48 -139t129 -56v0zM236 125q-55 1 -90 41q-36 40 -37 107q1 67 36 107t91 41q46 0 85 -32q20 -16 45 -44q25 -29 56 -72q-61 -85 -102 -117q-40 -31 -84 -31
v0zM670 125q-23 0 -45 8q-21 7 -40 23q-38 32 -100 117q60 84 99 116t86 32q55 -1 91 -41t37 -107q-1 -68 -37 -107q-35 -40 -91 -41v0z" />
    <glyph glyph-name="integral" unicode="&#x222b;" horiz-adv-x="547" 
d="M298 753q-60 0 -60 -60v-771h-134v-56h138q60 0 60 58v772h134v57h-138z" />
    <glyph glyph-name="approxequal" unicode="&#x2248;" horiz-adv-x="527" 
d="M153 349q-8 59 34 59q17 0 66 -23q51 -22 83 -22q38 -1 63 26q25 26 21 91h-42q5 -62 -42 -62q-22 0 -73 23q-50 24 -77 24q-34 1 -57 -25q-22 -27 -18 -91h42zM153 154q-3 27 6 44q9 16 28 16q17 0 66 -24q51 -24 83 -24q38 -1 63 27q25 27 21 93h-42q5 -62 -42 -62
q-22 0 -72 23q-50 24 -77 24q-34 1 -57 -26t-19 -91h42z" />
    <glyph glyph-name="notequal" unicode="&#x2260;" horiz-adv-x="600" 
d="M508 434h-101l67 130h-73l-68 -130h-240v-67h206l-74 -141h-132v-65h98l-63 -122h74l63 122h243v65h-209l73 141h136v67z" />
    <glyph glyph-name="lessequal" unicode="&#x2264;" horiz-adv-x="563" 
d="M468 209l-188 86l-128 53v6l131 56l185 88v83l-377 -202v-53l377 -201v84zM468 53h-377v-53h377v53z" />
    <glyph glyph-name="greaterequal" unicode="&#x2265;" horiz-adv-x="563" 
d="M472 326v53l-377 202v-83l184 -88l132 -56v-6l-129 -53l-187 -86v-84zM472 0v53h-377v-53h377z" />
    <glyph glyph-name="filledbox" unicode="&#x25a0;" horiz-adv-x="908" 
d="M114 1h680v728h-680v-728z" />
    <glyph glyph-name="H22073" unicode="&#x25a1;" horiz-adv-x="928" 
d="M125 0h680v729h-680v-729zM752 677v-625h-576v625h576z" />
    <glyph glyph-name="triagup" unicode="&#x25b2;" horiz-adv-x="1044" 
d="M86 0h872l-437 737z" />
    <glyph glyph-name="uni25B3" unicode="&#x25b3;" horiz-adv-x="1046" 
d="M961 0l-439 738l-436 -738h875zM522 639l348 -586h-695z" />
    <glyph glyph-name="lozenge" unicode="&#x25ca;" horiz-adv-x="2150" 
d="M983 -10q78 0 133 33q54 33 72 96h35l16 -119h111v395h-324v-143h162q-10 -60 -52 -92q-42 -33 -109 -33q-83 0 -129 59q-46 60 -47 176q0 113 47 174q46 62 137 63q111 0 147 -86h156q-18 102 -100 164q-81 62 -202 62q-142 1 -242 -91q-100 -93 -104 -290
q0 -83 20 -150q19 -68 59 -118q79 -100 214 -100v0zM1485 576q36 1 56 23t20 59q0 36 -20 58t-56 23q-34 -1 -56 -23t-23 -58q1 -37 23 -59t56 -23v0zM1683 576q37 1 59 23t22 59q-1 36 -22 58q-22 22 -59 23q-34 -1 -54 -23q-21 -22 -22 -58q1 -37 21 -59q21 -22 55 -23v0z
M309 0q158 0 246 93q89 93 90 273q-1 181 -89 272t-247 91h-271v-729h271zM1885 572v126h44v31h-118v-31h38v-126h36zM1983 572v135l21 -135h52l17 135v-135h40v157h-61l-23 -127l-17 127h-63v-157h34zM144 109q3 3 12 14q8 10 11 15l10 15q9 15 12 31q3 17 4 43v276
q0 48 -15 71q-4 7 -9 15t-11 12q-1 3 -7 9q-6 5 -7 8l26 30l29 -27q5 -4 13 -8t19 -9q24 -10 52 -10h26q14 1 31 -2t44 -17q28 -13 49 -36q22 -22 38 -68q16 -45 17 -108q-1 -64 -18 -111t-40 -69q-21 -21 -52 -33q-29 -11 -43 -13q-14 -3 -26 -2h-26q-36 0 -61 -12
q-26 -13 -52 -40zM1581 0v214q0 164 165 148v147q-52 0 -89 -20q-37 -19 -50 -56h-27l-7 58h-141v-491h149z" />
    <glyph glyph-name="circle" unicode="&#x25cb;" horiz-adv-x="858" 
d="M61 365q0 -165 107 -270t261 -105q155 0 261 105q107 105 107 270q0 163 -108 268q-107 105 -260 105q-154 0 -261 -105t-107 -268v0zM429 30q-132 0 -227 94q-47 47 -71 108q-24 60 -24 133t24 132q24 60 71 107q95 94 227 94q134 0 228 -94q47 -47 71 -107
q24 -59 24 -132t-24 -133q-24 -61 -71 -108q-94 -94 -228 -94v0z" />
    <glyph glyph-name="H18533" unicode="&#x25cf;" horiz-adv-x="904" 
d="M454 -10q156 0 259 107q104 108 104 269q0 159 -104 265q-103 107 -259 107q-157 0 -262 -107q-105 -106 -105 -265q0 -161 105 -269q105 -107 262 -107v0z" />
    <glyph glyph-name="uni262E" unicode="&#x262e;" horiz-adv-x="908" 
d="M822 362q0 167 -104 270q-103 105 -264 105q-160 0 -264 -105q-104 -103 -104 -270q0 -168 104 -273q104 -104 264 -104q161 0 264 104q104 105 104 273v0zM776 362q0 -81 -29 -148l-272 168v314q131 -8 216 -100q85 -91 85 -234v0zM432 382l-272 -167q-29 66 -29 147
q0 143 85 234q86 92 216 100v-314zM432 329v-303q-81 4 -146 43q-65 38 -105 105zM475 329l252 -155q-40 -67 -106 -105q-65 -39 -146 -43v303z" />
    <glyph glyph-name="uni2639" unicode="&#x2639;" horiz-adv-x="912" 
d="M86 365q0 -82 27 -149t80 -120q108 -106 262 -106q156 0 263 106q108 106 108 269q0 161 -108 267t-263 106q-154 0 -262 -106q-107 -106 -107 -267v0zM131 365q0 143 95 237q96 95 230 95t230 -95q96 -94 96 -237q0 -130 -85 -229q-35 54 -99 85t-143 32
q-75 -1 -139 -31q-63 -31 -100 -86q-85 93 -85 229v0zM327 437q0 -49 13 -77t38 -29q50 0 50 106q0 105 -50 105q-24 0 -37 -27q-14 -26 -14 -78v0zM487 437q0 -48 13 -77q13 -28 38 -29q50 0 50 106q0 105 -50 105q-24 0 -37 -27q-14 -26 -14 -78v0zM249 107q29 48 84 75
q56 27 123 28q68 -1 124 -28q56 -28 84 -76q-93 -75 -208 -75q-114 0 -207 76v0z" />
    <glyph glyph-name="smileface" unicode="&#x263a;" horiz-adv-x="912" 
d="M455 738q-154 0 -262 -106q-107 -106 -107 -267q0 -82 27 -149t80 -120q108 -106 262 -106q156 0 263 106q108 106 108 269q0 161 -108 267t-263 106v0zM456 31q-134 0 -230 95q-95 96 -95 239t95 237q96 95 230 95t230 -95q96 -94 96 -237q0 -141 -95 -238
q-94 -96 -231 -96v0zM378 331q50 0 50 106q0 105 -50 105q-24 0 -37 -27q-14 -26 -14 -78q0 -49 13 -77t38 -29v0zM538 331q50 0 50 106q0 105 -50 105q-24 0 -37 -27q-14 -26 -14 -78q0 -48 13 -77q13 -28 38 -29v0zM617 310h33q-13 -67 -65 -107q-53 -40 -129 -41
q-74 0 -128 41q-53 41 -65 107h36v17h-109v-17h27q14 -85 80 -138q66 -52 158 -52q93 0 159 52q68 53 81 138h31v17h-109v-17z" />
    <glyph glyph-name="uni2708" unicode="&#x2708;" horiz-adv-x="963" 
d="M167 207l69 109l210 -14l-99 -276h90l144 240q8 14 18 19t30 5l59 -4q61 -4 109 20q49 26 49 60q0 33 -49 58q-49 26 -109 21l-59 -4q-18 1 -29 6q-10 6 -19 20l-144 238h-90l99 -276l-210 -12l-69 108h-50l35 -159l-35 -159h50z" />
    <glyph glyph-name="uni2713" unicode="&#x2713;" horiz-adv-x="974" 
d="M383 169l-164 189l-40 -37l204 -232l412 415l-39 42z" />
    <glyph glyph-name="uni2714" unicode="&#x2714;" horiz-adv-x="1288" 
d="M1119 709q-109 -64 -204 -130q-96 -65 -179 -132q-166 -133 -307 -303q-103 161 -252 278l-109 -124q203 -160 345 -360q171 176 357 321q188 145 450 292z" />
    <glyph glyph-name="uni2776" unicode="&#x2776;" horiz-adv-x="897" 
d="M450 -9q162 0 273 111t111 274q0 162 -111 273t-273 111q-163 0 -276 -111q-111 -111 -111 -273q0 -163 111 -274q113 -111 276 -111v0zM443 447h-109v48h41q69 0 69 72v5h61v-414h-62v289z" />
    <glyph glyph-name="uni2777" unicode="&#x2777;" horiz-adv-x="898" 
d="M450 -9q163 0 274 111q111 112 111 275q0 162 -111 272q-111 111 -274 111q-165 0 -276 -111q-111 -110 -111 -272q0 -163 111 -275q111 -111 276 -111v0zM325 172q1 44 20 80q19 35 48 58q28 23 56 44q27 20 48 46q30 42 15 83t-63 41q-33 -1 -52 -22q-20 -21 -20 -57
l-61 5q1 58 38 92t98 35q61 -1 95 -33q33 -33 34 -87q-1 -45 -26 -81t-58 -58q-31 -22 -63 -51q-16 -14 -26 -28t-14 -28l68 3h118v-56h-255v14z" />
    <glyph glyph-name="uni2778" unicode="&#x2778;" horiz-adv-x="898" 
d="M450 -9q163 0 274 111q111 112 111 275q0 162 -111 272q-111 111 -274 111q-165 0 -276 -111q-111 -110 -111 -272q0 -163 111 -275q111 -111 276 -111v0zM585 273q-1 -54 -38 -87t-99 -34q-62 1 -98 36q-36 34 -36 95h64q0 -36 19 -56q18 -20 51 -20q33 1 52 19
q20 19 20 49q-1 33 -22 51t-55 18h-30v54h25q36 1 56 18q19 18 19 46q0 29 -18 46q-17 16 -47 16q-34 -1 -52 -21q-18 -21 -17 -55h-63q-2 58 35 94q36 35 97 36q58 -1 94 -31q35 -30 36 -82q0 -63 -62 -89v-3q69 -26 69 -100v0z" />
    <glyph glyph-name="uni2779" unicode="&#x2779;" horiz-adv-x="898" 
d="M450 -9q163 0 274 111q111 112 111 275q0 161 -111 272t-274 111t-276 -111q-111 -110 -111 -272q0 -163 111 -275q113 -111 276 -111v0zM475 249h-189v52l152 271h98v-269h48v-54h-48v-91h-61v91zM475 303v216l-121 -216h121z" />
    <glyph glyph-name="uni277A" unicode="&#x277a;" horiz-adv-x="900" 
d="M451 -9q163 0 274 111q56 56 84 125q28 68 28 150q0 162 -112 272q-111 111 -274 111q-165 0 -277 -111q-111 -110 -111 -272q0 -163 111 -275q112 -111 277 -111v0zM457 152q-62 1 -99 37q-38 36 -38 96h64q-1 -33 19 -55q19 -22 55 -23q34 1 55 23q20 23 21 62
q0 39 -21 63q-20 23 -56 24q-22 0 -42 -11q-19 -10 -27 -28h-59v232h248v-55h-187v-67l-2 -43l2 -3q24 30 78 30q59 -1 94 -39q36 -38 37 -101q-1 -63 -39 -102q-39 -39 -103 -40v0z" />
    <glyph glyph-name="uni277B" unicode="&#x277b;" horiz-adv-x="897" 
d="M449 -8q163 0 274 111q111 112 111 275q0 161 -111 271q-111 111 -274 111q-164 0 -275 -110t-111 -272q0 -163 111 -275q111 -111 275 -111v0zM454 152q-73 1 -110 56q-37 54 -37 151q0 100 39 159q38 59 114 60q55 -1 88 -30q33 -30 39 -79h-62q-4 25 -22 39
q-18 15 -45 15q-88 0 -88 -146h3q15 28 41 41t54 13q58 -1 92 -39q34 -37 35 -99q-1 -63 -39 -102q-39 -38 -102 -39v0zM456 207q34 1 54 24q21 23 21 62t-21 61q-20 23 -54 23q-36 -1 -56 -25t-20 -59q0 -37 20 -61t56 -25v0z" />
    <glyph glyph-name="uni277C" unicode="&#x277c;" horiz-adv-x="898" 
d="M450 -9q163 0 274 111q111 112 111 275q0 162 -111 272q-111 111 -274 111q-165 0 -276 -111q-111 -110 -111 -272q0 -163 111 -275q111 -111 276 -111v0zM370 158q16 100 53 189q37 90 96 170h-146v-70h-44v125h268v-44q-126 -165 -162 -370h-65z" />
    <glyph glyph-name="uni277D" unicode="&#x277d;" horiz-adv-x="898" 
d="M450 -9q163 0 274 111q111 112 111 275q0 162 -111 272q-111 111 -274 111q-165 0 -276 -111q-111 -110 -111 -272q0 -163 111 -275q111 -111 276 -111v0zM449 152q-65 1 -102 32t-38 83q0 31 16 58q16 26 44 39v4q-60 27 -60 96q1 52 39 83q37 30 101 31q66 -1 103 -32
t38 -82q0 -67 -60 -96v-4q27 -15 44 -40q16 -26 16 -57q-1 -52 -39 -83t-102 -32v0zM449 391q36 0 56 18q21 18 21 48q-1 30 -22 49q-21 18 -55 18q-36 0 -56 -18q-21 -19 -21 -49q1 -30 22 -48t55 -18v0zM449 207q36 0 56 19q21 18 21 48q-1 30 -22 49q-21 18 -55 18
q-36 -1 -56 -19q-21 -18 -21 -48q1 -31 22 -49t55 -18v0z" />
    <glyph glyph-name="uni277E" unicode="&#x277e;" horiz-adv-x="898" 
d="M450 -9q163 0 274 111q111 112 111 274t-111 273t-274 111t-276 -111q-111 -111 -111 -273t111 -274q113 -111 276 -111v0zM448 152q-55 1 -89 30q-34 30 -40 79h63q4 -26 23 -40q18 -14 45 -14q88 0 88 146h-3q-13 -24 -39 -39q-26 -16 -57 -16q-57 1 -92 39
q-34 38 -35 101q1 63 40 101q38 38 102 39q73 -1 109 -56q37 -55 37 -152q0 -100 -38 -158q-38 -59 -114 -60v0zM452 353q36 1 57 25q20 24 20 60t-21 60q-20 23 -56 24q-34 -1 -54 -24q-21 -23 -22 -60q1 -39 21 -62q21 -23 55 -23v0z" />
    <glyph glyph-name="uni2780" unicode="&#x2780;" horiz-adv-x="897" 
d="M450 -9q162 0 273 111t111 274q0 162 -111 273t-273 111q-163 0 -276 -111q-111 -111 -111 -273q0 -163 111 -274q113 -111 276 -111v0zM450 25q-150 0 -252 101q-101 102 -101 250q0 147 102 248q102 102 251 102q147 0 248 -102q102 -101 102 -248t-102 -249
q-101 -102 -248 -102v0zM443 158h62v414h-61v-5q0 -72 -69 -72h-41v-48h109v-289z" />
    <glyph glyph-name="uni2781" unicode="&#x2781;" horiz-adv-x="898" 
d="M450 760q-165 0 -276 -111q-111 -110 -111 -272q0 -163 111 -275q111 -111 276 -111q163 0 274 111q111 112 111 275q0 162 -111 272q-111 111 -274 111v0zM450 25q-149 0 -251 102q-101 102 -101 250q0 147 101 248q102 101 251 101t249 -102q102 -101 102 -247
q0 -148 -102 -250q-100 -102 -249 -102v0zM581 457q-1 54 -34 87q-34 32 -95 33q-61 -1 -98 -35t-38 -92l61 -5q0 36 20 57q19 21 52 22q31 0 49 -19q19 -18 19 -49q-1 -30 -20 -56t-48 -47q-43 -28 -82 -70t-42 -111v-14h255v56h-118l-68 -3q4 14 14 28t26 28q32 29 63 51
q33 22 58 58t26 81v0z" />
    <glyph glyph-name="uni2782" unicode="&#x2782;" horiz-adv-x="898" 
d="M450 -9q163 0 274 111q111 112 111 275q0 162 -111 272q-111 111 -274 111q-165 0 -276 -111q-111 -110 -111 -272q0 -163 111 -275q111 -111 276 -111v0zM450 25q-149 0 -251 102q-101 102 -101 250q0 147 101 248q102 101 251 101t249 -102q102 -101 102 -247
q0 -148 -102 -250q-100 -102 -249 -102v0zM314 283q0 -61 36 -95q36 -35 98 -36q62 1 99 34t38 87q0 74 -69 100v3q62 26 62 89q-1 52 -36 82q-36 30 -94 31q-61 -1 -97 -36q-37 -36 -35 -94h63q-1 34 17 55q18 20 52 21q30 0 47 -16q18 -17 18 -46q0 -28 -19 -46
q-20 -17 -56 -18h-25v-54h30q34 0 55 -18t22 -51q0 -30 -20 -49q-19 -18 -52 -19q-33 0 -51 20q-19 20 -19 56h-64z" />
    <glyph glyph-name="uni2783" unicode="&#x2783;" horiz-adv-x="898" 
d="M63 377q0 -163 111 -275q113 -111 276 -111t274 111q111 112 111 275q0 161 -111 272t-274 111t-276 -111q-111 -110 -111 -272v0zM97 377q0 147 102 248t251 101t249 -101q101 -101 101 -248q0 -148 -101 -250q-100 -102 -249 -102t-251 102t-102 250v0zM475 249v-91h61
v91h48v54h-48v269h-98l-152 -271v-52h189zM475 519v-216h-121z" />
    <glyph glyph-name="uni2784" unicode="&#x2784;" horiz-adv-x="900" 
d="M451 -9q163 0 274 111q56 56 84 125q28 68 28 150q0 162 -112 272q-111 111 -274 111q-165 0 -277 -111q-111 -110 -111 -272q0 -163 111 -275q112 -111 277 -111v0zM451 25q-149 0 -251 102t-102 250q0 147 101 248q102 102 252 102q148 0 250 -102q102 -101 102 -248
t-102 -250q-102 -102 -250 -102v0zM457 152q64 1 103 40q38 39 39 102q-1 63 -37 101q-35 38 -94 39q-54 0 -78 -30l-2 3l2 43v67h187v55h-248v-232h59q8 18 27 28q20 11 42 11q36 -1 56 -24q21 -24 21 -63q-1 -39 -21 -62q-21 -22 -55 -23q-36 1 -55 23q-20 22 -19 55h-64
q0 -60 38 -96q37 -36 99 -37v0z" />
    <glyph glyph-name="uni2785" unicode="&#x2785;" horiz-adv-x="897" 
d="M63 378q0 -163 111 -275q111 -111 275 -111q163 0 274 111q111 112 111 275q0 161 -111 271q-111 111 -274 111q-164 0 -275 -110t-111 -272v0zM97 378q0 147 101 247q102 101 251 101t249 -101q102 -101 102 -247q0 -148 -102 -250q-100 -101 -249 -101t-251 101
q-101 102 -101 250v0zM307 359q0 -97 37 -151q37 -55 110 -56q63 1 102 39q38 39 39 102q-1 62 -35 99q-34 38 -92 39q-28 0 -54 -13t-41 -41h-3q0 146 88 146q27 0 45 -15q18 -14 22 -39h62q-6 49 -39 79q-33 29 -88 30q-76 -1 -114 -60q-39 -59 -39 -159v0zM380 293
q0 35 20 59t56 25q34 0 54 -23q21 -22 21 -61t-21 -62q-20 -23 -54 -24q-36 1 -56 25t-20 61v0z" />
    <glyph glyph-name="uni2786" unicode="&#x2786;" horiz-adv-x="898" 
d="M450 -9q163 0 274 111q111 112 111 275q0 162 -111 272q-111 111 -274 111q-165 0 -276 -111q-111 -110 -111 -272q0 -163 111 -275q111 -111 276 -111v0zM450 25q-149 0 -251 102t-102 250q0 147 102 248t251 101t249 -101q101 -101 101 -248q0 -148 -101 -250
q-100 -102 -249 -102v0zM435 158q36 205 162 370v44h-268v-125h44v70h146q-59 -80 -96 -170q-37 -89 -53 -189h65z" />
    <glyph glyph-name="uni2787" unicode="&#x2787;" horiz-adv-x="898" 
d="M450 -9q163 0 274 111q111 112 111 275q0 162 -111 272q-111 111 -274 111q-165 0 -276 -111q-111 -110 -111 -272q0 -163 111 -275q111 -111 276 -111v0zM450 25q-149 0 -251 102t-102 250q0 147 102 248t251 101t249 -102q102 -101 102 -247q0 -148 -102 -250
q-100 -102 -249 -102v0zM449 152q64 1 102 32t39 83q0 31 -16 57q-17 25 -44 40v4q60 29 60 96q-1 51 -38 82t-103 32q-64 -1 -101 -31q-38 -31 -39 -83q0 -69 60 -96v-4q-28 -13 -44 -39q-16 -27 -16 -58q1 -52 38 -83t102 -32v0zM449 391q-34 0 -55 18t-22 48q0 30 21 49
q20 18 56 18q34 0 55 -18q21 -19 22 -49q0 -30 -21 -48q-20 -18 -56 -18v0zM449 207q-34 0 -55 18t-22 49q0 30 21 48q20 18 56 19q34 0 55 -18q21 -19 22 -49q0 -30 -21 -48q-20 -19 -56 -19v0z" />
    <glyph glyph-name="uni2788" unicode="&#x2788;" horiz-adv-x="898" 
d="M450 -9q163 0 274 111q111 112 111 274t-111 273t-274 111t-276 -111q-111 -111 -111 -273t111 -274q113 -111 276 -111v0zM450 25q-149 0 -251 102t-102 249t102 248q102 102 251 102t249 -102q101 -101 101 -248t-102 -249q-101 -102 -248 -102v0zM448 152q76 1 114 60
q38 58 38 158q0 97 -37 152q-36 55 -109 56q-64 -1 -102 -39q-39 -38 -40 -101q1 -63 35 -101q35 -38 92 -39q31 0 57 16q26 15 39 39h3q0 -146 -88 -146q-27 0 -45 14q-19 14 -23 40h-63q6 -49 40 -79q34 -29 89 -30v0zM452 353q-34 0 -55 23q-20 23 -21 62q1 37 22 60
q20 23 54 24q36 -1 56 -24q21 -24 21 -60t-20 -60q-21 -24 -57 -25v0z" />
    <glyph glyph-name="uniECE0" unicode="&#xece0;" horiz-adv-x="1051" 
d="M134 326h169q15 -144 119 -240q105 -95 245 -95q89 1 165 41q75 41 128 114l-63 46q-38 -55 -99 -89t-133 -35q-114 0 -200 84q-86 86 -86 213t86 211q87 85 200 85q71 -1 132 -35t100 -90l63 47q-52 73 -128 113q-75 40 -165 41q-142 0 -246 -97q-52 -48 -81 -107
q-30 -60 -37 -131h-169v249h203l61 78h-337v-726l73 54v269zM533 365q0 57 38 97t93 40q34 0 62 -17q29 -16 47 -43l62 46q-30 42 -74 66q-43 24 -95 24q-87 0 -149 -63q-61 -61 -61 -150t61 -152q62 -63 149 -63q50 0 94 24q45 24 75 67l-62 46q-18 -27 -47 -44t-62 -17
q-55 0 -93 40q-38 41 -38 99v0z" />
    <glyph glyph-name="uniEFCC" unicode="&#xefcc;" horiz-adv-x="1208" 
d="M485 734q-162 0 -262 -103t-100 -270q0 -166 99 -270q50 -52 116 -77q65 -26 147 -26q20 0 38 2v94q-25 -3 -37 -3q-123 0 -198 77q-74 78 -74 203q0 126 74 203q75 77 198 77q19 0 37 -3v94q-14 2 -38 2v0zM748 366q0 -168 96 -269q49 -50 114 -75q64 -25 146 -25
q24 0 44 2v94q-20 -3 -40 -3q-69 -1 -125 23q-56 23 -96 76q-39 54 -42 134h227v86h-227q4 79 42 133t95 76q57 23 126 23q24 0 40 -3v94q-18 2 -44 2q-82 0 -146 -25q-65 -26 -114 -76q-96 -100 -96 -267v0z" />
    <glyph glyph-name="uniF8FF" unicode="&#xf8ff;" horiz-adv-x="641" 
d="M429 632q21 28 31 58q10 29 8 45q-1 7 -1 12q-1 5 0 7l-17 -1q-19 -1 -47 -18q-29 -17 -53 -48q-24 -32 -29 -60q-4 -28 -2 -44l1 -10l18 3q19 4 46 18q26 15 45 38v0zM211 0q17 0 58 15t66 15q24 0 62 -15q39 -14 59 -14q30 1 57 21q27 21 46 48q18 27 33 61t21 49
q5 14 7 21l-10 5q-23 10 -55 46q-31 37 -34 103q5 74 40 108t40 34l-5 8q-9 17 -44 42q-34 24 -92 26q-38 0 -80 -18q-41 -18 -56 -18q-8 0 -22 4q-14 5 -34 13q-40 17 -70 17q-70 0 -124 -62q-26 -31 -40 -72q-13 -42 -13 -94q0 -75 28 -156q14 -40 33 -73q18 -34 40 -61
q45 -53 89 -53v0z" />
    <glyph glyph-name="uniFB01" unicode="&#xfb01;" horiz-adv-x="570" 
d="M170 517v72q-1 46 18 68q18 22 62 22q26 0 48 -5v54q-20 6 -53 6q-66 0 -101 -33q-36 -34 -36 -103v-81h-92v-54h92v-463h62v463h242v-463h62v517h-304zM411 616h63v102h-63v-102z" />
    <glyph glyph-name="uniFB02" unicode="&#xfb02;" horiz-adv-x="586" 
d="M428 517h-259v72q0 46 18 68q19 22 63 22q26 0 48 -5v54q-20 6 -53 6q-66 0 -102 -34t-36 -102v-81h-91v-54h91v-463h62v463h259v-463h62v729h-62v-212z" />
    <glyph glyph-name="glyph460" horiz-adv-x="384" 
d="M419 885l-32 56l-165 -124l22 -33zM279 729h-65v-541q0 -131 -117 -131q-55 0 -81 6v-63q25 -8 79 -8q80 0 132 45t52 151v541z" />
    <glyph glyph-name="glyph461" horiz-adv-x="773" 
d="M390 -10q74 0 135 24q60 24 106 71q93 95 93 250v42h-299v-67h229q-3 -117 -77 -188q-73 -70 -187 -70q-126 0 -200 86q-73 86 -73 227t74 225q37 43 87 64t112 21q95 0 161 -49q67 -49 83 -135h71q-16 111 -103 179q-43 34 -96 51t-115 17q-153 0 -248 -103
q-47 -52 -71 -119q-23 -68 -23 -153q0 -168 93 -271q93 -102 248 -102v0z" />
    <glyph glyph-name="glyph462" horiz-adv-x="773" 
d="M476 919q-1 -43 -25 -67q-24 -25 -64 -26q-40 1 -64 26q-24 24 -25 67h-47q1 -62 38 -98q36 -36 98 -37q63 1 100 37q36 36 37 98h-48zM390 -10q74 0 135 24q60 24 106 71q93 95 93 250v42h-299v-67h229q-3 -117 -77 -188q-73 -70 -187 -70q-126 0 -200 86
q-73 86 -73 227t74 225q37 43 87 64t112 21q95 0 161 -49q67 -49 83 -135h71q-16 111 -103 179q-43 34 -96 51t-115 17q-153 0 -248 -103q-47 -52 -71 -119q-23 -68 -23 -153q0 -168 93 -271q93 -102 248 -102v0z" />
    <glyph glyph-name="glyph463" horiz-adv-x="773" 
d="M390 -10q74 0 135 24q60 24 106 71q93 95 93 250v42h-299v-67h229q-3 -117 -77 -188q-73 -70 -187 -70q-126 0 -200 86q-73 86 -73 227t74 225q37 43 87 64t112 21q95 0 161 -49q67 -49 83 -135h71q-16 111 -103 179q-43 34 -96 51t-115 17q-153 0 -248 -103
q-47 -52 -71 -119q-23 -68 -23 -153q0 -168 93 -271q93 -102 248 -102v0zM351 -214q72 0 72 72v79h-72v-86h42v-2q0 -41 -42 -41v-22z" />
    <glyph glyph-name="glyph464" horiz-adv-x="773" 
d="M421 804v110h-67v-110h67zM390 -10q74 0 135 24q60 24 106 71q93 95 93 250v42h-299v-67h229q-3 -117 -77 -188q-73 -70 -187 -70q-126 0 -200 86q-73 86 -73 227t74 225q37 43 87 64t112 21q95 0 161 -49q67 -49 83 -135h71q-16 111 -103 179q-43 34 -96 51t-115 17
q-153 0 -248 -103q-47 -52 -71 -119q-23 -68 -23 -153q0 -168 93 -271q93 -102 248 -102v0z" />
    <glyph glyph-name="glyph465" horiz-adv-x="696" 
d="M173 0v299h198q48 0 73 -15q26 -14 47 -68l82 -216h74l-87 214q-17 42 -32 63q-15 22 -35 28v8q67 24 105 75q37 51 38 126q-1 99 -62 157q-62 57 -174 58h-290v-729h63zM173 668h229q77 0 120 -39q44 -39 45 -115q0 -72 -40 -115q-41 -42 -125 -43h-229v312z" />
    <glyph glyph-name="glyph466" horiz-adv-x="696" 
d="M547 885l-32 56l-165 -124l22 -33zM173 0v299h198q48 0 73 -15q26 -14 47 -68l82 -216h74l-87 214q-17 42 -32 63q-15 22 -35 28v8q67 24 105 75q37 51 38 126q-1 99 -62 157q-62 57 -174 58h-290v-729h63zM173 668h229q77 0 120 -39q44 -39 45 -115q0 -72 -40 -115
q-41 -42 -125 -43h-229v312z" />
    <glyph glyph-name="glyph467" horiz-adv-x="696" 
d="M348 793h49l110 120l-34 30l-101 -107l-100 107l-34 -30zM173 0v299h198q48 0 73 -15q26 -14 47 -68l82 -216h74l-87 214q-17 42 -32 63q-15 22 -35 28v8q67 24 105 75q37 51 38 126q-1 99 -62 157q-62 57 -174 58h-290v-729h63zM173 668h229q77 0 120 -39
q44 -39 45 -115q0 -72 -40 -115q-41 -42 -125 -43h-229v312z" />
    <glyph glyph-name="glyph468" horiz-adv-x="696" 
d="M173 0v299h198q48 0 73 -15q26 -14 47 -68l82 -216h74l-87 214q-17 42 -32 63q-15 22 -35 28v8q67 24 105 75q37 51 38 126q-1 99 -62 157q-62 57 -174 58h-290v-729h63zM173 668h229q77 0 120 -39q44 -39 45 -115q0 -72 -40 -115q-41 -42 -125 -43h-229v312zM337 -214
q72 0 72 72v79h-72v-86h42v-2q0 -41 -42 -41v-22z" />
    <glyph glyph-name="glyph469" horiz-adv-x="255" 
d="M162 592v110h-67v-110h67zM159 0v517h-63v-517h63z" />
    <glyph glyph-name="glyph470" horiz-adv-x="261" 
d="M308 673l-32 56l-165 -124l22 -33zM35 -171q60 0 95 35q34 35 35 99v554h-63v-549q0 -37 -20 -59q-21 -22 -60 -22q-18 0 -31 4v-58q24 -4 44 -4v0z" />
    <glyph glyph-name="glyph471" horiz-adv-x="664" 
d="M173 0v529q0 72 41 111q40 39 119 39q57 0 98 -23q40 -22 50 -61l-167 -222q106 -2 164 -41t59 -117q-1 -73 -50 -113q-50 -41 -143 -42h-105v-60h112q116 0 185 57q69 58 69 154q0 81 -52 136q-52 56 -135 68l134 171q-7 68 -67 110t-149 42q-107 0 -166 -53t-60 -152
v-533h63z" />
    <glyph glyph-name="glyph472" horiz-adv-x="622" 
d="M466 517l-4 -92h-5q-21 48 -68 75t-111 27q-102 0 -165 -75q-63 -74 -63 -194t62 -194t162 -74q63 1 113 30q49 28 70 77h5v-97h64v517h-60zM462 219q0 -75 -51 -123q-50 -47 -125 -47q-74 0 -121 52q-47 51 -49 157q2 106 49 157q47 52 121 52t125 -49t51 -121v-78z" />
    <glyph glyph-name="glyph473" horiz-adv-x="622" 
d="M455 689l-32 56l-165 -124l22 -33zM466 517l-4 -92h-5q-21 48 -68 75t-111 27q-102 0 -165 -75q-63 -74 -63 -194t62 -194t162 -74q63 1 113 30q49 28 70 77h5v-97h64v517h-60zM462 219q0 -75 -51 -123q-50 -47 -125 -47q-74 0 -121 52q-47 51 -49 157q2 106 49 157
q47 52 121 52t125 -49t51 -121v-78z" />
    <glyph glyph-name="glyph474" horiz-adv-x="622" 
d="M370 723q-1 -43 -25 -67q-24 -25 -64 -26q-40 1 -64 26q-24 24 -25 67h-47q1 -62 38 -98q36 -36 98 -37q63 1 100 37q36 36 37 98h-48zM466 517l-4 -92h-5q-21 48 -68 75t-111 27q-102 0 -165 -75q-63 -74 -63 -194t62 -194t162 -74q63 1 113 30q49 28 70 77h5v-97h64
v517h-60zM462 219q0 -75 -51 -123q-50 -47 -125 -47q-74 0 -121 52q-47 51 -49 157q2 106 49 157q47 52 121 52t125 -49t51 -121v-78z" />
    <glyph glyph-name="glyph475" horiz-adv-x="622" 
d="M180 588l102 106l101 -106l34 31l-110 118h-48l-111 -119zM466 517l-4 -92h-5q-21 48 -68 75t-111 27q-102 0 -165 -75q-63 -74 -63 -194t62 -194t162 -74q63 1 113 30q49 28 70 77h5v-97h64v517h-60zM462 219q0 -75 -51 -123q-50 -47 -125 -47q-74 0 -121 52
q-47 51 -49 157q2 106 49 157q47 52 121 52t125 -49t51 -121v-78z" />
    <glyph glyph-name="glyph476" horiz-adv-x="622" 
d="M222 608v110h-66v-110h66zM406 608v110h-66v-110h66zM466 517l-4 -92h-5q-21 48 -68 75t-111 27q-102 0 -165 -75q-63 -74 -63 -194t62 -194t162 -74q63 1 113 30q49 28 70 77h5v-97h64v517h-60zM462 219q0 -75 -51 -123q-50 -47 -125 -47q-74 0 -121 52q-47 51 -49 157
q2 106 49 157q47 52 121 52t125 -49t51 -121v-78z" />
    <glyph glyph-name="glyph477" horiz-adv-x="622" 
d="M304 621l-165 124l-32 -56l175 -101zM466 517l-4 -92h-5q-21 48 -68 75t-111 27q-102 0 -165 -75q-63 -74 -63 -194t62 -194t162 -74q63 1 113 30q49 28 70 77h5v-97h64v517h-60zM462 219q0 -75 -51 -123q-50 -47 -125 -47q-74 0 -121 52q-47 51 -49 157q2 106 49 157
q47 52 121 52t125 -49t51 -121v-78z" />
    <glyph glyph-name="glyph478" horiz-adv-x="622" 
d="M427 600v45h-292v-45h292zM466 517l-4 -92h-5q-21 48 -68 75t-111 27q-102 0 -165 -75q-63 -74 -63 -194t62 -194t162 -74q63 1 113 30q49 28 70 77h5v-97h64v517h-60zM462 219q0 -75 -51 -123q-50 -47 -125 -47q-74 0 -121 52q-47 51 -49 157q2 106 49 157q47 52 121 52
t125 -49t51 -121v-78z" />
    <glyph glyph-name="glyph479" horiz-adv-x="622" 
d="M510 -133q-28 0 -44 12q-17 13 -17 36q0 58 79 85l-2 4v513h-60l-4 -92h-5q-21 48 -68 75t-111 27q-102 0 -165 -75q-63 -74 -63 -194t62 -194t162 -74q63 1 113 30q49 28 70 77h5v-88q-62 -39 -62 -101q1 -37 27 -59q26 -23 69 -24q20 -1 38 2q19 2 36 9v44
q-28 -13 -60 -13v0zM286 49q-74 0 -121 52q-47 51 -49 157q2 106 49 157q47 52 121 52t125 -49t51 -121v-78q0 -75 -51 -123q-50 -47 -125 -47v0z" />
    <glyph glyph-name="glyph480" horiz-adv-x="622" 
d="M462 425h-5q-28 67 -108 92q46 27 46 88q-1 46 -28 74q-28 28 -76 29q-48 -1 -76 -29q-27 -28 -28 -74q0 -55 39 -84q-82 -19 -128 -89q-47 -70 -48 -174q0 -120 62 -194t162 -74q63 1 113 30q49 28 70 77h5v-97h64v517h-60zM292 670q27 0 43 -18q16 -17 16 -47t-16 -47
q-16 -18 -43 -18t-44 18q-17 17 -17 47t17 47q17 18 44 18v0zM462 219q0 -75 -51 -123q-50 -47 -125 -47q-74 0 -121 52q-47 51 -49 157q2 106 49 157q47 52 121 52t125 -49t51 -121v-78z" />
    <glyph glyph-name="glyph481" horiz-adv-x="622" 
d="M347 592q45 2 81 62l-30 24q-23 -31 -52 -33q-10 -1 -26 4t-38 15q-44 21 -65 19q-26 -2 -45 -17q-18 -15 -38 -46l30 -22q21 30 48 31q8 1 23 -4t35 -15q42 -19 77 -18v0zM466 517l-4 -92h-5q-21 48 -68 75t-111 27q-102 0 -165 -75q-63 -74 -63 -194t62 -194t162 -74
q63 1 113 30q49 28 70 77h5v-97h64v517h-60zM462 219q0 -75 -51 -123q-50 -47 -125 -47q-74 0 -121 52q-47 51 -49 157q2 106 49 157q47 52 121 52t125 -49t51 -121v-78z" />
    <glyph glyph-name="glyph482" horiz-adv-x="615" 
d="M78 -31q7 -66 63 -106q55 -39 149 -40q107 1 167 55q61 54 62 154v485h-59l-3 -92h-6q-21 46 -67 74q-46 27 -108 28q-100 0 -163 -74q-63 -73 -63 -185q0 -114 62 -187q63 -72 160 -72q61 1 109 30q49 30 70 79h6v-89q0 -73 -42 -114t-125 -42q-68 0 -108 26
q-40 25 -44 70h-60zM283 68q-69 0 -118 50q-48 51 -48 150t49 149q49 51 118 51q71 0 122 -50q51 -49 51 -122v-56q0 -76 -50 -124t-124 -48v0z" />
    <glyph glyph-name="glyph483" horiz-adv-x="615" 
d="M365 725q-1 -43 -25 -67q-24 -25 -64 -26q-40 1 -64 26q-24 24 -25 67h-47q1 -62 38 -98q36 -36 98 -37q63 1 100 37q36 36 37 98h-48zM78 -31q7 -66 63 -106q55 -39 149 -40q107 1 167 55q61 54 62 154v485h-59l-3 -92h-6q-21 46 -67 74q-46 27 -108 28q-100 0 -163 -74
q-63 -73 -63 -185q0 -114 62 -187q63 -72 160 -72q61 1 109 30q49 30 70 79h6v-89q0 -73 -42 -114t-125 -42q-68 0 -108 26q-40 25 -44 70h-60zM283 68q-69 0 -118 50q-48 51 -48 150t49 149q49 51 118 51q71 0 122 -50q51 -49 51 -122v-56q0 -76 -50 -124t-124 -48v0z" />
    <glyph glyph-name="glyph484" horiz-adv-x="615" 
d="M312 776q-72 0 -72 -72v-98h72v86h-42v19q0 43 42 43v22zM78 -31q7 -66 63 -106q55 -39 149 -40q107 1 167 55q61 54 62 154v485h-59l-3 -92h-6q-21 46 -67 74q-46 27 -108 28q-100 0 -163 -74q-63 -73 -63 -185q0 -114 62 -187q63 -72 160 -72q61 1 109 30q49 30 70 79
h6v-89q0 -73 -42 -114t-125 -42q-68 0 -108 26q-40 25 -44 70h-60zM283 68q-69 0 -118 50q-48 51 -48 150t49 149q49 51 118 51q71 0 122 -50q51 -49 51 -122v-56q0 -76 -50 -124t-124 -48v0z" />
    <glyph glyph-name="glyph485" horiz-adv-x="615" 
d="M310 610v110h-67v-110h67zM78 -31q7 -66 63 -106q55 -39 149 -40q107 1 167 55q61 54 62 154v485h-59l-3 -92h-6q-21 46 -67 74q-46 27 -108 28q-100 0 -163 -74q-63 -73 -63 -185q0 -114 62 -187q63 -72 160 -72q61 1 109 30q49 30 70 79h6v-89q0 -73 -42 -114t-125 -42
q-68 0 -108 26q-40 25 -44 70h-60zM283 68q-69 0 -118 50q-48 51 -48 150t49 149q49 51 118 51q71 0 122 -50q51 -49 51 -122v-56q0 -76 -50 -124t-124 -48v0z" />
    <glyph glyph-name="glyph486" horiz-adv-x="563" 
d="M55 148q1 -74 48 -115q48 -42 132 -43q63 0 108 26t64 72h6l3 -88h59v345q0 88 -50 135t-144 47q-92 -1 -146 -43q-54 -43 -59 -118h63q1 51 37 80q35 28 99 29q138 0 138 -125v-43h-149q-98 0 -153 -41q-55 -40 -56 -118v0zM120 148q0 106 145 106h148v-31
q0 -40 -12 -71q-12 -32 -37 -57q-49 -49 -126 -49q-57 0 -87 26q-31 26 -31 76v0z" />
    <glyph glyph-name="glyph487" horiz-adv-x="563" 
d="M454 689l-32 56l-165 -124l22 -33zM55 148q1 -74 48 -115q48 -42 132 -43q63 0 108 26t64 72h6l3 -88h59v345q0 88 -50 135t-144 47q-92 -1 -146 -43q-54 -43 -59 -118h63q1 51 37 80q35 28 99 29q138 0 138 -125v-43h-149q-98 0 -153 -41q-55 -40 -56 -118v0zM120 148
q0 106 145 106h148v-31q0 -40 -12 -71q-12 -32 -37 -57q-49 -49 -126 -49q-57 0 -87 26q-31 26 -31 76v0z" />
    <glyph glyph-name="glyph488" horiz-adv-x="563" 
d="M369 723q-1 -43 -25 -67q-24 -25 -64 -26q-40 1 -64 26q-24 24 -25 67h-47q1 -62 38 -98q36 -36 98 -37q63 1 100 37q36 36 37 98h-48zM55 148q1 -74 48 -115q48 -42 132 -43q63 0 108 26t64 72h6l3 -88h59v345q0 88 -50 135t-144 47q-92 -1 -146 -43q-54 -43 -59 -118
h63q1 51 37 80q35 28 99 29q138 0 138 -125v-43h-149q-98 0 -153 -41q-55 -40 -56 -118v0zM120 148q0 106 145 106h148v-31q0 -40 -12 -71q-12 -32 -37 -57q-49 -49 -126 -49q-57 0 -87 26q-31 26 -31 76v0z" />
    <glyph glyph-name="glyph489" horiz-adv-x="563" 
d="M179 588l102 106l101 -106l34 31l-110 118h-48l-111 -119zM55 148q1 -74 48 -115q48 -42 132 -43q63 0 108 26t64 72h6l3 -88h59v345q0 88 -50 135t-144 47q-92 -1 -146 -43q-54 -43 -59 -118h63q1 51 37 80q35 28 99 29q138 0 138 -125v-43h-149q-98 0 -153 -41
q-55 -40 -56 -118v0zM120 148q0 106 145 106h148v-31q0 -40 -12 -71q-12 -32 -37 -57q-49 -49 -126 -49q-57 0 -87 26q-31 26 -31 76v0z" />
    <glyph glyph-name="glyph490" horiz-adv-x="563" 
d="M221 608v110h-66v-110h66zM405 608v110h-66v-110h66zM55 148q1 -74 48 -115q48 -42 132 -43q63 0 108 26t64 72h6l3 -88h59v345q0 88 -50 135t-144 47q-92 -1 -146 -43q-54 -43 -59 -118h63q1 51 37 80q35 28 99 29q138 0 138 -125v-43h-149q-98 0 -153 -41
q-55 -40 -56 -118v0zM120 148q0 106 145 106h148v-31q0 -40 -12 -71q-12 -32 -37 -57q-49 -49 -126 -49q-57 0 -87 26q-31 26 -31 76v0z" />
    <glyph glyph-name="glyph491" horiz-adv-x="563" 
d="M303 621l-165 124l-32 -56l175 -101zM55 148q1 -74 48 -115q48 -42 132 -43q63 0 108 26t64 72h6l3 -88h59v345q0 88 -50 135t-144 47q-92 -1 -146 -43q-54 -43 -59 -118h63q1 51 37 80q35 28 99 29q138 0 138 -125v-43h-149q-98 0 -153 -41q-55 -40 -56 -118v0zM120 148
q0 106 145 106h148v-31q0 -40 -12 -71q-12 -32 -37 -57q-49 -49 -126 -49q-57 0 -87 26q-31 26 -31 76v0z" />
    <glyph glyph-name="glyph492" horiz-adv-x="563" 
d="M426 600v45h-292v-45h292zM55 148q1 -74 48 -115q48 -42 132 -43q63 0 108 26t64 72h6l3 -88h59v345q0 88 -50 135t-144 47q-92 -1 -146 -43q-54 -43 -59 -118h63q1 51 37 80q35 28 99 29q138 0 138 -125v-43h-149q-98 0 -153 -41q-55 -40 -56 -118v0zM120 148
q0 106 145 106h148v-31q0 -40 -12 -71q-12 -32 -37 -57q-49 -49 -126 -49q-57 0 -87 26q-31 26 -31 76v0z" />
    <glyph glyph-name="glyph493" horiz-adv-x="563" 
d="M457 -133q-28 0 -44 12q-17 13 -17 36q0 58 79 85v345q0 88 -50 135t-144 47q-92 -1 -146 -43q-54 -43 -59 -118h63q1 51 37 80q35 28 99 29q138 0 138 -125v-43h-149q-98 0 -153 -41q-55 -40 -56 -118q1 -74 48 -115q48 -42 132 -43q63 0 108 26t64 72h6l3 -75
q-69 -39 -69 -105q1 -37 27 -59q26 -23 69 -24q20 -1 38 2q19 2 36 9v44q-28 -13 -60 -13v0zM413 223q0 -40 -12 -71q-12 -32 -37 -57q-49 -49 -126 -49q-57 0 -87 26q-31 26 -31 76q0 106 145 106h148v-31z" />
    <glyph glyph-name="glyph494" horiz-adv-x="563" 
d="M349 519q35 29 35 81q-1 46 -28 74q-28 28 -76 29q-48 -1 -76 -29q-27 -28 -28 -74q0 -52 36 -81q-63 -15 -98 -55t-38 -98h63q1 51 37 80q35 28 99 29q138 0 138 -125v-43h-149q-98 0 -153 -41q-55 -40 -56 -118q1 -74 48 -115q48 -42 132 -43q63 0 108 26t64 72h6
l3 -88h59v345q0 143 -126 174v0zM281 665q27 0 43 -18q16 -17 16 -47t-16 -47q-16 -18 -43 -18t-44 18q-17 17 -17 47t17 47q17 18 44 18v0zM413 223q0 -40 -12 -71q-12 -32 -37 -57q-49 -49 -126 -49q-57 0 -87 26q-31 26 -31 76q0 106 145 106h148v-31z" />
    <glyph glyph-name="glyph495" horiz-adv-x="563" 
d="M346 592q45 2 81 62l-30 24q-23 -31 -52 -33q-10 -1 -26 4t-38 15q-44 21 -65 19q-26 -2 -45 -17q-18 -15 -38 -46l30 -22q21 30 48 31q8 1 23 -4t35 -15q42 -19 77 -18v0zM55 148q1 -74 48 -115q48 -42 132 -43q63 0 108 26t64 72h6l3 -88h59v345q0 88 -50 135t-144 47
q-92 -1 -146 -43q-54 -43 -59 -118h63q1 51 37 80q35 28 99 29q138 0 138 -125v-43h-149q-98 0 -153 -41q-55 -40 -56 -118v0zM120 148q0 106 145 106h148v-31q0 -40 -12 -71q-12 -32 -37 -57q-49 -49 -126 -49q-57 0 -87 26q-31 26 -31 76v0z" />
    <glyph glyph-name="glyph496" horiz-adv-x="624" 
d="M560 679q26 0 48 -5v54q-21 6 -54 6q-66 0 -102 -34t-36 -102v-81h-246v72q-1 45 18 68q19 22 63 22q26 0 48 -5v54q-21 6 -54 6q-66 0 -102 -34t-36 -102v-81h-91v-54h91v-463h63v463h246v-463h63v463h129v54h-129v72q0 46 18 68q19 22 63 22v0z" />
    <glyph glyph-name="glyph497" horiz-adv-x="866" 
d="M469 517v72q-1 46 18 68q18 22 62 22q26 0 48 -5v54q-19 6 -53 6q-66 0 -102 -34t-36 -102v-81h-236v72q-1 45 18 68q19 22 63 22q26 0 48 -5v54q-21 6 -54 6q-66 0 -102 -34t-36 -102v-81h-91v-54h91v-463h63v463h236v-463h63v463h238l1 -463h62v517h-301zM707 616h63
v102h-63v-102z" />
    <glyph glyph-name="glyph498" horiz-adv-x="2104" 
d="M154 750v-917h1069v55h-1012v338q0 88 46 142q23 28 54 41q30 14 67 14q61 0 96 -38q35 -39 36 -113v-272h62v277q-1 96 -49 150q-47 53 -130 54q-59 0 -105 -28t-70 -77h-7v318h1682v-806h-511v208h6q20 -49 67 -77q48 -28 111 -29q101 0 164 70q32 35 48 80
q16 44 16 99q0 107 -62 174q-61 68 -163 68q-66 -1 -114 -28q-47 -27 -67 -73h-6l-3 91h-281v140h-64v-140h-225v140h-64v-140h-106v-55h106v-356q0 -60 60 -60h129v57h-125v359h225v-356q0 -60 60 -60h129v57h-125v359h221v-583h631v917h-1796zM1382 275q0 57 52 102
q53 46 126 46q77 -1 122 -50q46 -49 47 -134q0 -83 -46 -137q-45 -53 -125 -53q-74 0 -125 43q-51 44 -51 105v78z" />
    <glyph glyph-name="glyph499" horiz-adv-x="583" 
d="M424 616h63v102h-63v-102zM169 517v191l-63 -24v-167h-91v-54h91v-331q0 -139 130 -139q14 0 27 2q12 1 23 5v56q-16 -6 -45 -6q-32 1 -48 14q-15 13 -20 32q-3 14 -3 23q-1 8 -1 20v324h255l1 -463h62v517h-318z" />
    <glyph glyph-name="glyph500" horiz-adv-x="640" 
d="M606 517h-118v191l-63 -24v-167h-256v191l-63 -24v-167h-91v-54h91v-331q0 -139 130 -139q14 0 27 2q12 1 23 5v56q-16 -6 -45 -6q-32 1 -48 14q-15 13 -20 32q-3 14 -3 23q-1 8 -1 20v324h256v-331q0 -139 131 -139q26 0 50 7v56q-16 -6 -45 -6q-52 0 -64 35
q-6 17 -7 28q-2 11 -2 26v324h118v54z" />
    <glyph glyph-name="glyph501" horiz-adv-x="880" 
d="M721 616h63v102h-63v-102zM466 517v191l-63 -24v-167h-234v191l-63 -24v-167h-91v-54h91v-331q0 -139 130 -139q14 0 27 2q12 1 23 5v56q-16 -6 -45 -6q-32 1 -48 14q-15 13 -20 32q-3 14 -3 23q-1 8 -1 20v324h234v-331q0 -139 130 -139q14 0 27 2q12 1 23 5v56
q-16 -6 -45 -6q-32 1 -48 14q-15 13 -20 32q-3 14 -3 23q-1 8 -1 20v324h255l1 -463h62v517h-318z" />
    <glyph glyph-name="glyph502" horiz-adv-x="1995" 
d="M254 0l107 452h6l114 -452h87l113 432l115 -432h92l107 452h6l114 -452h87l113 432l115 -432h92l107 452h6l114 -452h87l148 517h-71l-78 -300l-39 -151h-5l-119 451h-79l-113 -454h-6l-121 454h-74l-117 -451h-5l-119 451h-79l-113 -454h-6l-121 454h-74l-117 -451h-5
l-119 451h-79l-113 -454h-6l-39 157l-82 297h-74l151 -517h92z" />
    <glyph glyph-name="glyph503" horiz-adv-x="1230" 
d="M78 -31q7 -66 63 -106q55 -39 149 -40q107 1 167 55q61 54 62 154v485h-59l-3 -92h-6q-21 46 -67 74q-46 27 -108 28q-100 0 -163 -74q-63 -73 -63 -185q0 -114 62 -187q63 -72 160 -72q61 1 109 30q49 30 70 79h6v-89q0 -73 -42 -114t-125 -42q-68 0 -108 26
q-40 25 -44 70h-60zM693 -31q7 -66 63 -106q55 -39 149 -40q107 1 167 55q61 54 62 154v485h-59l-3 -92h-6q-21 46 -67 74q-46 27 -108 28q-100 0 -163 -74q-63 -73 -63 -185q0 -114 62 -187q63 -72 160 -72q61 1 109 30q49 30 70 79h6v-89q0 -73 -42 -114t-125 -42
q-68 0 -108 26q-40 25 -44 70h-60zM283 68q-69 0 -118 50q-48 51 -48 150t49 149q49 51 118 51q71 0 122 -50q51 -49 51 -122v-56q0 -76 -50 -124t-124 -48v0zM898 68q-69 0 -118 50q-48 51 -48 150t49 149q49 51 118 51q71 0 122 -50q51 -49 51 -122v-56q0 -76 -50 -124
t-124 -48v0z" />
    <glyph glyph-name="glyph504" horiz-adv-x="623" 
d="M313 -6q107 0 172 93q64 92 66 276q0 92 -17 161q-16 68 -50 114q-66 92 -172 92t-174 -92q-66 -91 -66 -275q0 -186 67 -278q68 -91 174 -91v0zM311 52q-86 1 -129 82q-43 80 -43 229q0 151 44 230q43 78 128 79q86 -1 130 -81q43 -79 43 -228q0 -151 -44 -230
q-44 -80 -129 -81v0zM349 325v74h-81v-74h81z" />
    <glyph glyph-name="glyph505" horiz-adv-x="620" 
d="M310 730q-106 0 -174 -92q-66 -91 -66 -275q0 -186 67 -278q68 -91 174 -91q107 0 172 93q64 92 66 276q0 92 -17 161q-16 68 -50 114q-66 92 -172 92v0zM309 672q129 0 162 -178l-332 -195q-2 40 -2 64q0 151 44 230q43 78 128 79v0zM309 52q-130 0 -162 184l333 193
q2 -42 2 -66q0 -151 -44 -230q-44 -80 -129 -81v0z" />
    <glyph glyph-name="glyph506" horiz-adv-x="620" 
d="M352 721h-58q-9 -60 -54 -92q-44 -32 -119 -32h-16v-48h185v-497h-199v-52h437v52h-176v669z" />
    <glyph glyph-name="glyph507" horiz-adv-x="620" 
d="M287 58q-29 0 -62 -1q-34 -1 -72 -3q1 20 7 39t20 38q14 18 26 33q12 14 35 32l37 29l43 32l42 30q39 29 69 57t50 56q42 56 42 132q0 87 -58 142q-58 56 -153 56q-99 0 -161 -60q-61 -59 -57 -154h64q-3 71 36 112q39 42 115 43q68 -1 107 -38t40 -104q0 -61 -34 -106
q-35 -45 -101 -92l-40 -28l-43 -31q-12 -9 -39 -31q-26 -21 -38 -35t-29 -36q-18 -22 -27 -43t-15 -47q-6 -27 -6 -55v-25h449v58h-247z" />
    <glyph glyph-name="glyph508" horiz-adv-x="620" 
d="M309 -10q101 0 165 57q64 58 64 151q0 58 -30 104q-31 46 -94 70v6q112 50 112 164q0 89 -62 138q-31 25 -69 37q-38 13 -82 13q-97 0 -159 -63q-61 -62 -57 -163h67q0 81 39 124q38 43 110 43q64 0 104 -33t41 -96q0 -61 -41 -99q-40 -39 -116 -40h-42v-59h40
q80 -1 124 -40q45 -39 46 -108q-1 -68 -44 -107q-43 -40 -116 -41q-71 0 -111 43q-41 42 -38 127h-69q-4 -103 54 -166q60 -62 164 -62v0z" />
    <glyph glyph-name="glyph509" horiz-adv-x="620" 
d="M476 721h-104l-321 -498v-61h362v-162h63v162h92v56h-92v503zM413 680v-462h-294z" />
    <glyph glyph-name="glyph510" horiz-adv-x="620" 
d="M314 473q-47 0 -89 -17q-43 -17 -67 -45l-3 1l12 252h344v57h-400l-14 -383h59q17 34 58 56q40 21 90 22q77 -1 122 -52t46 -134q-1 -84 -46 -133q-45 -48 -121 -49q-73 0 -117 48q-22 25 -32 55t-9 67h-65q-2 -102 61 -165t161 -63q52 0 94 17t76 51t50 78q17 44 17 97
q0 105 -65 172q-64 68 -162 68v0z" />
    <glyph glyph-name="glyph511" horiz-adv-x="620" 
d="M315 -10q105 0 167 65q62 66 62 172t-60 170q-60 65 -155 65q-65 0 -110 -28q-44 -29 -69 -85h-4q-15 323 176 323q59 0 98 -29q39 -30 47 -92h67q-8 84 -63 131q-56 47 -149 48q-246 0 -246 -370t239 -370v0zM320 48q-35 0 -64 12t-51 37t-33 57q-11 31 -11 71
q0 37 10 69q11 32 31 58q42 53 118 53q70 -1 112 -46q41 -46 42 -130q-1 -84 -42 -132t-112 -49v0z" />
    <glyph glyph-name="glyph512" horiz-adv-x="620" 
d="M118 527v137h366q-108 -145 -193 -328q-84 -183 -113 -336h69q31 162 119 348q44 94 95 176t107 153v44h-507v-194h57z" />
    <glyph glyph-name="glyph513" horiz-adv-x="620" 
d="M82 183q0 -85 63 -139t164 -54q102 0 165 54t63 139q0 56 -28 102q-27 45 -78 71v8q49 24 77 70t29 102q0 85 -64 139q-63 54 -164 54q-50 0 -91 -14q-41 -13 -73 -41q-63 -54 -63 -138q1 -56 29 -102q29 -47 78 -70v-8q-51 -25 -79 -71q-28 -45 -28 -102v0zM149 529
q1 65 43 103q41 38 117 39q74 -1 117 -38t44 -104q-1 -65 -43 -103q-42 -39 -118 -40q-72 1 -116 39q-43 37 -44 104v0zM149 191q1 64 43 103q41 38 117 39q74 -1 117 -38q43 -38 44 -104q-1 -65 -43 -103q-42 -39 -118 -40q-72 1 -116 38q-43 38 -44 105v0z" />
    <glyph glyph-name="glyph514" horiz-adv-x="620" 
d="M299 -10q122 0 183 83q62 84 62 280q0 377 -240 377q-104 0 -166 -66q-62 -64 -62 -171q0 -105 59 -170q60 -64 154 -64q64 0 109 28q46 28 72 84h4q19 -323 -173 -323q-61 0 -100 32q-38 31 -45 88h-66q7 -79 64 -129q58 -49 145 -49v0zM299 316q-70 1 -111 46
q-42 45 -43 129q1 84 41 132q41 48 113 49q73 -1 116 -49t44 -127q0 -75 -42 -128q-42 -52 -118 -52v0z" />
    <glyph glyph-name="glyph515" horiz-adv-x="620" 
d="M310 730q-106 0 -174 -92q-66 -91 -66 -275q0 -186 67 -278q68 -91 174 -91q107 0 172 93q64 92 66 276q0 92 -17 161q-16 68 -50 114q-66 92 -172 92v0zM309 672q82 -1 126 -73q43 -73 47 -211h-345q4 139 47 211q44 73 125 73v0zM309 52q-82 1 -125 74t-47 210h345
q-5 -138 -49 -211q-43 -72 -124 -73v0z" />
    <glyph glyph-name="glyph516" horiz-adv-x="420" 
d="M210 -4q75 0 120 61q45 62 46 184q-1 120 -45 182q-44 63 -121 63q-76 0 -120 -62q-45 -62 -46 -183q1 -118 44 -181q44 -63 122 -64v0zM209 55q-98 0 -98 188q0 184 99 184q98 0 98 -186t-99 -186v0z" />
    <glyph glyph-name="glyph517" horiz-adv-x="310" 
d="M155 345v-345h64v480h-61v-4q0 -34 -19 -56q-20 -21 -62 -22h-45v-53h123z" />
    <glyph glyph-name="glyph518" horiz-adv-x="378" 
d="M121 57q14 43 58 80t89 73q31 26 50 62q19 35 20 77q-1 61 -39 99q-39 37 -106 38q-69 -1 -111 -40q-41 -39 -43 -105l64 -5q0 41 23 66q23 26 63 27q39 -1 60 -22q22 -22 22 -59q-1 -36 -23 -67t-56 -56q-50 -33 -95 -82t-48 -127v-16h289v61h-137z" />
    <glyph glyph-name="glyph519" horiz-adv-x="386" 
d="M192 -7q68 0 111 39q44 39 44 101q0 86 -77 114v5q34 16 51 44q18 27 18 60q-1 61 -42 95t-106 35q-71 -1 -110 -42q-39 -42 -38 -108h66q0 43 22 68q22 24 62 25q34 0 55 -19q21 -20 22 -55q0 -34 -23 -55t-65 -22h-30v-61h33q43 0 69 -22q25 -22 26 -62q-1 -36 -25 -59
q-24 -22 -63 -23q-39 0 -62 24t-23 69h-66q-1 -69 40 -110q40 -40 111 -41v0z" />
    <glyph glyph-name="glyph520" horiz-adv-x="399" 
d="M304 480h-107l-175 -328v-56h217v-96h65v96h56v59h-56v325zM239 426v-271h-146z" />
    <glyph glyph-name="glyph521" horiz-adv-x="395" 
d="M43 146q-1 -67 42 -111q44 -42 111 -42q71 1 115 46t45 119q0 71 -42 116t-107 45q-27 0 -51 -10q-25 -9 -40 -24l-1 1l2 52v82h216v60h-280v-267h62q9 21 31 34t50 13q43 -1 67 -30q25 -28 25 -75q-1 -46 -25 -74q-25 -27 -67 -28q-40 1 -63 27q-24 25 -24 66h-66z" />
    <glyph glyph-name="glyph522" horiz-adv-x="406" 
d="M43 233q0 -112 41 -175q40 -63 122 -64q73 1 117 45q43 44 44 117q-1 70 -41 114q-39 43 -104 44q-35 0 -65 -17q-30 -18 -45 -48h-3q0 178 104 178q33 0 55 -17q21 -17 25 -48h65q-7 58 -44 91q-38 32 -99 33q-87 -1 -129 -69q-43 -68 -43 -184v0zM119 156q0 42 24 71
q23 29 66 30q42 -1 67 -27q24 -27 24 -73q-1 -48 -25 -76q-24 -27 -66 -28q-42 1 -66 30t-24 73v0z" />
    <glyph glyph-name="glyph523" horiz-adv-x="368" 
d="M37 480v-134h49v74h176q-140 -178 -178 -420h64q21 125 65 225q22 50 54 103q32 52 73 105v47h-303z" />
    <glyph glyph-name="glyph524" horiz-adv-x="396" 
d="M39 125q1 -60 44 -96q43 -35 115 -36q72 1 115 36q42 35 43 95q0 78 -69 113v5q33 16 51 46t18 67q-1 59 -43 94q-42 36 -115 37q-72 -1 -115 -37q-43 -35 -44 -94q0 -37 18 -67t52 -46v-5q-34 -16 -52 -46t-18 -66v0zM106 348q1 37 25 59q25 21 67 22q40 0 65 -21
q24 -21 25 -60q0 -37 -24 -58q-24 -22 -66 -23q-42 0 -67 21q-24 21 -25 60v0zM106 131q1 37 25 59q25 21 67 22q40 0 65 -21q24 -21 25 -60q0 -36 -24 -58q-24 -21 -66 -22q-42 0 -67 21q-24 21 -25 59v0z" />
    <glyph glyph-name="glyph525" horiz-adv-x="406" 
d="M363 247q0 112 -41 175t-124 64q-70 0 -115 -46q-44 -45 -44 -114q0 -35 10 -64t30 -52q40 -46 103 -46q37 0 66 18t45 50h4q0 -179 -104 -179q-33 0 -55 16q-22 17 -26 49h-65q6 -58 45 -90q38 -33 99 -34q86 2 129 70q43 67 43 183v0zM287 324q0 -42 -24 -71
q-24 -28 -67 -29q-42 0 -66 26t-24 74q0 46 24 74t66 29q42 -1 67 -30q24 -30 24 -73v0z" />
    <glyph glyph-name="glyph526" horiz-adv-x="420" 
d="M210 251q75 0 120 61t46 181q-1 118 -45 180t-121 62q-76 0 -120 -61q-45 -61 -46 -181q1 -117 44 -179q44 -62 122 -63v0zM209 309q-98 0 -98 186q0 181 99 181q98 0 98 -183q0 -184 -99 -184v0z" />
    <glyph glyph-name="glyph527" horiz-adv-x="310" 
d="M155 596v-340h64v473h-61v-4q0 -77 -81 -77h-45v-52h123z" />
    <glyph glyph-name="glyph528" horiz-adv-x="378" 
d="M121 311q13 43 58 80t89 72q31 26 50 61t20 76q-1 61 -39 98q-39 36 -106 37q-70 -1 -111 -40t-43 -104l64 -5q0 41 23 66t63 26q39 0 60 -21q22 -22 22 -58q-1 -36 -23 -66q-22 -31 -56 -55q-50 -33 -95 -81t-48 -125v-17h289v60h-137z" />
    <glyph glyph-name="glyph529" horiz-adv-x="386" 
d="M192 248q68 0 111 38q44 39 44 100q0 84 -77 113v5q69 32 69 103q-1 60 -42 94q-41 33 -106 34q-72 -1 -111 -43q-39 -41 -37 -106h66q0 43 22 67q22 25 62 25q34 0 55 -18q21 -19 22 -54q0 -34 -23 -55t-65 -22h-30v-60h33q43 0 69 -22q25 -21 26 -61q-1 -36 -25 -58
t-63 -23q-39 0 -62 24t-23 68h-66q-1 -68 40 -108t111 -41v0z" />
    <glyph glyph-name="glyph530" horiz-adv-x="399" 
d="M304 729h-107l-175 -324v-55h217v-94h65v94h56v58h-56v321zM239 676v-268h-146z" />
    <glyph glyph-name="glyph531" horiz-adv-x="395" 
d="M43 399q0 -69 42 -110q42 -40 111 -41q71 0 115 45q45 46 45 118q0 69 -42 113q-42 45 -107 45q-61 0 -91 -33l-1 1l2 51v81h216v60h-280v-264h62q9 22 31 35t50 13q43 -1 67 -30q25 -28 25 -75q-1 -46 -25 -73q-25 -27 -67 -28q-40 1 -64 27q-23 25 -23 65h-66z" />
    <glyph glyph-name="glyph532" horiz-adv-x="406" 
d="M43 485q0 -111 41 -173q40 -62 122 -63q73 1 117 45q43 44 44 115q0 34 -10 62q-11 28 -31 50q-40 45 -104 45q-35 0 -65 -17q-30 -18 -45 -48h-3q0 175 104 175q33 0 55 -16q21 -17 25 -47h65q-7 57 -45 89t-98 33q-87 -1 -129 -68q-43 -67 -43 -182v0zM119 409
q0 42 24 71q23 29 66 30q42 -1 67 -27q24 -27 24 -73q-1 -46 -25 -74t-66 -29q-42 1 -66 30q-24 28 -24 72v0z" />
    <glyph glyph-name="glyph533" horiz-adv-x="368" 
d="M37 729v-120h49v60h175q-136 -178 -177 -413h64q10 60 26 115t38 105q44 101 128 206v47h-303z" />
    <glyph glyph-name="glyph534" horiz-adv-x="396" 
d="M39 378q1 -58 44 -93t115 -36q71 1 114 36t44 93q0 78 -69 112v5q69 35 69 111q-1 58 -43 93t-115 36q-73 -1 -115 -36q-43 -35 -44 -93q0 -36 18 -65q18 -30 52 -46v-5q-70 -33 -70 -112v0zM106 600q0 36 25 57q24 21 67 22q40 0 65 -21q24 -21 25 -58q0 -36 -24 -58
q-24 -21 -66 -22q-42 0 -67 22q-24 21 -25 58v0zM106 386q1 36 25 58q25 21 67 22q40 0 65 -22q24 -21 25 -58q0 -36 -24 -58q-24 -21 -66 -22q-42 0 -67 21q-24 21 -25 59v0z" />
    <glyph glyph-name="glyph535" horiz-adv-x="406" 
d="M363 499q0 110 -41 172q-41 63 -124 64q-70 0 -115 -45q-22 -22 -33 -51t-11 -64q0 -34 10 -62t30 -50q40 -44 103 -44q37 0 66 17q29 16 45 47h4q0 -176 -104 -176q-31 0 -53 16q-22 17 -28 49h-65q6 -57 45 -90q39 -32 99 -33q86 1 129 68t43 182v0zM287 575
q0 -41 -24 -70q-24 -30 -67 -31q-42 0 -66 27q-24 26 -24 74q0 45 24 73q24 27 66 28q42 -1 67 -30q24 -29 24 -71v0z" />
    <glyph glyph-name="glyph536" horiz-adv-x="550" 
d="M116 529q0 70 41 111q40 40 115 41q68 0 106 -33q39 -34 40 -94q0 -69 -76 -144l-31 -29q-14 -13 -24 -23q-9 -9 -13 -14l-27 -36q-18 -26 -24 -53q-7 -26 -7 -57v-21h64v21q2 33 7 54q6 21 23 42l21 24l11 11l17 17l30 30q48 47 71 87q22 40 22 90q-1 85 -57 135
q-55 49 -150 50q-100 0 -160 -58q-60 -57 -60 -151h61zM299 0v96h-99v-96h99z" />
    <glyph glyph-name="glyph537" horiz-adv-x="550" 
d="M238 616v-96h99v96h-99zM421 87q0 -70 -41 -110q-40 -41 -115 -42q-68 0 -106 34q-39 33 -40 93q0 69 76 144l30 28q15 14 25 24q9 9 13 14l26 36q18 26 25 53t7 57v21h-64v-21q-2 -34 -8 -54q-5 -21 -23 -43q-13 -16 -20 -24l-28 -28l-30 -29q-48 -47 -71 -87
q-22 -40 -22 -90q1 -85 57 -134q55 -50 153 -51q97 0 157 58q60 57 60 151h-61z" />
    <glyph glyph-name="glyph538" horiz-adv-x="584" 
d="M568 532h-99l50 216h-62l-50 -216h-164l50 216h-62l-50 -216h-112l-15 -52h115l-47 -204h-92l-15 -52h96l-52 -224h62l52 224h163l-52 -224h62l52 224h117l14 52h-119l47 204h96zM184 276l47 204h164l-47 -204h-164z" />
    <glyph glyph-name="glyph539" horiz-adv-x="300" 
d="M69 361q0 -118 43 -220q44 -102 117 -161h55q-157 132 -157 384q0 256 157 385h-55q-73 -60 -117 -165q-22 -52 -32 -108q-11 -56 -11 -115v0z" />
    <glyph glyph-name="glyph540" horiz-adv-x="300" 
d="M232 361q0 119 -44 224t-116 164h-55q157 -129 157 -385q0 -250 -157 -384h55q73 60 116 162q44 102 44 219v0z" />
    <glyph glyph-name="glyph541" horiz-adv-x="341" 
d="M59 310q28 0 46 -17q17 -17 18 -55v-235q0 -64 61 -64h109v51h-113v246q-1 45 -21 72t-50 31v3q30 3 50 29q20 27 21 73v234h113v51h-109q-61 0 -61 -64v-223q0 -73 -64 -73v-59z" />
    <glyph glyph-name="glyph542" horiz-adv-x="341" 
d="M283 369q-65 0 -65 73v223q0 64 -61 64h-108v-51h112v-234q1 -46 21 -73q20 -26 51 -29v-3q-31 -4 -51 -31t-21 -72v-246h-112v-51h108q61 0 61 64v235q1 38 19 55t46 17v59z" />
    <glyph glyph-name="glyph543" horiz-adv-x="339" 
d="M290 -61v51h-114v687h114v50h-170v-788h170z" />
    <glyph glyph-name="glyph544" horiz-adv-x="339" 
d="M220 -61v788h-171v-50h115v-687h-115v-51h171z" />
    <glyph glyph-name="glyph545" horiz-adv-x="449" 
d="M389 345v48h-330v-48h330z" />
    <glyph glyph-name="glyph546" horiz-adv-x="625" 
d="M565 345v48h-506v-48h506z" />
    <glyph glyph-name="glyph547" horiz-adv-x="821" 
d="M761 345v48h-702v-48h702z" />
    <glyph glyph-name="glyph548" horiz-adv-x="847" 
d="M721 233l-169 -233h59l193 258l-193 259h-59l169 -234h-624v-50h624z" />
    <glyph glyph-name="glyph549" horiz-adv-x="543" 
d="M490 335v52l-379 206v-76l145 -74l164 -78v-6l-163 -88l-146 -84v-76z" />
    <glyph glyph-name="glyph550" horiz-adv-x="543" 
d="M432 187l-146 84l-163 88v6l163 78l146 74v76l-379 -206v-52l379 -224v76z" />
    <glyph glyph-name="glyph551" horiz-adv-x="628" 
d="M80 461q22 -22 50 -33t63 -11t63 11t50 33q43 44 43 116t-43 116q-22 22 -50 33t-63 11t-63 -11t-50 -33q-42 -44 -42 -116t42 -116v0zM98 577q1 49 27 78q25 29 68 30q43 -1 69 -30q26 -30 27 -78q-1 -50 -27 -79q-26 -30 -69 -31q-43 1 -69 31q-25 29 -26 79v0z
M590 452v56l-548 -219v-54zM268 151q1 -73 43 -116q42 -44 113 -45q71 1 113 45q42 43 43 116q-1 73 -43 116q-42 42 -113 43q-71 -1 -113 -44t-43 -115v0zM328 151q1 49 27 80q26 30 69 31q43 -1 69 -31q26 -31 27 -80q-1 -50 -27 -79q-26 -30 -69 -31q-43 1 -69 31
q-26 29 -27 79v0z" />
    <glyph glyph-name="glyph552" horiz-adv-x="686" 
d="M314 479q44 42 44 109t-44 109q-43 42 -112 42t-113 -42q-43 -42 -43 -109t43 -109q44 -42 113 -42t112 42v0zM106 588q1 46 27 73q26 26 69 27q43 -1 69 -27q26 -27 27 -73q-1 -45 -27 -72t-69 -28q-43 1 -69 28t-27 72v0zM72 331v-55l548 217v55zM494 293
q-87 0 -130 -62q-43 61 -129 61q-68 -1 -109 -42q-42 -40 -43 -108q1 -69 43 -110q41 -41 109 -42q86 0 129 62q43 -62 130 -62q68 1 109 42q42 41 43 110q-1 68 -43 109q-41 41 -109 42v0zM169 69q-26 28 -26 73t26 73q27 28 70 28q44 0 69 -28q26 -28 26 -73t-26 -73
q-25 -28 -69 -28q-43 0 -70 28v0zM420 69q-26 28 -26 73t26 73q27 28 70 28q44 0 69 -28q27 -28 27 -73t-27 -73q-25 -28 -69 -28q-43 0 -70 28v0z" />
    <glyph glyph-name="glyph553" horiz-adv-x="847" 
d="M750 283h-624l169 234h-59l-193 -259l193 -258h59l-169 233h624v50z" />
    <glyph glyph-name="glyph554" horiz-adv-x="1006" 
d="M946 377q-2 80 -34 145t-94 115q-123 101 -315 101q-198 0 -322 -104q-123 -104 -123 -269t124 -270q125 -105 321 -105q190 0 313 100q124 101 130 260h2v27h-2zM396 571q18 67 45 103q28 37 62 37q33 0 60 -37q27 -36 45 -103h-212zM573 703q112 -27 173 -132h-113
q-21 89 -60 132v0zM259 571q61 105 173 132q-40 -43 -61 -132h-112zM774 571q-39 74 -99 114q110 -36 174 -114h-75zM329 685q-60 -40 -99 -114h-75q65 78 174 114v0zM82 377q3 92 51 165h83q-31 -70 -34 -165h-100zM365 542q-14 -69 -16 -165h-141q3 95 36 165h121z
M373 377q2 96 16 165h226q15 -76 16 -165h-258zM655 377q-1 93 -15 165h121q32 -72 35 -165h-141zM821 377q-1 89 -33 165h82q48 -73 51 -165h-100zM182 350q3 -87 34 -162h-82q-48 72 -52 162h100zM349 350q2 -90 15 -162h-120q-33 71 -36 162h141zM631 350
q-1 -85 -16 -162h-226q-15 77 -16 162h258zM640 188q14 72 15 162h141q-3 -91 -36 -162h-120zM788 188q30 72 33 162h100q-4 -88 -51 -162h-82zM228 161q38 -72 98 -115q-53 18 -96 47q-44 28 -76 68h74zM370 161q21 -90 61 -134q-56 14 -99 47q-43 34 -74 87h112zM608 161
q-18 -67 -45 -105q-27 -37 -60 -38q-34 1 -62 38q-27 38 -45 105h212zM746 161q-60 -107 -172 -134q39 45 60 134h112zM678 45q30 22 54 51q24 28 43 65h75q-32 -40 -75 -68q-44 -29 -97 -48v0z" />
    <glyph glyph-name="glyph555" horiz-adv-x="908" 
d="M86 362q0 -168 104 -273q104 -104 264 -104q161 0 264 104q104 105 104 273q0 167 -104 270q-103 105 -264 105q-160 0 -264 -105q-104 -103 -104 -270v0zM131 362q0 149 92 242q92 94 231 94q140 0 231 -94q92 -93 92 -242q0 -150 -92 -244q-91 -94 -231 -94
q-139 0 -231 94t-92 244v0zM294 363q0 -37 11 -66q12 -30 35 -53q47 -45 114 -45q68 0 114 45q23 23 35 53q11 29 11 66q0 70 -47 115q-23 23 -51 35q-28 11 -62 11q-67 0 -114 -46q-46 -45 -46 -115v0zM307 372l138 -6l-89 81l15 16l80 -91l-6 141h19l-6 -141l80 91l15 -16
l-89 -81l138 6v-20l-138 6l89 -81l-15 -16l-80 91l6 -142h-19l6 142l-80 -91l-15 16l89 81l-138 -6v20z" />
  </font>
</defs>
</svg>
