<?xml version="1.0" standalone="no"?>
<!DOCTYPE svg PUBLIC "-//W3C//DTD SVG 1.1//EN" "http://www.w3.org/Graphics/SVG/1.1/DTD/svg11.dtd" >
<svg xmlns="http://www.w3.org/2000/svg" xmlns:xlink="http://www.w3.org/1999/xlink" version="1.1">
<metadata>
Created by FontForge 20170731 at Wed Oct 28 02:08:04 2020
 By Aleksey,,,
Copyright (c) 2017 by Deni Anggara. All rights reserved.
</metadata>
<defs>
<font id="AllianceNo.1-Bold" horiz-adv-x="1454" >
  <font-face 
    font-family="Alliance No1 Bold"
    font-weight="400"
    font-stretch="normal"
    units-per-em="2048"
    panose-1="0 0 5 0 0 0 0 0 0 0"
    ascent="1638"
    descent="-410"
    x-height="1098"
    cap-height="1493"
    bbox="-184 -475 2007 2048"
    underline-thickness="102"
    underline-position="-306"
    unicode-range="U+000D-FB03"
  />
<missing-glyph horiz-adv-x="748" 
d="M68 0v1365h544v-1365h-544zM136 68h408v1229h-408v-1229z" />
    <glyph glyph-name="uniFB01" unicode="fi" horiz-adv-x="1359" 
d="M18 846v252h205v76q0 182 107.5 274t294.5 92q92 0 153 -18v-246q-45 10 -90 10q-152 0 -151 -135v-53h698v-1098h-313v846h-385v-846h-314v846h-205zM922 1212v304h313v-304h-313z" />
    <glyph glyph-name="uniFB02" unicode="fl" horiz-adv-x="1370" 
d="M18 846v252h205v76q0 182 107.5 274t294.5 92q92 0 153 -18v-246q-45 10 -90 10q-154 0 -153 -135v-53h397v426h311v-1524h-311v846h-397v-846h-312v846h-205z" />
    <glyph glyph-name=".notdef" horiz-adv-x="748" 
d="M68 0v1365h544v-1365h-544zM136 68h408v1229h-408v-1229z" />
    <glyph glyph-name="glyph1" horiz-adv-x="0" 
 />
    <glyph glyph-name="glyph2" horiz-adv-x="682" 
 />
    <glyph glyph-name="uni000D" unicode="&#xd;" horiz-adv-x="681" 
 />
    <glyph glyph-name="space" unicode=" " horiz-adv-x="438" 
 />
    <glyph glyph-name="exclam" unicode="!" horiz-adv-x="618" 
d="M141 0v299h336v-299h-336zM152 1055v438h317v-438l-78 -584h-160z" />
    <glyph glyph-name="quotedbl" unicode="&#x22;" horiz-adv-x="1032" 
d="M156 1167v326h280v-326l-74 -379h-135zM596 1167v326h281v-326l-72 -379h-135z" />
    <glyph glyph-name="numbersign" unicode="#" horiz-adv-x="1449" 
d="M106 432v148h240v385h-240v145h240v426h158v-426h444v426h156v-426h237v-145h-237v-385h237v-148h-237v-432h-156v432h-444v-432h-158v432h-240zM504 580h444v385h-444v-385z" />
    <glyph glyph-name="dollar" unicode="$" horiz-adv-x="1157" 
d="M70 526h313q0 -176 195 -176q86 0 131 33t45 90q0 59 -35 86t-117 45l-164 39q-348 82 -348 381q0 156 103.5 262.5t277.5 130.5v148h199v-148q168 -27 265 -128t99 -253h-313q0 70 -43 108t-117 38q-70 0 -105.5 -31t-35.5 -84q0 -100 158 -135l155 -35
q354 -78 354 -383q0 -170 -113.5 -278.5t-303.5 -131.5v-143h-199v148q-186 27 -293.5 138t-107.5 279z" />
    <glyph glyph-name="percent" unicode="%" horiz-adv-x="1841" 
d="M106 1139q0 164 102.5 268t266.5 104q166 0 269.5 -104t103.5 -270q0 -164 -103.5 -269.5t-269.5 -105.5q-162 0 -265.5 105.5t-103.5 271.5zM309 1141q0 -86 46 -140.5t120 -54.5q76 0 122 54.5t46 140.5q0 84 -46 135t-122 51q-74 0 -120 -52t-46 -134zM373 0l948 1493
h160l-951 -1493h-157zM989 356q0 162 103.5 267.5t267.5 105.5q166 0 267.5 -105.5t101.5 -269.5q0 -166 -102.5 -270t-266.5 -104q-162 0 -266.5 105t-104.5 271zM1192 358q0 -86 47 -140t121 -54q76 0 123 54t47 140q0 84 -47 136.5t-123 52.5q-74 0 -121 -53.5
t-47 -135.5z" />
    <glyph glyph-name="ampersand" unicode="&#x26;" horiz-adv-x="1593" 
d="M121 373q0 246 297 422v14q-109 100 -152 177t-43 167q0 162 118 260t318 98q197 0 311.5 -95t114.5 -251q0 -106 -62 -196t-202 -185v-16l242 -264q68 133 104 295l265 -70q-55 -229 -189 -422l283 -307h-379l-105 115q-160 -135 -432 -135q-219 0 -354 103t-135 290z
M438 420q0 -88 58.5 -137.5t158.5 -49.5q139 0 211 76l-284 312q-144 -84 -144 -201zM518 1159q0 -94 121 -209h14q137 117 138 211q0 55 -38 88t-98 33q-61 0 -99 -34t-38 -89z" />
    <glyph glyph-name="quotesingle" unicode="'" horiz-adv-x="589" 
d="M156 1167v326h280v-326l-74 -379h-135z" />
    <glyph glyph-name="parenleft" unicode="(" horiz-adv-x="774" 
d="M121 655.5q0 282.5 126 537.5t331 390h182q-211 -135 -343 -390t-132 -538q0 -279 132 -534.5t343 -390.5h-182q-205 133 -331 388t-126 537.5z" />
    <glyph glyph-name="parenright" unicode=")" horiz-adv-x="749" 
d="M14 -270q211 135 342 390t131 535q0 283 -131 538t-342 390h183q207 -135 332.5 -390t125.5 -538q0 -285 -126 -538.5t-332 -386.5h-183z" />
    <glyph glyph-name="asterisk" unicode="*" horiz-adv-x="729" 
d="M70 1081l221 99l-221 100l65 113l193 -144l-27 244h129l-27 -246l191 146l68 -113l-222 -100l222 -99l-68 -112l-191 147l27 -246h-129l27 246l-193 -147z" />
    <glyph glyph-name="plus" unicode="+" horiz-adv-x="1253" 
d="M117 555v244h383v397h252v-397h385v-244h-385v-399h-252v399h-383z" />
    <glyph glyph-name="comma" unicode="," horiz-adv-x="473" 
d="M74 -180q182 0 182 157v23h-152v315h304v-325q0 -133 -90 -208t-244 -75v113z" />
    <glyph glyph-name="hyphen" unicode="-" horiz-adv-x="970" 
d="M115 528v172h739v-172h-739z" />
    <glyph glyph-name="period" unicode="." horiz-adv-x="561" 
d="M129 0v336h303v-336h-303z" />
    <glyph glyph-name="slash" unicode="/" horiz-adv-x="751" 
d="M10 0l561 1493h170l-561 -1493h-170z" />
    <glyph glyph-name="zero" unicode="0" horiz-adv-x="1296" 
d="M90 745q0 360 153.5 555t407.5 195q256 0 404.5 -198.5t148.5 -555.5q0 -362 -151.5 -557.5t-405.5 -195.5q-258 0 -407.5 200.5t-149.5 556.5zM416 756q0 -268 59 -382t170 -114q129 0 181.5 122t52.5 349q0 272 -59.5 383t-170.5 111q-129 0 -181 -121t-52 -348z" />
    <glyph glyph-name="one" unicode="1" horiz-adv-x="968" 
d="M63 977v237h60q145 0 239.5 72t108.5 191h291v-1477h-311v977h-388z" />
    <glyph glyph-name="two" unicode="2" horiz-adv-x="1193" 
d="M78 0v49q0 86 14 159t52 136.5t70 107.5t100.5 100t109.5 86t129 91q119 82 176 147.5t57 161.5q0 88 -52 137.5t-140 49.5q-98 0 -150.5 -59.5t-44.5 -168.5h-311q-6 225 137.5 361.5t384.5 136.5q227 0 364.5 -125t137.5 -334q0 -156 -81 -269.5t-230 -219.5
q-29 -20 -97.5 -66.5t-105.5 -74t-84 -69.5t-74 -81q147 18 303 18h381v-274h-1046z" />
    <glyph glyph-name="three" unicode="3" horiz-adv-x="1255" 
d="M82 457h313q-2 -98 59.5 -153.5t164 -55.5t163 54t60.5 147q0 86 -57.5 136t-151.5 50h-166v237h143q100 0 154.5 50.5t54.5 132.5t-55 127t-143 45q-96 0 -153.5 -53.5t-59.5 -147.5h-316q4 213 152.5 341t388.5 128q225 0 366.5 -108.5t141.5 -292.5q0 -111 -54.5 -197
t-150.5 -125v-14q111 -35 169 -126t58 -210q0 -199 -152.5 -320.5t-394.5 -121.5q-248 0 -389 129t-145 348z" />
    <glyph glyph-name="four" unicode="4" horiz-adv-x="1282" 
d="M66 289v239l557 949h434v-932h164v-256h-164v-289h-312v289h-679zM385 545h360v616z" />
    <glyph glyph-name="five" unicode="5" horiz-adv-x="1253" 
d="M84 463h315q0 -94 60.5 -152.5t161.5 -58.5q102 0 165.5 65.5t63.5 169.5q0 106 -64.5 175t-171.5 69q-76 0 -131 -34.5t-75 -92.5h-297l39 873h917v-273h-641l-14 -282l12 -4q92 75 258 75q219 0 352 -139t133 -358q0 -231 -149.5 -373.5t-399.5 -142.5q-244 0 -390 133
t-144 350z" />
    <glyph glyph-name="six" unicode="6" horiz-adv-x="1277" 
d="M94 735q0 371 149.5 565.5t430.5 194.5q211 0 341 -104.5t154 -282.5h-311q-14 63 -67.5 94t-124.5 31q-133 0 -196.5 -105.5t-53.5 -287.5h12q88 152 307 151q205 0 334 -135t129 -356q0 -233 -147.5 -375.5t-393.5 -142.5q-279 0 -421 196.5t-142 556.5zM446 492
q0 -111 61 -175.5t159 -64.5q100 0 158.5 66.5t58.5 177.5q0 109 -59.5 175t-157.5 66q-102 0 -161 -69.5t-59 -175.5z" />
    <glyph glyph-name="seven" unicode="7" horiz-adv-x="1148" 
d="M39 963v514h1061v-226q-201 -272 -353.5 -609t-203.5 -642h-336q43 291 185.5 612.5t336.5 591.5h-438v-241h-252z" />
    <glyph glyph-name="eight" unicode="8" horiz-adv-x="1247" 
d="M84 391q0 240 209 340v17q-100 45 -154.5 134t-54.5 203q0 182 149.5 296t391 114t390 -113.5t148.5 -296.5q0 -113 -55 -202.5t-154 -134.5v-17q100 -47 154.5 -136t54.5 -206q0 -182 -149.5 -295.5t-391 -113.5t-390 113.5t-148.5 297.5zM406 432q0 -88 59 -135
t158 -47q104 0 161.5 49t57.5 133t-59.5 132t-159.5 48q-102 0 -159.5 -49t-57.5 -131zM406 1042q0 -84 59 -131t158 -47q102 0 160.5 49.5t58.5 128.5q0 86 -59.5 134.5t-159.5 48.5q-102 0 -159.5 -49.5t-57.5 -133.5z" />
    <glyph glyph-name="nine" unicode="9" horiz-adv-x="1267" 
d="M74 977q0 233 146.5 375.5t387.5 142.5q283 0 426.5 -202.5t143.5 -567.5q0 -743 -584 -743q-203 0 -335 105.5t-155 281.5h312q29 -125 194 -125q133 0 194.5 103.5t51.5 287.5h-14q-88 -150 -303 -150q-209 0 -337 135.5t-128 356.5zM387 981q0 -111 59.5 -176.5
t160 -65.5t159.5 70t59 176q0 109 -60 173.5t-159 64.5q-100 0 -159.5 -65.5t-59.5 -176.5z" />
    <glyph glyph-name="colon" unicode=":" horiz-adv-x="577" 
d="M137 0v307h303v-307h-303zM137 788v310h303v-310h-303z" />
    <glyph glyph-name="semicolon" unicode=";" horiz-adv-x="528" 
d="M76 -178q102 0 141 38t39 111v29h-152v307h304v-303q0 -289 -332 -289v107zM104 788v310h304v-310h-304z" />
    <glyph glyph-name="less" unicode="&#x3c;" horiz-adv-x="1073" 
d="M123 473v234l809 440v-295l-270 -129l-283 -125v-20l293 -123l260 -123v-301z" />
    <glyph glyph-name="equal" unicode="=" horiz-adv-x="1105" 
d="M152 260v254h802v-254h-802zM152 700v256h802v-256h-802z" />
    <glyph glyph-name="greater" unicode="&#x3e;" horiz-adv-x="1073" 
d="M143 31v301l258 123l295 123v20l-284 125l-269 129v295l809 -440v-234z" />
    <glyph glyph-name="question" unicode="?" horiz-adv-x="1214" 
d="M61 1073q14 207 160 322.5t381 115.5q252 0 393.5 -128t141.5 -343q0 -176 -118 -299t-310 -147v-160h-297v406q49 -16 137 -17q129 0 200.5 58.5t71.5 158.5q0 96 -61.5 149.5t-165.5 53.5q-96 0 -156.5 -45t-70.5 -125h-306zM399 0v303h320v-303h-320z" />
    <glyph glyph-name="at" unicode="@" horiz-adv-x="1875" 
d="M111 645q0 387 236.5 626.5t617.5 239.5q356 0 580 -216t224 -556q0 -240 -111.5 -385t-293.5 -145q-84 0 -148.5 42t-85.5 111h-14q-68 -145 -237 -145q-147 0 -233.5 110.5t-86.5 293.5q0 190 96.5 313t253.5 123q143 0 213 -107h13l24 82h127l-37 -500
q-10 -154 109 -153q109 0 167 96t58 262q0 283 -171 443.5t-447 160.5q-309 0 -483.5 -191.5t-174.5 -494.5q0 -315 188.5 -503.5t487.5 -188.5q262 0 487 109v-176q-207 -102 -493 -103q-383 0 -624.5 232.5t-241.5 619.5zM741 621q0 -117 43 -175.5t113 -58.5
q84 0 139.5 72.5t55.5 204.5q0 115 -46.5 174t-115.5 59q-82 0 -135.5 -72.5t-53.5 -203.5z" />
    <glyph glyph-name="A" unicode="A" 
d="M-2 0l526 1493h385l547 -1493h-362l-86 260h-580l-88 -260h-342zM514 514h410l-58 170l-137 463h-12l-146 -463z" />
    <glyph glyph-name="B" unicode="B" horiz-adv-x="1468" 
d="M158 0v1493h755q201 0 322 -104.5t121 -276.5q0 -117 -56.5 -203t-156.5 -127v-18q125 -35 188.5 -128t63.5 -224q0 -186 -131 -299t-351 -113h-755zM479 248h346q96 0 160 48t64 150.5t-64.5 148.5t-159.5 46h-346v-393zM479 885h338q90 0 144.5 48t54.5 136
q0 84 -54.5 130t-144.5 46h-338v-360z" />
    <glyph glyph-name="C" unicode="C" horiz-adv-x="1544" 
d="M70 743q0 346 200.5 557t530.5 211q276 0 460.5 -145t213.5 -385h-342q-31 113 -121 177.5t-213 64.5q-178 0 -278.5 -128t-100.5 -354q0 -227 99 -350t274 -123q133 0 223 67.5t117 180.5h342q-27 -242 -214.5 -389t-459.5 -147q-334 0 -532.5 209.5t-198.5 553.5z" />
    <glyph glyph-name="D" unicode="D" horiz-adv-x="1540" 
d="M158 0v1493h626q328 0 507 -203t179 -545q0 -340 -179 -542.5t-507 -202.5h-626zM489 285h244q391 0 391 467q0 456 -389 456h-2h-244v-923z" />
    <glyph glyph-name="E" unicode="E" horiz-adv-x="1312" 
d="M158 0v1493h1056v-285h-725v-301h621v-268h-621v-354h725v-285h-1056z" />
    <glyph glyph-name="F" unicode="F" horiz-adv-x="1265" 
d="M158 0v1493h1056v-285h-725v-409h644v-271h-644v-528h-331z" />
    <glyph glyph-name="G" unicode="G" horiz-adv-x="1644" 
d="M70 731q0 352 200.5 566t534.5 214q262 0 443.5 -133t207.5 -350h-342q-27 90 -110.5 142.5t-200.5 52.5q-186 0 -284.5 -131t-98.5 -359q0 -236 101.5 -354.5t275.5 -118.5q150 0 246 83t112 216h-438v260h796v-819h-268l-18 199h-15q-59 -100 -188 -159.5t-289 -59.5
q-299 0 -482 205.5t-183 545.5z" />
    <glyph glyph-name="H" unicode="H" horiz-adv-x="1652" 
d="M158 0v1493h331v-602h674v602h332v-1493h-332v629h-674v-629h-331z" />
    <glyph glyph-name="I" unicode="I" horiz-adv-x="647" 
d="M158 0v1493h331v-1493h-331z" />
    <glyph glyph-name="J" unicode="J" horiz-adv-x="856" 
d="M31 0v268q55 -10 133 -10q113 0 164 57.5t51 178.5v999h330v-1038q0 -473 -480 -473q-119 0 -198 18z" />
    <glyph glyph-name="K" unicode="K" horiz-adv-x="1482" 
d="M158 0v1493h331v-694l562 694h405l-541 -647l562 -846h-400l-387 578l-201 -242v-336h-331z" />
    <glyph glyph-name="L" unicode="L" horiz-adv-x="1171" 
d="M158 0v1493h331v-1198h607v-295h-938z" />
    <glyph glyph-name="M" unicode="M" horiz-adv-x="1878" 
d="M158 0v1493h411l365 -834h14l361 834h411v-1493h-321v629l20 409h-14l-463 -1015l-465 1015h-16l20 -413v-625h-323z" />
    <glyph glyph-name="N" unicode="N" horiz-adv-x="1622" 
d="M158 0v1493h383l602 -1030h12l-18 428v602h327v-1493h-383l-598 1022h-14l20 -412v-610h-331z" />
    <glyph glyph-name="O" unicode="O" horiz-adv-x="1591" 
d="M70 748q0 356 196.5 559.5t528.5 203.5q342 0 534.5 -208.5t192.5 -554.5q0 -360 -198 -564t-529 -204q-340 0 -532.5 209t-192.5 559zM420 748q0 -225 101.5 -351.5t273.5 -126.5q180 0 279.5 130t99.5 348q0 219 -102.5 347t-276.5 128q-176 0 -275.5 -130t-99.5 -345z
" />
    <glyph glyph-name="P" unicode="P" horiz-adv-x="1409" 
d="M158 0v1493h661q248 0 396.5 -139.5t148.5 -368.5t-149.5 -369.5t-395.5 -140.5h-330v-475h-331zM489 758h285q240 0 240 223q0 217 -240 217h-285v-440z" />
    <glyph glyph-name="Q" unicode="Q" horiz-adv-x="1591" 
d="M70 748q0 356 196.5 559.5t528.5 203.5q342 0 534.5 -208.5t192.5 -554.5q0 -285 -126 -473.5t-347 -258.5q119 -94 317 -94q68 0 125 10v-288q-49 -4 -98 -4q-240 0 -394.5 91t-218.5 249q-334 4 -522 212.5t-188 555.5zM420 748q0 -225 101.5 -351.5t273.5 -126.5
q180 0 279.5 130t99.5 348q0 219 -102.5 347t-276.5 128q-176 0 -275.5 -130t-99.5 -345z" />
    <glyph glyph-name="R" unicode="R" horiz-adv-x="1497" 
d="M158 0v1493h739q229 0 352 -119t123 -325q0 -125 -61.5 -220.5t-165.5 -148.5v-16q205 -55 205 -295v-191q0 -121 24 -178h-340q-22 43 -22 171v11v137q0 100 -45 148.5t-160 48.5h-318v-516h-331zM489 799h297q111 0 172.5 56t61.5 153q0 200 -221 200h-2h-308v-409z
" />
    <glyph glyph-name="S" unicode="S" horiz-adv-x="1380" 
d="M61 469h342q4 -109 80 -168t213 -59q121 0 187.5 49t66.5 131q0 37 -14 64.5t-31.5 43t-49.5 28.5t-47 16.5t-44 9.5l-236 49q-63 12 -100 22.5t-109.5 42t-115.5 72.5t-78 114.5t-35 166.5q0 209 159 334.5t421 125.5t419.5 -120.5t161.5 -321.5h-342q-8 90 -74.5 137
t-177.5 47q-106 0 -162.5 -41t-56.5 -112q0 -115 195 -156q10 -2 14 -4l242 -47q411 -82 411 -430q0 -229 -165.5 -356t-446.5 -127q-289 0 -457 134t-170 355z" />
    <glyph glyph-name="T" unicode="T" horiz-adv-x="1175" 
d="M12 1204v289h1149v-289h-411v-1204h-330v1204h-408z" />
    <glyph glyph-name="U" unicode="U" horiz-adv-x="1581" 
d="M145 571v922h330v-901q0 -150 83 -234t233 -84q147 0 231 82t84 236v901h330v-922q0 -276 -175.5 -433.5t-472.5 -157.5q-317 0 -480 159.5t-163 431.5z" />
    <glyph glyph-name="V" unicode="V" horiz-adv-x="1476" 
d="M6 1493h369l200 -627l156 -553h14l160 551l199 629h366l-524 -1493h-416z" />
    <glyph glyph-name="W" unicode="W" horiz-adv-x="2021" 
d="M14 1493h363l131 -754l55 -379h17l229 1133h410l233 -1135h14l52 377l127 758h362l-303 -1493h-453l-231 1059h-14l-234 -1059h-453z" />
    <glyph glyph-name="X" unicode="X" horiz-adv-x="1431" 
d="M14 1495h408l153 -285l138 -270h14l135 272l148 283h401l-432 -750l444 -745h-409l-129 231l-158 304h-12l-160 -308l-123 -227h-401l430 748z" />
    <glyph glyph-name="Y" unicode="Y" horiz-adv-x="1447" 
d="M2 1493h393l160 -309l160 -318h16l324 627h391l-557 -922v-571h-332v571z" />
    <glyph glyph-name="Z" unicode="Z" horiz-adv-x="1200" 
d="M39 0v270l702 936h-702v287h1116v-268l-704 -940h694v-285h-1106z" />
    <glyph glyph-name="bracketleft" unicode="[" horiz-adv-x="636" 
d="M193 -475v2095h393v-143h-238v-1817h238v-135h-393z" />
    <glyph glyph-name="backslash" unicode="\" horiz-adv-x="753" 
d="M10 1493h170l561 -1493h-170z" />
    <glyph glyph-name="bracketright" unicode="]" horiz-adv-x="636" 
d="M51 -340h238v1817h-238v143h393v-2095h-393v135z" />
    <glyph glyph-name="asciicircum" unicode="^" horiz-adv-x="890" 
d="M39 963l307 530h203l303 -530h-244l-162 286l-163 -286h-244z" />
    <glyph glyph-name="underscore" unicode="_" horiz-adv-x="718" 
d="M-4 0h727v-172h-727v172z" />
    <glyph glyph-name="grave" unicode="`" horiz-adv-x="856" 
d="M121 1729l129 210l432 -323l-92 -150z" />
    <glyph glyph-name="a" unicode="a" horiz-adv-x="1191" 
d="M51 301q0 168 120 263t321 95h251v64q0 78 -45 117t-120 39q-78 0 -125 -37t-52 -99h-305q14 174 148.5 274.5t343.5 100.5q229 0 348 -108.5t119 -296.5v-428q0 -70 53 -70q18 0 35 4v-217q-80 -18 -154 -18q-217 0 -229 182h-17q-29 -86 -120 -136t-215 -50
q-164 0 -260.5 87t-96.5 234zM367 340q0 -59 41 -92t110 -33q104 0 164.5 60.5t60.5 158.5v37h-200q-176 0 -176 -131z" />
    <glyph glyph-name="b" unicode="b" horiz-adv-x="1325" 
d="M127 0v1524h311v-627h19q39 100 132 160.5t224 60.5q205 0 329 -151.5t124 -417.5q0 -262 -121 -415.5t-326 -153.5q-125 0 -222 56t-140 161h-19l-39 -197h-272zM438 508q0 -127 71 -199.5t183 -72.5q119 0 187.5 80.5t68.5 232.5q0 158 -70.5 235.5t-185.5 77.5
q-119 0 -186.5 -75.5t-67.5 -200.5v-78z" />
    <glyph glyph-name="c" unicode="c" horiz-adv-x="1169" 
d="M59 549q0 256 151.5 412.5t399.5 156.5q211 0 351.5 -113.5t154.5 -304.5h-309q-14 80 -68.5 120t-132.5 40q-115 0 -172 -83t-57 -230q0 -154 60.5 -232.5t166.5 -78.5q86 0 139.5 46t63.5 121h309q-10 -190 -151.5 -306.5t-358.5 -116.5q-248 0 -397.5 156.5
t-149.5 412.5z" />
    <glyph glyph-name="d" unicode="d" horiz-adv-x="1327" 
d="M59 543q0 268 123 421.5t326 153.5q135 0 227 -63.5t135 -167.5h17v637h313v-1524h-272l-41 197h-17q-45 -104 -143 -160.5t-219 -56.5q-207 0 -328 151.5t-121 411.5zM379 545q0 -152 66.5 -230.5t181.5 -78.5q123 0 191.5 74.5t68.5 197.5v78q0 131 -71 203.5
t-185 72.5q-123 0 -187.5 -85t-64.5 -232z" />
    <glyph glyph-name="e" unicode="e" horiz-adv-x="1183" 
d="M59 547q0 258 149.5 414.5t393.5 156.5q236 0 375 -136t139 -361q0 -88 -12 -144h-733v-8q1 -119 61 -185q62 -68 170 -67q80 0 138.5 36t74.5 95h309q-29 -166 -171 -267t-347 -101q-246 0 -396.5 155.5t-150.5 411.5zM375 682h430q-2 94 -58.5 147.5t-154.5 53.5
q-96 0 -154.5 -55.5t-62.5 -145.5z" />
    <glyph glyph-name="f" unicode="f" horiz-adv-x="794" 
d="M18 846v252h205v76q0 182 107.5 274t294.5 92q92 0 153 -18v-246q-45 10 -90 10q-152 0 -151 -135v-53h241v-252h-241v-846h-314v846h-205z" />
    <glyph glyph-name="g" unicode="g" horiz-adv-x="1146" 
d="M33 -129q0 76 46 132t122 75v16q-57 20 -90 64.5t-33 99.5q0 72 43 124t119 77v16q-166 92 -166 285q0 162 124 260t322 98q106 0 174 -26q33 102 133.5 165.5t235.5 63.5v-238q-150 0 -193 -73q121 -94 121 -260q0 -160 -120.5 -257.5t-319.5 -97.5q-68 0 -133 15
q-57 -18 -58 -72q0 -74 134 -74h245q176 0 271.5 -83t95.5 -226q0 -346 -586 -346q-244 0 -365.5 69.5t-121.5 192.5zM322 -68q0 -104 215 -104q260 0 260 115q0 80 -107 80h-246q-122 -1 -122 -91zM379 757.5q0 -67.5 43 -108.5t113 -41q72 0 113.5 41t41.5 108.5
t-43 107.5t-112 40q-72 0 -114 -40t-42 -107.5z" />
    <glyph glyph-name="h" unicode="h" horiz-adv-x="1308" 
d="M127 0v1524h311v-625h19q51 106 144 162.5t216 56.5q188 0 282.5 -123t94.5 -336v-659h-313v627q0 233 -201 233q-113 0 -177.5 -74.5t-64.5 -199.5v-586h-311z" />
    <glyph glyph-name="i" unicode="i" horiz-adv-x="565" 
d="M127 0v1098h311v-1098h-311zM127 1212v304h311v-304h-311z" />
    <glyph glyph-name="j" unicode="j" horiz-adv-x="569" 
d="M-82 -100q14 -4 57 -4q154 0 154 170v1032h313v-1082q0 -182 -104.5 -278t-282.5 -96q-78 0 -137 12v246zM129 1212v304h313v-304h-313z" />
    <glyph glyph-name="k" unicode="k" horiz-adv-x="1232" 
d="M127 0v1524h315v-834l381 408h385l-411 -428l434 -670h-357l-290 449l-142 -148v-301h-315z" />
    <glyph glyph-name="l" unicode="l" horiz-adv-x="565" 
d="M127 0v1524h311v-1524h-311z" />
    <glyph glyph-name="m" unicode="m" horiz-adv-x="1925" 
d="M127 0v1098h272l37 -203h21q94 223 313 223q233 0 315 -225h23q96 225 342 225q178 0 269 -124t91 -337v-657h-313v625q0 235 -169 235h-1q-100 0 -151.5 -67.5t-51.5 -180.5v-612h-313v631q0 229 -170 229q-94 0 -148.5 -65.5t-54.5 -173.5v-621h-311z" />
    <glyph glyph-name="n" unicode="n" horiz-adv-x="1308" 
d="M127 0v1098h274l37 -203h19q104 223 360 223q186 0 281.5 -124t95.5 -337v-657h-313v625q0 235 -199 235h-2q-113 0 -177.5 -76.5t-64.5 -203.5v-580h-311z" />
    <glyph glyph-name="o" unicode="o" horiz-adv-x="1218" 
d="M59 549q0 254 151.5 411.5t399.5 157.5q246 0 397.5 -158.5t151.5 -412.5q0 -252 -151.5 -408.5t-397.5 -156.5q-248 0 -399.5 156.5t-151.5 410.5zM377 549q0 -145 62.5 -228t168.5 -83q109 0 170.5 85t61.5 228t-61.5 226t-172.5 83q-106 0 -167.5 -85t-61.5 -226z" />
    <glyph glyph-name="p" unicode="p" horiz-adv-x="1325" 
d="M127 -342v1440h272l39 -201h19q43 102 139 161.5t219 59.5q209 0 330 -153.5t121 -415.5q0 -266 -123 -417.5t-328 -151.5q-131 0 -225 59t-133 160h-19v-541h-311zM438 512q0 -123 70 -199.5t184 -76.5q125 0 190.5 86t65.5 231q0 150 -67.5 229.5t-184.5 79.5
q-115 0 -186.5 -77.5t-71.5 -200.5v-72z" />
    <glyph glyph-name="q" unicode="q" horiz-adv-x="1327" 
d="M59 549q0 260 121 414.5t328 154.5q123 0 220 -58.5t142 -162.5h17l41 201h272v-1440h-313v541h-17q-43 -100 -137 -159.5t-225 -59.5q-205 0 -327 151.5t-122 417.5zM379 553q0 -147 65.5 -232t186.5 -85q117 0 186.5 76.5t69.5 199.5v72q0 121 -73 199.5t-187.5 78.5
t-181 -78.5t-66.5 -230.5z" />
    <glyph glyph-name="r" unicode="r" horiz-adv-x="806" 
d="M127 0v1098h272l39 -209h13q84 229 340 229v-272h-7q-172 0 -258 -96q-88 -98 -88 -281v-469h-311z" />
    <glyph glyph-name="s" unicode="s" horiz-adv-x="1091" 
d="M61 344h308q2 -70 50 -106.5t132 -36.5q78 0 119 29.5t41 80.5q0 29 -9.5 48.5t-31 29.5t-34.5 14.5t-40 10.5l-195 32q-321 57 -321 316q0 170 124 263t333 93q211 0 333.5 -94t126.5 -252h-307q-2 125 -158 125q-68 0 -104.5 -27.5t-36.5 -76.5q0 -39 26.5 -62.5
t50.5 -30t64 -12.5l189 -31q309 -49 309 -317q0 -170 -131 -265t-350 -95q-229 0 -358.5 100t-129.5 264z" />
    <glyph glyph-name="t" unicode="t" horiz-adv-x="794" 
d="M14 846v252h176v270l314 121v-391h235v-252h-235v-469q0 -72 29.5 -108t101.5 -36q68 0 104 11v-244q-98 -18 -198 -18q-109 0 -182.5 29.5t-108.5 85t-47.5 111.5t-12.5 132v506h-176z" />
    <glyph glyph-name="u" unicode="u" horiz-adv-x="1284" 
d="M115 412v686h313v-637q0 -225 193 -225q109 0 173 77.5t64 204.5v580h311v-1098h-272l-41 201h-18q-102 -221 -357 -221q-180 0 -273 114.5t-93 317.5z" />
    <glyph glyph-name="v" unicode="v" horiz-adv-x="1101" 
d="M-12 1098h336l125 -457l96 -371h12l94 369l125 459h338l-369 -1098h-387z" />
    <glyph glyph-name="w" unicode="w" horiz-adv-x="1626" 
d="M10 1098h309l97 -455l63 -332h19l143 787h346l141 -789h15l61 328l103 461h307l-281 -1098h-383l-92 465l-45 237h-12l-41 -235l-92 -467h-377z" />
    <glyph glyph-name="x" unicode="x" horiz-adv-x="1071" 
d="M-6 0l364 547l-356 551h326l211 -355h16l209 355h321l-350 -549l359 -549h-332l-215 342h-15l-217 -342h-321z" />
    <glyph glyph-name="y" unicode="y" horiz-adv-x="1071" 
d="M-20 1098h335l129 -420l91 -311h14l86 311l123 420h325l-389 -1118q-61 -176 -183 -259t-321 -83q-78 0 -139 12v252q53 -8 113 -8q170 0 207 126l16 50z" />
    <glyph glyph-name="z" unicode="z" horiz-adv-x="1007" 
d="M70 846v252h860v-224l-477 -622h485v-252h-864v225l477 621h-481z" />
    <glyph glyph-name="braceleft" unicode="{" horiz-adv-x="673" 
d="M96 504v149q74 0 110 42t36 112v639q0 80 44 127t128 47h209v-143h-222v-658q0 -100 -43 -160.5t-116 -72.5v-6q76 -16 117.5 -78t41.5 -156v-686h222v-135h-209q-82 0 -127 45t-45 129v655q0 78 -41.5 114t-104.5 36z" />
    <glyph glyph-name="bar" unicode="|" horiz-adv-x="614" 
d="M174 -100v1642h260v-1642h-260z" />
    <glyph glyph-name="braceright" unicode="}" horiz-adv-x="673" 
d="M51 -340h217v686q0 94 43 155.5t119 78.5v6q-74 12 -118 72.5t-44 160.5v658h-217v143h207q82 0 126 -46t44 -128v-639q0 -70 38 -112t109 -42v-149q-66 0 -106.5 -36t-40.5 -114v-655q0 -174 -170 -174h-207v135z" />
    <glyph glyph-name="asciitilde" unicode="~" horiz-adv-x="876" 
d="M35 539q-12 176 54.5 253.5t166.5 77.5q74 0 179.5 -58t158.5 -58q106 0 106 131h144q12 -176 -59.5 -257t-172.5 -81q-92 0 -201.5 60.5t-148.5 60.5q-47 0 -68.5 -37t-15.5 -92h-143z" />
    <glyph glyph-name="uni00A0" unicode="&#xa0;" horiz-adv-x="438" 
 />
    <glyph glyph-name="exclamdown" unicode="&#xa1;" horiz-adv-x="618" 
d="M141 1192v301h336v-301h-336zM152 0v438l79 584h160l78 -584v-438h-317z" />
    <glyph glyph-name="cent" unicode="&#xa2;" horiz-adv-x="1124" 
d="M47 743q0 213 107.5 351.5t294.5 171.5v166h198v-164q166 -25 272.5 -128.5t120.5 -258.5h-307q-12 68 -61 105.5t-123 37.5q-100 0 -149.5 -76t-49.5 -205q0 -274 199 -274q72 0 122 40t62 105h305q-16 -158 -121.5 -261t-269.5 -128v-164h-198v166q-186 31 -294 166
t-108 350z" />
    <glyph glyph-name="sterling" unicode="&#xa3;" horiz-adv-x="1335" 
d="M51 0v270h137v353h-137v249h137v170q0 215 135.5 342t362.5 127q205 0 337 -110.5t144 -290.5h-319q-10 59 -56.5 92t-109.5 33q-80 0 -127 -49t-47 -144v-170h459v-249h-459v-353h455v219h270v-489h-1182z" />
    <glyph glyph-name="currency" unicode="&#xa4;" horiz-adv-x="1257" 
d="M84 276l162 148q-94 125 -94 269.5t94 269.5l-162 145l154 156l143 -168q119 74 252 76t252 -70l139 164l150 -158l-148 -139q88 -123 90 -267.5t-92 -283.5l152 -144l-150 -149l-139 164q-127 -76 -259 -74t-245 80l-147 -170zM424 694.5q0 -96.5 59.5 -159t147.5 -62.5
t148.5 62.5t60.5 159t-60.5 157.5t-150.5 61q-86 0 -145.5 -61t-59.5 -157.5z" />
    <glyph glyph-name="yen" unicode="&#xa5;" horiz-adv-x="1398" 
d="M2 1493h387l195 -408l106 -249h17l108 249l199 408h381l-389 -688h153v-252h-295v-100h295v-250h-295v-203h-327v203h-295v250h295v100h-295v252h151z" />
    <glyph glyph-name="brokenbar" unicode="&#xa6;" horiz-adv-x="614" 
d="M174 -113v707h260v-707h-260zM174 817v725h260v-725h-260z" />
    <glyph glyph-name="section" unicode="&#xa7;" horiz-adv-x="1142" 
d="M78 688q0 102 59.5 168t155.5 86v19q-152 68 -152 225q0 141 121 231t332 90q195 0 314.5 -89t123.5 -232h-319q-12 86 -125 86q-98 0 -99 -74q0 -10 2.5 -18.5t4.5 -14.5t8 -13t9 -11t12.5 -9.5t13.5 -8.5t15 -7t14 -6t16.5 -6t15.5 -6l186 -66q57 -20 94.5 -36.5
t86.5 -51.5t74.5 -88t25.5 -123q0 -174 -162 -246v-20q63 -27 102.5 -91.5t39.5 -144.5q0 -154 -128 -242.5t-339 -88.5q-203 0 -328 83t-137 230h334q12 -84 122 -84q121 0 121 88q0 41 -26.5 61.5t-85.5 40.5l-258 91q-244 81 -244 278zM410 766q0 -72 102 -111l137 -55
q14 -6 25.5 -10t28 -9.5t30.5 -11.5q25 35 25 78q0 37 -20.5 63.5t-39 36t-57.5 23.5l-106 43q-10 4 -38 14.5t-51 22.5q-36 -31 -36 -84z" />
    <glyph glyph-name="dieresis" unicode="&#xa8;" horiz-adv-x="854" 
d="M82 1501v301h244v-301h-244zM512 1501v301h244v-301h-244z" />
    <glyph glyph-name="copyright" unicode="&#xa9;" horiz-adv-x="1945" 
d="M115 707q0 373 255 614.5t607 241.5q225 0 419.5 -104.5t314.5 -302.5t120 -445q0 -373 -252 -618t-604 -245q-225 0 -421 105.5t-317.5 304.5t-121.5 449zM199 707q0 -342 226 -562.5t549.5 -220.5t549 220.5t225.5 566.5q0 340 -225.5 559t-546.5 219q-324 0 -551 -220
t-227 -562zM510 707q0 205 135 338t342 133q184 0 313.5 -104.5t135.5 -264.5h-205q-8 84 -76 135t-166 51q-127 0 -199.5 -82t-72.5 -208.5t70.5 -206.5t197.5 -80q100 0 169 49t77 133h205q-10 -162 -138.5 -263t-308.5 -101q-209 0 -344 134t-135 337z" />
    <glyph glyph-name="ordfeminine" unicode="&#xaa;" horiz-adv-x="929" 
d="M84 934q0 115 81 181.5t218 66.5h168v26q0 100 -119 101q-96 0 -115 -74h-223q10 115 104.5 186.5t250.5 71.5q164 0 248.5 -80t84.5 -217v-252q1 -55 52 -55q18 0 24 2v-176q-43 -14 -104 -15q-80 0 -126 41t-50 115h-5q-51 -156 -241 -156q-113 0 -180.5 65.5
t-67.5 168.5zM313 952q0 -76 99 -75q61 0 100 37t39 94v24h-127q-111 0 -111 -80z" />
    <glyph glyph-name="guillemotleft" unicode="&#xab;" horiz-adv-x="1144" 
d="M94 561l246 438h266l-221 -438l221 -442h-266zM565 561l246 438h268l-223 -438l223 -442h-268z" />
    <glyph glyph-name="logicalnot" unicode="&#xac;" horiz-adv-x="1204" 
d="M117 608v250h973v-563h-248v313h-725z" />
    <glyph glyph-name="uni00AD" unicode="&#xad;" horiz-adv-x="970" 
d="M115 528v172h739v-172h-739z" />
    <glyph glyph-name="registered" unicode="&#xae;" horiz-adv-x="1257" 
d="M82 970.5q0 237.5 156.5 389t390 151.5t390.5 -151.5t157 -389t-157 -390t-390.5 -152.5t-390 152.5t-156.5 390zM162 969q0 -205 135 -335t332 -130q199 0 333 131t134 336q0 207 -134.5 339t-333 132t-332.5 -133t-134 -340zM430 735v496h246q78 0 119 -39t41 -105
q0 -90 -74 -126v-3q68 -23 67 -98v-63q0 -43 9 -62h-119q-8 16 -8 62v41q0 66 -66 65h-100v-168h-115zM545 993h94q74 0 74 72q0 68 -74 68h-94v-140z" />
    <glyph glyph-name="macron" unicode="&#xaf;" horiz-adv-x="729" 
d="M-2 1495v231h733v-231h-733z" />
    <glyph glyph-name="degree" unicode="&#xb0;" horiz-adv-x="872" 
d="M109 1180q0 143 91 233t232 90q143 0 237.5 -90t94.5 -233q0 -139 -94.5 -231.5t-237.5 -92.5q-141 0 -232 92t-91 232zM319 1180q0 -53 33 -89t82 -36q51 0 85 36t34 89q0 55 -34 90t-85 35q-49 0 -82 -35t-33 -90z" />
    <glyph glyph-name="plusminus" unicode="&#xb1;" horiz-adv-x="1269" 
d="M117 0v250h1036v-250h-1036zM117 672v246h387v313h258v-313h391v-246h-391v-320h-258v320h-387z" />
    <glyph glyph-name="uni00B2" unicode="&#xb2;" horiz-adv-x="933" 
d="M61 1397q2 178 114 280.5t292 102.5q178 0 285.5 -96.5t107.5 -251.5q0 -113 -62.5 -208.5t-140 -150.5t-164.5 -125.5t-122 -130.5l159 8h336v-211h-780v39q0 106 39 197.5t96.5 149t126 113.5t125.5 99t96 100.5t39 119.5q0 66 -40 103.5t-109 37.5q-76 0 -118 -47
t-38 -129h-242z" />
    <glyph glyph-name="uni00B3" unicode="&#xb3;" horiz-adv-x="966" 
d="M68 1419q-8 162 104.5 261.5t304.5 99.5q174 0 283.5 -85t109.5 -225q0 -174 -159 -247v-11q88 -35 136 -107.5t48 -166.5q0 -152 -116 -246t-304 -94q-186 0 -297.5 100.5t-107.5 264.5h243q-2 -72 43 -114t125 -42q78 0 122 42t44 112q0 72 -48 109.5t-132 37.5h-117
v192h96q86 0 131.5 38t45.5 104q0 61 -42 96t-110 35q-78 0 -121 -42t-41 -112h-241z" />
    <glyph glyph-name="acute" unicode="&#xb4;" horiz-adv-x="858" 
d="M180 1610l432 323l129 -213l-469 -262z" />
    <glyph glyph-name="paragraph" unicode="&#xb6;" horiz-adv-x="1394" 
d="M78 1079q0 195 125 304.5t332 109.5h718v-197h-135v-1302q0 -328 -338 -328h-553v178h287v840q-203 0 -319.5 109.5t-116.5 285.5zM727 -156h39q74 0 105.5 34t31.5 104v1314h-176v-1452z" />
    <glyph glyph-name="periodcentered" unicode="&#xb7;" horiz-adv-x="677" 
d="M129 580q0 90 61.5 154.5t147.5 64.5q88 0 149.5 -64.5t61.5 -154.5q0 -88 -61.5 -151.5t-149.5 -63.5q-86 0 -147.5 63.5t-61.5 151.5z" />
    <glyph glyph-name="cedilla" unicode="&#xb8;" horiz-adv-x="1046" 
d="M330 -279q80 -55 157.5 -43.5t77.5 86.5q0 51 -51 68.5t-117 -10.5v74l105 176h119v-49l-60 -107q70 4 133.5 -39t63.5 -133q0 -78 -45 -130t-110.5 -70.5t-139.5 -10.5t-133 41v147z" />
    <glyph glyph-name="uni00B9" unicode="&#xb9;" horiz-adv-x="714" 
d="M29 1378v185h49q111 0 183.5 56t78.5 146h225v-1151h-239v764h-297z" />
    <glyph glyph-name="ordmasculine" unicode="&#xba;" horiz-adv-x="960" 
d="M92 1096q0 176 107.5 286.5t279.5 110.5q174 0 281.5 -110.5t107.5 -286.5q0 -174 -107.5 -284t-281.5 -110q-172 0 -279.5 110t-107.5 284zM326 1098q0 -94 42 -151.5t111 -57.5q74 0 115 58.5t41 152.5q0 92 -42 149.5t-113.5 57.5t-112.5 -58.5t-41 -150.5z" />
    <glyph glyph-name="guillemotright" unicode="&#xbb;" horiz-adv-x="1144" 
d="M66 119l223 442l-223 438h268l244 -438l-244 -442h-268zM537 119l225 442l-225 438h270l244 -438l-244 -442h-270z" />
    <glyph glyph-name="onequarter" unicode="&#xbc;" horiz-adv-x="1863" 
d="M49 1157v164h92q88 0 132 45t44 121v6h193v-969h-205v633h-256zM356 -94l844 1667h240l-846 -1667h-238zM1124 176v166l322 641h309v-627h100v-180h-100v-176h-203v176h-428zM1352 356h200v404z" />
    <glyph glyph-name="onehalf" unicode="&#xbd;" horiz-adv-x="1933" 
d="M49 1157v164h92q88 0 132 45t44 121v6h193v-969h-205v633h-256zM356 -94l844 1667h240l-846 -1667h-238zM1200 680q4 141 98.5 228t247.5 87q150 0 234 -83t84 -216q0 -78 -32 -143.5t-83 -113.5t-103.5 -89t-103.5 -87t-76 -89l127 6h262v-180h-636v33q0 109 45 196.5
t109.5 143t128 104.5t108.5 103.5t45 115.5q0 57 -34 90t-89 33q-61 0 -95 -41t-32 -110z" />
    <glyph glyph-name="threequarters" unicode="&#xbe;" horiz-adv-x="1990" 
d="M39 1200q-2 135 86 220t246 85q145 0 231 -72.5t86 -189.5q0 -147 -133 -207v-10q154 -59 154 -231q0 -127 -93.5 -207t-238.5 -80q-152 0 -243 84t-89 221h205q0 -55 34.5 -91t88.5 -36q57 0 92 34t35 87q0 55 -38 87t-97 32h-84v184h61q66 0 100.5 32t34.5 83
t-31.5 76.5t-78.5 25.5q-57 0 -90 -35t-31 -92h-207zM481 -94l844 1667h240l-846 -1667h-238zM1249 176v166l322 641h309v-627h100v-180h-100v-176h-203v176h-428zM1477 356h200v404z" />
    <glyph glyph-name="questiondown" unicode="&#xbf;" horiz-adv-x="1214" 
d="M80 453q0 176 116.5 298.5t309.5 147.5v160h297v-406q-49 16 -137 17q-129 0 -201 -58.5t-72 -158.5q0 -96 61.5 -149.5t166.5 -53.5q96 0 157.5 45t69.5 125h305q-14 -207 -159.5 -322.5t-379.5 -115.5q-252 0 -393 128t-141 343zM498 1190v303h317v-303h-317z" />
    <glyph glyph-name="Agrave" unicode="&#xc0;" 
d="M-2 0l526 1493h385l547 -1493h-362l-86 260h-580l-88 -260h-342zM250 1837l129 211l432 -324l-92 -149zM514 514h410l-58 170l-137 463h-12l-146 -463z" />
    <glyph glyph-name="Aacute" unicode="&#xc1;" 
d="M-2 0l526 1493h385l547 -1493h-362l-86 260h-580l-88 -260h-342zM514 514h410l-58 170l-137 463h-12l-146 -463zM623 1718l432 324l129 -213l-469 -262z" />
    <glyph glyph-name="Acircumflex" unicode="&#xc2;" 
d="M-2 0l526 1493h385l547 -1493h-362l-86 260h-580l-88 -260h-342zM342 1716l287 281h178l285 -281l-148 -143l-227 242l-228 -242zM514 514h410l-58 170l-137 463h-12l-146 -463z" />
    <glyph glyph-name="Atilde" unicode="&#xc3;" 
d="M-2 0l526 1493h385l547 -1493h-362l-86 260h-580l-88 -260h-342zM342 1677q84 207 248 207q57 0 134 -39t124 -39q72 0 119 78l129 -82q-41 -109 -106.5 -162t-141.5 -53q-61 0 -139 40t-121 40q-57 0 -123 -74zM514 514h410l-58 170l-137 463h-12l-146 -463z" />
    <glyph glyph-name="Adieresis" unicode="&#xc4;" 
d="M-2 0l526 1493h385l547 -1493h-362l-86 260h-580l-88 -260h-342zM379 1602v301h244v-301h-244zM514 514h410l-58 170l-137 463h-12l-146 -463zM809 1602v301h244v-301h-244z" />
    <glyph glyph-name="Aring" unicode="&#xc5;" 
d="M-2 0l524 1487q-68 72 -67 178q0 113 72.5 182.5t189.5 69.5q115 0 188.5 -69.5t73.5 -182.5q0 -109 -68 -176l545 -1489h-362l-86 260h-580l-88 -260h-342zM514 514h410l-58 170l-137 463h-12l-146 -463zM625 1665q0 -45 25.5 -72.5t66.5 -27.5t67.5 27.5t26.5 72.5
t-26.5 73.5t-67.5 28.5t-66.5 -27.5t-25.5 -74.5z" />
    <glyph glyph-name="AE" unicode="&#xc6;" horiz-adv-x="2023" 
d="M-2 0l473 1493h1452v-285h-711v-331h600v-267h-600v-325h711v-285h-1040v338h-443l-100 -338h-342zM518 594h365v614h-183z" />
    <glyph glyph-name="Ccedilla" unicode="&#xc7;" horiz-adv-x="1544" 
d="M70 743q0 346 200.5 557t530.5 211q276 0 460.5 -145t213.5 -385h-342q-31 113 -121 177.5t-213 64.5q-178 0 -278.5 -128t-100.5 -354q0 -227 99.5 -350t273.5 -123q133 0 223 67.5t117 180.5h342q-27 -238 -211.5 -385t-452.5 -151l-35 -64q70 4 133.5 -39t63.5 -133
q0 -78 -45 -130t-110.5 -70.5t-139.5 -10.5t-133 41v147q80 -55 157.5 -43.5t77.5 86.5q0 51 -52 68.5t-116 -10.5v74l56 94q-279 41 -438.5 243.5t-159.5 509.5z" />
    <glyph glyph-name="Egrave" unicode="&#xc8;" horiz-adv-x="1312" 
d="M158 0v1493h1056v-285h-725v-301h621v-268h-621v-354h725v-285h-1056zM207 1837l129 211l432 -324l-92 -149z" />
    <glyph glyph-name="Eacute" unicode="&#xc9;" horiz-adv-x="1312" 
d="M158 0v1493h1056v-285h-725v-301h621v-268h-621v-354h725v-285h-1056zM582 1718l432 324l129 -213l-469 -262z" />
    <glyph glyph-name="Ecircumflex" unicode="&#xca;" horiz-adv-x="1312" 
d="M158 0v1493h1056v-285h-725v-301h621v-268h-621v-354h725v-285h-1056zM301 1716l287 281h178l285 -281l-148 -143l-227 242l-227 -242z" />
    <glyph glyph-name="Edieresis" unicode="&#xcb;" horiz-adv-x="1312" 
d="M158 0v1493h1056v-285h-725v-301h621v-268h-621v-354h725v-285h-1056zM338 1602v301h244v-301h-244zM768 1602v301h244v-301h-244z" />
    <glyph glyph-name="Igrave" unicode="&#xcc;" horiz-adv-x="647" 
d="M-143 1837l129 211l432 -324l-92 -149zM158 0v1493h331v-1493h-331z" />
    <glyph glyph-name="Iacute" unicode="&#xcd;" horiz-adv-x="647" 
d="M158 0v1493h331v-1493h-331zM231 1718l433 324l129 -213l-469 -262z" />
    <glyph glyph-name="Icircumflex" unicode="&#xce;" horiz-adv-x="647" 
d="M-49 1716l287 281h178l284 -281l-147 -143l-227 242l-228 -242zM158 0v1493h331v-1493h-331z" />
    <glyph glyph-name="Idieresis" unicode="&#xcf;" horiz-adv-x="647" 
d="M-14 1602v301h243v-301h-243zM158 0v1493h331v-1493h-331zM416 1602v301h243v-301h-243z" />
    <glyph glyph-name="Eth" unicode="&#xd0;" horiz-adv-x="1540" 
d="M-29 647v240h187v606h626q328 0 507 -203t179 -545q0 -340 -179 -542.5t-507 -202.5h-626v647h-187zM489 285h244q391 0 391 467q0 457 -391 456h-244v-321h211v-240h-211v-362z" />
    <glyph glyph-name="Ntilde" unicode="&#xd1;" horiz-adv-x="1622" 
d="M158 0v1493h383l602 -1030h12l-18 428v602h327v-1493h-383l-598 1022h-14l20 -412v-610h-331zM442 1677q84 207 248 207q57 0 134 -39t124 -39q72 0 119 78l129 -82q-41 -109 -106.5 -162t-141.5 -53q-61 0 -139 40t-121 40q-57 0 -123 -74z" />
    <glyph glyph-name="Ograve" unicode="&#xd2;" horiz-adv-x="1591" 
d="M70 748q0 356 196.5 559.5t528.5 203.5q342 0 534.5 -208.5t192.5 -554.5q0 -360 -198 -564t-529 -204q-340 0 -532.5 209t-192.5 559zM328 1837l129 211l432 -324l-92 -149zM420 748q0 -225 101.5 -351.5t273.5 -126.5q180 0 279.5 130t99.5 348q0 219 -102.5 347
t-276.5 128q-176 0 -275.5 -130t-99.5 -345z" />
    <glyph glyph-name="Oacute" unicode="&#xd3;" horiz-adv-x="1591" 
d="M70 748q0 356 196.5 559.5t528.5 203.5q342 0 534.5 -208.5t192.5 -554.5q0 -360 -198 -564t-529 -204q-340 0 -532.5 209t-192.5 559zM420 748q0 -225 101.5 -351.5t273.5 -126.5q180 0 279.5 130t99.5 348q0 219 -102.5 347t-276.5 128q-176 0 -275.5 -130t-99.5 -345z
M702 1718l433 324l129 -213l-469 -262z" />
    <glyph glyph-name="Ocircumflex" unicode="&#xd4;" horiz-adv-x="1591" 
d="M70 748q0 356 196.5 559.5t528.5 203.5q342 0 534.5 -208.5t192.5 -554.5q0 -360 -198 -564t-529 -204q-340 0 -532.5 209t-192.5 559zM420 748q0 -225 101.5 -351.5t273.5 -126.5q180 0 279.5 130t99.5 348q0 219 -102.5 347t-276.5 128q-176 0 -275.5 -130t-99.5 -345z
M422 1716l287 281h178l284 -281l-147 -143l-227 242l-228 -242z" />
    <glyph glyph-name="Otilde" unicode="&#xd5;" horiz-adv-x="1591" 
d="M70 748q0 356 196.5 559.5t528.5 203.5q342 0 534.5 -208.5t192.5 -554.5q0 -360 -198 -564t-529 -204q-340 0 -532.5 209t-192.5 559zM420 748q0 -225 101.5 -351.5t273.5 -126.5q180 0 279.5 130t99.5 348q0 219 -102.5 347t-276.5 128q-176 0 -275.5 -130t-99.5 -345z
M420 1677q84 207 248 207q57 0 134 -39t124 -39q72 0 118 78l130 -82q-41 -109 -106.5 -162t-141.5 -53q-61 0 -139 40t-121 40q-57 0 -123 -74z" />
    <glyph glyph-name="Odieresis" unicode="&#xd6;" horiz-adv-x="1591" 
d="M70 748q0 356 196.5 559.5t528.5 203.5q342 0 534.5 -208.5t192.5 -554.5q0 -360 -198 -564t-529 -204q-340 0 -532.5 209t-192.5 559zM420 748q0 -225 101.5 -351.5t273.5 -126.5q180 0 279.5 130t99.5 348q0 219 -102.5 347t-276.5 128q-176 0 -275.5 -130t-99.5 -345z
M457 1602v301h243v-301h-243zM887 1602v301h243v-301h-243z" />
    <glyph glyph-name="multiply" unicode="&#xd7;" horiz-adv-x="1388" 
d="M115 211l391 403l-391 408l186 190l381 -395h25l376 395l189 -190l-389 -408l389 -403l-189 -193l-376 396h-25l-381 -396z" />
    <glyph glyph-name="Oslash" unicode="&#xd8;" horiz-adv-x="1681" 
d="M43 324l113 82q-59 154 -60 342q0 356 196.5 559.5t528.5 203.5q356 0 549 -225l121 88l141 -198l-139 -101q55 -145 55 -327q0 -360 -197.5 -564t-529.5 -204q-346 0 -540 217l-111 -80zM444 748q0 -59 11 -125l645 467q-102 133 -278.5 133t-277 -130t-100.5 -345z
M551 391q102 -121 270 -121q178 0 278.5 130.5t100.5 347.5q0 63 -8 110z" />
    <glyph glyph-name="Ugrave" unicode="&#xd9;" horiz-adv-x="1581" 
d="M145 571v922h330v-901q0 -150 83 -234t233 -84q147 0 231 82t84 236v901h330v-922q0 -276 -175.5 -433.5t-472.5 -157.5q-317 0 -480 159.5t-163 431.5zM322 1837l129 211l432 -324l-92 -149z" />
    <glyph glyph-name="Uacute" unicode="&#xda;" horiz-adv-x="1581" 
d="M145 571v922h330v-901q0 -150 83 -234t233 -84q147 0 231 82t84 236v901h330v-922q0 -276 -175.5 -433.5t-472.5 -157.5q-317 0 -480 159.5t-163 431.5zM696 1718l432 324l129 -213l-469 -262z" />
    <glyph glyph-name="Ucircumflex" unicode="&#xdb;" horiz-adv-x="1581" 
d="M145 571v922h330v-901q0 -150 83 -234t233 -84q147 0 231 82t84 236v901h330v-922q0 -276 -175.5 -433.5t-472.5 -157.5q-317 0 -480 159.5t-163 431.5zM416 1716l286 281h179l284 -281l-147 -143l-227 242l-228 -242z" />
    <glyph glyph-name="Udieresis" unicode="&#xdc;" horiz-adv-x="1581" 
d="M145 571v922h330v-901q0 -150 83 -234t233 -84q147 0 231 82t84 236v901h330v-922q0 -276 -175.5 -433.5t-472.5 -157.5q-317 0 -480 159.5t-163 431.5zM451 1602v301h243v-301h-243zM881 1602v301h243v-301h-243z" />
    <glyph glyph-name="Yacute" unicode="&#xdd;" horiz-adv-x="1447" 
d="M2 1493h393l160 -309l160 -318h16l324 627h391l-557 -922v-571h-332v571zM631 1718l432 324l129 -213l-469 -262z" />
    <glyph glyph-name="Thorn" unicode="&#xde;" horiz-adv-x="1366" 
d="M141 0v1536h330v-260h295q242 0 390.5 -140.5t148.5 -365.5q0 -227 -154 -368.5t-387 -141.5h-293v-260h-330zM471 543h240q115 0 180 61.5t65 161.5t-72.5 158.5t-172.5 58.5h-240v-440z" />
    <glyph glyph-name="germandbls" unicode="&#xdf;" horiz-adv-x="1267" 
d="M14 827v246h142v10q0 225 131 342t358 117q211 0 336 -103.5t125 -269.5q0 -113 -56.5 -195.5t-154.5 -117.5v-16q143 -27 227 -135.5t84 -258.5q0 -213 -148.5 -329.5t-400.5 -116.5h-94v256h62q125 0 195.5 65.5t70.5 174t-71.5 168t-192.5 59.5h-37v227h22
q84 0 133.5 48.5t49.5 123.5q0 74 -44 118t-120 44q-80 0 -123 -47t-43 -127v-1110h-309v827h-142z" />
    <glyph glyph-name="agrave" unicode="&#xe0;" horiz-adv-x="1191" 
d="M51 301q0 168 120 263t321 95h251v64q0 78 -45 117t-120 39q-78 0 -125 -37t-52 -99h-305q14 174 148.5 274.5t343.5 100.5q229 0 348 -108.5t119 -296.5v-428q0 -70 53 -70q18 0 35 4v-217q-80 -18 -154 -18q-217 0 -229 182h-17q-29 -86 -120 -136t-215 -50
q-164 0 -260.5 87t-96.5 234zM104 1452l129 211l433 -324l-93 -149zM367 340q0 -59 41 -92t110 -33q104 0 164.5 60.5t60.5 158.5v37h-200q-176 0 -176 -131z" />
    <glyph glyph-name="aacute" unicode="&#xe1;" horiz-adv-x="1191" 
d="M51 301q0 168 120 263t321 95h251v64q0 78 -45 117t-120 39q-78 0 -125 -37t-52 -99h-305q14 174 148.5 274.5t343.5 100.5q229 0 348 -108.5t119 -296.5v-428q0 -70 53 -70q18 0 35 4v-217q-80 -18 -154 -18q-217 0 -229 182h-17q-29 -86 -120 -136t-215 -50
q-164 0 -260.5 87t-96.5 234zM367 340q0 -59 41 -92t110 -33q104 0 164.5 60.5t60.5 158.5v37h-200q-176 0 -176 -131zM479 1333l432 324l129 -213l-469 -262z" />
    <glyph glyph-name="acircumflex" unicode="&#xe2;" horiz-adv-x="1191" 
d="M51 301q0 168 120 263t321 95h251v64q0 78 -45 117t-120 39q-78 0 -125 -37t-52 -99h-305q14 174 148.5 274.5t343.5 100.5q229 0 348 -108.5t119 -296.5v-428q0 -70 53 -70q18 0 35 4v-217q-80 -18 -154 -18q-217 0 -229 182h-17q-29 -86 -120 -136t-215 -50
q-164 0 -260.5 87t-96.5 234zM197 1331l286 281h179l284 -281l-147 -143l-228 242l-227 -242zM367 340q0 -59 41 -92t110 -33q104 0 164.5 60.5t60.5 158.5v37h-200q-176 0 -176 -131z" />
    <glyph glyph-name="atilde" unicode="&#xe3;" horiz-adv-x="1191" 
d="M51 301q0 168 120 263t321 95h251v64q0 78 -45 117t-120 39q-78 0 -125 -37t-52 -99h-305q14 174 148.5 274.5t343.5 100.5q229 0 348 -108.5t119 -296.5v-428q0 -70 53 -70q18 0 35 4v-217q-80 -18 -154 -18q-217 0 -229 182h-17q-29 -86 -120 -136t-215 -50
q-164 0 -260.5 87t-96.5 234zM197 1292q84 207 247 207q57 0 134 -39t124 -39q72 0 119 78l129 -82q-41 -109 -106.5 -162t-141.5 -53q-61 0 -139 40t-121 40q-57 0 -123 -74zM367 340q0 -59 41 -92t110 -33q104 0 164.5 60.5t60.5 158.5v37h-200q-176 0 -176 -131z" />
    <glyph glyph-name="adieresis" unicode="&#xe4;" horiz-adv-x="1191" 
d="M51 301q0 168 120 263t321 95h251v64q0 78 -45 117t-120 39q-78 0 -125 -37t-52 -99h-305q14 174 148.5 274.5t343.5 100.5q229 0 348 -108.5t119 -296.5v-428q0 -70 53 -70q18 0 35 4v-217q-80 -18 -154 -18q-217 0 -229 182h-17q-29 -86 -120 -136t-215 -50
q-164 0 -260.5 87t-96.5 234zM233 1214v302h244v-302h-244zM367 340q0 -59 41 -92t110 -33q104 0 164.5 60.5t60.5 158.5v37h-200q-176 0 -176 -131zM664 1214v302h243v-302h-243z" />
    <glyph glyph-name="aring" unicode="&#xe5;" horiz-adv-x="1191" 
d="M51 301q0 168 120 263t321 95h251v64q0 78 -45 117t-120 39q-78 0 -125 -37t-52 -99h-305q10 129 87 218.5t206 128.5q-80 70 -80 188q0 113 73 182.5t189 69.5q115 0 189 -69.5t74 -182.5q0 -109 -72 -180q145 -37 219 -137.5t74 -247.5v-428q0 -70 53 -70q18 0 35 4
v-217q-80 -18 -154 -18q-217 0 -229 182h-17q-29 -86 -120 -136t-215 -50q-164 0 -260.5 87t-96.5 234zM367 340q0 -59 41 -92t110 -33q104 0 164.5 60.5t60.5 158.5v37h-200q-176 0 -176 -131zM479 1278q0 -45 25.5 -72.5t66.5 -27.5t68 27.5t27 72.5t-27 73.5t-68 28.5
t-66.5 -28.5t-25.5 -73.5z" />
    <glyph glyph-name="ae" unicode="&#xe6;" horiz-adv-x="1849" 
d="M47 324q0 164 110.5 257t317.5 93h244v47q0 74 -48 116t-128 42q-72 0 -120 -37t-52 -92h-312q14 168 145.5 268t350.5 100q223 0 350 -131q131 131 357 131q236 0 377 -142t141 -372q0 -39 -8 -129h-738q-2 -119 65.5 -184.5t182.5 -65.5q82 0 145.5 36t81.5 95h281
q-23 -170 -164 -273t-346 -103q-289 0 -428 188q-57 -90 -163.5 -139t-239.5 -49q-178 0 -290 95t-112 249zM362 338q0 -55 39 -86t107 -31q96 0 155.5 56.5t59.5 144.5v41h-195q-166 0 -166 -125zM1036 684h439q-4 96 -63.5 146.5t-147.5 50.5q-96 0 -158 -52.5t-70 -144.5
z" />
    <glyph glyph-name="ccedilla" unicode="&#xe7;" horiz-adv-x="1169" 
d="M59 549q0 256 151.5 412.5t399.5 156.5q211 0 351.5 -113.5t154.5 -304.5h-309q-14 80 -68.5 120t-132.5 40q-115 0 -172 -83t-57 -230q0 -154 60.5 -232.5t166.5 -78.5q86 0 139.5 46t63.5 121h309q-10 -186 -145 -301.5t-346 -121.5l-35 -64q70 4 133 -39t63 -133
q0 -78 -45 -130t-110.5 -70.5t-139 -10.5t-133.5 41v147q80 -55 158 -43.5t78 86.5q0 51 -51 68.5t-117 -10.5v74l57 96q-197 37 -310.5 186.5t-113.5 370.5z" />
    <glyph glyph-name="egrave" unicode="&#xe8;" horiz-adv-x="1183" 
d="M59 547q0 258 149.5 414.5t393.5 156.5q236 0 375 -136t139 -361q0 -88 -12 -144h-733q-2 -125 60.5 -192.5t170.5 -67.5q80 0 138.5 36t74.5 95h309q-29 -166 -171 -267t-347 -101q-246 0 -396.5 155.5t-150.5 411.5zM117 1452l129 211l432 -324l-92 -149zM375 682h430
q-2 94 -58.5 147.5t-154.5 53.5q-96 0 -154.5 -55.5t-62.5 -145.5z" />
    <glyph glyph-name="eacute" unicode="&#xe9;" horiz-adv-x="1183" 
d="M59 547q0 258 149.5 414.5t393.5 156.5q236 0 375 -136t139 -361q0 -88 -12 -144h-733q-2 -125 60.5 -192.5t170.5 -67.5q80 0 138.5 36t74.5 95h309q-29 -166 -171 -267t-347 -101q-246 0 -396.5 155.5t-150.5 411.5zM375 682h430q-2 94 -58.5 147.5t-154.5 53.5
q-96 0 -154.5 -55.5t-62.5 -145.5zM492 1333l432 324l129 -213l-469 -262z" />
    <glyph glyph-name="ecircumflex" unicode="&#xea;" horiz-adv-x="1183" 
d="M59 547q0 258 149.5 414.5t393.5 156.5q236 0 375 -136t139 -361q0 -88 -12 -144h-733q-2 -125 60.5 -192.5t170.5 -67.5q80 0 138.5 36t74.5 95h309q-29 -166 -171 -267t-347 -101q-246 0 -396.5 155.5t-150.5 411.5zM211 1331l287 281h178l285 -281l-148 -143l-227 242
l-228 -242zM375 682h430q-2 94 -58.5 147.5t-154.5 53.5q-96 0 -154.5 -55.5t-62.5 -145.5z" />
    <glyph glyph-name="edieresis" unicode="&#xeb;" horiz-adv-x="1183" 
d="M59 547q0 258 149.5 414.5t393.5 156.5q236 0 375 -136t139 -361q0 -88 -12 -144h-733q-2 -125 60.5 -192.5t170.5 -67.5q80 0 138.5 36t74.5 95h309q-29 -166 -171 -267t-347 -101q-246 0 -396.5 155.5t-150.5 411.5zM246 1214v302h243v-302h-243zM375 682h430
q-2 94 -58.5 147.5t-154.5 53.5q-96 0 -154.5 -55.5t-62.5 -145.5zM676 1214v302h244v-302h-244z" />
    <glyph glyph-name="igrave" unicode="&#xec;" horiz-adv-x="565" 
d="M-184 1442l129 211l432 -324l-92 -149zM127 0v1098h311v-1098h-311z" />
    <glyph glyph-name="iacute" unicode="&#xed;" horiz-adv-x="565" 
d="M127 0v1098h311v-1098h-311zM190 1323l433 324l129 -213l-469 -263z" />
    <glyph glyph-name="icircumflex" unicode="&#xee;" horiz-adv-x="565" 
d="M-90 1321l287 281h178l284 -281l-147 -143l-227 241l-228 -241zM127 0v1098h311v-1098h-311z" />
    <glyph glyph-name="idieresis" unicode="&#xef;" horiz-adv-x="565" 
d="M-55 1206v301h243v-301h-243zM127 0v1098h311v-1098h-311zM375 1206v301h243v-301h-243z" />
    <glyph glyph-name="eth" unicode="&#xf0;" horiz-adv-x="1257" 
d="M74 496q0 219 136 354t355 135q72 0 127 -20l8 8l-84 78l-86 106l-274 -98v221l147 53l-145 213h377l70 -102l276 102v-223l-156 -53l123 -183q4 -4 48 -70.5t55.5 -85t44 -79.5t44 -100t24 -99.5t12.5 -120.5q0 -248 -157 -399t-403 -151q-240 0 -391 144.5t-151 369.5z
M391 502q0 -119 63.5 -191.5t170.5 -72.5q104 0 167.5 74.5t63.5 193.5q0 117 -63.5 190.5t-167.5 73.5q-106 0 -170 -73.5t-64 -194.5z" />
    <glyph glyph-name="ntilde" unicode="&#xf1;" horiz-adv-x="1308" 
d="M127 0v1098h274l37 -203h19q104 223 360 223q186 0 281.5 -124t95.5 -337v-657h-313v625q0 236 -201 235q-113 0 -177.5 -76.5t-64.5 -203.5v-580h-311zM305 1292q84 207 248 207q57 0 134 -39t124 -39q72 0 119 78l129 -82q-41 -109 -106.5 -162t-141.5 -53
q-61 0 -139 40t-121 40q-57 0 -123 -74z" />
    <glyph glyph-name="ograve" unicode="&#xf2;" horiz-adv-x="1218" 
d="M59 549q0 254 151.5 411.5t399.5 157.5q246 0 397.5 -158.5t151.5 -412.5q0 -252 -151.5 -408.5t-397.5 -156.5q-248 0 -399.5 156.5t-151.5 410.5zM141 1452l129 211l432 -324l-92 -149zM377 549q0 -145 62.5 -228t168.5 -83q109 0 170.5 85t61.5 228t-61.5 226
t-172.5 83q-106 0 -167.5 -85t-61.5 -226z" />
    <glyph glyph-name="oacute" unicode="&#xf3;" horiz-adv-x="1218" 
d="M59 549q0 254 151.5 411.5t399.5 157.5q246 0 397.5 -158.5t151.5 -412.5q0 -252 -151.5 -408.5t-397.5 -156.5q-248 0 -399.5 156.5t-151.5 410.5zM377 549q0 -145 62.5 -228t168.5 -83q109 0 170.5 85t61.5 228t-61.5 226t-172.5 83q-106 0 -167.5 -85t-61.5 -226z
M516 1333l432 324l129 -213l-469 -262z" />
    <glyph glyph-name="ocircumflex" unicode="&#xf4;" horiz-adv-x="1218" 
d="M59 549q0 254 151.5 411.5t399.5 157.5q246 0 397.5 -158.5t151.5 -412.5q0 -252 -151.5 -408.5t-397.5 -156.5q-248 0 -399.5 156.5t-151.5 410.5zM236 1331l286 281h178l285 -281l-147 -143l-228 242l-227 -242zM377 549q0 -145 62.5 -228t168.5 -83q109 0 170.5 85
t61.5 228t-61.5 226t-172.5 83q-106 0 -167.5 -85t-61.5 -226z" />
    <glyph glyph-name="otilde" unicode="&#xf5;" horiz-adv-x="1218" 
d="M59 549q0 254 151.5 411.5t399.5 157.5q246 0 397.5 -158.5t151.5 -412.5q0 -252 -151.5 -408.5t-397.5 -156.5q-248 0 -399.5 156.5t-151.5 410.5zM236 1292q84 207 247 207q57 0 134 -39t124 -39q72 0 119 78l129 -82q-41 -109 -106.5 -162t-141.5 -53q-61 0 -139 40
t-121 40q-57 0 -123 -74zM377 549q0 -145 62.5 -228t168.5 -83q109 0 170.5 85t61.5 228t-61.5 226t-172.5 83q-106 0 -167.5 -85t-61.5 -226z" />
    <glyph glyph-name="odieresis" unicode="&#xf6;" horiz-adv-x="1218" 
d="M59 549q0 254 151.5 411.5t399.5 157.5q246 0 397.5 -158.5t151.5 -412.5q0 -252 -151.5 -408.5t-397.5 -156.5q-248 0 -399.5 156.5t-151.5 410.5zM272 1214v302h244v-302h-244zM377 549q0 -145 62.5 -228t168.5 -83q109 0 170.5 85t61.5 228t-61.5 226t-172.5 83
q-106 0 -167.5 -85t-61.5 -226zM702 1214v302h244v-302h-244z" />
    <glyph glyph-name="divide" unicode="&#xf7;" horiz-adv-x="1312" 
d="M152 467v252h1007v-252h-1007zM494 18v310h323v-310h-323zM494 856v309h323v-309h-323z" />
    <glyph glyph-name="oslash" unicode="&#xf8;" horiz-adv-x="1292" 
d="M29 223l108 80q-45 113 -45 246q0 254 151.5 411.5t397.5 157.5t397 -155l113 81l113 -165l-119 -86q45 -117 45 -246q0 -252 -150.5 -408.5t-398.5 -156.5q-244 0 -395 155l-107 -78zM410 549q0 -31 2 -45l389 284q-61 72 -162 72q-109 0 -169 -85t-60 -226zM481 309
q59 -72 160 -71q109 0 170 85t61 228q0 29 -2 41z" />
    <glyph glyph-name="ugrave" unicode="&#xf9;" horiz-adv-x="1284" 
d="M115 412v686h313v-637q0 -225 193 -225q109 0 173 77.5t64 204.5v580h311v-1098h-272l-41 201h-18q-102 -221 -357 -221q-180 0 -273 114.5t-93 317.5zM176 1452l129 211l432 -324l-92 -149z" />
    <glyph glyph-name="uacute" unicode="&#xfa;" horiz-adv-x="1284" 
d="M115 412v686h313v-637q0 -225 193 -225q109 0 173 77.5t64 204.5v580h311v-1098h-272l-41 201h-18q-102 -221 -357 -221q-180 0 -273 114.5t-93 317.5zM551 1333l432 324l129 -213l-469 -262z" />
    <glyph glyph-name="ucircumflex" unicode="&#xfb;" horiz-adv-x="1284" 
d="M115 412v686h313v-637q0 -225 193 -225q109 0 173 77.5t64 204.5v580h311v-1098h-272l-41 201h-18q-102 -221 -357 -221q-180 0 -273 114.5t-93 317.5zM268 1331l287 281h178l285 -281l-148 -143l-227 242l-227 -242z" />
    <glyph glyph-name="udieresis" unicode="&#xfc;" horiz-adv-x="1284" 
d="M115 412v686h313v-637q0 -225 193 -225q109 0 173 77.5t64 204.5v580h311v-1098h-272l-41 201h-18q-102 -221 -357 -221q-180 0 -273 114.5t-93 317.5zM305 1214v302h244v-302h-244zM735 1214v302h244v-302h-244z" />
    <glyph glyph-name="yacute" unicode="&#xfd;" horiz-adv-x="1071" 
d="M-20 1098h335l129 -420l91 -311h14l86 311l123 420h325l-389 -1118q-61 -176 -183 -259t-321 -83q-78 0 -139 12v252q53 -8 113 -8q170 0 207 126l16 50zM432 1335l432 324l129 -213l-469 -262z" />
    <glyph glyph-name="thorn" unicode="&#xfe;" horiz-adv-x="1320" 
d="M127 -342v1835h311v-594h19q43 100 140 159.5t218 59.5q209 0 328 -154.5t119 -420.5q0 -262 -122 -412.5t-325 -150.5q-131 0 -225 58t-133 159h-19v-539h-311zM438 508q0 -123 70 -197.5t184 -74.5q123 0 189.5 83.5t66.5 227.5q0 156 -67.5 235.5t-184.5 79.5
q-115 0 -186.5 -76.5t-71.5 -197.5v-80z" />
    <glyph glyph-name="ydieresis" unicode="&#xff;" horiz-adv-x="1071" 
d="M-20 1098h335l129 -420l91 -311h14l86 311l123 420h325l-389 -1118q-61 -176 -183 -259t-321 -83q-78 0 -139 12v252q53 -8 113 -8q170 0 207 126l16 50zM186 1219v301h244v-301h-244zM616 1219v301h244v-301h-244z" />
    <glyph glyph-name="OE" unicode="&#x152;" horiz-adv-x="1939" 
d="M70 747.5q0 331.5 201.5 537.5t527.5 206h1042v-283h-651v-331h461v-267h-461v-323h651v-285h-1042q-326 0 -527.5 207t-201.5 538.5zM420 748q0 -205 103.5 -333t275.5 -128h63v917h-63q-170 0 -274.5 -126.5t-104.5 -329.5z" />
    <glyph glyph-name="oe" unicode="&#x153;" horiz-adv-x="2002" 
d="M59 549q0 254 151.5 411.5t399.5 157.5q256 0 408 -168q150 168 403 168q236 0 375 -136t139 -361q0 -88 -12 -144h-731q-4 -123 58.5 -191.5t170.5 -68.5q80 0 138.5 36t74.5 95h310q-29 -166 -171.5 -267t-347.5 -101q-256 0 -407 167q-154 -166 -408 -165
q-248 0 -399.5 156.5t-151.5 410.5zM377 549q0 -145 62.5 -228t168.5 -83q109 0 170.5 85t61.5 228t-61.5 226t-172.5 83q-106 0 -167.5 -85t-61.5 -226zM1194 682h430q-2 94 -58.5 147.5t-154.5 53.5q-94 0 -153.5 -55.5t-63.5 -145.5z" />
    <glyph glyph-name="Ydieresis" unicode="&#x178;" horiz-adv-x="1447" 
d="M2 1493h393l160 -309l160 -318h16l324 627h391l-557 -922v-571h-332v571zM385 1602v301h244v-301h-244zM815 1602v301h244v-301h-244z" />
    <glyph glyph-name="circumflex" unicode="&#x2c6;" horiz-adv-x="772" 
d="M12 1610l287 280h178l285 -280l-148 -144l-227 242l-227 -242z" />
    <glyph glyph-name="tilde" unicode="&#x2dc;" horiz-adv-x="716" 
d="M-18 1571q84 207 247 207q57 0 134 -39t124 -39q72 0 119 78l129 -82q-41 -109 -106.5 -162t-141.5 -53q-61 0 -139 40t-121 40q-57 0 -123 -74z" />
    <glyph glyph-name="uni2000" unicode="&#x2000;" horiz-adv-x="1024" 
 />
    <glyph glyph-name="uni2001" unicode="&#x2001;" horiz-adv-x="2048" 
 />
    <glyph glyph-name="uni2002" unicode="&#x2002;" horiz-adv-x="1024" 
 />
    <glyph glyph-name="uni2003" unicode="&#x2003;" horiz-adv-x="2048" 
 />
    <glyph glyph-name="uni2004" unicode="&#x2004;" horiz-adv-x="682" 
 />
    <glyph glyph-name="uni2005" unicode="&#x2005;" horiz-adv-x="512" 
 />
    <glyph glyph-name="uni2006" unicode="&#x2006;" horiz-adv-x="341" 
 />
    <glyph glyph-name="uni2007" unicode="&#x2007;" horiz-adv-x="341" 
 />
    <glyph glyph-name="uni2008" unicode="&#x2008;" horiz-adv-x="256" 
 />
    <glyph glyph-name="uni2009" unicode="&#x2009;" horiz-adv-x="409" 
 />
    <glyph glyph-name="uni200A" unicode="&#x200a;" horiz-adv-x="113" 
 />
    <glyph glyph-name="uni2010" unicode="&#x2010;" horiz-adv-x="970" 
d="M115 528v172h739v-172h-739z" />
    <glyph glyph-name="uni2011" unicode="&#x2011;" horiz-adv-x="970" 
d="M115 528v172h739v-172h-739z" />
    <glyph glyph-name="figuredash" unicode="&#x2012;" horiz-adv-x="970" 
d="M115 528v172h739v-172h-739z" />
    <glyph glyph-name="endash" unicode="&#x2013;" horiz-adv-x="1331" 
d="M115 528v172h1099v-172h-1099z" />
    <glyph glyph-name="emdash" unicode="&#x2014;" horiz-adv-x="1732" 
d="M115 528v172h1501v-172h-1501z" />
    <glyph glyph-name="quoteleft" unicode="&#x2018;" horiz-adv-x="473" 
d="M63 893v326q0 133 91 207.5t245 74.5v-115q-182 0 -182 -157v-21h150v-315h-304z" />
    <glyph glyph-name="quoteright" unicode="&#x2019;" horiz-adv-x="471" 
d="M76 899v115q180 0 180 155v23h-150v315h304v-325q0 -133 -91 -208t-243 -75z" />
    <glyph glyph-name="quotesinglbase" unicode="&#x201a;" horiz-adv-x="473" 
d="M74 -180q182 0 182 157v23h-152v315h304v-325q0 -133 -90 -208t-244 -75v113z" />
    <glyph glyph-name="quotedblleft" unicode="&#x201c;" horiz-adv-x="962" 
d="M70 893v326q0 133 89.5 207.5t243.5 74.5v-115q-182 0 -182 -157v-21h150v-315h-301zM553 893v326q0 133 90 207.5t244 74.5v-115q-182 0 -182 -157v-21h151v-315h-303z" />
    <glyph glyph-name="quotedblright" unicode="&#x201d;" horiz-adv-x="946" 
d="M84 899v115q182 0 182 155v23h-151v315h303v-325q0 -133 -90 -208t-244 -75zM555 899v115q180 0 180 155v23h-149v315h303v-325q0 -133 -91 -208t-243 -75z" />
    <glyph glyph-name="quotedblbase" unicode="&#x201e;" horiz-adv-x="913" 
d="M78 -180q180 0 180 157v23h-149v315h303v-325q0 -133 -91 -208t-243 -75v113zM518 -180q182 0 182 157v23h-151v315h303v-325q0 -133 -90 -208t-244 -75v113z" />
    <glyph glyph-name="bullet" unicode="&#x2022;" horiz-adv-x="804" 
d="M100 567q0 135 86 225.5t217 90.5q129 0 215.5 -91.5t86.5 -224.5t-86.5 -221t-215.5 -88q-133 0 -218 87t-85 222z" />
    <glyph glyph-name="ellipsis" unicode="&#x2026;" horiz-adv-x="1585" 
d="M129 0v336h303v-336h-303zM641 0v336h303v-336h-303zM1153 0v336h303v-336h-303z" />
    <glyph glyph-name="uni202F" unicode="&#x202f;" horiz-adv-x="409" 
 />
    <glyph glyph-name="guilsinglleft" unicode="&#x2039;" horiz-adv-x="655" 
d="M61 561l246 438h266l-223 -438l223 -442h-266z" />
    <glyph glyph-name="guilsinglright" unicode="&#x203a;" horiz-adv-x="655" 
d="M82 119l223 442l-223 438h270l242 -438l-242 -442h-270z" />
    <glyph glyph-name="uni205F" unicode="&#x205f;" horiz-adv-x="512" 
 />
    <glyph glyph-name="Euro" unicode="&#x20ac;" horiz-adv-x="1513" 
d="M51 483v201h115q-2 20 -2 64q0 49 2 73h-115v199h146q59 236 224 363.5t400 127.5q244 0 406 -128t200 -343h-346q-55 184 -260 184.5t-282 -204.5h424l-23 -199h-440q-2 -25 -2 -76q0 -41 2 -61h426l-31 -201h-358q75 -213 284 -213q203 0 260 185h346
q-41 -219 -203.5 -346t-404.5 -127q-244 0 -405.5 133t-218.5 368h-144z" />
    <glyph glyph-name="trademark" unicode="&#x2122;" horiz-adv-x="1335" 
d="M25 1376v127h489v-127h-178v-512h-141v512h-170zM602 864v639h176l154 -352h4l154 352h176v-639h-138v262l9 179h-7l-196 -431l-197 431h-8l10 -179v-262h-137z" />
    <glyph glyph-name="uni25FC" unicode="&#x25fc;" horiz-adv-x="1095" 
d="M0 0v1096h1096v-1096h-1096z" />
    <glyph glyph-name="uniFB03" unicode="&#xfb03;" horiz-adv-x="2050" 
d="M18 846v252h205v76q0 182 107.5 274t294.5 92q92 0 153 -18v-246q-45 10 -90 10q-152 0 -151 -135v-53h378v76q0 182 106.5 274t293.5 92q94 0 153 -18v-246q-47 10 -90 10q-152 0 -151 -135v-53h696v-1098h-311v846h-385v-846h-312v846h-378v-846h-314v846h-205z
M1612 1212v304h311v-304h-311z" />
    </font>
</defs>
</svg>
