<?xml version="1.0" standalone="no"?>
<!DOCTYPE svg PUBLIC "-//W3C//DTD SVG 1.1//EN" "http://www.w3.org/Graphics/SVG/1.1/DTD/svg11.dtd" >
<svg xmlns="http://www.w3.org/2000/svg" xmlns:xlink="http://www.w3.org/1999/xlink" version="1.1">
<metadata>
Created by FontForge 20170731 at Mon Jul 23 17:06:40 2018
 By Aleksey,,,
Copyright (c) 2017 by Deni Anggara. All rights reserved.
</metadata>
<defs>
<font id="" horiz-adv-x="0" >
  <font-face 
    font-family=""
    font-weight="400"
    font-stretch="normal"
    units-per-em="2048"
    panose-1="0 0 5 0 0 0 0 0 0 0"
    ascent="1638"
    descent="-410"
    x-height="1069"
    cap-height="1493"
    bbox="-858 -483 4463 1978"
    underline-thickness="0"
    underline-position="0"
    unicode-range="U+000D-FB02"
  />
<missing-glyph horiz-adv-x="1527" 
d="M135 0v1493h1319v-1493h-1319zM264 127h1061v1237h-1061v-1237zM393 256v979h803v-979h-803zM522 387h545v719h-545v-719zM651 516v461h287v-461h-287z" />
    <glyph glyph-name="uniFB01" unicode="fi" horiz-adv-x="1200" 
d="M1096 1069l-150 -1069h-176l131 922h-446l-129 -922h-179l129 922h-192l22 147h193l20 158q39 289 328 289q82 0 146 -23l-19 -139q-39 12 -104 12q-82 0 -122 -40t-52 -114l-21 -143h621zM979 1483h174l-31 -234h-176z" />
    <glyph glyph-name="uniFB02" unicode="fl" horiz-adv-x="1214" 
d="M997 1501h174l-208 -1501h-177l129 922h-460l-129 -922h-179l129 922h-192l22 147h193l20 158q39 289 328 289q82 0 146 -23l-19 -139q-39 12 -104 12q-82 0 -122 -40t-52 -114l-21 -143h461z" />
    <glyph glyph-name="f_f.liga" unicode="ff" horiz-adv-x="1286" 
d="M1266 1366q-152 0 -172 -154l-23 -143h256l-20 -147h-256l-129 -922h-179l131 922h-419l-129 -922h-179l129 922h-192l22 147h193l20 158q39 289 328 289q82 0 146 -23l-19 -139q-39 12 -104 12q-82 0 -122 -40t-52 -114l-21 -143h420l23 158q37 289 325 289
q80 0 148 -23l-21 -139q-38 12 -104 12z" />
    <glyph glyph-name="f_f_i.liga" unicode="ffi" horiz-adv-x="1785" 
d="M1681 1069l-151 -1069h-176l131 922h-434l-129 -922h-179l131 922h-419l-129 -922h-179l129 922h-192l22 147h193l20 158q39 289 328 289q82 0 146 -23l-19 -139q-39 12 -104 12q-82 0 -122 -40t-52 -114l-21 -143h420l23 158q37 289 325 289q80 0 148 -23l-21 -139
q-39 12 -104 12q-152 0 -172 -154l-23 -143h610zM1563 1483h176l-33 -234h-174z" />
    <glyph glyph-name="t_i.liga" unicode="ti" horiz-adv-x="1185" 
d="M963 1483h176l-33 -234h-174zM1081 1069l-151 -1069h-174l129 922h-443l-86 -621q-12 -90 19 -127t108 -37q57 0 90 13l-22 -146q-59 -16 -131 -16q-139 0 -201.5 84t-42.5 225l88 625h-182l20 147h185l45 324l186 67l-53 -391h616z" />
    <glyph glyph-name="t_t.liga" unicode="tt" horiz-adv-x="1310" 
d="M1059 922l-88 -621q-12 -90 19.5 -127t109.5 -37q55 0 88 13l-21 -146q-61 -16 -131 -16q-139 0 -201.5 84t-41.5 225l88 625h-439l-86 -621q-12 -90 19 -127t108 -37q57 0 90 13l-22 -146q-59 -16 -131 -16q-139 0 -201.5 84t-42.5 225l88 625h-182l20 147h185l45 324
l186 67l-53 -391h438l43 324l187 67l-54 -391h240l-23 -147h-237z" />
    <glyph glyph-name="t_t_i.liga" unicode="tti" horiz-adv-x="1767" 
d="M1546 1483h174l-30 -234h-177zM1663 1069l-150 -1069h-176l131 922h-426l-88 -621q-12 -90 20 -127t109 -37q55 0 88 13l-20 -146q-61 -16 -131 -16q-139 0 -201.5 84t-44.5 225l90 625h-422l-86 -621q-12 -90 19 -127t108 -37q57 0 90 13l-22 -146q-59 -16 -131 -16
q-139 0 -201.5 84t-42.5 225l88 625h-182l20 147h185l45 324l186 67l-53 -391h422l43 324l186 67l-53 -391h600z" />
    <glyph glyph-name="hyphen_hyphen_greater.liga" unicode="&#x2d;&#x2d;&#x3e;" horiz-adv-x="1753" 
d="M211 475v121h1264l-347 475h146l401 -534l-401 -537h-146l347 475h-1264z" />
    <glyph glyph-name="less_hyphen_hyphen.liga" unicode="&#x3c;&#x2d;&#x2d;" horiz-adv-x="1748" 
d="M1542 475h-1263l346 -475h-146l-401 537l401 534h146l-346 -475h1263v-121z" />
    <glyph glyph-name=".notdef" horiz-adv-x="1527" 
d="M135 0v1493h1319v-1493h-1319zM264 127h1061v1237h-1061v-1237zM393 256v979h803v-979h-803zM522 387h545v719h-545v-719zM651 516v461h287v-461h-287z" />
    <glyph glyph-name="glyph1" 
 />
    <glyph glyph-name="glyph2" horiz-adv-x="681" 
 />
    <glyph glyph-name="uni000D" unicode="&#xd;" horiz-adv-x="489" 
 />
    <glyph glyph-name="space" unicode=" " horiz-adv-x="477" 
 />
    <glyph glyph-name="exclam" unicode="!" horiz-adv-x="573" 
d="M233 449l41 620l60 424h178l-59 -424l-134 -620h-86zM111 0l26 186h203l-27 -186h-202z" />
    <glyph glyph-name="quotedbl" unicode="&#x22;" horiz-adv-x="724" 
d="M287 895h-74l-2 330l39 268h168l-39 -268zM618 895h-75v330l37 268h168l-39 -268z" />
    <glyph glyph-name="numbersign" unicode="#" horiz-adv-x="1476" 
d="M1413 985h-239l-60 -426h238l-17 -119h-237l-62 -440h-125l62 440h-490l-61 -440h-127l61 440h-239l16 119h240l59 426h-237l16 117h238l61 434h127l-62 -434h490l61 434h125l-61 -434h240zM989 559l60 426h-490l-59 -426h489z" />
    <glyph glyph-name="dollar" unicode="$" horiz-adv-x="1116" 
d="M1012 1026h-164q4 102 -60.5 166.5t-177 64.5t-181.5 -57t-69 -149q0 -137 175 -187l184 -49q129 -33 200.5 -120t71.5 -212q0 -168 -123 -269t-317 -110l-27 -182h-137l29 193q-156 27 -242 132t-82 259h168q-4 -117 69.5 -189.5t198.5 -72.5t201 60.5t76 160.5
q0 147 -176 197l-152 38q-303 82 -303 328q0 166 116 265.5t306 103.5l25 182h135l-27 -195q139 -29 215 -125t68 -233z" />
    <glyph glyph-name="percent" unicode="%" horiz-adv-x="1898" 
d="M207 1112q0 176 111.5 286.5t277.5 110.5q150 0 242 -95t92 -251q0 -176 -111.5 -286.5t-277.5 -110.5q-150 0 -242 95t-92 251zM317 0l1158 1493h147l-1155 -1493h-150zM354 1116q0 -102 53.5 -162.5t139.5 -60.5q100 0 167.5 77t67.5 193q0 102 -53 161.5t-139 59.5
q-100 0 -168 -75.5t-68 -192.5zM1022 326q0 176 111.5 286.5t277.5 110.5q150 0 243 -95.5t93 -250.5q0 -176 -111.5 -286.5t-277.5 -110.5q-152 0 -244 95t-92 251zM1171 328q0 -100 52.5 -161t140.5 -61q100 0 166.5 76t66.5 193q0 102 -52 162.5t-140 60.5
q-100 0 -167 -76.5t-67 -193.5z" />
    <glyph glyph-name="ampersand" unicode="&#x26;" horiz-adv-x="1431" 
d="M1384 676h-161q-37 -233 -131 -383l223 -293h-228l-120 160q-193 -180 -488 -180q-188 0 -299.5 87t-111.5 238q0 289 389 498l2 14q-88 100 -125 169t-37 140q0 166 119 274.5t303 108.5q150 0 234.5 -72.5t84.5 -197.5q0 -133 -84 -233.5t-243 -202.5l-2 -19l280 -370
q70 147 103 397h311zM694 1364q-98 0 -160.5 -61.5t-62.5 -157.5q0 -106 129 -246h18q246 164 246 318q0 66 -46 106.5t-124 40.5zM518 135q104 0 200.5 38t158.5 101l-328 431q-295 -152 -295 -363q0 -98 70.5 -152.5t193.5 -54.5z" />
    <glyph glyph-name="quotesingle" unicode="'" horiz-adv-x="395" 
d="M287 895h-74l-2 330l39 268h168l-39 -268z" />
    <glyph glyph-name="parenleft" unicode="(" horiz-adv-x="825" 
d="M172 492q0 313 171 618t435 465h131q-264 -156 -435 -462t-171 -619q0 -236 92 -442t252 -322h-129q-164 119 -255 324t-91 438z" />
    <glyph glyph-name="parenright" unicode=")" horiz-adv-x="821" 
d="M690 811q0 -315 -171 -619.5t-435 -461.5h-129q264 158 434 464t170 621q0 238 -92 441.5t-254 318.5h129q162 -117 255 -322.5t93 -441.5z" />
    <glyph glyph-name="asterisk" unicode="*" horiz-adv-x="712" 
d="M160 1092l233 102l-205 106l64 89l176 -144l12 248h99l-58 -250l219 146l39 -89l-237 -106l209 -102l-64 -86l-178 143l-14 -250h-99l60 250l-217 -143z" />
    <glyph glyph-name="plus" unicode="+" horiz-adv-x="1318" 
d="M743 588l-61 -441h-156l62 441h-406l21 149h405l60 420h155l-57 -420h405l-20 -149h-408z" />
    <glyph glyph-name="comma" unicode="," horiz-adv-x="415" 
d="M-31 -291l11 88q145 0 165 144l9 59h-125l34 252h230l-43 -309q-16 -111 -92 -172.5t-189 -61.5z" />
    <glyph glyph-name="hyphen" unicode="-" horiz-adv-x="944" 
d="M127 555l18 121h693l-17 -121h-694z" />
    <glyph glyph-name="period" unicode="." horiz-adv-x="505" 
d="M61 0l37 258h232l-37 -258h-232z" />
    <glyph glyph-name="slash" unicode="/" horiz-adv-x="841" 
d="M-16 0l804 1493h130l-803 -1493h-131z" />
    <glyph glyph-name="zero" unicode="0" horiz-adv-x="1306" 
d="M596 -14q-213 0 -328.5 160.5t-115.5 437.5q0 391 178 651t446 260q209 0 323.5 -159.5t114.5 -432.5q0 -395 -176 -656t-442 -261zM600 145q186 0 307 216.5t121 543.5q0 215 -69.5 322.5t-190.5 107.5q-186 0 -307 -215t-121 -542q0 -215 69.5 -324t190.5 -109z" />
    <glyph glyph-name="one" unicode="1" horiz-adv-x="931" 
d="M186 1085l21 140h57q143 0 242.5 69.5t116.5 182.5h165l-206 -1477h-176l151 1085h-371z" />
    <glyph glyph-name="two" unicode="2" horiz-adv-x="1185" 
d="M309 152l244 10h471l-23 -162h-927l8 51q18 119 74.5 217.5t132.5 167t163 128t171 113.5t151.5 111.5t109.5 132t42 164.5q0 113 -71 180.5t-185 67.5q-137 0 -214 -79.5t-73 -211.5h-178q0 199 133 326t336 127q205 0 323.5 -109.5t118.5 -295.5q0 -102 -39 -189.5
t-102.5 -152t-141 -123t-159.5 -111.5t-155 -105.5t-130 -118.5t-80 -138z" />
    <glyph glyph-name="three" unicode="3" horiz-adv-x="1216" 
d="M553 -20q-221 0 -338 129t-98 337h188q-18 -137 48.5 -222t207.5 -85q139 0 229.5 81t90.5 212q0 121 -79 186.5t-202 65.5h-100l20 156h96q150 0 242 76.5t92 195.5q0 100 -68.5 160.5t-183.5 60.5q-137 0 -220 -83t-85 -218h-186q2 211 147.5 337t366.5 126
q190 0 306 -99.5t116 -265.5q0 -127 -75 -226t-200 -140v-12q96 -39 149.5 -122t53.5 -196q0 -201 -145.5 -327.5t-372.5 -126.5z" />
    <glyph glyph-name="four" unicode="4" horiz-adv-x="1251" 
d="M969 473h184l-20 -154h-187l-45 -319h-178l45 319h-725l23 156l763 1002h281zM791 473l122 875l-659 -875h537z" />
    <glyph glyph-name="five" unicode="5" horiz-adv-x="1243" 
d="M1139 1317h-688l-86 -453l8 -2q119 113 303 113q193 0 310.5 -125t117.5 -330q0 -238 -150.5 -389t-384.5 -151q-211 0 -335.5 130t-118.5 341h178q-6 -145 67.5 -228.5t208.5 -83.5q154 0 248 103.5t94 267.5q0 143 -74.5 226t-199.5 83q-92 0 -177 -43t-122 -108h-172
l145 809h850z" />
    <glyph glyph-name="six" unicode="6" horiz-adv-x="1269" 
d="M614 -20q-453 0 -452 606q0 186 40 348t117.5 289t202.5 199.5t283 72.5q182 0 300 -103.5t128 -271.5h-184q-10 98 -81 157.5t-175 59.5q-180 0 -293 -154.5t-140 -424.5h11q121 201 374 200q172 0 284 -118.5t112 -311.5q0 -238 -149 -393t-378 -155zM614 139
q145 0 240.5 108.5t95.5 268.5q0 135 -68.5 212t-185.5 77q-145 0 -245.5 -112.5t-98.5 -272.5q2 -129 73.5 -205t188.5 -76z" />
    <glyph glyph-name="seven" unicode="7" horiz-adv-x="1120" 
d="M150 1047l59 430h971l-19 -127q-248 -291 -457.5 -655.5t-316.5 -694.5h-194q98 313 299.5 667.5t445.5 649.5h-598l-39 -270h-151z" />
    <glyph glyph-name="eight" unicode="8" horiz-adv-x="1220" 
d="M94 350q0 129 73 232.5t195 148.5l3 17q-170 94 -170 307q0 195 148.5 316.5t381.5 121.5q207 0 332 -101.5t125 -269.5q0 -129 -73 -233.5t-196 -145.5l-2 -16q170 -94 170 -307q0 -197 -148.5 -318.5t-381.5 -121.5q-207 0 -332 101t-125 269zM379 1049
q0 -111 72.5 -174.5t201.5 -63.5q147 0 241.5 82t94.5 205q0 106 -76.5 170.5t-201.5 64.5q-147 0 -239.5 -78.5t-92.5 -205.5zM287 377q0 -106 75.5 -172t202.5 -66q145 0 237.5 80t92.5 207q0 111 -71.5 174.5t-200.5 63.5q-147 0 -241.5 -82t-94.5 -205z" />
    <glyph glyph-name="nine" unicode="9" horiz-adv-x="1265" 
d="M530 -20q-184 0 -298.5 101t-135.5 273h183q8 -96 75.5 -156.5t184.5 -60.5q180 0 293.5 153.5t140.5 436.5h-10q-53 -96 -151.5 -153.5t-221.5 -57.5q-182 0 -293 119t-111 313q0 246 145.5 396.5t381.5 150.5q455 0 454 -602q0 -254 -68.5 -457t-215 -329.5
t-353.5 -126.5zM633 672q152 0 246 102.5t94 265.5q0 133 -73 214t-191 81q-150 0 -240 -105.5t-90 -275.5q0 -127 68.5 -204.5t185.5 -77.5z" />
    <glyph glyph-name="colon" unicode=":" horiz-adv-x="561" 
d="M215 838l33 231h231l-33 -231h-231zM98 0l31 229h231l-32 -229h-230z" />
    <glyph glyph-name="semicolon" unicode=";" horiz-adv-x="497" 
d="M150 838l32 231h230l-33 -231h-229zM-25 -266l13 78q59 0 95 20.5t47 46t17 64.5l9 57h-125l32 229h230l-39 -286q-14 -100 -89 -154.5t-190 -54.5z" />
    <glyph glyph-name="less" unicode="&#x3c;" horiz-adv-x="1136" 
d="M889 72l-719 456l18 140l846 428l-28 -197l-652 -297l-2 -14l299 -166l267 -156z" />
    <glyph glyph-name="equal" unicode="=" horiz-adv-x="1124" 
d="M209 735l22 166h766l-24 -166h-764zM150 315l24 164h764l-23 -164h-765z" />
    <glyph glyph-name="greater" unicode="&#x3e;" horiz-adv-x="1136" 
d="M117 72l26 194l310 156l350 166l2 14l-572 297l27 197l725 -428l-18 -140z" />
    <glyph glyph-name="question" unicode="?" horiz-adv-x="1193" 
d="M406 403l57 398q72 -12 139 -13q166 0 263.5 77t97.5 214q0 121 -83 197t-210 76q-131 0 -218 -71t-98 -183h-176q25 186 163 298.5t337 112.5q209 0 337 -116.5t128 -302.5q0 -209 -150.5 -332t-382.5 -113l-35 -242h-169zM315 0l31 225h234l-31 -225h-234z" />
    <glyph glyph-name="at" unicode="@" horiz-adv-x="1878" 
d="M109 492q0 434 282.5 726.5t702.5 292.5q317 0 506.5 -174t189.5 -465q0 -274 -138.5 -466.5t-336.5 -192.5q-94 0 -145.5 46t-55.5 122h-14q-94 -164 -277 -164q-115 0 -188.5 79t-73.5 224q0 219 123 378t291 159q74 0 129 -35t78 -96h12l35 106h112l-110 -522
q-35 -174 100 -174q129 0 222.5 153.5t93.5 364.5q0 244 -156 386t-422 142q-350 0 -578.5 -247.5t-228.5 -626.5q0 -266 156.5 -427t447.5 -161q260 0 504 109l-18 -133q-221 -102 -506 -103q-340 0 -538.5 188.5t-198.5 510.5zM702 537q0 -92 41 -142.5t115 -50.5
q119 0 200 112.5t81 274.5q0 96 -42 149.5t-118 53.5q-117 0 -197 -115.5t-80 -281.5z" />
    <glyph glyph-name="A" unicode="A" horiz-adv-x="1361" 
d="M1085 0l-77 352h-697l-174 -352h-203l768 1493h218l358 -1493h-193zM389 506h584l-178 799h-11z" />
    <glyph glyph-name="B" unicode="B" horiz-adv-x="1456" 
d="M133 0l209 1493h666q184 0 286.5 -87t102.5 -232q0 -133 -73 -242t-196 -154l-2 -16q100 -33 153.5 -110t53.5 -181q0 -207 -150.5 -339t-387.5 -132h-662zM434 842h455q139 0 225 78.5t86 209.5q0 96 -65.5 150.5t-176.5 54.5h-454zM338 160h461q158 0 249 84t91 229
q0 104 -71 157.5t-196 53.5h-460z" />
    <glyph glyph-name="C" unicode="C" horiz-adv-x="1587" 
d="M1479 489q-53 -229 -238.5 -369t-439.5 -140q-303 0 -488.5 200.5t-185.5 530.5q0 350 207 575t532 225q250 0 423 -138t212 -367h-192q-39 150 -160 241.5t-281 91.5q-236 0 -390 -178t-154 -452q0 -252 133 -404.5t348 -152.5q164 0 297 93t186 244h191z" />
    <glyph glyph-name="D" unicode="D" horiz-adv-x="1542" 
d="M133 0l209 1493h498q305 0 472 -183.5t167 -496.5q0 -365 -231.5 -589t-610.5 -224h-504zM342 170h283q297 0 477 175t180 470q0 246 -129 377t-350 131h-299z" />
    <glyph glyph-name="E" unicode="E" horiz-adv-x="1323" 
d="M133 0l209 1493h991l-22 -170h-807l-66 -473h709l-25 -162h-708l-72 -518h807l-25 -170h-991z" />
    <glyph glyph-name="F" unicode="F" horiz-adv-x="1253" 
d="M133 0l209 1493h975l-23 -170h-790l-80 -571h706l-20 -162h-709l-84 -590h-184z" />
    <glyph glyph-name="G" unicode="G" horiz-adv-x="1679" 
d="M776 788h770l-110 -788h-152l14 260h-14q-76 -135 -212 -207.5t-310 -72.5q-287 0 -462 196.5t-175 519.5q0 358 207 586.5t536 228.5q248 0 418 -131t211 -350h-194q-35 139 -152 224t-279 85q-242 0 -396 -183t-154 -464q0 -248 130 -400.5t345 -152.5q213 0 354 141.5
t168 348.5h-565z" />
    <glyph glyph-name="H" unicode="H" horiz-adv-x="1642" 
d="M133 0l209 1493h184l-90 -649h858l90 649h185l-209 -1493h-184l94 684h-856l-97 -684h-184z" />
    <glyph glyph-name="I" unicode="I" horiz-adv-x="600" 
d="M317 0h-184l209 1493h184z" />
    <glyph glyph-name="J" unicode="J" horiz-adv-x="804" 
d="M590 403q-61 -420 -463 -419q-117 0 -170 16l25 166q47 -12 155 -12q231 0 269 260l151 1079h184z" />
    <glyph glyph-name="K" unicode="K" horiz-adv-x="1374" 
d="M1481 1493l-635 -651l446 -842h-219l-368 696l-338 -348l-50 -348h-184l209 1493h184l-125 -891l861 891h219z" />
    <glyph glyph-name="L" unicode="L" horiz-adv-x="1167" 
d="M133 0l209 1493h184l-184 -1321h702l-24 -172h-887z" />
    <glyph glyph-name="M" unicode="M" horiz-adv-x="1863" 
d="M133 0l209 1493h248l319 -1079h13l622 1079h248l-209 -1493h-182l112 809l80 438h-12l-719 -1220l-375 1220h-12l-45 -440l-115 -807h-182z" />
    <glyph glyph-name="N" unicode="N" horiz-adv-x="1619" 
d="M133 0l209 1493h229l619 -1260h8l51 453l113 807h184l-209 -1493h-231l-614 1260h-9l-49 -435l-117 -825h-184z" />
    <glyph glyph-name="O" unicode="O" horiz-adv-x="1615" 
d="M125 680q0 373 213 602t559 229q289 0 472 -194.5t183 -503.5q0 -373 -214 -603t-562 -230q-287 0 -469 194.5t-182 505.5zM324 680q0 -233 128 -380.5t328 -147.5q256 0 415 182t159 477q0 231 -130 379.5t-329 148.5q-256 0 -413.5 -182t-157.5 -477z" />
    <glyph glyph-name="P" unicode="P" horiz-adv-x="1390" 
d="M922 1493q223 0 349 -120t126 -326q0 -240 -160 -373t-432 -131l-410 2l-78 -545h-184l209 1493h580zM799 709q199 0 300 89t101 246q0 131 -83 204t-222 73h-391l-86 -612h381z" />
    <glyph glyph-name="Q" unicode="Q" horiz-adv-x="1617" 
d="M956 -2q90 -197 367 -197q61 0 96 6l-22 -165q-33 -4 -82 -4q-217 0 -342 92t-162 250h-35q-287 0 -469 194.5t-182 505.5q0 373 213 602t559 229q289 0 472 -194.5t183 -503.5q0 -322 -161 -540t-435 -275zM324 680q0 -233 128 -380.5t328 -147.5q256 0 415 182t159 477
q0 231 -130 379.5t-329 148.5q-256 0 -413.5 -182t-157.5 -477z" />
    <glyph glyph-name="R" unicode="R" horiz-adv-x="1458" 
d="M133 0l209 1493h616q215 0 335 -106.5t120 -290.5q0 -133 -79 -245t-224 -155l-2 -14q211 -47 176 -283l-33 -235q-16 -109 -2 -164h-188q-14 45 4 180l27 178q16 119 -22 174.5t-173 55.5h-496l-84 -588h-184zM424 756h407q178 0 279.5 87t101.5 222q0 125 -72.5 193.5
t-215.5 68.5h-420z" />
    <glyph glyph-name="S" unicode="S" horiz-adv-x="1343" 
d="M281 463q-2 -150 97 -241t269 -91q158 0 255 79t97 208q0 63 -22.5 109t-64.5 72t-70.5 38t-69.5 22l-184 48q-371 100 -371 378q0 193 143.5 310.5t377 117.5t373.5 -123.5t146 -332.5h-192q-2 137 -91 221t-239 84q-141 0 -227 -68.5t-86 -181.5q0 -90 57.5 -143.5
t171.5 -81.5l217 -53q164 -41 249 -143.5t85 -244.5q0 -211 -152.5 -338.5t-406.5 -127.5q-248 0 -399.5 132t-155.5 351h193z" />
    <glyph glyph-name="T" unicode="T" horiz-adv-x="1136" 
d="M1260 1493l-25 -170h-461l-188 -1323h-185l187 1323h-467l24 170h1115z" />
    <glyph glyph-name="U" unicode="U" horiz-adv-x="1591" 
d="M207 618l123 875h184l-125 -895q-29 -203 68.5 -324.5t298.5 -121.5q188 0 310 113.5t148 303.5l132 924h184l-133 -940q-41 -283 -215 -428t-432 -145q-285 0 -434.5 175.5t-108.5 462.5z" />
    <glyph glyph-name="V" unicode="V" horiz-adv-x="1341" 
d="M475 0l-328 1493h197l152 -717l108 -608h12l287 608l352 717h207l-745 -1493h-242z" />
    <glyph glyph-name="W" unicode="W" horiz-adv-x="1898" 
d="M158 1493h194l51 -889l11 -399h14l526 1288h252l168 -1288h12l123 397l297 891h203l-514 -1493h-260l-174 1290h-10l-537 -1290h-260z" />
    <glyph glyph-name="X" unicode="X" horiz-adv-x="1261" 
d="M-47 0l584 756l-359 737h209l150 -313l137 -312h12l242 326l225 299h219l-575 -745l364 -748h-209l-135 281l-155 337h-15l-266 -354l-207 -264h-221z" />
    <glyph glyph-name="Y" unicode="Y" horiz-adv-x="1325" 
d="M145 1493h213l181 -387l141 -326h14l238 328l282 385h234l-684 -889l-84 -604h-184l84 604z" />
    <glyph glyph-name="Z" unicode="Z" horiz-adv-x="1177" 
d="M1274 1493l-21 -150l-1015 -1171h841l-24 -172h-1092l21 150l1017 1173h-851l22 170h1102z" />
    <glyph glyph-name="bracketleft" unicode="[" horiz-adv-x="647" 
d="M96 -440l287 2039h362l-16 -112h-235l-256 -1817h235l-16 -110h-361z" />
    <glyph glyph-name="backslash" unicode="\" horiz-adv-x="847" 
d="M709 0h-131l-385 1493h129z" />
    <glyph glyph-name="bracketright" unicode="]" horiz-adv-x="647" 
d="M-86 -440l14 110h238l256 1817h-238l17 112h362l-289 -2039h-360z" />
    <glyph glyph-name="asciicircum" unicode="^" horiz-adv-x="749" 
d="M625 971l-140 362l-237 -362h-158l354 522h131l205 -522h-155z" />
    <glyph glyph-name="underscore" unicode="_" horiz-adv-x="694" 
d="M-98 -143l20 143h703l-21 -143h-702z" />
    <glyph glyph-name="grave" unicode="`" horiz-adv-x="890" 
d="M725 1481l-356 221l100 141l324 -272z" />
    <glyph glyph-name="a" unicode="a" horiz-adv-x="1128" 
d="M57 281q0 156 107.5 256t312.5 100h340l6 53q16 125 -44 192.5t-183 67.5q-113 0 -180.5 -52t-83.5 -138h-172q27 154 147.5 242t302.5 88q209 0 310.5 -117t72.5 -322l-63 -436q-10 -86 55 -86q23 0 39 8l-20 -137q-39 -12 -82 -12q-84 0 -126 48t-28 144h-14
q-49 -96 -146.5 -148t-218.5 -52q-150 0 -241 83t-91 218zM242 307q0 -90 56 -135t153 -45q133 0 226 89t111 235l7 55h-297q-127 0 -191.5 -55.5t-64.5 -143.5z" />
    <glyph glyph-name="b" unicode="b" horiz-adv-x="1310" 
d="M104 0l209 1501h179l-89 -631h15q49 94 156.5 157t234.5 63q186 0 299 -135.5t113 -360.5q0 -274 -154 -444t-383 -170q-125 0 -223.5 63t-134.5 168h-15l-45 -211h-162zM365 571q-35 -195 46 -315.5t242 -120.5q170 0 277.5 126t107.5 319q0 164 -80.5 258t-218 94
t-241 -90t-129.5 -236z" />
    <glyph glyph-name="c" unicode="c" horiz-adv-x="1171" 
d="M1065 365q-35 -174 -172 -279.5t-332 -105.5q-217 0 -344 136t-127 365q0 262 159 435.5t406 173.5q188 0 311.5 -101.5t137.5 -267.5h-178q-14 94 -89 152.5t-184 58.5q-166 0 -273.5 -129t-107.5 -324q0 -160 80 -251t213 -91q119 0 208 64.5t112 163.5h180z" />
    <glyph glyph-name="d" unicode="d" horiz-adv-x="1310" 
d="M1055 0h-160l14 197h-12q-53 -102 -158.5 -159.5t-228.5 -57.5q-193 0 -307.5 125.5t-114.5 345.5q0 270 151.5 454.5t387.5 184.5q131 0 225 -62.5t137 -167.5h10l91 641h178zM948 479l6 47q25 197 -59 301.5t-229 104.5q-172 0 -284 -130t-112 -331q0 -162 81 -249
t222 -87q143 0 249 92t126 252z" />
    <glyph glyph-name="e" unicode="e" horiz-adv-x="1193" 
d="M575 -20q-219 0 -351 135t-132 372q0 262 153.5 432.5t397.5 170.5q205 0 331 -121t126 -324q0 -74 -19 -147h-805q-18 -176 66 -275.5t231 -99.5q111 0 198 54t122 142h180q-45 -154 -181.5 -246.5t-316.5 -92.5zM297 629h623q14 141 -66 229t-219 88q-133 0 -226.5 -85
t-111.5 -232z" />
    <glyph glyph-name="f" unicode="f" horiz-adv-x="688" 
d="M709 922h-254l-129 -922h-179l129 922h-192l22 147h193l20 158q39 289 328 289q82 0 146 -23l-19 -139q-39 12 -104 12q-82 0 -122 -40t-52 -114l-21 -143h256z" />
    <glyph glyph-name="g" unicode="g" horiz-adv-x="1107" 
d="M-12 -117q0 84 53 140.5t139 76.5l2 15q-39 16 -62.5 53t-23.5 82q0 66 45 119t121 73l2 17q-119 86 -119 256q0 166 121 270.5t305 104.5q137 0 220 -56q41 88 131 143.5t208 55.5l-20 -148q-72 0 -138.5 -32.5t-84.5 -83.5q76 -86 76 -224q0 -162 -120 -263t-306 -101
q-86 0 -152 18q-55 -4 -88 -34.5t-33 -73.5q0 -82 131 -82h277q139 0 216 -68.5t77 -185.5q0 -156 -142.5 -241t-384.5 -85q-221 0 -335.5 68.5t-114.5 185.5zM322 721q0 -96 59 -152.5t160 -56.5q106 0 176.5 65.5t70.5 170.5q0 96 -59 152t-160 56q-106 0 -176.5 -65.5
t-70.5 -169.5zM154 -86q0 -152 288 -152q166 0 255 50.5t89 136.5q0 111 -145 110h-289q-92 0 -145 -41t-53 -104z" />
    <glyph glyph-name="h" unicode="h" horiz-adv-x="1263" 
d="M104 0l209 1501h179l-89 -627h15q63 100 167.5 158t223.5 58q172 0 255 -116t54 -315l-92 -659h-178l90 641q39 291 -211 291q-141 0 -243.5 -100.5t-123.5 -266.5l-79 -565h-177z" />
    <glyph glyph-name="i" unicode="i" horiz-adv-x="534" 
d="M281 1249l30 234h176l-32 -234h-174zM104 0l150 1069h176l-151 -1069h-175z" />
    <glyph glyph-name="j" unicode="j" horiz-adv-x="544" 
d="M289 1249l35 234h176l-35 -234h-176zM-57 -354q-55 0 -101 10l21 151q18 -6 61 -6q160 0 187 166l153 1102h176l-157 -1120q-20 -143 -112.5 -223t-227.5 -80z" />
    <glyph glyph-name="k" unicode="k" horiz-adv-x="1138" 
d="M1153 1069l-471 -418l342 -651h-205l-276 528l-213 -188l-47 -340h-179l209 1501h179l-132 -940l566 508h227z" />
    <glyph glyph-name="l" unicode="l" horiz-adv-x="532" 
d="M104 0l209 1501h176l-210 -1501h-175z" />
    <glyph glyph-name="m" unicode="m" horiz-adv-x="1898" 
d="M104 0l150 1069h154l-5 -199h15q131 219 362 220q111 0 184.5 -64.5t94.5 -169.5h16q61 113 164.5 173.5t220.5 60.5q166 0 245 -116t50 -317l-92 -657h-178l90 639q41 293 -195 293q-137 0 -220 -98.5t-107 -266.5l-80 -567h-178l90 641q43 291 -189 291
q-131 0 -222 -100.5t-114 -262.5l-79 -569h-177z" />
    <glyph glyph-name="n" unicode="n" horiz-adv-x="1265" 
d="M104 0l150 1069h156l-4 -199h12q63 102 167.5 161t223.5 59q174 0 257 -117t54 -316l-92 -657h-178l90 639q41 293 -211 293q-141 0 -243.5 -102.5t-125.5 -270.5l-79 -559h-177z" />
    <glyph glyph-name="o" unicode="o" horiz-adv-x="1224" 
d="M92 494q0 262 154.5 429t400.5 167q219 0 352.5 -138.5t133.5 -376.5q0 -262 -155 -428.5t-400 -166.5q-219 0 -352.5 138t-133.5 376zM274 494q0 -166 83 -261.5t223 -95.5q162 0 265 123t103 315q0 166 -83 261.5t-220 95.5q-162 0 -266.5 -122.5t-104.5 -315.5z" />
    <glyph glyph-name="p" unicode="p" horiz-adv-x="1314" 
d="M254 1069h141l6 -197h13q55 104 158.5 161t226.5 57q193 0 307.5 -138.5t114.5 -365.5q0 -268 -148.5 -437t-372.5 -169q-137 0 -236 64.5t-140 176.5h-13l-80 -563h-176zM362 590l-4 -33q-23 -193 59.5 -306.5t248.5 -113.5q168 0 270 119t102 311q0 168 -80.5 267.5
t-224 99.5t-247.5 -95t-124 -249z" />
    <glyph glyph-name="q" unicode="q" horiz-adv-x="1310" 
d="M1208 1069l-198 -1411h-179l74 524h-14q-53 -98 -155.5 -150t-223.5 -52q-193 0 -307.5 137t-114.5 362q0 270 152.5 440.5t375.5 170.5q133 0 230.5 -62.5t138.5 -169.5h12l45 211h164zM948 498q33 195 -51 315.5t-244 120.5q-166 0 -272.5 -127t-106.5 -322
q0 -164 79 -256t222 -92q141 0 242 89t125 237z" />
    <glyph glyph-name="r" unicode="r" horiz-adv-x="743" 
d="M104 0l150 1069h156l-7 -217h11q55 106 159.5 169.5t221.5 63.5l-25 -159q-180 -4 -285.5 -119t-132.5 -311l-71 -496h-177z" />
    <glyph glyph-name="s" unicode="s" horiz-adv-x="1021" 
d="M227 346q-2 -104 65.5 -165.5t186.5 -61.5q102 0 169 47t67 133q0 41 -16.5 71.5t-46 46t-47 21.5t-46.5 13l-129 32q-270 61 -270 279q0 145 111.5 236.5t289.5 91.5q180 0 287.5 -93.5t109.5 -248.5h-170q0 92 -63 148t-170 56q-96 0 -154.5 -45t-58.5 -127
q0 -41 14.5 -69.5t46 -44t48 -20.5t55.5 -13l119 -29q279 -63 278 -289q0 -154 -116.5 -244.5t-305.5 -90.5q-193 0 -307.5 100t-116.5 266h170z" />
    <glyph glyph-name="t" unicode="t" horiz-adv-x="694" 
d="M102 1069h185l45 324l186 67l-53 -391h237l-22 -147h-238l-86 -621q-12 -90 19 -127t108 -37q57 0 90 13l-22 -146q-59 -16 -131 -16q-139 0 -201.5 84t-42.5 225l88 625h-182z" />
    <glyph glyph-name="u" unicode="u" horiz-adv-x="1236" 
d="M1149 1069l-150 -1069h-151l2 199h-16q-57 -100 -162 -159.5t-232 -59.5q-164 0 -243.5 106.5t-53.5 300.5l97 682h176l-92 -657q-39 -276 198 -277q145 0 246.5 103.5t124.5 271.5l80 559h176z" />
    <glyph glyph-name="v" unicode="v" horiz-adv-x="978" 
d="M74 1069h190l107 -569l61 -318h12l142 318l270 569h197l-531 -1069h-211z" />
    <glyph glyph-name="w" unicode="w" horiz-adv-x="1523" 
d="M94 1069h187l69 -567l25 -326h10l340 893h213l98 -889h6l115 316l227 573h195l-451 -1069h-229l-61 549l-27 303h-12l-107 -303l-209 -549h-237z" />
    <glyph glyph-name="x" unicode="x" horiz-adv-x="948" 
d="M-68 0l426 539l-274 530h190l203 -412h15l313 412h203l-416 -526l278 -543h-190l-211 424h-12l-326 -424h-199z" />
    <glyph glyph-name="y" unicode="y" horiz-adv-x="958" 
d="M72 1069h188l113 -518l61 -330h12l150 330l242 518h196l-577 -1171q-74 -145 -168 -202.5t-230 -57.5q-63 0 -112 14l22 147q47 -14 90 -14q141 0 209 125l64 119z" />
    <glyph glyph-name="z" unicode="z" horiz-adv-x="901" 
d="M922 1069l-21 -137l-690 -785h588l-21 -147h-805l19 133l692 789h-582l21 147h799z" />
    <glyph glyph-name="braceleft" unicode="{" horiz-adv-x="604" 
d="M61 526l17 127q133 0 155 152l93 655q23 139 157 139h219l-16 -112h-229l-95 -678q-12 -94 -63 -150.5t-117 -62.5v-6q63 -12 97 -69.5t22 -149.5l-98 -701h229l-16 -110h-219q-137 0 -117 139l94 678q12 78 -22 113.5t-91 35.5z" />
    <glyph glyph-name="bar" unicode="|" horiz-adv-x="628" 
d="M147 -68l228 1610h162l-228 -1610h-162z" />
    <glyph glyph-name="braceright" unicode="}" horiz-adv-x="602" 
d="M541 526q-135 0 -158 -149l-94 -678q-23 -139 -158 -139h-217l14 110h228l100 701q14 92 64.5 150.5t115.5 68.5v6q-61 8 -96 63.5t-23 149.5l95 678h-228l17 112h217q66 0 96.5 -35.5t20.5 -103.5l-93 -655q-10 -68 18.5 -110t98.5 -42z" />
    <glyph glyph-name="asciitilde" unicode="~" horiz-adv-x="755" 
d="M41 578q10 139 71.5 197.5t137.5 58.5q61 0 157.5 -50.5t141.5 -50.5q92 0 110 127h103q-8 -143 -77 -204.5t-153 -61.5q-70 0 -167 49t-132 49q-82 0 -88 -114h-104z" />
    <glyph glyph-name="uni00A0" unicode="&#xa0;" horiz-adv-x="477" 
 />
    <glyph glyph-name="exclamdown" unicode="&#xa1;" horiz-adv-x="573" 
d="M319 1493h203l-26 -188h-203zM317 1044h86l-41 -620l-59 -424h-178l59 424z" />
    <glyph glyph-name="cent" unicode="&#xa2;" horiz-adv-x="1077" 
d="M618 1124q-158 0 -260 -135t-102 -342q0 -135 67.5 -206.5t188.5 -71.5q109 0 195 58t122 157h177q-49 -154 -170 -250t-279 -113l-22 -160h-138l23 160q-160 23 -250 132.5t-90 285.5q0 248 137 424t348 205l25 164h137l-25 -162q158 -16 252.5 -110.5t92.5 -237.5h-175
q-8 96 -78 149t-176 53z" />
    <glyph glyph-name="sterling" unicode="&#xa3;" horiz-adv-x="1314" 
d="M805 1352q-119 0 -200 -74t-97 -203l-37 -260h475l-22 -149h-475l-72 -502h598l47 328h162l-47 -328h2l-25 -164h-1083l24 164h146l71 502h-147l20 149h150l37 260q27 197 160 316.5t337 119.5q178 0 281.5 -94t99.5 -250h-176q-2 84 -68.5 134.5t-160.5 50.5z" />
    <glyph glyph-name="currency" unicode="&#xa4;" horiz-adv-x="1366" 
d="M150 289l169 133q-74 121 -52 269.5t128 266.5l-131 129l125 111l107 -149q125 84 272 81.5t246 -83.5l149 153l92 -113l-159 -126q74 -117 53 -268.5t-129 -270.5l127 -133l-125 -107l-104 150q-129 -88 -272.5 -88t-248.5 88l-147 -150zM424 682q-16 -125 52.5 -206
t187.5 -81q135 2 229 103.5t94 240.5q0 106 -67.5 173t-176.5 67q-121 0 -211 -79t-108 -218z" />
    <glyph glyph-name="yen" unicode="&#xa5;" horiz-adv-x="1241" 
d="M1364 1493l-539 -766h224l-23 -152h-307l-19 -131h308l-21 -153h-307l-41 -291h-184l41 291h-310l21 153h309l19 131h-308l21 152h223l-326 766h209l170 -430l119 -322h14l209 322l291 430h207z" />
    <glyph glyph-name="brokenbar" unicode="&#xa6;" horiz-adv-x="626" 
d="M285 920l88 622h162l-89 -622h-161zM147 -70l86 619h162l-86 -619h-162z" />
    <glyph glyph-name="section" unicode="&#xa7;" horiz-adv-x="1036" 
d="M125 717q0 84 49 153.5t127 102.5l2 18q-80 63 -80 168q0 145 124 240.5t312 95.5q178 0 276.5 -85t86.5 -222h-180q2 76 -57.5 115.5t-161.5 39.5q-96 0 -151.5 -44t-55.5 -119q0 -45 29.5 -80t51 -45.5t68.5 -32.5l211 -88q193 -78 193 -229q0 -172 -160 -256l-4 -21
q78 -59 78 -162q0 -152 -122 -247t-319 -95q-180 0 -281.5 82t-92.5 223h184q-2 -74 57.5 -115.5t161.5 -41.5t157.5 46t55.5 128q0 55 -34 84.5t-105 60.5l-217 90q-203 82 -203 236zM313 778q0 -92 121 -145l207 -94q59 -25 82 -37q59 55 59 139q0 27 -9 48.5t-16 33.5
t-29.5 26.5t-28 17.5t-31.5 15l-197 92q-57 25 -88 41q-70 -51 -70 -137z" />
    <glyph glyph-name="dieresis" unicode="&#xa8;" horiz-adv-x="796" 
d="M256 1516l33 243h164l-33 -243h-164zM647 1516l33 243h164l-33 -243h-164z" />
    <glyph glyph-name="copyright" unicode="&#xa9;" horiz-adv-x="1935" 
d="M995 -115q-350 0 -595.5 235.5t-245.5 604.5q0 242 115.5 435.5t307 298t420.5 104.5q350 0 595 -234.5t245 -599.5q0 -369 -245 -606.5t-597 -237.5zM993 -53q324 0 550 219t226 563q0 340 -225 557t-547 217q-326 0 -552 -219t-226 -559q0 -342 226 -560t548 -218z
M1006 276q-197 0 -324 124t-127 325t127 326t326 125q170 0 289.5 -96.5t138.5 -250.5h-152q-14 98 -91 159t-187 61q-139 0 -218 -89.5t-79 -232.5q0 -152 79.5 -236.5t215.5 -84.5q113 0 189.5 60t90.5 157h152q-16 -150 -137 -248.5t-293 -98.5z" />
    <glyph glyph-name="ordfeminine" unicode="&#xaa;" horiz-adv-x="880" 
d="M819 844q4 0 13.5 1t11.5 1l-17 -111q-31 -12 -71 -12q-129 0 -113 147h-10q-33 -72 -102.5 -110.5t-155.5 -38.5q-102 0 -165 59.5t-63 155.5q0 113 84 181.5t226 68.5h219l2 18q10 82 -34 126t-126 44q-68 0 -114 -30.5t-60 -75.5h-137q18 102 107 163.5t216 61.5
q154 0 231 -88t54 -227l-39 -277q-12 -57 43 -57zM432 838q88 0 149.5 61.5t75.5 157.5l5 26h-201q-76 0 -123 -35.5t-47 -95.5q0 -51 39 -82.5t102 -31.5z" />
    <glyph glyph-name="guillemotleft" unicode="&#xab;" horiz-adv-x="1073" 
d="M172 561l309 424h158l-285 -424l164 -428h-158zM557 561l307 424h162l-287 -424l166 -428h-160z" />
    <glyph glyph-name="logicalnot" unicode="&#xac;" horiz-adv-x="1310" 
d="M950 313l49 353h-806l22 161h973l-72 -514h-166z" />
    <glyph glyph-name="registered" unicode="&#xae;" horiz-adv-x="1280" 
d="M684 434q-231 0 -379.5 143.5t-148.5 374.5q0 248 158.5 403.5t408.5 155.5q229 0 377.5 -143t148.5 -375q0 -248 -157.5 -403.5t-407.5 -155.5zM688 496q217 0 357.5 138t140.5 359q0 207 -132 335t-335 128q-219 0 -358.5 -140t-139.5 -360q0 -205 132 -332.5
t335 -127.5zM469 715l74 528h243q68 0 107 -36t39 -95q0 -109 -103 -156l-2 -2q29 -12 47.5 -40.5t14.5 -63.5l-10 -76q-4 -47 -2 -59h-86q-6 10 0 61l8 58q4 39 -9.5 58t-58.5 19h-149l-27 -196h-86zM592 981h127q55 0 88 30.5t33 78.5q0 78 -88 77h-136z" />
    <glyph glyph-name="macron" unicode="&#xaf;" horiz-adv-x="724" 
d="M180 1507l17 129h634l-18 -129h-633z" />
    <glyph glyph-name="degree" unicode="&#xb0;" horiz-adv-x="862" 
d="M829 1217q0 -131 -89 -218.5t-222 -87.5t-214 78t-81 209t88 218t224 87q131 0 212.5 -78.5t81.5 -207.5zM696 1214q0 76 -46 123t-118 47q-78 0 -127 -52t-49 -132q0 -76 46.5 -123t117.5 -47q76 0 126 52t50 132z" />
    <glyph glyph-name="plusminus" unicode="&#xb1;" horiz-adv-x="1372" 
d="M797 694l-49 -356h-181l49 356h-419l24 166h418l51 357h180l-49 -357h422l-24 -166h-422zM100 0l23 174h1022l-25 -174h-1020z" />
    <glyph glyph-name="uni00B2" unicode="&#xb2;" horiz-adv-x="921" 
d="M313 748l199 8h348l-20 -142h-721l6 39q16 106 73.5 195.5t129 146t151.5 114.5t146.5 105.5t109.5 117t43 151.5q0 74 -46 114.5t-126 40.5q-100 0 -164.5 -57t-74.5 -160h-160q20 162 139 260.5t285 98.5q147 0 232 -76t85 -201q0 -117 -56 -212t-141 -159.5t-172 -121
t-164 -123.5t-102 -139z" />
    <glyph glyph-name="uni00B3" unicode="&#xb3;" horiz-adv-x="950" 
d="M477 598q-174 0 -262 99.5t-59 265.5h166q-20 -109 29.5 -166.5t146.5 -57.5q109 0 179.5 67.5t70.5 168.5q0 78 -55.5 122t-151.5 44h-86l18 133h80q109 0 178.5 61.5t69.5 157.5q0 70 -49.5 107.5t-126.5 37.5q-98 0 -162 -58t-76 -161h-162q16 160 134 260.5
t288 100.5q141 0 232.5 -70t91.5 -188q0 -102 -56.5 -181t-154.5 -120l-2 -11q158 -59 157 -229q0 -162 -126 -272.5t-312 -110.5z" />
    <glyph glyph-name="acute" unicode="&#xb4;" horiz-adv-x="897" 
d="M434 1479l-45 88l397 272l68 -139z" />
    <glyph glyph-name="paragraph" unicode="&#xb6;" horiz-adv-x="1386" 
d="M666 1493h634l-18 -135h-149l-191 -1360q-39 -285 -319 -285h-525l19 123h311l129 916q-170 0 -263 83t-93 222q0 195 129 315.5t336 120.5zM795 -4l190 1362h-192l-213 -1522h55q74 0 112 39t48 121z" />
    <glyph glyph-name="periodcentered" unicode="&#xb7;" horiz-adv-x="577" 
d="M141 565q0 76 49.5 124t118.5 48q59 0 100.5 -39t41.5 -106q0 -74 -49.5 -122t-118.5 -48q-59 0 -100.5 38.5t-41.5 104.5z" />
    <glyph glyph-name="cedilla" unicode="&#xb8;" horiz-adv-x="1079" 
d="M455 -70q61 -2 103 -38.5t42 -104.5q0 -86 -64.5 -128t-145.5 -36t-136 45l14 99q45 -53 133 -51.5t88 77.5q0 53 -54 68.5t-109 -6.5l6 51l129 155h65l-8 -57z" />
    <glyph glyph-name="uni00B9" unicode="&#xb9;" horiz-adv-x="724" 
d="M203 1444l16 123h47q111 0 188.5 55t92.5 143h147l-162 -1151h-155l117 830h-291z" />
    <glyph glyph-name="ordmasculine" unicode="&#xba;" horiz-adv-x="909" 
d="M166 1059q0 188 115.5 311t298.5 123q145 0 234 -93t89 -245q0 -190 -115.5 -312t-295.5 -122q-145 0 -235.5 93t-90.5 245zM311 1067q0 -102 51.5 -163.5t139.5 -61.5q111 0 184.5 86t73.5 219q0 100 -53.5 162.5t-139.5 62.5q-113 0 -184.5 -86t-71.5 -219z" />
    <glyph glyph-name="guillemotright" unicode="&#xbb;" horiz-adv-x="1073" 
d="M524 561l-305 -428h-160l287 428l-166 424h160zM911 561l-307 -428h-160l287 428l-166 424h160z" />
    <glyph glyph-name="onequarter" unicode="&#xbc;" horiz-adv-x="1818" 
d="M1337 1573h150l-1071 -1667h-148zM313 524l97 680h-254l16 121h92q90 0 138.5 45t48.5 115v8h149l-137 -969h-150zM1618 328h111l-19 -138h-111l-26 -190h-152l27 190h-440l18 129l440 664h244zM1192 328h274l72 516z" />
    <glyph glyph-name="onehalf" unicode="&#xbd;" horiz-adv-x="1837" 
d="M1337 1573h150l-1071 -1667h-148zM313 524l97 680h-254l16 121h92q90 0 138.5 45t48.5 115v8h149l-137 -969h-150zM1270 133l155 6h277l-21 -139h-604l4 33q14 109 76 195.5t139.5 142t153.5 106.5t127 115.5t51 142.5q0 59 -36 93t-99 34q-78 0 -129 -51t-59 -129
l-150 12q23 133 123 217t242 84q125 0 196.5 -65.5t71.5 -173.5q0 -96 -44 -176t-111.5 -134.5t-138.5 -100.5t-135 -101.5t-89 -110.5z" />
    <glyph glyph-name="threequarters" unicode="&#xbe;" horiz-adv-x="1966" 
d="M1485 1573h149l-1071 -1667h-147zM748 835.5q0 -137.5 -105.5 -232.5t-259.5 -95q-147 0 -221 86t-51 219h153q-14 -82 26 -127t111 -45q78 0 133.5 52t55.5 128q0 61 -44 95t-114 34h-74l21 140h61q84 0 137.5 48t53.5 124q0 53 -37 81.5t-92 28.5q-74 0 -123 -47
t-57 -125h-154q12 133 107.5 219t244.5 86q123 0 198 -59.5t75 -161.5q0 -176 -172 -250v-10q127 -51 127 -188.5zM1765 328h111l-18 -138h-111l-27 -190h-151l26 190h-440l19 129l440 664h244zM1339 328h275l72 516z" />
    <glyph glyph-name="questiondown" unicode="&#xbf;" horiz-adv-x="1193" 
d="M938 1493l-31 -225h-233l31 225h233zM848 1090l-57 -398q-72 12 -140 13q-166 0 -263 -77t-97 -214q0 -121 83 -197t210 -76q131 0 218 71t97 183h176q-25 -186 -163 -298.5t-337 -112.5q-209 0 -336.5 116.5t-127.5 302.5q0 209 151.5 332t380.5 113l35 242h170z" />
    <glyph glyph-name="Agrave" unicode="&#xc0;" horiz-adv-x="1361" 
d="M897 1688l-68 -91l-356 222l100 141zM1085 0l-77 352h-697l-174 -352h-203l768 1493h218l358 -1493h-193zM389 506h584l-178 799h-11z" />
    <glyph glyph-name="Aacute" unicode="&#xc1;" horiz-adv-x="1361" 
d="M1241 1817l-420 -222l-45 88l398 273zM1085 0l-77 352h-697l-174 -352h-203l768 1493h218l358 -1493h-193zM389 506h584l-178 799h-11z" />
    <glyph glyph-name="Acircumflex" unicode="&#xc2;" horiz-adv-x="1361" 
d="M870 1823l-245 -226l-84 84l278 254h119l205 -252l-92 -86zM1085 0l-77 352h-697l-174 -352h-203l768 1493h218l358 -1493h-193zM389 506h584l-178 799h-11z" />
    <glyph glyph-name="Atilde" unicode="&#xc3;" horiz-adv-x="1361" 
d="M698 1686q-57 -2 -112 -68l-70 55q98 143 211 150q53 4 133 -38t119 -40q66 4 119 72l71 -60q-96 -143 -208 -149q-61 -2 -139.5 39t-123.5 39zM1085 0l-77 352h-697l-174 -352h-203l768 1493h218l358 -1493h-193zM389 506h584l-178 799h-11z" />
    <glyph glyph-name="Adieresis" unicode="&#xc4;" horiz-adv-x="1361" 
d="M752 1880l-33 -244h-164l33 244h164zM1143 1880l-33 -244h-164l33 244h164zM1085 0l-77 352h-697l-174 -352h-203l768 1493h218l358 -1493h-193zM389 506h584l-178 799h-11z" />
    <glyph glyph-name="Aring" unicode="&#xc5;" horiz-adv-x="1361" 
d="M1085 0l-77 352h-697l-174 -352h-203l744 1448q-78 55 -78 166q0 102 68.5 168.5t173.5 66.5q96 0 155.5 -56t59.5 -151q0 -145 -123 -208l344 -1434h-193zM836 1753q-53 0 -89 -39t-36 -96q0 -51 29.5 -83t78.5 -32q53 0 89 39t36 96q0 51 -29.5 83t-78.5 32zM389 506
h584l-178 799h-11z" />
    <glyph glyph-name="AE" unicode="&#xc6;" horiz-adv-x="1957" 
d="M1946 1323h-824l-67 -496h704l-24 -159h-703l-69 -498h821l-25 -170h-1005l57 414h-489l-193 -414h-195l719 1493h1315zM834 567l104 756h-195l-350 -756h441z" />
    <glyph glyph-name="Ccedilla" unicode="&#xc7;" horiz-adv-x="1587" 
d="M805 152q164 0 297 93t186 244h191q-53 -229 -238.5 -369t-439.5 -140q-29 0 -43 2l-35 -41q61 -2 103 -39t42 -105q0 -86 -64.5 -128t-145 -35.5t-136.5 44.5l15 99q45 -53 133 -51t88 77q0 53 -54.5 68.5t-109.5 -6.5l6 51l64 76q-246 45 -391.5 237.5t-145.5 481.5
q0 350 207 575t532 225q250 0 423 -138t212 -367h-192q-39 150 -160 241.5t-281 91.5q-236 0 -390 -178t-154 -452q0 -252 133 -404.5t348 -152.5z" />
    <glyph glyph-name="Egrave" unicode="&#xc8;" horiz-adv-x="1323" 
d="M825 1597l-356 222l100 141l324 -272zM133 0l209 1493h991l-22 -170h-807l-66 -473h709l-25 -162h-708l-72 -518h807l-25 -170h-991z" />
    <glyph glyph-name="Eacute" unicode="&#xc9;" horiz-adv-x="1323" 
d="M817 1595l-45 88l397 273l68 -139zM133 0l209 1493h991l-22 -170h-807l-66 -473h709l-25 -162h-708l-72 -518h807l-25 -170h-991z" />
    <glyph glyph-name="Ecircumflex" unicode="&#xca;" horiz-adv-x="1323" 
d="M537 1681l278 254h119l205 -252l-92 -86l-181 226l-245 -226zM133 0l209 1493h991l-22 -170h-807l-66 -473h709l-25 -162h-708l-72 -518h807l-25 -170h-991z" />
    <glyph glyph-name="Edieresis" unicode="&#xcb;" horiz-adv-x="1323" 
d="M551 1636l33 244h164l-33 -244h-164zM942 1636l33 244h164l-33 -244h-164zM133 0l209 1493h991l-22 -170h-807l-66 -473h709l-25 -162h-708l-72 -518h807l-25 -170h-991z" />
    <glyph glyph-name="Igrave" unicode="&#xcc;" horiz-adv-x="600" 
d="M453 1597l-357 222l101 141l323 -272zM317 0h-184l209 1493h184z" />
    <glyph glyph-name="Iacute" unicode="&#xcd;" horiz-adv-x="600" 
d="M444 1595l-45 88l398 273l67 -139zM317 0h-184l209 1493h184z" />
    <glyph glyph-name="Icircumflex" unicode="&#xce;" horiz-adv-x="600" 
d="M164 1681l278 254h119l205 -252l-92 -86l-180 226l-246 -226zM317 0h-184l209 1493h184z" />
    <glyph glyph-name="Idieresis" unicode="&#xcf;" horiz-adv-x="600" 
d="M178 1636l33 244h164l-33 -244h-164zM569 1636l33 244h164l-33 -244h-164zM317 0h-184l209 1493h184z" />
    <glyph glyph-name="Eth" unicode="&#xd0;" horiz-adv-x="1542" 
d="M840 1493q305 0 472 -183.5t167 -496.5q0 -365 -231.5 -589t-610.5 -224h-504l96 692h-176l21 158h178l90 643h498zM625 170q297 0 477 175t180 470q0 246 -129 377t-350 131h-299l-66 -473h273l-19 -158h-276l-74 -522h283z" />
    <glyph glyph-name="Ntilde" unicode="&#xd1;" horiz-adv-x="1619" 
d="M1149 1608q-61 -2 -139 39t-123 39q-57 -2 -113 -68l-69 55q98 143 210 150q53 4 133 -38t119 -40q66 4 119 72l72 -60q-96 -143 -209 -149zM133 0l209 1493h229l619 -1260h8l51 453l113 807h184l-209 -1493h-231l-614 1260h-9l-49 -435l-117 -825h-184z" />
    <glyph glyph-name="Ograve" unicode="&#xd2;" horiz-adv-x="1615" 
d="M915 1616l-356 221l100 141l324 -272zM125 680q0 373 213 602t559 229q289 0 472 -194.5t183 -503.5q0 -373 -214 -603t-562 -230q-287 0 -469 194.5t-182 505.5zM324 680q0 -233 128 -380.5t328 -147.5q256 0 415 182t159 477q0 231 -130 379.5t-329 148.5
q-256 0 -413.5 -182t-157.5 -477z" />
    <glyph glyph-name="Oacute" unicode="&#xd3;" horiz-adv-x="1615" 
d="M907 1614l-45 88l398 272l67 -139zM125 680q0 373 213 602t559 229q289 0 472 -194.5t183 -503.5q0 -373 -214 -603t-562 -230q-287 0 -469 194.5t-182 505.5zM324 680q0 -233 128 -380.5t328 -147.5q256 0 415 182t159 477q0 231 -130 379.5t-329 148.5
q-256 0 -413.5 -182t-157.5 -477z" />
    <glyph glyph-name="Ocircumflex" unicode="&#xd4;" horiz-adv-x="1615" 
d="M627 1700l278 254h119l205 -252l-92 -86l-181 225l-245 -225zM125 680q0 373 213 602t559 229q289 0 472 -194.5t183 -503.5q0 -373 -214 -603t-562 -230q-287 0 -469 194.5t-182 505.5zM324 680q0 -233 128 -380.5t328 -147.5q256 0 415 182t159 477q0 231 -130 379.5
t-329 148.5q-256 0 -413.5 -182t-157.5 -477z" />
    <glyph glyph-name="Otilde" unicode="&#xd5;" horiz-adv-x="1615" 
d="M1047 1626q-61 -2 -139.5 39t-123.5 39q-57 -2 -112 -68l-70 56q98 143 211 149q53 4 133 -38t119 -40q66 4 119 72l71 -59q-95 -144 -208 -150zM125 680q0 373 213 602t559 229q289 0 472 -194.5t183 -503.5q0 -373 -214 -603t-562 -230q-287 0 -469 194.5t-182 505.5z
M324 680q0 -233 128 -380.5t328 -147.5q256 0 415 182t159 477q0 231 -130 379.5t-329 148.5q-256 0 -413.5 -182t-157.5 -477z" />
    <glyph glyph-name="Odieresis" unicode="&#xd6;" horiz-adv-x="1615" 
d="M641 1655l33 243h164l-33 -243h-164zM1032 1655l33 243h164l-33 -243h-164zM125 680q0 373 213 602t559 229q289 0 472 -194.5t183 -503.5q0 -373 -214 -603t-562 -230q-287 0 -469 194.5t-182 505.5zM324 680q0 -233 128 -380.5t328 -147.5q256 0 415 182t159 477
q0 231 -130 379.5t-329 148.5q-256 0 -413.5 -182t-157.5 -477z" />
    <glyph glyph-name="multiply" unicode="&#xd7;" horiz-adv-x="1495" 
d="M145 164l500 450l-373 453l131 117l367 -445h16l490 445l98 -117l-500 -453l373 -450l-131 -121l-364 446h-19l-489 -446z" />
    <glyph glyph-name="Oslash" unicode="&#xd8;" horiz-adv-x="1615" 
d="M1681 1221l-180 -119q51 -135 51 -289q0 -373 -214 -603t-562 -230q-172 0 -311 74.5t-225 207.5l-172 -115l-72 123l178 119q-49 141 -49 291q0 373 213 602t559 229q174 0 313.5 -73.5t225.5 -206.5l172 115zM324 680q0 -92 22 -176l928 618q-129 217 -379 217
q-256 0 -413.5 -182t-157.5 -477zM1354 811q0 92 -23 176l-930 -618q129 -217 379 -217q256 0 415 182t159 477z" />
    <glyph glyph-name="Ugrave" unicode="&#xd9;" horiz-adv-x="1591" 
d="M946 1597l-356 222l100 141l324 -272zM207 618l123 875h184l-125 -895q-29 -203 68.5 -324.5t298.5 -121.5q188 0 310 113.5t148 303.5l132 924h184l-133 -940q-41 -283 -215 -428t-432 -145q-285 0 -434.5 175.5t-108.5 462.5z" />
    <glyph glyph-name="Uacute" unicode="&#xda;" horiz-adv-x="1591" 
d="M938 1595l-45 88l397 273l68 -139zM207 618l123 875h184l-125 -895q-29 -203 68.5 -324.5t298.5 -121.5q188 0 310 113.5t148 303.5l132 924h184l-133 -940q-41 -283 -215 -428t-432 -145q-285 0 -434.5 175.5t-108.5 462.5z" />
    <glyph glyph-name="Ucircumflex" unicode="&#xdb;" horiz-adv-x="1591" 
d="M657 1681l279 254h119l205 -252l-93 -86l-180 226l-246 -226zM207 618l123 875h184l-125 -895q-29 -203 68.5 -324.5t298.5 -121.5q188 0 310 113.5t148 303.5l132 924h184l-133 -940q-41 -283 -215 -428t-432 -145q-285 0 -434.5 175.5t-108.5 462.5z" />
    <glyph glyph-name="Udieresis" unicode="&#xdc;" horiz-adv-x="1591" 
d="M672 1636l33 244h163l-32 -244h-164zM1063 1636l33 244h164l-33 -244h-164zM207 618l123 875h184l-125 -895q-29 -203 68.5 -324.5t298.5 -121.5q188 0 310 113.5t148 303.5l132 924h184l-133 -940q-41 -283 -215 -428t-432 -145q-285 0 -434.5 175.5t-108.5 462.5z" />
    <glyph glyph-name="Yacute" unicode="&#xdd;" horiz-adv-x="1325" 
d="M807 1595l-45 88l397 273l68 -139zM145 1493h213l181 -387l141 -326h14l238 328l282 385h234l-684 -889l-84 -604h-184l84 604z" />
    <glyph glyph-name="Thorn" unicode="&#xde;" horiz-adv-x="1382" 
d="M147 0l209 1501h183l-41 -295h346q223 0 349 -115.5t126 -310.5q0 -236 -155.5 -379t-409.5 -143h-389l-37 -258h-181zM387 424h367q166 0 266 96t100 254q0 119 -76.5 190.5t-203.5 71.5h-365z" />
    <glyph glyph-name="germandbls" unicode="&#xdf;" horiz-adv-x="1202" 
d="M848 815q129 -35 193.5 -123t64.5 -207q0 -207 -159 -346t-394 -139h-129l22 154h103q164 0 268.5 95t104.5 240q0 113 -79 177.5t-208 64.5h-33l23 154h30q113 0 188 77.5t75 194.5q0 88 -56.5 138.5t-154.5 50.5q-115 0 -185.5 -69t-87.5 -187l-151 -1090h-179l123 877
h-151l20 151h154l8 64q27 199 159 310t322 111q170 0 268.5 -85t98.5 -226q0 -127 -69.5 -229.5t-186.5 -143.5z" />
    <glyph glyph-name="agrave" unicode="&#xe0;" horiz-adv-x="1128" 
d="M653 1200l-356 221l100 142l324 -273zM57 281q0 156 107.5 256t312.5 100h340l6 53q16 125 -44 192.5t-183 67.5q-113 0 -180.5 -52t-83.5 -138h-172q27 154 147.5 242t302.5 88q209 0 310.5 -117t72.5 -322l-63 -436q-10 -86 55 -86q23 0 39 8l-20 -137q-39 -12 -82 -12
q-84 0 -126 48t-28 144h-14q-49 -96 -146.5 -148t-218.5 -52q-150 0 -241 83t-91 218zM242 307q0 -90 56 -135t153 -45q133 0 226 89t111 235l7 55h-297q-127 0 -191.5 -55.5t-64.5 -143.5z" />
    <glyph glyph-name="aacute" unicode="&#xe1;" horiz-adv-x="1128" 
d="M645 1198l-45 88l397 273l68 -140zM57 281q0 156 107.5 256t312.5 100h340l6 53q16 125 -44 192.5t-183 67.5q-113 0 -180.5 -52t-83.5 -138h-172q27 154 147.5 242t302.5 88q209 0 310.5 -117t72.5 -322l-63 -436q-10 -86 55 -86q23 0 39 8l-20 -137q-39 -12 -82 -12
q-84 0 -126 48t-28 144h-14q-49 -96 -146.5 -148t-218.5 -52q-150 0 -241 83t-91 218zM242 307q0 -90 56 -135t153 -45q133 0 226 89t111 235l7 55h-297q-127 0 -191.5 -55.5t-64.5 -143.5z" />
    <glyph glyph-name="acircumflex" unicode="&#xe2;" horiz-adv-x="1128" 
d="M365 1284l278 254h119l205 -252l-93 -86l-180 225l-245 -225zM57 281q0 156 107.5 256t312.5 100h340l6 53q16 125 -44 192.5t-183 67.5q-113 0 -180.5 -52t-83.5 -138h-172q27 154 147.5 242t302.5 88q209 0 310.5 -117t72.5 -322l-63 -436q-10 -86 55 -86q23 0 39 8
l-20 -137q-39 -12 -82 -12q-84 0 -126 48t-28 144h-14q-49 -96 -146.5 -148t-218.5 -52q-150 0 -241 83t-91 218zM242 307q0 -90 56 -135t153 -45q133 0 226 89t111 235l7 55h-297q-127 0 -191.5 -55.5t-64.5 -143.5z" />
    <glyph glyph-name="atilde" unicode="&#xe3;" horiz-adv-x="1128" 
d="M784 1210q-61 -2 -139 39t-123 39q-57 -2 -112 -67l-70 55q98 143 211 149q53 4 133 -37.5t119 -39.5q66 4 119 71l71 -59q-96 -144 -209 -150zM57 281q0 156 107.5 256t312.5 100h340l6 53q16 125 -44 192.5t-183 67.5q-113 0 -180.5 -52t-83.5 -138h-172
q27 154 147.5 242t302.5 88q209 0 310.5 -117t72.5 -322l-63 -436q-10 -86 55 -86q23 0 39 8l-20 -137q-39 -12 -82 -12q-84 0 -126 48t-28 144h-14q-49 -96 -146.5 -148t-218.5 -52q-150 0 -241 83t-91 218zM242 307q0 -90 56 -135t153 -45q133 0 226 89t111 235l7 55h-297
q-127 0 -191.5 -55.5t-64.5 -143.5z" />
    <glyph glyph-name="adieresis" unicode="&#xe4;" horiz-adv-x="1128" 
d="M379 1239l33 244h163l-32 -244h-164zM770 1239l33 244h164l-33 -244h-164zM57 281q0 156 107.5 256t312.5 100h340l6 53q16 125 -44 192.5t-183 67.5q-113 0 -180.5 -52t-83.5 -138h-172q27 154 147.5 242t302.5 88q209 0 310.5 -117t72.5 -322l-63 -436q-10 -86 55 -86
q23 0 39 8l-20 -137q-39 -12 -82 -12q-84 0 -126 48t-28 144h-14q-49 -96 -146.5 -148t-218.5 -52q-150 0 -241 83t-91 218zM242 307q0 -90 56 -135t153 -45q133 0 226 89t111 235l7 55h-297q-127 0 -191.5 -55.5t-64.5 -143.5z" />
    <glyph glyph-name="aring" unicode="&#xe5;" horiz-adv-x="1128" 
d="M985 129q23 0 39 8l-20 -137q-39 -12 -82 -12q-84 0 -126 48t-28 144h-14q-49 -96 -146.5 -148t-218.5 -52q-150 0 -241 82.5t-91 218.5q0 156 107.5 256t312.5 100h340l6 53q16 125 -44 192.5t-183 67.5q-113 0 -180.5 -52t-83.5 -138h-172q20 123 103 205t212 110
q-51 55 -51 142q0 102 68.5 168.5t173.5 66.5q96 0 155.5 -56.5t59.5 -150.5q0 -119 -88 -186q119 -45 170 -149.5t30 -258.5l-63 -436q-11 -86 55 -86zM659 1356q-53 0 -88.5 -39t-35.5 -96q0 -51 29.5 -83t78.5 -32q53 0 89 39t36 96q0 51 -30 83t-79 32zM788 451l7 55
h-297q-127 0 -191.5 -55.5t-64.5 -143.5q0 -90 56 -135t153 -45q133 0 226 89.5t111 234.5z" />
    <glyph glyph-name="ae" unicode="&#xe6;" horiz-adv-x="1904" 
d="M1788 494h-789q-25 -162 49 -261.5t238 -99.5q113 0 200 49t126 131h170q-53 -156 -194.5 -244.5t-323.5 -88.5q-158 0 -261.5 67.5t-148.5 188.5q-68 -119 -191.5 -187.5t-271 -68.5t-236.5 75.5t-89 200.5q0 178 130 286.5t339 108.5h296l7 45q16 123 -46.5 185.5
t-183.5 62.5q-111 0 -188.5 -49t-100.5 -131h-174q39 147 170 236.5t318 89.5q268 0 352 -189q164 188 416 189q190 0 304 -111t114 -289q0 -87 -31 -196zM1380 938q-137 0 -235 -82t-123 -219h618q18 139 -55.5 220t-204.5 81zM807 469l6 43h-283q-135 0 -207.5 -57.5
t-72.5 -165.5q0 -76 52 -116t142 -40q143 0 243 92t120 244z" />
    <glyph glyph-name="ccedilla" unicode="&#xe7;" horiz-adv-x="1171" 
d="M565 137q119 0 208 64.5t112 163.5h180q-35 -172 -169 -277.5t-327 -107.5l-45 -54q61 -2 103.5 -39t42.5 -104q0 -86 -64.5 -128t-145.5 -36t-136 45l14 98q45 -53 133 -51t88 78q0 53 -54 68.5t-110 -7.5l6 52l70 84q-176 29 -278.5 159.5t-102.5 335.5
q0 262 159 435.5t406 173.5q188 0 311.5 -101.5t137.5 -267.5h-178q-14 94 -89 152.5t-184 58.5q-166 0 -273.5 -129t-107.5 -324q0 -160 80 -251t213 -91z" />
    <glyph glyph-name="egrave" unicode="&#xe8;" horiz-adv-x="1193" 
d="M686 1200l-356 221l100 142l324 -273zM575 -20q-219 0 -351 135t-132 372q0 262 153.5 432.5t397.5 170.5q205 0 331 -121t126 -324q0 -74 -19 -147h-805q-18 -176 66 -275.5t231 -99.5q111 0 198 54t122 142h180q-45 -154 -181.5 -246.5t-316.5 -92.5zM297 629h623
q14 141 -66 229t-219 88q-133 0 -226.5 -85t-111.5 -232z" />
    <glyph glyph-name="eacute" unicode="&#xe9;" horiz-adv-x="1193" 
d="M678 1198l-45 88l397 273l68 -140zM575 -20q-219 0 -351 135t-132 372q0 262 153.5 432.5t397.5 170.5q205 0 331 -121t126 -324q0 -74 -19 -147h-805q-18 -176 66 -275.5t231 -99.5q111 0 198 54t122 142h180q-45 -154 -181.5 -246.5t-316.5 -92.5zM297 629h623
q14 141 -66 229t-219 88q-133 0 -226.5 -85t-111.5 -232z" />
    <glyph glyph-name="ecircumflex" unicode="&#xea;" horiz-adv-x="1193" 
d="M397 1284l279 254h119l204 -252l-92 -86l-180 225l-246 -225zM575 -20q-219 0 -351 135t-132 372q0 262 153.5 432.5t397.5 170.5q205 0 331 -121t126 -324q0 -74 -19 -147h-805q-18 -176 66 -275.5t231 -99.5q111 0 198 54t122 142h180q-45 -154 -181.5 -246.5
t-316.5 -92.5zM297 629h623q14 141 -66 229t-219 88q-133 0 -226.5 -85t-111.5 -232z" />
    <glyph glyph-name="edieresis" unicode="&#xeb;" horiz-adv-x="1193" 
d="M412 1239l32 244h164l-33 -244h-163zM803 1239l33 244h163l-32 -244h-164zM575 -20q-219 0 -351 135t-132 372q0 262 153.5 432.5t397.5 170.5q205 0 331 -121t126 -324q0 -74 -19 -147h-805q-18 -176 66 -275.5t231 -99.5q111 0 198 54t122 142h180
q-45 -154 -181.5 -246.5t-316.5 -92.5zM297 629h623q14 141 -66 229t-219 88q-133 0 -226.5 -85t-111.5 -232z" />
    <glyph glyph-name="igrave" unicode="&#xec;" horiz-adv-x="534" 
d="M360 1174l-356 221l100 141l324 -272zM104 0l150 1069h178l-151 -1069h-177z" />
    <glyph glyph-name="iacute" unicode="&#xed;" horiz-adv-x="534" 
d="M352 1171l-45 89l398 272l67 -139zM104 0l150 1069h178l-151 -1069h-177z" />
    <glyph glyph-name="icircumflex" unicode="&#xee;" horiz-adv-x="534" 
d="M72 1255l278 254h119l205 -252l-92 -86l-181 226l-245 -226zM104 0l150 1069h178l-151 -1069h-177z" />
    <glyph glyph-name="idieresis" unicode="&#xef;" horiz-adv-x="534" 
d="M88 1210l33 244h164l-33 -244h-164zM479 1210l33 244h164l-33 -244h-164zM104 0l150 1069h178l-151 -1069h-177z" />
    <glyph glyph-name="eth" unicode="&#xf0;" horiz-adv-x="1271" 
d="M102 455q0 233 153 391t380 158q92 0 168 -29l6 6q-55 63 -78 96l-78 119l-262 -92l19 133l176 63l-150 236h228l110 -170l277 96l-19 -133l-196 -65l174 -285q2 -4 23.5 -41t26.5 -47l22.5 -45t23.5 -53.5t18.5 -53t17.5 -61.5t9 -63.5t4 -73.5q0 -250 -159.5 -405.5
t-403.5 -155.5q-219 0 -354.5 130t-135.5 345zM287 469q0 -152 85 -242t226 -90q160 0 267.5 111.5t107.5 281.5q0 147 -85 235.5t-231 88.5q-162 0 -266 -107.5t-104 -277.5z" />
    <glyph glyph-name="ntilde" unicode="&#xf1;" horiz-adv-x="1265" 
d="M928 1210q-61 -2 -139 39t-123 39q-57 -2 -113 -67l-70 55q98 143 211 149q53 4 133 -37.5t119 -39.5q66 4 119 71l72 -59q-96 -144 -209 -150zM104 0l150 1069h156l-4 -199h12q63 102 167.5 161t223.5 59q174 0 257 -117t54 -316l-92 -657h-178l90 639q41 293 -211 293
q-141 0 -243.5 -102.5t-125.5 -270.5l-79 -559h-177z" />
    <glyph glyph-name="ograve" unicode="&#xf2;" horiz-adv-x="1224" 
d="M711 1200l-357 221l101 142l323 -273zM92 494q0 262 154.5 429t400.5 167q219 0 352.5 -138.5t133.5 -376.5q0 -262 -155 -428.5t-400 -166.5q-219 0 -352.5 138t-133.5 376zM274 494q0 -166 83 -261.5t223 -95.5q162 0 265 123t103 315q0 166 -83 261.5t-220 95.5
q-162 0 -266.5 -122.5t-104.5 -315.5z" />
    <glyph glyph-name="oacute" unicode="&#xf3;" horiz-adv-x="1224" 
d="M702 1198l-45 88l398 273l67 -140zM92 494q0 262 154.5 429t400.5 167q219 0 352.5 -138.5t133.5 -376.5q0 -262 -155 -428.5t-400 -166.5q-219 0 -352.5 138t-133.5 376zM274 494q0 -166 83 -261.5t223 -95.5q162 0 265 123t103 315q0 166 -83 261.5t-220 95.5
q-162 0 -266.5 -122.5t-104.5 -315.5z" />
    <glyph glyph-name="ocircumflex" unicode="&#xf4;" horiz-adv-x="1224" 
d="M422 1284l278 254h119l205 -252l-92 -86l-180 225l-246 -225zM92 494q0 262 154.5 429t400.5 167q219 0 352.5 -138.5t133.5 -376.5q0 -262 -155 -428.5t-400 -166.5q-219 0 -352.5 138t-133.5 376zM274 494q0 -166 83 -261.5t223 -95.5q162 0 265 123t103 315
q0 166 -83 261.5t-220 95.5q-162 0 -266.5 -122.5t-104.5 -315.5z" />
    <glyph glyph-name="otilde" unicode="&#xf5;" horiz-adv-x="1224" 
d="M844 1210q-61 -2 -139 39t-123 39q-57 -2 -113 -67l-70 55q98 143 211 149q53 4 133 -37.5t119 -39.5q66 4 119 71l72 -59q-96 -144 -209 -150zM92 494q0 262 154.5 429t400.5 167q219 0 352.5 -138.5t133.5 -376.5q0 -262 -155 -428.5t-400 -166.5q-219 0 -352.5 138
t-133.5 376zM274 494q0 -166 83 -261.5t223 -95.5q162 0 265 123t103 315q0 166 -83 261.5t-220 95.5q-162 0 -266.5 -122.5t-104.5 -315.5z" />
    <glyph glyph-name="odieresis" unicode="&#xf6;" horiz-adv-x="1224" 
d="M436 1239l33 244h164l-33 -244h-164zM827 1239l33 244h164l-33 -244h-164zM92 494q0 262 154.5 429t400.5 167q219 0 352.5 -138.5t133.5 -376.5q0 -262 -155 -428.5t-400 -166.5q-219 0 -352.5 138t-133.5 376zM274 494q0 -166 83 -261.5t223 -95.5q162 0 265 123
t103 315q0 166 -83 261.5t-220 95.5q-162 0 -266.5 -122.5t-104.5 -315.5z" />
    <glyph glyph-name="divide" unicode="&#xf7;" horiz-adv-x="1372" 
d="M612 893l35 250h238l-35 -250h-238zM178 520l25 164h1007l-24 -164h-1008zM498 76l34 250h238l-35 -250h-237z" />
    <glyph glyph-name="oslash" unicode="&#xf8;" horiz-adv-x="1292" 
d="M1278 883l-145 -97q33 -102 32 -211q0 -264 -154.5 -429.5t-400.5 -165.5q-268 0 -397 196l-141 -94l-56 106l144 97q-33 98 -33 209q0 262 154.5 429t400.5 167q264 0 395 -193l142 94zM309 494q0 -51 10 -103l609 406q-78 135 -248 135q-162 0 -266.5 -122.5
t-104.5 -315.5zM983 575q0 49 -10 105l-611 -406q84 -137 252 -137q162 0 265.5 122.5t103.5 315.5z" />
    <glyph glyph-name="ugrave" unicode="&#xf9;" horiz-adv-x="1236" 
d="M715 1200l-357 221l101 142l323 -273zM1149 1069l-150 -1069h-151l2 199h-16q-57 -100 -162 -159.5t-232 -59.5q-164 0 -243.5 106.5t-53.5 300.5l97 682h176l-92 -657q-39 -276 198 -277q145 0 246.5 103.5t124.5 271.5l80 559h176z" />
    <glyph glyph-name="uacute" unicode="&#xfa;" horiz-adv-x="1236" 
d="M709 1198l-45 88l397 273l67 -140zM1149 1069l-150 -1069h-151l2 199h-16q-57 -100 -162 -159.5t-232 -59.5q-164 0 -243.5 106.5t-53.5 300.5l97 682h176l-92 -657q-39 -276 198 -277q145 0 246.5 103.5t124.5 271.5l80 559h176z" />
    <glyph glyph-name="ucircumflex" unicode="&#xfb;" horiz-adv-x="1236" 
d="M426 1284l279 254h118l205 -252l-92 -86l-180 225l-246 -225zM1149 1069l-150 -1069h-151l2 199h-16q-57 -100 -162 -159.5t-232 -59.5q-164 0 -243.5 106.5t-53.5 300.5l97 682h176l-92 -657q-39 -276 198 -277q145 0 246.5 103.5t124.5 271.5l80 559h176z" />
    <glyph glyph-name="udieresis" unicode="&#xfc;" horiz-adv-x="1236" 
d="M442 1239l33 244h164l-33 -244h-164zM834 1239l32 244h164l-33 -244h-163zM1149 1069l-150 -1069h-151l2 199h-16q-57 -100 -162 -159.5t-232 -59.5q-164 0 -243.5 106.5t-53.5 300.5l97 682h176l-92 -657q-39 -276 198 -277q145 0 246.5 103.5t124.5 271.5l80 559h176z
" />
    <glyph glyph-name="yacute" unicode="&#xfd;" horiz-adv-x="958" 
d="M565 1198l-45 88l398 273l67 -140zM72 1069h188l113 -518l61 -330h12l150 330l242 518h196l-577 -1171q-74 -145 -168 -202.5t-230 -57.5q-63 0 -112 14l22 147q47 -14 90 -14q141 0 209 125l64 119z" />
    <glyph glyph-name="thorn" unicode="&#xfe;" horiz-adv-x="1312" 
d="M315 1493h177l-86 -621h10q53 104 156.5 161t226.5 57q193 0 307.5 -135.5t114.5 -364.5q0 -270 -147.5 -440t-373.5 -170q-133 0 -235.5 64.5t-140.5 176.5h-13l-80 -563h-176zM362 590l-4 -33q-23 -190 60.5 -305t249.5 -115t268 119t102 309q0 170 -82 269.5
t-227 99.5q-141 0 -244 -95t-123 -249z" />
    <glyph glyph-name="ydieresis" unicode="&#xff;" horiz-adv-x="958" 
d="M299 1239l33 244h164l-33 -244h-164zM690 1239l33 244h164l-33 -244h-164zM72 1069h188l113 -518l61 -330h12l150 330l242 518h196l-577 -1171q-74 -145 -168 -202.5t-230 -57.5q-63 0 -112 14l22 147q47 -14 90 -14q141 0 209 125l64 119z" />
    <glyph glyph-name="Amacron" unicode="&#x100;" horiz-adv-x="1361" 
d="M1165 1751l-18 -129h-633l16 129h635zM1085 0l-77 352h-697l-174 -352h-203l768 1493h218l358 -1493h-193zM389 506h584l-178 799h-11z" />
    <glyph glyph-name="amacron" unicode="&#x101;" horiz-adv-x="1128" 
d="M336 1225l16 129h635l-18 -129h-633zM57 281q0 156 107.5 256t312.5 100h340l6 53q16 125 -44 192.5t-183 67.5q-113 0 -180.5 -52t-83.5 -138h-172q27 154 147.5 242t302.5 88q209 0 310.5 -117t72.5 -322l-63 -436q-10 -86 55 -86q23 0 39 8l-20 -137q-39 -12 -82 -12
q-84 0 -126 48t-28 144h-14q-49 -96 -146.5 -148t-218.5 -52q-150 0 -241 83t-91 218zM242 307q0 -90 56 -135t153 -45q133 0 226 89t111 235l7 55h-297q-127 0 -191.5 -55.5t-64.5 -143.5z" />
    <glyph glyph-name="Abreve" unicode="&#x102;" horiz-adv-x="1361" 
d="M834 1602q-133 0 -204 79.5t-57 210.5h121q-10 -82 31 -132t117 -50q78 0 132 50t64 132h123q-14 -129 -105 -209.5t-222 -80.5zM1085 0l-77 352h-697l-174 -352h-203l768 1493h218l358 -1493h-193zM389 506h584l-178 799h-11z" />
    <glyph glyph-name="abreve" unicode="&#x103;" horiz-adv-x="1128" 
d="M985 1495q-14 -129 -105.5 -210t-222.5 -81q-133 0 -203.5 80t-56.5 211h121q-10 -82 31 -132t117 -50q78 0 132 50t64 132h123zM57 281q0 156 107.5 256t312.5 100h340l6 53q16 125 -44 192.5t-183 67.5q-113 0 -180.5 -52t-83.5 -138h-172q27 154 147.5 242t302.5 88
q209 0 310.5 -117t72.5 -322l-63 -436q-10 -86 55 -86q23 0 39 8l-20 -137q-39 -12 -82 -12q-84 0 -126 48t-28 144h-14q-49 -96 -146.5 -148t-218.5 -52q-150 0 -241 83t-91 218zM242 307q0 -90 56 -135t153 -45q133 0 226 89t111 235l7 55h-297q-127 0 -191.5 -55.5
t-64.5 -143.5z" />
    <glyph glyph-name="Aogonek" unicode="&#x104;" horiz-adv-x="1361" 
d="M1196 -262q63 0 125 29l-14 -105q-76 -31 -156 -27q-84 4 -135 50.5t-51 119.5q0 129 118 203l-75 344h-697l-174 -352h-203l768 1493h218l358 -1493h-2q-88 -16 -139.5 -61t-51.5 -109q0 -92 111 -92zM389 506h584l-178 799h-11z" />
    <glyph glyph-name="aogonek" unicode="&#x105;" horiz-adv-x="1128" 
d="M924 -262q63 0 125 29l-15 -105q-76 -31 -155 -27q-84 4 -135.5 50.5t-51.5 119.5q0 133 127 209q-70 47 -51 166h-14q-49 -96 -146.5 -148t-218.5 -52q-150 0 -241 82.5t-91 218.5q0 156 107.5 256t312.5 100h340l6 53q16 125 -44 192.5t-183 67.5q-113 0 -180.5 -52
t-83.5 -138h-172q27 154 147.5 242t302.5 88q209 0 310.5 -117t72.5 -322l-63 -436q-10 -86 55 -86q23 0 39 8l-20 -137q-10 -4 -35 -8q-156 -43 -156 -162q0 -92 111 -92zM788 451l7 55h-297q-127 0 -191.5 -55.5t-64.5 -143.5q0 -90 56 -135t153 -45q133 0 226 89.5
t111 234.5z" />
    <glyph glyph-name="Cacute" unicode="&#x106;" horiz-adv-x="1587" 
d="M936 1595l-45 88l397 273l68 -139zM1479 489q-53 -229 -238.5 -369t-439.5 -140q-303 0 -488.5 200.5t-185.5 530.5q0 350 207 575t532 225q250 0 423 -138t212 -367h-192q-39 150 -160 241.5t-281 91.5q-236 0 -390 -178t-154 -452q0 -252 133 -404.5t348 -152.5
q164 0 297 93t186 244h191z" />
    <glyph glyph-name="cacute" unicode="&#x107;" horiz-adv-x="1171" 
d="M674 1198l-45 88l397 273l68 -140zM1065 365q-35 -174 -172 -279.5t-332 -105.5q-217 0 -344 136t-127 365q0 262 159 435.5t406 173.5q188 0 311.5 -101.5t137.5 -267.5h-178q-14 94 -89 152.5t-184 58.5q-166 0 -273.5 -129t-107.5 -324q0 -160 80 -251t213 -91
q119 0 208 64.5t112 163.5h180z" />
    <glyph glyph-name="Cdotaccent" unicode="&#x10a;" horiz-adv-x="1587" 
d="M866 1636l33 244h166l-33 -244h-166zM1479 489q-53 -229 -238.5 -369t-439.5 -140q-303 0 -488.5 200.5t-185.5 530.5q0 350 207 575t532 225q250 0 423 -138t212 -367h-192q-39 150 -160 241.5t-281 91.5q-236 0 -390 -178t-154 -452q0 -252 133 -404.5t348 -152.5
q164 0 297 93t186 244h191z" />
    <glyph glyph-name="cdotaccent" unicode="&#x10b;" horiz-adv-x="1171" 
d="M604 1239l33 244h166l-33 -244h-166zM1065 365q-35 -174 -172 -279.5t-332 -105.5q-217 0 -344 136t-127 365q0 262 159 435.5t406 173.5q188 0 311.5 -101.5t137.5 -267.5h-178q-14 94 -89 152.5t-184 58.5q-166 0 -273.5 -129t-107.5 -324q0 -160 80 -251t213 -91
q119 0 208 64.5t112 163.5h180z" />
    <glyph glyph-name="Ccaron" unicode="&#x10c;" horiz-adv-x="1587" 
d="M680 1876l92 82l180 -225l244 225l88 -82l-278 -256h-121zM1479 489q-53 -229 -238.5 -369t-439.5 -140q-303 0 -488.5 200.5t-185.5 530.5q0 350 207 575t532 225q250 0 423 -138t212 -367h-192q-39 150 -160 241.5t-281 91.5q-236 0 -390 -178t-154 -452
q0 -252 133 -404.5t348 -152.5q164 0 297 93t186 244h191z" />
    <glyph glyph-name="ccaron" unicode="&#x10d;" horiz-adv-x="1171" 
d="M416 1479l92 82l180 -226l244 226l88 -82l-279 -256h-120zM1065 365q-35 -174 -172 -279.5t-332 -105.5q-217 0 -344 136t-127 365q0 262 159 435.5t406 173.5q188 0 311.5 -101.5t137.5 -267.5h-178q-14 94 -89 152.5t-184 58.5q-166 0 -273.5 -129t-107.5 -324
q0 -160 80 -251t213 -91q119 0 208 64.5t112 163.5h180z" />
    <glyph glyph-name="Dcaron" unicode="&#x10e;" horiz-adv-x="1542" 
d="M545 1876l92 82l180 -225l244 225l88 -82l-279 -256h-120zM133 0l209 1493h498q305 0 472 -183.5t167 -496.5q0 -365 -231.5 -589t-610.5 -224h-504zM342 170h283q297 0 477 175t180 470q0 246 -129 377t-350 131h-299z" />
    <glyph glyph-name="dcaron" unicode="&#x10f;" horiz-adv-x="1472" 
d="M1061 0h-162l14 197h-12q-55 -102 -159.5 -159.5t-227.5 -57.5q-193 0 -307.5 125.5t-114.5 345.5q0 272 151.5 455.5t389.5 183.5q131 0 224 -62.5t136 -167.5h13l90 641h176zM1450 1073l10 78q135 0 154 123l2 12h-121l33 215h219l-31 -227q-14 -96 -87 -148.5
t-179 -52.5zM952 479l6 47q27 197 -57 301.5t-229 104.5q-172 0 -284 -130t-112 -331q0 -162 80 -249t222 -87q143 0 248.5 92t125.5 252z" />
    <glyph glyph-name="Dcroat" unicode="&#x110;" horiz-adv-x="1542" 
d="M840 1493q305 0 472 -183.5t167 -496.5q0 -365 -231.5 -589t-610.5 -224h-504l96 692h-176l21 158h178l90 643h498zM625 170q297 0 477 175t180 470q0 246 -129 377t-350 131h-299l-66 -473h273l-19 -158h-276l-74 -522h283z" />
    <glyph glyph-name="dcroat" unicode="&#x111;" horiz-adv-x="1310" 
d="M1380 1323l-18 -133h-139l-168 -1190h-160l14 197h-12q-53 -102 -158.5 -159.5t-228.5 -57.5q-193 0 -307.5 125.5t-114.5 345.5q0 270 151.5 454.5t387.5 184.5q131 0 225 -62.5t137 -167.5h10l48 330h-379l18 133h379l25 178h178l-25 -178h137zM954 526
q25 197 -59 301.5t-229 104.5q-172 0 -284 -130t-112 -331q0 -162 81 -249t222 -87q143 0 249 92t126 252z" />
    <glyph glyph-name="Emacron" unicode="&#x112;" horiz-adv-x="1323" 
d="M510 1622l16 129h635l-18 -129h-633zM133 0l209 1493h991l-22 -170h-807l-66 -473h709l-25 -162h-708l-72 -518h807l-25 -170h-991z" />
    <glyph glyph-name="emacron" unicode="&#x113;" horiz-adv-x="1193" 
d="M371 1225l16 129h635l-18 -129h-633zM575 -20q-219 0 -351 135t-132 372q0 262 153.5 432.5t397.5 170.5q205 0 331 -121t126 -324q0 -74 -19 -147h-805q-18 -176 66 -275.5t231 -99.5q111 0 198 54t122 142h180q-45 -154 -181.5 -246.5t-316.5 -92.5zM297 629h623
q14 141 -66 229t-219 88q-133 0 -226.5 -85t-111.5 -232z" />
    <glyph glyph-name="Edotaccent" unicode="&#x116;" horiz-adv-x="1323" 
d="M748 1636l32 244h166l-33 -244h-165zM133 0l209 1493h991l-22 -170h-807l-66 -473h709l-25 -162h-708l-72 -518h807l-25 -170h-991z" />
    <glyph glyph-name="edotaccent" unicode="&#x117;" horiz-adv-x="1193" 
d="M608 1239l33 244h166l-33 -244h-166zM575 -20q-219 0 -351 135t-132 372q0 262 153.5 432.5t397.5 170.5q205 0 331 -121t126 -324q0 -74 -19 -147h-805q-18 -176 66 -275.5t231 -99.5q111 0 198 54t122 142h180q-45 -154 -181.5 -246.5t-316.5 -92.5zM297 629h623
q14 141 -66 229t-219 88q-133 0 -226.5 -85t-111.5 -232z" />
    <glyph glyph-name="Eogonek" unicode="&#x118;" horiz-adv-x="1323" 
d="M1311 1323h-807l-66 -473h709l-25 -162h-708l-72 -518h807l-25 -170h-6q-88 -16 -139 -61t-51 -109q0 -92 110 -92q63 0 125 29l-14 -105q-76 -31 -156 -27q-84 4 -135 50.5t-51 119.5q0 121 106 195h-780l209 1493h991z" />
    <glyph glyph-name="eogonek" unicode="&#x119;" horiz-adv-x="1193" 
d="M1081 498h-805q-18 -176 66 -275.5t231 -99.5q111 0 198 54t122 142h180q-41 -143 -164 -234t-288 -103q-123 -49 -123 -152q0 -92 110 -92q63 0 125 29l-14 -105q-76 -31 -156 -27q-84 4 -135 50.5t-51 119.5q0 109 92 185q-174 31 -275.5 161t-101.5 336
q0 262 153.5 432.5t397.5 170.5q205 0 331 -121t126 -324q-1 -73 -19 -147zM635 946q-133 0 -226.5 -85t-111.5 -232h623q14 141 -66 229t-219 88z" />
    <glyph glyph-name="Ecaron" unicode="&#x11a;" horiz-adv-x="1323" 
d="M561 1876l92 82l181 -225l243 225l88 -82l-278 -256h-121zM133 0l209 1493h991l-22 -170h-807l-66 -473h709l-25 -162h-708l-72 -518h807l-25 -170h-991z" />
    <glyph glyph-name="ecaron" unicode="&#x11b;" horiz-adv-x="1193" 
d="M420 1479l92 82l180 -226l244 226l88 -82l-279 -256h-120zM575 -20q-219 0 -351 135t-132 372q0 262 153.5 432.5t397.5 170.5q205 0 331 -121t126 -324q0 -74 -19 -147h-805q-18 -176 66 -275.5t231 -99.5q111 0 198 54t122 142h180q-45 -154 -181.5 -246.5
t-316.5 -92.5zM297 629h623q14 141 -66 229t-219 88q-133 0 -226.5 -85t-111.5 -232z" />
    <glyph glyph-name="Gbreve" unicode="&#x11e;" horiz-adv-x="1679" 
d="M971 1602q-133 0 -204 79.5t-56 210.5h120q-10 -82 31 -132t117 -50q78 0 132 50t65 132h122q-14 -129 -105 -209.5t-222 -80.5zM776 788h770l-110 -788h-152l14 260h-14q-76 -135 -212 -207.5t-310 -72.5q-287 0 -462 196.5t-175 519.5q0 358 207 586.5t536 228.5
q248 0 418 -131t211 -350h-194q-35 139 -152 224t-279 85q-242 0 -396 -183t-154 -464q0 -248 130 -400.5t345 -152.5q213 0 354 141.5t168 348.5h-565z" />
    <glyph glyph-name="gbreve" unicode="&#x11f;" horiz-adv-x="1107" 
d="M944 1499q-14 -129 -105 -210t-223 -81q-133 0 -203.5 80t-56.5 211h121q-10 -82 31 -132t117 -50q78 0 132 50t64 132h123zM-12 -117q0 84 53 140.5t139 76.5l2 15q-39 16 -62.5 53t-23.5 82q0 66 45 119t121 73l2 17q-119 86 -119 256q0 166 121 270.5t305 104.5
q137 0 220 -56q41 88 131 143.5t208 55.5l-20 -148q-72 0 -138.5 -32.5t-84.5 -83.5q76 -86 76 -224q0 -162 -120 -263t-306 -101q-86 0 -152 18q-55 -4 -88 -34.5t-33 -73.5q0 -82 131 -82h277q139 0 216 -68.5t77 -185.5q0 -156 -142.5 -241t-384.5 -85
q-221 0 -335.5 68.5t-114.5 185.5zM322 721q0 -96 59 -152.5t160 -56.5q106 0 176.5 65.5t70.5 170.5q0 96 -59 152t-160 56q-106 0 -176.5 -65.5t-70.5 -169.5zM154 -86q0 -152 288 -152q166 0 255 50.5t89 136.5q0 111 -145 110h-289q-92 0 -145 -41t-53 -104z" />
    <glyph glyph-name="Gdotaccent" unicode="&#x120;" horiz-adv-x="1679" 
d="M1087 1880l-32 -244h-166l33 244h165zM776 788h770l-110 -788h-152l14 260h-14q-76 -135 -212 -207.5t-310 -72.5q-287 0 -462 196.5t-175 519.5q0 358 207 586.5t536 228.5q248 0 418 -131t211 -350h-194q-35 139 -152 224t-279 85q-242 0 -396 -183t-154 -464
q0 -248 130 -400.5t345 -152.5q213 0 354 141.5t168 348.5h-565z" />
    <glyph glyph-name="gdotaccent" unicode="&#x121;" horiz-adv-x="1107" 
d="M535 1243l32 244h166l-33 -244h-165zM-12 -117q0 84 53 140.5t139 76.5l2 15q-39 16 -62.5 53t-23.5 82q0 66 45 119t121 73l2 17q-119 86 -119 256q0 166 121 270.5t305 104.5q137 0 220 -56q41 88 131 143.5t208 55.5l-20 -148q-72 0 -138.5 -32.5t-84.5 -83.5
q76 -86 76 -224q0 -162 -120 -263t-306 -101q-86 0 -152 18q-55 -4 -88 -34.5t-33 -73.5q0 -82 131 -82h277q139 0 216 -68.5t77 -185.5q0 -156 -142.5 -241t-384.5 -85q-221 0 -335.5 68.5t-114.5 185.5zM322 721q0 -96 59 -152.5t160 -56.5q106 0 176.5 65.5t70.5 170.5
q0 96 -59 152t-160 56q-106 0 -176.5 -65.5t-70.5 -169.5zM154 -86q0 -152 288 -152q166 0 255 50.5t89 136.5q0 111 -145 110h-289q-92 0 -145 -41t-53 -104z" />
    <glyph glyph-name="Gcommaaccent" unicode="&#x122;" horiz-adv-x="1679" 
d="M776 788h770l-110 -788h-152l14 260h-14q-76 -135 -212 -207.5t-310 -72.5q-287 0 -462 196.5t-175 519.5q0 358 207 586.5t536 228.5q248 0 418 -131t211 -350h-194q-35 139 -152 224t-279 85q-242 0 -396 -183t-154 -464q0 -248 130 -400.5t345 -152.5q213 0 354 141.5
t168 348.5h-565zM606 -324l29 199h174l-27 -190q-23 -164 -194 -164l8 55q90 0 104 88l2 12h-96z" />
    <glyph glyph-name="gcommaaccent" unicode="&#x123;" horiz-adv-x="1107" 
d="M756 1630l-8 -57q-92 0 -105 -90l-6 -45h94l-26 -199h-177l33 227q23 164 195 164zM-12 -117q0 84 53 140.5t139 76.5l2 15q-39 16 -62.5 53t-23.5 82q0 66 45 119t121 73l2 17q-119 86 -119 256q0 166 121 270.5t305 104.5q137 0 220 -56q41 88 131 143.5t208 55.5
l-20 -148q-72 0 -138.5 -32.5t-84.5 -83.5q76 -86 76 -224q0 -162 -120 -263t-306 -101q-86 0 -152 18q-55 -4 -88 -34.5t-33 -73.5q0 -82 131 -82h277q139 0 216 -68.5t77 -185.5q0 -156 -142.5 -241t-384.5 -85q-221 0 -335.5 68.5t-114.5 185.5zM322 721q0 -96 59 -152.5
t160 -56.5q106 0 176.5 65.5t70.5 170.5q0 96 -59 152t-160 56q-106 0 -176.5 -65.5t-70.5 -169.5zM154 -86q0 -152 288 -152q166 0 255 50.5t89 136.5q0 111 -145 110h-289q-92 0 -145 -41t-53 -104z" />
    <glyph glyph-name="Hbar" unicode="&#x126;" horiz-adv-x="1642" 
d="M1714 1294l-18 -149h-176l-160 -1145h-184l94 684h-856l-97 -684h-184l160 1145h-152l21 149h151l29 199h184l-26 -199h858l26 199h185l-29 -199h174zM1294 844l41 301h-858l-41 -301h858z" />
    <glyph glyph-name="hbar" unicode="&#x127;" horiz-adv-x="1263" 
d="M809 1090q172 0 255 -116t54 -315l-92 -659h-178l90 641q39 291 -211 291q-141 0 -243.5 -100.5t-123.5 -266.5l-79 -565h-177l166 1186h-153l18 135h154l24 180h179l-25 -180h364l-18 -135h-367l-43 -312h15q63 100 167.5 158t223.5 58z" />
    <glyph glyph-name="Imacron" unicode="&#x12a;" horiz-adv-x="600" 
d="M137 1622l17 129h634l-18 -129h-633zM317 0h-184l209 1493h184z" />
    <glyph glyph-name="imacron" unicode="&#x12b;" horiz-adv-x="534" 
d="M45 1198l16 129h635l-18 -129h-633zM104 0l150 1069h178l-151 -1069h-177z" />
    <glyph glyph-name="Iogonek" unicode="&#x12e;" horiz-adv-x="600" 
d="M113 -170q0 -92 110 -92q63 0 125 29l-14 -105q-76 -31 -156 -27q-84 4 -135 50.5t-51 119.5q0 145 145 218l205 1470h184l-209 -1493h-14q-88 -16 -139 -61.5t-51 -108.5z" />
    <glyph glyph-name="iogonek" unicode="&#x12f;" horiz-adv-x="534" 
d="M315 1454h166l-32 -244h-166zM268 0q-88 -16 -139 -61t-51 -109q0 -92 110 -92q63 0 125 29l-14 -105q-76 -31 -156 -27q-84 4 -135 50.5t-51 119.5q0 72 41 130.5t111 91.5l145 1042h178l-151 -1069h-13z" />
    <glyph glyph-name="Idotaccent" unicode="&#x130;" horiz-adv-x="600" 
d="M371 1636l37 244h178l-37 -244h-178zM317 0h-184l209 1493h184z" />
    <glyph glyph-name="dotlessi" unicode="&#x131;" horiz-adv-x="534" 
d="M104 0l150 1069h178l-151 -1069h-177z" />
    <glyph glyph-name="Jcircumflex" unicode="&#x134;" horiz-adv-x="804" 
d="M375 1681l278 254h119l205 -252l-92 -86l-180 226l-246 -226zM590 403q-61 -420 -463 -419q-117 0 -170 16l25 166q47 -12 155 -12q231 0 269 260l151 1079h184z" />
    <glyph glyph-name="jcircumflex" unicode="&#x135;" horiz-adv-x="542" 
d="M80 1255l278 254h119l205 -252l-92 -86l-180 226l-246 -226zM-55 -352q-53 0 -103 8l21 151q27 -8 63 -8q78 0 125 44t58 120l153 1106h178l-159 -1128q-20 -143 -109.5 -218t-226.5 -75z" />
    <glyph glyph-name="Kcommaaccent" unicode="&#x136;" horiz-adv-x="1374" 
d="M1481 1493l-635 -651l446 -842h-219l-368 696l-338 -348l-50 -348h-184l209 1493h184l-125 -891l861 891h219zM514 -324l29 199h174l-27 -190q-23 -164 -194 -164l8 55q90 0 104 88l2 12h-96z" />
    <glyph glyph-name="kcommaaccent" unicode="&#x137;" horiz-adv-x="1138" 
d="M1153 1069l-471 -418l342 -651h-205l-276 528l-213 -188l-47 -340h-179l209 1501h179l-132 -940l566 508h227zM410 -324l28 199h174l-26 -190q-23 -164 -195 -164l8 55q90 0 105 88l2 12h-96z" />
    <glyph glyph-name="Lacute" unicode="&#x139;" horiz-adv-x="1167" 
d="M573 1595l-45 88l398 273l67 -139zM133 0l209 1493h184l-184 -1321h702l-24 -172h-887z" />
    <glyph glyph-name="lacute" unicode="&#x13a;" horiz-adv-x="532" 
d="M414 1604l-45 88l397 272l68 -139zM104 0l209 1501h176l-210 -1501h-175z" />
    <glyph glyph-name="Lcommaaccent" unicode="&#x13b;" horiz-adv-x="1167" 
d="M133 0l209 1493h184l-184 -1321h702l-24 -172h-887zM426 -479l8 55q90 0 105 88l2 12h-97l29 199h174l-26 -190q-23 -164 -195 -164z" />
    <glyph glyph-name="lcommaaccent" unicode="&#x13c;" horiz-adv-x="532" 
d="M104 0l209 1501h176l-210 -1501h-175zM43 -479l8 55q90 0 105 88l2 12h-97l29 199h174l-26 -190q-23 -164 -195 -164z" />
    <glyph glyph-name="Lcaron" unicode="&#x13d;" horiz-adv-x="1191" 
d="M713 975l10 84q139 0 160 139l8 57h-121l35 242h221l-43 -299q-14 -106 -86.5 -164.5t-183.5 -58.5zM143 0l209 1493h185l-185 -1321h703l-25 -172h-887z" />
    <glyph glyph-name="lcaron" unicode="&#x13e;" horiz-adv-x="532" 
d="M156 1884l92 82l180 -225l244 225l88 -82l-279 -256h-121zM104 0l209 1501h176l-210 -1501h-175z" />
    <glyph glyph-name="Ldot" unicode="&#x13f;" horiz-adv-x="1232" 
d="M133 0l209 1493h184l-184 -1321h702l-24 -172h-887zM662 786q0 72 46 118t113 46q57 0 96 -36.5t39 -100.5q0 -72 -47 -118t-112 -46q-57 0 -96 37t-39 100z" />
    <glyph glyph-name="ldot" unicode="&#x140;" horiz-adv-x="804" 
d="M104 0l209 1501h176l-210 -1501h-175zM539 762q0 72 47 118t112 46q57 0 96.5 -37t39.5 -101q0 -72 -47.5 -117.5t-112.5 -45.5q-57 0 -96 37t-39 100z" />
    <glyph glyph-name="Lslash" unicode="&#x141;" horiz-adv-x="1167" 
d="M342 172h702l-24 -172h-887l100 717l-200 -68l22 164l201 68l86 612h184l-75 -547l366 123l-22 -164l-367 -123z" />
    <glyph glyph-name="lslash" unicode="&#x142;" horiz-adv-x="530" 
d="M571 1069l-22 -162l-150 -53l-120 -854h-175l111 788l-154 -55l23 164l154 53l75 551h176l-67 -485z" />
    <glyph glyph-name="Nacute" unicode="&#x143;" horiz-adv-x="1619" 
d="M1008 1595l-45 88l397 273l67 -139zM133 0l209 1493h229l619 -1260h8l51 453l113 807h184l-209 -1493h-231l-614 1260h-9l-49 -435l-117 -825h-184z" />
    <glyph glyph-name="nacute" unicode="&#x144;" horiz-adv-x="1265" 
d="M786 1198l-45 88l398 273l67 -140zM104 0l150 1069h156l-4 -199h12q63 102 167.5 161t223.5 59q174 0 257 -117t54 -316l-92 -657h-178l90 639q41 293 -211 293q-141 0 -243.5 -102.5t-125.5 -270.5l-79 -559h-177z" />
    <glyph glyph-name="Ncommaaccent" unicode="&#x145;" horiz-adv-x="1619" 
d="M133 0l209 1493h229l619 -1260h8l51 453l113 807h184l-209 -1493h-231l-614 1260h-9l-49 -435l-117 -825h-184zM639 -479l8 55q90 0 105 88l2 12h-97l29 199h174l-26 -190q-23 -164 -195 -164z" />
    <glyph glyph-name="ncommaaccent" unicode="&#x146;" horiz-adv-x="1265" 
d="M104 0l150 1069h156l-4 -199h12q63 102 167.5 161t223.5 59q174 0 257 -117t54 -316l-92 -657h-178l90 639q41 293 -211 293q-141 0 -243.5 -102.5t-125.5 -270.5l-79 -559h-177zM414 -479l8 55q90 0 104 88l2 12h-96l29 199h174l-27 -190q-22 -164 -194 -164z" />
    <glyph glyph-name="Ncaron" unicode="&#x147;" horiz-adv-x="1619" 
d="M750 1876l92 82l180 -225l244 225l88 -82l-279 -256h-121zM133 0l209 1493h229l619 -1260h8l51 453l113 807h184l-209 -1493h-231l-614 1260h-9l-49 -435l-117 -825h-184z" />
    <glyph glyph-name="ncaron" unicode="&#x148;" horiz-adv-x="1265" 
d="M528 1479l93 82l180 -226l243 226l89 -82l-279 -256h-121zM104 0l150 1069h156l-4 -199h12q63 102 167.5 161t223.5 59q174 0 257 -117t54 -316l-92 -657h-178l90 639q41 293 -211 293q-141 0 -243.5 -102.5t-125.5 -270.5l-79 -559h-177z" />
    <glyph glyph-name="Eng" unicode="&#x14a;" horiz-adv-x="1619" 
d="M1546 1493l-209 -1493l-10 -66q-18 -133 -102 -204.5t-219 -71.5q-66 0 -117 14l18 129q33 -8 74 -8q139 0 164 152l8 55h-47l-614 1260h-9l-49 -435l-117 -825h-184l209 1493h229l619 -1260h8l51 453l113 807h184z" />
    <glyph glyph-name="eng" unicode="&#x14b;" horiz-adv-x="1265" 
d="M809 1090q174 0 257 -117t54 -316l-92 -657h-2l-10 -78q-39 -281 -324 -280q-53 0 -114 14l20 133q55 -6 68 -6q51 0 86.5 15.5t53 44t25 53t11.5 59.5l26 182l72 502q41 293 -211 293q-141 0 -243.5 -102.5t-125.5 -270.5l-79 -559h-177l150 1069h156l-4 -199h12
q63 102 167.5 161t223.5 59z" />
    <glyph glyph-name="Omacron" unicode="&#x14c;" horiz-adv-x="1615" 
d="M598 1640l16 129h635l-18 -129h-633zM125 680q0 373 213 602t559 229q289 0 472 -194.5t183 -503.5q0 -373 -214 -603t-562 -230q-287 0 -469 194.5t-182 505.5zM324 680q0 -233 128 -380.5t328 -147.5q256 0 415 182t159 477q0 231 -130 379.5t-329 148.5
q-256 0 -413.5 -182t-157.5 -477z" />
    <glyph glyph-name="omacron" unicode="&#x14d;" horiz-adv-x="1224" 
d="M395 1225l17 129h635l-19 -129h-633zM92 494q0 262 154.5 429t400.5 167q219 0 352.5 -138.5t133.5 -376.5q0 -262 -155 -428.5t-400 -166.5q-219 0 -352.5 138t-133.5 376zM274 494q0 -166 83 -261.5t223 -95.5q162 0 265 123t103 315q0 166 -83 261.5t-220 95.5
q-162 0 -266.5 -122.5t-104.5 -315.5z" />
    <glyph glyph-name="Ohungarumlaut" unicode="&#x150;" horiz-adv-x="1615" 
d="M702 1616l-45 88l398 274l65 -139zM1122 1616l-43 88l396 274l67 -139zM125 680q0 373 213 602t559 229q289 0 472 -194.5t183 -503.5q0 -373 -214 -603t-562 -230q-287 0 -469 194.5t-182 505.5zM324 680q0 -233 128 -380.5t328 -147.5q256 0 415 182t159 477
q0 231 -130 379.5t-329 148.5q-256 0 -413.5 -182t-157.5 -477z" />
    <glyph glyph-name="ohungarumlaut" unicode="&#x151;" horiz-adv-x="1224" 
d="M498 1200l-45 88l397 275l65 -140zM918 1200l-44 88l396 275l67 -140zM92 494q0 262 154.5 429t400.5 167q219 0 352.5 -138.5t133.5 -376.5q0 -262 -155 -428.5t-400 -166.5q-219 0 -352.5 138t-133.5 376zM274 494q0 -166 83 -261.5t223 -95.5q162 0 265 123t103 315
q0 166 -83 261.5t-220 95.5q-162 0 -266.5 -122.5t-104.5 -315.5z" />
    <glyph glyph-name="OE" unicode="&#x152;" horiz-adv-x="1984" 
d="M121 649q0 387 235.5 615.5t626.5 228.5h1014l-25 -170h-762l-69 -496h563l-23 -159h-563l-71 -496h763l-24 -172h-952q-330 0 -521.5 178t-191.5 471zM317 645q0 -217 133.5 -345t364.5 -128h51l162 1151h-84q-281 0 -454 -187.5t-173 -490.5z" />
    <glyph glyph-name="oe" unicode="&#x153;" horiz-adv-x="2060" 
d="M1948 498h-807q-16 -176 66.5 -275.5t232.5 -99.5q111 0 197.5 54t121.5 142h180q-45 -156 -181 -247.5t-318 -91.5q-139 0 -248 58t-168 167q-154 -225 -446 -225q-219 0 -352.5 138t-133.5 376q0 262 154.5 429t400.5 167q293 0 418 -230q154 229 444 230
q205 0 331 -121t126 -324q0 -73 -18 -147zM1501 946q-133 0 -226 -85t-114 -232h625q14 141 -66 229t-219 88zM580 137q162 0 265 123t103 315q0 166 -83 261.5t-220 95.5q-162 0 -266.5 -123t-104.5 -315q0 -166 83.5 -261.5t222.5 -95.5z" />
    <glyph glyph-name="Racute" unicode="&#x154;" horiz-adv-x="1458" 
d="M879 1595l-45 88l397 273l67 -139zM133 0l209 1493h616q215 0 335 -106.5t120 -290.5q0 -133 -79 -245t-224 -155l-2 -14q211 -47 176 -283l-33 -235q-16 -109 -2 -164h-188q-14 45 4 180l27 178q16 119 -22 174.5t-173 55.5h-496l-84 -588h-184zM424 756h407
q178 0 279.5 87t101.5 222q0 125 -72.5 193.5t-215.5 68.5h-420z" />
    <glyph glyph-name="racute" unicode="&#x155;" horiz-adv-x="743" 
d="M522 1198l-45 88l397 273l68 -140zM104 0l150 1069h156l-7 -217h11q55 106 159.5 169.5t221.5 63.5l-25 -159q-180 -4 -285.5 -119t-132.5 -311l-71 -496h-177z" />
    <glyph glyph-name="Rcommaaccent" unicode="&#x156;" horiz-adv-x="1458" 
d="M133 0l209 1493h616q215 0 335 -106.5t120 -290.5q0 -133 -79 -245t-224 -155l-2 -14q211 -47 176 -283l-33 -235q-16 -109 -2 -164h-188q-14 45 4 180l27 178q16 119 -22 174.5t-173 55.5h-496l-84 -588h-184zM424 756h407q178 0 279.5 87t101.5 222q0 125 -72.5 193.5
t-215.5 68.5h-420zM561 -479l8 55q90 0 105 88l2 12h-96l28 199h174l-26 -190q-23 -164 -195 -164z" />
    <glyph glyph-name="rcommaaccent" unicode="&#x157;" horiz-adv-x="743" 
d="M104 0l150 1069h156l-7 -217h11q55 106 159.5 169.5t221.5 63.5l-25 -159q-180 -4 -285.5 -119t-132.5 -311l-71 -496h-177zM41 -479l8 55q90 0 105 88l2 12h-97l29 199h174l-26 -190q-23 -164 -195 -164z" />
    <glyph glyph-name="Rcaron" unicode="&#x158;" horiz-adv-x="1458" 
d="M621 1876l92 82l180 -225l244 225l88 -82l-279 -256h-121zM133 0l209 1493h616q215 0 335 -106.5t120 -290.5q0 -133 -79 -245t-224 -155l-2 -14q211 -47 176 -283l-33 -235q-16 -109 -2 -164h-188q-14 45 4 180l27 178q16 119 -22 174.5t-173 55.5h-496l-84 -588h-184z
M424 756h407q178 0 279.5 87t101.5 222q0 125 -72.5 193.5t-215.5 68.5h-420z" />
    <glyph glyph-name="rcaron" unicode="&#x159;" horiz-adv-x="743" 
d="M266 1479l92 82l181 -226l243 226l88 -82l-278 -256h-121zM104 0l150 1069h156l-7 -217h11q55 106 159.5 169.5t221.5 63.5l-25 -159q-180 -4 -285.5 -119t-132.5 -311l-71 -496h-177z" />
    <glyph glyph-name="Sacute" unicode="&#x15a;" horiz-adv-x="1343" 
d="M809 1595l-45 88l397 273l68 -139zM281 463q-2 -150 97 -241t269 -91q158 0 255 79t97 208q0 63 -22.5 109t-64.5 72t-70.5 38t-69.5 22l-184 48q-371 100 -371 378q0 193 143.5 310.5t377 117.5t373.5 -123.5t146 -332.5h-192q-2 137 -91 221t-239 84q-141 0 -227 -68.5
t-86 -181.5q0 -90 57.5 -143.5t171.5 -81.5l217 -53q164 -41 249 -143.5t85 -244.5q0 -211 -152.5 -338.5t-406.5 -127.5q-248 0 -399.5 132t-155.5 351h193z" />
    <glyph glyph-name="sacute" unicode="&#x15b;" horiz-adv-x="1021" 
d="M641 1198l-45 88l397 273l68 -140zM227 346q-2 -104 65.5 -165.5t186.5 -61.5q102 0 169 47t67 133q0 41 -16.5 71.5t-46 46t-47 21.5t-46.5 13l-129 32q-270 61 -270 279q0 145 111.5 236.5t289.5 91.5q180 0 287.5 -93.5t109.5 -248.5h-170q0 92 -63 148t-170 56
q-96 0 -154.5 -45t-58.5 -127q0 -41 14.5 -69.5t46 -44t48 -20.5t55.5 -13l119 -29q279 -63 278 -289q0 -154 -116.5 -244.5t-305.5 -90.5q-193 0 -307.5 100t-116.5 266h170z" />
    <glyph glyph-name="Scedilla" unicode="&#x15e;" horiz-adv-x="1343" 
d="M868 834q164 -41 249 -143.5t85 -244.5q0 -211 -152.5 -338.5t-406.5 -127.5q-31 0 -45 2l-43 -52q61 -2 103 -38.5t42 -104.5q0 -86 -64.5 -128t-145 -36t-136.5 45l15 99q45 -53 133 -51.5t88 77.5q0 53 -54.5 68.5t-109.5 -6.5l6 51l72 86q-188 35 -300 159.5
t-116 311.5h193q-2 -150 97 -241t269 -91q158 0 255 79t97 208q0 63 -22.5 109t-64.5 72t-70.5 38t-69.5 22l-184 48q-371 100 -371 378q0 193 143.5 310.5t377 117.5t373.5 -123.5t146 -332.5h-192q-2 137 -91 221t-239 84q-141 0 -227 -68.5t-86 -181.5q0 -90 57.5 -143.5
t171.5 -81.5z" />
    <glyph glyph-name="scedilla" unicode="&#x15f;" horiz-adv-x="1021" 
d="M625 604q279 -63 278 -289q0 -150 -109.5 -239.5t-289.5 -95.5l-29 -33q61 -2 103.5 -39t42.5 -105q0 -86 -64.5 -128t-145.5 -35.5t-137 45.5l15 98q45 -53 133 -51t88 78q0 53 -54.5 68.5t-109.5 -7.5l6 51l51 62q-158 20 -251 116.5t-95 245.5h170
q-2 -104 65.5 -165.5t186.5 -61.5q102 0 169 47t67 133q0 41 -16.5 71.5t-46 46t-47 21.5t-46.5 13l-129 32q-270 61 -270 279q0 145 111.5 236.5t289.5 91.5q180 0 287.5 -93.5t109.5 -248.5h-170q0 92 -63 148t-170 56q-96 0 -154.5 -45t-58.5 -127q0 -41 14.5 -69.5
t46 -44t48 -20.5t55.5 -13z" />
    <glyph glyph-name="Scaron" unicode="&#x160;" horiz-adv-x="1343" 
d="M551 1876l92 82l180 -225l244 225l88 -82l-278 -256h-121zM281 463q-2 -150 97 -241t269 -91q158 0 255 79t97 208q0 63 -22.5 109t-64.5 72t-70.5 38t-69.5 22l-184 48q-371 100 -371 378q0 193 143.5 310.5t377 117.5t373.5 -123.5t146 -332.5h-192q-2 137 -91 221
t-239 84q-141 0 -227 -68.5t-86 -181.5q0 -90 57.5 -143.5t171.5 -81.5l217 -53q164 -41 249 -143.5t85 -244.5q0 -211 -152.5 -338.5t-406.5 -127.5q-248 0 -399.5 132t-155.5 351h193z" />
    <glyph glyph-name="scaron" unicode="&#x161;" horiz-adv-x="1021" 
d="M385 1479l92 82l180 -226l244 226l88 -82l-278 -256h-121zM227 346q-2 -104 65.5 -165.5t186.5 -61.5q102 0 169 47t67 133q0 41 -16.5 71.5t-46 46t-47 21.5t-46.5 13l-129 32q-270 61 -270 279q0 145 111.5 236.5t289.5 91.5q180 0 287.5 -93.5t109.5 -248.5h-170
q0 92 -63 148t-170 56q-96 0 -154.5 -45t-58.5 -127q0 -41 14.5 -69.5t46 -44t48 -20.5t55.5 -13l119 -29q279 -63 278 -289q0 -154 -116.5 -244.5t-305.5 -90.5q-193 0 -307.5 100t-116.5 266h170z" />
    <glyph glyph-name="Tcommaaccent" unicode="&#x162;" horiz-adv-x="1136" 
d="M586 0h-39l-60 -70q61 -2 103.5 -38.5t42.5 -104.5q0 -86 -64.5 -128t-145.5 -36t-136 45l14 99q45 -53 133 -51.5t88 77.5q0 53 -54 68.5t-110 -6.5l7 51l77 94h-41l187 1323h-467l24 170h1115l-25 -170h-461z" />
    <glyph glyph-name="tcommaaccent" unicode="&#x163;" horiz-adv-x="694" 
d="M442 922l-86 -621q-12 -90 19 -127t108 -37q57 0 90 13l-22 -146q-63 -16 -123 -16l-35 -41q61 -2 103.5 -39t42.5 -105q0 -86 -64.5 -128t-145.5 -35.5t-136 45.5l14 98q45 -53 133 -51t88 78q0 53 -54.5 68.5t-109.5 -7.5l6 51l64 76q-94 25 -134 103.5t-24 195.5
l88 625h-182l20 147h185l45 324l186 67l-53 -391h237l-22 -147h-238z" />
    <glyph glyph-name="Tcaron" unicode="&#x164;" horiz-adv-x="1136" 
d="M782 1620h-120l-205 256l92 82l180 -225l244 225l88 -82zM1260 1493l-25 -170h-461l-188 -1323h-185l187 1323h-467l24 170h1115z" />
    <glyph glyph-name="tcaron" unicode="&#x165;" horiz-adv-x="694" 
d="M176 1792l92 82l181 -225l243 225l88 -82l-278 -256h-121zM102 1069h185l45 324l186 67l-53 -391h237l-22 -147h-238l-86 -621q-12 -90 19 -127t108 -37q57 0 90 13l-22 -146q-59 -16 -131 -16q-139 0 -201.5 84t-42.5 225l88 625h-182z" />
    <glyph glyph-name="Tbar" unicode="&#x166;" horiz-adv-x="1136" 
d="M1235 1323h-461l-63 -446h336l-23 -158h-336l-102 -719h-185l101 719h-359l25 158h356l64 446h-467l24 170h1115z" />
    <glyph glyph-name="tbar" unicode="&#x167;" horiz-adv-x="694" 
d="M680 922h-238l-34 -252h256l-17 -142h-260l-31 -227q-12 -90 19 -127t108 -37q57 0 90 13l-22 -146q-59 -16 -131 -16q-139 0 -201.5 84t-42.5 225l33 231h-170l16 142h174l35 252h-182l20 147h185l45 324l186 67l-53 -391h237z" />
    <glyph glyph-name="Umacron" unicode="&#x16a;" horiz-adv-x="1591" 
d="M631 1622l16 129h635l-18 -129h-633zM207 618l123 875h184l-125 -895q-29 -203 68.5 -324.5t298.5 -121.5q188 0 310 113.5t148 303.5l132 924h184l-133 -940q-41 -283 -215 -428t-432 -145q-285 0 -434.5 175.5t-108.5 462.5z" />
    <glyph glyph-name="umacron" unicode="&#x16b;" horiz-adv-x="1236" 
d="M399 1225l17 129h635l-19 -129h-633zM1149 1069l-150 -1069h-151l2 199h-16q-57 -100 -162 -159.5t-232 -59.5q-164 0 -243.5 106.5t-53.5 300.5l97 682h176l-92 -657q-39 -276 198 -277q145 0 246.5 103.5t124.5 271.5l80 559h176z" />
    <glyph glyph-name="Uring" unicode="&#x16e;" horiz-adv-x="1591" 
d="M1174 1642q0 -102 -69 -168.5t-173 -66.5q-96 0 -155.5 56.5t-59.5 150.5q0 102 68.5 168.5t172.5 66.5q96 0 156 -56.5t60 -150.5zM1061 1638q0 51 -30 83t-79 32q-53 0 -89 -39t-36 -96q0 -51 30 -83t79 -32q53 0 89 39t36 96zM207 618l123 875h184l-125 -895
q-29 -203 68.5 -324.5t298.5 -121.5q188 0 310 113.5t148 303.5l132 924h184l-133 -940q-41 -283 -215 -428t-432 -145q-285 0 -434.5 175.5t-108.5 462.5z" />
    <glyph glyph-name="uring" unicode="&#x16f;" horiz-adv-x="1236" 
d="M942 1245q0 -102 -68.5 -168.5t-173.5 -66.5q-96 0 -155.5 56t-59.5 151q0 102 69 168.5t173 66.5q96 0 155.5 -56.5t59.5 -150.5zM829 1241q0 51 -29.5 83t-78.5 32q-53 0 -89 -39t-36 -96q0 -51 29.5 -83t79.5 -32q53 0 88.5 39t35.5 96zM1149 1069l-150 -1069h-151
l2 199h-16q-57 -100 -162 -159.5t-232 -59.5q-164 0 -243.5 106.5t-53.5 300.5l97 682h176l-92 -657q-39 -276 198 -277q145 0 246.5 103.5t124.5 271.5l80 559h176z" />
    <glyph glyph-name="Uhungarumlaut" unicode="&#x170;" horiz-adv-x="1591" 
d="M733 1597l-45 89l397 274l66 -139zM1153 1597l-43 89l395 274l68 -139zM207 618l123 875h184l-125 -895q-29 -203 68.5 -324.5t298.5 -121.5q188 0 310 113.5t148 303.5l132 924h184l-133 -940q-41 -283 -215 -428t-432 -145q-285 0 -434.5 175.5t-108.5 462.5z" />
    <glyph glyph-name="uhungarumlaut" unicode="&#x171;" horiz-adv-x="1236" 
d="M504 1200l-45 88l397 275l66 -140zM924 1200l-43 88l395 275l67 -140zM1149 1069l-150 -1069h-151l2 199h-16q-57 -100 -162 -159.5t-232 -59.5q-164 0 -243.5 106.5t-53.5 300.5l97 682h176l-92 -657q-39 -276 198 -277q145 0 246.5 103.5t124.5 271.5l80 559h176z" />
    <glyph glyph-name="Uogonek" unicode="&#x172;" horiz-adv-x="1591" 
d="M1346 1493h184l-133 -940q-39 -266 -197 -411.5t-395 -159.5q-125 -49 -125 -152q0 -92 111 -92q63 0 124 29l-14 -105q-76 -31 -156 -27q-84 4 -135 50.5t-51 119.5q0 109 88 181q-238 33 -357.5 203.5t-82.5 428.5l123 875h184l-125 -895q-29 -203 68.5 -324.5
t298.5 -121.5q188 0 310 113.5t148 303.5z" />
    <glyph glyph-name="uogonek" unicode="&#x173;" horiz-adv-x="1236" 
d="M801 -170q0 -92 110 -92q63 0 125 29l-14 -105q-76 -31 -156 -27q-84 4 -135 50.5t-51 119.5q0 78 46 137.5t122 90.5l2 166h-16q-57 -100 -162 -159.5t-232 -59.5q-164 0 -243.5 106.5t-53.5 300.5l97 682h176l-92 -657q-39 -276 198 -277q145 0 246.5 103.5
t124.5 271.5l80 559h176l-150 -1069h-8q-88 -16 -139 -61.5t-51 -108.5z" />
    <glyph glyph-name="Wcircumflex" unicode="&#x174;" horiz-adv-x="1898" 
d="M788 1681l279 254h119l205 -252l-93 -86l-180 226l-246 -226zM158 1493h194l51 -889l11 -399h14l526 1288h252l168 -1288h12l123 397l297 891h203l-514 -1493h-260l-174 1290h-10l-537 -1290h-260z" />
    <glyph glyph-name="wcircumflex" unicode="&#x175;" horiz-adv-x="1523" 
d="M567 1284l279 254h119l204 -252l-92 -86l-180 225l-246 -225zM94 1069h187l69 -567l25 -326h10l340 893h213l98 -889h6l115 316l227 573h195l-451 -1069h-229l-61 549l-27 303h-12l-107 -303l-209 -549h-237z" />
    <glyph glyph-name="Ycircumflex" unicode="&#x176;" horiz-adv-x="1325" 
d="M526 1681l279 254h119l204 -252l-92 -86l-180 226l-246 -226zM145 1493h213l181 -387l141 -326h14l238 328l282 385h234l-684 -889l-84 -604h-184l84 604z" />
    <glyph glyph-name="ycircumflex" unicode="&#x177;" horiz-adv-x="958" 
d="M285 1284l278 254h119l205 -252l-92 -86l-181 225l-245 -225zM72 1069h188l113 -518l61 -330h12l150 330l242 518h196l-577 -1171q-74 -145 -168 -202.5t-230 -57.5q-63 0 -112 14l22 147q47 -14 90 -14q141 0 209 125l64 119z" />
    <glyph glyph-name="Ydieresis" unicode="&#x178;" horiz-adv-x="1325" 
d="M543 1636l32 244h164l-32 -244h-164zM934 1636l33 244h163l-32 -244h-164zM145 1493h213l181 -387l141 -326h14l238 328l282 385h234l-684 -889l-84 -604h-184l84 604z" />
    <glyph glyph-name="Zacute" unicode="&#x179;" horiz-adv-x="1177" 
d="M1122 1817l-420 -222l-45 88l398 273zM1274 1493l-21 -150l-1015 -1171h841l-24 -172h-1092l21 150l1017 1173h-851l22 170h1102z" />
    <glyph glyph-name="zacute" unicode="&#x17a;" horiz-adv-x="901" 
d="M954 1419l-419 -221l-46 88l398 273zM102 922l21 147h799l-21 -137l-690 -785h588l-21 -147h-805l19 133l692 789h-582z" />
    <glyph glyph-name="Zdotaccent" unicode="&#x17b;" horiz-adv-x="1177" 
d="M829 1880l-32 -244h-166l33 244h165zM1274 1493l-21 -150l-1015 -1171h841l-24 -172h-1092l21 150l1017 1173h-851l22 170h1102z" />
    <glyph glyph-name="zdotaccent" unicode="&#x17c;" horiz-adv-x="901" 
d="M664 1483l-33 -244h-166l33 244h166zM922 1069l-21 -137l-690 -785h588l-21 -147h-805l19 133l692 789h-582l21 147h799z" />
    <glyph glyph-name="Zcaron" unicode="&#x17d;" horiz-adv-x="1177" 
d="M770 1620h-121l-205 256l93 82l180 -225l244 225l88 -82zM1274 1493l-21 -150l-1015 -1171h841l-24 -172h-1092l21 150l1017 1173h-851l22 170h1102z" />
    <glyph glyph-name="zcaron" unicode="&#x17e;" horiz-adv-x="901" 
d="M604 1223h-121l-204 256l92 82l180 -226l244 226l88 -82zM922 1069l-21 -137l-690 -785h588l-21 -147h-805l19 133l692 789h-582l21 147h799z" />
    <glyph glyph-name="uni018F" unicode="&#x18f;" horiz-adv-x="1443" 
d="M854 1513q260 0 399.5 -153.5t139.5 -431.5q0 -422 -211 -685t-549 -263q-256 0 -391.5 146t-135.5 398q0 68 13.5 154t21.5 104h1051q39 281 -60.5 422.5t-310.5 141.5q-160 0 -289 -76t-178 -201h-184q68 201 258 322.5t426 121.5zM655 147q201 0 337 127t177 357h-860
q-33 -250 63.5 -367t282.5 -117z" />
    <glyph glyph-name="florin" unicode="&#x192;" horiz-adv-x="1077" 
d="M831 1341l-69 -245l-55 -199h231l-18 -152h-252l-172 -614l-66 -227q-8 -31 -19.5 -53.5t-33 -49t-60 -42t-90.5 -15.5h-295l23 152h297l67 235l170 614h-206l18 152h229l56 199l67 237q8 31 19.5 54.5t33 50t59.5 41t91 14.5h293l-23 -152h-295z" />
    <glyph glyph-name="AEacute" unicode="&#x1fc;" horiz-adv-x="1957" 
d="M1706 1817l-420 -222l-45 88l397 273zM1946 1323h-824l-67 -496h704l-24 -159h-703l-69 -498h821l-25 -170h-1005l57 414h-489l-193 -414h-195l719 1493h1315zM834 567l104 756h-195l-350 -756h441z" />
    <glyph glyph-name="Oslashacute" unicode="&#x1fe;" horiz-adv-x="1615" 
d="M1497 1812l-420 -223l-47 90l400 271zM1681 1221l-180 -119q51 -135 51 -289q0 -373 -214 -603t-562 -230q-172 0 -311 74.5t-225 207.5l-172 -115l-72 123l178 119q-49 141 -49 291q0 373 213 602t559 229q174 0 313.5 -73.5t225.5 -206.5l172 115zM324 680
q0 -92 22 -176l928 618q-129 217 -379 217q-256 0 -413.5 -182t-157.5 -477zM1354 811q0 92 -23 176l-930 -618q129 -217 379 -217q256 0 415 182t159 477z" />
    <glyph glyph-name="oslashacute" unicode="&#x1ff;" horiz-adv-x="1292" 
d="M1157 1419l-420 -221l-45 88l398 273zM1278 883l-145 -97q33 -102 32 -211q0 -264 -154.5 -429.5t-400.5 -165.5q-268 0 -397 196l-141 -94l-56 106l144 97q-33 98 -33 209q0 262 154.5 429t400.5 167q264 0 395 -193l142 94zM309 494q0 -51 10 -103l609 406
q-78 135 -248 135q-162 0 -266.5 -122.5t-104.5 -315.5zM983 575q0 49 -10 105l-611 -406q84 -137 252 -137q162 0 265.5 122.5t103.5 315.5z" />
    <glyph glyph-name="Scommaaccent" unicode="&#x218;" horiz-adv-x="1343" 
d="M281 463q-2 -150 97 -241t269 -91q158 0 255 79t97 208q0 63 -22.5 109t-64.5 72t-70.5 38t-69.5 22l-184 48q-371 100 -371 378q0 193 143.5 310.5t377 117.5t373.5 -123.5t146 -332.5h-192q-2 137 -91 221t-239 84q-141 0 -227 -68.5t-86 -181.5q0 -90 57.5 -143.5
t171.5 -81.5l217 -53q164 -41 249 -143.5t85 -244.5q0 -211 -152.5 -338.5t-406.5 -127.5q-248 0 -399.5 132t-155.5 351h193zM410 -479l8 55q90 0 104 88l2 12h-96l29 199h174l-27 -190q-22 -164 -194 -164z" />
    <glyph glyph-name="scommaaccent" unicode="&#x219;" horiz-adv-x="1021" 
d="M227 346q-2 -104 65.5 -165.5t186.5 -61.5q102 0 169 47t67 133q0 41 -16.5 71.5t-46 46t-47 21.5t-46.5 13l-129 32q-270 61 -270 279q0 145 111.5 236.5t289.5 91.5q180 0 287.5 -93.5t109.5 -248.5h-170q0 92 -63 148t-170 56q-96 0 -154.5 -45t-58.5 -127
q0 -41 14.5 -69.5t46 -44t48 -20.5t55.5 -13l119 -29q279 -63 278 -289q0 -154 -116.5 -244.5t-305.5 -90.5q-193 0 -307.5 100t-116.5 266h170zM330 -461l8 55q90 0 104 89l2 12h-96l29 199h174l-27 -191q-22 -164 -194 -164z" />
    <glyph glyph-name="uni021A" unicode="&#x21a;" horiz-adv-x="1136" 
d="M1260 1493l-25 -170h-461l-188 -1323h-185l187 1323h-467l24 170h1115zM360 -324l29 199h174l-26 -190q-23 -164 -195 -164l8 55q90 0 105 88l2 12h-97z" />
    <glyph glyph-name="uni021B" unicode="&#x21b;" horiz-adv-x="694" 
d="M102 1069h185l45 324l186 67l-53 -391h237l-22 -147h-238l-86 -621q-12 -90 19 -127t108 -37q57 0 90 13l-22 -146q-59 -16 -131 -16q-139 0 -201.5 84t-42.5 225l88 625h-182zM248 -463l8 55q90 0 104 89l2 12h-96l29 198h174l-27 -190q-22 -164 -194 -164z" />
    <glyph glyph-name="uni0237" unicode="&#x237;" horiz-adv-x="542" 
d="M-55 -352q-53 0 -103 8l21 151q27 -8 63 -8q78 0 125 44t58 120l153 1106h178l-159 -1128q-20 -143 -109.5 -218t-226.5 -75z" />
    <glyph glyph-name="circumflex" unicode="&#x2c6;" horiz-adv-x="729" 
d="M211 1565l278 254h119l205 -252l-92 -86l-180 225l-246 -225z" />
    <glyph glyph-name="caron" unicode="&#x2c7;" horiz-adv-x="729" 
d="M238 1759l92 82l180 -225l244 225l88 -82l-279 -256h-121z" />
    <glyph glyph-name="breve" unicode="&#x2d8;" horiz-adv-x="739" 
d="M840 1776q-14 -129 -105.5 -210t-222.5 -81q-133 0 -203.5 80t-56.5 211h121q-10 -82 30.5 -132.5t116.5 -50.5q78 0 132.5 50.5t64.5 132.5h123z" />
    <glyph glyph-name="dotaccent" unicode="&#x2d9;" horiz-adv-x="380" 
d="M246 1516l33 243h165l-32 -243h-166z" />
    <glyph glyph-name="ring" unicode="&#x2da;" horiz-adv-x="772" 
d="M772 1606q0 -102 -68.5 -169t-173.5 -67q-96 0 -155.5 56.5t-59.5 150.5q0 102 69 168.5t173 66.5q96 0 155.5 -56t59.5 -150zM659 1602q0 51 -29.5 82.5t-78.5 31.5q-53 0 -89 -39t-36 -96q0 -51 29.5 -83t79.5 -32q53 0 88.5 39.5t35.5 96.5z" />
    <glyph glyph-name="ogonek" unicode="&#x2db;" horiz-adv-x="841" 
d="M158 -195q0 104 83 176t203 78l25 -59q-88 -16 -139 -61t-51 -109q0 -92 110 -92q63 0 125 29l-14 -105q-76 -31 -156 -27q-84 4 -135 50t-51 120z" />
    <glyph glyph-name="tilde" unicode="&#x2dc;" horiz-adv-x="679" 
d="M606 1491q-61 -2 -139 39t-123 39q-57 -2 -113 -68l-69 55q98 143 211 150q53 4 133 -38t119 -40q66 4 118 72l72 -60q-96 -143 -209 -149z" />
    <glyph glyph-name="hungarumlaut" unicode="&#x2dd;" horiz-adv-x="991" 
d="M238 1481l-45 88l397 274l65 -139zM657 1481l-43 88l396 274l67 -139z" />
    <glyph glyph-name="gravecomb" unicode="&#x300;" 
d="M-166 1481l-356 221l100 141l324 -272z" />
    <glyph glyph-name="acutecomb" unicode="&#x301;" 
d="M-463 1479l-45 88l397 272l68 -139z" />
    <glyph glyph-name="uni0302" unicode="&#x302;" 
d="M-518 1565l278 254h119l205 -252l-92 -86l-180 225l-246 -225z" />
    <glyph glyph-name="tildecomb" unicode="&#x303;" 
d="M-74 1491q-61 -2 -139 39t-123 39q-57 -2 -113 -68l-69 55q98 143 211 150q53 4 133 -38t119 -40q66 4 118 72l72 -60q-96 -143 -209 -149z" />
    <glyph glyph-name="uni0304" unicode="&#x304;" 
d="M-545 1507l17 129h634l-18 -129h-633z" />
    <glyph glyph-name="uni0306" unicode="&#x306;" 
d="M100 1776q-14 -129 -105 -210t-222 -81q-133 0 -204 80t-56 211h120q-10 -82 31 -132.5t117 -50.5q78 0 132 50.5t64 132.5h123z" />
    <glyph glyph-name="uni0307" unicode="&#x307;" 
d="M-135 1516l33 243h165l-32 -243h-166z" />
    <glyph glyph-name="uni0308" unicode="&#x308;" 
d="M-541 1516l33 243h164l-33 -243h-164zM-150 1516l33 243h164l-33 -243h-164z" />
    <glyph glyph-name="uni030A" unicode="&#x30a;" 
d="M0 1606q0 -102 -68.5 -169t-173.5 -67q-96 0 -155.5 56.5t-59.5 150.5q0 102 69 168.5t173 66.5q96 0 155.5 -56t59.5 -150zM-113 1602q0 51 -29.5 82.5t-78.5 31.5q-53 0 -89 -39t-36 -96q0 -51 29.5 -83t78.5 -32q53 0 89 39.5t36 96.5z" />
    <glyph glyph-name="uni030B" unicode="&#x30b;" 
d="M-754 1481l-45 88l398 274l65 -139zM-334 1481l-43 88l395 274l68 -139z" />
    <glyph glyph-name="uni030C" unicode="&#x30c;" 
d="M-492 1759l93 82l180 -225l244 225l88 -82l-279 -256h-121z" />
    <glyph glyph-name="uni0312" unicode="&#x312;" 
d="M100 1907l-8 -58q-92 0 -104 -90l-6 -45h94l-27 -198h-176l33 227q22 164 194 164z" />
    <glyph glyph-name="uni0326" unicode="&#x326;" 
d="M-524 -483l8 55q90 0 104 88l2 12h-96l29 199h174l-27 -190q-22 -164 -194 -164z" />
    <glyph glyph-name="uni0327" unicode="&#x327;" 
d="M-625 -70q61 -2 103.5 -38.5t42.5 -104.5q0 -86 -64.5 -128t-145.5 -36t-136 45l14 99q45 -53 133 -51.5t88 77.5q0 53 -54 68.5t-110 -6.5l6 51l130 155h65l-8 -57z" />
    <glyph glyph-name="uni0328" unicode="&#x328;" 
d="M-684 -195q0 104 83 176t204 78l24 -59q-88 -16 -139 -61t-51 -109q0 -92 110 -92q63 0 125 29l-14 -105q-76 -31 -156 -27q-84 4 -135 50t-51 120z" />
    <glyph glyph-name="uni0335" unicode="&#x335;" 
d="M-776 623l18 125h656l-19 -125h-655z" />
    <glyph glyph-name="uni0336" unicode="&#x336;" 
 />
    <glyph glyph-name="uni0337" unicode="&#x337;" 
d="M-858 0l805 1493h129l-803 -1493h-131z" />
    <glyph glyph-name="uni0338" unicode="&#x338;" 
d="M-858 0l805 1493h129l-803 -1493h-131z" />
    <glyph glyph-name="mu" unicode="&#x3bc;" horiz-adv-x="1189" 
d="M41 -354l201 1423h176l-94 -680q-18 -127 37 -195.5t163 -68.5q123 0 205 88t105 238l86 618h176l-152 -1069h-166l35 178h-14q-51 -98 -137.5 -148t-188.5 -50q-66 0 -122 27.5t-79 70.5h-12l-61 -432h-158z" />
    <glyph glyph-name="pi" unicode="&#x3c0;" horiz-adv-x="1191" 
d="M1061 2q-55 -16 -111 -16q-240 0 -205 272l95 674h-377l-131 -932h-178l131 932h-183l21 137h1089l-20 -137h-178l-94 -670q-20 -125 86 -125q49 0 73 8z" />
    <glyph glyph-name="omega" unicode="&#x3c9;" horiz-adv-x="1658" 
d="M946 0v375q186 35 299 170t113 327q0 213 -133 348.5t-350.5 135.5t-351.5 -135.5t-134 -350.5q0 -193 112.5 -326.5t299.5 -168.5v-375h-482v143h326v133q-201 59 -320.5 223.5t-119.5 383.5q0 279 183 454.5t486 175.5q299 0 483.5 -175t184.5 -455q0 -217 -119.5 -382
t-318.5 -225v-133h326v-143h-484z" />
    <glyph glyph-name="Wgrave" unicode="&#x1e80;" horiz-adv-x="1898" 
d="M1077 1597l-356 222l100 141l324 -272zM158 1493h194l51 -889l11 -399h14l526 1288h252l168 -1288h12l123 397l297 891h203l-514 -1493h-260l-174 1290h-10l-537 -1290h-260z" />
    <glyph glyph-name="wgrave" unicode="&#x1e81;" horiz-adv-x="1523" 
d="M856 1200l-356 221l100 142l324 -273zM94 1069h187l69 -567l25 -326h10l340 893h213l98 -889h6l115 316l227 573h195l-451 -1069h-229l-61 549l-27 303h-12l-107 -303l-209 -549h-237z" />
    <glyph glyph-name="Wacute" unicode="&#x1e82;" horiz-adv-x="1898" 
d="M1069 1595l-45 88l397 273l68 -139zM158 1493h194l51 -889l11 -399h14l526 1288h252l168 -1288h12l123 397l297 891h203l-514 -1493h-260l-174 1290h-10l-537 -1290h-260z" />
    <glyph glyph-name="wacute" unicode="&#x1e83;" horiz-adv-x="1523" 
d="M850 1198l-45 88l397 273l68 -140zM94 1069h187l69 -567l25 -326h10l340 893h213l98 -889h6l115 316l227 573h195l-451 -1069h-229l-61 549l-27 303h-12l-107 -303l-209 -549h-237z" />
    <glyph glyph-name="Wdieresis" unicode="&#x1e84;" horiz-adv-x="1898" 
d="M803 1636l33 244h163l-32 -244h-164zM1194 1636l33 244h164l-33 -244h-164zM158 1493h194l51 -889l11 -399h14l526 1288h252l168 -1288h12l123 397l297 891h203l-514 -1493h-260l-174 1290h-10l-537 -1290h-260z" />
    <glyph glyph-name="wdieresis" unicode="&#x1e85;" horiz-adv-x="1523" 
d="M584 1239l32 244h164l-32 -244h-164zM975 1239l33 244h163l-32 -244h-164zM94 1069h187l69 -567l25 -326h10l340 893h213l98 -889h6l115 316l227 573h195l-451 -1069h-229l-61 549l-27 303h-12l-107 -303l-209 -549h-237z" />
    <glyph glyph-name="Ygrave" unicode="&#x1ef2;" horiz-adv-x="1325" 
d="M815 1597l-356 222l100 141l324 -272zM145 1493h213l181 -387l141 -326h14l238 328l282 385h234l-684 -889l-84 -604h-184l84 604z" />
    <glyph glyph-name="ygrave" unicode="&#x1ef3;" horiz-adv-x="958" 
d="M573 1200l-356 221l100 142l324 -273zM72 1069h188l113 -518l61 -330h12l150 330l242 518h196l-577 -1171q-74 -145 -168 -202.5t-230 -57.5q-63 0 -112 14l22 147q47 -14 90 -14q141 0 209 125l64 119z" />
    <glyph glyph-name="endash" unicode="&#x2013;" horiz-adv-x="1304" 
d="M127 555l18 121h1053l-16 -121h-1055z" />
    <glyph glyph-name="emdash" unicode="&#x2014;" horiz-adv-x="1705" 
d="M127 555l18 121h1454l-16 -121h-1456z" />
    <glyph glyph-name="quoteleft" unicode="&#x2018;" horiz-adv-x="415" 
d="M469 1522l-12 -88q-143 0 -164 -144l-8 -59h125l-35 -252h-230l43 309q16 113 91 173.5t190 60.5z" />
    <glyph glyph-name="quoteright" unicode="&#x2019;" horiz-adv-x="409" 
d="M150 958l12 89q143 0 164 143l8 59h-123l35 252h229l-45 -309q-14 -113 -89.5 -173.5t-190.5 -60.5z" />
    <glyph glyph-name="quotesinglbase" unicode="&#x201a;" horiz-adv-x="415" 
d="M-31 -291l11 88q145 0 165 144l9 59h-125l34 252h230l-43 -309q-16 -111 -92 -172.5t-189 -61.5z" />
    <glyph glyph-name="quotedblleft" unicode="&#x201c;" horiz-adv-x="763" 
d="M471 1522l-12 -88q-143 0 -164 -144l-8 -59h123l-35 -252h-230l45 309q14 113 90 173.5t191 60.5zM817 1522l-12 -88q-143 0 -164 -144l-8 -59h125l-37 -252h-227l43 309q14 113 89.5 173.5t190.5 60.5z" />
    <glyph glyph-name="quotedblright" unicode="&#x201d;" horiz-adv-x="770" 
d="M152 958l12 89q147 0 164 143l8 59h-123l35 252h229l-43 -309q-16 -113 -91.5 -173.5t-190.5 -60.5zM510 958l10 89q145 0 166 143l8 59h-125l35 252h230l-43 -309q-16 -111 -92 -172.5t-189 -61.5z" />
    <glyph glyph-name="quotedblbase" unicode="&#x201e;" horiz-adv-x="808" 
d="M-12 -291l12 88q143 0 164 144l8 59h-125l35 252h229l-43 -309q-16 -113 -90.5 -173.5t-189.5 -60.5zM385 -291l10 88q145 0 166 144l8 59h-125l35 252h230l-43 -309q-16 -111 -92 -172.5t-189 -61.5z" />
    <glyph glyph-name="dagger" unicode="&#x2020;" horiz-adv-x="843" 
d="M526 768h277l-19 -135h-276l-45 -311h-144l43 311h-278l20 135h277l102 731h146z" />
    <glyph glyph-name="daggerdbl" unicode="&#x2021;" horiz-adv-x="843" 
d="M848 1063h-281l-41 -295h277l-19 -135h-276l-45 -311h-144l43 311h-278l20 135h277l41 295h-275l19 131h274l43 305h146l-43 -305h280z" />
    <glyph glyph-name="bullet" unicode="&#x2022;" horiz-adv-x="802" 
d="M139 528q0 123 92.5 218.5t208.5 95.5q98 0 164 -67.5t66 -168.5q0 -123 -93.5 -216t-211.5 -93q-96 0 -161 67.5t-65 163.5z" />
    <glyph glyph-name="ellipsis" unicode="&#x2026;" horiz-adv-x="1357" 
d="M61 0l37 258h232l-37 -258h-232zM487 0l37 258h232l-37 -258h-232zM913 0l37 258h232l-37 -258h-232z" />
    <glyph glyph-name="perthousand" unicode="&#x2030;" horiz-adv-x="2666" 
d="M203 1073q0 186 119.5 311t298.5 125q143 0 228 -83t85 -222q0 -186 -121 -312t-299 -126q-141 0 -226 84t-85 223zM311 0l1157 1493h148l-1155 -1493h-150zM350 1094q0 -92 49.5 -146.5t132.5 -54.5q106 0 180 85t74 208q0 90 -49 144t-135 54q-106 0 -179 -84.5
t-73 -205.5zM965 287q0 186 120.5 312t298.5 126q143 0 226.5 -84t83.5 -221q0 -188 -119 -314t-295 -126q-145 0 -230 84t-85 223zM1786 287q0 186 121 312t299 126q143 0 228 -85t85 -222q0 -186 -121 -312t-297 -126q-145 0 -230 84t-85 223zM1110 307q0 -90 51 -145.5
t135 -55.5q106 0 179 85t73 210q0 88 -49 143.5t-133 55.5q-106 0 -181 -86t-75 -207zM1933 307q0 -90 49.5 -145.5t135.5 -55.5q106 0 180 85t74 210q0 88 -50.5 143.5t-134.5 55.5q-106 0 -180 -85t-74 -208z" />
    <glyph glyph-name="guilsinglleft" unicode="&#x2039;" horiz-adv-x="673" 
d="M117 561l307 424h166l-287 -424l168 -428h-166z" />
    <glyph glyph-name="guilsinglright" unicode="&#x203a;" horiz-adv-x="675" 
d="M563 561l-303 -428h-170l287 428l-166 424h168z" />
    <glyph glyph-name="fraction" unicode="&#x2044;" horiz-adv-x="421" 
d="M-371 -94l1069 1667h150l-1071 -1667h-148z" />
    <glyph glyph-name="uni2070" unicode="&#x2070;" horiz-adv-x="1005" 
d="M516 604q-158 0 -247 108.5t-89 317.5q0 328 140.5 539t359.5 211q156 0 244 -108.5t88 -313.5q0 -328 -140.5 -541t-355.5 -213zM532 745q137 0 224.5 172.5t87.5 440.5q0 283 -185 282q-137 0 -225 -172t-88 -440q0 -283 186 -283z" />
    <glyph glyph-name="uni2074" unicode="&#x2074;" horiz-adv-x="980" 
d="M836 993h143l-18 -133h-144l-35 -246h-155l32 246h-559l21 133l579 772h244zM285 993h395l92 652z" />
    <glyph glyph-name="uni2075" unicode="&#x2075;" horiz-adv-x="968" 
d="M963 1626h-529l-61 -330l6 -2q94 84 242 84q145 0 232 -88t87 -231q0 -195 -132 -328t-327 -133q-168 0 -261 102.5t-66 266.5h161q-16 -98 36 -163t153 -65q115 0 191.5 84t76.5 211q0 92 -53 149.5t-148 57.5q-68 0 -131 -31.5t-92 -83.5h-149l114 639h670z" />
    <glyph glyph-name="uni2076" unicode="&#x2076;" horiz-adv-x="980" 
d="M518 598q-334 0 -334 414q0 350 139.5 559t370.5 209q154 0 239 -78t79 -215h-164q0 80 -50 119t-126 39q-266 0 -305 -433h8q98 154 289 154q135 0 218 -84t83 -223q0 -199 -127 -330t-320 -131zM545 739q109 0 181.5 86t72.5 213q0 90 -50.5 142.5t-134.5 52.5
q-106 0 -182 -86t-76 -209q0 -90 50.5 -144.5t138.5 -54.5z" />
    <glyph glyph-name="uni2077" unicode="&#x2077;" horiz-adv-x="876" 
d="M178 1419l49 346h770l-16 -112q-193 -225 -356.5 -507t-241.5 -532h-172q78 242 233.5 515.5t341.5 496.5h-446l-29 -207h-133z" />
    <glyph glyph-name="uni2078" unicode="&#x2078;" horiz-adv-x="946" 
d="M137 868q0 102 56.5 186.5t152.5 129.5l2 12q-61 29 -97 89.5t-36 133.5q0 156 123 258.5t311 102.5q160 0 253 -74t93 -195q0 -100 -57 -187t-152 -128l-2 -12q133 -68 134 -223q0 -158 -123 -260.5t-314 -102.5q-160 0 -252 74.5t-92 195.5zM379 1417q0 -76 53 -119
t143 -43q111 0 180.5 62.5t69.5 161.5q0 76 -53 117.5t-143 41.5q-109 0 -179.5 -62.5t-70.5 -158.5zM305 901q0 -76 54.5 -119t142.5 -43q109 0 180.5 62.5t71.5 161.5q0 76 -53.5 118.5t-143.5 42.5q-109 0 -180.5 -62.5t-71.5 -160.5z" />
    <glyph glyph-name="uni2079" unicode="&#x2079;" horiz-adv-x="978" 
d="M473 598q-145 0 -231 80t-82 213h162q-2 -72 47 -114t129 -42q266 0 303 432h-8q-100 -152 -291 -151q-135 0 -217 84t-82 221q0 199 126 329t318 130q334 0 334 -416q0 -354 -136 -560t-372 -206zM551 1147q109 0 184.5 86t75.5 209q0 90 -51 144t-139 54
q-109 0 -181.5 -86t-72.5 -213q0 -90 50 -142t134 -52z" />
    <glyph glyph-name="uni2080" unicode="&#x2080;" horiz-adv-x="1007" 
d="M401 -215q-158 0 -246.5 108.5t-88.5 317.5q0 328 140 539t359 211q156 0 244 -109t88 -313q0 -328 -140.5 -541t-355.5 -213zM418 -74q137 0 224 172t87 441q0 283 -184 282q-137 0 -225.5 -172t-88.5 -440q1 -283 187 -283z" />
    <glyph glyph-name="uni2081" unicode="&#x2081;" horiz-adv-x="724" 
d="M88 625l16 123h48q111 0 188.5 55t91.5 143h148l-162 -1151h-156l117 830h-291z" />
    <glyph glyph-name="uni2082" unicode="&#x2082;" horiz-adv-x="921" 
d="M199 -72l198 9h348l-20 -142h-721l6 39q16 106 72.5 195.5t128.5 145.5t152.5 114.5t146 105.5t110 117t44.5 152q0 74 -46.5 114.5t-125.5 40.5q-100 0 -165 -57t-75 -160h-160q20 162 138 260.5t286 98.5q147 0 232.5 -76t85.5 -201q0 -117 -56.5 -212t-141.5 -159.5
t-172 -121t-163.5 -124t-101.5 -139.5z" />
    <glyph glyph-name="uni2083" unicode="&#x2083;" horiz-adv-x="950" 
d="M362 -221q-174 0 -262 99t-59 265h166q-20 -109 30 -166t146 -57q109 0 179.5 67.5t70.5 168.5q0 78 -55.5 122t-151.5 44h-86l18 133h80q109 0 178.5 61.5t69.5 157.5q0 70 -49 107.5t-127 37.5q-98 0 -161.5 -58.5t-76.5 -160.5h-161q16 160 133.5 260.5t287.5 100.5
q141 0 232.5 -70t91.5 -189q0 -102 -56.5 -181t-154.5 -120l-2 -10q158 -59 158 -229q0 -162 -126.5 -272.5t-312.5 -110.5z" />
    <glyph glyph-name="uni2084" unicode="&#x2084;" horiz-adv-x="980" 
d="M721 174h143l-18 -133h-144l-34 -246h-156l33 246h-559l18 133l582 772h243zM170 174h395l92 651z" />
    <glyph glyph-name="uni2085" unicode="&#x2085;" horiz-adv-x="970" 
d="M848 807h-529l-61 -330l6 -2q94 84 242 84q145 0 232 -88t87 -231q0 -195 -132 -328t-326 -133q-168 0 -261.5 102.5t-66.5 265.5h162q-16 -98 35 -162.5t153 -64.5q115 0 191.5 84t76.5 211q0 92 -53 149.5t-147 57.5q-68 0 -131.5 -32t-92.5 -83h-149l115 639h669z" />
    <glyph glyph-name="uni2086" unicode="&#x2086;" horiz-adv-x="983" 
d="M403 -221q-334 0 -333 414q0 350 139 559t371 209q154 0 238.5 -78t78.5 -215h-164q0 80 -50 118.5t-126 38.5q-266 0 -305 -432h8q98 154 289 154q135 0 218 -84t83 -223q0 -199 -127 -330t-320 -131zM430 -80q109 0 181.5 86t72.5 213q0 90 -50 142.5t-134 52.5
q-106 0 -182 -86t-76 -209q0 -90 50 -144.5t138 -54.5z" />
    <glyph glyph-name="uni2087" unicode="&#x2087;" horiz-adv-x="878" 
d="M63 600l50 346h770l-17 -112q-190 -223 -354 -505t-244 -534h-172q78 242 233.5 515.5t342.5 496.5h-447l-28 -207h-134z" />
    <glyph glyph-name="uni2088" unicode="&#x2088;" horiz-adv-x="948" 
d="M23 49q0 102 56 186t152 130l2 12q-61 29 -97 89t-36 134q0 156 123 258.5t312 102.5q160 0 253 -74t93 -195q0 -100 -57.5 -187t-151.5 -128l-2 -12q133 -68 133 -224q0 -158 -123 -260t-313 -102q-160 0 -252 74.5t-92 195.5zM264 598q0 -76 53.5 -119t143.5 -43
q111 0 180.5 62.5t69.5 160.5q0 76 -53.5 118t-143.5 42q-109 0 -179.5 -62.5t-70.5 -158.5zM190 82q0 -76 54.5 -119t142.5 -43q109 0 180.5 62.5t71.5 160.5q0 76 -53.5 119t-143.5 43q-109 0 -180.5 -62.5t-71.5 -160.5z" />
    <glyph glyph-name="uni2089" unicode="&#x2089;" horiz-adv-x="978" 
d="M358 -221q-145 0 -231 80t-82 213h162q-2 -72 47 -114t129 -42q266 0 303 432h-8q-100 -152 -291 -151q-135 0 -217 84t-82 221q0 199 126 329t318 130q334 0 334 -416q0 -354 -136 -560t-372 -206zM436 328q109 0 184.5 86t75.5 209q0 90 -51 144t-139 54
q-109 0 -181.5 -86t-72.5 -213q0 -90 50 -142t134 -52z" />
    <glyph glyph-name="uni20A6" unicode="&#x20a6;" horiz-adv-x="1443" 
d="M1473 815l-21 -139h-174l-94 -676h-205l-285 676h-311l-96 -676h-181l95 676h-170l20 139h170l94 678h209l287 -678h307l96 678h179l-95 -678h175zM403 815h232l-174 414h-10l-45 -400zM1053 264l47 412h-232l174 -412h11z" />
    <glyph glyph-name="uni20A9" unicode="&#x20a9;" horiz-adv-x="1642" 
d="M1710 1493l-221 -686h168l-19 -139h-194l-217 -668h-203l-45 668h-264l-238 -668h-205l-32 668h-197l18 139h172l-34 686h174l18 -686h227l242 686h203l45 -686h219l207 686h176zM764 807h205l-31 461h-10zM416 236l153 432h-174l11 -432h10zM1155 233l131 435h-170
l29 -435h10z" />
    <glyph glyph-name="afii57636" unicode="&#x20aa;" horiz-adv-x="1429" 
d="M911 1337h-499l-187 -1337h-162l209 1493h635q90 0 133 -40t27 -146l-35 -242l-102 -733h-160l104 733zM1262 1493h161l-209 -1493h-632q-88 0 -133.5 40t-28.5 146l35 244l100 733h162l-103 -733l-39 -272h500z" />
    <glyph glyph-name="Euro" unicode="&#x20ac;" horiz-adv-x="1527" 
d="M768 147q156 0 269.5 81t166.5 223h197q-72 -215 -251 -342t-413 -127q-244 0 -380 142t-148 396h-154l19 142h135q10 109 31 206h-136l19 140h160q88 236 266 369.5t412 133.5q231 0 372.5 -129t149.5 -338h-195q-14 147 -108.5 225.5t-243.5 78.5q-154 0 -272.5 -89.5
t-186.5 -250.5h563l-36 -140h-572q-25 -94 -31 -206h560l-37 -142h-523q14 -186 109.5 -279.5t257.5 -93.5z" />
    <glyph glyph-name="uni20B2" unicode="&#x20b2;" horiz-adv-x="1466" 
d="M694 786h633l-8 -84q-20 -276 -197.5 -428.5t-431.5 -156.5l-26 -195h-138l29 207q-199 39 -315.5 189.5t-116.5 373.5q0 291 170 483.5t440 206.5l27 197h137l-29 -201q178 -25 294 -136.5t132 -276.5h-188q-18 115 -111.5 186.5t-226.5 71.5q-203 0 -330 -147.5
t-127 -377.5q0 -188 103.5 -302.5t273.5 -114.5q166 0 286 96t140 258h-442z" />
    <glyph glyph-name="uni20B8" unicode="&#x20b8;" horiz-adv-x="1134" 
d="M145 1493h1115l-23 -156h-1112zM74 971l20 159h1114l-22 -159h-465l-137 -971h-178l137 971h-469z" />
    <glyph glyph-name="uni20B9" unicode="&#x20b9;" horiz-adv-x="1511" 
d="M1430 1493l-21 -141h-270q80 -96 80 -248v-21h153l-20 -139h-154q-76 -276 -358 -358l-2 -13q35 -8 60.5 -36.5t34.5 -49t34 -86.5q6 -16 10 -24l143 -377h-202l-138 381q-35 98 -80 132t-137 34h-323l22 153h395q133 0 223.5 64.5t125.5 179.5h-711l20 139h709
q-2 121 -76 182.5t-200 61.5h-398l4 25h-2l21 141h1057z" />
    <glyph glyph-name="uni20BA" unicode="&#x20ba;" horiz-adv-x="1200" 
d="M1153 668q-88 -313 -318.5 -489.5t-529.5 -178.5h-149l84 592l-215 -80l20 154l215 82l27 188l-215 -82l22 152l217 86l56 401h178l-47 -334l403 156l-22 -154l-404 -157l-24 -189l403 158l-23 -154l-403 -155l-70 -494q211 0 378 135t239 363h178z" />
    <glyph glyph-name="uni20BC" unicode="&#x20bc;" horiz-adv-x="1349" 
d="M25 0l102 729q35 252 185.5 386t379.5 149l33 229h172l-33 -229q240 -14 343.5 -153.5t70.5 -381.5l-102 -729h-172l102 729q25 174 -46 265t-218 102l-154 -1096h-172l154 1096q-162 -10 -254 -107.5t-115 -259.5l-100 -729h-176z" />
    <glyph glyph-name="uni20BD" unicode="&#x20bd;" horiz-adv-x="1357" 
d="M770 547l-285 2l-22 -156h440l-18 -141h-443l-34 -252h-179l35 252h-192l18 141h195l22 154h-194l20 145h195l112 801h478q217 0 334.5 -108.5t117.5 -290.5q0 -248 -166 -398.5t-434 -148.5zM1180 1069q0 121 -80 187.5t-219 66.5h-287l-86 -614h287q172 0 278.5 100
t106.5 260z" />
    <glyph glyph-name="uni20BF" unicode="&#x20bf;" horiz-adv-x="1478" 
d="M1010 774q176 -66 176 -262q0 -160 -107.5 -270.5t-287.5 -132.5l-27 -187h-137l26 182h-159l-27 -182h-133l26 182h-137l183 1293h135l24 182h135l-24 -182h158l26 182h135l-24 -188q127 -18 195.5 -93t68.5 -192q0 -121 -68.5 -210t-165.5 -122h9zM563 1243l-55 -405
h274q117 0 189.5 66.5t72.5 172.5q0 82 -55 124t-151 42h-275zM705 256q135 0 213.5 68.5t78.5 187.5q0 88 -63.5 132t-167.5 44h-279l-63 -432h281z" />
    <glyph glyph-name="afii61248" unicode="&#x2105;" horiz-adv-x="2056" 
d="M883 1022q-14 -129 -110.5 -206t-233.5 -77q-158 0 -258.5 103.5t-100.5 281.5q0 180 101.5 284.5t263.5 104.5q135 0 226 -73.5t108 -190.5h-152q-14 61 -66.5 98t-119.5 37q-98 0 -153.5 -68.5t-55.5 -191.5q0 -121 55 -188.5t152 -67.5q76 0 129 42t63 112h152zM502 0
l946 1493h156l-945 -1493h-157zM1208 371q0 172 100.5 280.5t266.5 108.5q164 0 263 -108.5t99 -280.5q0 -170 -99 -277.5t-263 -107.5t-265.5 107.5t-101.5 277.5zM1360 373q0 -117 57.5 -187.5t157.5 -70.5q96 0 154.5 70.5t58.5 189.5q0 115 -56.5 185.5t-156.5 70.5
q-98 0 -156.5 -69.5t-58.5 -188.5z" />
    <glyph glyph-name="afii61352" unicode="&#x2116;" horiz-adv-x="2973" 
d="M1755 1006q0 223 147.5 363t370.5 140q197 0 325 -127t128 -329q0 -223 -145.5 -363.5t-368.5 -140.5q-199 0 -328 127t-129 330zM133 0l209 1493h229l619 -1260h8l51 453l113 807h184l-209 -1493h-231l-614 1260h-9l-49 -435l-117 -825h-184zM1942 1008
q0 -135 78.5 -219t197.5 -84q143 0 234.5 96t91.5 250q0 135 -79 219t-198 84q-141 0 -233 -96t-92 -250zM1763 158h711l-20 -158h-711z" />
    <glyph glyph-name="uni2117" unicode="&#x2117;" horiz-adv-x="1933" 
d="M987.5 -156q-360.5 0 -611.5 241t-251 615q0 377 251 620t611.5 243t611 -241t250.5 -615q0 -379 -250.5 -621t-611 -242zM987 -96q332 0 562.5 226t230.5 577q0 348 -230.5 572t-562.5 224t-563 -226t-231 -577q0 -346 231 -571t563 -225zM690 276v850h422
q139 0 222 -79.5t83 -208.5t-83 -210t-222 -81h-274v-271h-148zM834 678h276q76 0 119 44t43 116q0 66 -44 108.5t-118 42.5h-276v-311z" />
    <glyph glyph-name="trademark" unicode="&#x2122;" horiz-adv-x="1411" 
d="M172 1401l12 94h482l-15 -94h-192l-76 -541h-102l75 541h-184zM1262 1495h131l-90 -635h-101l45 309l33 183h-6l-287 -480l-151 480h-7l-18 -183l-43 -309h-98l90 635h129l125 -420h4z" />
    <glyph glyph-name="estimated" unicode="&#x212e;" horiz-adv-x="1689" 
d="M1575 471q-55 -221 -245.5 -355t-455.5 -134q-332 0 -531.5 208.5t-199.5 544.5q0 338 205 548t545 210q309 0 496.5 -179t201.5 -505q2 -43 2 -117h-1228v-379q72 -121 210 -187.5t304 -66.5q219 0 383.5 114t218.5 298h94zM365 1149v-383h1009v420q-184 227 -510 221
q-323 -6 -499 -258z" />
    <glyph glyph-name="oneeighth" unicode="&#x215b;" horiz-adv-x="1869" 
d="M268 -94l1069 1667h150l-1071 -1667h-148zM156 1204l16 121h92q90 0 138.5 45t48.5 115v8h149l-137 -969h-150l97 680h-254zM1092 219q0 84 48 158t128 108l2 11q-115 57 -115 190q0 135 106.5 222t268.5 87q137 0 216 -63.5t79 -167.5q0 -84 -48 -159t-126 -109l-2 -11
q111 -59 110 -188q0 -135 -104.5 -223t-265.5 -88q-137 0 -217 63.5t-80 169.5zM1313 684q0 -61 42 -95t111 -34q86 0 141.5 51t55.5 129q0 59 -42 93t-110 34q-88 0 -143 -50t-55 -128zM1251 248q0 -61 42 -94t114 -33q84 0 139.5 50t55.5 128q0 59 -41 94t-111 35
q-86 0 -142.5 -51t-56.5 -129z" />
    <glyph glyph-name="threeeighths" unicode="&#x215c;" horiz-adv-x="2017" 
d="M416 -94l1069 1667h149l-1071 -1667h-147zM383 508q-147 0 -221 86t-51 219h153q-14 -82 26 -127t111 -45q78 0 133.5 52t55.5 128q0 61 -44 95t-114 34h-74l21 140h61q84 0 137.5 48t53.5 124q0 53 -37 81.5t-92 28.5q-74 0 -123 -47t-57 -125h-154q12 133 107.5 219
t244.5 86q123 0 198 -59.5t75 -161.5q0 -176 -172 -250v-10q127 -51 127 -188.5t-105.5 -232.5t-259.5 -95zM1239 219q0 84 48 158t128 108l2 11q-115 57 -114 190q0 135 106.5 222t267.5 87q137 0 216 -63.5t79 -167.5q0 -84 -48 -159t-126 -109l-2 -11q111 -59 111 -188
q0 -135 -104.5 -223t-266.5 -88q-137 0 -217 63.5t-80 169.5zM1460 684q0 -61 42 -95t112 -34q86 0 141 51t55 129q0 59 -42 93t-109 34q-88 0 -143.5 -50t-55.5 -128zM1399 248q0 -61 42 -94t113 -33q84 0 139.5 50t55.5 128q0 59 -41 94t-111 35q-86 0 -142 -51t-56 -129z
" />
    <glyph glyph-name="fiveeighths" unicode="&#x215d;" horiz-adv-x="2041" 
d="M442 -94l1069 1667h150l-1071 -1667h-148zM119 819h155q-12 -74 28 -125t116 -51q88 0 146.5 66.5t58.5 164.5q0 74 -40 119t-112 45q-53 0 -100 -26.5t-70 -67.5h-145l77 549h586l-18 -137h-436l-21 -150l-18 -98l2 -4q68 63 190 63q121 0 192.5 -74.5t71.5 -193.5
q0 -166 -110.5 -278.5t-274.5 -112.5q-141 0 -219.5 86t-58.5 225zM1264 219q0 84 48 158t128 108l2 11q-115 57 -115 190q0 135 106.5 222t268.5 87q137 0 216 -63.5t79 -167.5q0 -84 -48 -159t-126 -109l-2 -11q111 -59 110 -188q0 -135 -104.5 -223t-265.5 -88
q-137 0 -217 63.5t-80 169.5zM1485 684q0 -61 42 -95t111 -34q86 0 141.5 51t55.5 129q0 59 -42 93t-110 34q-88 0 -143 -50t-55 -128zM1423 248q0 -61 42 -94t114 -33q84 0 139.5 50t55.5 128q0 59 -41 94t-111 35q-86 0 -142.5 -51t-56.5 -129z" />
    <glyph glyph-name="seveneighths" unicode="&#x215e;" horiz-adv-x="1839" 
d="M1309 1573h149l-1071 -1667h-147zM158 524q154 485 473 832h-336l-19 -129h-114l37 266h632l-14 -111q-197 -207 -315.5 -412.5t-192.5 -445.5h-151zM1618 485q111 -59 111 -188q0 -135 -104.5 -223t-266.5 -88q-137 0 -217 63.5t-80 169.5q0 84 48 158t128 108l2 11
q-115 57 -115 190q0 135 106.5 222t268.5 87q137 0 216 -63.5t79 -167.5q0 -84 -48 -159t-126 -109zM1436 555q86 0 141 51t55 129q0 59 -42 93t-109 34q-88 0 -143.5 -50t-55.5 -128q0 -61 42 -95t112 -34zM1376 121q84 0 139.5 50t55.5 128q0 59 -41 94t-111 35
q-86 0 -142 -51t-56 -129q0 -61 41.5 -94t113.5 -33z" />
    <glyph glyph-name="arrowleft" unicode="&#x2190;" horiz-adv-x="1748" 
d="M1542 475h-1263l346 -475h-146l-401 537l401 534h146l-346 -475h1263v-121z" />
    <glyph glyph-name="arrowup" unicode="&#x2191;" horiz-adv-x="1482" 
d="M1196 612l-418 367v-856h418v-119h-952v119h415v856l-415 -367v152l475 416l477 -416v-152z" />
    <glyph glyph-name="arrowright" unicode="&#x2192;" horiz-adv-x="1796" 
d="M207 475v121h1263l-346 475h146l401 -534l-401 -537h-146l346 475h-1263z" />
    <glyph glyph-name="arrowdown" unicode="&#x2193;" horiz-adv-x="1480" 
d="M1239 956h-418v-856l418 367v-152l-477 -415l-475 415v152l415 -367v856h-415v119h952v-119z" />
    <glyph glyph-name="arrowboth" unicode="&#x2194;" horiz-adv-x="2193" 
d="M201 719l407 489h142l-351 -430h1446l-346 430h139l410 -489l-410 -488h-139l346 428h-1446l351 -428h-142z" />
    <glyph glyph-name="arrowupdn" unicode="&#x2195;" horiz-adv-x="1681" 
d="M268 225v158l531 -465v1432l-531 -463v155l588 514l584 -514v-155l-529 463v-1432l529 465v-158l-584 -514z" />
    <glyph glyph-name="uni2196" unicode="&#x2196;" horiz-adv-x="1542" 
d="M1272 0l-846 879v-721h-119v923h895v-125h-696l850 -870z" />
    <glyph glyph-name="uni2197" unicode="&#x2197;" horiz-adv-x="1439" 
d="M223 0l-82 86l848 870h-698v119h895v-921h-117v718z" />
    <glyph glyph-name="uni2198" unicode="&#x2198;" horiz-adv-x="1540" 
d="M338 -4v129h694l-842 868l82 82l846 -870l2 723h117l-2 -928z" />
    <glyph glyph-name="uni2199" unicode="&#x2199;" horiz-adv-x="1388" 
d="M285 0v928h118v-723l842 870l84 -84l-842 -866h697v-125h-899z" />
    <glyph glyph-name="uni21A9" unicode="&#x21a9;" horiz-adv-x="1914" 
d="M1765 1020q0 -205 -127 -327t-370 -122h-738v-254l-346 316l346 317v-254h738q170 0 272 83t102 241q0 145 -96 233t-258 88h-26v121h26q211 0 344 -123.5t133 -318.5z" />
    <glyph glyph-name="uni21AA" unicode="&#x21aa;" horiz-adv-x="2023" 
d="M285 1020q0 195 134 318.5t347 123.5h27v-121h-27q-164 0 -258 -88t-94 -233q0 -160 100 -242t272 -82h736v254l346 -317l-346 -316v254h-736q-246 0 -373.5 122t-127.5 327z" />
    <glyph glyph-name="uni21B2" unicode="&#x21b2;" horiz-adv-x="1654" 
d="M1325 1509h119v-938h-864v-254l-347 316l347 317v-254h745v813z" />
    <glyph glyph-name="uni21B3" unicode="&#x21b3;" horiz-adv-x="1769" 
d="M1567 633l-350 -316v254h-861v938h117v-813h744v254z" />
    <glyph glyph-name="uni21BA" unicode="&#x21ba;" horiz-adv-x="1701" 
d="M868.5 -25q-288.5 0 -484.5 193.5t-196 476.5q0 188 93.5 354t257.5 267l65 -95q-299 -184 -299 -526q0 -236 162 -395.5t401.5 -159.5t396 158t156.5 385q0 174 -79.5 291.5t-376.5 378.5l-7 -5l11 -143v-305h-113v643h625v-119h-299l-135 10l-3 -6q311 -262 405.5 -401
t94.5 -344q0 -270 -193.5 -464t-482 -194z" />
    <glyph glyph-name="uni21BB" unicode="&#x21bb;" horiz-adv-x="1757" 
d="M915 -25q-285 0 -478 192.5t-193 465.5q0 143 43 247.5t143 213t311 284.5l-2 6l-139 -10h-301v119h631v-643h-117v305l10 143l-6 5q-297 -262 -376 -379t-79 -291q0 -227 158 -385t395 -158q242 0 403 158t161 397q0 172 -80 307t-217 219l65 95q162 -96 258.5 -266.5
t96.5 -354.5q0 -283 -197 -476.5t-490 -193.5z" />
    <glyph glyph-name="emptyset" unicode="&#x2205;" horiz-adv-x="1626" 
d="M897 1511q287 0 470 -194.5t183 -503.5q0 -373 -214 -603t-562 -230q-287 0 -469 194.5t-182 505.5q0 373 213 602t561 229zM893 1339q-256 0 -413.5 -182t-157.5 -477q0 -143 51 -258l846 774q-127 143 -326 143zM778 152q256 0 415 182t159 477q0 143 -52 258
l-847 -772q126 -145 325 -145z" />
    <glyph glyph-name="product" unicode="&#x220f;" horiz-adv-x="1497" 
d="M1427 1493l-20 -152h-215l-188 -1341h-173l187 1341h-307l-187 -1341h-174l187 1341h-218l21 152h1087z" />
    <glyph glyph-name="summation" unicode="&#x2211;" horiz-adv-x="1191" 
d="M-14 -332l18 133l612 770l5 15l-398 772l19 135h989l-21 -160l-497 -2l-289 12v-12l389 -753l-604 -746v-14l293 14h495l-22 -164h-989z" />
    <glyph glyph-name="minus" unicode="&#x2212;" horiz-adv-x="1304" 
d="M203 694h948l-25 -174h-948z" />
    <glyph glyph-name="radical" unicode="&#x221a;" horiz-adv-x="1466" 
d="M1311 1493h186l-835 -1636h-244l-185 805h-137l21 139h264l61 -256l111 -539h14l258 531z" />
    <glyph glyph-name="infinity" unicode="&#x221e;" horiz-adv-x="1837" 
d="M428 141q-154 0 -242 95.5t-88 246.5q0 205 131 350.5t316 145.5q76 0 137 -24.5t109.5 -76t78 -94.5t68.5 -110q57 68 99 110.5t104.5 94t131 76t144.5 24.5q152 0 239 -99.5t87 -250.5q0 -201 -130 -344.5t-313 -143.5q-100 0 -180 49.5t-121 104.5t-94 149
q-115 -139 -227.5 -221t-249.5 -82zM451 285q84 0 170 60.5t215 211.5q-88 154 -155 214t-155 60q-117 0 -198.5 -95t-81.5 -230q0 -100 57.5 -160.5t147.5 -60.5zM1315 285q117 0 198.5 95t81.5 228q0 100 -56 161.5t-148 61.5q-88 0 -172 -61t-213 -213
q90 -154 154.5 -213t154.5 -59z" />
    <glyph glyph-name="integral" unicode="&#x222b;" horiz-adv-x="1155" 
d="M784 1542h293l-20 -151h-275l-39 -271l-137 -975l-37 -266q-23 -156 -182 -155h-293l21 149h274l39 272l137 975l35 262q22 160 184 160z" />
    <glyph glyph-name="approxequal" unicode="&#x2248;" horiz-adv-x="1085" 
d="M223 715q10 137 71.5 196.5t137.5 59.5q61 0 156.5 -50.5t142.5 -50.5q98 0 111 123h100q-8 -141 -75.5 -198.5t-149.5 -57.5q-74 0 -170 48.5t-133 48.5q-86 0 -90 -119h-101zM166 311q10 139 71.5 197.5t137.5 58.5q59 0 155.5 -49t145.5 -49q96 0 108 123h101
q-8 -141 -75 -201.5t-148 -60.5q-72 0 -171.5 51t-134.5 51q-39 0 -63.5 -35t-24.5 -86h-102z" />
    <glyph glyph-name="notequal" unicode="&#x2260;" horiz-adv-x="1234" 
d="M1083 735h-288l-170 -260h422l-23 -158h-504l-160 -241h-167l159 241h-200l20 158h285l172 260h-418l20 162h504l168 254h166l-168 -254h205z" />
    <glyph glyph-name="lessequal" unicode="&#x2264;" horiz-adv-x="1155" 
d="M938 276l-750 392l21 153l860 389l-29 -200l-389 -160l-284 -102l-2 -13l249 -96l351 -158zM897 0h-803l21 154h803z" />
    <glyph glyph-name="greaterequal" unicode="&#x2265;" horiz-adv-x="1155" 
d="M145 276l29 205l393 158l279 96l2 13l-258 102l-342 160l28 200l748 -389l-20 -153zM106 0l21 154h803l-21 -154h-803z" />
    <glyph glyph-name="filledbox" unicode="&#x25a0;" horiz-adv-x="2076" 
d="M365 1493h1409v-1491h-1409v1491z" />
    <glyph glyph-name="H22073" unicode="&#x25a1;" horiz-adv-x="2062" 
d="M358 1493h1409v-1493h-1409v1493zM473 1378v-1263h1178v1263h-1178z" />
    <glyph glyph-name="triagup" unicode="&#x25b2;" horiz-adv-x="2074" 
d="M80 0l881 1509l884 -1509h-1765z" />
    <glyph glyph-name="uni25B3" unicode="&#x25b3;" horiz-adv-x="2074" 
d="M84 0l877 1511l882 -1511h-1759zM283 119h1357l-679 1165z" />
    <glyph glyph-name="lozenge" unicode="&#x25ca;" horiz-adv-x="4450" 
d="M2148 -20q-276 0 -438 205.5t-162 547.5q0 197 57.5 349.5t157 244.5t224 139t270.5 47q248 0 415 -126.5t203 -335.5h-319q-74 176 -301 176q-186 0 -281.5 -128t-95.5 -358q0 -238 96.5 -359.5t263.5 -121.5q137 0 223.5 67.5t106.5 188.5h-332v293h664v-809h-227
l-33 244h-72q-35 -129 -148.5 -196.5t-271.5 -67.5zM3176 1180q-70 0 -115.5 47t-45.5 121q0 72 46 118.5t115 46.5q72 0 114 -47t42 -118q0 -76 -42 -122t-114 -46zM3582 1180q-70 0 -113 47t-43 121q0 72 44 118.5t112 46.5q74 0 120 -47t46 -118q0 -74 -45 -121t-121 -47
zM213 0v1493h555q324 0 506 -186.5t182 -556.5q0 -369 -183 -559.5t-505 -190.5h-555zM3922 1171v259h-78v63h242v-63h-90v-259h-74zM4127 1171v322h129l35 -260l47 260h125v-322h-82v277l-35 -277h-107l-43 277v-277h-69zM483 170q55 55 105.5 80.5t126.5 25.5h53
q27 0 53.5 3.5t89 28t106.5 68.5t81 140t37 227q0 127 -34 221.5t-78 140.5t-101.5 73.5t-91 33t-62.5 5.5h-53q-57 0 -105.5 20t-66 34.5t-60.5 55.5l-53 -61q2 -4 14.5 -17.5t15.5 -16.5t14 -16.5t14.5 -19.5t11.5 -19.5t10 -22.5t8 -24.5t7 -29t3 -31.5t2 -39v-565
q0 -33 -5 -62.5t-9 -47t-18.5 -41t-19.5 -32t-24.5 -32t-23.5 -27.5zM3068 0v1006h289l14 -119h55q25 76 101.5 115.5t183.5 39.5v-301q-338 33 -338 -303v-438h-305z" />
    <glyph glyph-name="circle" unicode="&#x25cb;" horiz-adv-x="1734" 
d="M897 -20q-317 0 -535.5 215t-218.5 553q0 334 218.5 548.5t535.5 214.5q315 0 534.5 -215t219.5 -548q0 -338 -218.5 -553t-535.5 -215zM897 74q268 0 458.5 190.5t190.5 483.5q0 291 -190.5 480t-458.5 189q-266 0 -456.5 -189.5t-190.5 -479.5q0 -293 190.5 -483.5
t456.5 -190.5z" />
    <glyph glyph-name="H18533" unicode="&#x25cf;" horiz-adv-x="1861" 
d="M965 -20q-322 0 -537 220t-215 550q0 326 215 543.5t537 217.5q319 0 531 -218t212 -543q0 -330 -212 -550t-531 -220z" />
    <glyph glyph-name="uni262E" unicode="&#x262e;" horiz-adv-x="1837" 
d="M948 1509q326 0 540 -214t214 -554q0 -344 -213 -558t-540.5 -214t-540.5 214t-213 558q0 340 212.5 554t540.5 214zM1604 741q0 289 -173.5 476.5t-437.5 203.5v-637l551 -342q60 135 60 299zM901 1421q-264 -16 -437 -204.5t-173 -475.5q0 -160 57 -297l553 340v637z
M393 358q80 -133 213 -210.5t295 -88.5v611zM993 59q162 8 295 87t213 212l-508 312v-611z" />
    <glyph glyph-name="uni2639" unicode="&#x2639;" horiz-adv-x="1843" 
d="M193 748q0 330 220 546.5t537.5 216.5t538.5 -217t221 -546q0 -334 -220 -551t-540 -217q-317 0 -537 217t-220 551zM289 748q0 -270 172 -463q72 109 204 173t285 64q158 0 291 -65.5t203 -171.5q172 203 172 463q0 291 -194.5 483t-469 192t-469 -192t-194.5 -483z
M686 895q0 106 28.5 161.5t78.5 55.5q51 0 76.5 -59.5t25.5 -157.5q0 -217 -102 -217q-51 0 -79 59.5t-28 157.5zM1014 895q0 106 28.5 161.5t75.5 55.5q104 0 104.5 -217t-104.5 -217q-51 0 -77.5 60.5t-26.5 156.5zM530 221q188 -154 422 -153.5t422 151.5
q-55 96 -171 153.5t-251 57.5q-137 0 -252 -57.5t-170 -151.5z" />
    <glyph glyph-name="smileface" unicode="&#x263a;" horiz-adv-x="1843" 
d="M950.5 1511q317.5 0 538.5 -217t221 -546q0 -334 -220 -551t-540 -217q-317 0 -537 217t-220 551q0 330 220 546.5t537.5 216.5zM952 68q279 0 471.5 196.5t192.5 483.5q0 291 -194.5 483t-469 192t-469 -192.5t-194.5 -483t194.5 -485t468.5 -194.5zM793 678
q-51 0 -79 59.5t-28 157.5q0 106 28.5 161.5t78.5 55.5q51 0 76.5 -59.5t25.5 -157.5q0 -217 -102 -217zM1118 678q-51 0 -77.5 60.5t-26.5 156.5q0 106 28.5 161.5t75.5 55.5q104 0 104 -217t-104 -217zM1280 672h223v-35h-61q-29 -176 -166 -282.5t-325.5 -106.5
t-325 107.5t-164.5 281.5h-53v35h223v-35h-72q25 -135 134.5 -217t258.5 -82q154 0 261.5 82t132.5 217h-66v35z" />
    <glyph glyph-name="uni2708" unicode="&#x2708;" horiz-adv-x="1974" 
d="M293 424l72 326l-72 325h102l142 -221l430 25l-203 565h184l295 -488q18 -29 39 -40t59 -13l121 8q123 8 223.5 -43t100.5 -118q0 -72 -99.5 -122t-224.5 -42l-121 8q-41 0 -61 -10.5t-37 -38.5l-295 -492h-184l203 565l-430 29l-142 -223h-102z" />
    <glyph glyph-name="uni2713" unicode="&#x2713;" horiz-adv-x="1882" 
d="M1534 1141l104 -117l-874 -868l-434 495l110 103l328 -377z" />
    <glyph glyph-name="uni2714" unicode="&#x2714;" horiz-adv-x="2566" 
d="M2300 1462l211 -340q-991 -541 -1655 -1251q-297 410 -706 741l231 258q301 -240 506 -561q272 342 622.5 619.5t790.5 533.5z" />
    <glyph glyph-name="uni2776" unicode="&#x2776;" horiz-adv-x="1853" 
d="M963 -18q-336 0 -564.5 227t-228.5 561q0 332 228.5 559t564.5 227q332 0 559 -228t227 -558q0 -334 -227 -561t-559 -227zM944 322h137v852h-133v-9q0 -154 -151 -153h-80v-107h227v-583z" />
    <glyph glyph-name="uni2777" unicode="&#x2777;" horiz-adv-x="1853" 
d="M963 -18q-338 0 -565.5 228t-227.5 562q0 332 227.5 558t565.5 226q334 0 561 -226t227 -558q0 -334 -227 -562t-561 -228zM700 322h533v124h-240l-135 -6q16 45 62.5 89t98.5 83t102 83t83 105.5t33 133.5q0 111 -72.5 180.5t-195.5 69.5q-125 0 -205 -73t-80 -191
l137 -11q-2 70 36 113t104 43q59 0 96 -37t37 -96.5t-41 -110.5t-98.5 -94t-115 -91t-98.5 -121t-41 -165v-28z" />
    <glyph glyph-name="uni2778" unicode="&#x2778;" horiz-adv-x="1853" 
d="M963 -18q-338 0 -565.5 227t-227.5 561q0 332 227.5 559t565.5 227q334 0 561 -227t227 -559q0 -334 -227 -561t-561 -227zM958 309q127 0 206 70t79 180q0 152 -139 205v6q63 27 94 78t31 104q0 106 -76 170t-195 64q-127 0 -203.5 -75t-72.5 -193h141q-2 66 32 106.5
t101 40.5q55 0 91 -32t36 -89q0 -53 -38.5 -89t-108.5 -36h-51v-121h63q68 0 110 -35.5t42 -97.5q0 -59 -39 -96t-102.5 -37t-101.5 40t-36 108h-141q-2 -125 75.5 -198t202.5 -73z" />
    <glyph glyph-name="uni2779" unicode="&#x2779;" horiz-adv-x="1853" 
d="M963 -18q-336 0 -564.5 228t-228.5 562q0 332 228.5 558t564.5 226q334 0 562 -227t228 -557q0 -334 -228 -562t-562 -228zM1012 322h135v186h96v121h-96v545h-215l-307 -551v-115h387v-186zM776 629l236 418v-418h-236z" />
    <glyph glyph-name="uni277A" unicode="&#x277a;" horiz-adv-x="1855" 
d="M965 -18q-338 0 -566.5 227t-228.5 561q0 332 228.5 559t566.5 227q334 0 561 -227t227 -559q0 -334 -227 -561t-561 -227zM975 309q131 0 214 82t83 213q0 127 -76 207t-195 80q-109 0 -157 -57l-4 4l4 86v129h381v121h-518v-482h133q14 35 52 56.5t83 21.5
q68 0 110.5 -49t42.5 -123t-43 -120t-108 -46q-70 0 -109 45t-37 107h-141q-2 -123 78 -199t207 -76z" />
    <glyph glyph-name="uni277B" unicode="&#x277b;" horiz-adv-x="1863" 
d="M965 -27q-338 0 -566.5 229.5t-228.5 565.5q0 334 228.5 561t566.5 227t566 -227t228 -561q0 -336 -229 -565.5t-565 -229.5zM973 309q129 0 212 82t83 211q0 125 -73 204t-189 79q-139 0 -193 -107h-6q0 287 172 287q51 0 88 -27.5t45 -76.5h139q-10 100 -81.5 162.5
t-184.5 62.5q-158 0 -238.5 -122t-80.5 -327q0 -201 77.5 -314.5t229.5 -113.5zM977 432q-70 0 -110 48t-40 120q0 68 40 117t110 49q68 0 107.5 -45t39.5 -121q0 -74 -39.5 -121t-107.5 -47z" />
    <glyph glyph-name="uni277C" unicode="&#x277c;" horiz-adv-x="1853" 
d="M963 -18q-336 0 -564.5 228t-228.5 560t227.5 559t565.5 227q334 0 561 -227t227 -559q0 -334 -227 -561t-561 -227zM793 322h145q74 422 330 753v99h-559v-265h98v144h287q-238 -319 -301 -731z" />
    <glyph glyph-name="uni277D" unicode="&#x277d;" horiz-adv-x="1853" 
d="M963 -18q-336 0 -564.5 228t-228.5 560t227.5 559t565.5 227q334 0 561 -227t227 -559q0 -334 -227 -561t-561 -227zM961 309q131 0 212.5 64.5t81.5 173.5q0 63 -33.5 116.5t-91.5 81.5v9q59 27 92 80t33 116q0 104 -79.5 170t-214.5 66q-131 0 -212 -64.5t-81 -171.5
q0 -139 123 -196v-9q-57 -27 -90 -81t-33 -117q0 -106 79 -172t214 -66zM960.5 805q-67.5 0 -109.5 36t-42 93t41 94t111 37q68 0 109.5 -36t41.5 -95q0 -55 -42 -92t-109.5 -37zM961 432q-66 0 -109 35t-43 96q0 57 41 94t111 37q68 0 109.5 -35.5t41.5 -95.5
q0 -57 -40.5 -94t-110.5 -37z" />
    <glyph glyph-name="uni277E" unicode="&#x277e;" horiz-adv-x="1855" 
d="M963 -18q-336 0 -564.5 227t-228.5 561q0 332 229.5 559t563 227t562 -227t228.5 -559q0 -334 -228 -561t-562 -227zM961 309q158 0 236.5 122t78.5 327q0 199 -77 313.5t-228 114.5q-131 0 -213 -82t-82 -209t72.5 -207t189.5 -80q61 0 114.5 30t80.5 79h6
q0 -287 -174 -287q-51 0 -89 27.5t-47 77.5h-139q10 -102 83 -164t188 -62zM969 729q-68 0 -110 45t-42 121t43 122t109 46q68 0 108.5 -48t40.5 -118t-39.5 -119t-109.5 -49z" />
    <glyph glyph-name="uni2780" unicode="&#x2780;" horiz-adv-x="1853" 
d="M963 -18q-336 0 -564.5 227t-228.5 561q0 332 228.5 559t564.5 227q332 0 559 -228t227 -558q0 -334 -227 -561t-559 -227zM963 57q299 0 504.5 207t205.5 506t-205.5 505t-504.5 206q-303 0 -510 -206t-207 -505q0 -301 207 -507t510 -206zM944 322v583h-227v107h80
q82 0 116.5 45t34.5 108v9h133v-852h-137z" />
    <glyph glyph-name="uni2781" unicode="&#x2781;" horiz-adv-x="1853" 
d="M963 1556q334 0 561 -226t227 -558q0 -334 -227.5 -562t-560.5 -228q-338 0 -565.5 228t-227.5 562q0 332 227.5 558t565.5 226zM963 57q301 0 507.5 207t206.5 508q0 299 -206.5 505t-507.5 206q-303 0 -510 -206t-207 -505q0 -301 207 -508t510 -207zM1237 934
q0 -72 -33 -133.5t-84 -105.5t-103 -83t-97.5 -83t-61.5 -89l135 6h240v-124h-533v28q0 92 41 165t98.5 121t115 91t98.5 94t41 110.5t-37 96.5t-96 37q-66 0 -104 -43t-36 -113l-137 11q0 119 80 191.5t205 72.5q123 0 195.5 -69.5t72.5 -180.5z" />
    <glyph glyph-name="uni2782" unicode="&#x2782;" horiz-adv-x="1853" 
d="M963 -18q-338 0 -565.5 227t-227.5 561q0 332 227.5 559t565.5 227q334 0 561 -227t227 -559q0 -334 -227 -561t-561 -227zM963 57q301 0 506.5 207t205.5 506t-205.5 505t-506.5 206q-303 0 -510 -206t-207 -505q0 -301 207 -507t510 -206zM958 309q-125 0 -202.5 73
t-75.5 198h141q-2 -68 36 -108t101.5 -40t102.5 37t39 96q0 61 -42 97t-110 36h-63v121h51q70 0 108.5 36t38.5 89q0 57 -35.5 89t-91.5 32q-68 0 -101.5 -41t-31.5 -106h-141q-4 119 72.5 193.5t203.5 74.5q119 0 195 -63.5t76 -170.5q0 -53 -31 -104t-94 -78v-6
q139 -53 139 -205q0 -111 -79 -180.5t-206 -69.5z" />
    <glyph glyph-name="uni2783" unicode="&#x2783;" horiz-adv-x="1853" 
d="M170 772q0 332 228.5 558t564.5 226q334 0 562 -227t228 -557q0 -334 -228.5 -562t-561.5 -228q-336 0 -564.5 228t-228.5 562zM246 772q0 -301 206.5 -508t510.5 -207q301 0 506.5 207t205.5 508q0 299 -205.5 505t-506.5 206q-303 0 -510 -206t-207 -505zM625 508v115
l307 551h215v-545h96v-121h-96v-186h-135v186h-387zM776 629h236v418z" />
    <glyph glyph-name="uni2784" unicode="&#x2784;" horiz-adv-x="1855" 
d="M965 -18q-338 0 -566.5 227t-228.5 561q0 332 228.5 559t566.5 227q334 0 561 -227t227 -559q0 -334 -227 -561t-561 -227zM965 57q301 0 507.5 207t206.5 506t-206.5 506t-507.5 207q-305 0 -512 -206t-207 -507q0 -299 207 -506t512 -207zM975 309q-127 0 -207 76
t-78 199h141q-2 -61 37 -106.5t109 -45.5q66 0 108.5 46t42.5 120t-43 123t-110 49q-45 0 -83 -21.5t-52 -56.5h-133v482h518v-121h-381v-129l-4 -86l4 -4q49 57 157 57q119 0 195 -80t76 -207q0 -131 -83 -213t-214 -82z" />
    <glyph glyph-name="uni2785" unicode="&#x2785;" horiz-adv-x="1863" 
d="M170 768q0 334 228.5 561t566.5 227t566 -227t228 -561q0 -336 -229.5 -565.5t-564.5 -229.5q-338 0 -566.5 229.5t-228.5 565.5zM246 768q0 -303 206.5 -511t512.5 -208q303 0 510.5 209t207.5 510q0 299 -207.5 506t-510.5 207q-305 0 -512 -206t-207 -507zM666 737
q0 205 80.5 327t238.5 122q113 0 184.5 -62.5t81.5 -162.5h-139q-8 49 -45 76.5t-88 27.5q-172 0 -172 -287h6q53 106 193 107q117 0 189.5 -79t72.5 -204q0 -129 -83 -211t-212 -82q-152 0 -229.5 113.5t-77.5 314.5zM827 600q0 -72 40 -120t110 -48q68 0 107.5 47
t39.5 121q0 76 -40 121t-107 45q-70 0 -110 -49t-40 -117z" />
    <glyph glyph-name="uni2786" unicode="&#x2786;" horiz-adv-x="1853" 
d="M963 -18q-336 0 -564.5 228t-228.5 560t227.5 559t565.5 227q334 0 561 -227t227 -559q0 -334 -227 -561t-561 -227zM963 57q301 0 506.5 207t205.5 506t-205.5 506t-506.5 207q-303 0 -510 -207t-207 -506t207 -506t510 -207zM793 322q63 412 301 731h-287v-144h-98v265
h559v-99q-256 -332 -330 -753h-145z" />
    <glyph glyph-name="uni2787" unicode="&#x2787;" horiz-adv-x="1853" 
d="M963 -18q-336 0 -564.5 228t-228.5 560t227.5 559t565.5 227q334 0 561 -227t227 -559q0 -334 -227 -561t-561 -227zM963 57q299 0 505.5 207t206.5 506t-206.5 506t-505.5 207q-303 0 -510 -207t-207 -506t207 -506t510 -207zM961 309q-135 0 -214 65.5t-79 172.5
q0 63 32.5 117.5t90.5 80.5v9q-123 57 -123 196q0 106 80.5 171t212.5 65q135 0 214.5 -65.5t79.5 -170.5q0 -63 -32.5 -116.5t-92.5 -79.5v-9q57 -29 91 -82t34 -116q0 -109 -81.5 -173.5t-212.5 -64.5zM960.5 805q67.5 0 109.5 37t42 92q0 59 -42 95t-109 36
q-70 0 -111 -37t-41 -94t42 -93t109.5 -36zM961 432q70 0 110.5 37t40.5 94q0 59 -42 95t-109 36q-70 0 -111 -36.5t-41 -94.5q0 -61 43 -96t109 -35z" />
    <glyph glyph-name="uni2788" unicode="&#x2788;" horiz-adv-x="1855" 
d="M963 -18q-336 0 -564.5 227t-228.5 561q0 332 229.5 559t563 227t562 -227t228.5 -559q0 -334 -228 -561t-562 -227zM963 57q301 0 506.5 207t205.5 506t-205.5 505t-506.5 206q-303 0 -510 -206t-207 -505t207 -506t510 -207zM961 309q-115 0 -188 61.5t-83 164.5h139
q8 -49 46 -77t90 -28q174 0 174 287h-6q-27 -49 -80.5 -79t-114.5 -30q-117 0 -189.5 80t-72.5 207t82 209t213 82q152 0 228.5 -115t76.5 -313q0 -205 -78.5 -327t-236.5 -122zM969 729q70 0 109.5 49t39.5 119t-41 118t-108 48q-66 0 -109 -46t-43 -122t42 -121t110 -45z
" />
    <glyph glyph-name="uniECE0" unicode="&#xece0;" horiz-adv-x="2308" 
d="M416 119l-160 -119v1493h702l-133 -172h-409v-492h332q31 289 242.5 484.5t502.5 195.5q182 0 340 -86t264 -235l-139 -103q-76 113 -203 184.5t-266 71.5q-231 0 -403.5 -171t-172.5 -422q0 -254 172 -425t404 -171q143 0 268 70.5t201 183.5l139 -103
q-109 -154 -266.5 -237.5t-337.5 -83.5q-287 0 -500 193.5t-245 486.5h-332v-543zM1227 748q0 -115 75.5 -196t184.5 -81q66 0 124 35t95 92l137 -100q-59 -92 -153.5 -142.5t-198.5 -50.5q-180 0 -307 130t-127 313q0 180 127 309t307 129q106 0 199.5 -50.5t152.5 -140.5
l-137 -102q-35 55 -93.5 90t-125.5 35q-109 0 -184.5 -78.5t-75.5 -191.5z" />
    <glyph glyph-name="uniEFCC" unicode="&#xefcc;" horiz-adv-x="2574" 
d="M281 739q0 342 204.5 553t536.5 211q49 0 78 -4v-203q-37 6 -76 7q-246 0 -396.5 -156t-150.5 -408t150.5 -407.5t396.5 -155.5q29 0 76 6v-202q-37 -4 -78 -5q-332 0 -536.5 211t-204.5 553zM1561 750q0 342 197.5 547.5t531.5 205.5q53 0 90 -4v-203q-37 6 -82 7
q-213 0 -362.5 -114t-166.5 -345h455v-189h-455q16 -231 166 -345.5t363 -114.5q45 0 82 6v-203q-41 -4 -90 -4q-334 0 -531.5 206t-197.5 550z" />
    <glyph glyph-name="uniF8FF" unicode="&#xf8ff;" horiz-adv-x="1359" 
d="M907 1294q-37 -47 -93 -76.5t-93 -37.5l-37 -6l-2 20q-2 20 -1 39.5t6 48.5t19.5 61.5t38.5 63.5q47 63 107.5 98t97.5 37l35 2q-2 -10 2 -38.5t-16.5 -93.5t-63.5 -118zM461 0q-90 0 -181.5 109.5t-149.5 274.5t-58 318q0 213 109.5 340t252.5 127q61 0 143 -34.5
t115 -34.5q31 0 116 37t163 37q55 0 106 -16.5t83 -39t55.5 -45t33.5 -39.5l11 -16q-6 -4 -17.5 -11.5t-40 -33t-50.5 -56t-39 -82t-17 -108.5q0 -63 20.5 -119.5t50 -91.5t60 -59.5t51.5 -34.5l20 -10q-4 -16 -14 -44t-42 -98.5t-68.5 -125t-94 -98.5t-116.5 -44
q-41 0 -120 29.5t-128 29.5q-51 0 -135 -30.5t-119 -30.5z" />
    <glyph glyph-name="J.aalt" horiz-adv-x="804" 
d="M655 1595l-45 88l398 273l67 -139zM590 403q-61 -420 -463 -419q-117 0 -170 16l25 166q47 -12 155 -12q231 0 269 260l151 1079h184z" />
    <glyph glyph-name="G.aalt" horiz-adv-x="1597" 
d="M797 -20q-301 0 -486.5 191t-185.5 523q0 356 210 586.5t535 230.5q254 0 430.5 -139t210.5 -371h-198q-33 154 -156 246t-291 92q-236 0 -390 -178t-154 -459q0 -258 131 -406.5t346 -148.5q201 0 348 130.5t172 332.5h-465l31 170h639v-47q0 -334 -204 -543.5
t-523 -209.5z" />
    <glyph glyph-name="Gbreve.aalt" horiz-adv-x="1597" 
d="M1335 1892q-14 -129 -105 -209.5t-222 -80.5q-133 0 -204 79.5t-56 210.5h120q-10 -82 31 -132t117 -50q78 0 132 50t64 132h123zM797 -20q-301 0 -486.5 191t-185.5 523q0 356 210 586.5t535 230.5q254 0 430.5 -139t210.5 -371h-198q-33 154 -156 246t-291 92
q-236 0 -390 -178t-154 -459q0 -258 131 -406.5t346 -148.5q201 0 348 130.5t172 332.5h-465l31 170h639v-47q0 -334 -204 -543.5t-523 -209.5z" />
    <glyph glyph-name="Gcommaaccent.aalt" horiz-adv-x="1597" 
d="M797 -20q-301 0 -486.5 191t-185.5 523q0 356 210 586.5t535 230.5q254 0 430.5 -139t210.5 -371h-198q-33 154 -156 246t-291 92q-236 0 -390 -178t-154 -459q0 -258 131 -406.5t346 -148.5q201 0 348 130.5t172 332.5h-465l31 170h639v-47q0 -334 -204 -543.5
t-523 -209.5zM559 -479l8 55q90 0 105 88l2 12h-96l28 199h174l-26 -190q-23 -164 -195 -164z" />
    <glyph glyph-name="Gdotaccent.aalt" horiz-adv-x="1597" 
d="M926 1636l32 244h166l-32 -244h-166zM797 -20q-301 0 -486.5 191t-185.5 523q0 356 210 586.5t535 230.5q254 0 430.5 -139t210.5 -371h-198q-33 154 -156 246t-291 92q-236 0 -390 -178t-154 -459q0 -258 131 -406.5t346 -148.5q201 0 348 130.5t172 332.5h-465l31 170
h639v-47q0 -334 -204 -543.5t-523 -209.5z" />
    <glyph glyph-name="R.aalt" horiz-adv-x="1435" 
d="M133 0l209 1493h616q201 0 321 -108.5t120 -286.5q0 -166 -96.5 -293t-262.5 -174v-13q78 -31 109 -155l123 -463h-207l-104 422q-23 96 -66 129t-139 33h-359l-82 -584h-182zM418 741h409q176 0 274.5 92.5t98.5 249.5q0 115 -74.5 177.5t-201.5 62.5h-422z" />
    <glyph glyph-name="Racute.aalt" horiz-adv-x="1435" 
d="M907 1595l-45 88l398 273l67 -139zM133 0l209 1493h616q201 0 321 -108.5t120 -286.5q0 -166 -96.5 -293t-262.5 -174v-13q78 -31 109 -155l123 -463h-207l-104 422q-23 96 -66 129t-139 33h-359l-82 -584h-182zM418 741h409q176 0 274.5 92.5t98.5 249.5
q0 115 -74.5 177.5t-201.5 62.5h-422z" />
    <glyph glyph-name="Rcaron.aalt" horiz-adv-x="1435" 
d="M651 1876l92 82l181 -225l243 225l88 -82l-278 -256h-121zM133 0l209 1493h616q201 0 321 -108.5t120 -286.5q0 -166 -96.5 -293t-262.5 -174v-13q78 -31 109 -155l123 -463h-207l-104 422q-23 96 -66 129t-139 33h-359l-82 -584h-182zM418 741h409q176 0 274.5 92.5
t98.5 249.5q0 115 -74.5 177.5t-201.5 62.5h-422z" />
    <glyph glyph-name="Rcommaaccent.aalt" horiz-adv-x="1435" 
d="M133 0l209 1493h616q201 0 321 -108.5t120 -286.5q0 -166 -96.5 -293t-262.5 -174v-13q78 -31 109 -155l123 -463h-207l-104 422q-23 96 -66 129t-139 33h-359l-82 -584h-182zM418 741h409q176 0 274.5 92.5t98.5 249.5q0 115 -74.5 177.5t-201.5 62.5h-422zM539 -479
l8 55q90 0 104 88l2 12h-96l29 199h174l-27 -190q-22 -164 -194 -164z" />
    <glyph glyph-name="i.locl" horiz-adv-x="534" 
d="M279 1210l36 244h177l-37 -244h-176zM104 0l150 1069h178l-151 -1069h-177z" />
    <glyph glyph-name="glyph470" horiz-adv-x="542" 
d="M362 1171l-45 89l398 272l67 -139zM-55 -352q-53 0 -103 8l21 151q27 -8 63 -8q78 0 125 44t58 120l153 1106h178l-159 -1128q-20 -143 -109.5 -218t-226.5 -75z" />
    <glyph glyph-name="glyph471" horiz-adv-x="1378" 
d="M133 0l150 1069q31 211 176 326.5t368 115.5q184 0 301 -87t123 -230l-303 -338q141 -25 226.5 -119t85.5 -233q0 -221 -168 -362.5t-433 -141.5h-210l22 166h184q188 0 301 89t113 249q0 242 -397 246l387 450q-12 68 -85 110t-173 42q-143 0 -230.5 -76t-105.5 -207
l-150 -1069h-182z" />
    <glyph glyph-name="a.salt" horiz-adv-x="1310" 
d="M1208 1069l-149 -1069h-178l24 182h-14q-53 -98 -155.5 -150t-223.5 -52q-193 0 -307.5 137t-114.5 362q0 270 152.5 440.5t375.5 170.5q133 0 230.5 -62.5t138.5 -169.5h12l45 211h164zM948 498q33 195 -51 315.5t-244 120.5q-166 0 -272.5 -127t-106.5 -322
q0 -164 79 -256t222 -92q141 0 242 89t125 237z" />
    <glyph glyph-name="aacute.salt" horiz-adv-x="1310" 
d="M670 1198l-45 88l397 273l68 -140zM1208 1069l-149 -1069h-178l24 182h-14q-53 -98 -155.5 -150t-223.5 -52q-193 0 -307.5 137t-114.5 362q0 270 152.5 440.5t375.5 170.5q133 0 230.5 -62.5t138.5 -169.5h12l45 211h164zM948 498q33 195 -51 315.5t-244 120.5
q-166 0 -272.5 -127t-106.5 -322q0 -164 79 -256t222 -92q141 0 242 89t125 237z" />
    <glyph glyph-name="abreve.salt" horiz-adv-x="1310" 
d="M1010 1495q-14 -129 -105.5 -210t-222.5 -81q-133 0 -203.5 80t-56.5 211h121q-10 -82 30.5 -132t116.5 -50q78 0 132.5 50t64.5 132h123zM1208 1069l-149 -1069h-178l24 182h-14q-53 -98 -155.5 -150t-223.5 -52q-193 0 -307.5 137t-114.5 362q0 270 152.5 440.5
t375.5 170.5q133 0 230.5 -62.5t138.5 -169.5h12l45 211h164zM948 498q33 195 -51 315.5t-244 120.5q-166 0 -272.5 -127t-106.5 -322q0 -164 79 -256t222 -92q141 0 242 89t125 237z" />
    <glyph glyph-name="acircumflex.salt" horiz-adv-x="1310" 
d="M389 1284l279 254h118l205 -252l-92 -86l-180 225l-246 -225zM1208 1069l-149 -1069h-178l24 182h-14q-53 -98 -155.5 -150t-223.5 -52q-193 0 -307.5 137t-114.5 362q0 270 152.5 440.5t375.5 170.5q133 0 230.5 -62.5t138.5 -169.5h12l45 211h164zM948 498
q33 195 -51 315.5t-244 120.5q-166 0 -272.5 -127t-106.5 -322q0 -164 79 -256t222 -92q141 0 242 89t125 237z" />
    <glyph glyph-name="adieresis.salt" horiz-adv-x="1310" 
d="M403 1239l33 244h164l-33 -244h-164zM795 1239l32 244h164l-33 -244h-163zM1208 1069l-149 -1069h-178l24 182h-14q-53 -98 -155.5 -150t-223.5 -52q-193 0 -307.5 137t-114.5 362q0 270 152.5 440.5t375.5 170.5q133 0 230.5 -62.5t138.5 -169.5h12l45 211h164zM948 498
q33 195 -51 315.5t-244 120.5q-166 0 -272.5 -127t-106.5 -322q0 -164 79 -256t222 -92q141 0 242 89t125 237z" />
    <glyph glyph-name="agrave.salt" horiz-adv-x="1310" 
d="M678 1200l-356 221l100 142l323 -273zM1208 1069l-149 -1069h-178l24 182h-14q-53 -98 -155.5 -150t-223.5 -52q-193 0 -307.5 137t-114.5 362q0 270 152.5 440.5t375.5 170.5q133 0 230.5 -62.5t138.5 -169.5h12l45 211h164zM948 498q33 195 -51 315.5t-244 120.5
q-166 0 -272.5 -127t-106.5 -322q0 -164 79 -256t222 -92q141 0 242 89t125 237z" />
    <glyph glyph-name="amacron.salt" horiz-adv-x="1310" 
d="M362 1225l17 129h635l-19 -129h-633zM1208 1069l-149 -1069h-178l24 182h-14q-53 -98 -155.5 -150t-223.5 -52q-193 0 -307.5 137t-114.5 362q0 270 152.5 440.5t375.5 170.5q133 0 230.5 -62.5t138.5 -169.5h12l45 211h164zM948 498q33 195 -51 315.5t-244 120.5
q-166 0 -272.5 -127t-106.5 -322q0 -164 79 -256t222 -92q141 0 242 89t125 237z" />
    <glyph glyph-name="aogonek.salt" horiz-adv-x="1310" 
d="M831 -170q0 -92 111 -92q63 0 125 29l-14 -105q-76 -31 -156 -27q-84 4 -135 50.5t-51 119.5q0 78 47 139.5t127 92.5l20 145h-14q-53 -98 -155.5 -150t-223.5 -52q-193 0 -307.5 137t-114.5 362q0 270 152.5 440.5t375.5 170.5q133 0 230.5 -62.5t138.5 -169.5h12
l45 211h164l-149 -1069h-37q-88 -16 -139.5 -61.5t-51.5 -108.5zM575 137q141 0 242 89t125 237l6 35q33 195 -51 315.5t-244 120.5q-166 0 -272.5 -127t-106.5 -322q0 -164 79 -256t222 -92z" />
    <glyph glyph-name="aring.salt" horiz-adv-x="1310" 
d="M1044 1069h164l-149 -1069h-178l24 182h-14q-53 -98 -155.5 -150t-223.5 -52q-193 0 -307.5 137t-114.5 362q0 252 134 418t339 188q-55 59 -55 148q0 102 68.5 168.5t173.5 66.5q96 0 155.5 -57t59.5 -149q0 -78 -39 -135.5t-105 -84.5q119 -63 166 -184h12zM743 1372
q-53 0 -89 -39t-36 -98q0 -51 30 -82t79 -31q53 0 89 39t36 96q0 51 -30 83t-79 32zM948 498q33 195 -51 315.5t-244 120.5q-166 0 -272.5 -127t-106.5 -322q0 -164 79 -256t222 -92q141 0 242 89t125 237z" />
    <glyph glyph-name="atilde.salt" horiz-adv-x="1310" 
d="M811 1210q-61 -2 -139 39t-123 39q-57 -2 -113 -67l-69 55q98 143 211 149q53 4 133 -37.5t118 -39.5q66 4 119 71l72 -59q-96 -144 -209 -150zM1208 1069l-149 -1069h-178l24 182h-14q-53 -98 -155.5 -150t-223.5 -52q-193 0 -307.5 137t-114.5 362q0 270 152.5 440.5
t375.5 170.5q133 0 230.5 -62.5t138.5 -169.5h12l45 211h164zM948 498q33 195 -51 315.5t-244 120.5q-166 0 -272.5 -127t-106.5 -322q0 -164 79 -256t222 -92q141 0 242 89t125 237z" />
    <glyph glyph-name="g.aalt" horiz-adv-x="1280" 
d="M242 -33q12 -90 88 -142t190 -52q141 0 229.5 71.5t104.5 192.5l29 207h-13q-127 -217 -378 -217q-184 0 -291 127t-107 348q0 254 140.5 421t363.5 167q129 0 226.5 -57.5t138.5 -155.5h14l37 192h160l-142 -1018q-27 -205 -165 -309t-355 -104q-184 0 -306 90t-136 239
h172zM559 180q135 0 237.5 89t123.5 233l6 47q27 174 -61.5 278.5t-235.5 104.5q-156 0 -253 -118t-97 -300q0 -158 75.5 -246t204.5 -88z" />
    <glyph glyph-name="gbreve.aalt" horiz-adv-x="1280" 
d="M993 1497q-14 -129 -105 -210t-222 -81q-133 0 -204 80t-56 211h120q-10 -82 31 -132t117 -50q78 0 132 50t64 132h123zM242 -33q12 -90 88 -142t190 -52q141 0 229.5 71.5t104.5 192.5l29 207h-13q-127 -217 -378 -217q-184 0 -291 127t-107 348q0 254 140.5 421
t363.5 167q129 0 226.5 -57.5t138.5 -155.5h14l37 192h160l-142 -1018q-27 -205 -165 -309t-355 -104q-184 0 -306 90t-136 239h172zM559 180q135 0 237.5 89t123.5 233l6 47q27 174 -61.5 278.5t-235.5 104.5q-156 0 -253 -118t-97 -300q0 -158 75.5 -246t204.5 -88z" />
    <glyph glyph-name="gcommaaccent.aalt" horiz-adv-x="1280" 
d="M803 1628l-8 -57q-92 0 -105 -90l-6 -45h94l-26 -199h-177l33 227q23 164 195 164zM242 -33q12 -90 88 -142t190 -52q141 0 229.5 71.5t104.5 192.5l29 207h-13q-127 -217 -378 -217q-184 0 -291 127t-107 348q0 254 140.5 421t363.5 167q129 0 226.5 -57.5t138.5 -155.5
h14l37 192h160l-142 -1018q-27 -205 -165 -309t-355 -104q-184 0 -306 90t-136 239h172zM559 180q135 0 237.5 89t123.5 233l6 47q27 174 -61.5 278.5t-235.5 104.5q-156 0 -253 -118t-97 -300q0 -158 75.5 -246t204.5 -88z" />
    <glyph glyph-name="gdotaccent.aalt" horiz-adv-x="1280" 
d="M584 1241l32 244h166l-32 -244h-166zM242 -33q12 -90 88 -142t190 -52q141 0 229.5 71.5t104.5 192.5l29 207h-13q-127 -217 -378 -217q-184 0 -291 127t-107 348q0 254 140.5 421t363.5 167q129 0 226.5 -57.5t138.5 -155.5h14l37 192h160l-142 -1018
q-27 -205 -165 -309t-355 -104q-184 0 -306 90t-136 239h172zM559 180q135 0 237.5 89t123.5 233l6 47q27 174 -61.5 278.5t-235.5 104.5q-156 0 -253 -118t-97 -300q0 -158 75.5 -246t204.5 -88z" />
    <glyph glyph-name="a.ss02" horiz-adv-x="1159" 
d="M61 260q0 168 129 272.5t347 104.5h299l8 65q18 119 -41.5 182.5t-178 63.5t-192.5 -54t-88 -146h-176q29 162 152.5 252t308.5 90q209 0 313.5 -113t75.5 -309l-96 -668h-160l10 180h-12q-51 -96 -150.5 -148t-226.5 -52q-150 0 -236 74.5t-86 205.5zM248 289
q0 -162 192 -162q143 0 247 89t124 235l6 55h-278q-137 0 -214 -58.5t-77 -158.5z" />
    <glyph glyph-name="aacute.ss02" horiz-adv-x="1159" 
d="M666 1198l-45 88l397 273l67 -140zM61 260q0 168 129 272.5t347 104.5h299l8 65q18 119 -41.5 182.5t-178 63.5t-192.5 -54t-88 -146h-176q29 162 152.5 252t308.5 90q209 0 313.5 -113t75.5 -309l-96 -668h-160l10 180h-12q-51 -96 -150.5 -148t-226.5 -52
q-150 0 -236 74.5t-86 205.5zM248 289q0 -162 192 -162q143 0 247 89t124 235l6 55h-278q-137 0 -214 -58.5t-77 -158.5z" />
    <glyph glyph-name="abreve.ss02" horiz-adv-x="1159" 
d="M1006 1495q-14 -129 -105.5 -210t-222.5 -81q-133 0 -204 80t-56 211h121q-10 -82 30.5 -132t116.5 -50q78 0 132 50t65 132h123zM61 260q0 168 129 272.5t347 104.5h299l8 65q18 119 -41.5 182.5t-178 63.5t-192.5 -54t-88 -146h-176q29 162 152.5 252t308.5 90
q209 0 313.5 -113t75.5 -309l-96 -668h-160l10 180h-12q-51 -96 -150.5 -148t-226.5 -52q-150 0 -236 74.5t-86 205.5zM248 289q0 -162 192 -162q143 0 247 89t124 235l6 55h-278q-137 0 -214 -58.5t-77 -158.5z" />
    <glyph glyph-name="acircumflex.ss02" horiz-adv-x="1159" 
d="M385 1284l279 254h118l205 -252l-92 -86l-180 225l-246 -225zM61 260q0 168 129 272.5t347 104.5h299l8 65q18 119 -41.5 182.5t-178 63.5t-192.5 -54t-88 -146h-176q29 162 152.5 252t308.5 90q209 0 313.5 -113t75.5 -309l-96 -668h-160l10 180h-12
q-51 -96 -150.5 -148t-226.5 -52q-150 0 -236 74.5t-86 205.5zM248 289q0 -162 192 -162q143 0 247 89t124 235l6 55h-278q-137 0 -214 -58.5t-77 -158.5z" />
    <glyph glyph-name="adieresis.ss02" horiz-adv-x="1159" 
d="M399 1239l33 244h164l-33 -244h-164zM791 1239l32 244h164l-33 -244h-163zM61 260q0 168 129 272.5t347 104.5h299l8 65q18 119 -41.5 182.5t-178 63.5t-192.5 -54t-88 -146h-176q29 162 152.5 252t308.5 90q209 0 313.5 -113t75.5 -309l-96 -668h-160l10 180h-12
q-51 -96 -150.5 -148t-226.5 -52q-150 0 -236 74.5t-86 205.5zM248 289q0 -162 192 -162q143 0 247 89t124 235l6 55h-278q-137 0 -214 -58.5t-77 -158.5z" />
    <glyph glyph-name="agrave.ss02" horiz-adv-x="1159" 
d="M674 1200l-357 221l101 142l323 -273zM61 260q0 168 129 272.5t347 104.5h299l8 65q18 119 -41.5 182.5t-178 63.5t-192.5 -54t-88 -146h-176q29 162 152.5 252t308.5 90q209 0 313.5 -113t75.5 -309l-96 -668h-160l10 180h-12q-51 -96 -150.5 -148t-226.5 -52
q-150 0 -236 74.5t-86 205.5zM248 289q0 -162 192 -162q143 0 247 89t124 235l6 55h-278q-137 0 -214 -58.5t-77 -158.5z" />
    <glyph glyph-name="amacron.ss02" horiz-adv-x="1159" 
d="M356 1225l17 129h635l-19 -129h-633zM61 260q0 168 129 272.5t347 104.5h299l8 65q18 119 -41.5 182.5t-178 63.5t-192.5 -54t-88 -146h-176q29 162 152.5 252t308.5 90q209 0 313.5 -113t75.5 -309l-96 -668h-160l10 180h-12q-51 -96 -150.5 -148t-226.5 -52
q-150 0 -236 74.5t-86 205.5zM248 289q0 -162 192 -162q143 0 247 89t124 235l6 55h-278q-137 0 -214 -58.5t-77 -158.5z" />
    <glyph glyph-name="aogonek.ss02" horiz-adv-x="1159" 
d="M911 0q-88 -16 -139 -61t-51 -109q0 -92 110 -92q63 0 125 29l-14 -105q-76 -31 -156 -27q-84 4 -135 50.5t-51 119.5q0 76 44 135.5t120 90.5l8 149h-12q-51 -96 -150.5 -148t-226.5 -52q-150 0 -236 74.5t-86 205.5q0 168 129 272.5t347 104.5h299l8 65
q18 119 -41.5 182.5t-178 63.5t-192.5 -54t-88 -146h-176q29 162 152.5 252t308.5 90q209 0 313.5 -113t75.5 -309l-96 -668h-11zM440 127q143 0 247 89t124 235l6 55h-278q-137 0 -214 -58.5t-77 -158.5q-1 -162 192 -162z" />
    <glyph glyph-name="aring.ss02" horiz-adv-x="1159" 
d="M813 1061q119 -43 172 -144.5t33 -248.5l-96 -668h-160l10 180h-12q-51 -96 -150.5 -148t-226.5 -52q-150 0 -236 74.5t-86 205.5q0 168 129 272.5t347 104.5h299l8 65q18 119 -41.5 182.5t-178 63.5t-192.5 -54t-88 -146h-176q23 131 108.5 215t217.5 112
q-49 59 -50 142q0 102 69 168.5t173 66.5q96 0 155.5 -56.5t59.5 -150.5q0 -118 -88 -184zM680 1356q-53 0 -89 -39t-36 -96q0 -51 29.5 -83t79.5 -32q53 0 88.5 39t35.5 96q0 51 -29.5 83t-78.5 32zM811 451l6 55h-278q-137 0 -214 -58.5t-77 -158.5q0 -162 192 -162
q143 0 247 89.5t124 234.5z" />
    <glyph glyph-name="atilde.ss02" horiz-adv-x="1159" 
d="M805 1210q-61 -2 -139 39t-123 39q-57 -2 -113 -67l-70 55q98 143 211 149q53 4 133 -37.5t119 -39.5q66 4 119 71l72 -59q-96 -144 -209 -150zM61 260q0 168 129 272.5t347 104.5h299l8 65q18 119 -41.5 182.5t-178 63.5t-192.5 -54t-88 -146h-176q29 162 152.5 252
t308.5 90q209 0 313.5 -113t75.5 -309l-96 -668h-160l10 180h-12q-51 -96 -150.5 -148t-226.5 -52q-150 0 -236 74.5t-86 205.5zM248 289q0 -162 192 -162q143 0 247 89t124 235l6 55h-278q-137 0 -214 -58.5t-77 -158.5z" />
    <glyph glyph-name="h_t_t_p.dlig" horiz-adv-x="4268" 
d="M4119 1544l-267 -1894h-1308l163 1167h-417l-95 -665h240l-20 -144h-258q-152 0 -129 154l92 655h-437l-94 -665h240l-19 -144h-258q-152 0 -131 154l92 655h-206l20 141h207l39 287h170l-39 -287h436l39 287h170l-41 -287h574l-15 -184h15q51 92 155.5 148.5t231.5 56.5
q178 0 281.5 -109.5t103.5 -287.5q0 -248 -154 -420t-375 -172q-125 0 -212 57t-111 154h-15l-59 -424h1008l229 1638h-3416l-90 -647h14q61 100 162.5 155.5t216.5 55.5q168 0 249 -111.5t52 -304.5l-78 -555h-166l78 541q18 139 -39 210.5t-170 71.5q-137 0 -239.5 -101
t-122.5 -263l-97 -690h2065l-19 -127h-2197l264 1894h3687zM2818 418q-16 -115 67 -198t220 -83q160 0 268.5 120t108.5 300q0 127 -74 200.5t-201 73.5q-137 0 -246.5 -86t-124.5 -192z" />
    <glyph glyph-name="w_w_w.dlig" horiz-adv-x="4091" 
d="M250 0l-156 1069h193l69 -567l31 -332h12l336 899h197l92 -895h10l348 895h193l100 -899h13l335 899h197l92 -895h10l349 895h192l100 -899h13l336 899h196l92 -895h11l120 322l228 573h188l-454 -1069h-222l-84 868h-12l-319 -868h-230l-96 819l-326 -819h-221l-84 868
h-12l-320 -868h-229l-96 817l-326 -817h-221l-84 868h-12l-320 -868h-229z" />
    <glyph glyph-name="glyph503" horiz-adv-x="2557" 
d="M242 -33q12 -90 88 -142t190 -52q141 0 229.5 71.5t104.5 192.5l29 207h-13q-127 -217 -378 -217q-184 0 -291 127t-107 348q0 254 140.5 421t363.5 167q129 0 226.5 -57.5t138.5 -155.5h14l37 192h160l-142 -1018q-27 -205 -165 -309t-355 -104q-184 0 -306 90t-136 239
h172zM1522 -33q12 -90 88 -142t190 -52q141 0 229.5 71.5t104.5 192.5l29 207h-13q-127 -217 -378 -217q-184 0 -291 127t-107 348q0 254 140.5 421t363.5 167q129 0 226.5 -57.5t138.5 -155.5h14l37 192h160l-142 -1018q-27 -205 -165 -309t-355 -104q-184 0 -306 90
t-136 239h172zM559 180q135 0 237.5 89t123.5 233l6 47q27 174 -61.5 278.5t-235.5 104.5q-156 0 -253 -118t-97 -300q0 -158 75.5 -246t204.5 -88zM1839 180q135 0 237.5 89t123.5 233l6 47q27 174 -61.5 278.5t-235.5 104.5q-156 0 -253 -118t-97 -300q0 -158 75.5 -246
t204.5 -88z" />
    <glyph glyph-name="zero.salt" horiz-adv-x="1306" 
d="M596 -14q-213 0 -328.5 160.5t-115.5 437.5q0 391 178 651t446 260q209 0 323.5 -159.5t114.5 -432.5q0 -395 -176 -656t-442 -261zM600 145q186 0 307 216.5t121 543.5q0 215 -69.5 322.5t-190.5 107.5q-186 0 -307 -215t-121 -542q0 -215 69.5 -324t190.5 -109z
M586 659l20 164h180l-22 -164h-178z" />
    <glyph glyph-name="zero.tnum" horiz-adv-x="1228" 
d="M733 1495q209 0 323.5 -159.5t114.5 -432.5q0 -395 -176 -656t-442 -261q-213 0 -328.5 160.5t-115.5 437.5q0 393 177 652t447 259zM725 1335q-180 0 -299 -199.5t-129 -510.5l680 401q-37 309 -252 309zM557 145q178 0 297 199t129 508l-680 -397q20 -156 86 -233
t168 -77z" />
    <glyph glyph-name="one.tnum" horiz-adv-x="1228" 
d="M641 152h428l-20 -152h-1033l21 152h428l131 933h-371l21 140h57q143 0 242.5 69.5t116.5 182.5h165z" />
    <glyph glyph-name="two.tnum" horiz-adv-x="1228" 
d="M342 152l242 10h471l-23 -162h-928l9 51q18 119 74.5 217.5t132 167t162.5 128t171 113.5t151.5 111.5t109.5 132t42 164.5q0 113 -70.5 180.5t-185.5 67.5q-137 0 -213.5 -79.5t-72.5 -211.5h-178q0 199 133 326t336 127q205 0 323.5 -109.5t118.5 -295.5
q0 -102 -39 -189.5t-102.5 -152t-140.5 -123t-159.5 -111.5t-155.5 -105.5t-129 -118.5t-79 -138z" />
    <glyph glyph-name="three.tnum" horiz-adv-x="1228" 
d="M559 -20q-223 0 -339 129t-99 337h190q-18 -135 48.5 -221t207.5 -86q137 0 228.5 81t91.5 212q0 121 -79 186.5t-204 65.5h-100l22 156h97q150 0 241.5 76.5t91.5 195.5q0 100 -69.5 160.5t-181.5 60.5q-137 0 -220.5 -83t-85.5 -218h-186q2 211 146.5 337t365.5 126
q193 0 307.5 -98.5t114.5 -266.5q0 -127 -75 -226t-198 -140l-2 -12q96 -39 149.5 -122t53.5 -196q0 -201 -145.5 -327.5t-370.5 -126.5z" />
    <glyph glyph-name="four.tnum" horiz-adv-x="1228" 
d="M965 473h186l-23 -154h-184l-45 -319h-180l45 319h-723l22 156l762 1002h281zM786 473l123 870l-659 -870h536z" />
    <glyph glyph-name="five.tnum" horiz-adv-x="1228" 
d="M1143 1317h-688l-86 -453l8 -2q117 113 303 113q193 0 310.5 -125t117.5 -330q0 -238 -150.5 -389t-384.5 -151q-211 0 -335.5 130t-118.5 341h176q-4 -145 70.5 -228.5t207.5 -83.5q154 0 248 103.5t94 267.5q0 143 -74.5 226t-199.5 83q-92 0 -177 -43t-122 -108h-174
l145 809h852z" />
    <glyph glyph-name="six.tnum" horiz-adv-x="1228" 
d="M594 -20q-453 0 -453 606q0 250 69 451.5t217 329.5t357 128q182 0 301 -103.5t127 -271.5h-184q-10 98 -80.5 157.5t-175.5 59.5q-180 0 -292.5 -154.5t-137.5 -424.5h8q123 201 375 200q172 0 283.5 -118.5t111.5 -311.5q0 -240 -148.5 -394t-377.5 -154zM594 139
q145 0 240.5 108.5t95.5 268.5q0 135 -68.5 212t-185.5 77q-145 0 -245.5 -112.5t-96.5 -272.5q2 -129 72.5 -205t187.5 -76z" />
    <glyph glyph-name="seven.tnum" horiz-adv-x="1228" 
d="M217 1047l59 430h971l-18 -127q-248 -293 -458 -657.5t-316 -692.5h-195q98 313 300 667.5t446 649.5h-598l-37 -270h-154z" />
    <glyph glyph-name="eight.tnum" horiz-adv-x="1228" 
d="M92 350q0 129 74 232.5t196 148.5l3 17q-172 92 -172 307q0 195 149.5 316.5t382.5 121.5q205 0 330 -101.5t125 -269.5q0 -129 -73 -233.5t-196 -145.5l-2 -16q170 -92 170 -307q0 -197 -148.5 -318.5t-381.5 -121.5q-205 0 -331 101t-126 269zM379 1049
q0 -111 71.5 -174.5t200.5 -63.5q147 0 241.5 82t94.5 205q0 106 -76.5 170.5t-201.5 64.5q-145 0 -237.5 -78.5t-92.5 -205.5zM285 377q0 -106 75.5 -172t202.5 -66q145 0 238.5 80t93.5 207q0 111 -72.5 174.5t-201.5 63.5q-147 0 -241.5 -82t-94.5 -205z" />
    <glyph glyph-name="nine.tnum" horiz-adv-x="1228" 
d="M530 -20q-184 0 -298.5 101t-135.5 273h183q8 -96 75.5 -156.5t184.5 -60.5q180 0 293.5 153.5t138.5 436.5h-8q-53 -96 -151.5 -153.5t-221.5 -57.5q-182 0 -293 119t-111 313q0 246 145.5 396.5t381.5 150.5q455 0 454 -602q0 -254 -68.5 -457t-215 -329.5
t-353.5 -126.5zM633 672q152 0 246 102.5t94 265.5q0 133 -73 214t-191 81q-150 0 -240 -105.5t-90 -275.5q0 -127 68.5 -204.5t185.5 -77.5z" />
    <glyph glyph-name="zero.tnum.salt" horiz-adv-x="1226" 
d="M733 1495q209 0 323.5 -159.5t114.5 -432.5q0 -395 -176 -656t-442 -261q-213 0 -328.5 160.5t-115.5 437.5q0 393 177 652t447 259zM725 1335q-150 0 -260.5 -143t-149.5 -379h666q2 31 2 92q0 215 -68.5 322.5t-189.5 107.5zM557 145q150 0 259.5 144.5t148.5 380.5
h-666q-2 -31 -2 -92q0 -215 69.5 -324t190.5 -109z" />
    <glyph glyph-name="zero.dnom" horiz-adv-x="860" 
d="M354 -8q-137 0 -211.5 94t-74.5 270q0 279 120.5 459t307.5 180q137 0 211.5 -94t74.5 -270q0 -276 -121 -457.5t-307 -181.5zM371 129q111 0 181.5 142.5t70.5 363.5q0 225 -146 225q-111 0 -181.5 -141t-70.5 -363q1 -227 146 -227z" />
    <glyph glyph-name="one.dnom" horiz-adv-x="638" 
d="M84 690l16 123h93q90 0 138 46t48 116v8h149l-137 -983h-149l96 690h-254z" />
    <glyph glyph-name="two.dnom" horiz-adv-x="778" 
d="M209 133l156 6h276l-20 -139h-605l4 33q14 109 76 195.5t139.5 142t153.5 106.5t127 115.5t51 142.5q0 59 -35.5 93t-99.5 34q-78 0 -129 -51t-59 -129l-150 12q23 133 123 217t242 84q125 0 196.5 -65.5t71.5 -173.5q0 -96 -44 -176t-111.5 -134.5t-138.5 -100.5
t-135 -101.5t-89 -110.5z" />
    <glyph glyph-name="three.dnom" horiz-adv-x="784" 
d="M309 -14q-143 0 -220 86t-52 223h153q-12 -84 28 -129t110 -45q78 0 133 53t55 129q0 63 -44 97t-114 34h-71l20 141h62q84 0 137 48.5t53 124.5q0 55 -36 84.5t-93 29.5q-76 0 -124 -48t-58 -126h-154q14 133 111.5 220t243.5 87q121 0 195.5 -60.5t74.5 -162.5
q0 -86 -45 -152.5t-125 -101.5l-2 -10q127 -49 127 -193q0 -139 -105.5 -234t-259.5 -95z" />
    <glyph glyph-name="four.dnom" horiz-adv-x="804" 
d="M602 328h111l-19 -138h-110l-27 -190h-151l26 190h-440l18 129l441 664h243zM176 328h275l71 516z" />
    <glyph glyph-name="five.dnom" horiz-adv-x="811" 
d="M45 301h156q-12 -78 27.5 -127t115.5 -49q86 0 145.5 66.5t59.5 164.5q0 74 -40 119t-112 45q-53 0 -100 -25.5t-70 -66.5h-145l80 555h586l-19 -137h-436l-23 -152l-16 -100l2 -4q29 29 83 47t105 18q121 0 193 -74.5t72 -197.5q0 -168 -112 -282.5t-275 -114.5
q-141 0 -219 87t-58 228z" />
    <glyph glyph-name="six.dnom" horiz-adv-x="833" 
d="M63 340q0 287 124 471t319 184q125 0 196.5 -69.5t67.5 -188.5h-152q-2 57 -38.5 90t-100.5 33q-197 0 -246 -338h7q35 57 102.5 91t136.5 34q117 0 185.5 -73.5t68.5 -192.5q0 -166 -110.5 -279.5t-274.5 -113.5q-143 0 -214 92t-71 260zM223 285q0 -70 39 -115t111 -45
q86 0 145.5 68.5t59.5 168.5q0 72 -40 113t-110 41q-86 0 -145.5 -67.5t-59.5 -163.5z" />
    <glyph glyph-name="seven.dnom" horiz-adv-x="745" 
d="M760 983l-15 -111q-195 -211 -314.5 -418.5t-194.5 -453.5h-152q147 492 477 846h-338l-20 -154h-115l21 154l18 137h633z" />
    <glyph glyph-name="eight.dnom" horiz-adv-x="808" 
d="M31 219q0 84 48 158t128 108l2 11q-115 57 -115 190q0 135 106.5 222t268.5 87q137 0 216 -63.5t79 -167.5q0 -84 -48 -159t-126 -109l-2 -11q111 -59 110 -188q0 -135 -104.5 -223t-265.5 -88q-137 0 -217 63.5t-80 169.5zM252 684q0 -61 42 -95t112 -34q86 0 141 51
t55 129q0 59 -42 93t-109 34q-88 0 -143.5 -50t-55.5 -128zM190 248q0 -61 42 -94t114 -33q84 0 139.5 50t55.5 128q0 59 -41 94t-111 35q-86 0 -142.5 -51t-56.5 -129z" />
    <glyph glyph-name="nine.dnom" horiz-adv-x="831" 
d="M758 643q0 -287 -124 -471t-317 -184q-127 0 -200.5 70.5t-67.5 187.5h152q4 -121 139 -121q201 0 248 336h-8q-37 -59 -103.5 -94t-138.5 -35q-115 0 -183.5 75.5t-68.5 196.5q0 164 111.5 277.5t273.5 113.5q143 0 215 -92t72 -260zM596 698q0 70 -39 116t-111 46
q-84 0 -144 -69.5t-60 -169.5q0 -72 41 -112t110 -40q84 0 143.5 66.5t59.5 162.5z" />
    <glyph glyph-name="zero.numr" horiz-adv-x="862" 
d="M428 514q-137 0 -212 93t-75 267q0 274 120 452.5t306 178.5q137 0 213 -93t76 -267q0 -274 -121 -452.5t-307 -178.5zM444 649q111 0 181.5 140.5t70.5 355.5q0 225 -147 225q-111 0 -180.5 -138t-69.5 -358q0 -225 145 -225z" />
    <glyph glyph-name="one.numr" horiz-adv-x="638" 
d="M156 1204l16 121h92q90 0 138.5 45t48.5 115v8h149l-137 -969h-150l97 680h-254z" />
    <glyph glyph-name="two.numr" horiz-adv-x="778" 
d="M281 653l155 6h277l-19 -137h-604l4 35q12 109 73.5 194t139.5 139t154 103t127 113.5t51 142.5q0 57 -36 90t-99 33q-76 0 -127 -50t-60 -128l-151 12q23 133 123 216t241 83q127 0 198 -65.5t71 -169.5q0 -96 -44 -175t-113 -132.5t-139.5 -99.5t-133.5 -100.5
t-88 -109.5z" />
    <glyph glyph-name="three.numr" horiz-adv-x="786" 
d="M383 508q-147 0 -221 86t-51 219h153q-14 -82 26 -127t111 -45q78 0 133.5 52t55.5 128q0 61 -44 95t-114 34h-74l21 140h61q84 0 137.5 48t53.5 124q0 53 -37 81.5t-92 28.5q-74 0 -123 -47t-57 -125h-154q12 133 107.5 219t244.5 86q123 0 198 -59.5t75 -161.5
q0 -176 -172 -250v-10q127 -51 127 -188.5t-105.5 -232.5t-259.5 -95z" />
    <glyph glyph-name="four.numr" horiz-adv-x="804" 
d="M676 846h110l-18 -135h-111l-26 -187h-152l27 187h-440l18 127l438 655h244zM250 846h274l72 510z" />
    <glyph glyph-name="five.numr" horiz-adv-x="813" 
d="M119 819h155q-12 -74 28 -125t116 -51q88 0 146.5 66.5t58.5 164.5q0 74 -40 119t-112 45q-53 0 -100 -26.5t-70 -67.5h-145l77 549h586l-18 -137h-436l-21 -150l-18 -98l2 -4q68 63 190 63q121 0 192.5 -74.5t71.5 -193.5q0 -166 -110.5 -278.5t-274.5 -112.5
q-141 0 -219.5 86t-58.5 225z" />
    <glyph glyph-name="six.numr" horiz-adv-x="833" 
d="M137 860q0 283 124 464t317 181q123 0 196.5 -68.5t69.5 -185.5h-152q-2 57 -40 88t-99 31q-201 0 -246 -332h6q35 57 102.5 91t135.5 34q117 0 186.5 -73.5t69.5 -192.5q0 -164 -110.5 -275.5t-274.5 -111.5q-143 0 -214 92t-71 258zM297 805q0 -70 39 -116t110 -46
q86 0 145.5 68.5t59.5 169.5q0 72 -40 112.5t-109 40.5q-86 0 -145.5 -66.5t-59.5 -162.5z" />
    <glyph glyph-name="seven.numr" horiz-adv-x="745" 
d="M831 1493l-14 -111q-197 -207 -315.5 -412.5t-192.5 -445.5h-151q154 485 473 832h-336l-19 -129h-114l37 266h632z" />
    <glyph glyph-name="eight.numr" horiz-adv-x="808" 
d="M102 739q0 84 48.5 156t130.5 109l2 10q-115 59 -115 188q0 131 106.5 217t266.5 86q137 0 217 -62.5t80 -164.5q0 -84 -47.5 -155.5t-128.5 -108.5l-3 -10q113 -57 113 -188.5t-105.5 -218.5t-267.5 -87q-135 0 -216 63.5t-81 165.5zM326 1200q0 -59 41 -94t112 -35
q84 0 139.5 50t55.5 128q0 59 -42 92t-110 33q-86 0 -141 -49t-55 -125zM262 770q0 -61 43 -95t115 -34q84 0 139 50t55 126q0 59 -42 94t-109 35q-88 0 -144.5 -50t-56.5 -126z" />
    <glyph glyph-name="nine.numr" horiz-adv-x="833" 
d="M829 1155q0 -283 -122.5 -464t-317.5 -181q-123 0 -197.5 69.5t-68.5 186.5h151q2 -61 41 -92t99 -31q199 0 245 334h-8q-37 -59 -101.5 -91t-135.5 -32q-117 0 -185.5 72.5t-68.5 189.5q0 164 110.5 276.5t272.5 112.5q143 0 214.5 -92t71.5 -258zM670 1210
q0 68 -40 114t-110 46q-88 0 -146.5 -67.5t-58.5 -167.5q0 -72 40 -113t110 -41q84 0 144.5 67.5t60.5 161.5z" />
    <glyph glyph-name="question.aalt" horiz-adv-x="1128" 
d="M176 1075q25 199 165 317.5t353 118.5q182 0 289 -90t107 -241q0 -74 -20.5 -136.5t-66 -120t-75 -87t-88.5 -82.5q-20 -16 -66.5 -56.5t-61 -53.5t-44 -44t-40 -52.5t-22.5 -54t-18 -69.5l-6 -39h-174l6 39q10 70 34.5 128t78 116.5t80 84t100.5 87.5q100 84 150 156.5
t50 162.5q0 92 -63.5 144.5t-173.5 52.5q-135 0 -219 -76t-101 -205h-174zM328 0l30 225h234l-31 -225h-233z" />
    <glyph glyph-name="questiondown.aalt" horiz-adv-x="1126" 
d="M803 1264l-33 -224h-233l32 224h234zM954 188q-25 -197 -165 -316.5t-349 -119.5q-186 0 -293.5 91t-107.5 243q0 74 20.5 136.5t64.5 117.5t76.5 88t90.5 82q18 16 59 51t54.5 47.5t41 39t38 43t25.5 42t22.5 52t11.5 57.5l4 37h176l-6 -39q-12 -92 -66.5 -176
t-97.5 -124t-133 -116q-199 -166 -199 -318q0 -92 63.5 -144t174.5 -52q133 0 219 75.5t102 202.5h174z" />
    <glyph glyph-name="parenleft.aalt" horiz-adv-x="608" 
d="M147 573q0 274 125 541.5t328 419.5h123q-203 -154 -323.5 -416t-120.5 -561q0 -379 225 -598h-125q-109 102 -170.5 264t-61.5 350z" />
    <glyph glyph-name="parenright.aalt" horiz-adv-x="610" 
d="M520 909q0 -276 -123 -538t-325 -412h-125q207 162 325.5 422t118.5 557q0 379 -223 596h125q106 -100 166.5 -265t60.5 -360z" />
    <glyph glyph-name="braceleft.aalt" horiz-adv-x="675" 
d="M117 627l16 129q135 0 158 151l61 447q23 141 158 141h219l-14 -113h-230l-65 -471q-14 -94 -65.5 -150t-114.5 -63v-6q59 -10 95 -69.5t23 -149.5l-71 -493h229l-16 -115h-219q-61 0 -94 34.5t-23 108.5l65 471q12 76 -22.5 112t-89.5 36z" />
    <glyph glyph-name="braceright.aalt" horiz-adv-x="673" 
d="M586 627q-135 0 -158 -148l-66 -471q-20 -143 -157 -143h-217l16 115h225l70 493q14 90 64.5 149.5t117.5 69.5v6q-63 8 -98 62.5t-23 150.5l68 471h-227l16 113h217q66 0 95.5 -37t21.5 -104l-62 -447q-10 -68 18 -109.5t95 -41.5z" />
    <glyph glyph-name="bracketleft.aalt" horiz-adv-x="659" 
d="M123 -135l231 1638h359l-15 -114h-235l-199 -1409h236l-17 -115h-360z" />
    <glyph glyph-name="bracketright.aalt" horiz-adv-x="659" 
d="M-12 -135l16 115h236l198 1409h-235l14 114h363l-232 -1638h-360z" />
    <glyph glyph-name="hyphen.aalt" horiz-adv-x="931" 
d="M141 696l17 119h692l-16 -119h-693z" />
    <glyph glyph-name="endash.aalt" horiz-adv-x="1292" 
d="M141 696l17 119h1052l-16 -119h-1053z" />
    <glyph glyph-name="emdash.aalt" horiz-adv-x="1693" 
d="M141 696l17 119h1454l-17 -119h-1454z" />
    <glyph glyph-name="greater.aalt" horiz-adv-x="1112" 
d="M174 217l27 195l309 159l354 166l2 13l-307 151l-270 146l28 190l725 -426l-20 -139z" />
    <glyph glyph-name="less.aalt" horiz-adv-x="1114" 
d="M850 217l-721 455l18 139l846 426l-26 -190l-314 -146l-346 -151l-2 -13l305 -166l267 -159z" />
    <glyph glyph-name="percent.aalt" horiz-adv-x="1269" 
d="M160 1126q0 164 105.5 274.5t262.5 110.5q127 0 203 -74.5t76 -197.5q0 -162 -106.5 -272.5t-262.5 -110.5q-129 0 -203.5 73.5t-74.5 196.5zM303 1145q0 -74 41 -120t111 -46q88 0 149.5 70.5t61.5 171.5q0 74 -42 118.5t-114 44.5q-86 0 -146.5 -69.5t-60.5 -169.5z
M70 475l16 121l1184 446l-17 -122zM502 252q0 162 106.5 271.5t263.5 109.5q129 0 204 -73t75 -195q0 -162 -106.5 -273.5t-264.5 -111.5q-127 0 -202.5 74.5t-75.5 197.5zM645 270q0 -76 42 -121t112 -45q88 0 149.5 72t61.5 172q0 74 -42 121t-112 47q-88 0 -149.5 -72
t-61.5 -174z" />
    <glyph glyph-name="perthousand.aalt" horiz-adv-x="1388" 
d="M455 895q-127 0 -203 70.5t-76 187.5q0 154 105.5 257t261.5 103q127 0 203.5 -70.5t76.5 -189.5q0 -152 -106 -255t-262 -103zM526 1391q-88 0 -147.5 -63.5t-59.5 -153.5q0 -70 42 -112t112 -42q88 0 148.5 62.5t60.5 156.5q0 68 -43 110t-113 42zM158 680l1185 444
l-16 -120l-1184 -445zM1012 598q121 0 195.5 -69.5t74.5 -186.5q0 -154 -103.5 -258t-254.5 -104q-80 0 -144.5 32.5t-97.5 91.5q-106 -125 -276 -124q-123 0 -197 70.5t-74 187.5q0 152 102.5 256t254.5 104q166 0 239 -123q111 123 281 123zM432 102q88 0 147.5 64.5
t59.5 157.5q0 70 -42 111.5t-112 41.5q-88 0 -147 -63.5t-59 -157.5q0 -70 41.5 -112t111.5 -42zM932 104q88 0 147.5 63.5t59.5 158.5q0 68 -42 109.5t-114 41.5q-88 0 -146.5 -63.5t-58.5 -155.5q0 -70 42 -112t112 -42z" />
    <glyph glyph-name="glyph553" horiz-adv-x="2220" 
d="M1143 1511q403 0 657 -213t254 -550.5t-255 -552.5t-656.5 -215t-657.5 215t-256 552.5t254 550.5t660 213zM1356 1171q-35 133 -90.5 208t-123 75t-123.5 -74.5t-91 -208.5h428zM1413 1171h223q-119 207 -346 265q80 -89 123 -265zM872 1171q45 178 121 265
q-223 -55 -346 -265h225zM1847 1171q-127 154 -342 228q119 -86 195 -228h147zM778 1397q-213 -72 -342 -226h148q73 140 194 226zM483 774q6 188 70 334h-164q-98 -150 -104 -334h198zM858 1108h-244q-66 -147 -71 -334h282q4 193 33 334zM881 774h522q-4 195 -33 334h-457
q-30 -156 -32 -334zM1458 774h283q-6 186 -72 334h-242q27 -148 31 -334zM1798 774h199q-6 182 -103 334h-163q61 -148 67 -334zM285 715q10 -182 104 -328h162q-61 152 -68 328h-198zM543 715q6 -184 71 -328h242q-27 143 -31 328h-282zM1403 715h-522q2 -176 32 -328h457
q31 152 33 328zM1427 387h242q66 143 72 328h-283q-4 -185 -31 -328zM1798 715q-6 -184 -67 -328h161q94 145 105 328h-199zM434 328q123 -150 338 -230q-119 90 -192 230h-146zM870 328h-225q125 -213 346 -271q-78 93 -121 271zM928 328q35 -137 91 -213t123.5 -76t123 77
t90.5 212h-428zM1413 328q-43 -178 -121 -271q221 57 346 271h-225zM1511 98q207 74 338 230h-147q-70 -138 -191 -230z" />
    <glyph glyph-name="glyph554" horiz-adv-x="1835" 
d="M195 743q0 340 213 553t540 213q326 0 539 -213t213 -553q0 -344 -213 -558t-539 -214q-328 0 -540.5 214t-212.5 558zM299 743q0 -301 184.5 -490.5t464.5 -189.5q279 0 463 189.5t184 490.5q0 299 -184 486.5t-463 187.5q-281 0 -465 -187.5t-184 -486.5zM606 745
q0 150 99.5 246t243 96t241.5 -96t98 -246q0 -156 -97 -253t-242.5 -97t-244 97t-98.5 253zM643 723l287 12l-185 -168l31 -35l166 191l-14 -295h41l-13 295l164 -191l31 35l-182 168l284 -12v41l-284 -12l182 166l-31 34l-164 -188l13 291h-41l14 -291l-166 188l-31 -34
l185 -166l-287 12v-41z" />
    </font>
</defs>
</svg>
