<?xml version="1.0" standalone="no"?>
<!DOCTYPE svg PUBLIC "-//W3C//DTD SVG 1.1//EN" "http://www.w3.org/Graphics/SVG/1.1/DTD/svg11.dtd" >
<svg xmlns="http://www.w3.org/2000/svg" xmlns:xlink="http://www.w3.org/1999/xlink" version="1.1">
<metadata>
Created by FontForge 20170731 at Tue Sep 18 00:42:49 2018
 By Aleksey,,,
Copyright (c) 2017 by Deni Anggara. All rights reserved.
</metadata>
<defs>
<font id="AllianceNo.1-Medium" horiz-adv-x="0" >
  <font-face 
    font-family="Alliance No.1 Medium"
    font-weight="500"
    font-stretch="normal"
    units-per-em="1000"
    panose-1="0 0 6 0 0 0 0 0 0 0"
    ascent="802"
    descent="-198"
    x-height="526"
    cap-height="729"
    bbox="-480 -249 2114 974"
    underline-thickness="50"
    underline-position="-150"
    unicode-range="U+000D-FB02"
  />
<missing-glyph horiz-adv-x="644" 
d="M644 0v729h-644v-729h644zM63 666h518v-604h-518v604zM518 125v478h-392v-478h392zM189 540h266v-351h-266v351zM252 252h140v225h-140v-225z" />
    <glyph glyph-name=".notdef" horiz-adv-x="644" 
d="M644 0v729h-644v-729h644zM63 666h518v-604h-518v604zM518 125v478h-392v-478h392zM189 540h266v-351h-266v351zM252 252h140v225h-140v-225z" />
    <glyph glyph-name="glyph1" 
 />
    <glyph glyph-name="glyph2" horiz-adv-x="333" 
 />
    <glyph glyph-name="uni000D" unicode="&#xd;" horiz-adv-x="226" 
 />
    <glyph glyph-name="space" unicode=" " horiz-adv-x="228" 
 />
    <glyph glyph-name="exclam" unicode="!" horiz-adv-x="286" 
d="M169 222l27 298v209h-105v-209l27 -298h51zM201 0v105h-116v-105h116z" />
    <glyph glyph-name="quotedbl" unicode="&#x22;" horiz-adv-x="393" 
d="M157 591v138h-96v-138l26 -167h44zM332 591v138h-96v-138l26 -167h44z" />
    <glyph glyph-name="numbersign" unicode="#" horiz-adv-x="717" 
d="M657 539h-116v211h-65v-211h-233v211h-66v-211h-117v-61h117v-202h-117v-62h117v-214h66v214h233v-214h65v214h116v62h-116v202h116v61zM243 276v202h233v-202h-233z" />
    <glyph glyph-name="dollar" unicode="$" horiz-adv-x="555" 
d="M506 237q0 134 -158 171l-85 21q-47 11 -72 32t-25 57q0 40 27 63q26 23 75 23q54 -1 84 -28t31 -73h103q-2 76 -48 123q-47 47 -128 57v87h-74v-87q-83 -10 -130 -57t-48 -119q0 -132 160 -170l87 -22q45 -11 69 -32q23 -21 23 -57q0 -43 -32 -68q-31 -25 -89 -25
q-63 0 -96 30t-33 87h-104q1 -82 51 -134q51 -52 142 -63v-86h74v85q91 9 143 58q52 48 53 127v0z" />
    <glyph glyph-name="percent" unicode="%" horiz-adv-x="898" 
d="M57 557q0 -81 49 -132q50 -51 128 -51q40 0 72 13q31 12 56 37q50 51 50 132t-49 131t-129 50q-40 0 -71 -13q-32 -12 -57 -37t-37 -57q-12 -33 -12 -73v0zM261 0l462 729h-74l-462 -729h74zM136 557q1 51 28 81q26 30 70 31q46 -1 73 -31q26 -30 27 -81q-1 -52 -27 -82
q-27 -31 -73 -32q-45 1 -71 32q-26 30 -27 82v0zM485 173q0 -82 49 -133q50 -50 129 -50q78 0 127 50q49 51 49 132t-49 132q-48 51 -127 51t-129 -51q-49 -51 -49 -131v0zM663 286q44 -1 71 -31q27 -31 28 -82q-1 -51 -27 -82q-27 -31 -72 -32q-45 1 -72 32t-28 82
q1 51 28 82q26 30 72 31v0z" />
    <glyph glyph-name="ampersand" unicode="&#x26;" horiz-adv-x="722" 
d="M556 371q-15 -87 -51 -162l-157 173v8q71 49 101 94q31 44 30 94q-1 73 -49 116q-49 42 -134 43q-88 -1 -138 -45q-51 -44 -52 -119q0 -45 22 -83q11 -19 31 -41q20 -23 48 -51v-7q-80 -47 -118 -98q-37 -51 -37 -114q0 -87 63 -138t166 -51q71 0 127 21t96 62l67 -73
h127l-131 143q57 90 80 206zM204 574q1 39 25 61q25 22 65 22t63 -22q23 -21 24 -58q0 -63 -91 -133h-9q-77 73 -77 130v0zM156 191q0 84 109 144l180 -197q-25 -28 -65 -45t-88 -17q-63 0 -99 31q-36 30 -37 84v0z" />
    <glyph glyph-name="quotesingle" unicode="'" horiz-adv-x="217" 
d="M157 591v138h-96v-138l26 -167h44z" />
    <glyph glyph-name="parenleft" unicode="(" horiz-adv-x="397" 
d="M76 319q0 -136 62 -261q62 -124 164 -190h70q-102 66 -165 190q-63 125 -63 261q0 137 63 261q63 125 165 190h-70q-102 -67 -164 -192q-62 -124 -62 -259v0z" />
    <glyph glyph-name="parenright" unicode=")" horiz-adv-x="391" 
d="M321 319q0 135 -62 259q-62 125 -164 192h-69q50 -32 91 -80t73 -110q63 -124 63 -261q0 -136 -63 -261q-63 -124 -164 -190h69q102 66 164 189q62 124 62 262v0z" />
    <glyph glyph-name="asterisk" unicode="*" horiz-adv-x="349" 
d="M65 486l95 71l-12 -122h53l-12 122l96 -71l27 45l-108 51l108 50l-27 47l-96 -71l12 121h-53l12 -121l-95 71l-27 -47l108 -50l-108 -51z" />
    <glyph glyph-name="plus" unicode="+" horiz-adv-x="635" 
d="M557 283v84h-196v203h-88v-203h-195v-84h195v-210h88v210h196z" />
    <glyph glyph-name="comma" unicode="," horiz-adv-x="210" 
d="M40 -138q61 0 96 31t36 86v150h-121v-129h64v-21q0 -71 -75 -71v-46z" />
    <glyph glyph-name="hyphen" unicode="-" horiz-adv-x="465" 
d="M404 268v65h-344v-65h344z" />
    <glyph glyph-name="period" unicode="." horiz-adv-x="253" 
d="M188 0v136h-122v-136h122z" />
    <glyph glyph-name="slash" unicode="/" horiz-adv-x="400" 
d="M91 0l286 729h-68l-287 -729h69z" />
    <glyph glyph-name="zero" unicode="0" horiz-adv-x="628" 
d="M314 -6q116 0 184 94t70 275q-1 180 -69 273t-184 94q-115 0 -186 -94q-70 -93 -70 -273t70 -275q35 -47 81 -71q46 -23 104 -23v0zM313 86q-145 0 -145 280q0 272 146 272q145 0 145 -278q0 -274 -146 -274v0z" />
    <glyph glyph-name="one" unicode="1" horiz-adv-x="465" 
d="M234 516v-516h103v721h-96q-9 -60 -54 -93t-118 -33h-24v-79h189z" />
    <glyph glyph-name="two" unicode="2" horiz-adv-x="577" 
d="M312 92q-66 0 -145 -7q5 22 18 43q14 20 38 42q25 23 40 35q17 14 54 39l49 34q76 53 116 110q41 56 41 132q0 93 -62 151q-62 59 -164 59q-108 0 -173 -63q-65 -62 -62 -164h104q-3 63 30 99q32 35 95 36q57 0 90 -31t34 -88q0 -53 -31 -93q-32 -40 -95 -84l-20 -14
l-67 -47q-21 -16 -55 -48q-34 -31 -51 -58q-16 -27 -29 -66q-12 -39 -13 -84v-25h478v92h-220z" />
    <glyph glyph-name="three" unicode="3" horiz-adv-x="599" 
d="M296 -10q110 0 177 58q69 59 69 154q0 58 -29 103t-89 66v6q107 47 107 162q0 89 -66 140q-65 51 -163 51q-106 0 -173 -63q-66 -61 -65 -165h107q1 66 34 101q34 35 94 35q55 0 89 -28q34 -29 35 -80q0 -52 -34 -84q-35 -32 -98 -33h-55v-84h59q64 -1 101 -33t38 -90
q-1 -57 -37 -91q-37 -33 -100 -34q-62 0 -97 35q-35 36 -34 104h-107q-2 -105 62 -168q64 -62 175 -62v0z" />
    <glyph glyph-name="four" unicode="4" horiz-adv-x="613" 
d="M487 721h-153l-299 -482v-86h349v-153h103v153h87v87h-87v481zM384 632v-392h-241z" />
    <glyph glyph-name="five" unicode="5" horiz-adv-x="606" 
d="M317 478q-42 0 -81 -14q-38 -14 -61 -36l-5 1l10 201h330v91h-422l-16 -402h98q14 31 48 50t79 20q66 -1 104 -43q38 -43 39 -113q-1 -69 -39 -110q-38 -40 -103 -41q-63 1 -100 40q-36 38 -35 99h-105q-1 -52 16 -93q16 -42 49 -74q68 -64 174 -64q112 0 181 68
q70 69 70 179q0 53 -16 96q-17 43 -49 77q-64 68 -166 68v0z" />
    <glyph glyph-name="six" unicode="6" horiz-adv-x="615" 
d="M318 -10q112 0 178 67q66 68 66 178q0 107 -61 171q-61 66 -158 66q-59 0 -101 -24t-65 -71h-5q-13 263 152 263q48 0 81 -23q32 -23 40 -71h106q-10 86 -69 134q-59 49 -157 50q-134 -1 -199 -97q-64 -97 -64 -274q0 -171 62 -270t194 -99v0zM322 384q61 -1 97 -40
q35 -39 36 -109q0 -70 -36 -112q-36 -41 -97 -41q-31 0 -55 10q-24 11 -43 31t-28 48q-9 27 -9 61q0 65 36 108q35 42 99 44v0z" />
    <glyph glyph-name="seven" unicode="7" horiz-adv-x="551" 
d="M119 501v129h273q-97 -141 -171 -311q-37 -85 -61 -165t-37 -154h112q29 157 105 332q77 176 177 315v74h-484v-220h86z" />
    <glyph glyph-name="eight" unicode="8" horiz-adv-x="594" 
d="M53 186q0 -87 67 -142q68 -54 176 -54q110 0 177 54q68 55 68 142q0 57 -28 101q-27 44 -76 69v8q49 24 76 69q28 44 28 100q0 87 -68 141q-34 28 -77 41q-44 14 -99 14q-109 0 -177 -55q-67 -54 -67 -141q0 -56 28 -101t77 -68v-8q-51 -24 -78 -68t-27 -102v0zM161 520
q1 54 36 86q35 31 99 32q63 -1 100 -32q36 -31 37 -86q-1 -54 -37 -86q-36 -31 -100 -32q-61 1 -97 32q-37 31 -38 86v0zM161 200q1 53 36 85t99 33q63 -1 100 -32q36 -31 37 -86q0 -55 -36 -86q-35 -31 -101 -32q-61 0 -97 31q-37 30 -38 87v0z" />
    <glyph glyph-name="nine" unicode="9" horiz-adv-x="612" 
d="M290 -10q132 -1 198 87q65 88 65 276q0 176 -62 276q-61 101 -195 101q-111 0 -177 -68q-66 -67 -66 -176q0 -53 15 -96q15 -44 46 -76t70 -49q39 -16 88 -16q117 0 167 94h5q8 -127 -29 -194q-38 -68 -120 -69q-51 0 -84 24q-32 24 -39 69h-105q9 -82 70 -133
q62 -50 153 -50v0zM293 337q-61 1 -96 40q-36 39 -37 109q0 71 36 111q36 41 97 41q31 0 55 -10q24 -11 43 -31q38 -40 38 -108q-1 -65 -36 -108q-36 -42 -100 -44v0z" />
    <glyph glyph-name="colon" unicode=":" horiz-adv-x="275" 
d="M201 403v123h-121v-123h121zM201 0v122h-121v-122h121z" />
    <glyph glyph-name="semicolon" unicode=";" horiz-adv-x="246" 
d="M173 403v123h-121v-123h121zM41 -129q63 0 97 28q35 29 35 85v138h-121v-122h64v-21q1 -30 -15 -48q-17 -18 -60 -18v-42z" />
    <glyph glyph-name="less" unicode="&#x3c;" horiz-adv-x="547" 
d="M463 138l-137 72l-154 75v8l291 140v108l-386 -210v-80l386 -221v108z" />
    <glyph glyph-name="equal" unicode="=" horiz-adv-x="547" 
d="M463 355v92h-379v-92h379zM463 147v91h-379v-91h379z" />
    <glyph glyph-name="greater" unicode="&#x3e;" horiz-adv-x="547" 
d="M470 251v80l-386 210v-108l292 -140v-8l-156 -75l-136 -72v-108z" />
    <glyph glyph-name="question" unicode="?" horiz-adv-x="583" 
d="M299 200v110q104 3 167 61q63 59 63 151q0 98 -65 156q-64 59 -177 59q-107 0 -173 -54t-70 -150h102q4 54 41 83q36 30 97 30q64 -1 102 -33q37 -33 38 -91q-1 -61 -41 -95q-41 -34 -116 -35q-31 0 -67 7v-199h99zM311 0v120h-125v-120h125z" />
    <glyph glyph-name="at" unicode="@" horiz-adv-x="916" 
d="M51 314q0 -188 115 -302q115 -113 301 -113q140 0 240 50v71q-108 -53 -239 -53q-157 0 -247 96q-90 97 -90 254q0 158 89 255q90 98 246 98q143 0 228 -84q87 -83 87 -224q-1 -87 -32 -139q-32 -52 -87 -53q-63 0 -58 82l18 252h-57l-10 -49h-6q-33 61 -108 61t-122 -61
t-47 -157q1 -91 43 -141t109 -51q87 0 122 78h7q9 -37 38 -59q28 -22 73 -22q86 0 139 72q54 74 54 189q0 167 -109 270q-108 104 -280 104q-187 0 -302 -117t-115 -307v0zM346 300q1 70 28 111q28 40 76 41q42 -1 67 -34q24 -34 24 -95q-1 -68 -30 -108q-29 -41 -78 -42
q-42 0 -64 32q-23 33 -23 95v0z" />
    <glyph glyph-name="A" unicode="A" horiz-adv-x="677" 
d="M673 0l-274 729h-126l-270 -729h113l58 160h323l58 -160h118zM248 362l87 255h5l84 -255l41 -114h-259z" />
    <glyph glyph-name="B" unicode="B" horiz-adv-x="712" 
d="M430 0q107 0 170 54q32 28 48 64t16 82q0 63 -31 108q-32 45 -92 64v8q49 21 76 64q28 42 28 100q-1 84 -57 134q-57 50 -157 51h-336v-729h335zM202 640h207q57 0 90 -30q33 -29 34 -81q-1 -54 -33 -83q-33 -30 -91 -30h-207v224zM202 329h210q63 0 100 -30
q36 -30 37 -89q0 -57 -35 -89t-102 -32h-210v240z" />
    <glyph glyph-name="C" unicode="C" horiz-adv-x="752" 
d="M593 243q-16 -73 -69 -114q-54 -41 -139 -42q-105 0 -167 74q-61 75 -61 203q0 127 62 202t168 75q79 -1 133 -40q55 -40 73 -113h113q-16 114 -103 182t-216 68q-77 0 -140 -26q-63 -25 -110 -77q-95 -103 -95 -271t94 -271q95 -103 251 -103q129 0 216 69
q88 69 103 184h-113z" />
    <glyph glyph-name="D" unicode="D" horiz-adv-x="748" 
d="M380 0q155 0 240 99q86 99 86 265t-86 265q-85 100 -240 100h-285v-729h285zM204 632h165q103 0 163 -68q59 -67 60 -199q-1 -129 -59 -198t-164 -70h-165v535z" />
    <glyph glyph-name="E" unicode="E" horiz-adv-x="644" 
d="M587 0v97h-383v233h335v92h-335v210h383v97h-492v-729h492z" />
    <glyph glyph-name="F" unicode="F" horiz-adv-x="613" 
d="M204 0v280h337v93h-337v259h377v97h-486v-729h109z" />
    <glyph glyph-name="G" unicode="G" horiz-adv-x="803" 
d="M353 299h256q-2 -47 -19 -86q-17 -38 -48 -68q-62 -60 -160 -60q-104 0 -164 68q-60 69 -61 203q1 133 61 209q59 75 171 76q75 0 128 -35q52 -34 69 -97h112q-15 102 -100 165q-85 64 -207 64q-158 0 -254 -105q-95 -103 -95 -276q0 -168 91 -268q91 -99 235 -99
q85 1 152 35q66 34 101 95h7l9 -120h89v389h-373v-90z" />
    <glyph glyph-name="H" unicode="H" horiz-adv-x="803" 
d="M204 0v327h395v-327h109v729h-109v-311h-395v311h-109v-729h109z" />
    <glyph glyph-name="I" unicode="I" horiz-adv-x="299" 
d="M204 729h-109v-729h109v729z" />
    <glyph glyph-name="J" unicode="J" horiz-adv-x="399" 
d="M309 729h-108v-517q0 -124 -112 -124q-46 0 -73 6v-94q27 -8 87 -8q206 0 206 211v526z" />
    <glyph glyph-name="K" unicode="K" horiz-adv-x="685" 
d="M681 0l-275 412l265 317h-130l-337 -409v409h-109v-729h109v169l130 156l217 -325h130z" />
    <glyph glyph-name="L" unicode="L" horiz-adv-x="570" 
d="M535 0v100h-331v629h-109v-729h440z" />
    <glyph glyph-name="M" unicode="M" horiz-adv-x="912" 
d="M202 0v371l-9 212h7l257 -570l256 570h6l-8 -211v-372h106v729h-141l-217 -496h-6l-216 496h-142v-729h107z" />
    <glyph glyph-name="N" unicode="N" horiz-adv-x="791" 
d="M204 0v376l-7 210h5l362 -586h132v729h-108v-368l7 -218h-5l-363 586h-132v-729h109z" />
    <glyph glyph-name="O" unicode="O" horiz-adv-x="773" 
d="M42 364q0 -168 93 -271t251 -103q156 0 250 101q94 102 94 274q0 168 -93 270q-93 103 -251 103q-155 0 -250 -102q-94 -102 -94 -272v0zM157 365q0 125 62 200q62 76 167 76q104 0 167 -76q63 -75 63 -201q0 -125 -62 -200q-61 -75 -168 -75q-105 0 -167 74
q-62 75 -62 202v0z" />
    <glyph glyph-name="P" unicode="P" horiz-adv-x="679" 
d="M95 729v-729h109v257l192 -1q116 0 185 64q70 65 70 173q0 107 -69 171q-67 65 -186 65h-301zM204 352v277h178q15 0 31 -1q16 -2 39 -10q24 -7 41 -21q18 -13 30 -40t13 -64q0 -67 -38 -103q-39 -37 -116 -38h-178z" />
    <glyph glyph-name="Q" unicode="Q" horiz-adv-x="773" 
d="M478 0q117 28 184 124q68 97 68 241q0 168 -93 270q-93 103 -251 103q-155 0 -250 -102q-94 -102 -94 -272q0 -168 93 -271t251 -103h5q28 -78 98 -122t182 -45q23 0 41 2v97q-24 -4 -50 -4q-127 0 -184 82v0zM157 365q0 125 62 200q62 76 167 76q104 0 167 -76
q63 -75 63 -201q0 -125 -62 -200q-61 -75 -168 -75q-105 0 -167 74q-62 75 -62 202v0z" />
    <glyph glyph-name="R" unicode="R" horiz-adv-x="718" 
d="M204 0v278h217q61 0 86 -26t24 -82v-82q0 -66 11 -88h111q-11 27 -11 82v108q0 119 -104 141v7q55 25 86 72q30 47 31 110q0 98 -59 153q-58 55 -170 56h-331v-729h109zM204 633h197q139 0 139 -126q-1 -61 -41 -96q-40 -36 -111 -37h-184v259z" />
    <glyph glyph-name="S" unicode="S" horiz-adv-x="673" 
d="M44 226q1 -53 20 -96q19 -44 57 -76t92 -48q53 -16 123 -16q131 1 206 58t76 163q0 47 -16 84q-17 36 -46 59q-29 24 -60 37q-32 14 -70 22l-129 26q-25 5 -40 11q-14 5 -37 16q-23 12 -35 32q-11 20 -11 47q0 49 38 77t107 29q73 0 115 -31q43 -32 47 -94h112
q-3 98 -73 155t-195 58q-120 0 -193 -57q-72 -57 -72 -152q4 -66 32 -105t73 -58q32 -14 53 -19q21 -6 47 -11l129 -28q19 -5 32 -10t33 -16q22 -11 33 -32t11 -50q-1 -57 -44 -90q-44 -32 -123 -33q-174 0 -180 148h-112z" />
    <glyph glyph-name="T" unicode="T" horiz-adv-x="560" 
d="M6 729v-98h220v-631h108v631h220v98h-548z" />
    <glyph glyph-name="U" unicode="U" horiz-adv-x="775" 
d="M89 272q0 -129 78 -206q78 -76 220 -76q138 0 218 76q81 77 81 206v457h-108v-448q-1 -91 -51 -141q-51 -49 -139 -50q-89 1 -139 51q-51 49 -52 140v448h-108v-457z" />
    <glyph glyph-name="V" unicode="V" horiz-adv-x="672" 
d="M406 0l260 729h-118l-117 -339l-92 -290h-7l-90 291l-117 338h-119l260 -729h140z" />
    <glyph glyph-name="W" unicode="W" horiz-adv-x="942" 
d="M159 0h151l159 601h6l157 -601h151l149 729h-117l-79 -418l-31 -192h-6l-156 610h-143l-154 -609h-7l-31 192l-80 417h-118z" />
    <glyph glyph-name="X" unicode="X" horiz-adv-x="638" 
d="M142 0l77 125l99 167h6l93 -161l81 -131h129l-226 365l225 364h-128l-85 -144l-87 -152h-7l-83 147l-89 149h-129l223 -361l-227 -368h128z" />
    <glyph glyph-name="Y" unicode="Y" horiz-adv-x="663" 
d="M277 291v-291h108v291l273 438h-130l-103 -179l-89 -158h-8l-88 158l-105 179h-131z" />
    <glyph glyph-name="Z" unicode="Z" horiz-adv-x="578" 
d="M19 729v-98h401l-401 -543v-88h534v98h-396l401 543v88h-539z" />
    <glyph glyph-name="bracketleft" unicode="[" horiz-adv-x="314" 
d="M289 -219v56h-115v887h115v60h-180v-1003h180z" />
    <glyph glyph-name="backslash" unicode="\" horiz-adv-x="403" 
d="M91 729h-69l287 -729h68z" />
    <glyph glyph-name="bracketright" unicode="]" horiz-adv-x="314" 
d="M205 -219v1003h-180v-60h116v-887h-116v-56h180z" />
    <glyph glyph-name="asciicircum" unicode="^" horiz-adv-x="384" 
d="M368 473l-139 256h-73l-140 -256h87l89 168l89 -168h87z" />
    <glyph glyph-name="underscore" unicode="_" horiz-adv-x="342" 
d="M344 -74v74h-346v-74h346z" />
    <glyph glyph-name="grave" unicode="`" horiz-adv-x="431" 
d="M321 773l-186 139l-46 -77l199 -114z" />
    <glyph glyph-name="a" unicode="a" horiz-adv-x="569" 
d="M39 144q1 -70 48 -111q46 -42 125 -43q62 1 108 26q46 26 63 69h7q2 -92 93 -92q25 0 52 8v76q-6 -2 -18 -2q-31 0 -31 39v231q0 90 -53 140t-155 51q-92 0 -152 -46q-59 -45 -65 -121h100q3 39 33 62q29 23 80 23q110 0 110 -103v-37h-135q-98 0 -153 -44
q-56 -44 -57 -126v0zM144 156q0 87 116 87h124v-25q-1 -65 -39 -104q-39 -40 -105 -41q-45 0 -70 22q-26 21 -26 61v0z" />
    <glyph glyph-name="b" unicode="b" horiz-adv-x="633" 
d="M174 0l10 93h7q21 -49 68 -76t109 -27q102 0 163 74q61 75 61 198q0 62 -16 112q-15 50 -46 87q-61 75 -159 75q-64 -1 -111 -30q-48 -29 -69 -80h-7v310h-103v-736h93zM184 290q1 71 42 113q42 42 111 43q66 0 107 -45q41 -46 42 -139q-1 -91 -42 -137t-108 -46
q-65 0 -109 42q-22 22 -32 49q-11 27 -11 61v59z" />
    <glyph glyph-name="c" unicode="c" horiz-adv-x="565" 
d="M424 183q-7 -48 -41 -76q-34 -27 -89 -28q-69 0 -108 47t-40 135q0 86 39 135q38 49 110 50q49 0 83 -24q34 -25 44 -73h104q-7 84 -72 135q-63 52 -157 52q-117 0 -187 -75q-69 -75 -69 -199q0 -123 69 -198q69 -74 184 -74q49 0 90 13q41 14 73 40q65 53 72 140h-105z
" />
    <glyph glyph-name="d" unicode="d" horiz-adv-x="633" 
d="M553 736h-104v-313h-7q-21 52 -66 82q-46 30 -112 31q-100 0 -162 -75q-61 -75 -61 -202q0 -124 60 -197q60 -72 162 -72q63 0 111 28q47 27 68 75h7l11 -93h93v736zM449 231q0 -66 -44 -109q-43 -43 -111 -43q-67 0 -108 46q-39 47 -39 134t38 137q39 50 111 50
q68 -1 110 -42q42 -42 43 -114v-59z" />
    <glyph glyph-name="e" unicode="e" horiz-adv-x="571" 
d="M292 -10q47 0 88 12q40 12 72 35t52 55q20 31 27 69h-103q-10 -40 -46 -64q-35 -23 -89 -24q-70 0 -109 43t-39 124h378q5 28 5 58q-1 109 -63 173t-174 65q-113 0 -182 -75q-68 -75 -68 -200q0 -123 69 -197t182 -74v0zM146 314q3 64 41 101t102 38q64 0 99 -36
q36 -37 36 -103h-278z" />
    <glyph glyph-name="f" unicode="f" horiz-adv-x="348" 
d="M335 526h-123v51q0 40 18 59q18 20 59 20q24 0 46 -5v84q-22 7 -63 7q-78 0 -120 -38q-42 -39 -43 -117v-61h-96v-86h96v-440h103v440h123v86z" />
    <glyph glyph-name="g" unicode="g" horiz-adv-x="543" 
d="M32 -56q0 -60 55 -93q56 -33 169 -34q124 0 192 39q67 38 68 117q0 64 -42 99t-120 36h-134q-68 0 -68 43q0 36 40 44q29 -7 69 -7q90 0 145 47q28 23 41 55q14 31 14 69q0 77 -52 123q9 21 35 35q26 13 62 13v83q-58 -1 -99 -26q-42 -26 -58 -71q-19 10 -42 15
q-24 5 -53 5q-90 0 -146 -48t-56 -126q0 -94 76 -139v-7q-33 -10 -52 -33t-19 -56q0 -27 15 -46q14 -19 39 -28v-7q-36 -10 -57 -37q-22 -28 -22 -65v0zM154 361q0 46 27 73t75 28q48 0 75 -27q27 -26 28 -74q0 -46 -27 -73q-27 -26 -76 -27q-48 0 -75 26t-27 74v0zM126 -38
q0 30 20 46q20 17 59 17h136q72 0 72 -56q0 -76 -152 -76q-135 0 -135 69v0z" />
    <glyph glyph-name="h" unicode="h" horiz-adv-x="623" 
d="M184 0v279q1 76 40 121q38 45 105 46q116 0 116 -134v-312h104v322q0 100 -47 157q-47 56 -135 57q-60 0 -105 -28q-46 -27 -71 -78h-7v306h-103v-736h103z" />
    <glyph glyph-name="i" unicode="i" horiz-adv-x="264" 
d="M183 605v123h-102v-123h102zM183 0v526h-102v-526h102z" />
    <glyph glyph-name="j" unicode="j" horiz-adv-x="269" 
d="M188 605v123h-103v-123h103zM32 -174q72 0 114 41q41 41 42 117v542h-103v-530q0 -82 -78 -82q-21 0 -30 4v-87q19 -2 33 -4q14 -1 22 -1v0z" />
    <glyph glyph-name="k" unicode="k" horiz-adv-x="568" 
d="M553 0l-212 320l202 206h-131l-227 -235v445h-104v-736h104v161l85 87l164 -248h119z" />
    <glyph glyph-name="l" unicode="l" horiz-adv-x="264" 
d="M183 0v736h-102v-736h102z" />
    <glyph glyph-name="m" unicode="m" horiz-adv-x="931" 
d="M184 0v284q1 73 34 117q34 44 94 45q105 0 105 -135v-311h104v283q0 76 32 119q31 43 94 44q107 0 107 -135v-311h103v321q0 101 -45 157q-45 57 -129 58q-58 0 -102 -29q-45 -29 -69 -84h-8q-18 52 -58 82t-95 31q-111 0 -159 -108h-8l-14 98h-89v-526h103z" />
    <glyph glyph-name="n" unicode="n" horiz-adv-x="623" 
d="M184 0v276q1 77 40 123q38 46 105 47q117 0 117 -135v-311h104v321q0 100 -47 157t-135 58q-60 0 -106 -28q-45 -29 -70 -80h-7l-14 98h-90v-526h103z" />
    <glyph glyph-name="o" unicode="o" horiz-adv-x="591" 
d="M41 261q0 -120 70 -196q71 -75 185 -75t184 75q35 38 53 87t18 110q0 122 -71 198q-70 76 -184 76t-185 -77q-70 -76 -70 -198v0zM146 262q1 86 41 134q39 49 109 50q70 -1 109 -49q39 -49 40 -134q-1 -86 -40 -134t-109 -49q-70 1 -110 49q-39 49 -40 133v0z" />
    <glyph glyph-name="p" unicode="p" horiz-adv-x="633" 
d="M81 -167h103v264h7q21 -49 67 -78q46 -28 110 -29q102 0 163 74q62 74 62 201q0 124 -60 197q-60 74 -163 74q-64 -1 -110 -29q-47 -28 -69 -76h-7l-10 95h-93v-693zM184 292q0 66 44 110t111 44q69 0 108 -47t40 -134q0 -86 -39 -135q-39 -50 -111 -51q-34 0 -61 11
q-27 10 -49 32q-43 44 -43 111v59z" />
    <glyph glyph-name="q" unicode="q" horiz-adv-x="633" 
d="M460 526l-11 -95h-7q-21 49 -68 77q-46 27 -110 28q-102 0 -163 -75q-60 -75 -60 -199t60 -198q31 -37 71 -55q40 -19 90 -19q64 1 111 29q47 29 69 78h7v-264h104v693h-93zM449 233q0 -67 -43 -111q-22 -22 -49 -32q-27 -11 -61 -11q-67 0 -107 47q-41 47 -42 137
q1 92 41 138q41 45 107 45t110 -44t44 -110v-59z" />
    <glyph glyph-name="r" unicode="r" horiz-adv-x="370" 
d="M184 0v238q0 99 44 151t131 53v92q-126 0 -169 -113h-6l-13 105h-90v-526h103z" />
    <glyph glyph-name="s" unicode="s" horiz-adv-x="517" 
d="M41 161q1 -78 59 -124q57 -46 161 -47q98 1 155 43q58 43 59 118q0 123 -140 148l-100 18q-80 11 -80 68q0 34 26 53q25 20 73 20q104 0 107 -84h100q-3 74 -56 117q-54 44 -150 45q-94 -1 -148 -43q-55 -42 -56 -118q0 -116 144 -142l107 -20q28 -5 47 -19
q18 -15 19 -47q0 -37 -28 -58t-79 -21q-57 0 -88 25t-31 68h-101z" />
    <glyph glyph-name="t" unicode="t" horiz-adv-x="351" 
d="M12 440h88v-293q0 -155 147 -155q19 0 37 2q19 2 36 6v84q-15 -5 -46 -5q-42 0 -56 21q-15 21 -14 58v282h116v86h-116v191l-104 -40v-151h-88v-86z" />
    <glyph glyph-name="u" unicode="u" horiz-adv-x="610" 
d="M433 526v-276q-1 -77 -39 -123q-39 -47 -106 -48q-111 0 -111 128v319h-104v-334q1 -97 46 -149t129 -53q63 0 108 28t69 79h8l14 -97h89v526h-103z" />
    <glyph glyph-name="v" unicode="v" horiz-adv-x="493" 
d="M185 0h125l185 526h-113l-84 -265l-47 -161h-6l-50 162l-84 264h-113z" />
    <glyph glyph-name="w" unicode="w" horiz-adv-x="757" 
d="M575 260l-32 -156h-7l-96 422h-121l-94 -423h-8l-34 159l-66 264h-109l146 -526h132l59 258l29 139h6l31 -139l61 -258h133l143 526h-107z" />
    <glyph glyph-name="x" unicode="x" horiz-adv-x="483" 
d="M110 0l130 194h6l127 -194h113l-178 266l170 260h-110l-120 -193h-6l-122 193h-112l174 -262l-181 -264h109z" />
    <glyph glyph-name="y" unicode="y" horiz-adv-x="483" 
d="M195 19l-11 -28q-13 -40 -40 -60q-28 -20 -69 -20q-18 0 -42 4v-87q27 -5 51 -5q153 0 212 168l188 535h-109l-78 -241l-48 -159h-6l-50 159l-84 241h-112z" />
    <glyph glyph-name="z" unicode="z" horiz-adv-x="476" 
d="M435 448v78h-398v-86h273l-272 -363v-77h400v85h-276z" />
    <glyph glyph-name="braceleft" unicode="{" horiz-adv-x="303" 
d="M34 254q30 0 48 -17q18 -18 19 -56v-328q0 -72 72 -72h105v56h-111v341q-1 45 -20 74q-20 28 -53 34v3q33 5 53 33q19 28 20 75v327h111v60h-105q-35 0 -54 -19q-18 -19 -18 -54v-318q0 -74 -67 -74v-65z" />
    <glyph glyph-name="bar" unicode="|" horiz-adv-x="305" 
d="M197 -37v790h-91v-790h91z" />
    <glyph glyph-name="braceright" unicode="}" horiz-adv-x="303" 
d="M269 319q-35 1 -52 21q-16 20 -16 53v318q0 35 -19 54q-18 19 -52 19h-105v-60h109v-327q1 -47 22 -75q20 -28 54 -33v-3q-34 -6 -54 -34q-21 -29 -22 -74v-341h-109v-56h105q71 0 71 72v328q1 38 19 56q19 17 49 17v65z" />
    <glyph glyph-name="asciitilde" unicode="~" horiz-adv-x="384" 
d="M78 277q-2 27 7 42q9 16 29 16q18 0 70 -26q26 -13 48 -19t41 -6q44 -1 73 32t25 107h-55q0 -62 -47 -62q-24 0 -75 25q-49 25 -81 25q-42 1 -69 -31q-26 -31 -22 -103h56z" />
    <glyph glyph-name="uni00A0" unicode="&#xa0;" horiz-adv-x="228" 
 />
    <glyph glyph-name="exclamdown" unicode="&#xa1;" horiz-adv-x="286" 
d="M85 623h116v106h-116v-106zM91 209v-209h105v209l-27 298h-51z" />
    <glyph glyph-name="cent" unicode="&#xa2;" horiz-adv-x="532" 
d="M390 289q-10 -45 -44 -71q-33 -25 -84 -26q-63 0 -98 44q-35 43 -36 125q0 81 35 128q34 46 100 47q49 0 83 -24q33 -24 43 -67h102q-11 73 -61 119q-51 46 -131 56v79h-75v-80q-91 -14 -143 -81q-53 -68 -54 -175q1 -108 53 -175q52 -66 144 -79v-79h75v78q78 10 130 58
q51 47 63 123h-102z" />
    <glyph glyph-name="sterling" unicode="&#xa3;" horiz-adv-x="644" 
d="M494 93h-274v226h229v86h-229v116q1 60 32 92q31 33 83 33q44 0 75 -22t39 -61h104q-9 80 -67 127q-57 47 -149 48q-103 -1 -161 -59q-59 -58 -60 -158v-116h-71v-86h71v-226h-71v-93h541v240h-92v-147z" />
    <glyph glyph-name="currency" unicode="&#xa4;" horiz-adv-x="653" 
d="M138 82l64 76q56 -42 125 -42t127 41l63 -75l59 58l-72 66q45 62 45 134q-1 71 -45 130l71 64l-59 60l-63 -76q-55 39 -126 39q-70 2 -126 -39l-64 76l-59 -60l74 -65q-44 -61 -45 -131q0 -71 45 -132l-75 -66zM199 338q2 61 37 96q35 34 90 35q56 -1 91 -37
q36 -35 37 -94q-1 -59 -36 -96q-36 -37 -91 -39q-56 1 -91 38q-36 36 -37 97v0z" />
    <glyph glyph-name="yen" unicode="&#xa5;" horiz-adv-x="625" 
d="M498 729l-108 -207l-74 -149h-7l-72 149l-108 207h-125l206 -364h-100v-87h149v-60h-149v-87h149v-131h108v131h148v87h-148v60h148v87h-99l205 364h-123z" />
    <glyph glyph-name="brokenbar" unicode="&#xa6;" horiz-adv-x="305" 
d="M197 436v317h-91v-317h91zM197 -39v313h-91v-313h91z" />
    <glyph glyph-name="section" unicode="&#xa7;" horiz-adv-x="519" 
d="M45 360q0 -89 116 -134l116 -44q39 -14 57 -30q17 -17 17 -45q0 -65 -85 -65q-45 0 -72 18t-31 50h-108q6 -70 62 -110q55 -39 147 -40q93 1 147 40t55 111q0 69 -55 103v10q66 33 66 109q0 95 -118 135l-103 41q-18 8 -26 12q-9 4 -23 12q-15 10 -21 23q-7 13 -7 30
q0 61 79 61q43 0 72 -17q28 -18 32 -50h105q-4 68 -58 109t-144 42q-93 -1 -146 -41q-52 -40 -53 -107q0 -67 57 -102v-10q-36 -13 -57 -42t-21 -69v0zM152 387q0 16 6 29t17 23q19 -9 30 -13t15 -6l90 -40q14 -5 22 -10q8 -4 19 -13q12 -8 18 -22q5 -14 5 -32
q0 -30 -19 -50q-11 6 -23 11q-13 6 -18 8l-97 40q-65 26 -65 75v0z" />
    <glyph glyph-name="dieresis" unicode="&#xa8;" horiz-adv-x="396" 
d="M143 738v127h-90v-127h90zM339 738v127h-90v-127h90z" />
    <glyph glyph-name="copyright" unicode="&#xa9;" horiz-adv-x="940" 
d="M471 -60q171 0 291 116q121 117 121 298q-3 182 -122 295q-120 114 -290 114q-171 0 -293 -116q-61 -58 -91 -132t-30 -163q0 -181 121 -297q61 -58 134 -86q73 -29 159 -29v0zM848 354q0 -169 -110 -276q-55 -53 -122 -80t-146 -27q-158 0 -269 107q-55 53 -82 122
q-28 69 -28 152q0 167 111 273q111 107 269 107t267 -106q55 -53 82 -121q28 -68 28 -151v0zM476 130q86 0 144 48q60 50 68 123h-80q-8 -46 -43 -73q-36 -28 -90 -29q-66 1 -103 42q-37 40 -38 111q1 69 38 111q37 41 104 42q54 -1 89 -29q36 -28 43 -74h80q-4 38 -20 70
q-17 31 -47 54q-58 48 -144 48q-98 0 -161 -62t-63 -160t63 -160t160 -62v0z" />
    <glyph glyph-name="ordfeminine" unicode="&#xaa;" horiz-adv-x="437" 
d="M386 418q-25 0 -25 28v141q0 67 -38 104t-113 38q-68 -1 -110 -31q-43 -31 -50 -83h78q12 48 76 48q77 0 77 -68v-16h-94q-67 0 -104 -31q-38 -30 -39 -85q1 -52 33 -82q33 -31 88 -32q43 0 75 19q31 20 44 55h5q-2 -34 16 -53q19 -20 54 -20q23 0 39 6v63q-3 -1 -12 -1
v0zM281 505q-1 -40 -25 -65q-25 -25 -68 -26q-30 0 -47 14q-17 13 -17 38q0 57 74 57h83v-18z" />
    <glyph glyph-name="guillemotleft" unicode="&#xab;" horiz-adv-x="533" 
d="M194 64h90l-109 210l109 208h-90l-121 -208zM393 64h91l-110 210l110 208h-91l-121 -208z" />
    <glyph glyph-name="logicalnot" unicode="&#xac;" horiz-adv-x="627" 
d="M553 151v257h-475v-90h383v-167h92z" />
    <glyph glyph-name="registered" unicode="&#xae;" horiz-adv-x="616" 
d="M307 211q114 0 190 74q76 75 76 190q0 116 -76 189q-76 74 -190 74q-112 0 -189 -74q-75 -73 -75 -189q0 -115 75 -190q77 -74 189 -74v0zM308 243q-97 0 -165 65q-66 65 -66 166q0 102 66 168q68 67 165 67q99 0 165 -66q67 -66 67 -168t-67 -167q-66 -65 -165 -65v0z
M257 351v93h67q36 0 36 -36v-26q0 -22 4 -31h46q-3 9 -3 30v36q0 40 -35 49v1q39 20 39 65q0 33 -21 53t-60 20h-119v-254h46zM257 566h60q46 0 46 -41q0 -44 -48 -44h-58v85z" />
    <glyph glyph-name="macron" unicode="&#xaf;" horiz-adv-x="354" 
d="M337 734v76h-322v-76h322z" />
    <glyph glyph-name="degree" unicode="&#xb0;" horiz-adv-x="418" 
d="M359 585q-1 68 -43 108t-109 41q-65 -1 -105 -41q-41 -41 -42 -108q1 -65 42 -105q40 -41 105 -42q66 0 109 41q43 42 43 106v0zM285 585q-1 -34 -22 -55q-22 -22 -55 -23q-32 1 -53 23q-21 21 -22 55q1 36 22 58q21 21 53 22q33 -1 55 -22q21 -22 22 -58v0z" />
    <glyph glyph-name="plusminus" unicode="&#xb1;" horiz-adv-x="657" 
d="M578 336v91h-202v169h-98v-169h-200v-91h200v-169h98v169h202zM578 0v94h-500v-94h500z" />
    <glyph glyph-name="uni00B2" unicode="&#xb2;" horiz-adv-x="452" 
d="M149 374q17 48 71 89q53 42 104 83q36 30 58 71t23 89q-1 73 -49 118q-49 44 -131 45q-85 -1 -135 -48q-51 -48 -51 -130h88q-2 48 24 75q25 26 71 26q42 0 66 -23q24 -22 24 -64q-4 -62 -57 -108t-112 -91q-39 -31 -65 -79t-27 -108v-19h359v78h-168z" />
    <glyph glyph-name="uni00B3" unicode="&#xb3;" horiz-adv-x="465" 
d="M231 292q43 0 78 11q35 12 61 35q54 46 54 119q0 46 -23 81q-24 36 -69 54v4q41 19 62 50q20 31 20 74q-2 70 -51 109q-50 39 -130 40q-85 0 -138 -49q-51 -48 -48 -127h89q0 46 25 72q25 27 71 27q40 0 65 -21q24 -21 25 -59q0 -39 -26 -62t-76 -24h-40v-73h45
q51 0 79 -24q29 -24 29 -67q-1 -43 -28 -67q-27 -25 -73 -26q-46 0 -72 26t-24 75h-91q-1 -81 48 -129q50 -48 138 -49v0z" />
    <glyph glyph-name="acute" unicode="&#xb4;" horiz-adv-x="432" 
d="M343 833l-46 78l-186 -140l32 -51z" />
    <glyph glyph-name="paragraph" unicode="&#xb6;" horiz-adv-x="677" 
d="M259 729q-94 -1 -149 -50t-56 -137q1 -84 54 -134q52 -49 147 -50v-437h-149v-67h259q144 0 144 145v656h71v74h-321zM336 -79v734h92v-658q0 -39 -15 -57q-16 -19 -52 -19h-25z" />
    <glyph glyph-name="periodcentered" unicode="&#xb7;" horiz-adv-x="294" 
d="M65 282q1 -35 24 -58q23 -24 57 -25q35 1 58 25q24 23 25 58q-1 36 -25 61q-23 24 -58 25q-34 -1 -57 -25t-24 -61v0z" />
    <glyph glyph-name="cedilla" unicode="&#xb8;" horiz-adv-x="524" 
d="M293 4v28h-39l-51 -89v-27q42 12 64 2q21 -9 21 -34q0 -36 -41 -40q-40 -4 -67 21v-54q47 -32 108 -15q61 16 65 85q-1 39 -27 60q-26 20 -61 17z" />
    <glyph glyph-name="uni00B9" unicode="&#xb9;" horiz-adv-x="354" 
d="M174 697v-397h87v562h-82q-2 -43 -36 -70q-34 -26 -89 -27h-23v-68h143z" />
    <glyph glyph-name="ordmasculine" unicode="&#xba;" horiz-adv-x="450" 
d="M44 538q0 -41 13 -75q12 -35 37 -61q50 -52 131 -52q40 0 73 13q32 13 57 39t37 61q13 34 13 75q0 84 -50 137q-50 54 -130 54q-81 0 -131 -53q-50 -52 -50 -138v0zM126 539q1 57 27 89t72 33q46 -1 72 -33q27 -33 27 -88q-1 -56 -27 -89q-27 -33 -72 -34q-46 1 -72 34
q-27 33 -27 88v0z" />
    <glyph glyph-name="guillemotright" unicode="&#xbb;" horiz-adv-x="533" 
d="M142 482h-91l110 -208l-110 -210h91l120 210zM341 482h-92l111 -208l-111 -210h92l120 210z" />
    <glyph glyph-name="onequarter" unicode="&#xbc;" horiz-adv-x="894" 
d="M173 -46h84l410 814h-84zM233 729h-77v-4q0 -78 -82 -78h-45v-65h123v-326h81v473zM819 480h-127l-167 -321v-68h213v-91h81v91h52v73h-52v316zM738 403v-239h-124z" />
    <glyph glyph-name="onehalf" unicode="&#xbd;" horiz-adv-x="909" 
d="M173 -46h84l410 814h-84zM233 729h-77v-4q0 -78 -82 -78h-45v-65h123v-326h81v473zM664 69q16 38 60 73q43 35 84 69q28 25 46 60q17 34 18 74q-1 64 -40 102q-40 38 -110 39q-72 -1 -115 -41t-45 -108l80 -5q0 37 20 60q19 23 55 24q33 0 53 -19q19 -19 19 -52
q-3 -51 -47 -90t-94 -77q-33 -27 -55 -69q-21 -42 -22 -93v-16h299v73h-133z" />
    <glyph glyph-name="threequarters" unicode="&#xbe;" horiz-adv-x="964" 
d="M245 -46h84l410 814h-84zM348 387q0 83 -76 113v5q67 32 67 102q-1 59 -42 93t-109 35q-75 -1 -116 -41q-41 -41 -39 -108h82q0 36 19 57q20 21 54 21q28 0 47 -15q18 -16 19 -46q0 -30 -20 -49q-20 -18 -58 -19h-30v-74h37q37 0 59 -19t23 -53q-1 -31 -21 -50
q-21 -19 -55 -20q-34 0 -54 21t-20 57h-82q0 -68 42 -108t114 -41q69 0 114 39t45 100v0zM890 480h-127l-167 -321v-68h213v-91h81v91h52v73h-52v316zM809 403v-239h-124z" />
    <glyph glyph-name="questiondown" unicode="&#xbf;" horiz-adv-x="583" 
d="M272 729v-120h125v120h-125zM284 529v-110q-103 -3 -166 -62q-63 -58 -63 -150q0 -49 16 -88q17 -40 49 -69q65 -58 177 -58q106 0 172 54t71 150h-103q-4 -54 -40 -83q-35 -30 -98 -30q-64 1 -101 33q-37 33 -38 91q1 61 42 95t114 35q31 0 67 -7v199h-99z" />
    <glyph glyph-name="Agrave" unicode="&#xc0;" horiz-adv-x="677" 
d="M183 968l-46 -77l199 -114l33 52zM673 0l-274 729h-126l-270 -729h113l58 160h323l58 -160h118zM248 362l87 255h5l84 -255l41 -114h-259z" />
    <glyph glyph-name="Aacute" unicode="&#xc1;" horiz-adv-x="677" 
d="M489 967l-186 -140l32 -51l200 113zM673 0l-274 729h-126l-270 -729h113l58 160h323l58 -160h118zM248 362l87 255h5l84 -255l41 -114h-259z" />
    <glyph glyph-name="Acircumflex" unicode="&#xc2;" horiz-adv-x="677" 
d="M442 776l51 49l-123 127h-66l-124 -127l50 -49l106 112zM673 0l-274 729h-126l-270 -729h113l58 160h323l58 -160h118zM248 362l87 255h5l84 -255l41 -114h-259z" />
    <glyph glyph-name="Atilde" unicode="&#xc3;" horiz-adv-x="677" 
d="M269 820q10 1 24 -4q15 -5 35 -16q41 -19 72 -18q63 2 99 81l-44 31q-25 -33 -55 -35q-11 -1 -26 4q-16 5 -36 15q-40 20 -66 19q-31 -2 -56 -22t-44 -58l44 -31q23 33 53 34v0zM673 0l-274 729h-126l-270 -729h113l58 160h323l58 -160h118zM248 362l87 255h5l84 -255
l41 -114h-259z" />
    <glyph glyph-name="Adieresis" unicode="&#xc4;" horiz-adv-x="677" 
d="M192 921v-127h90v127h-90zM388 921v-127h90v127h-90zM673 0l-274 729h-126l-270 -729h113l58 160h323l58 -160h118zM248 362l87 255h5l84 -255l41 -114h-259z" />
    <glyph glyph-name="Aring" unicode="&#xc5;" horiz-adv-x="677" 
d="M673 0l-267 711q45 32 45 92q-1 52 -32 82q-31 29 -83 30q-52 -1 -83 -30q-31 -30 -32 -82q0 -61 45 -92l-263 -711h113l58 160h323l58 -160h118zM282 803q0 27 15 42q15 16 39 16t39 -16q14 -15 14 -42q0 -25 -14 -41q-15 -16 -39 -16t-39 16t-15 41v0zM248 362l87 255
h5l84 -255l41 -114h-259z" />
    <glyph glyph-name="AE" unicode="&#xc6;" horiz-adv-x="963" 
d="M907 729h-660l-244 -729h113l62 193h233v-193h496v97h-387v222h330v91h-330v222h387v97zM205 280l113 352h93v-352h-206z" />
    <glyph glyph-name="Ccedilla" unicode="&#xc7;" horiz-adv-x="752" 
d="M385 87q-105 0 -167 74q-61 75 -61 203q0 127 62 202t168 75q79 -1 133 -40q55 -40 73 -113h113q-16 114 -103 182t-216 68q-77 0 -140 -26q-63 -25 -110 -77q-95 -103 -95 -271q0 -157 84 -259q84 -101 224 -113l-26 -46v-27q42 12 64 2q21 -9 21 -34q0 -36 -41 -40
q-40 -4 -67 21v-54q47 -32 108 -15q61 16 65 85q-1 39 -27 60q-26 20 -61 17l18 29q61 2 112 21q52 18 93 52q83 69 97 180h-113q-16 -73 -69 -114q-54 -41 -139 -42v0z" />
    <glyph glyph-name="Egrave" unicode="&#xc8;" horiz-adv-x="644" 
d="M363 829l-186 139l-46 -77l199 -114zM587 0v97h-383v233h335v92h-335v210h383v97h-492v-729h492z" />
    <glyph glyph-name="Eacute" unicode="&#xc9;" horiz-adv-x="644" 
d="M528 889l-46 78l-186 -140l32 -51zM587 0v97h-383v233h335v92h-335v210h383v97h-492v-729h492z" />
    <glyph glyph-name="Ecircumflex" unicode="&#xca;" horiz-adv-x="644" 
d="M224 776l106 112l106 -112l51 49l-123 127h-66l-124 -127zM587 0v97h-383v233h335v92h-335v210h383v97h-492v-729h492z" />
    <glyph glyph-name="Edieresis" unicode="&#xcb;" horiz-adv-x="644" 
d="M276 794v127h-90v-127h90zM472 794v127h-90v-127h90zM587 0v97h-383v233h335v92h-335v210h383v97h-492v-729h492z" />
    <glyph glyph-name="Igrave" unicode="&#xcc;" horiz-adv-x="299" 
d="M183 829l-186 139l-46 -77l199 -114zM204 729h-109v-729h109v729z" />
    <glyph glyph-name="Iacute" unicode="&#xcd;" horiz-adv-x="299" 
d="M349 889l-46 78l-186 -140l32 -51zM204 729h-109v-729h109v729z" />
    <glyph glyph-name="Icircumflex" unicode="&#xce;" horiz-adv-x="299" 
d="M44 776l106 112l106 -112l51 49l-123 127h-66l-124 -127zM204 729h-109v-729h109v729z" />
    <glyph glyph-name="Idieresis" unicode="&#xcf;" horiz-adv-x="299" 
d="M97 794v127h-90v-127h90zM293 794v127h-90v-127h90zM204 729h-109v-729h109v729z" />
    <glyph glyph-name="Eth" unicode="&#xd0;" horiz-adv-x="748" 
d="M95 729v-308h-88v-89h88v-332h285q155 0 240 99q86 99 86 265t-86 265q-85 100 -240 100h-285zM204 97v235h128v89h-128v211h165q103 0 163 -68q59 -67 60 -199q-1 -129 -59 -198t-164 -70h-165z" />
    <glyph glyph-name="Ntilde" unicode="&#xd1;" horiz-adv-x="791" 
d="M481 782q63 2 99 81l-44 31q-25 -33 -55 -35q-11 -1 -26 4q-16 5 -36 15q-40 20 -66 19q-31 -2 -56 -22t-44 -58l44 -31q23 33 53 34q10 1 24 -4q15 -5 35 -16q41 -19 72 -18v0zM204 0v376l-7 210h5l362 -586h132v729h-108v-368l7 -218h-5l-363 586h-132v-729h109z" />
    <glyph glyph-name="Ograve" unicode="&#xd2;" horiz-adv-x="773" 
d="M419 829l-186 139l-46 -77l199 -114zM42 364q0 -168 93 -271t251 -103q156 0 250 101q94 102 94 274q0 168 -93 270q-93 103 -251 103q-155 0 -250 -102q-94 -102 -94 -272v0zM157 365q0 125 62 200q62 76 167 76q104 0 167 -76q63 -75 63 -201q0 -125 -62 -200
q-61 -75 -168 -75q-105 0 -167 74q-62 75 -62 202v0z" />
    <glyph glyph-name="Oacute" unicode="&#xd3;" horiz-adv-x="773" 
d="M585 889l-46 78l-186 -140l32 -51zM42 364q0 -168 93 -271t251 -103q156 0 250 101q94 102 94 274q0 168 -93 270q-93 103 -251 103q-155 0 -250 -102q-94 -102 -94 -272v0zM157 365q0 125 62 200q62 76 167 76q104 0 167 -76q63 -75 63 -201q0 -125 -62 -200
q-61 -75 -168 -75q-105 0 -167 74q-62 75 -62 202v0z" />
    <glyph glyph-name="Ocircumflex" unicode="&#xd4;" horiz-adv-x="773" 
d="M280 776l106 112l106 -112l51 49l-123 127h-66l-124 -127zM42 364q0 -168 93 -271t251 -103q156 0 250 101q94 102 94 274q0 168 -93 270q-93 103 -251 103q-155 0 -250 -102q-94 -102 -94 -272v0zM157 365q0 125 62 200q62 76 167 76q104 0 167 -76q63 -75 63 -201
q0 -125 -62 -200q-61 -75 -168 -75q-105 0 -167 74q-62 75 -62 202v0z" />
    <glyph glyph-name="Otilde" unicode="&#xd5;" horiz-adv-x="773" 
d="M451 782q63 2 99 81l-44 31q-25 -33 -55 -35q-11 -1 -26 4q-16 5 -36 15q-40 20 -66 19q-31 -2 -56 -22t-44 -58l44 -31q23 33 53 34q10 1 24 -4q15 -5 35 -16q41 -19 72 -18v0zM42 364q0 -168 93 -271t251 -103q156 0 250 101q94 102 94 274q0 168 -93 270
q-93 103 -251 103q-155 0 -250 -102q-94 -102 -94 -272v0zM157 365q0 125 62 200q62 76 167 76q104 0 167 -76q63 -75 63 -201q0 -125 -62 -200q-61 -75 -168 -75q-105 0 -167 74q-62 75 -62 202v0z" />
    <glyph glyph-name="Odieresis" unicode="&#xd6;" horiz-adv-x="773" 
d="M333 794v127h-90v-127h90zM529 794v127h-90v-127h90zM42 364q0 -168 93 -271t251 -103q156 0 250 101q94 102 94 274q0 168 -93 270q-93 103 -251 103q-155 0 -250 -102q-94 -102 -94 -272v0zM157 365q0 125 62 200q62 76 167 76q104 0 167 -76q63 -75 63 -201
q0 -125 -62 -200q-61 -75 -168 -75q-105 0 -167 74q-62 75 -62 202v0z" />
    <glyph glyph-name="multiply" unicode="&#xd7;" horiz-adv-x="717" 
d="M151 18l203 211h10l202 -211l65 68l-207 214l207 215l-65 67l-202 -211h-10l-203 211l-65 -67l207 -215l-207 -214z" />
    <glyph glyph-name="Oslash" unicode="&#xd8;" horiz-adv-x="854" 
d="M754 661l-70 -51q-93 128 -272 128q-156 0 -250 -102t-94 -272q0 -100 35 -180l-61 -45l46 -71l58 43q96 -121 266 -121q156 0 250 101q94 102 94 274q0 95 -30 168l79 58zM183 365q0 125 62 200q62 76 167 76q120 0 183 -97l-397 -290q-15 50 -15 111v0zM642 364
q0 -125 -62 -200q-61 -75 -168 -75q-114 0 -176 87l394 287q12 -45 12 -99v0z" />
    <glyph glyph-name="Ugrave" unicode="&#xd9;" horiz-adv-x="775" 
d="M421 829l-186 139l-46 -77l199 -114zM89 272q0 -129 78 -206q78 -76 220 -76q138 0 218 76q81 77 81 206v457h-108v-448q-1 -91 -51 -141q-51 -49 -139 -50q-89 1 -139 51q-51 49 -52 140v448h-108v-457z" />
    <glyph glyph-name="Uacute" unicode="&#xda;" horiz-adv-x="775" 
d="M586 889l-46 78l-186 -140l32 -51zM89 272q0 -129 78 -206q78 -76 220 -76q138 0 218 76q81 77 81 206v457h-108v-448q-1 -91 -51 -141q-51 -49 -139 -50q-89 1 -139 51q-51 49 -52 140v448h-108v-457z" />
    <glyph glyph-name="Ucircumflex" unicode="&#xdb;" horiz-adv-x="775" 
d="M282 776l106 112l106 -112l51 49l-123 127h-66l-124 -127zM89 272q0 -129 78 -206q78 -76 220 -76q138 0 218 76q81 77 81 206v457h-108v-448q-1 -91 -51 -141q-51 -49 -139 -50q-89 1 -139 51q-51 49 -52 140v448h-108v-457z" />
    <glyph glyph-name="Udieresis" unicode="&#xdc;" horiz-adv-x="775" 
d="M334 794v127h-90v-127h90zM530 794v127h-90v-127h90zM89 272q0 -129 78 -206q78 -76 220 -76q138 0 218 76q81 77 81 206v457h-108v-448q-1 -91 -51 -141q-51 -49 -139 -50q-89 1 -139 51q-51 49 -52 140v448h-108v-457z" />
    <glyph glyph-name="Yacute" unicode="&#xdd;" horiz-adv-x="663" 
d="M531 889l-46 78l-186 -140l32 -51zM277 291v-291h108v291l273 438h-130l-103 -179l-89 -158h-8l-88 158l-105 179h-131z" />
    <glyph glyph-name="Thorn" unicode="&#xde;" horiz-adv-x="671" 
d="M205 610v140h-107v-750h107v139h168q116 0 186 63q71 63 71 171q0 53 -17 97q-17 43 -51 75q-67 65 -183 65h-174zM205 234v278h162q67 -1 109 -37q41 -36 42 -102q-1 -64 -40 -101t-111 -38h-162z" />
    <glyph glyph-name="germandbls" unicode="&#xdf;" horiz-adv-x="598" 
d="M406 410q49 19 75 60q27 40 27 95q0 40 -14 73q-15 32 -44 57q-57 50 -151 50q-99 0 -156 -54t-58 -156v-26h-73v-85h73v-424h102v538q0 55 28 85q28 31 80 31q49 0 79 -28q29 -28 30 -77q0 -48 -28 -78q-28 -29 -79 -30h-14v-82h16q69 0 111 -35q41 -35 42 -99
q-1 -63 -41 -100q-41 -37 -113 -38h-46v-87h57q113 0 180 57q68 59 68 153q0 71 -39 123q-40 52 -112 70v7z" />
    <glyph glyph-name="agrave" unicode="&#xe0;" horiz-adv-x="569" 
d="M307 636l-186 139l-46 -77l199 -114zM39 144q1 -70 48 -111q46 -42 125 -43q62 1 108 26q46 26 63 69h7q2 -92 93 -92q25 0 52 8v76q-6 -2 -18 -2q-31 0 -31 39v231q0 90 -53 140t-155 51q-92 0 -152 -46q-59 -45 -65 -121h100q3 39 33 62q29 23 80 23q110 0 110 -103
v-37h-135q-98 0 -153 -44q-56 -44 -57 -126v0zM144 156q0 87 116 87h124v-25q-1 -65 -39 -104q-39 -40 -105 -41q-45 0 -70 22q-26 21 -26 61v0z" />
    <glyph glyph-name="aacute" unicode="&#xe1;" horiz-adv-x="569" 
d="M473 696l-46 78l-186 -140l32 -51zM39 144q1 -70 48 -111q46 -42 125 -43q62 1 108 26q46 26 63 69h7q2 -92 93 -92q25 0 52 8v76q-6 -2 -18 -2q-31 0 -31 39v231q0 90 -53 140t-155 51q-92 0 -152 -46q-59 -45 -65 -121h100q3 39 33 62q29 23 80 23q110 0 110 -103v-37
h-135q-98 0 -153 -44q-56 -44 -57 -126v0zM144 156q0 87 116 87h124v-25q-1 -65 -39 -104q-39 -40 -105 -41q-45 0 -70 22q-26 21 -26 61v0z" />
    <glyph glyph-name="acircumflex" unicode="&#xe2;" horiz-adv-x="569" 
d="M168 584l106 112l106 -112l51 49l-123 127h-66l-124 -127zM39 144q1 -70 48 -111q46 -42 125 -43q62 1 108 26q46 26 63 69h7q2 -92 93 -92q25 0 52 8v76q-6 -2 -18 -2q-31 0 -31 39v231q0 90 -53 140t-155 51q-92 0 -152 -46q-59 -45 -65 -121h100q3 39 33 62
q29 23 80 23q110 0 110 -103v-37h-135q-98 0 -153 -44q-56 -44 -57 -126v0zM144 156q0 87 116 87h124v-25q-1 -65 -39 -104q-39 -40 -105 -41q-45 0 -70 22q-26 21 -26 61v0z" />
    <glyph glyph-name="atilde" unicode="&#xe3;" horiz-adv-x="569" 
d="M339 590q63 2 99 81l-44 31q-25 -33 -55 -35q-11 -1 -26 4q-16 5 -36 15q-40 20 -66 19q-31 -2 -56 -22t-44 -58l44 -31q23 33 53 34q10 1 24 -4q15 -5 35 -16q41 -19 72 -18v0zM39 144q1 -70 48 -111q46 -42 125 -43q62 1 108 26q46 26 63 69h7q2 -92 93 -92q25 0 52 8
v76q-6 -2 -18 -2q-31 0 -31 39v231q0 90 -53 140t-155 51q-92 0 -152 -46q-59 -45 -65 -121h100q3 39 33 62q29 23 80 23q110 0 110 -103v-37h-135q-98 0 -153 -44q-56 -44 -57 -126v0zM144 156q0 87 116 87h124v-25q-1 -65 -39 -104q-39 -40 -105 -41q-45 0 -70 22
q-26 21 -26 61v0z" />
    <glyph glyph-name="adieresis" unicode="&#xe4;" horiz-adv-x="569" 
d="M221 601v127h-90v-127h90zM417 601v127h-90v-127h90zM39 144q1 -70 48 -111q46 -42 125 -43q62 1 108 26q46 26 63 69h7q2 -92 93 -92q25 0 52 8v76q-6 -2 -18 -2q-31 0 -31 39v231q0 90 -53 140t-155 51q-92 0 -152 -46q-59 -45 -65 -121h100q3 39 33 62q29 23 80 23
q110 0 110 -103v-37h-135q-98 0 -153 -44q-56 -44 -57 -126v0zM144 156q0 87 116 87h124v-25q-1 -65 -39 -104q-39 -40 -105 -41q-45 0 -70 22q-26 21 -26 61v0z" />
    <glyph glyph-name="aring" unicode="&#xe5;" horiz-adv-x="569" 
d="M517 75q-31 0 -31 39v231q0 147 -132 182q35 32 35 84q-1 52 -32 82q-31 29 -83 30q-52 -1 -83 -30q-31 -30 -32 -82q0 -54 37 -86q-60 -18 -95 -58q-36 -41 -40 -98h100q3 39 33 62q29 23 80 23q110 0 110 -103v-37h-135q-98 0 -153 -44q-56 -44 -57 -126q1 -70 48 -111
q46 -42 125 -43q62 1 108 26q46 26 63 69h7q2 -92 93 -92q25 0 52 8v76q-6 -2 -18 -2v0zM220 611q0 27 15 42q15 16 39 16t39 -16q14 -15 14 -42q0 -25 -14 -41q-15 -16 -39 -16t-39 16t-15 41v0zM384 218q-1 -65 -39 -104q-39 -40 -105 -41q-45 0 -70 22q-26 21 -26 61
q0 87 116 87h124v-25z" />
    <glyph glyph-name="ae" unicode="&#xe6;" horiz-adv-x="922" 
d="M785 158q-13 -37 -49 -59t-88 -22q-75 1 -115 44t-38 118h378q4 44 4 57q0 107 -67 173q-66 67 -172 67q-121 0 -186 -84q-55 84 -181 84q-96 -1 -155 -45t-68 -119h102q5 37 36 58q32 22 81 22q55 0 87 -28q31 -28 32 -81v-22h-138q-99 -1 -152 -46q-53 -44 -54 -124
q1 -73 51 -116q50 -44 133 -45q71 0 125 31q54 30 81 84q32 -58 86 -86q53 -29 129 -29q94 1 156 45q63 45 79 123h-97zM638 451q60 -1 98 -36q37 -35 39 -98h-280q4 62 42 97q38 36 101 37v0zM386 223q-1 -67 -38 -106q-37 -40 -103 -41q-45 0 -71 22t-27 62q0 84 112 84
h127v-21z" />
    <glyph glyph-name="ccedilla" unicode="&#xe7;" horiz-adv-x="565" 
d="M424 183q-7 -48 -41 -76q-34 -27 -89 -28q-69 0 -108 47t-40 135q0 86 39 135q38 49 110 50q49 0 83 -24q34 -25 44 -73h104q-7 84 -72 135q-63 52 -157 52q-117 0 -187 -75q-69 -75 -69 -199q0 -112 59 -186q59 -72 158 -84l-28 -49v-27q42 12 64 2q21 -9 21 -34
q0 -36 -41 -40q-40 -4 -67 21v-54q47 -32 108 -15q61 16 65 85q-1 39 -27 60q-26 20 -61 17l20 32q92 6 151 57q58 51 66 136h-105z" />
    <glyph glyph-name="egrave" unicode="&#xe8;" horiz-adv-x="571" 
d="M317 636l-186 139l-46 -77l199 -114zM292 -10q47 0 88 12q40 12 72 35t52 55q20 31 27 69h-103q-10 -40 -46 -64q-35 -23 -89 -24q-70 0 -109 43t-39 124h378q5 28 5 58q-1 109 -63 173t-174 65q-113 0 -182 -75q-68 -75 -68 -200q0 -123 69 -197t182 -74v0zM146 314
q3 64 41 101t102 38q64 0 99 -36q36 -37 36 -103h-278z" />
    <glyph glyph-name="eacute" unicode="&#xe9;" horiz-adv-x="571" 
d="M482 696l-46 78l-186 -140l32 -51zM292 -10q47 0 88 12q40 12 72 35t52 55q20 31 27 69h-103q-10 -40 -46 -64q-35 -23 -89 -24q-70 0 -109 43t-39 124h378q5 28 5 58q-1 109 -63 173t-174 65q-113 0 -182 -75q-68 -75 -68 -200q0 -123 69 -197t182 -74v0zM146 314
q3 64 41 101t102 38q64 0 99 -36q36 -37 36 -103h-278z" />
    <glyph glyph-name="ecircumflex" unicode="&#xea;" horiz-adv-x="571" 
d="M178 584l106 112l106 -112l51 49l-123 127h-66l-124 -127zM292 -10q47 0 88 12q40 12 72 35t52 55q20 31 27 69h-103q-10 -40 -46 -64q-35 -23 -89 -24q-70 0 -109 43t-39 124h378q5 28 5 58q-1 109 -63 173t-174 65q-113 0 -182 -75q-68 -75 -68 -200q0 -123 69 -197
t182 -74v0zM146 314q3 64 41 101t102 38q64 0 99 -36q36 -37 36 -103h-278z" />
    <glyph glyph-name="edieresis" unicode="&#xeb;" horiz-adv-x="571" 
d="M230 601v127h-90v-127h90zM426 601v127h-90v-127h90zM292 -10q47 0 88 12q40 12 72 35t52 55q20 31 27 69h-103q-10 -40 -46 -64q-35 -23 -89 -24q-70 0 -109 43t-39 124h378q5 28 5 58q-1 109 -63 173t-174 65q-113 0 -182 -75q-68 -75 -68 -200q0 -123 69 -197t182 -74
v0zM146 314q3 64 41 101t102 38q64 0 99 -36q36 -37 36 -103h-278z" />
    <glyph glyph-name="igrave" unicode="&#xec;" horiz-adv-x="264" 
d="M166 625l-186 139l-46 -77l199 -114zM184 0v526h-103v-526h103z" />
    <glyph glyph-name="iacute" unicode="&#xed;" horiz-adv-x="264" 
d="M332 685l-46 78l-186 -140l32 -51zM184 0v526h-103v-526h103z" />
    <glyph glyph-name="icircumflex" unicode="&#xee;" horiz-adv-x="264" 
d="M27 573l106 112l106 -112l51 49l-123 127h-66l-124 -127zM184 0v526h-103v-526h103z" />
    <glyph glyph-name="idieresis" unicode="&#xef;" horiz-adv-x="264" 
d="M79 591v127h-90v-127h90zM275 591v127h-90v-127h90zM184 0v526h-103v-526h103z" />
    <glyph glyph-name="eth" unicode="&#xf0;" horiz-adv-x="615" 
d="M48 239q0 -55 18 -99q18 -45 53 -80q72 -70 185 -70q114 0 187 71q73 72 73 183q0 26 -3 49t-13 45q-5 17 -9 28t-13 26q-8 15 -13 24q-5 8 -15 23l-14 21l-15 20l-13 19l-89 119l88 31v76l-131 -48l-58 77h-129l85 -114l-80 -30v-76l125 46l47 -59l43 -43l-3 -2
q-31 12 -65 12q-106 0 -174 -71q-67 -70 -67 -178v0zM305 80q-69 1 -110 46q-40 44 -41 118q1 74 43 118q41 44 109 45q69 -1 110 -46q40 -44 41 -117q-1 -74 -41 -118q-41 -45 -111 -46v0z" />
    <glyph glyph-name="ntilde" unicode="&#xf1;" horiz-adv-x="623" 
d="M403 590q63 2 99 81l-44 31q-25 -33 -55 -35q-11 -1 -26 4q-16 5 -36 15q-40 20 -66 19q-31 -2 -56 -22t-44 -58l44 -31q23 33 53 34q10 1 24 -4q15 -5 35 -16q41 -19 72 -18v0zM184 0v276q1 77 40 123q38 46 105 47q117 0 117 -135v-311h104v321q0 100 -47 157t-135 58
q-60 0 -106 -28q-45 -29 -70 -80h-7l-14 98h-90v-526h103z" />
    <glyph glyph-name="ograve" unicode="&#xf2;" horiz-adv-x="591" 
d="M330 636l-186 139l-46 -77l199 -114zM41 261q0 -120 70 -196q71 -75 185 -75t184 75q35 38 53 87t18 110q0 122 -71 198q-70 76 -184 76t-185 -77q-70 -76 -70 -198v0zM146 262q1 86 41 134q39 49 109 50q70 -1 109 -49q39 -49 40 -134q-1 -86 -40 -134t-109 -49
q-70 1 -110 49q-39 49 -40 133v0z" />
    <glyph glyph-name="oacute" unicode="&#xf3;" horiz-adv-x="591" 
d="M495 696l-46 78l-186 -140l32 -51zM41 261q0 -120 70 -196q71 -75 185 -75t184 75q35 38 53 87t18 110q0 122 -71 198q-70 76 -184 76t-185 -77q-70 -76 -70 -198v0zM146 262q1 86 41 134q39 49 109 50q70 -1 109 -49q39 -49 40 -134q-1 -86 -40 -134t-109 -49
q-70 1 -110 49q-39 49 -40 133v0z" />
    <glyph glyph-name="ocircumflex" unicode="&#xf4;" horiz-adv-x="591" 
d="M191 584l106 112l106 -112l51 49l-123 127h-66l-124 -127zM41 261q0 -120 70 -196q71 -75 185 -75t184 75q35 38 53 87t18 110q0 122 -71 198q-70 76 -184 76t-185 -77q-70 -76 -70 -198v0zM146 262q1 86 41 134q39 49 109 50q70 -1 109 -49q39 -49 40 -134
q-1 -86 -40 -134t-109 -49q-70 1 -110 49q-39 49 -40 133v0z" />
    <glyph glyph-name="otilde" unicode="&#xf5;" horiz-adv-x="591" 
d="M361 590q63 2 99 81l-44 31q-25 -33 -55 -35q-11 -1 -26 4q-16 5 -36 15q-40 20 -66 19q-31 -2 -56 -22t-44 -58l44 -31q23 33 53 34q10 1 24 -4q15 -5 35 -16q41 -19 72 -18v0zM41 261q0 -120 70 -196q71 -75 185 -75t184 75q35 38 53 87t18 110q0 122 -71 198
q-70 76 -184 76t-185 -77q-70 -76 -70 -198v0zM146 262q1 86 41 134q39 49 109 50q70 -1 109 -49q39 -49 40 -134q-1 -86 -40 -134t-109 -49q-70 1 -110 49q-39 49 -40 133v0z" />
    <glyph glyph-name="odieresis" unicode="&#xf6;" horiz-adv-x="591" 
d="M243 601v127h-90v-127h90zM439 601v127h-90v-127h90zM41 261q0 -120 70 -196q71 -75 185 -75t184 75q35 38 53 87t18 110q0 122 -71 198q-70 76 -184 76t-185 -77q-70 -76 -70 -198v0zM146 262q1 86 41 134q39 49 109 50q70 -1 109 -49q39 -49 40 -134q-1 -86 -40 -134
t-109 -49q-70 1 -110 49q-39 49 -40 133v0z" />
    <glyph glyph-name="divide" unicode="&#xf7;" horiz-adv-x="662" 
d="M392 431v130h-127v-130h127zM576 247v91h-492v-91h492zM392 30v129h-127v-129h127z" />
    <glyph glyph-name="oslash" unicode="&#xf8;" horiz-adv-x="630" 
d="M563 491l-56 -41q-72 86 -193 86q-115 0 -186 -77q-70 -76 -70 -198q0 -70 24 -124l-55 -41l40 -59l52 38q72 -85 195 -85q114 0 184 75q35 38 53 87q17 49 17 110q0 68 -23 125l59 43zM164 262q1 86 40 134q39 49 109 50q75 0 114 -55l-257 -189q-6 27 -6 60v0zM462 263
q-1 -86 -40 -134t-109 -49q-73 0 -113 54l256 188q6 -27 6 -59v0z" />
    <glyph glyph-name="ugrave" unicode="&#xf9;" horiz-adv-x="610" 
d="M339 636l-186 139l-46 -77l199 -114zM433 526v-276q-1 -77 -39 -123q-39 -47 -106 -48q-111 0 -111 128v319h-104v-334q1 -97 46 -149t129 -53q63 0 108 28t69 79h8l14 -97h89v526h-103z" />
    <glyph glyph-name="uacute" unicode="&#xfa;" horiz-adv-x="610" 
d="M504 696l-46 78l-186 -140l32 -51zM433 526v-276q-1 -77 -39 -123q-39 -47 -106 -48q-111 0 -111 128v319h-104v-334q1 -97 46 -149t129 -53q63 0 108 28t69 79h8l14 -97h89v526h-103z" />
    <glyph glyph-name="ucircumflex" unicode="&#xfb;" horiz-adv-x="610" 
d="M200 584l106 112l106 -112l51 49l-123 127h-66l-124 -127zM433 526v-276q-1 -77 -39 -123q-39 -47 -106 -48q-111 0 -111 128v319h-104v-334q1 -97 46 -149t129 -53q63 0 108 28t69 79h8l14 -97h89v526h-103z" />
    <glyph glyph-name="udieresis" unicode="&#xfc;" horiz-adv-x="610" 
d="M252 601v127h-90v-127h90zM448 601v127h-90v-127h90zM433 526v-276q-1 -77 -39 -123q-39 -47 -106 -48q-111 0 -111 128v319h-104v-334q1 -97 46 -149t129 -53q63 0 108 28t69 79h8l14 -97h89v526h-103z" />
    <glyph glyph-name="yacute" unicode="&#xfd;" horiz-adv-x="483" 
d="M438 697l-46 78l-186 -140l32 -51zM195 19l-11 -28q-13 -40 -40 -60q-28 -20 -69 -20q-18 0 -42 4v-87q27 -5 51 -5q153 0 212 168l188 535h-109l-78 -241l-48 -159h-6l-50 159l-84 241h-112z" />
    <glyph glyph-name="thorn" unicode="&#xfe;" horiz-adv-x="632" 
d="M81 -167h103v263h7q21 -49 67 -77t110 -29q101 0 162 73q31 37 46 87q16 50 16 112q0 126 -60 200t-162 74q-64 -1 -110 -28q-47 -28 -69 -76h-7v297h-103v-896zM184 294q0 66 44 109t111 43q69 0 108 -47q38 -46 39 -137q0 -85 -39 -133q-38 -49 -110 -50q-68 1 -110 43
q-42 41 -43 109v63z" />
    <glyph glyph-name="ydieresis" unicode="&#xff;" horiz-adv-x="483" 
d="M186 602v127h-90v-127h90zM382 602v127h-90v-127h90zM195 19l-11 -28q-13 -40 -40 -60q-28 -20 -69 -20q-18 0 -42 4v-87q27 -5 51 -5q153 0 212 168l188 535h-109l-78 -241l-48 -159h-6l-50 159l-84 241h-112z" />
    <glyph glyph-name="Amacron" unicode="&#x100;" horiz-adv-x="677" 
d="M175 865v-76h322v76h-322zM673 0l-274 729h-126l-270 -729h113l58 160h323l58 -160h118zM248 362l87 255h5l84 -255l41 -114h-259z" />
    <glyph glyph-name="amacron" unicode="&#x101;" horiz-adv-x="569" 
d="M435 597v76h-322v-76h322zM39 144q1 -70 48 -111q46 -42 125 -43q62 1 108 26q46 26 63 69h7q2 -92 93 -92q25 0 52 8v76q-6 -2 -18 -2q-31 0 -31 39v231q0 90 -53 140t-155 51q-92 0 -152 -46q-59 -45 -65 -121h100q3 39 33 62q29 23 80 23q110 0 110 -103v-37h-135
q-98 0 -153 -44q-56 -44 -57 -126v0zM144 156q0 87 116 87h124v-25q-1 -65 -39 -104q-39 -40 -105 -41q-45 0 -70 22q-26 21 -26 61v0z" />
    <glyph glyph-name="Abreve" unicode="&#x102;" horiz-adv-x="677" 
d="M188 927q1 -67 40 -107t108 -41q69 1 109 41q39 40 40 107h-69q0 -40 -22 -63q-21 -23 -58 -23q-36 0 -58 23q-21 23 -22 63h-68zM673 0l-274 729h-126l-270 -729h113l58 160h323l58 -160h118zM248 362l87 255h5l84 -255l41 -114h-259z" />
    <glyph glyph-name="abreve" unicode="&#x103;" horiz-adv-x="569" 
d="M354 735q0 -40 -22 -63q-21 -23 -58 -23q-36 0 -58 23q-21 23 -22 63h-68q1 -67 40 -107t108 -41q69 1 109 41q39 40 40 107h-69zM39 144q1 -70 48 -111q46 -42 125 -43q62 1 108 26q46 26 63 69h7q2 -92 93 -92q25 0 52 8v76q-6 -2 -18 -2q-31 0 -31 39v231
q0 90 -53 140t-155 51q-92 0 -152 -46q-59 -45 -65 -121h100q3 39 33 62q29 23 80 23q110 0 110 -103v-37h-135q-98 0 -153 -44q-56 -44 -57 -126v0zM144 156q0 87 116 87h124v-25q-1 -65 -39 -104q-39 -40 -105 -41q-45 0 -70 22q-26 21 -26 61v0z" />
    <glyph glyph-name="Aogonek" unicode="&#x104;" horiz-adv-x="677" 
d="M652 -127q-62 0 -62 47q0 59 85 80l-5 9l-271 720h-126l-270 -729h113l58 160h323l58 -160h13q-46 -36 -46 -93q1 -43 30 -68q29 -26 80 -27q22 -1 42 2q20 4 37 11v60q-29 -12 -59 -12v0zM248 362l87 255h5l84 -255l41 -114h-259z" />
    <glyph glyph-name="aogonek" unicode="&#x105;" horiz-adv-x="569" 
d="M517 -127q-62 0 -62 47q0 59 85 80l-5 8v69q-6 -2 -18 -2q-31 0 -31 39v231q0 90 -53 140t-155 51q-92 0 -152 -46q-59 -45 -65 -121h100q3 39 33 62q29 23 80 23q110 0 110 -103v-37h-135q-98 0 -153 -44q-56 -44 -57 -126q1 -70 48 -111q46 -42 125 -43q62 1 108 26
q46 26 63 69h7q1 -32 13 -52q11 -21 33 -31q-49 -38 -49 -95q1 -43 31 -68q29 -26 79 -27q22 -1 42 2q20 4 37 11v60q-28 -12 -59 -12v0zM384 218q-1 -65 -39 -104q-39 -40 -105 -41q-45 0 -70 22q-26 21 -26 61q0 87 116 87h124v-25z" />
    <glyph glyph-name="Cacute" unicode="&#x106;" horiz-adv-x="752" 
d="M577 889l-46 78l-186 -140l32 -51zM593 243q-16 -73 -69 -114q-54 -41 -139 -42q-105 0 -167 74q-61 75 -61 203q0 127 62 202t168 75q79 -1 133 -40q55 -40 73 -113h113q-16 114 -103 182t-216 68q-77 0 -140 -26q-63 -25 -110 -77q-95 -103 -95 -271t94 -271
q95 -103 251 -103q129 0 216 69q88 69 103 184h-113z" />
    <glyph glyph-name="cacute" unicode="&#x107;" horiz-adv-x="565" 
d="M483 696l-46 78l-186 -140l32 -51zM424 183q-7 -48 -41 -76q-34 -27 -89 -28q-69 0 -108 47t-40 135q0 86 39 135q38 49 110 50q49 0 83 -24q34 -25 44 -73h104q-7 84 -72 135q-63 52 -157 52q-117 0 -187 -75q-69 -75 -69 -199q0 -123 69 -198q69 -74 184 -74
q49 0 90 13q41 14 73 40q65 53 72 140h-105z" />
    <glyph glyph-name="Cdotaccent" unicode="&#x10a;" horiz-adv-x="752" 
d="M424 794v127h-91v-127h91zM593 243q-16 -73 -69 -114q-54 -41 -139 -42q-105 0 -167 74q-61 75 -61 203q0 127 62 202t168 75q79 -1 133 -40q55 -40 73 -113h113q-16 114 -103 182t-216 68q-77 0 -140 -26q-63 -25 -110 -77q-95 -103 -95 -271t94 -271q95 -103 251 -103
q129 0 216 69q88 69 103 184h-113z" />
    <glyph glyph-name="cdotaccent" unicode="&#x10b;" horiz-adv-x="565" 
d="M330 601v127h-91v-127h91zM424 183q-7 -48 -41 -76q-34 -27 -89 -28q-69 0 -108 47t-40 135q0 86 39 135q38 49 110 50q49 0 83 -24q34 -25 44 -73h104q-7 84 -72 135q-63 52 -157 52q-117 0 -187 -75q-69 -75 -69 -199q0 -123 69 -198q69 -74 184 -74q49 0 90 13
q41 14 73 40q65 53 72 140h-105z" />
    <glyph glyph-name="Ccaron" unicode="&#x10c;" horiz-adv-x="752" 
d="M345 789h66l123 129l-51 48l-106 -113l-104 113l-52 -48zM593 243q-16 -73 -69 -114q-54 -41 -139 -42q-105 0 -167 74q-61 75 -61 203q0 127 62 202t168 75q79 -1 133 -40q55 -40 73 -113h113q-16 114 -103 182t-216 68q-77 0 -140 -26q-63 -25 -110 -77
q-95 -103 -95 -271t94 -271q95 -103 251 -103q129 0 216 69q88 69 103 184h-113z" />
    <glyph glyph-name="ccaron" unicode="&#x10d;" horiz-adv-x="565" 
d="M251 596h66l123 129l-51 48l-106 -113l-104 113l-52 -48zM424 183q-7 -48 -41 -76q-34 -27 -89 -28q-69 0 -108 47t-40 135q0 86 39 135q38 49 110 50q49 0 83 -24q34 -25 44 -73h104q-7 84 -72 135q-63 52 -157 52q-117 0 -187 -75q-69 -75 -69 -199q0 -123 69 -198
q69 -74 184 -74q49 0 90 13q41 14 73 40q65 53 72 140h-105z" />
    <glyph glyph-name="Dcaron" unicode="&#x10e;" horiz-adv-x="748" 
d="M291 789h66l123 129l-51 48l-106 -113l-104 113l-52 -48zM380 0q155 0 240 99q86 99 86 265t-86 265q-85 100 -240 100h-285v-729h285zM204 632h165q103 0 163 -68q59 -67 60 -199q-1 -129 -59 -198t-164 -70h-165v535z" />
    <glyph glyph-name="dcaron" unicode="&#x10f;" horiz-adv-x="670" 
d="M555 736h-104v-313h-6q-21 52 -67 82t-112 31q-100 0 -162 -75q-61 -75 -61 -202q0 -124 60 -197q60 -72 162 -72q63 0 111 28q47 27 69 75h6l11 -93h93v736zM637 521q57 0 89 26q31 27 32 77v112h-112v-111h59v-4q0 -61 -68 -61v-39zM451 231q0 -66 -44 -109
q-43 -43 -111 -43q-67 0 -108 46q-39 47 -39 134t38 137q39 50 111 50q68 -1 110 -42q42 -42 43 -114v-59z" />
    <glyph glyph-name="Dcroat" unicode="&#x110;" horiz-adv-x="748" 
d="M95 729v-308h-88v-89h88v-332h285q155 0 240 99q86 99 86 265t-86 265q-85 100 -240 100h-285zM204 97v235h128v89h-128v211h165q103 0 163 -68q59 -67 60 -199q-1 -129 -59 -198t-164 -70h-165z" />
    <glyph glyph-name="dcroat" unicode="&#x111;" horiz-adv-x="633" 
d="M553 646v90h-104v-90h-141v-76h141v-147h-7q-21 52 -66 82q-46 30 -112 31q-100 0 -162 -75q-61 -75 -61 -202q0 -124 60 -197q60 -72 162 -72q63 0 111 28q47 27 68 75h7l11 -93h93v570h103v76h-103zM449 231q0 -66 -44 -109q-43 -43 -111 -43q-67 0 -108 46
q-39 47 -39 134t38 137q39 50 111 50q68 -1 110 -42q42 -42 43 -114v-59z" />
    <glyph glyph-name="Emacron" unicode="&#x112;" horiz-adv-x="644" 
d="M490 789v76h-322v-76h322zM587 0v97h-383v233h335v92h-335v210h383v97h-492v-729h492z" />
    <glyph glyph-name="emacron" unicode="&#x113;" horiz-adv-x="571" 
d="M445 597v76h-322v-76h322zM292 -10q47 0 88 12q40 12 72 35t52 55q20 31 27 69h-103q-10 -40 -46 -64q-35 -23 -89 -24q-70 0 -109 43t-39 124h378q5 28 5 58q-1 109 -63 173t-174 65q-113 0 -182 -75q-68 -75 -68 -200q0 -123 69 -197t182 -74v0zM146 314q3 64 41 101
t102 38q64 0 99 -36q36 -37 36 -103h-278z" />
    <glyph glyph-name="Edotaccent" unicode="&#x116;" horiz-adv-x="644" 
d="M375 794v127h-91v-127h91zM587 0v97h-383v233h335v92h-335v210h383v97h-492v-729h492z" />
    <glyph glyph-name="edotaccent" unicode="&#x117;" horiz-adv-x="571" 
d="M330 601v127h-91v-127h91zM292 -10q47 0 88 12q40 12 72 35t52 55q20 31 27 69h-103q-10 -40 -46 -64q-35 -23 -89 -24q-70 0 -109 43t-39 124h378q5 28 5 58q-1 109 -63 173t-174 65q-113 0 -182 -75q-68 -75 -68 -200q0 -123 69 -197t182 -74v0zM146 314q3 64 41 101
t102 38q64 0 99 -36q36 -37 36 -103h-278z" />
    <glyph glyph-name="Eogonek" unicode="&#x118;" horiz-adv-x="644" 
d="M566 -127q-62 0 -62 47q0 59 85 80l-2 3v94h-383v233h335v92h-335v210h383v97h-492v-729h387q-46 -36 -46 -93q1 -43 30 -68q29 -26 80 -27q22 -1 42 2q20 4 37 11v60q-29 -12 -59 -12v0z" />
    <glyph glyph-name="eogonek" unicode="&#x119;" horiz-adv-x="571" 
d="M428 161q-10 -40 -46 -64q-35 -23 -89 -24q-70 0 -109 43t-39 124h378q5 28 5 58q-1 109 -63 173t-174 65q-113 0 -182 -75q-68 -75 -68 -200q0 -112 59 -186q59 -72 159 -83q-37 -37 -37 -85q1 -43 30 -68q29 -26 80 -27q22 -1 42 2q20 4 37 11v60q-29 -12 -59 -12
q-62 0 -62 47q0 59 85 80v1q64 18 105 60t51 100h-103zM289 453q64 0 99 -36q36 -37 36 -103h-278q3 64 41 101t102 38v0z" />
    <glyph glyph-name="Ecaron" unicode="&#x11a;" horiz-adv-x="644" 
d="M296 789h66l123 129l-51 48l-106 -113l-104 113l-52 -48zM587 0v97h-383v233h335v92h-335v210h383v97h-492v-729h492z" />
    <glyph glyph-name="ecaron" unicode="&#x11b;" horiz-adv-x="571" 
d="M251 596h66l123 129l-51 48l-106 -113l-104 113l-52 -48zM292 -10q47 0 88 12q40 12 72 35t52 55q20 31 27 69h-103q-10 -40 -46 -64q-35 -23 -89 -24q-70 0 -109 43t-39 124h378q5 28 5 58q-1 109 -63 173t-174 65q-113 0 -182 -75q-68 -75 -68 -200q0 -123 69 -197
t182 -74v0zM146 314q3 64 41 101t102 38q64 0 99 -36q36 -37 36 -103h-278z" />
    <glyph glyph-name="Gbreve" unicode="&#x11e;" horiz-adv-x="803" 
d="M242 927q1 -67 40 -107t108 -41q69 1 109 41q39 40 40 107h-69q0 -40 -22 -63q-21 -23 -58 -23q-36 0 -58 23q-21 23 -22 63h-68zM353 299h256q-2 -47 -19 -86q-17 -38 -48 -68q-62 -60 -160 -60q-104 0 -164 68q-60 69 -61 203q1 133 61 209q59 75 171 76q75 0 128 -35
q52 -34 69 -97h112q-15 102 -100 165q-85 64 -207 64q-158 0 -254 -105q-95 -103 -95 -276q0 -168 91 -268q91 -99 235 -99q85 1 152 35q66 34 101 95h7l9 -120h89v389h-373v-90z" />
    <glyph glyph-name="gbreve" unicode="&#x11f;" horiz-adv-x="543" 
d="M328 739q0 -40 -22 -63q-21 -23 -58 -23q-36 0 -58 23q-21 23 -22 63h-68q1 -67 40 -107t108 -41q69 1 109 41q39 40 40 107h-69zM32 -56q0 -60 55 -93q56 -33 169 -34q124 0 192 39q67 38 68 117q0 64 -42 99t-120 36h-134q-68 0 -68 43q0 36 40 44q29 -7 69 -7
q90 0 145 47q28 23 41 55q14 31 14 69q0 77 -52 123q9 21 35 35q26 13 62 13v83q-58 -1 -99 -26q-42 -26 -58 -71q-19 10 -42 15q-24 5 -53 5q-90 0 -146 -48t-56 -126q0 -94 76 -139v-7q-33 -10 -52 -33t-19 -56q0 -27 15 -46q14 -19 39 -28v-7q-36 -10 -57 -37
q-22 -28 -22 -65v0zM154 361q0 46 27 73t75 28q48 0 75 -27q27 -26 28 -74q0 -46 -27 -73q-27 -26 -76 -27q-48 0 -75 26t-27 74v0zM126 -38q0 30 20 46q20 17 59 17h136q72 0 72 -56q0 -76 -152 -76q-135 0 -135 69v0z" />
    <glyph glyph-name="Gdotaccent" unicode="&#x120;" horiz-adv-x="803" 
d="M345 921v-127h91v127h-91zM353 299h256q-2 -47 -19 -86q-17 -38 -48 -68q-62 -60 -160 -60q-104 0 -164 68q-60 69 -61 203q1 133 61 209q59 75 171 76q75 0 128 -35q52 -34 69 -97h112q-15 102 -100 165q-85 64 -207 64q-158 0 -254 -105q-95 -103 -95 -276
q0 -168 91 -268q91 -99 235 -99q85 1 152 35q66 34 101 95h7l9 -120h89v389h-373v-90z" />
    <glyph glyph-name="gdotaccent" unicode="&#x121;" horiz-adv-x="543" 
d="M294 605v127h-91v-127h91zM32 -56q0 -60 55 -93q56 -33 169 -34q124 0 192 39q67 38 68 117q0 64 -42 99t-120 36h-134q-68 0 -68 43q0 36 40 44q29 -7 69 -7q90 0 145 47q28 23 41 55q14 31 14 69q0 77 -52 123q9 21 35 35q26 13 62 13v83q-58 -1 -99 -26
q-42 -26 -58 -71q-19 10 -42 15q-24 5 -53 5q-90 0 -146 -48t-56 -126q0 -94 76 -139v-7q-33 -10 -52 -33t-19 -56q0 -27 15 -46q14 -19 39 -28v-7q-36 -10 -57 -37q-22 -28 -22 -65v0zM154 361q0 46 27 73t75 28q48 0 75 -27q27 -26 28 -74q0 -46 -27 -73q-27 -26 -76 -27
q-48 0 -75 26t-27 74v0zM126 -38q0 30 20 46q20 17 59 17h136q72 0 72 -56q0 -76 -152 -76q-135 0 -135 69v0z" />
    <glyph glyph-name="uni0122" unicode="&#x122;" horiz-adv-x="803" 
d="M353 299h256q-2 -47 -19 -86q-17 -38 -48 -68q-62 -60 -160 -60q-104 0 -164 68q-60 69 -61 203q1 133 61 209q59 75 171 76q75 0 128 -35q52 -34 69 -97h112q-15 102 -100 165q-85 64 -207 64q-158 0 -254 -105q-95 -103 -95 -276q0 -168 91 -268q91 -99 235 -99
q85 1 152 35q66 34 101 95h7l9 -120h89v389h-373v-90zM392 -164v-9q0 -44 -47 -44v-32q92 0 92 86v104h-95v-105h50z" />
    <glyph glyph-name="uni0123" unicode="&#x123;" horiz-adv-x="543" 
d="M293 812q-92 0 -92 -86v-120h95v105h-50v24q0 45 47 45v32zM32 -56q0 -60 55 -93q56 -33 169 -34q124 0 192 39q67 38 68 117q0 64 -42 99t-120 36h-134q-68 0 -68 43q0 36 40 44q29 -7 69 -7q90 0 145 47q28 23 41 55q14 31 14 69q0 77 -52 123q9 21 35 35q26 13 62 13
v83q-58 -1 -99 -26q-42 -26 -58 -71q-19 10 -42 15q-24 5 -53 5q-90 0 -146 -48t-56 -126q0 -94 76 -139v-7q-33 -10 -52 -33t-19 -56q0 -27 15 -46q14 -19 39 -28v-7q-36 -10 -57 -37q-22 -28 -22 -65v0zM154 361q0 46 27 73t75 28q48 0 75 -27q27 -26 28 -74
q0 -46 -27 -73q-27 -26 -76 -27q-48 0 -75 26t-27 74v0zM126 -38q0 30 20 46q20 17 59 17h136q72 0 72 -56q0 -76 -152 -76q-135 0 -135 69v0z" />
    <glyph glyph-name="Hbar" unicode="&#x126;" horiz-adv-x="803" 
d="M708 638v91h-109v-91h-395v91h-109v-91h-69v-84h69v-554h109v327h395v-327h109v554h91v84h-91zM204 418v136h395v-136h-395z" />
    <glyph glyph-name="hbar" unicode="&#x127;" horiz-adv-x="623" 
d="M367 536q-60 0 -105 -28q-46 -27 -71 -78h-7v140h154v76h-154v90h-103v-90h-90v-76h90v-570h103v279q1 76 40 121q38 45 105 46q116 0 116 -134v-312h104v322q0 100 -47 157q-47 56 -135 57v0z" />
    <glyph glyph-name="Imacron" unicode="&#x12a;" horiz-adv-x="299" 
d="M311 789v76h-322v-76h322zM204 729h-109v-729h109v729z" />
    <glyph glyph-name="imacron" unicode="&#x12b;" horiz-adv-x="264" 
d="M294 586v76h-322v-76h322zM184 0v526h-103v-526h103z" />
    <glyph glyph-name="Iogonek" unicode="&#x12e;" horiz-adv-x="299" 
d="M175 -127q-62 0 -62 47q0 59 85 80h6v729h-109v-726q-50 -39 -50 -96q1 -43 31 -68q29 -26 79 -27q22 -1 42 2q20 4 37 11v60q-28 -12 -59 -12v0z" />
    <glyph glyph-name="iogonek" unicode="&#x12f;" horiz-adv-x="264" 
d="M88 718v-127h91v127h-91zM162 -127q-62 0 -62 47q0 59 85 80l-1 2v524h-103v-524q-49 -36 -49 -95q1 -43 30 -68q29 -26 80 -27q22 -1 42 2q20 4 37 11v60q-28 -12 -59 -12v0z" />
    <glyph glyph-name="Idotaccent" unicode="&#x130;" horiz-adv-x="299" 
d="M202 794v127h-103v-127h103zM204 729h-109v-729h109v729z" />
    <glyph glyph-name="dotlessi" unicode="&#x131;" horiz-adv-x="264" 
d="M184 0v526h-103v-526h103z" />
    <glyph glyph-name="Jcircumflex" unicode="&#x134;" horiz-adv-x="399" 
d="M149 776l106 112l106 -112l51 49l-123 127h-66l-124 -127zM309 729h-108v-517q0 -124 -112 -124q-46 0 -73 6v-94q27 -8 87 -8q206 0 206 211v526z" />
    <glyph glyph-name="jcircumflex" unicode="&#x135;" horiz-adv-x="268" 
d="M31 573l106 112l106 -112l51 49l-123 127h-66l-124 -127zM35 -176q77 1 115 42q37 42 37 117v543h-103v-536q1 -41 -17 -62q-17 -20 -61 -20q-8 0 -15 1t-14 3v-83q16 -2 31 -4q14 -1 27 -1v0z" />
    <glyph glyph-name="uni0136" unicode="&#x136;" horiz-adv-x="685" 
d="M671 729h-130l-337 -409v409h-109v-729h109v169l130 156l217 -325h130l-275 412zM363 -164v-9q0 -44 -47 -44v-32q92 0 92 86v104h-95v-105h50z" />
    <glyph glyph-name="uni0137" unicode="&#x137;" horiz-adv-x="568" 
d="M543 526h-131l-227 -235v445h-104v-736h104v161l85 87l164 -248h119l-212 320zM335 -164v-9q0 -44 -47 -44v-32q92 0 92 86v104h-95v-105h50z" />
    <glyph glyph-name="Lacute" unicode="&#x139;" horiz-adv-x="570" 
d="M406 889l-46 78l-186 -140l32 -51zM535 0v100h-331v629h-109v-729h440z" />
    <glyph glyph-name="lacute" unicode="&#x13a;" horiz-adv-x="264" 
d="M332 896l-46 78l-186 -140l32 -51zM183 0v736h-102v-736h102z" />
    <glyph glyph-name="uni013B" unicode="&#x13b;" horiz-adv-x="570" 
d="M535 0v100h-331v629h-109v-729h440zM271 -249q92 0 92 86v104h-95v-105h50v-9q0 -44 -47 -44v-32z" />
    <glyph glyph-name="uni013C" unicode="&#x13c;" horiz-adv-x="264" 
d="M183 0v736h-102v-736h102zM89 -249q92 0 92 86v104h-95v-105h50v-9q0 -44 -47 -44v-32z" />
    <glyph glyph-name="Lcaron" unicode="&#x13d;" horiz-adv-x="579" 
d="M539 0v100h-331v629h-109v-729h440zM326 479q57 0 90 29q32 29 33 81v140h-113v-121h60v-19q0 -67 -70 -67v-43z" />
    <glyph glyph-name="lcaron" unicode="&#x13e;" horiz-adv-x="264" 
d="M100 796h66l123 129l-51 48l-106 -113l-104 113l-52 -48zM183 0v736h-102v-736h102z" />
    <glyph glyph-name="Ldot" unicode="&#x13f;" horiz-adv-x="601" 
d="M535 0v100h-331v629h-109v-729h440zM317 400q1 -33 22 -55q21 -21 53 -22q32 1 53 23q22 22 23 54q-1 33 -23 56q-21 22 -53 23q-32 -1 -53 -23t-22 -56v0z" />
    <glyph glyph-name="ldot" unicode="&#x140;" horiz-adv-x="426" 
d="M183 0v736h-102v-736h102zM269 378q1 -33 22 -55q21 -21 53 -22q51 1 71 48q19 46 -17 84q-38 37 -83 18q-45 -20 -46 -73v0z" />
    <glyph glyph-name="Lslash" unicode="&#x141;" horiz-adv-x="566" 
d="M200 365l187 66v95l-187 -66v269h-109v-308l-67 -24v-95l67 24v-326h440v100h-331v265z" />
    <glyph glyph-name="lslash" unicode="&#x142;" horiz-adv-x="272" 
d="M187 501v235h-103v-273l-66 -25v-95l66 25v-368h103v406l67 25v95z" />
    <glyph glyph-name="Nacute" unicode="&#x143;" horiz-adv-x="791" 
d="M615 889l-46 78l-186 -140l32 -51zM204 0v376l-7 210h5l362 -586h132v729h-108v-368l7 -218h-5l-363 586h-132v-729h109z" />
    <glyph glyph-name="nacute" unicode="&#x144;" horiz-adv-x="623" 
d="M537 696l-46 78l-186 -140l32 -51zM184 0v276q1 77 40 123q38 46 105 47q117 0 117 -135v-311h104v321q0 100 -47 157t-135 58q-60 0 -106 -28q-45 -29 -70 -80h-7l-14 98h-90v-526h103z" />
    <glyph glyph-name="uni0145" unicode="&#x145;" horiz-adv-x="791" 
d="M204 0v376l-7 210h5l362 -586h132v729h-108v-368l7 -218h-5l-363 586h-132v-729h109zM372 -249q92 0 92 86v104h-95v-105h50v-9q0 -44 -47 -44v-32z" />
    <glyph glyph-name="uni0146" unicode="&#x146;" horiz-adv-x="623" 
d="M184 0v276q1 77 40 123q38 46 105 47q117 0 117 -135v-311h104v321q0 100 -47 157t-135 58q-60 0 -106 -28q-45 -29 -70 -80h-7l-14 98h-90v-526h103zM270 -249q92 0 92 86v104h-95v-105h50v-9q0 -44 -47 -44v-32z" />
    <glyph glyph-name="Ncaron" unicode="&#x147;" horiz-adv-x="791" 
d="M383 789h66l123 129l-51 48l-106 -113l-104 113l-52 -48zM204 0v376l-7 210h5l362 -586h132v729h-108v-368l7 -218h-5l-363 586h-132v-729h109z" />
    <glyph glyph-name="ncaron" unicode="&#x148;" horiz-adv-x="623" 
d="M305 596h66l123 129l-51 48l-106 -113l-104 113l-52 -48zM184 0v276q1 77 40 123q38 46 105 47q117 0 117 -135v-311h104v321q0 100 -47 157t-135 58q-60 0 -106 -28q-45 -29 -70 -80h-7l-14 98h-90v-526h103z" />
    <glyph glyph-name="Eng" unicode="&#x14a;" horiz-adv-x="791" 
d="M588 361l7 -218h-5l-363 586h-132v-729h109v376l-7 210h5l362 -586h24v-23q0 -71 -69 -71q-16 0 -34 3v-71q32 -7 63 -7q70 0 109 34q38 34 39 100v764h-108v-368z" />
    <glyph glyph-name="eng" unicode="&#x14b;" horiz-adv-x="623" 
d="M368 536q-60 0 -106 -28q-45 -29 -70 -80h-7l-14 98h-90v-526h103v276q1 77 40 123q38 46 105 47q117 0 117 -135v-321q0 -19 -1 -30t-7 -25q-6 -15 -21 -22q-16 -7 -42 -7q-12 0 -36 3v-78q21 -6 62 -6q69 0 109 36q39 36 40 104v356q0 100 -47 157t-135 58v0z" />
    <glyph glyph-name="Omacron" unicode="&#x14c;" horiz-adv-x="773" 
d="M547 789v76h-322v-76h322zM42 364q0 -168 93 -271t251 -103q156 0 250 101q94 102 94 274q0 168 -93 270q-93 103 -251 103q-155 0 -250 -102q-94 -102 -94 -272v0zM157 365q0 125 62 200q62 76 167 76q104 0 167 -76q63 -75 63 -201q0 -125 -62 -200q-61 -75 -168 -75
q-105 0 -167 74q-62 75 -62 202v0z" />
    <glyph glyph-name="omacron" unicode="&#x14d;" horiz-adv-x="591" 
d="M457 597v76h-322v-76h322zM41 261q0 -120 70 -196q71 -75 185 -75t184 75q35 38 53 87t18 110q0 122 -71 198q-70 76 -184 76t-185 -77q-70 -76 -70 -198v0zM146 262q1 86 41 134q39 49 109 50q70 -1 109 -49q39 -49 40 -134q-1 -86 -40 -134t-109 -49q-70 1 -110 49
q-39 49 -40 133v0z" />
    <glyph glyph-name="Ohungarumlaut" unicode="&#x150;" horiz-adv-x="773" 
d="M476 891l-47 76l-183 -140l33 -50zM692 891l-48 76l-182 -140l32 -50zM42 364q0 -168 93 -271t251 -103q156 0 250 101q94 102 94 274q0 168 -93 270q-93 103 -251 103q-155 0 -250 -102q-94 -102 -94 -272v0zM157 365q0 125 62 200q62 76 167 76q104 0 167 -76
q63 -75 63 -201q0 -125 -62 -200q-61 -75 -168 -75q-105 0 -167 74q-62 75 -62 202v0z" />
    <glyph glyph-name="ohungarumlaut" unicode="&#x151;" horiz-adv-x="591" 
d="M386 698l-47 76l-183 -140l33 -50zM602 698l-48 76l-182 -140l32 -50zM41 261q0 -120 70 -196q71 -75 185 -75t184 75q35 38 53 87t18 110q0 122 -71 198q-70 76 -184 76t-185 -77q-70 -76 -70 -198v0zM146 262q1 86 41 134q39 49 109 50q70 -1 109 -49q39 -49 40 -134
q-1 -86 -40 -134t-109 -49q-70 1 -110 49q-39 49 -40 133v0z" />
    <glyph glyph-name="OE" unicode="&#x152;" horiz-adv-x="960" 
d="M42 365q0 -163 98 -264q99 -101 259 -101h505v99h-359v220h262v91h-262v222h359v97h-505q-160 0 -259 -101q-98 -101 -98 -263v0zM399 99q-55 0 -98 19q-44 18 -78 55q-66 74 -66 192q0 119 66 192q34 37 78 55q43 19 98 19h39v-532h-39z" />
    <glyph glyph-name="oe" unicode="&#x153;" horiz-adv-x="988" 
d="M845 161q-10 -40 -46 -64q-35 -23 -89 -24q-70 0 -109 43t-39 124h378q5 28 5 58q-1 109 -63 173t-174 65q-136 0 -204 -105q-72 105 -208 105q-114 0 -185 -77q-70 -76 -70 -198q0 -120 70 -196q71 -75 185 -75q136 0 208 104q34 -52 85 -78q52 -26 120 -26q47 0 88 12
q40 12 72 35t52 55q20 31 27 69h-103zM706 453q64 0 99 -36q36 -37 36 -103h-278q3 64 41 101t102 38v0zM296 80q-70 1 -110 49q-39 49 -40 133q1 86 41 134q39 49 109 50q70 -1 109 -49q39 -49 40 -134q-1 -86 -40 -134t-109 -49v0z" />
    <glyph glyph-name="Racute" unicode="&#x154;" horiz-adv-x="718" 
d="M568 889l-46 78l-186 -140l32 -51zM204 0v278h217q61 0 86 -26t24 -82v-82q0 -66 11 -88h111q-11 27 -11 82v108q0 119 -104 141v7q55 25 86 72q30 47 31 110q0 98 -59 153q-58 55 -170 56h-331v-729h109zM204 633h197q139 0 139 -126q-1 -61 -41 -96q-40 -36 -111 -37
h-184v259z" />
    <glyph glyph-name="racute" unicode="&#x155;" horiz-adv-x="370" 
d="M413 696l-46 78l-186 -140l32 -51zM184 0v238q0 99 44 151t131 53v92q-126 0 -169 -113h-6l-13 105h-90v-526h103z" />
    <glyph glyph-name="uni0156" unicode="&#x156;" horiz-adv-x="718" 
d="M204 0v278h217q61 0 86 -26t24 -82v-82q0 -66 11 -88h111q-11 27 -11 82v108q0 119 -104 141v7q55 25 86 72q30 47 31 110q0 98 -59 153q-58 55 -170 56h-331v-729h109zM204 633h197q139 0 139 -126q-1 -61 -41 -96q-40 -36 -111 -37h-184v259zM339 -249q92 0 92 86v104
h-95v-105h50v-9q0 -44 -47 -44v-32z" />
    <glyph glyph-name="uni0157" unicode="&#x157;" horiz-adv-x="370" 
d="M184 0v238q0 99 44 151t131 53v92q-126 0 -169 -113h-6l-13 105h-90v-526h103zM88 -249q92 0 92 86v104h-95v-105h50v-9q0 -44 -47 -44v-32z" />
    <glyph glyph-name="Rcaron" unicode="&#x158;" horiz-adv-x="718" 
d="M336 789h66l123 129l-51 48l-106 -113l-104 113l-52 -48zM204 0v278h217q61 0 86 -26t24 -82v-82q0 -66 11 -88h111q-11 27 -11 82v108q0 119 -104 141v7q55 25 86 72q30 47 31 110q0 98 -59 153q-58 55 -170 56h-331v-729h109zM204 633h197q139 0 139 -126
q-1 -61 -41 -96q-40 -36 -111 -37h-184v259z" />
    <glyph glyph-name="rcaron" unicode="&#x159;" horiz-adv-x="370" 
d="M181 596h66l123 129l-51 48l-106 -113l-104 113l-52 -48zM184 0v238q0 99 44 151t131 53v92q-126 0 -169 -113h-6l-13 105h-90v-526h103z" />
    <glyph glyph-name="Sacute" unicode="&#x15a;" horiz-adv-x="673" 
d="M531 889l-46 78l-186 -140l32 -51zM44 226q1 -53 20 -96q19 -44 57 -76t92 -48q53 -16 123 -16q131 1 206 58t76 163q0 47 -16 84q-17 36 -46 59q-29 24 -60 37q-32 14 -70 22l-129 26q-25 5 -40 11q-14 5 -37 16q-23 12 -35 32q-11 20 -11 47q0 49 38 77t107 29
q73 0 115 -31q43 -32 47 -94h112q-3 98 -73 155t-195 58q-120 0 -193 -57q-72 -57 -72 -152q4 -66 32 -105t73 -58q32 -14 53 -19q21 -6 47 -11l129 -28q19 -5 32 -10t33 -16q22 -11 33 -32t11 -50q-1 -57 -44 -90q-44 -32 -123 -33q-174 0 -180 148h-112z" />
    <glyph glyph-name="sacute" unicode="&#x15b;" horiz-adv-x="517" 
d="M459 696l-46 78l-186 -140l32 -51zM41 161q1 -78 59 -124q57 -46 161 -47q98 1 155 43q58 43 59 118q0 123 -140 148l-100 18q-80 11 -80 68q0 34 26 53q25 20 73 20q104 0 107 -84h100q-3 74 -56 117q-54 44 -150 45q-94 -1 -148 -43q-55 -42 -56 -118q0 -116 144 -142
l107 -20q28 -5 47 -19q18 -15 19 -47q0 -37 -28 -58t-79 -21q-57 0 -88 25t-31 68h-101z" />
    <glyph glyph-name="Scedilla" unicode="&#x15e;" horiz-adv-x="673" 
d="M618 211q0 47 -16 84q-17 36 -46 59q-29 24 -60 37q-32 14 -70 22l-129 26q-25 5 -40 11q-14 5 -37 16q-23 12 -35 32q-11 20 -11 47q0 49 38 77t107 29q73 0 115 -31q43 -32 47 -94h112q-3 98 -73 155t-195 58q-120 0 -193 -57q-72 -57 -72 -152q4 -66 32 -105t73 -58
q32 -14 53 -19q21 -6 47 -11l129 -28q19 -5 32 -10t33 -16q22 -11 33 -32t11 -50q-1 -57 -44 -90q-44 -32 -123 -33q-174 0 -180 148h-112q3 -103 71 -165q67 -63 194 -70l-27 -48v-27q42 12 64 2q21 -9 21 -34q0 -36 -41 -40q-40 -4 -67 21v-54q47 -32 108 -15q61 16 65 85
q-1 39 -27 60q-26 20 -61 17l20 33q118 7 186 64q67 56 68 156v0z" />
    <glyph glyph-name="scedilla" unicode="&#x15f;" horiz-adv-x="517" 
d="M475 151q0 123 -140 148l-100 18q-80 11 -80 68q0 34 26 53q25 20 73 20q104 0 107 -84h100q-3 74 -56 117q-54 44 -150 45q-94 -1 -148 -43q-55 -42 -56 -118q0 -116 144 -142l107 -20q28 -5 47 -19q18 -15 19 -47q0 -37 -28 -58t-79 -21q-57 0 -88 25t-31 68h-101
q1 -71 49 -116t136 -53l-24 -42v-27q42 12 64 2q21 -9 21 -34q0 -36 -41 -40q-40 -4 -67 21v-54q47 -32 108 -15q61 16 65 85q-1 39 -27 60q-26 20 -61 17l15 25q91 6 143 48q52 43 53 113v0z" />
    <glyph glyph-name="Scaron" unicode="&#x160;" horiz-adv-x="673" 
d="M299 789h66l123 129l-51 48l-106 -113l-104 113l-52 -48zM44 226q1 -53 20 -96q19 -44 57 -76t92 -48q53 -16 123 -16q131 1 206 58t76 163q0 47 -16 84q-17 36 -46 59q-29 24 -60 37q-32 14 -70 22l-129 26q-25 5 -40 11q-14 5 -37 16q-23 12 -35 32q-11 20 -11 47
q0 49 38 77t107 29q73 0 115 -31q43 -32 47 -94h112q-3 98 -73 155t-195 58q-120 0 -193 -57q-72 -57 -72 -152q4 -66 32 -105t73 -58q32 -14 53 -19q21 -6 47 -11l129 -28q19 -5 32 -10t33 -16q22 -11 33 -32t11 -50q-1 -57 -44 -90q-44 -32 -123 -33q-174 0 -180 148h-112
z" />
    <glyph glyph-name="scaron" unicode="&#x161;" horiz-adv-x="517" 
d="M227 596h66l123 129l-51 48l-106 -113l-104 113l-52 -48zM41 161q1 -78 59 -124q57 -46 161 -47q98 1 155 43q58 43 59 118q0 123 -140 148l-100 18q-80 11 -80 68q0 34 26 53q25 20 73 20q104 0 107 -84h100q-3 74 -56 117q-54 44 -150 45q-94 -1 -148 -43
q-55 -42 -56 -118q0 -116 144 -142l107 -20q28 -5 47 -19q18 -15 19 -47q0 -37 -28 -58t-79 -21q-57 0 -88 25t-31 68h-101z" />
    <glyph glyph-name="uni0162" unicode="&#x162;" horiz-adv-x="560" 
d="M334 631h220v98h-548v-98h220v-631h29l-33 -57v-27q42 12 64 2q21 -9 21 -34q0 -36 -41 -40q-40 -4 -67 21v-54q47 -32 108 -15q61 16 65 85q-1 39 -27 60q-26 20 -61 17l26 42h24v631z" />
    <glyph glyph-name="uni0163" unicode="&#x163;" horiz-adv-x="351" 
d="M320 526h-116v191l-104 -40v-151h-88v-86h88v-293q0 -127 96 -150l-29 -51v-27q42 12 64 2q21 -9 21 -34q0 -36 -41 -40q-40 -4 -67 21v-54q47 -32 108 -15q61 16 65 85q-1 39 -27 60q-26 20 -61 17l19 31q38 0 72 8v84q-15 -5 -46 -5q-42 0 -56 21q-15 21 -14 58v282
h116v86z" />
    <glyph glyph-name="Tcaron" unicode="&#x164;" horiz-adv-x="560" 
d="M437 918l-51 48l-106 -113l-104 113l-52 -48l124 -129h66zM6 729v-98h220v-631h108v631h220v98h-548z" />
    <glyph glyph-name="tcaron" unicode="&#x165;" horiz-adv-x="351" 
d="M121 749h66l123 129l-51 48l-106 -113l-104 113l-52 -48zM12 440h88v-293q0 -155 147 -155q19 0 37 2q19 2 36 6v84q-15 -5 -46 -5q-42 0 -56 21q-15 21 -14 58v282h116v86h-116v191l-104 -40v-151h-88v-86z" />
    <glyph glyph-name="Tbar" unicode="&#x166;" horiz-adv-x="560" 
d="M554 729h-548v-98h220v-200h-159v-92h159v-339h108v339h169v92h-169v200h220v98z" />
    <glyph glyph-name="tbar" unicode="&#x167;" horiz-adv-x="351" 
d="M324 332h-120v108h116v86h-116v191l-104 -40v-151h-88v-86h88v-108h-89v-84h89v-101q0 -155 147 -155q19 0 37 2q19 2 36 6v84q-15 -5 -46 -5q-42 0 -56 21q-15 21 -14 58v90h120v84z" />
    <glyph glyph-name="Umacron" unicode="&#x16a;" horiz-adv-x="775" 
d="M549 789v76h-322v-76h322zM89 272q0 -129 78 -206q78 -76 220 -76q138 0 218 76q81 77 81 206v457h-108v-448q-1 -91 -51 -141q-51 -49 -139 -50q-89 1 -139 51q-51 49 -52 140v448h-108v-457z" />
    <glyph glyph-name="umacron" unicode="&#x16b;" horiz-adv-x="610" 
d="M466 597v76h-322v-76h322zM433 526v-276q-1 -77 -39 -123q-39 -47 -106 -48q-111 0 -111 128v319h-104v-334q1 -97 46 -149t129 -53q63 0 108 28t69 79h8l14 -97h89v526h-103z" />
    <glyph glyph-name="Uring" unicode="&#x16e;" horiz-adv-x="775" 
d="M503 803q-1 52 -32 82q-31 29 -83 30q-52 -1 -83 -30q-31 -30 -32 -82q1 -51 32 -81t83 -31q52 1 83 31t32 81v0zM441 803q0 -25 -14 -41q-15 -16 -39 -16t-39 16t-15 41q0 27 15 42q15 16 39 16t39 -16q14 -15 14 -42v0zM89 272q0 -129 78 -206q78 -76 220 -76
q138 0 218 76q81 77 81 206v457h-108v-448q-1 -91 -51 -141q-51 -49 -139 -50q-89 1 -139 51q-51 49 -52 140v448h-108v-457z" />
    <glyph glyph-name="uring" unicode="&#x16f;" horiz-adv-x="610" 
d="M420 611q-1 52 -32 82q-31 29 -83 30q-52 -1 -83 -30q-31 -30 -32 -82q1 -51 32 -81t83 -31q52 1 83 31t32 81v0zM358 611q0 -25 -14 -41q-15 -16 -39 -16t-39 16t-15 41q0 27 15 42q15 16 39 16t39 -16q14 -15 14 -42v0zM433 526v-276q-1 -77 -39 -123q-39 -47 -106 -48
q-111 0 -111 128v319h-104v-334q1 -97 46 -149t129 -53q63 0 108 28t69 79h8l14 -97h89v526h-103z" />
    <glyph glyph-name="Uhungarumlaut" unicode="&#x170;" horiz-adv-x="775" 
d="M478 891l-47 76l-183 -140l33 -50zM694 891l-48 76l-182 -140l32 -50zM89 272q0 -129 78 -206q78 -76 220 -76q138 0 218 76q81 77 81 206v457h-108v-448q-1 -91 -51 -141q-51 -49 -139 -50q-89 1 -139 51q-51 49 -52 140v448h-108v-457z" />
    <glyph glyph-name="uhungarumlaut" unicode="&#x171;" horiz-adv-x="610" 
d="M396 698l-47 76l-183 -140l33 -50zM612 698l-48 76l-182 -140l32 -50zM433 526v-276q-1 -77 -39 -123q-39 -47 -106 -48q-111 0 -111 128v319h-104v-334q1 -97 46 -149t129 -53q63 0 108 28t69 79h8l14 -97h89v526h-103z" />
    <glyph glyph-name="Uogonek" unicode="&#x172;" horiz-adv-x="775" 
d="M578 281q-1 -91 -51 -141q-51 -49 -139 -50q-89 1 -139 51q-51 49 -52 140v448h-108v-457q1 -122 69 -196t195 -85q-36 -34 -36 -84q1 -43 30 -68q29 -26 80 -27q22 -1 42 2q20 4 37 11v60q-28 -12 -59 -12q-62 0 -62 47q0 53 68 75q110 19 171 92q61 72 62 185v457h-108
v-448z" />
    <glyph glyph-name="uogonek" unicode="&#x173;" horiz-adv-x="610" 
d="M514 -127q-62 0 -62 47q0 59 85 80l-1 2v524h-103v-276q-1 -77 -39 -123q-39 -47 -106 -48q-111 0 -111 128v319h-104v-334q1 -97 46 -149t129 -53q63 0 108 28t69 79h8l12 -86q-61 -39 -61 -104q1 -43 30 -68q29 -26 80 -27q22 -1 42 2q20 4 37 11v60q-29 -12 -59 -12v0
z" />
    <glyph glyph-name="Wcircumflex" unicode="&#x174;" horiz-adv-x="942" 
d="M359 776l106 112l106 -112l51 49l-123 127h-66l-124 -127zM159 0h151l159 601h6l157 -601h151l149 729h-117l-79 -418l-31 -192h-6l-156 610h-143l-154 -609h-7l-31 192l-80 417h-118z" />
    <glyph glyph-name="wcircumflex" unicode="&#x175;" horiz-adv-x="757" 
d="M485 584l51 49l-123 127h-66l-124 -127l50 -49l106 112zM575 260l-32 -156h-7l-96 422h-121l-94 -423h-8l-34 159l-66 264h-109l146 -526h132l59 258l29 139h6l31 -139l61 -258h133l143 526h-107z" />
    <glyph glyph-name="Ycircumflex" unicode="&#x176;" horiz-adv-x="663" 
d="M226 776l106 112l106 -112l51 49l-123 127h-66l-124 -127zM277 291v-291h108v291l273 438h-130l-103 -179l-89 -158h-8l-88 158l-105 179h-131z" />
    <glyph glyph-name="ycircumflex" unicode="&#x177;" horiz-adv-x="483" 
d="M134 585l106 112l106 -112l51 49l-123 127h-66l-124 -127zM195 19l-11 -28q-13 -40 -40 -60q-28 -20 -69 -20q-18 0 -42 4v-87q27 -5 51 -5q153 0 212 168l188 535h-109l-78 -241l-48 -159h-6l-50 159l-84 241h-112z" />
    <glyph glyph-name="Ydieresis" unicode="&#x178;" horiz-adv-x="663" 
d="M278 794v127h-90v-127h90zM474 794v127h-90v-127h90zM277 291v-291h108v291l273 438h-130l-103 -179l-89 -158h-8l-88 158l-105 179h-131z" />
    <glyph glyph-name="Zacute" unicode="&#x179;" horiz-adv-x="578" 
d="M425 967l-186 -140l32 -51l200 113zM19 729v-98h401l-401 -543v-88h534v98h-396l401 543v88h-539z" />
    <glyph glyph-name="zacute" unicode="&#x17a;" horiz-adv-x="476" 
d="M389 774l-186 -140l32 -51l200 113zM435 448v78h-398v-86h273l-272 -363v-77h400v85h-276z" />
    <glyph glyph-name="Zdotaccent" unicode="&#x17b;" horiz-adv-x="578" 
d="M227 921v-127h91v127h-91zM19 729v-98h401l-401 -543v-88h534v98h-396l401 543v88h-539z" />
    <glyph glyph-name="zdotaccent" unicode="&#x17c;" horiz-adv-x="476" 
d="M191 728v-127h91v127h-91zM435 448v78h-398v-86h273l-272 -363v-77h400v85h-276z" />
    <glyph glyph-name="Zcaron" unicode="&#x17d;" horiz-adv-x="578" 
d="M428 918l-51 48l-106 -113l-104 113l-52 -48l124 -129h66zM19 729v-98h401l-401 -543v-88h534v98h-396l401 543v88h-539z" />
    <glyph glyph-name="zcaron" unicode="&#x17e;" horiz-adv-x="476" 
d="M392 725l-51 48l-106 -113l-104 113l-52 -48l124 -129h66zM435 448v78h-398v-86h273l-272 -363v-77h400v85h-276z" />
    <glyph glyph-name="uni018F" unicode="&#x18f;" horiz-adv-x="708" 
d="M352 739q-118 0 -202 -61q-84 -60 -106 -163h110q15 58 67 92t126 35q97 0 150 -64t54 -190h-502q-4 -27 -4 -58q0 -155 79 -248q80 -92 225 -92q146 0 231 97q85 98 85 279q-1 178 -82 275t-231 98v0zM349 86q-84 -1 -135 52q-51 52 -53 163h390q-6 -103 -59 -158
q-52 -56 -143 -57v0z" />
    <glyph glyph-name="florin" unicode="&#x192;" horiz-adv-x="545" 
d="M515 642v87h-146q-60 -4 -81 -29q-21 -26 -23 -62l-17 -117l-10 -78h-113v-86h101l-37 -280l-18 -118h-146v-87h146q61 2 82 31q21 28 22 60l16 114l39 280h123v86h-112l11 78l17 121h146z" />
    <glyph glyph-name="AEacute" unicode="&#x1fc;" horiz-adv-x="963" 
d="M712 967l-186 -140l32 -51l200 113zM907 729h-660l-244 -729h113l62 193h233v-193h496v97h-387v222h330v91h-330v222h387v97zM205 280l113 352h93v-352h-206z" />
    <glyph glyph-name="Oslashacute" unicode="&#x1fe;" horiz-adv-x="854" 
d="M614 967l-186 -140l32 -51l200 113zM754 661l-70 -51q-93 128 -272 128q-156 0 -250 -102t-94 -272q0 -100 35 -180l-61 -45l46 -71l58 43q96 -121 266 -121q156 0 250 101q94 102 94 274q0 95 -30 168l79 58zM183 365q0 125 62 200q62 76 167 76q120 0 183 -97
l-397 -290q-15 50 -15 111v0zM642 364q0 -125 -62 -200q-61 -75 -168 -75q-114 0 -176 87l394 287q12 -45 12 -99v0z" />
    <glyph glyph-name="oslashacute" unicode="&#x1ff;" horiz-adv-x="630" 
d="M467 774l-186 -140l32 -51l200 113zM563 491l-56 -41q-72 86 -193 86q-115 0 -186 -77q-70 -76 -70 -198q0 -70 24 -124l-55 -41l40 -59l52 38q72 -85 195 -85q114 0 184 75q35 38 53 87q17 49 17 110q0 68 -23 125l59 43zM164 262q1 86 40 134q39 49 109 50
q75 0 114 -55l-257 -189q-6 27 -6 60v0zM462 263q-1 -86 -40 -134t-109 -49q-73 0 -113 54l256 188q6 -27 6 -59v0z" />
    <glyph glyph-name="uni0218" unicode="&#x218;" horiz-adv-x="673" 
d="M44 226q1 -53 20 -96q19 -44 57 -76t92 -48q53 -16 123 -16q131 1 206 58t76 163q0 47 -16 84q-17 36 -46 59q-29 24 -60 37q-32 14 -70 22l-129 26q-25 5 -40 11q-14 5 -37 16q-23 12 -35 32q-11 20 -11 47q0 49 38 77t107 29q73 0 115 -31q43 -32 47 -94h112
q-3 98 -73 155t-195 58q-120 0 -193 -57q-72 -57 -72 -152q4 -66 32 -105t73 -58q32 -14 53 -19q21 -6 47 -11l129 -28q19 -5 32 -10t33 -16q22 -11 33 -32t11 -50q-1 -57 -44 -90q-44 -32 -123 -33q-174 0 -180 148h-112zM296 -249q92 0 92 86v104h-95v-105h50v-9
q0 -44 -47 -44v-32z" />
    <glyph glyph-name="uni0219" unicode="&#x219;" horiz-adv-x="517" 
d="M41 161q1 -78 59 -124q57 -46 161 -47q98 1 155 43q58 43 59 118q0 123 -140 148l-100 18q-80 11 -80 68q0 34 26 53q25 20 73 20q104 0 107 -84h100q-3 74 -56 117q-54 44 -150 45q-94 -1 -148 -43q-55 -42 -56 -118q0 -116 144 -142l107 -20q28 -5 47 -19
q18 -15 19 -47q0 -37 -28 -58t-79 -21q-57 0 -88 25t-31 68h-101zM216 -242q92 0 92 86v104h-95v-105h50v-9q0 -44 -47 -44v-32z" />
    <glyph glyph-name="uni021A" unicode="&#x21a;" horiz-adv-x="560" 
d="M6 729v-98h220v-631h108v631h220v98h-548zM282 -164v-9q0 -44 -47 -44v-32q92 0 92 86v104h-95v-105h50z" />
    <glyph glyph-name="uni021B" unicode="&#x21b;" horiz-adv-x="351" 
d="M12 440h88v-293q0 -155 147 -155q19 0 37 2q19 2 36 6v84q-15 -5 -46 -5q-42 0 -56 21q-15 21 -14 58v282h116v86h-116v191l-104 -40v-151h-88v-86zM180 -246q92 0 92 86v104h-95v-105h50v-9q0 -44 -47 -44v-32z" />
    <glyph glyph-name="uni0237" unicode="&#x237;" horiz-adv-x="268" 
d="M35 -176q77 1 115 42q37 42 37 117v543h-103v-536q1 -41 -17 -62q-17 -20 -61 -20q-8 0 -15 1t-14 3v-83q16 -2 31 -4q14 -1 27 -1v0z" />
    <glyph glyph-name="circumflex" unicode="&#x2c6;" horiz-adv-x="362" 
d="M75 721l106 112l106 -112l51 49l-123 127h-66l-124 -127z" />
    <glyph glyph-name="caron" unicode="&#x2c7;" horiz-adv-x="362" 
d="M149 733h66l123 129l-51 48l-106 -113l-104 113l-52 -48z" />
    <glyph glyph-name="breve" unicode="&#x2d8;" horiz-adv-x="358" 
d="M259 872q0 -40 -22 -63q-21 -23 -58 -23q-36 0 -58 23q-21 23 -22 63h-68q1 -67 40 -107t108 -41q69 1 109 41q39 40 40 107h-69z" />
    <glyph glyph-name="dotaccent" unicode="&#x2d9;" horiz-adv-x="195" 
d="M143 738v127h-91v-127h91z" />
    <glyph glyph-name="ring" unicode="&#x2da;" horiz-adv-x="368" 
d="M303 781q-1 52 -32 82q-31 29 -83 30q-52 -1 -83 -30q-31 -30 -32 -82q1 -51 32 -81t83 -31q52 1 83 31t32 81v0zM241 781q0 -25 -14 -41q-15 -16 -39 -16t-39 16t-15 41q0 27 15 42q15 16 39 16t39 -16q14 -15 14 -42v0z" />
    <glyph glyph-name="ogonek" unicode="&#x2db;" horiz-adv-x="412" 
d="M115 -93q1 -43 31 -68q29 -26 79 -27q22 -1 42 2q20 4 37 11v60q-28 -12 -59 -12q-62 0 -62 47q0 59 85 80l-22 37q-60 -12 -95 -46q-35 -35 -36 -84v0z" />
    <glyph glyph-name="tilde" unicode="&#x2dc;" horiz-adv-x="337" 
d="M232 727q63 2 99 81l-44 31q-25 -33 -55 -35q-11 -1 -26 4q-16 5 -36 15q-40 20 -66 19q-31 -2 -56 -22t-44 -58l44 -31q23 33 53 34q10 1 24 -4q15 -5 35 -16q41 -19 72 -18v0z" />
    <glyph glyph-name="hungarumlaut" unicode="&#x2dd;" horiz-adv-x="506" 
d="M256 835l-47 76l-183 -140l33 -50zM472 835l-48 76l-182 -140l32 -50z" />
    <glyph glyph-name="gravecomb" unicode="&#x300;" 
d="M-110 773l-186 139l-46 -77l199 -114z" />
    <glyph glyph-name="acutecomb" unicode="&#x301;" 
d="M-89 833l-46 78l-186 -140l32 -51z" />
    <glyph glyph-name="uni0302" unicode="&#x302;" 
d="M-287 721l106 112l106 -112l51 49l-123 127h-66l-124 -127z" />
    <glyph glyph-name="tildecomb" unicode="&#x303;" 
d="M-105 727q63 2 99 81l-44 31q-25 -33 -55 -35q-11 -1 -26 4q-16 5 -36 15q-40 20 -66 19q-31 -2 -56 -22t-44 -58l44 -31q23 33 53 34q10 1 24 -4q15 -5 35 -16q41 -19 72 -18v0z" />
    <glyph glyph-name="uni0304" unicode="&#x304;" 
d="M-17 734v76h-322v-76h322z" />
    <glyph glyph-name="uni0306" unicode="&#x306;" 
d="M-99 872q0 -40 -22 -63q-21 -23 -58 -23q-36 0 -58 23q-21 23 -22 63h-68q1 -67 40 -107t108 -41q69 1 109 41q39 40 40 107h-69z" />
    <glyph glyph-name="uni0307" unicode="&#x307;" 
d="M-52 738v127h-91v-127h91z" />
    <glyph glyph-name="uni0308" unicode="&#x308;" 
d="M-253 738v127h-90v-127h90zM-57 738v127h-90v-127h90z" />
    <glyph glyph-name="uni030A" unicode="&#x30a;" 
d="M-65 781q-1 52 -32 82q-31 29 -83 30q-52 -1 -83 -30q-31 -30 -32 -82q1 -51 32 -81t83 -31q52 1 83 31t32 81v0zM-127 781q0 -25 -14 -41q-15 -16 -39 -16t-39 16t-15 41q0 27 15 42q15 16 39 16t39 -16q14 -15 14 -42v0z" />
    <glyph glyph-name="uni030B" unicode="&#x30b;" 
d="M-250 835l-47 76l-183 -140l33 -50zM-34 835l-48 76l-182 -140l32 -50z" />
    <glyph glyph-name="uni030C" unicode="&#x30c;" 
d="M-213 733h66l123 129l-51 48l-106 -113l-104 113l-52 -48z" />
    <glyph glyph-name="uni0312" unicode="&#x312;" 
d="M-47 945q-92 0 -92 -86v-120h95v105h-50v24q0 45 47 45v32z" />
    <glyph glyph-name="uni0326" unicode="&#x326;" 
d="M-184 -247q92 0 92 86v104h-95v-105h50v-9q0 -44 -47 -44v-32z" />
    <glyph glyph-name="uni0327" unicode="&#x327;" 
d="M-231 4v28h-39l-51 -89v-27q42 12 64 2q21 -9 21 -34q0 -36 -40 -40q-41 -4 -68 21v-54q47 -32 108 -15q61 16 65 85q-1 39 -27 60q-26 20 -61 17z" />
    <glyph glyph-name="uni0328" unicode="&#x328;" 
d="M-297 -93q1 -43 31 -68q29 -26 79 -27q22 -1 42 2q20 4 37 11v60q-28 -12 -59 -12q-62 0 -62 47q0 59 85 80l-22 37q-60 -12 -95 -46q-35 -35 -36 -84v0z" />
    <glyph glyph-name="uni0335" unicode="&#x335;" 
d="M-68 302v75h-341v-75h341z" />
    <glyph glyph-name="uni0336" unicode="&#x336;" 
 />
    <glyph glyph-name="uni0337" unicode="&#x337;" 
d="M-309 0l286 729h-68l-287 -729h69z" />
    <glyph glyph-name="uni0338" unicode="&#x338;" 
d="M-309 0l286 729h-68l-287 -729h69z" />
    <glyph glyph-name="uni03BC" unicode="&#x3bc;" horiz-adv-x="588" 
d="M168 -173v207h8q13 -20 40 -32q26 -12 57 -12q48 0 84 23t54 68h6l-3 -81h98v526h-104v-308q0 -67 -31 -105q-32 -39 -89 -40q-49 0 -78 31t-30 89v333h-104v-699h92z" />
    <glyph glyph-name="pi" unicode="&#x3c0;" horiz-adv-x="591" 
d="M566 81q-12 -4 -34 -4q-51 0 -51 58v314h86v77h-546v-77h87v-449h103v449h169v-317q0 -139 127 -139q32 0 59 9v79z" />
    <glyph glyph-name="omega" unicode="&#x3c9;" horiz-adv-x="793" 
d="M674 0v83h-154v58q93 30 149 109q57 79 57 182q0 138 -91 222q-46 43 -105 64q-60 21 -134 21q-150 0 -240 -85q-89 -85 -89 -222q0 -103 56 -183q57 -79 150 -108v-58h-155v-83h244v199q-86 17 -137 78t-51 149q0 99 61 160q62 62 161 62q50 0 90 -16q40 -15 71 -46
t46 -70q16 -39 16 -88q0 -44 -13 -82t-39 -69q-51 -61 -137 -78v-199h244z" />
    <glyph glyph-name="Wgrave" unicode="&#x1e80;" horiz-adv-x="942" 
d="M498 829l-186 139l-46 -77l199 -114zM159 0h151l159 601h6l157 -601h151l149 729h-117l-79 -418l-31 -192h-6l-156 610h-143l-154 -609h-7l-31 192l-80 417h-118z" />
    <glyph glyph-name="wgrave" unicode="&#x1e81;" horiz-adv-x="757" 
d="M226 775l-46 -77l199 -114l33 52zM575 260l-32 -156h-7l-96 422h-121l-94 -423h-8l-34 159l-66 264h-109l146 -526h132l59 258l29 139h6l31 -139l61 -258h133l143 526h-107z" />
    <glyph glyph-name="Wacute" unicode="&#x1e82;" horiz-adv-x="942" 
d="M664 889l-46 78l-186 -140l32 -51zM159 0h151l159 601h6l157 -601h151l149 729h-117l-79 -418l-31 -192h-6l-156 610h-143l-154 -609h-7l-31 192l-80 417h-118z" />
    <glyph glyph-name="wacute" unicode="&#x1e83;" horiz-adv-x="757" 
d="M531 774l-186 -140l32 -51l200 113zM575 260l-32 -156h-7l-96 422h-121l-94 -423h-8l-34 159l-66 264h-109l146 -526h132l59 258l29 139h6l31 -139l61 -258h133l143 526h-107z" />
    <glyph glyph-name="Wdieresis" unicode="&#x1e84;" horiz-adv-x="942" 
d="M412 794v127h-90v-127h90zM608 794v127h-90v-127h90zM159 0h151l159 601h6l157 -601h151l149 729h-117l-79 -418l-31 -192h-6l-156 610h-143l-154 -609h-7l-31 192l-80 417h-118z" />
    <glyph glyph-name="wdieresis" unicode="&#x1e85;" horiz-adv-x="757" 
d="M235 728v-127h90v127h-90zM431 728v-127h90v127h-90zM575 260l-32 -156h-7l-96 422h-121l-94 -423h-8l-34 159l-66 264h-109l146 -526h132l59 258l29 139h6l31 -139l61 -258h133l143 526h-107z" />
    <glyph glyph-name="Ygrave" unicode="&#x1ef2;" horiz-adv-x="663" 
d="M365 829l-186 139l-46 -77l199 -114zM277 291v-291h108v291l273 438h-130l-103 -179l-89 -158h-8l-88 158l-105 179h-131z" />
    <glyph glyph-name="ygrave" unicode="&#x1ef3;" horiz-adv-x="483" 
d="M273 637l-186 139l-46 -77l199 -114zM195 19l-11 -28q-13 -40 -40 -60q-28 -20 -69 -20q-18 0 -42 4v-87q27 -5 51 -5q153 0 212 168l188 535h-109l-78 -241l-48 -159h-6l-50 159l-84 241h-112z" />
    <glyph glyph-name="endash" unicode="&#x2013;" horiz-adv-x="641" 
d="M580 268v65h-520v-65h520z" />
    <glyph glyph-name="emdash" unicode="&#x2014;" horiz-adv-x="837" 
d="M776 268v65h-716v-65h716z" />
    <glyph glyph-name="quoteleft" unicode="&#x2018;" horiz-adv-x="210" 
d="M170 736q-61 0 -96 -31t-36 -86v-150h121v129h-63v21q0 71 74 71v46z" />
    <glyph glyph-name="quoteright" unicode="&#x2019;" horiz-adv-x="208" 
d="M42 465q61 0 96 31t36 86v150h-121v-129h64v-21q0 -71 -75 -71v-46z" />
    <glyph glyph-name="quotesinglbase" unicode="&#x201a;" horiz-adv-x="210" 
d="M40 -138q61 0 96 31t36 86v150h-121v-129h64v-21q0 -71 -75 -71v-46z" />
    <glyph glyph-name="quotedblleft" unicode="&#x201c;" horiz-adv-x="419" 
d="M171 736q-61 0 -96 -31t-36 -86v-150h121v129h-64v21q0 71 75 71v46zM378 736q-61 0 -96 -31t-36 -86v-150h121v129h-63v21q0 71 74 71v46z" />
    <glyph glyph-name="quotedblright" unicode="&#x201d;" horiz-adv-x="410" 
d="M44 465q61 0 96 31t36 86v150h-121v-129h64v-21q0 -71 -75 -71v-46zM245 465q60 0 95 31t36 86v150h-121v-129h64v-21q0 -71 -74 -71v-46z" />
    <glyph glyph-name="quotedblbase" unicode="&#x201e;" horiz-adv-x="408" 
d="M47 -138q61 0 96 31t36 86v150h-121v-129h64v-21q0 -71 -75 -71v-46zM246 -138q61 0 96 31t36 86v150h-121v-129h64v-21q0 -71 -75 -71v-46z" />
    <glyph glyph-name="dagger" unicode="&#x2020;" horiz-adv-x="415" 
d="M247 731h-79v-353h-137v-73h137v-148h79v148h136v73h-136v353z" />
    <glyph glyph-name="daggerdbl" unicode="&#x2021;" horiz-adv-x="416" 
d="M384 586h-137v145h-79v-145h-136v-71h136v-137h-137v-73h137v-148h79v148h136v73h-136v137h137v71z" />
    <glyph glyph-name="bullet" unicode="&#x2022;" horiz-adv-x="392" 
d="M63 276q0 -55 38 -96q39 -40 94 -40t94 40q40 41 40 96q0 59 -39 99q-39 41 -95 41q-28 0 -51 -10q-24 -11 -43 -31q-38 -40 -38 -99v0z" />
    <glyph glyph-name="ellipsis" unicode="&#x2026;" horiz-adv-x="691" 
d="M188 0v136h-122v-136h122zM406 0v136h-121v-136h121zM625 0v136h-122v-136h122z" />
    <glyph glyph-name="perthousand" unicode="&#x2030;" horiz-adv-x="1303" 
d="M57 557q0 -81 49 -132q50 -51 128 -51q40 0 72 13q31 12 56 37q50 51 50 132t-49 131t-129 50q-40 0 -71 -13q-32 -12 -57 -37t-37 -57q-12 -33 -12 -73v0zM261 0l462 729h-74l-462 -729h74zM136 557q1 51 28 81q26 30 70 31q46 -1 73 -31q26 -30 27 -81q-1 -52 -27 -82
q-27 -31 -73 -32q-45 1 -71 32q-26 30 -27 82v0zM485 173q0 -82 49 -133q50 -50 129 -50q78 0 127 50q49 51 49 132t-49 132q-48 51 -127 51t-129 -51q-49 -51 -49 -131v0zM888 173q1 -83 50 -132q48 -50 128 -51q40 0 72 13q31 12 56 37q49 51 49 132t-49 132t-128 51
t-129 -51q-49 -51 -49 -131v0zM663 286q44 -1 71 -31q27 -31 28 -82q-1 -51 -27 -82q-27 -31 -72 -32q-45 1 -72 32t-28 82q1 51 28 82q26 30 72 31v0zM1066 59q-46 1 -72 32t-27 82q1 51 27 82q27 30 72 31q45 -1 72 -31q26 -31 27 -82q-1 -51 -27 -82q-27 -31 -72 -32v0z
" />
    <glyph glyph-name="guilsinglleft" unicode="&#x2039;" horiz-adv-x="327" 
d="M170 64h93l-110 210l110 208h-93l-121 -208z" />
    <glyph glyph-name="guilsinglright" unicode="&#x203a;" horiz-adv-x="327" 
d="M159 482h-96l110 -208l-110 -210h96l119 210z" />
    <glyph glyph-name="fraction" unicode="&#x2044;" horiz-adv-x="217" 
d="M-55 -46l410 814h-84l-410 -814h84z" />
    <glyph glyph-name="uni2070" unicode="&#x2070;" horiz-adv-x="491" 
d="M246 295q92 0 145 72q54 73 55 216q-1 139 -53 212t-147 74q-93 0 -147 -72q-53 -72 -54 -214q1 -139 54 -213q52 -74 147 -75v0zM354 581q0 -208 -109 -208t-109 213q0 206 110 206q108 0 108 -211v0z" />
    <glyph glyph-name="uni2074" unicode="&#x2074;" horiz-adv-x="482" 
d="M383 862h-133l-224 -373v-72h270v-117h87v117h69v74h-69v371zM296 791v-300h-179z" />
    <glyph glyph-name="uni2075" unicode="&#x2075;" horiz-adv-x="475" 
d="M250 674q-73 0 -109 -38l-4 2l7 147h255v77h-332l-14 -317h83q12 24 38 40q25 15 58 15q49 -1 78 -33t30 -84q0 -51 -30 -82q-14 -16 -33 -23q-20 -8 -43 -8t-42 7q-20 8 -34 22t-20 33q-7 18 -6 41h-89q-1 -41 13 -73q13 -33 39 -58q53 -50 138 -50q88 0 143 54t55 140
q0 83 -51 135q-25 26 -57 40q-33 13 -73 13v0z" />
    <glyph glyph-name="uni2076" unicode="&#x2076;" horiz-adv-x="479" 
d="M248 292q88 1 140 53q51 52 52 140q0 83 -48 134t-124 51q-91 0 -126 -71h-5q-9 195 113 195q80 0 91 -69h90q-8 67 -55 105t-124 39q-105 -1 -156 -76q-50 -75 -50 -211t50 -212q49 -77 152 -78v0zM251 596q45 -1 72 -30q26 -30 27 -82q0 -52 -27 -83t-72 -31t-73 30
q-28 31 -28 82q0 49 27 81q26 32 74 33v0z" />
    <glyph glyph-name="uni2077" unicode="&#x2077;" horiz-adv-x="430" 
d="M95 686v99h205q-75 -108 -132 -239q-56 -130 -76 -246h95q21 120 81 256t138 244v62h-383v-176h72z" />
    <glyph glyph-name="uni2078" unicode="&#x2078;" horiz-adv-x="465" 
d="M39 447q1 -70 52 -112t140 -43q89 1 141 42q53 41 54 113q0 43 -21 78q-21 34 -60 53v6q39 19 60 53q21 35 21 78q-1 70 -53 112q-51 41 -140 42q-88 -1 -140 -42q-53 -41 -54 -112q1 -45 23 -79t59 -52v-6q-82 -39 -82 -131v0zM232 617q-46 0 -73 24q-28 23 -29 63
q0 40 27 64q29 24 75 24q47 0 74 -24q14 -11 21 -27q7 -17 7 -37q0 -40 -27 -63t-75 -24v0zM130 457q0 40 27 64t75 25q46 0 74 -24q27 -23 28 -65q0 -40 -27 -63q-27 -24 -75 -25q-46 0 -73 23q-28 23 -29 65v0z" />
    <glyph glyph-name="uni2079" unicode="&#x2079;" horiz-adv-x="477" 
d="M228 292q101 -1 153 69q51 69 51 216q0 137 -49 214q-50 77 -152 78q-87 0 -140 -53q-52 -52 -52 -138q0 -83 48 -134t123 -51q91 0 127 70h5q11 -195 -111 -195q-37 0 -62 18t-29 50h-90q8 -67 56 -105t122 -39v0zM228 566q-45 1 -72 30q-26 30 -27 82q1 52 27 83
q26 30 72 31q46 -1 73 -31t28 -80q0 -50 -27 -82q-26 -32 -74 -33v0z" />
    <glyph glyph-name="uni2080" unicode="&#x2080;" horiz-adv-x="491" 
d="M246 -105q92 0 145 72q54 73 55 216q-1 139 -53 212t-147 74q-93 0 -147 -72q-53 -72 -54 -214q1 -139 54 -213q52 -74 147 -75v0zM354 181q0 -208 -109 -208t-109 213q0 206 110 206q108 0 108 -211v0z" />
    <glyph glyph-name="uni2081" unicode="&#x2081;" horiz-adv-x="354" 
d="M174 297v-397h87v562h-82q-2 -43 -36 -70q-34 -26 -89 -27h-23v-68h143z" />
    <glyph glyph-name="uni2082" unicode="&#x2082;" horiz-adv-x="452" 
d="M149 -26q17 48 71 89q53 42 104 83q36 30 58 71t23 89q-1 73 -49 118q-49 44 -131 45q-85 -1 -135 -48q-51 -48 -51 -130h88q-2 48 24 75q25 26 71 26q42 0 66 -23q24 -22 24 -64q-4 -62 -57 -108t-112 -91q-39 -31 -65 -79t-27 -108v-19h359v78h-168z" />
    <glyph glyph-name="uni2083" unicode="&#x2083;" horiz-adv-x="465" 
d="M231 -108q43 0 78 11q35 12 61 35q54 46 54 119q0 46 -23 81q-24 36 -69 54v4q41 19 62 50q20 31 20 74q-2 70 -51 109q-50 39 -130 40q-85 0 -138 -49q-51 -48 -48 -127h89q0 46 25 72q25 27 71 27q40 0 65 -21q24 -21 25 -59q0 -39 -26 -62t-76 -24h-40v-73h45
q51 0 79 -24q29 -24 29 -67q-1 -43 -28 -67q-27 -25 -73 -26q-46 0 -72 26t-24 75h-91q-1 -81 48 -129q50 -48 138 -49v0z" />
    <glyph glyph-name="uni2084" unicode="&#x2084;" horiz-adv-x="482" 
d="M383 462h-133l-224 -373v-72h270v-117h87v117h69v74h-69v371zM296 391v-300h-179z" />
    <glyph glyph-name="uni2085" unicode="&#x2085;" horiz-adv-x="475" 
d="M250 274q-73 0 -109 -38l-4 2l7 147h255v77h-332l-14 -317h83q12 24 38 40q25 15 58 15q49 -1 78 -33t30 -84q0 -51 -30 -82q-14 -16 -33 -23q-20 -8 -43 -8t-42 7q-20 8 -34 22t-20 33q-7 18 -6 41h-89q-1 -41 13 -73q13 -33 39 -58q53 -50 138 -50q88 0 143 54t55 140
q0 83 -51 135q-25 26 -57 40q-33 13 -73 13v0z" />
    <glyph glyph-name="uni2086" unicode="&#x2086;" horiz-adv-x="479" 
d="M248 -108q88 1 140 53q51 52 52 140q0 83 -48 134t-124 51q-91 0 -126 -71h-5q-9 195 113 195q80 0 91 -69h90q-8 67 -55 105t-124 39q-105 -1 -156 -76q-50 -75 -50 -211t50 -212q49 -77 152 -78v0zM251 196q45 -1 72 -30q26 -30 27 -82q0 -52 -27 -83t-72 -31t-73 30
q-28 31 -28 82q0 49 27 81q26 32 74 33v0z" />
    <glyph glyph-name="uni2087" unicode="&#x2087;" horiz-adv-x="430" 
d="M95 286v99h205q-75 -108 -132 -239q-56 -130 -76 -246h95q21 122 81 256q60 135 138 244v62h-383v-176h72z" />
    <glyph glyph-name="uni2088" unicode="&#x2088;" horiz-adv-x="465" 
d="M39 47q1 -70 52 -112t140 -43q89 1 141 42q53 41 54 113q0 43 -21 78q-21 34 -60 53v6q39 19 60 53q21 35 21 78q-1 70 -53 112q-51 41 -140 42q-88 -1 -140 -42q-53 -41 -54 -112q1 -45 23 -79t59 -52v-6q-82 -39 -82 -131v0zM232 217q-46 0 -73 24q-28 23 -29 63
q0 40 27 64q29 24 75 24q47 0 74 -24q14 -11 21 -27q7 -17 7 -37q0 -40 -27 -63t-75 -24v0zM130 57q0 40 27 64t75 25q46 0 74 -24q27 -23 28 -65q0 -40 -27 -63q-27 -24 -75 -25q-46 0 -73 23q-28 23 -29 65v0z" />
    <glyph glyph-name="uni2089" unicode="&#x2089;" horiz-adv-x="477" 
d="M228 -108q101 -1 153 69q51 69 51 216q0 137 -49 214q-50 77 -152 78q-87 0 -140 -53q-52 -52 -52 -138q0 -83 48 -134t123 -51q91 0 127 70h5q11 -195 -111 -195q-37 0 -62 18t-29 50h-90q8 -67 56 -105t122 -39v0zM228 166q-45 1 -72 30q-26 30 -27 82q1 52 27 83
q26 30 72 31q46 -1 73 -31t28 -80q0 -50 -27 -82q-26 -32 -74 -33v0z" />
    <glyph glyph-name="uni20A6" unicode="&#x20a6;" horiz-adv-x="715" 
d="M625 402v327h-104v-327h-136l-177 327h-121v-327h-83v-76h83v-326h105v326h136l177 -326h120v326h85v76h-85zM186 578h6l95 -176h-96zM521 151l-95 175h96l4 -175h-5z" />
    <glyph glyph-name="uni20A9" unicode="&#x20a9;" horiz-adv-x="815" 
d="M724 402l59 327h-110l-49 -327h-95l-67 327h-107l-67 -327h-96l-53 327h-107l61 -327h-83v-76h98l61 -326h127l62 326h102l63 -326h128l59 326h94v76h-80zM411 589l34 -187h-73l34 187h5zM238 128h-5l-26 185l-2 13h68l-3 -14zM586 127h-6l-32 184l-3 15h67l-2 -15z" />
    <glyph glyph-name="uni20AA" unicode="&#x20aa;" horiz-adv-x="722" 
d="M398 165h90v463q0 57 -25 79q-26 23 -76 22h-317v-729h91v641h237v-476zM561 89h-237v476h-90v-464q0 -57 25 -79q26 -23 76 -22h317v729h-91v-640z" />
    <glyph glyph-name="Euro" unicode="&#x20ac;" horiz-adv-x="743" 
d="M401 87q-150 0 -189 163h235l11 76h-257q-1 12 -1 38q0 20 2 54h262l9 76h-257q43 148 184 148q67 0 113 -34t64 -99h114q-19 103 -97 166t-192 63q-116 -1 -193 -63q-77 -63 -106 -181h-76v-76h64q-1 -17 -1 -30q-1 -13 -1 -23q0 -25 1 -39h-63v-76h73q25 -123 102 -191
q76 -67 196 -68q116 0 194 62q80 62 99 168h-114q-16 -63 -61 -98t-115 -36v0z" />
    <glyph glyph-name="uni20B2" unicode="&#x20b2;" horiz-adv-x="694" 
d="M316 307h192q-4 -71 -51 -112q-47 -42 -123 -43q-85 1 -133 57t-49 159q0 102 48 159q47 57 135 58q61 0 103 -30q41 -29 54 -83h111q-14 88 -77 143q-63 54 -161 62v93h-74v-95q-57 -7 -103 -31q-45 -25 -79 -66q-67 -82 -67 -210q0 -65 17 -118q16 -53 50 -94t79 -65
q46 -23 103 -30v-94h74v94q113 10 182 85t69 202v42h-300v-83z" />
    <glyph glyph-name="uni20B8" unicode="&#x20b8;" horiz-adv-x="559" 
d="M6 641h547v88h-547v-88zM228 456v-456h104v456h221v92h-547v-92h222z" />
    <glyph glyph-name="uni20B9" unicode="&#x20b9;" horiz-adv-x="704" 
d="M610 729h-516v-95h185q58 0 96 -27q37 -27 47 -79h-328v-76h328q-21 -106 -143 -106h-185v-88h145q47 0 69 -16q23 -16 45 -62l92 -180h117l-92 177q-3 5 -9 17t-9 16l-3 6q-2 3 -5 8q-5 9 -8 13q-2 4 -8 10q-8 11 -18 18q-11 6 -25 10v6q61 19 100 62t49 109h76v76h-75
q-9 73 -52 124h127v77z" />
    <glyph glyph-name="uni20BA" unicode="&#x20ba;" horiz-adv-x="602" 
d="M466 331q-19 -105 -88 -168t-167 -64v222l174 72v86l-174 -72v87l174 72v86l-174 -71v148h-104v-187l-95 -41v-85l95 38v-87l-95 -38v-86l95 37v-280h86q76 1 139 23t114 66q52 44 83 105q31 60 42 137h-105z" />
    <glyph glyph-name="uni20BC" unicode="&#x20bc;" horiz-adv-x="687" 
d="M150 0v348q0 83 36 127t107 49v-524h102v524q67 -5 105 -48q37 -43 38 -128v-348h102v348q0 123 -61 195q-60 71 -184 80v106h-102v-106q-116 -9 -180 -76q-65 -68 -66 -199v-348h103z" />
    <glyph glyph-name="uni20BD" unicode="&#x20bd;" horiz-adv-x="661" 
d="M374 261q119 -1 189 60q71 62 71 170q0 53 -17 97q-17 43 -51 75q-67 66 -186 66h-243v-388h-92v-80h92v-68h-92v-76h92v-117h104v117h202v76h-202v69zM523 492q-1 -63 -41 -101q-40 -37 -113 -38h-128v279h128q72 0 113 -37q40 -36 41 -103v0z" />
    <glyph glyph-name="uni20BF" unicode="&#x20bf;" horiz-adv-x="723" 
d="M589 226q0 55 -27 96q-27 40 -78 59q42 18 65 54q24 35 24 80q0 68 -40 112q-39 44 -112 56v87h-75v-84h-73v84h-73v-84h-67v-635h67v-84h73v84h73v-84h75v86q82 11 125 57q43 47 43 116v0zM464 510q0 -43 -28 -68t-77 -26h-121v185h121q49 0 77 -23q27 -24 28 -68v0z
M238 135v198h123q53 0 85 -24t33 -73q-1 -49 -32 -75t-86 -26h-123z" />
    <glyph glyph-name="uni2105" unicode="&#x2105;" horiz-adv-x="946" 
d="M306 498q-4 -33 -28 -51q-24 -19 -59 -19q-45 0 -70 32q-25 31 -25 88t25 89t71 32q31 0 55 -16q23 -16 30 -45h83q-9 59 -54 94q-44 36 -112 37q-82 -1 -131 -52q-49 -50 -50 -139q1 -88 50 -138q48 -50 127 -51q70 1 117 38q46 37 54 101h-83zM279 0l462 729h-81
l-462 -729h81zM544 183q1 -86 50 -137q48 -52 131 -53q81 0 130 53q50 53 50 137t-50 137q-49 53 -130 53t-131 -53t-50 -137v0zM627 183q0 55 26 87t72 33q45 -1 71 -33t26 -86q0 -55 -26 -88q-26 -32 -71 -33q-45 1 -71 33t-27 87v0z" />
    <glyph glyph-name="uni2116" unicode="&#x2116;" horiz-adv-x="1425" 
d="M822 498q0 -99 67 -167q68 -68 170 -68q104 0 171 68q68 68 68 167q0 98 -67 168q-66 71 -172 71q-105 0 -171 -71q-66 -70 -66 -168v0zM204 0v376l-7 210h5l362 -586h132v729h-108v-368l7 -218h-5l-363 586h-132v-729h109zM1059 351q-59 1 -94 43q-36 41 -37 105
q1 64 36 106q36 42 97 43q60 -1 95 -42q35 -42 36 -106q-1 -64 -36 -106q-36 -42 -97 -43v0zM882 0h356v89h-356v-89z" />
    <glyph glyph-name="uni2117" unicode="&#x2117;" horiz-adv-x="926" 
d="M462 -76q174 0 296 117q122 116 125 304q0 183 -124 300q-123 118 -297 118q-175 0 -298 -119q-123 -118 -123 -302q0 -183 123 -301q124 -117 298 -117v0zM462 -46q-160 0 -273 109q-113 110 -113 279q0 85 28 155q29 70 85 125q113 110 273 110q161 0 273 -109
q56 -55 84 -124t28 -154q0 -170 -112 -281q-112 -110 -273 -110v0zM394 134v133h132q69 1 109 40q40 38 41 102q-1 65 -41 103t-109 39h-210v-417h78zM392 480h130q36 -1 56 -20q21 -20 21 -51q0 -33 -21 -53q-20 -20 -56 -21h-130v145z" />
    <glyph glyph-name="trademark" unicode="&#x2122;" horiz-adv-x="679" 
d="M109 681v-261h55v261h92v50h-235v-50h88zM459 534h-3l-85 197h-69v-311h52v146l-4 88h4l103 -228l105 228h3l-4 -88v-146h54v311h-70z" />
    <glyph glyph-name="estimated" unicode="&#x212e;" horiz-adv-x="797" 
d="M698 230q-26 -90 -107 -146q-81 -55 -187 -55q-82 0 -148 32q-67 32 -103 92v185h600q0 36 -1 57q-7 159 -99 246q-91 88 -243 88q-83 0 -149 -26q-67 -25 -117 -77q-99 -102 -99 -267q0 -164 97 -266q98 -102 260 -102q129 0 222 65q93 66 120 174h-46zM153 561
q86 123 244 126q159 3 249 -108v-205h-493v187z" />
    <glyph glyph-name="oneeighth" unicode="&#x215b;" horiz-adv-x="922" 
d="M257 -46l410 814h-84l-410 -814h84zM152 582v-326h81v473h-77v-4q0 -78 -82 -78h-45v-65h123zM562 127q1 -61 45 -97q43 -36 119 -37q75 1 119 36q44 36 45 97q0 80 -68 111v5q32 16 50 46q18 29 18 66q-1 60 -44 96q-43 35 -119 36q-75 -1 -120 -36q-44 -35 -45 -96
q0 -37 18 -67q18 -29 51 -45v-5q-33 -16 -51 -45t-18 -65v0zM645 345q0 31 22 50t59 20q37 0 58 -19q22 -18 22 -51t-22 -52q-21 -19 -58 -19t-58 19q-22 19 -23 52v0zM645 134q0 33 22 52q22 20 59 20t58 -19q22 -20 22 -53q0 -31 -22 -50q-21 -19 -58 -20q-37 0 -59 19
q-22 18 -22 51v0z" />
    <glyph glyph-name="threeeighths" unicode="&#x215c;" horiz-adv-x="991" 
d="M329 -46l410 814h-84l-410 -814h84zM189 248q69 0 114 39t45 100q0 83 -76 113v5q67 32 67 102q-1 59 -42 93t-109 35q-75 -1 -116 -41q-41 -41 -39 -108h82q0 36 19 57q20 21 54 21q28 0 47 -15q18 -16 19 -46q0 -30 -20 -49q-20 -18 -58 -19h-30v-74h37q37 0 59 -19
t23 -53q-1 -31 -21 -50q-21 -19 -55 -20q-34 0 -54 21t-20 57h-82q0 -68 42 -108t114 -41v0zM633 127q1 -61 45 -97q43 -36 119 -37q75 1 119 36q44 36 45 97q0 80 -68 111v5q32 16 50 46q18 29 18 66q-1 60 -44 96q-43 35 -119 36q-75 -1 -120 -36q-44 -35 -45 -96
q0 -37 18 -67q18 -29 51 -45v-5q-33 -16 -51 -45t-18 -65v0zM716 345q0 31 22 50t59 20q37 0 58 -19q22 -18 22 -51t-22 -52q-21 -19 -58 -19t-58 19q-22 19 -23 52v0zM716 134q0 33 22 52q22 20 59 20t58 -19q22 -20 22 -53q0 -31 -22 -50q-21 -19 -58 -20q-37 0 -59 19
q-22 18 -22 51v0z" />
    <glyph glyph-name="fiveeighths" unicode="&#x215d;" horiz-adv-x="1006" 
d="M341 -46l410 814h-84l-410 -814h84zM36 401q1 -70 44 -111q44 -41 116 -42q74 0 119 46q23 23 35 53q11 29 11 66q-1 70 -42 114t-108 45q-58 0 -86 -30l-2 2l2 45v67h210v73h-289v-271h77q7 21 26 33q20 12 47 12q37 -1 59 -26t23 -67q-1 -40 -22 -65q-22 -24 -59 -25
q-36 1 -57 24q-22 22 -22 57h-82zM646 127q1 -61 45 -97q43 -36 119 -37q75 1 119 36q44 36 45 97q0 80 -68 111v5q32 16 50 46q18 29 18 66q-1 60 -44 96q-43 35 -119 36q-75 -1 -120 -36q-44 -35 -45 -96q0 -37 18 -67q18 -29 51 -45v-5q-33 -16 -51 -45t-18 -65v0z
M729 345q0 31 22 50t59 20q37 0 58 -19q22 -18 22 -51t-22 -52q-21 -19 -58 -19t-58 19q-22 19 -23 52v0zM729 134q0 33 22 52q22 20 59 20t58 -19q22 -20 22 -53q0 -31 -22 -50q-21 -19 -58 -20q-37 0 -59 19q-22 18 -22 51v0z" />
    <glyph glyph-name="seveneighths" unicode="&#x215e;" horiz-adv-x="906" 
d="M157 -46h84l410 814h-84zM27 729v-137h61v64h155q-134 -169 -170 -400h80q19 115 66 219q46 104 122 196v58h-314zM806 242q32 16 50 46q18 29 18 66q-1 60 -44 96q-43 35 -119 36q-75 -1 -120 -36q-44 -35 -45 -96q0 -37 18 -67q18 -29 51 -45v-5q-33 -16 -51 -45
t-18 -65q1 -61 45 -97q43 -36 119 -37q75 1 119 36q44 36 45 97q0 80 -68 111v5zM710 274q-37 0 -58 19q-22 19 -23 52q0 31 22 50t59 20q37 0 58 -19q22 -18 22 -51t-22 -52q-21 -19 -58 -19v0zM790 134q0 -31 -22 -50q-21 -19 -58 -20q-37 0 -59 19q-22 18 -22 51t22 52
q22 20 59 20t58 -19q22 -20 22 -53v0z" />
    <glyph glyph-name="arrowleft" unicode="&#x2190;" horiz-adv-x="851" 
d="M755 297h-612l169 231h-80l-198 -263l198 -265h80l-169 231h612v66z" />
    <glyph glyph-name="arrowup" unicode="&#x2191;" horiz-adv-x="657" 
d="M565 375l-237 207l-236 -207v-81l204 181v-410h-204v-64h473v64h-205v410l205 -181v81z" />
    <glyph glyph-name="arrowright" unicode="&#x2192;" horiz-adv-x="877" 
d="M708 231l-169 -231h81l197 265l-197 263h-81l169 -231h-612v-66h612z" />
    <glyph glyph-name="arrowdown" unicode="&#x2193;" horiz-adv-x="657" 
d="M565 531h-473v-64h204v-409l-204 180v-81l236 -207l237 207v81l-205 -180v409h205v64z" />
    <glyph glyph-name="arrowboth" unicode="&#x2194;" horiz-adv-x="1063" 
d="M276 109h77l-173 211h702l-171 -211h75l204 244l-204 243h-75l171 -211h-702l173 211h-77l-203 -243z" />
    <glyph glyph-name="arrowupdn" unicode="&#x2195;" horiz-adv-x="746" 
d="M375 -141l288 250v83l-258 -223v681l258 -222v82l-288 250l-291 -250v-82l259 222v-681l-259 223v-83z" />
    <glyph glyph-name="uni2196" unicode="&#x2196;" horiz-adv-x="689" 
d="M631 48l-412 422h335v67h-444v-458h64v347l411 -426z" />
    <glyph glyph-name="uni2197" unicode="&#x2197;" horiz-adv-x="704" 
d="M558 420v-346h64v457h-445v-64h336l-408 -420l46 -47z" />
    <glyph glyph-name="uni2198" unicode="&#x2198;" horiz-adv-x="687" 
d="M577 0l1 460h-64l-1 -349l-408 420l-45 -46l407 -418h-336v-69z" />
    <glyph glyph-name="uni2199" unicode="&#x2199;" horiz-adv-x="685" 
d="M555 0v67h-336l406 418l-45 46l-406 -420v349h-66v-460h447z" />
    <glyph glyph-name="uni21A9" unicode="&#x21a9;" horiz-adv-x="940" 
d="M852 498q0 96 -67 157q-66 62 -170 62h-13v-65h13q78 -1 123 -42t46 -112q-1 -75 -49 -115t-130 -40h-360v125l-173 -159l173 -157v124h360q121 1 184 60q63 60 63 162v0z" />
    <glyph glyph-name="uni21AA" unicode="&#x21aa;" horiz-adv-x="940" 
d="M89 498q0 -103 63 -162t184 -60h361v-124l172 157l-172 159v-125h-361q-82 0 -129 40q-48 39 -49 115q1 70 45 112q44 41 123 42h13v65h-13q-105 0 -171 -62q-66 -61 -66 -157v0z" />
    <glyph glyph-name="uni21B2" unicode="&#x21b2;" horiz-adv-x="784" 
d="M626 343h-359v125l-174 -159l174 -157v124h424v466h-65v-399z" />
    <glyph glyph-name="uni21B3" unicode="&#x21b3;" horiz-adv-x="784" 
d="M517 468v-125h-360v399h-64v-466h424v-124l174 157z" />
    <glyph glyph-name="uni21BA" unicode="&#x21ba;" horiz-adv-x="824" 
d="M413 -12q141 0 236 94q95 95 95 228q0 99 -46 167t-193 192l1 3l65 -5h143v62h-307v-317h58v146l-5 70l3 2q139 -121 178 -180q39 -57 39 -140q0 -109 -76 -186q-75 -76 -190 -76t-195 77q-78 77 -78 191q0 166 144 254l-35 49q-81 -52 -125 -132t-45 -171
q0 -139 95 -234q96 -94 238 -94v0z" />
    <glyph glyph-name="uni21BB" unicode="&#x21bb;" horiz-adv-x="824" 
d="M409 -12q143 0 239 94q96 95 96 234q0 89 -46 171q-46 83 -125 132l-35 -49q67 -40 104 -105t38 -149q0 -115 -78 -192q-78 -76 -194 -76q-114 0 -191 76q-76 77 -76 186q0 82 38 139q39 58 178 181l3 -2l-5 -70v-146h62v317h-311v-62h144l67 5l1 -3q-145 -121 -192 -190
q-46 -69 -46 -169q0 -133 95 -228q95 -94 234 -94v0z" />
    <glyph glyph-name="emptyset" unicode="&#x2205;" horiz-adv-x="771" 
d="M386 738q-156 0 -250 -102t-94 -272q0 -168 93 -271t251 -103q156 0 250 101q94 102 94 274q0 168 -93 270q-93 103 -251 103v0zM386 641q93 0 154 -61l-352 -367q-31 65 -31 152q0 125 62 200q62 76 167 76v0zM386 89q-85 0 -144 51l349 363q25 -61 25 -139
q0 -125 -62 -200q-61 -75 -168 -75v0z" />
    <glyph glyph-name="product" unicode="&#x220f;" horiz-adv-x="744" 
d="M92 729v-88h106v-641h103v641h145v-641h102v641h105v88h-561z" />
    <glyph glyph-name="summation" unicode="&#x2211;" horiz-adv-x="587" 
d="M540 -164v100h-232l-137 -7v7l238 343l-236 352v7l135 -7l232 1v97h-488v-87l242 -359v-7l-242 -354v-86h488z" />
    <glyph glyph-name="minus" unicode="&#x2212;" horiz-adv-x="625" 
d="M84 250h459v95h-459v-95z" />
    <glyph glyph-name="radical" unicode="&#x221a;" horiz-adv-x="736" 
d="M419 277l-91 -264h-7l-91 267l-49 129h-147v-83h72l149 -403h139l298 806h-107z" />
    <glyph glyph-name="infinity" unicode="&#x221e;" horiz-adv-x="888" 
d="M234 62q66 1 116 39q51 37 94 104q45 -67 94 -105q50 -37 117 -38q43 0 78 15t61 46q54 61 54 149q0 89 -54 150q-26 31 -61 46q-35 16 -78 16q-67 -1 -116 -39t-95 -105q-44 67 -94 105t-116 39q-87 0 -141 -62q-54 -61 -54 -150q0 -91 54 -151q54 -59 141 -59v0z
M237 149q-48 1 -78 35q-29 33 -30 88q1 55 30 88t78 34q40 1 76 -28q36 -28 83 -94q-47 -66 -84 -95t-75 -28v0zM651 149q-40 -1 -76 27q-35 29 -82 96q45 65 81 94t77 28q48 -1 78 -34t31 -88q-1 -56 -31 -89t-78 -34v0z" />
    <glyph glyph-name="integral" unicode="&#x222b;" horiz-adv-x="575" 
d="M325 753q-91 0 -91 -91v-712h-134v-86h146q53 1 73 25t19 64v713h134v87h-147z" />
    <glyph glyph-name="approxequal" unicode="&#x2248;" horiz-adv-x="532" 
d="M150 349q-4 25 6 40q9 16 31 16q18 0 69 -24q53 -24 90 -24q44 -1 73 30q28 31 24 102h-54q1 -29 -11 -44q-11 -15 -36 -15q-24 0 -75 25q-25 13 -45 19q-21 6 -37 6q-40 1 -67 -31q-27 -31 -23 -100h55zM150 151q-4 25 6 41q10 15 31 16q17 0 69 -26q53 -25 90 -25
q44 -1 73 31q28 32 24 103h-54q1 -29 -11 -44q-11 -15 -36 -15q-24 0 -75 24q-49 25 -81 25q-41 1 -68 -30t-23 -100h55z" />
    <glyph glyph-name="notequal" unicode="&#x2260;" horiz-adv-x="603" 
d="M519 441h-99l62 120h-87l-62 -120h-249v-87h203l-61 -118h-142v-85h98l-60 -115h88l60 115h249v85h-205l61 118h144v87z" />
    <glyph glyph-name="lessequal" unicode="&#x2264;" horiz-adv-x="563" 
d="M479 253l-177 70l-129 44v7l133 45l173 70v110l-402 -183v-90l402 -184v111zM479 91h-402v-91h402v91z" />
    <glyph glyph-name="greaterequal" unicode="&#x2265;" horiz-adv-x="563" 
d="M486 326v90l-402 183v-110l173 -70l133 -45v-7l-129 -44l-177 -70v-111zM486 0v91h-402v-91h402z" />
    <glyph glyph-name="filledbox" unicode="&#x25a0;" horiz-adv-x="916" 
d="M111 1h693v728h-693v-728z" />
    <glyph glyph-name="H22073" unicode="&#x25a1;" horiz-adv-x="888" 
d="M98 0h694v729h-694v-729zM732 670v-611h-575v611h575z" />
    <glyph glyph-name="triagup" unicode="&#x25b2;" horiz-adv-x="991" 
d="M68 0h854l-428 737z" />
    <glyph glyph-name="uni25B3" unicode="&#x25b3;" horiz-adv-x="989" 
d="M919 0l-425 738l-423 -738h848zM494 618l321 -556h-640z" />
    <glyph glyph-name="lozenge" unicode="&#x25ca;" horiz-adv-x="2152" 
d="M984 -10q78 0 133 33q54 33 72 96h35l16 -119h111v395h-324v-143h162q-10 -60 -52 -92q-42 -33 -109 -33q-83 0 -129 59q-46 60 -47 176q0 113 47 174q46 62 137 63q111 0 147 -86h156q-18 102 -100 164q-81 62 -202 62q-142 1 -242 -91q-100 -93 -104 -290
q0 -83 20 -150q19 -68 59 -118q79 -100 214 -100v0zM1486 576q36 1 56 23t20 59q0 36 -20 58t-56 23q-34 -1 -56 -23t-23 -58q1 -37 23 -59t56 -23v0zM1684 576q37 1 59 23t22 59q-1 36 -22 58q-22 22 -59 23q-34 -1 -54 -23q-21 -22 -22 -58q1 -37 21 -59q21 -22 55 -23v0z
M310 0q158 0 246 93q89 93 90 273q-1 181 -89 272t-247 91h-271v-729h271zM1886 572v126h44v31h-118v-31h38v-126h36zM1984 572v135l21 -135h52l17 135v-135h40v157h-61l-23 -127l-17 127h-63v-157h34zM145 109q3 3 12 14q8 10 11 15l10 15q9 15 12 31q3 17 4 43v276
q0 48 -15 71q-4 7 -9 15t-11 12q-1 3 -7 9q-6 5 -7 8l26 30l29 -27q5 -4 13 -8t19 -9q24 -10 52 -10h26q14 1 31 -2t44 -17q28 -13 49 -36q22 -22 38 -68q16 -45 17 -108q-1 -64 -18 -111t-40 -69q-21 -21 -52 -33q-29 -11 -43 -13q-14 -3 -26 -2h-26q-37 0 -62 -12
q-25 -13 -51 -40zM1582 0v214q0 164 165 148v147q-52 0 -89 -20q-37 -19 -50 -56h-27l-7 58h-141v-491h149z" />
    <glyph glyph-name="circle" unicode="&#x25cb;" horiz-adv-x="825" 
d="M413 -10q155 0 261 105q107 105 107 270q0 163 -107 268q-106 105 -261 105t-262 -105q-106 -105 -106 -268q0 -165 106 -270t262 -105v0zM192 132q-91 92 -91 233t91 232q92 91 221 91t220 -91q92 -91 92 -232t-92 -233q-91 -92 -220 -92t-221 92v0z" />
    <glyph glyph-name="H18533" unicode="&#x25cf;" horiz-adv-x="899" 
d="M451 -10q156 0 259 107q104 108 104 269q0 159 -104 265q-103 107 -259 107q-157 0 -262 -107q-105 -106 -105 -265q0 -161 105 -269q105 -107 262 -107v0z" />
    <glyph glyph-name="uni262E" unicode="&#x262e;" horiz-adv-x="874" 
d="M437 737q-160 0 -264 -105q-104 -103 -104 -270q0 -168 104 -273q104 -104 264 -104q161 0 264 104q104 105 104 273q0 167 -105 270q-104 105 -263 105v0zM755 362q0 -79 -28 -144l-267 165v310q65 -4 118 -29t94 -71q83 -91 83 -231v0zM413 383l-267 -165
q-28 68 -28 144q0 140 83 231q42 46 95 71t117 29v-310zM413 326v-296q-79 6 -142 43q-63 38 -103 102zM460 326l245 -151q-40 -64 -103 -102q-63 -37 -142 -43v296z" />
    <glyph glyph-name="uni2639" unicode="&#x2639;" horiz-adv-x="877" 
d="M68 365q0 -82 27 -149t80 -120q108 -106 263 -106q156 0 263 106q108 106 108 269q0 161 -108 267t-263 106t-263 -106q-107 -106 -107 -267v0zM117 365q0 141 94 235q95 94 228 94q67 0 123 -23q57 -24 104 -71q95 -94 95 -235q0 -128 -82 -224q-35 52 -99 83t-142 32
q-76 -1 -139 -31q-64 -30 -100 -84q-82 92 -82 224v0zM309 437q0 -49 14 -77q13 -28 38 -29q51 0 51 106t-51 106q-24 0 -38 -27t-14 -79v0zM468 437q0 -48 14 -77q13 -28 38 -29q52 0 52 106q0 49 -14 77q-13 28 -38 29q-24 0 -38 -27t-14 -79v0zM234 109q28 46 83 73
q54 27 122 28q67 -1 122 -28t83 -73q-93 -75 -205 -75q-111 0 -205 75v0z" />
    <glyph glyph-name="smileface" unicode="&#x263a;" horiz-adv-x="877" 
d="M809 365q0 161 -108 267t-263 106t-263 -106q-107 -106 -107 -267q0 -82 27 -149t80 -120q108 -106 263 -106q156 0 263 106q108 106 108 269v0zM439 34q-133 0 -228 94q-94 95 -94 237q0 141 94 235q95 94 228 94q67 0 123 -23q57 -24 104 -71q95 -94 95 -235
q0 -140 -94 -236q-93 -95 -228 -95v0zM361 331q51 0 51 106t-51 106q-24 0 -38 -27t-14 -79q0 -49 14 -77q13 -28 38 -29v0zM520 331q52 0 52 106q0 49 -14 77q-13 28 -38 29q-24 0 -38 -27t-14 -79q0 -48 14 -77q13 -28 38 -29v0zM599 312h31q-13 -67 -64 -106t-127 -40
q-73 0 -126 40q-26 20 -42 47q-17 27 -22 59h33v17h-108v-17h25q7 -43 27 -78t53 -61q66 -52 159 -52q92 0 159 52q68 53 81 139h29v17h-108v-17z" />
    <glyph glyph-name="uni2708" unicode="&#x2708;" horiz-adv-x="926" 
d="M149 207l69 109l210 -14l-99 -276h90l144 240q8 14 18 19t30 5l59 -4q61 -4 109 20q49 26 49 60q0 33 -49 58q-49 26 -109 21l-59 -4q-33 1 -48 26l-144 238h-90l99 -276l-210 -12l-69 108h-50l35 -159l-35 -159h50z" />
    <glyph glyph-name="uni2713" unicode="&#x2713;" horiz-adv-x="924" 
d="M354 194l-156 181l-64 -59l217 -250l439 431l-61 69z" />
    <glyph glyph-name="uni2714" unicode="&#x2714;" horiz-adv-x="1287" 
d="M1116 717q-442 -247 -690 -560q-94 153 -243 271l-116 -128q101 -84 187 -175q86 -92 157 -190q157 173 359 326q202 152 450 285z" />
    <glyph glyph-name="uni2776" unicode="&#x2776;" horiz-adv-x="895" 
d="M449 -9q162 0 273 111t111 274q0 161 -111 272q-111 112 -273 112q-163 0 -276 -111q-111 -111 -111 -273q0 -163 111 -274q113 -111 276 -111v0zM438 438h-112v56h39q76 0 76 76v4h69v-417h-72v281z" />
    <glyph glyph-name="uni2777" unicode="&#x2777;" horiz-adv-x="896" 
d="M449 -9q163 0 274 111q111 112 111 275q0 162 -111 272q-111 111 -274 111q-165 0 -276 -111q-111 -110 -111 -272q0 -163 111 -275q111 -111 276 -111v0zM319 171q3 70 42 113t82 71q29 21 48 46t20 54q0 28 -17 45q-16 17 -46 17q-31 0 -49 -20q-17 -20 -17 -53l-71 5
q1 59 40 94t101 36q61 -1 97 -34q35 -34 36 -89q-1 -43 -25 -79q-23 -36 -55 -58q-31 -22 -62 -49q-30 -27 -41 -52l64 3h117v-64h-264v14z" />
    <glyph glyph-name="uni2778" unicode="&#x2778;" horiz-adv-x="896" 
d="M449 -9q163 0 274 111t111 274q0 162 -111 273t-274 111t-276 -111q-111 -111 -111 -273q0 -163 111 -274q113 -111 276 -111v0zM588 273q-1 -55 -39 -88t-101 -34q-63 1 -100 36q-38 35 -38 96h73q0 -33 17 -51t47 -18q30 1 49 18q18 17 18 44q-1 30 -20 46
q-20 17 -51 17h-33v62h26q33 0 51 17q18 16 18 43t-16 42q-16 14 -43 14q-31 0 -47 -19q-17 -19 -16 -50h-73q-1 59 36 95t101 37q60 -1 96 -32t37 -83q0 -27 -15 -51q-14 -25 -45 -38v-3q68 -27 68 -100v0z" />
    <glyph glyph-name="uni2779" unicode="&#x2779;" horiz-adv-x="897" 
d="M449 -9q163 0 274 111q56 56 84 125q28 68 28 150q0 161 -112 272q-111 111 -274 111t-276 -111q-111 -110 -111 -272q0 -163 111 -275q113 -111 276 -111v0zM472 248h-189v59l148 267h111v-264h47v-62h-47v-91h-70v91zM472 310v196l-110 -196h110z" />
    <glyph glyph-name="uni277A" unicode="&#x277a;" horiz-adv-x="897" 
d="M450 -9q163 0 274 111t111 274q0 162 -111 273t-274 111q-165 0 -277 -111q-111 -111 -111 -273q0 -163 111 -274q112 -111 277 -111v0zM455 151q-64 1 -103 37t-39 97h73q0 -30 19 -50q18 -20 51 -21q31 0 51 21q19 21 20 57q0 37 -20 59q-19 22 -52 23q-22 0 -40 -10
q-18 -11 -25 -28h-68v238h255v-63h-185v-60l-2 -40l3 -3q11 14 31 21q19 7 45 7q59 -1 95 -39q36 -39 37 -102q-1 -65 -40 -104q-40 -39 -106 -40v0z" />
    <glyph glyph-name="uni277B" unicode="&#x277b;" horiz-adv-x="905" 
d="M453 -17q82 0 151 28q70 28 126 84q113 113 113 278q0 82 -28 150q-29 69 -85 125q-112 112 -277 112t-278 -112q-56 -56 -85 -125q-28 -68 -28 -150q0 -165 112 -278q113 -112 279 -112v0zM455 151q-74 1 -113 55q-39 55 -39 154q0 102 40 161q40 58 118 59
q56 -1 91 -31t41 -80h-71q-6 23 -23 36q-17 12 -41 12q-82 0 -82 -134h3q14 25 40 38q25 13 54 13q58 -1 93 -39q34 -38 35 -101q-1 -64 -41 -103t-105 -40v0zM457 214q33 1 52 22t19 57t-19 57t-52 22q-33 -1 -52 -23t-19 -56t19 -56t52 -23v0z" />
    <glyph glyph-name="uni277C" unicode="&#x277c;" horiz-adv-x="897" 
d="M449 -9q163 0 274 111q112 111 112 274q0 162 -112 273q-111 111 -274 111t-276 -111q-111 -111 -111 -273t111 -274q113 -111 276 -111v0zM363 157q16 96 54 188t93 166h-135v-69h-53v132h277v-51q-125 -162 -160 -366h-76z" />
    <glyph glyph-name="uni277D" unicode="&#x277d;" horiz-adv-x="896" 
d="M449 -9q163 0 274 111t111 274q0 162 -111 273t-274 111t-276 -111q-111 -111 -111 -273t111 -274q113 -111 276 -111v0zM448 151q-67 1 -106 32q-38 31 -39 84q0 31 17 58q16 26 44 39v4q-61 27 -61 96q1 54 40 85q39 30 105 31q68 -1 106 -32q39 -32 40 -84
q0 -31 -16 -57t-45 -39v-4q28 -13 44 -39q17 -27 17 -58q-1 -54 -40 -85q-40 -30 -106 -31v0zM448 517q-51 0 -67 -38t15 -68q22 -17 52 -17t52 17q20 18 20 44q0 28 -20 45q-19 17 -52 17v0zM448 214q33 0 53 17q19 17 19 44q0 28 -20 45q-19 17 -52 17t-52 -17
q-20 -17 -20 -45q1 -28 21 -44q20 -17 51 -17v0z" />
    <glyph glyph-name="uni277E" unicode="&#x277e;" horiz-adv-x="897" 
d="M449 -9q163 0 274 111q112 111 112 274q0 162 -112 273q-111 111 -274 111t-275 -111t-112 -273q0 -163 111 -274q113 -111 276 -111v0zM448 151q-57 1 -92 30t-42 80h73q4 -23 22 -36q18 -12 42 -12q82 0 82 134h-3q-13 -24 -39 -37q-25 -14 -55 -14q-58 1 -93 39
q-35 39 -36 102q0 62 41 102q41 41 105 41q75 -1 114 -56q38 -55 38 -154q0 -102 -39 -160q-40 -58 -118 -59v0zM380 437q0 -36 20 -57q19 -22 52 -22q33 1 52 23t19 57q0 34 -19 56q-19 21 -52 22q-33 -1 -52 -22q-20 -21 -20 -57v0z" />
    <glyph glyph-name="uni2780" unicode="&#x2780;" horiz-adv-x="895" 
d="M449 -9q162 0 273 111t111 274q0 161 -111 272q-111 112 -273 112q-163 0 -276 -111q-111 -111 -111 -273q0 -163 111 -274q113 -111 276 -111v0zM449 29q-147 0 -248 101q-100 101 -100 246q0 73 25 134t75 111q101 100 248 100q146 0 246 -101q100 -100 100 -244
q0 -145 -100 -246t-246 -101v0zM438 157h72v417h-69v-4q0 -32 -18 -53q-18 -22 -58 -23h-39v-56h112v-281z" />
    <glyph glyph-name="uni2781" unicode="&#x2781;" horiz-adv-x="896" 
d="M449 760q-165 0 -276 -111q-111 -110 -111 -272q0 -163 111 -275q111 -111 276 -111q163 0 274 111q111 112 111 275q0 162 -111 272q-111 111 -274 111v0zM449 29q-147 0 -248 101q-50 50 -75 112t-25 135t25 134t75 111q101 100 248 100q146 0 246 -101
q101 -100 101 -244q0 -73 -25 -135q-26 -62 -76 -112q-100 -101 -246 -101v0zM585 456q-1 55 -36 89q-36 33 -97 34q-62 -1 -101 -36t-40 -94l71 -5q0 33 17 53q18 20 49 20q30 0 46 -17q17 -17 17 -45q-3 -45 -42 -78t-82 -66q-29 -23 -48 -59t-20 -81v-14h264v64h-117
l-64 -3q11 25 41 52q31 27 62 49q32 22 55 58q24 36 25 79v0z" />
    <glyph glyph-name="uni2782" unicode="&#x2782;" horiz-adv-x="896" 
d="M449 -9q163 0 274 111t111 274q0 162 -111 273t-274 111t-276 -111q-111 -111 -111 -273q0 -163 111 -274q113 -111 276 -111v0zM449 29q-147 0 -248 101q-100 101 -100 246q0 73 25 134t75 111q101 101 248 101q146 0 246 -101q50 -50 76 -111q25 -61 25 -134
q0 -145 -101 -246q-100 -101 -246 -101v0zM310 283q0 -61 38 -96q37 -35 100 -36q63 1 101 34t39 88q0 73 -68 100v3q31 13 45 38q15 24 15 51q-1 52 -37 83t-96 32q-64 -1 -101 -37t-36 -95h73q-1 31 16 50q16 19 47 19q27 0 43 -14q16 -15 16 -42t-18 -43q-18 -17 -51 -17
h-26v-62h33q31 0 51 -17q19 -16 20 -46q0 -27 -18 -44q-19 -17 -49 -18q-30 0 -47 18t-17 51h-73z" />
    <glyph glyph-name="uni2783" unicode="&#x2783;" horiz-adv-x="897" 
d="M62 377q0 -163 111 -275q113 -111 276 -111t274 111q56 56 84 125q28 68 28 150q0 161 -112 272q-111 111 -274 111t-276 -111q-111 -110 -111 -272v0zM101 377q0 144 100 244q101 101 248 101q146 0 246 -101q100 -100 100 -244q0 -73 -25 -135t-75 -112
q-100 -101 -246 -101q-147 0 -248 101q-50 50 -75 112t-25 135v0zM472 248v-91h70v91h47v62h-47v264h-111l-148 -267v-59h189zM472 506v-196h-110z" />
    <glyph glyph-name="uni2784" unicode="&#x2784;" horiz-adv-x="897" 
d="M450 -9q163 0 274 111t111 274q0 162 -111 273t-274 111q-165 0 -277 -111q-111 -111 -111 -273q0 -163 111 -274q112 -111 277 -111v0zM450 29q-148 0 -249 101q-100 101 -100 246q0 146 100 246q101 101 249 101q146 0 246 -101q101 -100 101 -246q0 -145 -101 -246
q-100 -101 -246 -101v0zM455 151q66 1 106 40q39 39 40 104q-1 63 -37 102q-36 38 -95 39q-26 0 -45 -7q-20 -7 -31 -21l-3 3l2 40v60h185v63h-255v-238h68q7 17 25 28q18 10 40 10q33 -1 52 -23q20 -22 20 -59q-1 -36 -20 -57q-20 -21 -51 -21q-33 1 -51 21q-19 20 -19 50
h-73q0 -61 39 -97t103 -37v0z" />
    <glyph glyph-name="uni2785" unicode="&#x2785;" horiz-adv-x="905" 
d="M62 373q0 -165 112 -278q113 -112 279 -112q82 0 151 28q70 28 126 84q113 113 113 278q0 82 -28 150q-29 69 -85 125q-112 112 -277 112t-278 -112q-56 -56 -85 -125q-28 -68 -28 -150v0zM453 23q-149 0 -251 101q-101 102 -101 249t101 248q102 101 251 101
q147 0 248 -101q102 -101 102 -248t-101 -249q-100 -101 -249 -101v0zM303 360q0 -99 39 -154q39 -54 113 -55q65 1 105 40t41 103q-1 63 -35 101q-35 38 -93 39q-29 0 -54 -13q-26 -13 -40 -38h-3q0 134 82 134q24 0 41 -12q17 -13 23 -36h71q-6 50 -41 80t-91 31
q-78 -1 -118 -59q-40 -59 -40 -161v0zM386 293q0 34 19 56t52 23q33 -1 52 -22t19 -57t-19 -57t-52 -22q-33 1 -52 23t-19 56v0z" />
    <glyph glyph-name="uni2786" unicode="&#x2786;" horiz-adv-x="897" 
d="M449 -9q163 0 274 111q112 111 112 274q0 162 -112 273q-111 111 -274 111t-276 -111q-111 -111 -111 -273t111 -274q113 -111 276 -111v0zM449 29q-147 0 -248 101q-100 101 -100 246q0 73 25 134t75 111q101 101 248 101q146 0 246 -101q50 -50 75 -111t25 -134
q0 -145 -100 -246t-246 -101v0zM439 157q35 204 160 366v51h-277v-132h53v69h135q-55 -74 -93 -166t-54 -188h76z" />
    <glyph glyph-name="uni2787" unicode="&#x2787;" horiz-adv-x="896" 
d="M449 -9q163 0 274 111t111 274q0 162 -111 273t-274 111t-276 -111q-111 -111 -111 -273t111 -274q113 -111 276 -111v0zM449 29q-147 0 -248 101q-100 101 -100 246q0 73 25 134t75 111q101 101 248 101q146 0 246 -101q50 -50 75 -111t25 -134q0 -145 -100 -246
t-246 -101v0zM448 151q66 1 106 31q39 31 40 85q0 31 -17 58q-16 26 -44 39v4q29 13 45 39t16 57q-1 52 -40 84q-38 31 -106 32q-66 -1 -105 -31q-39 -31 -40 -85q0 -69 61 -96v-4q-28 -13 -44 -39q-17 -27 -17 -58q1 -53 39 -84q39 -31 106 -32v0zM520 455q0 -27 -20 -44
q-19 -16 -52 -17q-16 0 -29 4q-13 5 -23 13q-31 30 -15 68t67 38q33 0 52 -17q20 -17 20 -45v0zM448 214q-31 0 -51 17q-20 16 -21 44q0 28 20 45q19 17 52 17t52 -17q20 -17 20 -45q0 -27 -19 -44q-20 -17 -53 -17v0z" />
    <glyph glyph-name="uni2788" unicode="&#x2788;" horiz-adv-x="897" 
d="M449 -9q163 0 274 111q112 111 112 274q0 162 -112 273q-111 111 -274 111t-275 -111t-112 -273q0 -163 111 -274q113 -111 276 -111v0zM449 29q-147 0 -248 101q-100 101 -100 246q0 73 25 134t75 111q101 101 248 101q146 0 246 -101q50 -50 75 -111t25 -134
q0 -145 -100 -246t-246 -101v0zM448 151q78 1 118 59q39 58 39 160q0 99 -38 154q-39 55 -114 56q-64 0 -105 -41q-41 -40 -41 -102q1 -63 36 -102q35 -38 93 -39q30 0 55 14q26 13 39 37h3q0 -134 -82 -134q-24 0 -42 12q-18 13 -22 36h-73q7 -51 42 -80t92 -30v0zM523 438
q0 -35 -19 -57t-52 -23q-33 0 -52 22q-20 21 -20 57t20 57q19 21 52 22q33 -1 52 -22q19 -22 19 -56v0z" />
    <glyph glyph-name="uniECE0" unicode="&#xece0;" horiz-adv-x="1042" 
d="M140 321h157q17 -142 120 -237q104 -93 243 -93q90 0 167 42q77 41 130 117l-72 52q-37 -56 -97 -89q-60 -34 -130 -35q-56 0 -104 21q-49 21 -90 62q-82 83 -82 204q0 120 82 203q41 41 90 62q48 21 104 21q68 -1 129 -34q61 -34 99 -91l71 53q-53 75 -130 116t-167 42
q-141 0 -244 -95q-52 -47 -81 -106q-30 -59 -38 -130h-157v235h197l69 88h-348v-732l82 62v262zM534 365q0 26 9 49t26 42q36 38 88 38q69 0 107 -62l69 53q-30 45 -76 70q-45 25 -98 25q-87 0 -150 -64q-62 -63 -62 -151t62 -153q62 -64 150 -64q52 0 98 25q45 25 76 71
l-69 52q-18 -28 -46 -45q-28 -18 -61 -18q-52 0 -88 38q-35 39 -35 94v0z" />
    <glyph glyph-name="uniEFCC" unicode="&#xefcc;" horiz-adv-x="1198" 
d="M478 734q-162 0 -262 -103t-100 -270q0 -166 99 -270q50 -52 116 -77q65 -26 147 -26q20 0 38 2v103q-15 -3 -37 -3q-118 0 -192 75q-72 75 -72 196q0 122 72 197q74 75 192 75q16 0 37 -3v102q-14 2 -38 2v0zM741 366q0 -168 96 -269q49 -50 114 -75q64 -25 146 -25
q24 0 44 2v103q-12 -3 -40 -3q-102 0 -174 54q-70 55 -81 166h219v94h-219q11 110 81 165q72 55 174 55q21 0 40 -3v102q-18 2 -44 2q-82 0 -146 -25q-65 -26 -114 -76q-96 -100 -96 -267v0z" />
    <glyph glyph-name="uniF8FF" unicode="&#xf8ff;" horiz-adv-x="640" 
d="M429 632q21 28 31 58q10 29 8 45q-1 7 -1 12q-1 5 0 7l-17 -1q-19 -1 -47 -18q-29 -17 -53 -48q-24 -32 -29 -60q-4 -28 -2 -44l1 -10l18 3q19 4 46 18q26 15 45 38v0zM211 0q17 0 58 15t66 15q24 0 62 -15q39 -14 59 -14q30 1 57 21q27 21 46 48q18 27 33 61t21 49
q5 14 7 21l-10 5q-23 10 -55 46q-31 37 -34 103q5 74 40 108t40 34l-5 8q-9 17 -44 42q-34 24 -92 26q-38 0 -80 -18q-41 -18 -56 -18q-8 0 -22 4q-14 5 -34 13q-40 17 -70 17q-70 0 -124 -62q-26 -31 -40 -72q-13 -42 -13 -94q0 -75 28 -156q14 -40 33 -73q18 -34 40 -61
q45 -53 89 -53v0z" />
    <glyph glyph-name="uniFB01" unicode="&#xfb01;" horiz-adv-x="613" 
d="M211 526v51q0 40 18 59q18 20 60 20q24 0 46 -5v84q-22 7 -63 7q-78 0 -120 -38q-42 -39 -43 -117v-61h-96v-86h96v-440h102v440h218v-440h103v526h-321zM429 605h103v123h-103v-123z" />
    <glyph glyph-name="uniFB02" unicode="&#xfb02;" horiz-adv-x="624" 
d="M440 526h-229v51q0 40 18 59q18 20 60 20q24 0 46 -5v84q-22 7 -63 7q-78 0 -121 -38q-42 -39 -43 -117v-61h-95v-86h95v-440h103v440h229v-440h103v736h-103v-210z" />
    <glyph glyph-name="glyph460" horiz-adv-x="399" 
d="M453 889l-46 78l-186 -140l32 -51zM309 729h-108v-517q0 -124 -112 -124q-46 0 -73 6v-94q27 -8 87 -8q206 0 206 211v526z" />
    <glyph glyph-name="glyph461" horiz-adv-x="774" 
d="M392 -10q152 0 245 94q94 94 94 247v53h-321v-95h206q-3 -91 -65 -147t-158 -56q-111 0 -174 75q-62 75 -62 202q0 128 63 202q63 75 172 75q82 -1 137 -40q55 -40 70 -112h117q-16 112 -106 181q-89 69 -217 69q-157 0 -255 -104q-96 -103 -96 -272q0 -168 95 -270
q96 -102 255 -102v0z" />
    <glyph glyph-name="glyph462" horiz-adv-x="774" 
d="M467 927q0 -40 -22 -63q-21 -23 -58 -23q-36 0 -58 23q-21 23 -22 63h-68q1 -67 40 -107t108 -41q69 1 109 41q39 40 40 107h-69zM392 -10q152 0 245 94q94 94 94 247v53h-321v-95h206q-3 -91 -65 -147t-158 -56q-111 0 -174 75q-62 75 -62 202q0 128 63 202
q63 75 172 75q82 -1 137 -40q55 -40 70 -112h117q-16 112 -106 181q-89 69 -217 69q-157 0 -255 -104q-96 -103 -96 -272q0 -168 95 -270q96 -102 255 -102v0z" />
    <glyph glyph-name="glyph463" horiz-adv-x="774" 
d="M392 -10q152 0 245 94q94 94 94 247v53h-321v-95h206q-3 -91 -65 -147t-158 -56q-111 0 -174 75q-62 75 -62 202q0 128 63 202q63 75 172 75q82 -1 137 -40q55 -40 70 -112h117q-16 112 -106 181q-89 69 -217 69q-157 0 -255 -104q-96 -103 -96 -272q0 -168 95 -270
q96 -102 255 -102v0zM343 -249q92 0 92 86v104h-95v-105h50v-9q0 -44 -47 -44v-32z" />
    <glyph glyph-name="glyph464" horiz-adv-x="774" 
d="M433 794v127h-91v-127h91zM392 -10q152 0 245 94q94 94 94 247v53h-321v-95h206q-3 -91 -65 -147t-158 -56q-111 0 -174 75q-62 75 -62 202q0 128 63 202q63 75 172 75q82 -1 137 -40q55 -40 70 -112h117q-16 112 -106 181q-89 69 -217 69q-157 0 -255 -104
q-96 -103 -96 -272q0 -168 95 -270q96 -102 255 -102v0z" />
    <glyph glyph-name="glyph465" horiz-adv-x="705" 
d="M202 0v275h151q23 0 41 -4q18 -3 29 -10q24 -14 43 -62l79 -199h120l-79 196q-33 83 -71 96v8q64 24 100 76q36 53 37 126q-1 105 -65 166q-65 60 -183 61h-309v-729h107zM202 630h191q67 0 105 -33t39 -98q0 -63 -36 -98q-37 -34 -108 -35h-191v264z" />
    <glyph glyph-name="glyph466" horiz-adv-x="705" 
d="M572 889l-46 78l-186 -140l32 -51zM202 0v275h151q23 0 41 -4q18 -3 29 -10q24 -14 43 -62l79 -199h120l-79 196q-33 83 -71 96v8q64 24 100 76q36 53 37 126q-1 105 -65 166q-65 60 -183 61h-309v-729h107zM202 630h191q67 0 105 -33t39 -98q0 -63 -36 -98
q-37 -34 -108 -35h-191v264z" />
    <glyph glyph-name="glyph467" horiz-adv-x="705" 
d="M341 789h66l123 129l-51 48l-106 -113l-104 113l-52 -48zM202 0v275h151q23 0 41 -4q18 -3 29 -10q24 -14 43 -62l79 -199h120l-79 196q-33 83 -71 96v8q64 24 100 76q36 53 37 126q-1 105 -65 166q-65 60 -183 61h-309v-729h107zM202 630h191q67 0 105 -33t39 -98
q0 -63 -36 -98q-37 -34 -108 -35h-191v264z" />
    <glyph glyph-name="glyph468" horiz-adv-x="705" 
d="M202 0v275h151q23 0 41 -4q18 -3 29 -10q24 -14 43 -62l79 -199h120l-79 196q-33 83 -71 96v8q64 24 100 76q36 53 37 126q-1 105 -65 166q-65 60 -183 61h-309v-729h107zM202 630h191q67 0 105 -33t39 -98q0 -63 -36 -98q-37 -34 -108 -35h-191v264zM329 -249
q92 0 92 86v104h-95v-105h50v-9q0 -44 -47 -44v-32z" />
    <glyph glyph-name="glyph469" horiz-adv-x="264" 
d="M183 591v127h-100v-127h100zM184 0v526h-103v-526h103z" />
    <glyph glyph-name="glyph470" horiz-adv-x="268" 
d="M335 685l-46 78l-186 -140l32 -51zM35 -176q77 1 115 42q37 42 37 117v543h-103v-536q1 -41 -17 -62q-17 -20 -61 -20q-8 0 -15 1t-14 3v-83q16 -2 31 -4q14 -1 27 -1v0z" />
    <glyph glyph-name="glyph471" horiz-adv-x="678" 
d="M203 0v517q0 60 35 94q34 33 98 34q45 0 80 -18t47 -48l-151 -218q205 2 205 -133q-1 -65 -46 -99q-44 -33 -124 -33h-79v-96h96q121 0 193 58q72 59 72 158q-1 79 -46 134q-46 54 -125 70l117 160q-18 73 -81 115q-64 42 -157 43q-113 -1 -177 -58q-64 -58 -65 -166
v-514h108z" />
    <glyph glyph-name="glyph472" horiz-adv-x="633" 
d="M460 526l-12 -95h-6q-21 49 -68 77q-46 27 -110 28q-102 0 -163 -75q-60 -75 -60 -199t60 -198q31 -37 71 -55q40 -19 90 -19q64 1 111 29q47 29 69 78h6v-97h104v526h-92zM448 233q0 -67 -43 -111q-22 -22 -49 -32q-27 -11 -61 -11q-67 0 -107 47t-41 137q1 92 41 138
q41 45 107 45q32 0 60 -11q27 -11 49 -33q44 -44 44 -110v-59z" />
    <glyph glyph-name="glyph473" horiz-adv-x="633" 
d="M484 696l-46 78l-186 -140l32 -51zM460 526l-12 -95h-6q-21 49 -68 77q-46 27 -110 28q-102 0 -163 -75q-60 -75 -60 -199t60 -198q31 -37 71 -55q40 -19 90 -19q64 1 111 29q47 29 69 78h6v-97h104v526h-92zM448 233q0 -67 -43 -111q-22 -22 -49 -32q-27 -11 -61 -11
q-67 0 -107 47t-41 137q1 92 41 138q41 45 107 45q32 0 60 -11q27 -11 49 -33q44 -44 44 -110v-59z" />
    <glyph glyph-name="glyph474" horiz-adv-x="633" 
d="M365 735q0 -40 -22 -63q-21 -23 -58 -23q-36 0 -58 23q-21 23 -22 63h-68q1 -67 40 -107t108 -41q69 1 109 41q39 40 40 107h-69zM460 526l-12 -95h-6q-21 49 -68 77q-46 27 -110 28q-102 0 -163 -75q-60 -75 -60 -199t60 -198q31 -37 71 -55q40 -19 90 -19q64 1 111 29
q47 29 69 78h6v-97h104v526h-92zM448 233q0 -67 -43 -111q-22 -22 -49 -32q-27 -11 -61 -11q-67 0 -107 47t-41 137q1 92 41 138q41 45 107 45q32 0 60 -11q27 -11 49 -33q44 -44 44 -110v-59z" />
    <glyph glyph-name="glyph475" horiz-adv-x="633" 
d="M180 584l106 112l106 -112l51 49l-123 127h-66l-124 -127zM460 526l-12 -95h-6q-21 49 -68 77q-46 27 -110 28q-102 0 -163 -75q-60 -75 -60 -199t60 -198q31 -37 71 -55q40 -19 90 -19q64 1 111 29q47 29 69 78h6v-97h104v526h-92zM448 233q0 -67 -43 -111
q-22 -22 -49 -32q-27 -11 -61 -11q-67 0 -107 47t-41 137q1 92 41 138q41 45 107 45q32 0 60 -11q27 -11 49 -33q44 -44 44 -110v-59z" />
    <glyph glyph-name="glyph476" horiz-adv-x="633" 
d="M232 601v127h-90v-127h90zM428 601v127h-90v-127h90zM460 526l-12 -95h-6q-21 49 -68 77q-46 27 -110 28q-102 0 -163 -75q-60 -75 -60 -199t60 -198q31 -37 71 -55q40 -19 90 -19q64 1 111 29q47 29 69 78h6v-97h104v526h-92zM448 233q0 -67 -43 -111q-22 -22 -49 -32
q-27 -11 -61 -11q-67 0 -107 47t-41 137q1 92 41 138q41 45 107 45q32 0 60 -11q27 -11 49 -33q44 -44 44 -110v-59z" />
    <glyph glyph-name="glyph477" horiz-adv-x="633" 
d="M319 636l-186 139l-46 -77l199 -114zM460 526l-12 -95h-6q-21 49 -68 77q-46 27 -110 28q-102 0 -163 -75q-60 -75 -60 -199t60 -198q31 -37 71 -55q40 -19 90 -19q64 1 111 29q47 29 69 78h6v-97h104v526h-92zM448 233q0 -67 -43 -111q-22 -22 -49 -32q-27 -11 -61 -11
q-67 0 -107 47t-41 137q1 92 41 138q41 45 107 45q32 0 60 -11q27 -11 49 -33q44 -44 44 -110v-59z" />
    <glyph glyph-name="glyph478" horiz-adv-x="633" 
d="M447 597v76h-322v-76h322zM460 526l-12 -95h-6q-21 49 -68 77q-46 27 -110 28q-102 0 -163 -75q-60 -75 -60 -199t60 -198q31 -37 71 -55q40 -19 90 -19q64 1 111 29q47 29 69 78h6v-97h104v526h-92zM448 233q0 -67 -43 -111q-22 -22 -49 -32q-27 -11 -61 -11
q-67 0 -107 47t-41 137q1 92 41 138q41 45 107 45q32 0 60 -11q27 -11 49 -33q44 -44 44 -110v-59z" />
    <glyph glyph-name="glyph479" horiz-adv-x="633" 
d="M526 -127q-62 0 -62 47q0 59 85 80h3v526h-92l-12 -95h-6q-21 49 -68 77q-46 27 -110 28q-102 0 -163 -75q-60 -75 -60 -199t60 -198q31 -37 71 -55q40 -19 90 -19q64 1 111 29q47 29 69 78h6v-93q-52 -37 -52 -97q1 -43 31 -68q29 -26 79 -27q22 -1 42 2q20 4 37 11v60
q-29 -12 -59 -12v0zM295 79q-67 0 -107 47t-41 137q1 92 41 138q41 45 107 45q32 0 60 -11q27 -11 49 -33q44 -44 44 -110v-59q0 -67 -43 -111q-22 -22 -49 -32q-27 -11 -61 -11v0z" />
    <glyph glyph-name="glyph480" horiz-adv-x="633" 
d="M448 431h-6q-13 31 -36 53t-55 35q45 32 45 92q-1 52 -32 82q-31 29 -83 30q-52 -1 -83 -30q-31 -30 -32 -82q0 -52 35 -84q-76 -23 -117 -92q-42 -70 -43 -173q0 -124 60 -198q31 -37 71 -55q40 -19 90 -19q64 1 111 29q47 29 69 78h6v-97h104v526h-92zM282 669
q24 0 38 -16q15 -15 15 -42q0 -25 -15 -41q-14 -16 -38 -16t-39 16t-15 41q0 27 15 42q15 16 39 16v0zM448 233q0 -67 -43 -111q-22 -22 -49 -32q-27 -11 -61 -11q-67 0 -107 47t-41 137q1 92 41 138q41 45 107 45q32 0 60 -11q27 -11 49 -33q44 -44 44 -110v-59z" />
    <glyph glyph-name="glyph481" horiz-adv-x="633" 
d="M350 590q63 2 99 81l-44 31q-25 -33 -55 -35q-11 -1 -26 4q-16 5 -36 15q-40 20 -66 19q-31 -2 -56 -22t-44 -58l44 -31q23 33 53 34q10 1 24 -4q15 -5 35 -16q41 -19 72 -18v0zM460 526l-12 -95h-6q-21 49 -68 77q-46 27 -110 28q-102 0 -163 -75q-60 -75 -60 -199
t60 -198q31 -37 71 -55q40 -19 90 -19q64 1 111 29q47 29 69 78h6v-97h104v526h-92zM448 233q0 -67 -43 -111q-22 -22 -49 -32q-27 -11 -61 -11q-67 0 -107 47t-41 137q1 92 41 138q41 45 107 45q32 0 60 -11q27 -11 49 -33q44 -44 44 -110v-59z" />
    <glyph glyph-name="glyph482" horiz-adv-x="625" 
d="M65 -21q7 -71 68 -113q60 -42 163 -43q115 1 181 58q66 56 67 159v486h-92l-5 -95h-8q-22 49 -67 77q-46 28 -107 28q-100 0 -162 -73t-62 -187q0 -116 61 -188q62 -72 160 -72q60 1 106 28q46 28 67 76h7v-90q0 -61 -37 -95q-37 -35 -109 -36q-57 0 -91 22
q-35 21 -39 58h-101zM292 102q-64 0 -104 44t-41 128q1 82 42 126q40 45 104 45q63 0 106 -43t43 -106v-45q0 -32 -11 -59q-10 -26 -32 -48q-42 -42 -107 -42v0z" />
    <glyph glyph-name="glyph483" horiz-adv-x="625" 
d="M350 736q0 -40 -22 -63q-21 -23 -58 -23q-36 0 -58 23q-21 23 -22 63h-68q1 -67 40 -107t108 -41q69 1 109 41q39 40 40 107h-69zM65 -21q7 -71 68 -113q60 -42 163 -43q115 1 181 58q66 56 67 159v486h-92l-5 -95h-8q-22 49 -67 77q-46 28 -107 28q-100 0 -162 -73
t-62 -187q0 -116 61 -188q62 -72 160 -72q60 1 106 28q46 28 67 76h7v-90q0 -61 -37 -95q-37 -35 -109 -36q-57 0 -91 22q-35 21 -39 58h-101zM292 102q-64 0 -104 44t-41 128q1 82 42 126q40 45 104 45q63 0 106 -43t43 -106v-45q0 -32 -11 -59q-10 -26 -32 -48
q-42 -42 -107 -42v0z" />
    <glyph glyph-name="glyph484" horiz-adv-x="625" 
d="M315 809q-92 0 -92 -86v-120h95v105h-50v24q0 45 47 45v32zM65 -21q7 -71 68 -113q60 -42 163 -43q115 1 181 58q66 56 67 159v486h-92l-5 -95h-8q-22 49 -67 77q-46 28 -107 28q-100 0 -162 -73t-62 -187q0 -116 61 -188q62 -72 160 -72q60 1 106 28q46 28 67 76h7v-90
q0 -61 -37 -95q-37 -35 -109 -36q-57 0 -91 22q-35 21 -39 58h-101zM292 102q-64 0 -104 44t-41 128q1 82 42 126q40 45 104 45q63 0 106 -43t43 -106v-45q0 -32 -11 -59q-10 -26 -32 -48q-42 -42 -107 -42v0z" />
    <glyph glyph-name="glyph485" horiz-adv-x="625" 
d="M317 603v127h-91v-127h91zM65 -21q7 -71 68 -113q60 -42 163 -43q115 1 181 58q66 56 67 159v486h-92l-5 -95h-8q-22 49 -67 77q-46 28 -107 28q-100 0 -162 -73t-62 -187q0 -116 61 -188q62 -72 160 -72q60 1 106 28q46 28 67 76h7v-90q0 -61 -37 -95q-37 -35 -109 -36
q-57 0 -91 22q-35 21 -39 58h-101zM292 102q-64 0 -104 44t-41 128q1 82 42 126q40 45 104 45q63 0 106 -43t43 -106v-45q0 -32 -11 -59q-10 -26 -32 -48q-42 -42 -107 -42v0z" />
    <glyph glyph-name="glyph486" horiz-adv-x="565" 
d="M42 150q1 -75 48 -117q46 -42 128 -43q61 0 105 25q44 26 63 73h7l8 -88h93v343q0 93 -54 143q-54 49 -156 50q-99 -1 -158 -46q-60 -45 -66 -125h101q1 42 31 66t84 24q115 0 115 -103v-38h-144q-96 0 -150 -43q-54 -42 -55 -121v0zM147 157q0 85 117 85h127v-24
q-1 -66 -40 -105t-105 -40q-48 0 -73 22q-26 22 -26 62v0z" />
    <glyph glyph-name="glyph487" horiz-adv-x="565" 
d="M481 696l-46 78l-186 -140l32 -51zM42 150q1 -75 48 -117q46 -42 128 -43q61 0 105 25q44 26 63 73h7l8 -88h93v343q0 93 -54 143q-54 49 -156 50q-99 -1 -158 -46q-60 -45 -66 -125h101q1 42 31 66t84 24q115 0 115 -103v-38h-144q-96 0 -150 -43q-54 -42 -55 -121v0z
M147 157q0 85 117 85h127v-24q-1 -66 -40 -105t-105 -40q-48 0 -73 22q-26 22 -26 62v0z" />
    <glyph glyph-name="glyph488" horiz-adv-x="565" 
d="M362 735q0 -40 -22 -63q-21 -23 -58 -23q-36 0 -58 23q-21 23 -22 63h-68q1 -67 40 -107t108 -41q69 1 109 41q39 40 40 107h-69zM42 150q1 -75 48 -117q46 -42 128 -43q61 0 105 25q44 26 63 73h7l8 -88h93v343q0 93 -54 143q-54 49 -156 50q-99 -1 -158 -46
q-60 -45 -66 -125h101q1 42 31 66t84 24q115 0 115 -103v-38h-144q-96 0 -150 -43q-54 -42 -55 -121v0zM147 157q0 85 117 85h127v-24q-1 -66 -40 -105t-105 -40q-48 0 -73 22q-26 22 -26 62v0z" />
    <glyph glyph-name="glyph489" horiz-adv-x="565" 
d="M176 584l106 112l106 -112l51 49l-123 127h-66l-124 -127zM42 150q1 -75 48 -117q46 -42 128 -43q61 0 105 25q44 26 63 73h7l8 -88h93v343q0 93 -54 143q-54 49 -156 50q-99 -1 -158 -46q-60 -45 -66 -125h101q1 42 31 66t84 24q115 0 115 -103v-38h-144q-96 0 -150 -43
q-54 -42 -55 -121v0zM147 157q0 85 117 85h127v-24q-1 -66 -40 -105t-105 -40q-48 0 -73 22q-26 22 -26 62v0z" />
    <glyph glyph-name="glyph490" horiz-adv-x="565" 
d="M229 601v127h-90v-127h90zM425 601v127h-90v-127h90zM42 150q1 -75 48 -117q46 -42 128 -43q61 0 105 25q44 26 63 73h7l8 -88h93v343q0 93 -54 143q-54 49 -156 50q-99 -1 -158 -46q-60 -45 -66 -125h101q1 42 31 66t84 24q115 0 115 -103v-38h-144q-96 0 -150 -43
q-54 -42 -55 -121v0zM147 157q0 85 117 85h127v-24q-1 -66 -40 -105t-105 -40q-48 0 -73 22q-26 22 -26 62v0z" />
    <glyph glyph-name="glyph491" horiz-adv-x="565" 
d="M315 636l-186 139l-46 -77l199 -114zM42 150q1 -75 48 -117q46 -42 128 -43q61 0 105 25q44 26 63 73h7l8 -88h93v343q0 93 -54 143q-54 49 -156 50q-99 -1 -158 -46q-60 -45 -66 -125h101q1 42 31 66t84 24q115 0 115 -103v-38h-144q-96 0 -150 -43q-54 -42 -55 -121v0z
M147 157q0 85 117 85h127v-24q-1 -66 -40 -105t-105 -40q-48 0 -73 22q-26 22 -26 62v0z" />
    <glyph glyph-name="glyph492" horiz-adv-x="565" 
d="M443 597v76h-322v-76h322zM42 150q1 -75 48 -117q46 -42 128 -43q61 0 105 25q44 26 63 73h7l8 -88h93v343q0 93 -54 143q-54 49 -156 50q-99 -1 -158 -46q-60 -45 -66 -125h101q1 42 31 66t84 24q115 0 115 -103v-38h-144q-96 0 -150 -43q-54 -42 -55 -121v0zM147 157
q0 85 117 85h127v-24q-1 -66 -40 -105t-105 -40q-48 0 -73 22q-26 22 -26 62v0z" />
    <glyph glyph-name="glyph493" horiz-adv-x="565" 
d="M471 -127q-62 0 -62 47q0 59 85 80v343q0 93 -54 143q-54 49 -156 50q-99 -1 -158 -46q-60 -45 -66 -125h101q1 42 31 66t84 24q115 0 115 -103v-38h-144q-96 0 -150 -43q-54 -42 -55 -121q1 -75 48 -117q46 -42 128 -43q61 0 105 25q44 26 63 73h7l7 -79
q-59 -37 -59 -102q1 -43 30 -68q29 -26 80 -27q22 -1 42 2q20 4 37 11v60q-29 -12 -59 -12v0zM391 218q-1 -66 -40 -105t-105 -40q-48 0 -73 22q-26 22 -26 62q0 85 117 85h127v-24z" />
    <glyph glyph-name="glyph494" horiz-adv-x="565" 
d="M361 527q36 32 36 84q-1 52 -32 82q-31 29 -83 30q-52 -1 -83 -30q-31 -30 -32 -82q0 -54 36 -85q-64 -16 -101 -58q-38 -42 -42 -103h101q1 42 31 66t84 24q115 0 115 -103v-38h-144q-96 0 -150 -43q-54 -42 -55 -121q1 -75 48 -117q46 -42 128 -43q61 0 105 25
q44 26 63 73h7l8 -88h93v343q0 74 -33 121q-33 46 -100 63v0zM228 611q0 27 15 42q15 16 39 16t39 -16q14 -15 14 -42q0 -25 -14 -41q-15 -16 -39 -16t-39 16t-15 41v0zM391 218q-1 -66 -40 -105t-105 -40q-48 0 -73 22q-26 22 -26 62q0 85 117 85h127v-24z" />
    <glyph glyph-name="glyph495" horiz-adv-x="565" 
d="M347 590q63 2 99 81l-44 31q-25 -33 -55 -35q-11 -1 -26 4q-16 5 -36 15q-40 20 -66 19q-31 -2 -56 -22t-44 -58l44 -31q23 33 53 34q10 1 24 -4q15 -5 35 -16q41 -19 72 -18v0zM42 150q1 -75 48 -117q46 -42 128 -43q61 0 105 25q44 26 63 73h7l8 -88h93v343
q0 93 -54 143q-54 49 -156 50q-99 -1 -158 -46q-60 -45 -66 -125h101q1 42 31 66t84 24q115 0 115 -103v-38h-144q-96 0 -150 -43q-54 -42 -55 -121v0zM147 157q0 85 117 85h127v-24q-1 -66 -40 -105t-105 -40q-48 0 -73 22q-26 22 -26 62v0z" />
    <glyph glyph-name="glyph496" horiz-adv-x="671" 
d="M613 656q24 0 46 -5v84q-24 7 -64 7q-78 0 -121 -38q-42 -39 -43 -117v-61h-220v51q0 79 79 79q11 0 23 -1q12 -2 23 -4v84q-24 7 -64 7q-78 0 -121 -38q-42 -39 -43 -117v-61h-95v-86h95v-440h103v440h220v-440h104v440h124v86h-124v51q0 40 18 59q18 20 60 20v0z" />
    <glyph glyph-name="glyph497" horiz-adv-x="927" 
d="M528 526v51q0 79 77 79q11 0 23 -1q12 -2 23 -4v84q-21 7 -62 7q-79 0 -121 -38q-43 -39 -44 -117v-61h-213v51q0 79 79 79q11 0 23 -1q12 -2 23 -4v84q-24 7 -64 7q-78 0 -121 -38q-42 -39 -43 -117v-61h-95v-86h95v-440h103v440h213v-440h104v440h215l1 -440h103v526
h-319zM743 605h104v123h-104v-123z" />
    <glyph glyph-name="glyph498" horiz-adv-x="2069" 
d="M134 756v-929h1076v67h-1004v335q1 75 39 120q37 44 101 45q54 0 83 -33q30 -33 30 -97v-256h95v265q-1 95 -46 148q-45 54 -127 55q-57 0 -101 -27q-44 -26 -67 -75h-7v314h1658v-794h-479v206h7q20 -48 64 -75q45 -27 106 -27q96 0 155 67q59 68 59 174q0 104 -58 170
q-58 67 -154 67q-61 -1 -106 -27q-45 -27 -66 -73h-7l-9 90h-278v140h-96v-140h-204v140h-96v-140h-98v-79h98v-295q0 -47 22 -66t62 -18h124v79h-112v300h204v-295q0 -47 23 -66q22 -19 62 -18h123v79h-112v300h192v-560h645v929h-1801zM1385 266q0 50 44 89q44 40 107 40
q65 -1 103 -43q39 -41 40 -112q-1 -70 -38 -114q-38 -45 -107 -46q-63 0 -106 38t-43 90v58z" />
    <glyph glyph-name="glyph499" horiz-adv-x="614" 
d="M430 605h104v123h-104v-123zM204 526v191l-104 -40v-151h-88v-86h88v-293q0 -155 149 -155q36 0 71 8v84q-19 -5 -48 -5q-68 0 -68 81v280h226l1 -440h103v526h-330z" />
    <glyph glyph-name="glyph500" horiz-adv-x="684" 
d="M653 526h-117v191l-103 -40v-151h-229v191l-104 -40v-151h-88v-86h88v-293q0 -155 149 -155q36 0 71 8v84q-19 -5 -48 -5q-68 0 -68 81v280h229v-293q-1 -73 33 -113q35 -41 117 -42q33 0 70 8v84q-19 -5 -48 -5q-69 0 -69 81v280h117v86z" />
    <glyph glyph-name="glyph501" horiz-adv-x="931" 
d="M747 605h103v123h-103v-123zM520 526v191l-103 -40v-151h-213v191l-104 -40v-151h-88v-86h88v-293q0 -155 149 -155q36 0 71 8v84q-19 -5 -48 -5q-68 0 -68 81v280h213v-293q-1 -73 33 -113q34 -41 116 -42q17 0 35 2t35 6v84q-19 -5 -48 -5q-68 0 -68 81v280h227v-440
h103v526h-330z" />
    <glyph glyph-name="glyph502" horiz-adv-x="2000" 
d="M283 0l88 404h6l93 -404h123l94 376l95 -376h127l88 404h6l92 -404h123l94 377l96 -377h126l88 404h6l92 -404h123l148 526h-106l-67 -266l-36 -161h-5l-96 427h-109l-95 -428h-6l-103 428h-109l-102 -427h-5l-97 427h-109l-94 -428h-6l-104 428h-108l-103 -427h-5
l-96 427h-109l-94 -428h-6l-36 164l-68 264h-109l149 -526h126z" />
    <glyph glyph-name="glyph503" horiz-adv-x="1250" 
d="M65 -21q7 -71 68 -113q60 -42 163 -43q115 1 181 58q66 56 67 159v486h-92l-5 -95h-8q-22 49 -67 77q-46 28 -107 28q-100 0 -162 -73t-62 -187q0 -116 61 -188q62 -72 160 -72q60 1 106 28q46 28 67 76h7v-90q0 -61 -37 -95q-37 -35 -109 -36q-57 0 -91 22
q-35 21 -39 58h-101zM690 -21q7 -71 68 -113q60 -42 163 -43q115 1 181 58q66 56 67 159v486h-92l-5 -95h-8q-22 49 -67 77q-46 28 -107 28q-100 0 -162 -73t-62 -187q0 -116 61 -188q62 -72 160 -72q60 1 106 28q46 28 67 76h7v-90q0 -61 -37 -95q-37 -35 -109 -36
q-57 0 -91 22q-35 21 -39 58h-101zM292 102q-64 0 -104 44t-41 128q1 82 42 126q40 45 104 45q63 0 106 -43t43 -106v-45q0 -32 -11 -59q-10 -26 -32 -48q-42 -42 -107 -42v0zM917 102q-64 0 -104 44t-41 128q1 82 42 126q40 45 104 45q63 0 106 -43t43 -106v-45
q0 -32 -11 -59q-10 -26 -32 -48q-42 -42 -107 -42v0z" />
    <glyph glyph-name="glyph504" horiz-adv-x="628" 
d="M314 -6q116 0 184 94t70 275q-1 180 -69 273t-184 94q-115 0 -186 -94q-70 -93 -70 -273t70 -275q35 -47 81 -71q46 -23 104 -23v0zM313 86q-145 0 -145 280q0 272 146 272q145 0 145 -278q0 -274 -146 -274v0zM358 320v84h-92v-84h92z" />
    <glyph glyph-name="glyph505" horiz-adv-x="620" 
d="M311 730q-116 0 -185 -93t-71 -274q0 -180 70 -275q35 -47 81 -71q46 -23 104 -23q116 0 184 94t70 275q-2 180 -69 273q-68 93 -184 94v0zM310 638q105 0 134 -147l-279 -161q-1 12 -1 36q0 272 146 272v0zM309 86q-106 0 -135 151l280 160q1 -12 1 -37
q0 -274 -146 -274v0z" />
    <glyph glyph-name="glyph506" horiz-adv-x="620" 
d="M373 721h-97q-9 -60 -53 -93t-119 -33h-21v-80h186v-427h-198v-88h477v88h-175v633z" />
    <glyph glyph-name="glyph507" horiz-adv-x="620" 
d="M327 92q-66 0 -145 -7q5 22 18 43q14 20 38 42q25 23 40 35q17 14 54 39l49 34q76 53 116 110q41 56 41 132q0 93 -62 151q-62 59 -164 59q-108 0 -174 -63q-32 -31 -48 -72q-15 -41 -13 -92h104q-3 63 30 99q32 35 95 36q57 0 90 -31q32 -31 33 -88q0 -53 -31 -93
q-32 -40 -94 -84l-20 -14l-67 -47q-21 -16 -55 -48q-34 -31 -51 -58q-16 -27 -29 -66q-12 -39 -13 -84v-25h477v92h-219z" />
    <glyph glyph-name="glyph508" horiz-adv-x="620" 
d="M307 -10q110 0 177 58q69 59 69 154q0 58 -29 103q-30 45 -89 66v6q107 48 107 162q0 89 -66 140q-65 51 -163 51q-106 0 -173 -63q-66 -61 -65 -165h107q1 66 34 101q34 35 94 35q55 0 89 -28q34 -29 35 -80q0 -52 -35 -84q-34 -32 -98 -33h-54v-84h58q66 -1 103 -33
q36 -32 37 -90q-1 -57 -37 -91q-37 -33 -100 -34q-62 0 -97 35q-35 36 -34 104h-107q-2 -104 61 -167q64 -63 176 -63v0z" />
    <glyph glyph-name="glyph509" horiz-adv-x="620" 
d="M491 721h-153l-299 -482v-86h348v-153h104v153h86v87h-86v481zM387 631v-391h-240z" />
    <glyph glyph-name="glyph510" horiz-adv-x="620" 
d="M326 478q-43 0 -81 -14q-39 -14 -61 -36l-5 1l10 201h330v91h-422l-16 -402h98q14 31 48 50t79 20q66 -1 104 -43q38 -43 39 -113q-1 -69 -39 -110q-38 -40 -103 -41q-63 1 -100 40q-36 38 -35 99h-105q-1 -52 15 -93q16 -42 50 -74q68 -64 174 -64q112 0 181 68
q70 69 70 179q0 53 -16 96q-17 43 -49 77q-64 68 -166 68v0z" />
    <glyph glyph-name="glyph511" horiz-adv-x="620" 
d="M317 -10q111 0 177 67q34 34 50 79q17 44 17 99q0 53 -16 97q-15 43 -46 75t-70 49q-39 16 -88 16q-55 0 -98 -24t-67 -71h-6q-12 263 152 263q49 0 82 -23q32 -23 40 -71h105q-10 86 -69 134q-58 49 -156 50q-135 -1 -199 -97q-64 -97 -64 -274q0 -172 61 -271
q62 -98 195 -98v0zM453 235q-1 -71 -36 -111q-35 -41 -96 -42q-62 1 -98 41t-37 109q0 65 36 108q35 42 99 44q60 -1 96 -40q35 -39 36 -109v0z" />
    <glyph glyph-name="glyph512" horiz-adv-x="620" 
d="M137 501v129h310q-106 -140 -186 -314q-40 -86 -65 -165q-26 -80 -39 -151h112q28 150 112 328q86 178 195 319v74h-526v-220h87z" />
    <glyph glyph-name="glyph513" horiz-adv-x="620" 
d="M66 186q0 -87 67 -142q68 -54 176 -54q110 0 177 54q68 55 68 142q0 57 -28 101q-27 44 -76 69v8q49 24 76 69q28 44 28 100q0 87 -68 141q-34 28 -77 41q-44 14 -99 14q-109 0 -177 -55q-67 -54 -67 -141q0 -56 28 -101t77 -68v-8q-51 -24 -78 -68t-27 -102v0zM174 520
q1 54 36 86q35 31 99 32q63 -1 100 -32q36 -31 37 -86q-1 -54 -37 -86q-36 -31 -100 -32q-61 1 -97 32q-37 31 -38 86v0zM174 200q1 53 36 85t99 33q63 -1 100 -32q36 -31 37 -86q0 -55 -36 -86q-35 -31 -101 -32q-61 0 -97 31q-37 30 -38 87v0z" />
    <glyph glyph-name="glyph514" horiz-adv-x="620" 
d="M298 -10q132 -1 198 87q65 88 65 276q0 176 -62 276q-61 101 -195 101q-111 0 -177 -68q-66 -67 -66 -176q0 -53 15 -96q15 -44 46 -76t70 -49q39 -16 88 -16q117 0 167 94h5q8 -127 -29 -194q-38 -68 -120 -69q-51 0 -84 24q-32 24 -39 69h-105q9 -82 70 -133
q62 -50 153 -50v0zM301 337q-61 1 -96 40q-36 39 -37 109q0 71 36 111q36 41 97 41q31 0 55 -10q24 -11 43 -31q38 -40 38 -108q-1 -65 -36 -108q-36 -42 -100 -44v0z" />
    <glyph glyph-name="glyph515" horiz-adv-x="620" 
d="M311 730q-116 0 -185 -93t-71 -274q0 -180 70 -275q35 -47 81 -71q46 -23 104 -23q116 0 184 94t70 275q-2 180 -69 273q-68 93 -184 94v0zM310 638q132 0 144 -233h-289q10 233 145 233v0zM309 86q-132 0 -144 233h289q-5 -116 -42 -175q-36 -58 -103 -58v0z" />
    <glyph glyph-name="glyph516" horiz-adv-x="419" 
d="M209 -4q79 0 125 62t47 183q-1 118 -45 181q-45 63 -127 64q-79 0 -125 -62t-47 -183q1 -117 45 -181q45 -63 127 -64v0zM208 68q-87 0 -87 176q0 170 89 170q87 0 87 -174q0 -172 -89 -172v0z" />
    <glyph glyph-name="glyph517" horiz-adv-x="312" 
d="M152 331v-331h81v480h-77v-4q0 -79 -82 -79h-45v-66h123z" />
    <glyph glyph-name="glyph518" horiz-adv-x="379" 
d="M134 69q16 38 60 73q43 35 84 69q28 25 46 60q17 34 18 74q-1 64 -40 102q-40 38 -110 39q-72 -1 -115 -41t-45 -108l80 -5q0 37 20 60q19 23 55 24q33 0 53 -19q19 -19 19 -52q-3 -51 -47 -90t-94 -77q-33 -27 -55 -69q-21 -42 -22 -93v-16h299v73h-133z" />
    <glyph glyph-name="glyph519" horiz-adv-x="382" 
d="M189 -7q70 1 114 39t45 102q0 39 -20 69t-56 45v5q67 31 67 103q-1 61 -42 95t-109 35q-74 -1 -115 -42t-40 -108h82q0 36 19 57t54 22q28 0 47 -16q18 -17 19 -47q0 -30 -20 -49q-20 -18 -58 -19h-30v-75h37q37 0 59 -19t23 -54q-1 -31 -21 -51q-21 -19 -55 -20
q-34 0 -54 20q-20 21 -20 59h-82q-1 -69 41 -110q43 -40 115 -41v0z" />
    <glyph glyph-name="glyph520" horiz-adv-x="388" 
d="M312 480h-127l-167 -321v-68h213v-91h81v91h52v73h-52v316zM231 403v-239h-124z" />
    <glyph glyph-name="glyph521" horiz-adv-x="396" 
d="M36 148q1 -70 44 -112q44 -42 116 -43q37 0 66 11q30 12 53 35q46 47 46 120q0 71 -42 116q-42 46 -108 46q-56 0 -86 -30l-2 2l2 46v68h210v73h-289v-274h77q7 20 27 32q19 12 46 12q37 -1 59 -26t23 -67q-1 -42 -22 -66q-22 -24 -59 -25q-36 1 -57 23q-22 22 -22 59
h-82z" />
    <glyph glyph-name="glyph522" horiz-adv-x="406" 
d="M36 235q0 -115 43 -177q43 -63 127 -64q74 0 120 46q23 23 35 53q11 29 11 66q-1 71 -41 114q-39 43 -104 44q-34 0 -63 -15q-28 -15 -43 -42h-3q0 154 93 154q30 0 49 -14q19 -15 23 -41h81q-7 60 -47 93t-104 34q-87 -1 -132 -68t-45 -183v0zM128 158q0 39 21 65
q21 25 60 26q39 0 60 -24q22 -24 22 -66q-1 -43 -23 -67q-22 -25 -59 -26q-37 1 -59 26t-22 66v0z" />
    <glyph glyph-name="glyph523" horiz-adv-x="360" 
d="M27 480v-147h61v74h156q-136 -170 -171 -407h80q38 234 188 422v58h-314z" />
    <glyph glyph-name="glyph524" horiz-adv-x="393" 
d="M32 127q1 -61 45 -97q43 -36 119 -37q75 1 119 36q44 36 45 97q0 80 -68 111v5q32 16 50 46q18 29 18 66q-1 60 -44 96q-43 35 -119 36q-75 -1 -120 -36q-44 -35 -45 -96q0 -37 18 -67q18 -29 51 -45v-5q-33 -16 -51 -45t-18 -65v0zM115 345q0 31 22 50t59 20
q37 0 58 -19q22 -18 22 -51t-22 -52q-21 -19 -58 -19t-58 19q-22 19 -23 52v0zM115 134q0 33 22 52q22 20 59 20t58 -19q22 -20 22 -53q0 -31 -22 -50q-21 -19 -58 -20q-37 0 -59 19q-22 18 -22 51v0z" />
    <glyph glyph-name="glyph525" horiz-adv-x="406" 
d="M370 245q0 115 -43 178q-44 62 -128 63q-37 0 -66 -11q-30 -12 -53 -35q-46 -46 -46 -117q0 -70 40 -117q40 -45 104 -45q34 0 63 16q28 16 43 44h4q0 -155 -92 -155q-63 0 -74 55h-80q7 -58 47 -92t104 -35q87 1 132 68t45 183v0zM277 322q0 -39 -21 -64t-59 -26
q-39 0 -60 24q-22 24 -22 66q1 41 23 66t59 26q37 -1 58 -26q22 -26 22 -66v0z" />
    <glyph glyph-name="glyph526" horiz-adv-x="419" 
d="M209 251q79 0 125 61t47 181q-1 116 -45 178q-45 63 -127 64q-79 0 -125 -61q-46 -62 -47 -181q1 -116 45 -178q45 -63 127 -64v0zM208 322q-87 0 -87 174q0 167 89 167q87 0 87 -171q0 -170 -89 -170v0z" />
    <glyph glyph-name="glyph527" horiz-adv-x="312" 
d="M152 582v-326h81v473h-77v-4q0 -78 -82 -78h-45v-65h123z" />
    <glyph glyph-name="glyph528" horiz-adv-x="379" 
d="M134 323q5 14 17 30q12 15 29 31q36 32 71 56q37 25 63 66q27 41 28 90q-1 63 -40 101q-40 37 -110 38q-72 -1 -115 -41t-45 -107l80 -5q0 37 20 60q19 22 55 23q33 0 53 -18q19 -18 19 -51q-3 -51 -47 -89t-94 -76q-33 -27 -55 -67q-21 -41 -22 -92v-17h299v72h-133z
" />
    <glyph glyph-name="glyph529" horiz-adv-x="382" 
d="M189 248q69 0 114 39t45 100q0 83 -76 113v5q67 32 67 102q-1 59 -42 93t-109 35q-75 -1 -116 -41q-41 -41 -39 -108h82q0 36 19 57q20 21 54 21q28 0 47 -15q18 -16 19 -46q0 -30 -20 -49q-20 -18 -58 -19h-30v-74h37q37 0 59 -19t23 -53q-1 -31 -21 -50
q-21 -19 -55 -20q-34 0 -54 21t-20 57h-82q0 -68 42 -108t114 -41v0z" />
    <glyph glyph-name="glyph530" horiz-adv-x="388" 
d="M312 729h-127l-167 -317v-67h213v-89h81v89h52v71h-52v313zM231 653v-237h-124z" />
    <glyph glyph-name="glyph531" horiz-adv-x="396" 
d="M36 401q1 -70 44 -111q44 -41 116 -42q74 0 119 46q23 23 35 53q11 29 11 66q-1 70 -42 114t-108 45q-58 0 -86 -30l-2 2l2 45v67h210v73h-289v-271h77q7 21 26 33q20 12 47 12q37 -1 59 -26t23 -67q-1 -40 -22 -65q-22 -24 -59 -25q-36 1 -57 24q-22 22 -22 57h-82z" />
    <glyph glyph-name="glyph532" horiz-adv-x="406" 
d="M36 487q0 -113 43 -175t127 -63q74 0 120 45q46 46 46 118q-1 70 -41 113q-39 43 -104 44q-34 0 -62 -15q-29 -15 -44 -42h-3q0 151 93 151q28 0 47 -13q19 -14 25 -40h81q-8 58 -48 91t-103 34q-87 -1 -132 -67t-45 -181v0zM128 411q0 39 21 65q21 25 60 26q39 0 60 -24
q22 -24 22 -66q-1 -42 -23 -67q-22 -24 -59 -25q-37 1 -59 26t-22 65v0z" />
    <glyph glyph-name="glyph533" horiz-adv-x="360" 
d="M27 729v-137h61v64h155q-134 -169 -170 -400h80q19 115 66 219q46 104 122 196v58h-314z" />
    <glyph glyph-name="glyph534" horiz-adv-x="393" 
d="M32 380q1 -59 45 -94q44 -36 119 -37q75 1 119 35q44 35 45 95q0 78 -68 111v5q68 33 68 109q-1 60 -44 95t-119 36q-76 -1 -120 -35q-44 -35 -45 -96q0 -76 69 -109v-5q-69 -33 -69 -110v0zM115 596q0 31 21 50t60 19q36 0 58 -18q21 -18 22 -51q0 -31 -22 -50
q-21 -19 -58 -20q-37 0 -58 19q-22 18 -23 51v0zM115 389q0 31 22 50t59 20q37 0 58 -19q22 -18 22 -51q0 -31 -22 -50q-21 -19 -58 -20q-37 0 -59 19q-22 18 -22 51v0z" />
    <glyph glyph-name="glyph535" horiz-adv-x="406" 
d="M370 497q0 113 -43 175q-44 62 -128 63q-37 0 -66 -11q-30 -12 -53 -35q-46 -45 -46 -117q0 -34 10 -62t30 -50t46 -33t58 -11q76 0 106 56h4q0 -152 -92 -152q-62 0 -74 55h-80q7 -58 47 -91q41 -34 104 -35q87 1 132 67q45 65 45 181v0zM277 573q0 -38 -21 -64t-59 -27
q-39 0 -60 25q-22 24 -22 66q1 40 23 65q22 24 59 25q37 -1 58 -26q22 -25 22 -64v0z" />
    <glyph glyph-name="glyph536" horiz-adv-x="549" 
d="M146 522q0 58 33 91t93 34q55 0 86 -27t32 -75q0 -57 -76 -135q-39 -40 -57 -61q-8 -10 -17 -24q-9 -15 -18 -34q-18 -37 -18 -78v-17h101v17q0 14 1 25q2 11 7 22t9 19t15 20l37 41l24 25q51 56 74 93q23 39 23 92q-1 86 -58 136q-58 51 -160 52q-107 0 -170 -59
q-63 -58 -63 -157h102zM319 0v120h-125v-120h125z" />
    <glyph glyph-name="glyph537" horiz-adv-x="549" 
d="M220 616v-120h124v120h-124zM392 93q0 -58 -32 -91q-33 -33 -94 -34q-55 0 -86 28q-31 27 -32 75q0 57 76 135q39 41 56 60q18 21 36 59t18 77v17h-101v-16q0 -14 -1 -25q-2 -11 -8 -23q-5 -11 -8 -19q-4 -8 -15 -20q-9 -11 -15 -18q-7 -7 -22 -23l-23 -24
q-51 -54 -74 -93t-23 -92q1 -87 59 -137t161 -51q106 1 168 58t63 157h-103z" />
    <glyph glyph-name="glyph538" horiz-adv-x="602" 
d="M582 536h-98l49 213h-72l-49 -213h-153l49 213h-71l-49 -213h-113l-17 -61h116l-45 -195h-93l-17 -61h96l-50 -219h71l50 219h153l-51 -219h72l51 219h116l16 61h-118l45 195h95zM200 280l45 195h153l-45 -195h-153z" />
    <glyph glyph-name="glyph539" horiz-adv-x="297" 
d="M61 363q0 -115 43 -219q22 -51 52 -92q29 -41 66 -72h65q-75 66 -116 164q-41 99 -41 220q0 123 41 222q41 98 116 163h-65q-73 -61 -117 -165q-22 -52 -33 -107t-11 -114v0z" />
    <glyph glyph-name="glyph540" horiz-adv-x="297" 
d="M236 363q0 58 -11 113t-33 107q-43 105 -117 166h-65q75 -64 116 -162q41 -99 41 -223q0 -121 -41 -219q-41 -99 -116 -165h65q74 62 117 163q44 102 44 220v0z" />
    <glyph glyph-name="glyph541" horiz-adv-x="320" 
d="M43 303q30 0 48 -17t19 -55v-225q0 -75 72 -75h105v59h-110v238q-1 45 -21 74q-20 28 -53 34v3q33 5 53 33q20 27 21 74v227h110v59h-105q-34 0 -53 -19q-19 -20 -19 -55v-215q0 -74 -67 -74v-66z" />
    <glyph glyph-name="glyph542" horiz-adv-x="320" 
d="M277 369q-34 1 -51 21t-17 53v215q0 35 -19 55q-18 19 -52 19h-105v-59h110v-227q1 -47 21 -74q20 -28 54 -33v-3q-34 -6 -54 -35q-21 -28 -21 -73v-238h-110v-59h105q71 0 71 75v225q1 38 19 55q19 17 49 17v66z" />
    <glyph glyph-name="glyph543" horiz-adv-x="309" 
d="M276 -69v59h-115v690h115v58h-180v-807h180z" />
    <glyph glyph-name="glyph544" horiz-adv-x="309" 
d="M214 -69v807h-181v-58h116v-690h-116v-59h181z" />
    <glyph glyph-name="glyph545" horiz-adv-x="459" 
d="M401 337v65h-344v-65h344z" />
    <glyph glyph-name="glyph546" horiz-adv-x="635" 
d="M577 337v65h-520v-65h520z" />
    <glyph glyph-name="glyph547" horiz-adv-x="831" 
d="M773 337v65h-716v-65h716z" />
    <glyph glyph-name="glyph548" horiz-adv-x="851" 
d="M708 231l-169 -231h81l197 265l-197 263h-81l169 -231h-612v-66h612z" />
    <glyph glyph-name="glyph549" horiz-adv-x="543" 
d="M490 323v80l-387 210v-106l139 -70l157 -69v-7l-159 -76l-137 -74v-108z" />
    <glyph glyph-name="glyph550" horiz-adv-x="543" 
d="M439 211l-137 74l-158 76v7l156 69l139 70v106l-386 -210v-80l386 -220v108z" />
    <glyph glyph-name="glyph551" horiz-adv-x="614" 
d="M33 580q1 -73 44 -116q42 -43 112 -44q71 1 113 44q43 43 44 115q-1 71 -44 114q-42 44 -113 45q-71 -1 -113 -44t-43 -114v0zM109 580q1 40 22 65q22 24 58 25q37 -1 59 -25q21 -25 22 -65q-1 -43 -22 -68q-22 -25 -59 -26q-36 1 -58 26q-21 25 -22 68v0zM582 447v64
l-548 -219v-61zM258 151q1 -73 44 -116q43 -44 113 -45q70 0 113 45q44 45 44 116q-1 71 -44 114q-42 43 -113 44q-70 -1 -113 -44q-43 -44 -44 -114v0zM415 244q37 -1 59 -26t23 -67q-1 -42 -23 -67t-59 -26q-36 1 -58 26q-21 25 -22 67q1 42 22 67q22 25 58 26v0z" />
    <glyph glyph-name="glyph552" horiz-adv-x="671" 
d="M194 437q68 0 113 42t45 109t-45 109t-113 42q-70 -1 -113 -42t-44 -109q1 -68 44 -109t113 -42v0zM115 588q1 39 22 61q22 23 58 23q37 -1 59 -23q21 -23 22 -60q-1 -39 -23 -61q-22 -23 -59 -23q-36 1 -57 23q-21 23 -22 60v0zM64 334v-63l548 216v62zM486 292
q-79 0 -126 -59q-46 59 -124 59q-68 -1 -109 -42q-41 -40 -42 -108q1 -69 42 -110t110 -42q79 0 124 59q45 -59 124 -59q69 1 110 42t42 110q-1 68 -42 108q-42 41 -109 42v0zM184 80q-22 24 -22 62q0 19 5 34q6 16 17 27q24 23 58 23t58 -23q11 -11 17 -27q5 -15 5 -34
q0 -38 -22 -62q-24 -23 -58 -23t-58 23v0zM480 58q-37 1 -58 24q-22 23 -23 60q1 37 23 60q21 23 58 24q36 -1 58 -23q21 -23 22 -60q-1 -39 -22 -62q-22 -22 -58 -23v0z" />
    <glyph glyph-name="glyph553" horiz-adv-x="851" 
d="M755 297h-612l169 231h-80l-198 -263l198 -265h80l-169 231h612v66z" />
    <glyph glyph-name="glyph554" horiz-adv-x="1009" 
d="M505 738q-199 0 -324 -104q-124 -104 -124 -269t125 -270q126 -105 323 -105q196 0 320 105q125 105 125 270t-124 269t-321 104v0zM401 574q19 67 45 100q25 34 59 34q31 0 57 -35t44 -99h-205zM636 574q-10 39 -23 70q-14 32 -33 55q107 -29 162 -125h-106zM265 574
q60 97 164 124q-36 -40 -58 -124h-106zM776 574q-34 63 -88 104q97 -35 157 -104h-69zM320 678q-54 -41 -89 -104h-69q31 35 70 61q40 26 88 43v0zM86 380q5 89 50 159h78q-30 -70 -33 -159h-95zM363 539q-13 -70 -15 -159h-136q3 89 35 159h116zM377 380q2 93 16 159h221
q14 -67 16 -159h-253zM659 380q-1 89 -15 159h117q31 -70 34 -159h-136zM825 380q-3 87 -32 159h78q45 -70 49 -159h-95zM181 347q3 -82 33 -156h-77q-46 71 -51 156h95zM348 347q2 -87 15 -156h-116q-32 69 -35 156h136zM630 347q-1 -82 -16 -156h-221q-15 74 -16 156h253z
M644 191q14 69 15 156h136q-3 -87 -35 -156h-116zM920 347q-4 -85 -50 -156h-77q29 71 32 156h95zM229 158q36 -66 87 -105q-96 36 -155 105h68zM370 158q22 -85 58 -127q-105 28 -164 127h106zM607 158q-18 -64 -44 -100q-27 -36 -58 -37q-33 0 -60 36q-27 35 -45 101h207z
M743 158q-29 -49 -70 -81t-93 -46q35 42 57 127h106zM690 52q53 41 87 106h69q-58 -70 -156 -106v0z" />
    <glyph glyph-name="glyph555" horiz-adv-x="873" 
d="M70 363q0 -168 103 -272q104 -104 263 -104q80 0 146 26q65 26 117 78q104 104 104 272q0 167 -104 270q-52 52 -117 78q-66 26 -146 26q-159 0 -263 -104q-103 -103 -103 -270v0zM436 37q-67 0 -123 23q-56 22 -100 68q-89 91 -89 235t89 234q44 46 100 68q56 23 123 23
q135 0 224 -91q89 -90 89 -234t-89 -235t-224 -91v0zM266 364q0 -78 48 -127q49 -48 122 -48t122 48q49 49 49 127q0 75 -50 123q-49 49 -121 49t-121 -49q-49 -48 -49 -123v0zM287 374l140 -7l-90 83l15 16l81 -93l-6 144h20l-7 -144l82 93l15 -16l-91 -83l141 7v-21
l-141 6l91 -82l-15 -17l-82 93l7 -144h-20l6 144l-81 -93l-15 17l90 82l-140 -6v21z" />
  </font>
</defs>
</svg>
