<?xml version="1.0" standalone="no"?>
<!DOCTYPE svg PUBLIC "-//W3C//DTD SVG 1.1//EN" "http://www.w3.org/Graphics/SVG/1.1/DTD/svg11.dtd" >
<svg xmlns="http://www.w3.org/2000/svg" xmlns:xlink="http://www.w3.org/1999/xlink" version="1.1">
<metadata>
Created by FontForge 20170731 at Wed Oct 28 02:08:07 2020
 By Aleksey,,,
Copyright (c) 2017 by Deni Anggara. All rights reserved.
</metadata>
<defs>
<font id="AllianceNo.1-ExtraBold" horiz-adv-x="1488" >
  <font-face 
    font-family="Alliance No1 ExtraBold"
    font-weight="800"
    font-stretch="normal"
    units-per-em="2048"
    panose-1="0 0 9 0 0 0 0 0 0 0"
    ascent="1638"
    descent="-410"
    x-height="1108"
    cap-height="1493"
    bbox="-209 -490.509 2054 2081"
    underline-thickness="102"
    underline-position="-817"
    unicode-range="U+000D-FB03"
  />
<missing-glyph horiz-adv-x="748" 
d="M68 0v1365h544v-1365h-544zM136 68h408v1229h-408v-1229z" />
    <glyph glyph-name="uniFB01" unicode="fi" horiz-adv-x="1411" 
d="M14 817v291h211v51q0 195 116 293t316 98q92 0 164 -20v-281q-47 10 -86 11q-150 0 -149 -123v-29h717v-1108h-359v817h-358v-817h-361v817h-211zM942 1198v330h361v-330h-361z" />
    <glyph glyph-name="uniFB02" unicode="fl" horiz-adv-x="1415" 
d="M14 817v291h211v51q0 195 116 293t316 98q92 0 164 -20v-281q-47 10 -86 11q-152 0 -151 -123v-29h362v424h361v-1532h-361v817h-362v-817h-359v817h-211z" />
    <glyph glyph-name=".notdef" horiz-adv-x="748" 
d="M68 0v1365h544v-1365h-544zM136 68h408v1229h-408v-1229z" />
    <glyph glyph-name="glyph1" horiz-adv-x="0" 
 />
    <glyph glyph-name="glyph2" horiz-adv-x="682" 
 />
    <glyph glyph-name="uni000D" unicode="&#xd;" horiz-adv-x="681" 
 />
    <glyph glyph-name="space" unicode=" " horiz-adv-x="423" 
 />
    <glyph glyph-name="exclam" unicode="!" horiz-adv-x="634" 
d="M127 0v338h381v-338h-381zM135 1051v442h367v-442l-90 -572h-185z" />
    <glyph glyph-name="quotedbl" unicode="&#x22;" horiz-adv-x="1140" 
d="M170 1147v346h322v-346l-84 -397h-156zM649 1147v346h322v-346l-82 -397h-156z" />
    <glyph glyph-name="numbersign" unicode="#" horiz-adv-x="1439" 
d="M98 428v158h240v372h-240v156h240v422h170v-422h428v422h166v-422h237v-156h-237v-372h237v-158h-237v-428h-166v428h-428v-428h-170v428h-240zM508 586h428v372h-428v-372z" />
    <glyph glyph-name="dollar" unicode="$" horiz-adv-x="1167" 
d="M59 535h363q0 -147 162 -148q141 0 141 90q0 37 -16.5 57.5t-39 28.5t-77.5 21l-160 39q-356 84 -356 393q0 162 106.5 271.5t284.5 137.5v136h221v-136q170 -27 267.5 -132t97.5 -255h-363q2 59 -30.5 87t-92.5 28q-109 0 -108 -84q0 -29 12 -49.5t38 -33.5t41 -18
t44 -12l149 -30q369 -79 369 -398q0 -176 -114.5 -288.5t-309.5 -135.5v-129h-221v134q-188 29 -298 143.5t-110 282.5z" />
    <glyph glyph-name="percent" unicode="%" horiz-adv-x="1841" 
d="M100 1139q0 162 103.5 267t269.5 105q168 0 272.5 -105.5t104.5 -270.5q0 -162 -105.5 -268.5t-271.5 -106.5q-162 0 -267.5 106.5t-105.5 272.5zM324 1141q0 -78 41 -127t108.5 -49t109.5 49t42 127q0 74 -42 120t-110 46q-66 0 -107.5 -46t-41.5 -120zM369 0l948 1493
h164l-953 -1493h-159zM987 358q0 162 104.5 267.5t270.5 105.5q168 0 270.5 -106.5t102.5 -270.5t-103.5 -269t-269.5 -105q-162 0 -268.5 106t-106.5 272zM1210 360q0 -78 42 -127t110 -49t111 49.5t43 126.5q0 74 -43 121t-111 47q-66 0 -109 -47t-43 -121z" />
    <glyph glyph-name="ampersand" unicode="&#x26;" horiz-adv-x="1650" 
d="M127 377q0 244 289 414v16q-104 94 -147.5 171t-43.5 165q0 168 125 268t336 100q209 0 329 -98t120 -256q0 -106 -62.5 -195.5t-198.5 -183.5v-16l203 -221q57 104 105 276l303 -80q-59 -223 -201 -422l287 -315h-436l-88 96q-154 -117 -418 -116q-223 0 -362.5 102
t-139.5 295zM496 434q0 -78 51 -121t135 -43q102 0 164 52l-246 268q-104 -64 -104 -156zM567 1151q0 -82 101 -180h16q111 102 111 180q0 47 -32 73.5t-83 26.5t-82 -27.5t-31 -72.5z" />
    <glyph glyph-name="quotesingle" unicode="'" horiz-adv-x="659" 
d="M170 1147v346h322v-346l-84 -397h-156z" />
    <glyph glyph-name="parenleft" unicode="(" horiz-adv-x="755" 
d="M102 657q0 283 126 539t331 389h201q-213 -135 -346 -390t-133 -538q0 -281 134 -537.5t345 -389.5h-201q-205 133 -331 387.5t-126 539.5z" />
    <glyph glyph-name="parenright" unicode=")" horiz-adv-x="724" 
d="M-4 -270q211 133 344 390t133 537q0 283 -132 538t-345 390h201q205 -133 330.5 -389t125.5 -539q0 -287 -126 -540.5t-330 -386.5h-201z" />
    <glyph glyph-name="asterisk" unicode="*" horiz-adv-x="735" 
d="M66 1079l221 97l-221 96l71 123l189 -144l-27 242h139l-26 -244l186 146l74 -123l-221 -96l221 -97l-74 -125l-186 150l26 -244h-139l27 244l-189 -150z" />
    <glyph glyph-name="plus" unicode="+" horiz-adv-x="1228" 
d="M94 543v276h377v391h285v-391h379v-276h-379v-385h-285v385h-377z" />
    <glyph glyph-name="comma" unicode="," horiz-adv-x="493" 
d="M70 -174q197 0 196 162v12h-160v338h330v-334q0 -141 -99 -221t-267 -80v123z" />
    <glyph glyph-name="hyphen" unicode="-" horiz-adv-x="978" 
d="M111 518v193h755v-193h-755z" />
    <glyph glyph-name="period" unicode="." horiz-adv-x="583" 
d="M127 0v365h330v-365h-330z" />
    <glyph glyph-name="slash" unicode="/" horiz-adv-x="718" 
d="M-8 0l549 1493h186l-551 -1493h-184z" />
    <glyph glyph-name="zero" unicode="0" horiz-adv-x="1302" 
d="M76 745q0 356 157.5 553t421.5 197q266 0 418 -201.5t152 -552.5q0 -358 -157 -555.5t-419 -197.5q-270 0 -421.5 202.5t-151.5 554.5zM451 758q0 -258 51 -357.5t145 -99.5q61 0 102.5 30.5t61.5 92t28.5 132.5t8.5 173q0 180 -27.5 284.5t-67.5 137.5t-100 33
q-82 0 -128 -58.5t-60 -145.5t-14 -222z" />
    <glyph glyph-name="one" unicode="1" horiz-adv-x="976" 
d="M49 938v274h64q145 0 239 73t107 192h338v-1477h-361v938h-387z" />
    <glyph glyph-name="two" unicode="2" horiz-adv-x="1200" 
d="M61 0v49q0 88 14.5 163t49.5 138.5t68.5 110.5t98 101t111 88t132.5 93q76 51 114.5 83t72.5 86.5t34 115.5q0 74 -44 116t-120 42q-84 0 -128 -53.5t-36 -151.5h-358q-6 233 143 373.5t399 140.5q233 0 375.5 -128t142.5 -345q0 -156 -78.5 -269.5t-228.5 -217.5
q-27 -18 -103.5 -68.5t-125.5 -89.5t-86 -78q152 16 285 16h350v-315h-1082z" />
    <glyph glyph-name="three" unicode="3" horiz-adv-x="1269" 
d="M66 459h358q0 -80 55.5 -126t145.5 -46t142 47t52 127q0 72 -47 113.5t-123 41.5h-188v269h157q86 0 133.5 42t47.5 113q0 70 -47 109t-127 39q-84 0 -134.5 -44t-52.5 -120h-364q8 215 161.5 343t405.5 128q236 0 381 -110.5t145 -294.5q0 -109 -53 -195t-145 -125v-14
q106 -31 163.5 -119t57.5 -209q0 -201 -157.5 -324.5t-409.5 -123.5q-256 0 -403.5 130t-153.5 349z" />
    <glyph glyph-name="four" unicode="4" horiz-adv-x="1294" 
d="M63 279v268l529 930h493v-906h158v-292h-158v-279h-360v279h-662zM428 571h297v521z" />
    <glyph glyph-name="five" unicode="5" horiz-adv-x="1259" 
d="M68 467h364q0 -78 53.5 -126t139.5 -48q90 0 145 55t55 144q0 90 -55 149t-149 59q-145 0 -183 -118h-344l41 895h942v-314h-622l-13 -219l17 -6q81 61 239 61q223 0 356.5 -139t133.5 -360q0 -236 -151.5 -378t-413.5 -142q-254 0 -404.5 134t-150.5 353z" />
    <glyph glyph-name="six" unicode="6" horiz-adv-x="1286" 
d="M78 733q0 379 158.5 570.5t441.5 191.5q217 0 350 -106.5t162 -286.5h-359q-31 94 -163 94q-113 0 -172.5 -87t-51.5 -235h17q84 127 291 127q209 0 338 -135t129 -358q0 -238 -151.5 -382t-405.5 -144q-285 0 -434.5 193.5t-149.5 557.5zM477 500q0 -96 52.5 -151.5
t138.5 -55.5q88 0 140 56.5t52 152.5q0 94 -52 152.5t-140 58.5q-86 0 -138.5 -59.5t-52.5 -153.5z" />
    <glyph glyph-name="seven" unicode="7" horiz-adv-x="1159" 
d="M25 932v545h1095v-263q-201 -266 -351.5 -590.5t-195.5 -623.5h-387q37 283 175.5 592t330.5 571h-381v-231h-286z" />
    <glyph glyph-name="eight" unicode="8" horiz-adv-x="1261" 
d="M72 395q0 240 207 336v17q-207 96 -207 333q0 186 153.5 300t407.5 114q252 0 405.5 -113.5t153.5 -298.5q0 -113 -54.5 -200.5t-152.5 -134.5v-17q98 -47 152.5 -135t54.5 -203q0 -186 -154.5 -299.5t-406.5 -113.5t-405.5 114.5t-153.5 300.5zM442 442
q0 -72 51.5 -111.5t137.5 -39.5q90 0 140 41t50 110q0 72 -52 112t-138 40q-88 0 -138.5 -41t-50.5 -111zM442 1032.5q0 -69.5 51.5 -108.5t137.5 -39q90 0 140 40t50 107q0 72 -52 113t-138 41q-90 0 -139.5 -42t-49.5 -111.5z" />
    <glyph glyph-name="nine" unicode="9" horiz-adv-x="1273" 
d="M57 969q0 238 151.5 382t401.5 144q287 0 437.5 -201.5t150.5 -568.5q0 -743 -604 -743q-209 0 -344 107.5t-162 285.5h358q29 -94 168 -94q115 0 171.5 86t45.5 235h-16q-82 -127 -285 -127q-213 0 -343 135t-130 359zM416 975q0 -94 52 -152.5t140 -58.5t139.5 59.5
t51.5 153.5q0 96 -52.5 151.5t-138.5 55.5q-88 0 -140 -56.5t-52 -152.5z" />
    <glyph glyph-name="colon" unicode=":" horiz-adv-x="583" 
d="M125 0v336h330v-336h-330zM125 772v336h330v-336h-330z" />
    <glyph glyph-name="semicolon" unicode=";" horiz-adv-x="540" 
d="M70 -180q111 0 152.5 40t41.5 117v23h-160v336h330v-316q1 -315 -364 -315v115zM104 772v336h330v-336h-330z" />
    <glyph glyph-name="less" unicode="&#x3c;" horiz-adv-x="1052" 
d="M104 455v266l820 442v-329l-262 -123l-269 -115v-21l281 -108l250 -111v-340z" />
    <glyph glyph-name="equal" unicode="=" horiz-adv-x="1099" 
d="M141 240v286h815v-286h-815zM141 688v289h815v-289h-815z" />
    <glyph glyph-name="greater" unicode="&#x3e;" horiz-adv-x="1052" 
d="M129 16v340l248 111l285 108v21l-271 115l-262 123v329l819 -442v-266z" />
    <glyph glyph-name="question" unicode="?" horiz-adv-x="1224" 
d="M47 1063q16 215 168 331.5t393 116.5q264 0 408.5 -131t144.5 -354q0 -168 -112.5 -294t-292.5 -159v-129h-342v408q33 -18 137 -18q121 0 185.5 52t64.5 140q0 84 -54.5 131t-146.5 47q-82 0 -136 -38t-63 -103h-354zM408 0v332h350v-332h-350z" />
    <glyph glyph-name="at" unicode="@" horiz-adv-x="1875" 
d="M113 647q0 385 236.5 624.5t617.5 239.5q358 0 584.5 -217t226.5 -557q0 -242 -114 -386t-298 -144q-82 0 -147.5 40t-90.5 109h-14q-63 -139 -231 -139q-154 0 -238 112.5t-84 295.5q0 188 95.5 310t254.5 122q139 0 209 -99h13l26 74h133l-37 -491q-4 -72 17.5 -110
t85.5 -38q106 0 161.5 92.5t55.5 249.5q0 281 -168 436.5t-436 155.5q-305 0 -475 -187.5t-170 -482.5q0 -313 191.5 -496.5t477.5 -183.5q260 0 486 109v-190q-207 -102 -494 -103q-385 0 -629.5 233.5t-244.5 620.5zM758 623q0 -111 41 -166.5t102 -55.5q76 0 129 68
t53 195q0 113 -43 166t-106 53q-74 0 -125 -66.5t-51 -193.5z" />
    <glyph glyph-name="A" unicode="A" 
d="M-6 0l514 1493h446l539 -1493h-420l-72 225h-538l-74 -225h-395zM557 518h352l-45 139l-119 433h-14l-129 -433z" />
    <glyph glyph-name="B" unicode="B" horiz-adv-x="1472" 
d="M141 0v1493h787q199 0 321.5 -104.5t122.5 -276.5q0 -119 -55 -204t-156 -124v-18q125 -35 188.5 -128t63.5 -224q0 -186 -132 -300t-353 -114h-787zM512 279h305q76 0 135.5 40.5t59.5 135t-58.5 133.5t-136.5 39h-305v-348zM512 899h295q76 0 124 43t48 121
q0 72 -47 111.5t-125 39.5h-295v-315z" />
    <glyph glyph-name="C" unicode="C" horiz-adv-x="1546" 
d="M61 741q0 348 204 559t540 211q283 0 470 -148.5t214 -391.5h-397q-27 98 -106 153.5t-183 55.5q-162 0 -250 -116t-88 -325t87 -318.5t243 -109.5q113 0 193.5 58.5t103.5 154.5h397q-27 -244 -217.5 -394t-466.5 -150q-342 0 -543 208.5t-201 552.5z" />
    <glyph glyph-name="D" unicode="D" horiz-adv-x="1544" 
d="M141 0v1493h645q334 0 514.5 -203t180.5 -545t-181.5 -543.5t-513.5 -201.5h-645zM522 326h199q172 0 266 92t94 336q0 233 -93 323t-267 90h-199v-841z" />
    <glyph glyph-name="E" unicode="E" horiz-adv-x="1310" 
d="M141 0v1493h1078v-326h-697v-239h590v-305h-590v-297h697v-326h-1078z" />
    <glyph glyph-name="F" unicode="F" horiz-adv-x="1269" 
d="M141 0v1493h1084v-326h-703v-350h621v-309h-621v-508h-381z" />
    <glyph glyph-name="G" unicode="G" horiz-adv-x="1642" 
d="M61 729q0 354 204 568t542 214q270 0 453.5 -135t209.5 -356h-397q-25 74 -96.5 117t-171.5 43q-168 0 -254 -120t-86 -325q0 -215 91 -324.5t247 -109.5q123 0 207 63.5t102 167.5h-397v299h813v-831h-311l-17 178h-14q-57 -90 -181 -144t-278 -54q-303 0 -484.5 206.5
t-181.5 542.5z" />
    <glyph glyph-name="H" unicode="H" horiz-adv-x="1656" 
d="M141 0v1493h381v-586h613v586h381v-1493h-381v608h-613v-608h-381z" />
    <glyph glyph-name="I" unicode="I" horiz-adv-x="663" 
d="M141 0v1493h381v-1493h-381z" />
    <glyph glyph-name="J" unicode="J" horiz-adv-x="874" 
d="M31 0v305q51 -10 123 -10q115 0 163 57.5t48 169.5v971h380v-1020q0 -491 -503 -491h-2q-125 0 -209 18z" />
    <glyph glyph-name="K" unicode="K" horiz-adv-x="1521" 
d="M141 0v1493h381v-627l502 627h471l-541 -647l562 -846h-463l-359 537l-172 -207v-330h-381z" />
    <glyph glyph-name="L" unicode="L" horiz-adv-x="1173" 
d="M141 0v1493h381v-1155h576v-338h-957z" />
    <glyph glyph-name="M" unicode="M" horiz-adv-x="1882" 
d="M141 0v1493h469l326 -745h16l320 745h471v-1493h-371v563l21 402h-15l-434 -945l-434 945h-18l22 -406v-559h-373z" />
    <glyph glyph-name="N" unicode="N" horiz-adv-x="1624" 
d="M141 0v1493h437l532 -948h16l-22 420v528h379v-1493h-436l-529 938h-16l20 -406v-532h-381z" />
    <glyph glyph-name="O" unicode="O" horiz-adv-x="1597" 
d="M61 748q0 362 199 562.5t537 200.5q350 0 543.5 -207.5t193.5 -555.5q0 -365 -199.5 -566.5t-537.5 -201.5q-348 0 -542 208t-194 560zM465 748q0 -207 90 -321t242 -114q162 0 249 118t87 317q0 203 -91.5 317.5t-244.5 114.5q-158 0 -245 -117.5t-87 -314.5z" />
    <glyph glyph-name="P" unicode="P" horiz-adv-x="1417" 
d="M141 0v1493h682q252 0 403.5 -143.5t151.5 -377t-152.5 -377.5t-402.5 -144h-301v-451h-381zM522 774h246q205 0 205 193q0 188 -205 188h-246v-381z" />
    <glyph glyph-name="Q" unicode="Q" horiz-adv-x="1597" 
d="M61 748q0 362 199 562.5t537 200.5q350 0 543.5 -207.5t193.5 -555.5q0 -276 -116.5 -460.5t-327.5 -260.5q111 -61 280 -62q76 0 135 12v-331q-53 -6 -104 -6q-244 0 -402.5 91t-228.5 249q-338 8 -523.5 215.5t-185.5 552.5zM465 748q0 -207 90 -321t242 -114
q162 0 249 118t87 317q0 203 -91.5 317.5t-244.5 114.5q-158 0 -245 -117.5t-87 -314.5z" />
    <glyph glyph-name="R" unicode="R" horiz-adv-x="1509" 
d="M141 0v1493h768q229 0 353 -121t124 -332q0 -123 -59 -219t-160 -147v-17q199 -59 199 -299v-174q0 -125 25 -184h-394q-22 45 -22 173v11v121q0 92 -43 138t-152 46h-258v-489h-381zM522 813h258q98 0 148.5 48t50.5 132q0 174 -193 174h-264v-354z" />
    <glyph glyph-name="S" unicode="S" horiz-adv-x="1382" 
d="M47 471h395q4 -88 73 -138t185 -50q100 0 155.5 38.5t55.5 104.5q0 31 -13 54.5t-26.5 35.5t-45 23.5t-42 13.5t-43.5 8l-219 45q-63 14 -101 23.5t-113 42.5t-119 73.5t-79.5 115.5t-35.5 171q0 217 163.5 348t434.5 131q266 0 429 -122.5t167 -325.5h-396
q-6 74 -64 112.5t-149 38.5q-88 0 -134 -33.5t-46 -88.5q0 -23 6.5 -40.5t20.5 -29.5t25.5 -20.5t35 -16.5t32.5 -10t37 -8t30 -6l231 -46q422 -80 422 -440q0 -236 -171 -365.5t-460 -129.5q-291 0 -465 135t-176 356z" />
    <glyph glyph-name="T" unicode="T" horiz-adv-x="1189" 
d="M14 1163v330h1162v-330h-396v-1163h-383v1163h-383z" />
    <glyph glyph-name="U" unicode="U" horiz-adv-x="1576" 
d="M129 578v915h379v-893q0 -133 72.5 -208t207.5 -75q131 0 206 73t75 210v893h381v-915q0 -281 -180 -439.5t-484 -158.5q-330 0 -493.5 159.5t-163.5 438.5z" />
    <glyph glyph-name="V" unicode="V" horiz-adv-x="1525" 
d="M4 1493h426l184 -596l140 -530h16l145 530l181 596h426l-518 -1493h-480z" />
    <glyph glyph-name="W" unicode="W" horiz-adv-x="2066" 
d="M12 1493h422l115 -705l51 -370h16l187 1075h467l192 -1079h17l45 368l110 711h420l-303 -1493h-520l-187 975h-16l-190 -975h-523z" />
    <glyph glyph-name="X" unicode="X" horiz-adv-x="1490" 
d="M4 1495h477l140 -272l120 -258h17l112 254l134 276h469l-420 -752l436 -743h-477l-113 215l-141 289h-15l-137 -291l-104 -213h-469l411 743z" />
    <glyph glyph-name="Y" unicode="Y" horiz-adv-x="1490" 
d="M0 1493h451l133 -283l153 -315h15l153 309l137 289h449l-555 -934v-559h-383v559z" />
    <glyph glyph-name="Z" unicode="Z" horiz-adv-x="1208" 
d="M41 0v313l643 852h-643v328h1120v-311l-649 -856h637v-326h-1108z" />
    <glyph glyph-name="bracketleft" unicode="[" horiz-adv-x="634" 
d="M178 -487v2115h404v-153h-238v-1817h238v-145h-404z" />
    <glyph glyph-name="backslash" unicode="\" horiz-adv-x="720" 
d="M-8 1493h186l549 -1493h-184z" />
    <glyph glyph-name="bracketright" unicode="]" horiz-adv-x="634" 
d="M51 -342h240v1817h-240v153h404v-2115h-404v145z" />
    <glyph glyph-name="asciicircum" unicode="^" horiz-adv-x="942" 
d="M43 961l315 532h228l313 -532h-274l-152 258l-156 -258h-274z" />
    <glyph glyph-name="underscore" unicode="_" horiz-adv-x="727" 
d="M-4 0h735v-182h-735v182z" />
    <glyph glyph-name="grave" unicode="`" horiz-adv-x="843" 
d="M90 1737l146 237l456 -342l-104 -172z" />
    <glyph glyph-name="a" unicode="a" horiz-adv-x="1206" 
d="M37 303q0 170 122 267.5t324 97.5h238v57q0 63 -36 96t-99 33q-66 0 -106 -31.5t-44 -83.5h-354q16 184 156.5 286.5t359.5 102.5q240 0 361.5 -110.5t121.5 -302.5v-406q0 -63 49 -63q20 0 33 4v-246q-90 -22 -169 -22h-7q-225 0 -246 180h-16q-27 -84 -117 -133
t-213 -49q-164 0 -261 86.5t-97 236.5zM399 350q0 -49 37 -75.5t96 -26.5q90 0 139.5 48t49.5 132v31h-174q-78 0 -113 -32t-35 -77z" />
    <glyph glyph-name="b" unicode="b" horiz-adv-x="1339" 
d="M109 0v1532h360v-625h18q39 102 129.5 161.5t223.5 59.5q207 0 328.5 -151.5t121.5 -423.5q0 -266 -117.5 -419.5t-322.5 -153.5q-123 0 -219 56t-144 163h-18l-49 -199h-311zM469 524q0 -123 61.5 -188.5t163.5 -65.5q111 0 170.5 75t59.5 208q0 141 -62.5 213
t-167.5 72q-109 0 -167 -70t-58 -188v-56z" />
    <glyph glyph-name="c" unicode="c" horiz-adv-x="1173" 
d="M49 555q0 258 154.5 415.5t408.5 157.5q217 0 362.5 -118.5t158.5 -317.5h-355q-25 143 -170 144q-194 0 -194 -280q0 -144 51 -214t141 -70q74 0 118 39t52 107h357q-8 -199 -155 -318.5t-370 -119.5q-252 0 -405.5 158.5t-153.5 416.5z" />
    <glyph glyph-name="d" unicode="d" horiz-adv-x="1341" 
d="M49 549q0 272 121 425.5t324 153.5q135 0 226 -63.5t132 -167.5h20v635h361v-1532h-313l-48 199h-20q-47 -106 -143.5 -162.5t-214.5 -56.5q-207 0 -326 152.5t-119 416.5zM416 553q0 -141 59.5 -212t161.5 -71q115 0 175 68.5t60 185.5v56q0 125 -62 191.5t-169 66.5
q-109 0 -167 -77t-58 -208z" />
    <glyph glyph-name="e" unicode="e" horiz-adv-x="1189" 
d="M49 551q0 262 152.5 419.5t402.5 157.5q242 0 386.5 -138t144.5 -365q0 -90 -17 -156h-710v-14q0 -93 49 -147q53 -58 147 -58q66 0 117 29.5t65 76.5h355q-29 -170 -175.5 -273t-355.5 -103q-252 0 -406.5 156.5t-154.5 414.5zM412 700h362q-2 74 -51 117t-131 43
q-80 0 -128 -44t-52 -116z" />
    <glyph glyph-name="f" unicode="f" horiz-adv-x="835" 
d="M14 817v291h211v51q0 195 116 293t316 98q92 0 164 -20v-281q-47 10 -86 11q-150 0 -149 -123v-29h235v-291h-235v-817h-361v817h-211z" />
    <glyph glyph-name="g" unicode="g" horiz-adv-x="1165" 
d="M16 -137q0 76 47.5 133t122.5 74v16q-59 20 -93 67.5t-34 104.5q0 150 170 209v16q-170 92 -170 285q0 164 127 262t336 98q94 0 162 -20q35 111 142.5 178.5t250.5 67.5v-271q-145 0 -190 -61q129 -100 129 -264q0 -162 -125 -259.5t-332 -97.5q-76 0 -131 13
q-43 -20 -43 -61.5t34 -53.5t95 -12h231q186 0 285.5 -88t99.5 -240q0 -358 -612 -358q-250 0 -376 69.5t-126 192.5zM352 -63q0 -84 187 -84q233 0 233 94q0 61 -88 61h-229h-3q-100 0 -100 -71zM410 766q0 -55 35.5 -88t93.5 -33q59 0 94 33t35 88t-35 88t-94 33
q-57 0 -93 -34t-36 -87z" />
    <glyph glyph-name="h" unicode="h" horiz-adv-x="1325" 
d="M109 0v1532h360v-623h18q102 219 361 219q193 0 287 -125.5t94 -343.5v-659h-363v623q0 213 -184 213q-102 0 -157.5 -67t-55.5 -177v-592h-360z" />
    <glyph glyph-name="i" unicode="i" horiz-adv-x="575" 
d="M109 0v1108h360v-1108h-360zM109 1198v330h360v-330h-360z" />
    <glyph glyph-name="j" unicode="j" horiz-adv-x="577" 
d="M-98 -68q14 -4 57 -4q45 0 76 15.5t45 31t21.5 47t7.5 42v36.5v1008h360v-1067q0 -197 -112.5 -299t-305.5 -102q-88 0 -149 12v280zM109 1198v330h360v-330h-360z" />
    <glyph glyph-name="k" unicode="k" horiz-adv-x="1267" 
d="M109 0v1532h364v-795l340 371h442l-411 -430l434 -678h-410l-270 420l-125 -131v-289h-364z" />
    <glyph glyph-name="l" unicode="l" horiz-adv-x="575" 
d="M109 0v1532h360v-1532h-360z" />
    <glyph glyph-name="m" unicode="m" horiz-adv-x="1933" 
d="M109 0v1108h313l45 -203h20q49 115 121 169t187 54q233 0 317 -221h23q100 221 340 221q182 0 272 -127t90 -344v-657h-360v621q0 215 -148 215q-88 0 -133 -57.5t-45 -149.5v-629h-360v629q0 207 -150 207q-82 0 -127 -54.5t-45 -144.5v-637h-360z" />
    <glyph glyph-name="n" unicode="n" horiz-adv-x="1323" 
d="M109 0v1108h315l45 -203h18q102 223 361 223q193 0 286 -125.5t93 -345.5v-657h-361v621q0 215 -184 215q-102 0 -157.5 -69t-55.5 -181v-586h-360z" />
    <glyph glyph-name="o" unicode="o" horiz-adv-x="1222" 
d="M49 555q0 254 154.5 413.5t408.5 159.5q252 0 407 -159.5t155 -415.5q0 -254 -155 -412.5t-407 -158.5q-254 0 -408.5 158.5t-154.5 414.5zM414 553q0 -129 54 -204t142 -75q94 0 145.5 77t51.5 204q0 129 -53.5 205t-145.5 76t-143 -78t-51 -205z" />
    <glyph glyph-name="p" unicode="p" horiz-adv-x="1339" 
d="M109 -342v1450h311l49 -205h18q45 106 141.5 165.5t215.5 59.5q209 0 327.5 -154.5t118.5 -420.5q0 -270 -120.5 -421.5t-323.5 -151.5q-133 0 -227.5 59t-131.5 160h-18v-541h-360zM469 528q0 -115 60.5 -186.5t164.5 -71.5q113 0 171.5 78t58.5 209q0 135 -60.5 208
t-165 73t-167 -71.5t-62.5 -188.5v-50z" />
    <glyph glyph-name="q" unicode="q" horiz-adv-x="1341" 
d="M49 553q0 266 118 420.5t325 154.5q121 0 217 -59t143 -166h20l48 205h313v-1450h-361v541h-20q-41 -102 -133 -160.5t-225 -58.5q-203 0 -324 150.5t-121 422.5zM416 559q0 -131 56 -210t169 -79q106 0 168.5 72t62.5 186v50q0 115 -64.5 187.5t-168.5 72.5
q-106 0 -164.5 -72t-58.5 -207z" />
    <glyph glyph-name="r" unicode="r" horiz-adv-x="829" 
d="M109 0v1108h313l45 -205h14q78 225 338 225v-311h-15q-169 0 -250 -90q-85 -94 -85 -268v-459h-360z" />
    <glyph glyph-name="s" unicode="s" horiz-adv-x="1107" 
d="M51 352h355q2 -121 153 -121q131 0 131 86q0 31 -18.5 50.5t-34.5 23.5t-51 10l-183 31q-335 57 -335 328q0 176 128 272t347 96t346 -96t133 -256h-354q0 100 -131 101q-109 0 -109 -82q0 -47 34 -63.5t95 -24.5l182 -29q317 -49 318 -324q0 -178 -135.5 -276
t-364.5 -98q-240 0 -373 103t-133 269z" />
    <glyph glyph-name="t" unicode="t" horiz-adv-x="831" 
d="M10 817v291h174v252l361 139v-391h233v-291h-233v-414q0 -74 29.5 -105.5t95.5 -31.5q68 0 108 10v-276q-106 -20 -219 -20q-98 0 -169 23.5t-109.5 57t-61 88t-29 100.5t-6.5 107v461h-174z" />
    <glyph glyph-name="u" unicode="u" horiz-adv-x="1302" 
d="M96 420v688h363v-631q0 -205 176 -205q96 0 152.5 70t56.5 180v586h360v-1108h-317l-45 203h-21q-104 -223 -352 -223q-186 0 -279.5 117.5t-93.5 322.5z" />
    <glyph glyph-name="v" unicode="v" horiz-adv-x="1144" 
d="M-18 1108h389l102 -418l92 -389h13l196 807h389l-364 -1108h-451z" />
    <glyph glyph-name="w" unicode="w" horiz-adv-x="1662" 
d="M8 1108h348l80 -416l62 -332h16l123 748h391l117 -752h12l60 332l88 420h350l-275 -1108h-438l-76 434l-35 215h-12l-35 -213l-75 -436h-428z" />
    <glyph glyph-name="x" unicode="x" horiz-adv-x="1110" 
d="M-10 0l362 551l-356 557h371l192 -334h16l193 334h367l-351 -557l357 -551h-379l-193 315h-16l-195 -315h-368z" />
    <glyph glyph-name="y" unicode="y" horiz-adv-x="1112" 
d="M-27 1108h385l111 -385l82 -305h16l80 305l107 385h374l-393 -1131q-66 -190 -194.5 -264.5t-341.5 -74.5q-80 0 -156 14v287q49 -8 125 -9q170 0 201 109l12 45z" />
    <glyph glyph-name="z" unicode="z" horiz-adv-x="1024" 
d="M66 817v291h882v-254l-438 -565h448v-289h-886v258l436 559h-442z" />
    <glyph glyph-name="braceleft" unicode="{" horiz-adv-x="698" 
d="M111 496v157q74 0 110.5 42t36.5 114v633q0 84 48 135t138 51h203v-153h-219v-654q0 -100 -42 -161.5t-120 -75.5v-6q162 -43 162 -242v-678h219v-145h-203q-88 0 -137 49t-49 137v647q0 78 -40.5 114t-106.5 36z" />
    <glyph glyph-name="bar" unicode="|" horiz-adv-x="610" 
d="M152 -113v1655h297v-1655h-297z" />
    <glyph glyph-name="braceright" unicode="}" horiz-adv-x="698" 
d="M51 -342h215v678q0 199 166 242v6q-166 31 -166 237v654h-215v153h203q88 0 135 -50t47 -136v-633q0 -70 38 -113t112 -43v-157q-66 0 -108 -36t-42 -114v-647q0 -88 -46 -137t-136 -49h-203v145z" />
    <glyph glyph-name="asciitilde" unicode="~" horiz-adv-x="919" 
d="M33 524q-12 188 59.5 274.5t181.5 86.5q78 0 183.5 -62.5t163.5 -62.5q111 0 110 135h158q12 -188 -63.5 -276.5t-184.5 -88.5q-76 0 -144.5 32t-123 63.5t-94.5 31.5q-47 0 -70 -37.5t-16 -95.5h-160z" />
    <glyph glyph-name="uni00A0" unicode="&#xa0;" horiz-adv-x="423" 
 />
    <glyph glyph-name="exclamdown" unicode="&#xa1;" horiz-adv-x="634" 
d="M127 1153v340h381v-340h-381zM135 0v442l92 572h185l90 -572v-442h-367z" />
    <glyph glyph-name="cent" unicode="&#xa2;" horiz-adv-x="1140" 
d="M43 745q0 211 106.5 347.5t292.5 171.5v168h222v-166q170 -27 275 -133.5t120 -266.5h-357q-8 57 -49 90t-100 33q-160 0 -160 -244q0 -239 160 -239q57 0 97 32.5t50 88.5h353q-12 -160 -118 -266.5t-271 -133.5v-166h-222v168q-186 33 -292.5 167t-106.5 349z" />
    <glyph glyph-name="sterling" unicode="&#xa3;" horiz-adv-x="1343" 
d="M31 0v307h135v301h-135v287h135v137q0 219 141.5 349t376.5 130q215 0 352.5 -116.5t149.5 -307.5h-371q-20 104 -135 105q-143 0 -143 -160v-137h450v-287h-450v-301h403v182h307v-489h-1216z" />
    <glyph glyph-name="currency" unicode="&#xa4;" horiz-adv-x="1218" 
d="M47 1116l168 172l152 -174q256 145 495 6l146 168l163 -174l-149 -141q88 -125 91 -268.5t-95 -288.5l156 -146l-162 -168l-148 172q-131 -74 -257 -69.5t-238 76.5l-154 -179l-166 170l164 152q-96 127 -95 269.5t95 271.5zM432 694q0 -82 51.5 -137t128.5 -57
q78 2 131.5 57t53.5 139q0 86 -53.5 139.5t-131 53.5t-130 -56.5t-50.5 -138.5z" />
    <glyph glyph-name="yen" unicode="&#xa5;" horiz-adv-x="1454" 
d="M0 1493h449l182 -399l86 -226h16l90 226l187 399h444l-375 -662h129v-286h-290v-88h290v-287h-290v-170h-379v170h-289v287h289v88h-289v286h125z" />
    <glyph glyph-name="brokenbar" unicode="&#xa6;" horiz-adv-x="610" 
d="M152 -127v737h297v-737h-297zM152 780v762h297v-762h-297z" />
    <glyph glyph-name="section" unicode="&#xa7;" horiz-adv-x="1181" 
d="M70 666q0 111 67.5 179t175.5 87v18q-170 61 -170 230q0 145 127 238t348 93q199 0 323 -90t128 -237h-371q-6 61 -84 61q-66 0 -65 -49q0 -10 2 -17.5t8 -13.5t9 -10t14.5 -9t15.5 -6t19.5 -6.5t19.5 -7.5l172 -59q51 -16 83 -28.5t78 -39t72.5 -56.5t47 -78t20.5 -107
q0 -182 -174 -256v-21q70 -23 112 -92.5t42 -155.5q0 -156 -135.5 -250t-358.5 -94q-209 0 -338 85t-141 233h387q8 -57 82 -57q94 0 94 67q0 31 -21.5 46.5t-72.5 31.5l-271 88q-245 84 -245 283zM457 754q0 -59 88 -90l108 -43q16 -6 40 -14.5t42 -14.5q18 33 19 67
q0 31 -19.5 53.5t-36 31t-53.5 20.5l-70 29q-84 31 -88 32q-30 -24 -30 -71z" />
    <glyph glyph-name="dieresis" unicode="&#xa8;" horiz-adv-x="874" 
d="M70 1497v320h272v-320h-272zM514 1497v320h272v-320h-272z" />
    <glyph glyph-name="copyright" unicode="&#xa9;" horiz-adv-x="1955" 
d="M113 700q0 250 123.5 451t320.5 306.5t424 105.5q225 0 421.5 -105.5t318.5 -304.5t122 -448q0 -248 -119.5 -450t-317.5 -311.5t-425 -109.5q-225 0 -423 106.5t-321.5 307.5t-123.5 452zM203 700q0 -342 227 -563t551 -221q322 0 547 220t225 569q0 340 -225 559
t-547 219q-324 0 -551 -219.5t-227 -563.5zM506 700q0 205 138 341.5t349 136.5q186 0 320.5 -107.5t136.5 -267.5h-225q-8 78 -71.5 126t-158.5 48q-125 0 -193.5 -80t-68.5 -201t67.5 -197.5t190.5 -76.5q94 0 160 46t74 124h225q-10 -166 -141.5 -268.5t-313.5 -102.5
q-213 0 -351 138.5t-138 340.5z" />
    <glyph glyph-name="ordfeminine" unicode="&#xaa;" horiz-adv-x="948" 
d="M82 928q0 115 81 183.5t222 68.5h156v24q0 82 -101 82q-84 0 -94 -61h-256q8 119 105.5 193.5t263.5 74.5q170 0 257 -82t87 -219v-234q0 -53 51 -53q23 0 25 2v-198q-43 -16 -115 -17q-86 0 -136 42t-55 118h-6q-45 -158 -239 -158q-113 0 -179.5 65.5t-66.5 168.5z
M340 950q0 -59 84 -59q51 0 84 28.5t33 73.5v23h-109q-92 0 -92 -66z" />
    <glyph glyph-name="guillemotleft" unicode="&#xab;" horiz-adv-x="1169" 
d="M68 561l245 443h303l-219 -443l219 -446h-303zM571 561l242 443h309l-223 -443l223 -446h-309z" />
    <glyph glyph-name="logicalnot" unicode="&#xac;" horiz-adv-x="1165" 
d="M94 588v282h973v-581h-274v299h-699z" />
    <glyph glyph-name="uni00AD" unicode="&#xad;" horiz-adv-x="978" 
d="M111 518v193h755v-193h-755z" />
    <glyph glyph-name="registered" unicode="&#xae;" horiz-adv-x="1255" 
d="M80 969q0 240 156.5 391t390.5 151q236 0 393.5 -151.5t157.5 -390.5q0 -238 -159 -390.5t-392.5 -152.5t-390 152.5t-156.5 390.5zM164 969q0 -203 134 -332t329 -129q197 0 331 129t134 334t-134.5 336t-330.5 131q-195 0 -329 -132t-134 -337zM428 743v482h246
q78 0 119 -38t41 -102q0 -84 -70 -122v-2q63 -25 63 -99v-57q0 -43 9 -62h-129q-8 16 -9 60v37q0 61 -61 61h-82v-158h-127zM555 999h80q63 0 63 62q0 59 -65 59h-78v-121z" />
    <glyph glyph-name="macron" unicode="&#xaf;" horiz-adv-x="731" 
d="M-18 1489v270h770v-270h-770z" />
    <glyph glyph-name="degree" unicode="&#xb0;" horiz-adv-x="880" 
d="M102 1169q0 147 94.5 240.5t242 93.5t243.5 -93.5t96 -240.5q0 -143 -96 -237t-243.5 -94t-242 94t-94.5 237zM340 1169q0 -43 28.5 -74.5t69.5 -31.5q43 0 72 31.5t29 74.5q0 49 -29 79t-72 30t-70.5 -29.5t-27.5 -79.5z" />
    <glyph glyph-name="plusminus" unicode="&#xb1;" horiz-adv-x="1232" 
d="M94 0v276h1045v-276h-1045zM94 664v274h379v299h283v-299h383v-274h-383v-306h-283v306h-379z" />
    <glyph glyph-name="uni00B2" unicode="&#xb2;" horiz-adv-x="940" 
d="M53 1389q4 182 119 286.5t299 104.5t295 -98.5t111 -258.5q0 -106 -56.5 -197t-127 -144.5t-156.5 -120t-125 -117.5l135 6h334v-236h-803v39q0 129 53 233.5t129 170t151.5 122t129 118t53.5 128.5q0 57 -36 90t-97 33q-68 0 -105 -42t-30 -117h-273z" />
    <glyph glyph-name="uni00B3" unicode="&#xb3;" horiz-adv-x="972" 
d="M55 1419q-8 164 109 262.5t315 98.5q180 0 292 -86t112 -226q0 -174 -154 -243v-11q86 -35 133 -106.5t47 -167.5q0 -152 -119.5 -247t-312.5 -95q-190 0 -305 100.5t-113 264.5h273q-2 -57 40 -95.5t113 -38.5q70 0 109 38t39 102q0 127 -162 127h-127v213h100
q162 0 162 125q0 53 -37 83.5t-96 30.5q-70 0 -109.5 -35.5t-35.5 -93.5h-273z" />
    <glyph glyph-name="acute" unicode="&#xb4;" horiz-adv-x="843" 
d="M158 1624l456 342l146 -237l-498 -279z" />
    <glyph glyph-name="paragraph" unicode="&#xb6;" horiz-adv-x="1398" 
d="M63 1065q0 203 129.5 315.5t344.5 112.5h749v-219h-131v-1282q0 -172 -94 -258t-264 -86h-564v200h277v811q-207 0 -327 114t-120 292zM745 -152h33q137 0 137 129v1297h-170v-1426z" />
    <glyph glyph-name="periodcentered" unicode="&#xb7;" horiz-adv-x="714" 
d="M127 580q0 100 67.5 169.5t161.5 69.5q96 0 164 -70.5t68 -168.5q0 -96 -67.5 -166t-164.5 -70q-94 0 -161.5 69t-67.5 167z" />
    <glyph glyph-name="cedilla" unicode="&#xb8;" horiz-adv-x="1032" 
d="M313 -281q88 -55 165 -41.5t77 86.5q0 51 -55.5 66.5t-110.5 -12.5v82l105 174h137v-45l-60 -111q70 2 137.5 -42t67.5 -136q0 -80 -47 -136.5t-117.5 -77t-151.5 -13t-147 42.5v163z" />
    <glyph glyph-name="uni00B9" unicode="&#xb9;" horiz-adv-x="710" 
d="M10 1354v207h51q111 0 184.5 56t80.5 148h254v-1151h-269v740h-301z" />
    <glyph glyph-name="ordmasculine" unicode="&#xba;" horiz-adv-x="978" 
d="M94 1094q0 176 109.5 287.5t285.5 111.5q178 0 287 -111.5t109 -289.5q0 -174 -109.5 -285t-286 -111t-286 111t-109.5 287zM358 1094q0 -86 36 -137.5t95 -51.5q63 0 97.5 54.5t34.5 136.5q0 84 -36 135t-97.5 51t-95.5 -52t-34 -136z" />
    <glyph glyph-name="guillemotright" unicode="&#xbb;" horiz-adv-x="1169" 
d="M49 115l221 446l-221 443h307l242 -443l-242 -446h-307zM549 115l223 446l-223 443h309l242 -443l-242 -446h-309z" />
    <glyph glyph-name="onequarter" unicode="&#xbc;" horiz-adv-x="1880" 
d="M45 1141v178h92q88 0 133 44t45 124v6h211v-969h-225v617h-256zM356 -94l848 1667h273l-850 -1667h-271zM1149 170v180l311 633h334v-616h94v-197h-94v-170h-221v170h-424zM1397 367h176v362z" />
    <glyph glyph-name="onehalf" unicode="&#xbd;" horiz-adv-x="1966" 
d="M45 1141v178h92q88 0 133 44t45 124v6h211v-969h-225v617h-256zM356 -94l848 1667h273l-850 -1667h-271zM1225 676q4 143 100 231t252 88q154 0 239 -84t85 -219q0 -92 -47.5 -171t-105.5 -125t-127.5 -104.5t-100.5 -103.5l114 7h256v-195h-647v33q0 111 44 198.5
t107.5 144t127 104.5t107.5 101.5t44 110.5q0 53 -30.5 83t-79.5 30q-57 0 -87 -39t-26 -102z" />
    <glyph glyph-name="threequarters" unicode="&#xbe;" horiz-adv-x="1996" 
d="M29 1200q-4 137 86 221t252 84q147 0 234 -72.5t87 -189.5q0 -147 -131 -205v-10q154 -61 154 -231q0 -129 -95.5 -209t-242.5 -80q-152 0 -246 84t-92 221h223q2 -47 33 -79t78 -32q49 0 80.5 31t31.5 78t-33.5 75.5t-85.5 28.5h-90v201h62q61 0 93 29t32 76
q0 90 -99 90q-51 0 -79.5 -31t-26.5 -80h-225zM475 -94l848 1667h272l-850 -1667h-270zM1266 170v180l311 633h334v-616h94v-197h-94v-170h-221v170h-424zM1513 367h177v362z" />
    <glyph glyph-name="questiondown" unicode="&#xbf;" horiz-adv-x="1224" 
d="M63 467q0 168 113 294t293 159v129h342v-408q-33 18 -137 18q-121 0 -185.5 -52t-64.5 -140q0 -84 54 -131t147 -47q82 0 136 38t62 103h355q-16 -215 -168 -331.5t-394 -116.5q-264 0 -408.5 131t-144.5 354zM467 1161v332h350v-332h-350z" />
    <glyph glyph-name="Agrave" unicode="&#xc0;" 
d="M-6 0l514 1493h446l539 -1493h-420l-72 225h-538l-74 -225h-395zM233 1843l146 238l457 -342l-105 -172zM557 518h352l-45 139l-119 433h-14l-129 -433z" />
    <glyph glyph-name="Aacute" unicode="&#xc1;" 
d="M-6 0l514 1493h446l539 -1493h-420l-72 225h-538l-74 -225h-395zM557 518h352l-45 139l-119 433h-14l-129 -433zM625 1731l456 342l146 -238l-498 -279z" />
    <glyph glyph-name="Acircumflex" unicode="&#xc2;" 
d="M-6 0l514 1493h446l539 -1493h-420l-72 225h-538l-74 -225h-395zM330 1731l301 290h198l304 -290l-170 -166l-232 250l-233 -250zM557 518h352l-45 139l-119 433h-14l-129 -433z" />
    <glyph glyph-name="Atilde" unicode="&#xc3;" 
d="M-6 0l514 1493h446l539 -1493h-420l-72 225h-538l-74 -225h-395zM336 1679q90 231 270 228q61 0 135 -39t121 -39q12 0 24.5 2t22 6t17.5 7t16 10.5t12 11.5t10.5 12t8.5 11t6 12l6 8l145 -90q-43 -121 -114.5 -179.5t-155.5 -58.5q-57 2 -133 42t-121 40q-59 0 -129 -78
zM557 518h352l-45 139l-119 433h-14l-129 -433z" />
    <glyph glyph-name="Adieresis" unicode="&#xc4;" 
d="M-6 0l514 1493h446l539 -1493h-420l-72 225h-538l-74 -225h-395zM371 1589v320h272v-320h-272zM557 518h352l-45 139l-119 433h-14l-129 -433zM815 1589v320h272v-320h-272z" />
    <glyph glyph-name="Aring" unicode="&#xc5;" 
d="M-6 0l514 1493h16q-68 72 -67 180q0 117 76.5 189.5t197.5 72.5t198 -72.5t77 -189.5q0 -109 -68 -180h16l539 -1493h-420l-72 225h-538l-74 -225h-395zM557 518h352l-45 139l-119 433h-14l-129 -433zM647 1673q0 -41 22.5 -66.5t61.5 -25.5t62.5 25.5t23.5 66.5
q0 43 -23.5 68.5t-62.5 25.5t-61.5 -25.5t-22.5 -68.5z" />
    <glyph glyph-name="AE" unicode="&#xc6;" horiz-adv-x="2045" 
d="M-6 0l461 1493h1501v-326h-672v-274h563v-303h-563v-264h672v-326h-1055v311h-422l-90 -311h-395zM563 604h338v563h-176z" />
    <glyph glyph-name="Ccedilla" unicode="&#xc7;" horiz-adv-x="1546" 
d="M61 741q0 348 204 559t540 211q283 0 470 -148.5t214 -391.5h-397q-27 98 -106 153.5t-183 55.5q-162 0 -250 -116t-88 -325t87 -318.5t243 -109.5q113 0 193.5 58.5t103.5 154.5h397q-27 -244 -217.5 -394t-466.5 -150l-35 -64q70 2 137.5 -42t67.5 -136
q0 -80 -47 -136.5t-118 -77t-151.5 -13t-146.5 42.5v163q90 -55 166 -41.5t76 86.5q0 51 -55.5 66.5t-110.5 -12.5v82l57 96q-272 45 -428 245.5t-156 501.5z" />
    <glyph glyph-name="Egrave" unicode="&#xc8;" horiz-adv-x="1310" 
d="M141 0v1493h1078v-326h-697v-239h590v-305h-590v-297h697v-326h-1078zM178 1843l146 238l456 -342l-104 -172z" />
    <glyph glyph-name="Eacute" unicode="&#xc9;" horiz-adv-x="1310" 
d="M141 0v1493h1078v-326h-697v-239h590v-305h-590v-297h697v-326h-1078zM571 1731l457 342l146 -238l-498 -279z" />
    <glyph glyph-name="Ecircumflex" unicode="&#xca;" horiz-adv-x="1310" 
d="M141 0v1493h1078v-326h-697v-239h590v-305h-590v-297h697v-326h-1078zM274 1731l301 290h199l303 -290l-170 -166l-231 250l-234 -250z" />
    <glyph glyph-name="Edieresis" unicode="&#xcb;" horiz-adv-x="1310" 
d="M141 0v1493h1078v-326h-697v-239h590v-305h-590v-297h697v-326h-1078zM317 1589v320h273v-320h-273zM762 1589v320h272v-320h-272z" />
    <glyph glyph-name="Igrave" unicode="&#xcc;" horiz-adv-x="663" 
d="M-166 1843l146 238l456 -342l-104 -172zM141 0v1493h381v-1493h-381z" />
    <glyph glyph-name="Iacute" unicode="&#xcd;" horiz-adv-x="663" 
d="M141 0v1493h381v-1493h-381zM227 1731l457 342l145 -238l-497 -279z" />
    <glyph glyph-name="Icircumflex" unicode="&#xce;" horiz-adv-x="663" 
d="M-68 1731l301 290h199l303 -290l-170 -166l-231 250l-234 -250zM141 0v1493h381v-1493h-381z" />
    <glyph glyph-name="Idieresis" unicode="&#xcf;" horiz-adv-x="663" 
d="M-27 1589v320h273v-320h-273zM141 0v1493h381v-1493h-381zM418 1589v320h272v-320h-272z" />
    <glyph glyph-name="Eth" unicode="&#xd0;" horiz-adv-x="1544" 
d="M-49 631v258h190v604h645q334 0 514.5 -203t180.5 -545t-181.5 -543.5t-513.5 -201.5h-645v631h-190zM522 326h199q172 0 266 92t94 336q0 233 -93 323t-267 90h-199v-278h185v-258h-185v-305z" />
    <glyph glyph-name="Ntilde" unicode="&#xd1;" horiz-adv-x="1624" 
d="M141 0v1493h437l532 -948h16l-22 420v528h379v-1493h-436l-529 938h-16l20 -406v-532h-381zM406 1679q90 231 270 228q61 0 135 -39t121 -39q12 0 24.5 2t21.5 6t17.5 7t16.5 10.5t12 11.5t10 12t8 11t7 12l6 8l145 -90q-43 -121 -114.5 -179.5t-155.5 -58.5
q-57 2 -133 42t-121 40q-59 0 -129 -78z" />
    <glyph glyph-name="Ograve" unicode="&#xd2;" horiz-adv-x="1597" 
d="M61 748q0 362 199 562.5t537 200.5q350 0 543.5 -207.5t193.5 -555.5q0 -365 -199.5 -566.5t-537.5 -201.5q-348 0 -542 208t-194 560zM299 1843l145 238l457 -342l-104 -172zM465 748q0 -207 90 -321t242 -114q162 0 249 118t87 317q0 203 -91.5 317.5t-244.5 114.5
q-158 0 -245 -117.5t-87 -314.5z" />
    <glyph glyph-name="Oacute" unicode="&#xd3;" horiz-adv-x="1597" 
d="M61 748q0 362 199 562.5t537 200.5q350 0 543.5 -207.5t193.5 -555.5q0 -365 -199.5 -566.5t-537.5 -201.5q-348 0 -542 208t-194 560zM465 748q0 -207 90 -321t242 -114q162 0 249 118t87 317q0 203 -91.5 317.5t-244.5 114.5q-158 0 -245 -117.5t-87 -314.5zM692 1731
l457 342l145 -238l-497 -279z" />
    <glyph glyph-name="Ocircumflex" unicode="&#xd4;" horiz-adv-x="1597" 
d="M61 748q0 362 199 562.5t537 200.5q350 0 543.5 -207.5t193.5 -555.5q0 -365 -199.5 -566.5t-537.5 -201.5q-348 0 -542 208t-194 560zM397 1731l301 290h199l303 -290l-170 -166l-231 250l-234 -250zM465 748q0 -207 90 -321t242 -114q162 0 249 118t87 317
q0 203 -91.5 317.5t-244.5 114.5q-158 0 -245 -117.5t-87 -314.5z" />
    <glyph glyph-name="Otilde" unicode="&#xd5;" horiz-adv-x="1597" 
d="M61 748q0 362 199 562.5t537 200.5q350 0 543.5 -207.5t193.5 -555.5q0 -365 -199.5 -566.5t-537.5 -201.5q-348 0 -542 208t-194 560zM401 1679q90 231 271 228q61 0 135 -39t121 -39q12 0 24.5 2t21.5 6t17 7t16.5 10.5t12.5 11.5t10 12t8 11t6 12l7 8l145 -90
q-43 -121 -114.5 -179.5t-155.5 -58.5q-57 2 -133 42t-121 40q-59 0 -129 -78zM465 748q0 -207 90 -321t242 -114q162 0 249 118t87 317q0 203 -91.5 317.5t-244.5 114.5q-158 0 -245 -117.5t-87 -314.5z" />
    <glyph glyph-name="Odieresis" unicode="&#xd6;" horiz-adv-x="1597" 
d="M61 748q0 362 199 562.5t537 200.5q350 0 543.5 -207.5t193.5 -555.5q0 -365 -199.5 -566.5t-537.5 -201.5q-348 0 -542 208t-194 560zM438 1589v320h273v-320h-273zM465 748q0 -207 90 -321t242 -114q162 0 249 118t87 317q0 203 -91.5 317.5t-244.5 114.5
q-158 0 -245 -117.5t-87 -314.5zM883 1589v320h272v-320h-272z" />
    <glyph glyph-name="multiply" unicode="&#xd7;" horiz-adv-x="1349" 
d="M84 227l375 387l-375 392l213 217l365 -379h26l359 379l215 -217l-373 -392l373 -387l-215 -219l-359 377h-26l-365 -377z" />
    <glyph glyph-name="Oslash" unicode="&#xd8;" horiz-adv-x="1646" 
d="M23 342l106 78q-53 147 -53 328q0 362 198.5 562.5t534.5 200.5q348 0 545 -206l110 79l160 -225l-129 -92q51 -141 51 -319q0 -367 -198.5 -567.5t-538.5 -200.5t-537 202l-108 -78zM479 748q0 -25 4 -74l559 405q-90 100 -233 101q-156 0 -243 -117.5t-87 -314.5z
M584 408q88 -94 225 -95q162 0 249 118t87 317q0 43 -2 63z" />
    <glyph glyph-name="Ugrave" unicode="&#xd9;" horiz-adv-x="1576" 
d="M129 578v915h379v-893q0 -133 72.5 -208t207.5 -75q131 0 206 73t75 210v893h381v-915q0 -281 -180 -439.5t-484 -158.5q-330 0 -493.5 159.5t-163.5 438.5zM289 1843l145 238l457 -342l-105 -172z" />
    <glyph glyph-name="Uacute" unicode="&#xda;" horiz-adv-x="1576" 
d="M129 578v915h379v-893q0 -133 72.5 -208t207.5 -75q131 0 206 73t75 210v893h381v-915q0 -281 -180 -439.5t-484 -158.5q-330 0 -493.5 159.5t-163.5 438.5zM682 1731l457 342l145 -238l-498 -279z" />
    <glyph glyph-name="Ucircumflex" unicode="&#xdb;" horiz-adv-x="1576" 
d="M129 578v915h379v-893q0 -133 72.5 -208t207.5 -75q131 0 206 73t75 210v893h381v-915q0 -281 -180 -439.5t-484 -158.5q-330 0 -493.5 159.5t-163.5 438.5zM387 1731l301 290h199l303 -290l-170 -166l-232 250l-233 -250z" />
    <glyph glyph-name="Udieresis" unicode="&#xdc;" horiz-adv-x="1576" 
d="M129 578v915h379v-893q0 -133 72.5 -208t207.5 -75q131 0 206 73t75 210v893h381v-915q0 -281 -180 -439.5t-484 -158.5q-330 0 -493.5 159.5t-163.5 438.5zM428 1589v320h272v-320h-272zM872 1589v320h273v-320h-273z" />
    <glyph glyph-name="Yacute" unicode="&#xdd;" horiz-adv-x="1490" 
d="M0 1493h451l133 -283l153 -315h15l153 309l137 289h449l-555 -934v-559h-383v559zM639 1731l457 342l145 -238l-498 -279z" />
    <glyph glyph-name="Thorn" unicode="&#xde;" horiz-adv-x="1359" 
d="M113 0v1536h381v-248h268q244 0 397.5 -143.5t153.5 -372.5q0 -227 -159 -374.5t-388 -147.5h-272v-250h-381zM494 573h198q100 0 156.5 53.5t56.5 139.5q0 84 -65.5 135t-147.5 51h-198v-379z" />
    <glyph glyph-name="germandbls" unicode="&#xdf;" horiz-adv-x="1290" 
d="M10 809v278h137q2 229 139.5 346t372.5 117q221 0 349.5 -104.5t128.5 -271.5q0 -113 -57.5 -194t-155.5 -116v-16q143 -27 228 -134.5t85 -258.5q0 -221 -152.5 -338t-416.5 -117h-82v293h47q113 0 176 60.5t63 160.5t-64.5 151.5t-174.5 51.5h-37v254h18q74 0 119 41
t45 108q0 61 -35.5 98t-99.5 37q-68 0 -102.5 -36.5t-34.5 -102.5v-1116h-359v809h-137z" />
    <glyph glyph-name="agrave" unicode="&#xe0;" horiz-adv-x="1206" 
d="M37 303q0 170 122 267.5t324 97.5h238v57q0 63 -36 96t-99 33q-66 0 -106 -31.5t-44 -83.5h-354q16 184 156.5 286.5t359.5 102.5q240 0 361.5 -110.5t121.5 -302.5v-406q0 -63 49 -63q20 0 33 4v-246q-94 -23 -176 -22q-225 0 -246 180h-16q-27 -84 -117 -133t-213 -49
q-164 0 -261 86.5t-97 236.5zM78 1462l145 238l457 -342l-105 -172zM399 350q0 -49 37 -75.5t96 -26.5q90 0 139.5 48t49.5 132v31h-174q-78 0 -113 -32t-35 -77z" />
    <glyph glyph-name="aacute" unicode="&#xe1;" horiz-adv-x="1206" 
d="M37 303q0 170 122 267.5t324 97.5h238v57q0 63 -36 96t-99 33q-66 0 -106 -31.5t-44 -83.5h-354q16 184 156.5 286.5t359.5 102.5q240 0 361.5 -110.5t121.5 -302.5v-406q0 -63 49 -63q20 0 33 4v-246q-94 -23 -176 -22q-225 0 -246 180h-16q-27 -84 -117 -133t-213 -49
q-164 0 -261 86.5t-97 236.5zM399 350q0 -49 37 -75.5t96 -26.5q90 0 139.5 48t49.5 132v31h-174q-78 0 -113 -32t-35 -77zM471 1350l457 342l145 -238l-498 -278z" />
    <glyph glyph-name="acircumflex" unicode="&#xe2;" horiz-adv-x="1206" 
d="M37 303q0 170 122 267.5t324 97.5h238v57q0 63 -36 96t-99 33q-66 0 -106 -31.5t-44 -83.5h-354q16 184 156.5 286.5t359.5 102.5q240 0 361.5 -110.5t121.5 -302.5v-406q0 -63 49 -63q20 0 33 4v-246q-94 -23 -176 -22q-225 0 -246 180h-16q-27 -84 -117 -133t-213 -49
q-164 0 -261 86.5t-97 236.5zM176 1350l301 290h199l303 -290l-170 -166l-231 250l-234 -250zM399 350q0 -49 37 -75.5t96 -26.5q90 0 139.5 48t49.5 132v31h-174q-78 0 -113 -32t-35 -77z" />
    <glyph glyph-name="atilde" unicode="&#xe3;" horiz-adv-x="1206" 
d="M37 303q0 170 122 267.5t324 97.5h238v57q0 63 -36 96t-99 33q-66 0 -106 -31.5t-44 -83.5h-354q16 184 156.5 286.5t359.5 102.5q240 0 361.5 -110.5t121.5 -302.5v-406q0 -63 49 -63q20 0 33 4v-246q-94 -23 -176 -22q-225 0 -246 180h-16q-27 -84 -117 -133t-213 -49
q-164 0 -261 86.5t-97 236.5zM180 1298q90 231 271 228q61 0 134.5 -39t121.5 -39q12 0 24 2t21.5 6t17.5 7t16.5 10.5t12.5 11.5t10 12t8 11t6 12l6 8l146 -90q-43 -121 -114.5 -179.5t-155.5 -58.5q-57 2 -133 42t-121 40q-59 0 -129 -78zM399 350q0 -49 37 -75.5
t96 -26.5q90 0 139.5 48t49.5 132v31h-174q-78 0 -113 -32t-35 -77z" />
    <glyph glyph-name="adieresis" unicode="&#xe4;" horiz-adv-x="1206" 
d="M37 303q0 170 122 267.5t324 97.5h238v57q0 63 -36 96t-99 33q-66 0 -106 -31.5t-44 -83.5h-354q16 184 156.5 286.5t359.5 102.5q240 0 361.5 -110.5t121.5 -302.5v-406q0 -63 49 -63q20 0 33 4v-246q-94 -23 -176 -22q-225 0 -246 180h-16q-27 -84 -117 -133t-213 -49
q-164 0 -261 86.5t-97 236.5zM217 1208v320h272v-320h-272zM399 350q0 -49 37 -75.5t96 -26.5q90 0 139.5 48t49.5 132v31h-174q-78 0 -113 -32t-35 -77zM662 1208v320h272v-320h-272z" />
    <glyph glyph-name="aring" unicode="&#xe5;" horiz-adv-x="1206" 
d="M37 303q0 170 122 267.5t324 97.5h238v57q0 63 -36 96t-99 33q-66 0 -106 -31.5t-44 -83.5h-354q12 133 91 225.5t210 133.5q-82 72 -82 194q0 117 77 189.5t197.5 72.5t197.5 -72.5t77 -189.5q0 -113 -72 -184q150 -37 226.5 -139.5t76.5 -253.5v-406q0 -63 49 -63
q20 0 33 4v-246q-94 -23 -176 -22q-225 0 -246 180h-16q-27 -84 -117 -133t-213 -49q-164 0 -261 87t-97 236zM399 350q0 -49 37 -75.5t96 -26.5q90 0 139.5 48t49.5 132v31h-174q-78 0 -113 -32t-35 -77zM492 1292q0 -41 22.5 -66.5t61 -25.5t62.5 25.5t24 66.5
q0 43 -24 68.5t-62.5 25.5t-61 -25.5t-22.5 -68.5z" />
    <glyph glyph-name="ae" unicode="&#xe6;" horiz-adv-x="1830" 
d="M29 330q0 164 111.5 258t318.5 94h227v47q0 57 -40 91t-105 34q-59 0 -98.5 -30.5t-41.5 -78.5h-360q10 174 146.5 278.5t369.5 104.5q205 0 336 -114q131 115 348 114q244 0 387.5 -145t143.5 -381q0 -43 -9 -133h-719q0 -102 59.5 -156.5t158.5 -54.5q70 0 128 32
t72 81h320q-18 -176 -163.5 -283.5t-358.5 -107.5q-283 0 -424 167q-123 -168 -394 -167q-184 0 -298.5 97t-114.5 253zM393 344q0 -90 117 -90q82 0 131 43t49 109v40h-164q-133 0 -133 -102zM1047 700h374q-6 80 -55 119t-123 39q-82 0 -134 -41t-62 -117z" />
    <glyph glyph-name="ccedilla" unicode="&#xe7;" horiz-adv-x="1173" 
d="M49 555q0 258 154.5 415.5t408.5 157.5q217 0 362.5 -118.5t158.5 -317.5h-355q-25 143 -170 144q-195 0 -194 -283q0 -141 51 -211t141 -70q74 0 118 39t52 107h357q-8 -195 -150.5 -314.5t-361.5 -123.5l-33 -62q70 2 137.5 -42t67.5 -136q0 -80 -47.5 -136.5t-118 -77
t-151.5 -13t-146 42.5v163q88 -55 164.5 -41.5t76.5 86.5q0 51 -55 66.5t-110 -12.5v82l57 96q-190 43 -302 192.5t-112 366.5z" />
    <glyph glyph-name="egrave" unicode="&#xe8;" horiz-adv-x="1189" 
d="M49 551q0 262 152.5 419.5t402.5 157.5q242 0 386.5 -138t144.5 -365q0 -90 -17 -156h-710q-4 -104 49 -161.5t147 -57.5q66 0 117 29.5t65 76.5h355q-29 -170 -175.5 -273t-355.5 -103q-252 0 -406.5 156.5t-154.5 414.5zM88 1462l145 238l457 -342l-104 -172zM412 700
h362q-2 74 -51 117t-131 43q-80 0 -128 -44t-52 -116z" />
    <glyph glyph-name="eacute" unicode="&#xe9;" horiz-adv-x="1189" 
d="M49 551q0 262 152.5 419.5t402.5 157.5q242 0 386.5 -138t144.5 -365q0 -90 -17 -156h-710q-4 -104 49 -161.5t147 -57.5q66 0 117 29.5t65 76.5h355q-29 -170 -175.5 -273t-355.5 -103q-252 0 -406.5 156.5t-154.5 414.5zM412 700h362q-2 74 -51 117t-131 43
q-80 0 -128 -44t-52 -116zM481 1350l457 342l145 -238l-497 -278z" />
    <glyph glyph-name="ecircumflex" unicode="&#xea;" horiz-adv-x="1189" 
d="M49 551q0 262 152.5 419.5t402.5 157.5q242 0 386.5 -138t144.5 -365q0 -90 -17 -156h-710q-4 -104 49 -161.5t147 -57.5q66 0 117 29.5t65 76.5h355q-29 -170 -175.5 -273t-355.5 -103q-252 0 -406.5 156.5t-154.5 414.5zM186 1350l301 290h199l303 -290l-170 -166
l-231 250l-234 -250zM412 700h362q-2 74 -51 117t-131 43q-80 0 -128 -44t-52 -116z" />
    <glyph glyph-name="edieresis" unicode="&#xeb;" horiz-adv-x="1189" 
d="M49 551q0 262 152.5 419.5t402.5 157.5q242 0 386.5 -138t144.5 -365q0 -90 -17 -156h-710q-4 -104 49 -161.5t147 -57.5q66 0 117 29.5t65 76.5h355q-29 -170 -175.5 -273t-355.5 -103q-252 0 -406.5 156.5t-154.5 414.5zM227 1208v320h273v-320h-273zM412 700h362
q-2 74 -51 117t-131 43q-80 0 -128 -44t-52 -116zM672 1208v320h272v-320h-272z" />
    <glyph glyph-name="igrave" unicode="&#xec;" horiz-adv-x="575" 
d="M-209 1458l146 238l456 -342l-104 -172zM109 0v1108h360v-1108h-360z" />
    <glyph glyph-name="iacute" unicode="&#xed;" horiz-adv-x="575" 
d="M109 0v1108h360v-1108h-360zM184 1346l457 342l145 -238l-497 -279z" />
    <glyph glyph-name="icircumflex" unicode="&#xee;" horiz-adv-x="575" 
d="M-111 1346l301 290h199l303 -290l-170 -166l-231 250l-234 -250zM109 0v1108h360v-1108h-360z" />
    <glyph glyph-name="idieresis" unicode="&#xef;" horiz-adv-x="575" 
d="M-70 1204v320h273v-320h-273zM109 0v1108h360v-1108h-360zM375 1204v320h272v-320h-272z" />
    <glyph glyph-name="eth" unicode="&#xf0;" horiz-adv-x="1257" 
d="M61 498q0 217 135.5 349t356.5 132q76 0 125 -18l8 10l-82 71l-82 101l-282 -103v254l141 52l-133 202h430l47 -78l281 105v-254l-146 -49l96 -154q8 -12 50.5 -75.5t55.5 -86t45 -83t44 -100.5t23.5 -101.5t11.5 -122.5q0 -256 -160 -411.5t-412 -155.5
q-246 0 -399.5 145.5t-153.5 370.5zM428 504q0 -102 53.5 -166t141.5 -64q90 0 142 63.5t52 170.5q0 102 -54 166.5t-140 64.5q-90 0 -142.5 -64.5t-52.5 -170.5z" />
    <glyph glyph-name="ntilde" unicode="&#xf1;" horiz-adv-x="1323" 
d="M109 0v1108h315l45 -203h18q102 223 361 223q193 0 286 -125.5t93 -345.5v-657h-361v621q0 215 -184 215q-102 0 -157.5 -69t-55.5 -181v-586h-360zM276 1298q90 231 271 228q59 0 133 -39t123 -39q12 0 24.5 2t21.5 6t17 7t16.5 10.5t12.5 11.5t10 12t8 11t9 12l4 8
l145 -90q-43 -121 -114.5 -179.5t-155.5 -58.5q-57 2 -133 42t-121 40q-59 0 -129 -78z" />
    <glyph glyph-name="ograve" unicode="&#xf2;" horiz-adv-x="1222" 
d="M49 555q0 254 154.5 413.5t408.5 159.5q252 0 407 -159.5t155 -415.5q0 -254 -155 -412.5t-407 -158.5q-254 0 -408.5 158.5t-154.5 414.5zM113 1462l145 238l457 -342l-105 -172zM414 553q0 -129 54 -204t142 -75q94 0 145.5 77t51.5 204q0 129 -53.5 205t-145.5 76
t-143 -78t-51 -205z" />
    <glyph glyph-name="oacute" unicode="&#xf3;" horiz-adv-x="1222" 
d="M49 555q0 254 154.5 413.5t408.5 159.5q252 0 407 -159.5t155 -415.5q0 -254 -155 -412.5t-407 -158.5q-254 0 -408.5 158.5t-154.5 414.5zM414 553q0 -129 54 -204t142 -75q94 0 145.5 77t51.5 204q0 129 -53.5 205t-145.5 76t-143 -78t-51 -205zM506 1350l457 342
l145 -238l-498 -278z" />
    <glyph glyph-name="ocircumflex" unicode="&#xf4;" horiz-adv-x="1222" 
d="M49 555q0 254 154.5 413.5t408.5 159.5q252 0 407 -159.5t155 -415.5q0 -254 -155 -412.5t-407 -158.5q-254 0 -408.5 158.5t-154.5 414.5zM211 1350l301 290h199l303 -290l-170 -166l-232 250l-233 -250zM414 553q0 -129 54 -204t142 -75q94 0 145.5 77t51.5 204
q0 129 -53.5 205t-145.5 76t-143 -78t-51 -205z" />
    <glyph glyph-name="otilde" unicode="&#xf5;" horiz-adv-x="1222" 
d="M49 555q0 254 154.5 413.5t408.5 159.5q252 0 407 -159.5t155 -415.5q0 -254 -155 -412.5t-407 -158.5q-254 0 -408.5 158.5t-154.5 414.5zM217 1298q90 231 270 228q61 0 135 -39t121 -39q12 0 24.5 2t22 6t17.5 7t16 10.5t12.5 11.5t10.5 12t8 11t6 12l6 8l146 -90
q-43 -121 -115 -179.5t-156 -58.5q-57 2 -133 42t-121 40q-59 0 -129 -78zM414 553q0 -129 54 -204t142 -75q94 0 145.5 77t51.5 204q0 129 -53.5 205t-145.5 76t-143 -78t-51 -205z" />
    <glyph glyph-name="odieresis" unicode="&#xf6;" horiz-adv-x="1222" 
d="M49 555q0 254 154.5 413.5t408.5 159.5q252 0 407 -159.5t155 -415.5q0 -254 -155 -412.5t-407 -158.5q-254 0 -408.5 158.5t-154.5 414.5zM252 1208v320h272v-320h-272zM414 553q0 -129 54 -204t142 -75q94 0 145.5 77t51.5 204q0 129 -53.5 205t-145.5 76t-143 -78
t-51 -205zM696 1208v320h273v-320h-273z" />
    <glyph glyph-name="divide" unicode="&#xf7;" horiz-adv-x="1292" 
d="M141 449v282h1008v-282h-1008zM469 -2v332h354v-332h-354zM469 842v332h354v-332h-354z" />
    <glyph glyph-name="oslash" unicode="&#xf8;" horiz-adv-x="1292" 
d="M16 236l107 77q-45 113 -45 242q0 254 155.5 413.5t407.5 159.5q244 0 395 -147l113 82l127 -186l-115 -84q43 -109 43 -240q0 -254 -154.5 -412.5t-408.5 -158.5q-240 0 -395 145l-105 -76zM444 549l320 233q-47 53 -127 54q-92 0 -142.5 -78t-50.5 -205v-4zM518 326
q51 -51 123 -52q92 0 143.5 77t51.5 204v2z" />
    <glyph glyph-name="ugrave" unicode="&#xf9;" horiz-adv-x="1302" 
d="M96 420v688h363v-631q0 -205 176 -205q96 0 152.5 70t56.5 180v586h360v-1108h-317l-45 203h-21q-104 -223 -352 -223q-186 0 -279.5 117.5t-93.5 322.5zM154 1462l145 238l457 -342l-105 -172z" />
    <glyph glyph-name="uacute" unicode="&#xfa;" horiz-adv-x="1302" 
d="M96 420v688h363v-631q0 -205 176 -205q96 0 152.5 70t56.5 180v586h360v-1108h-317l-45 203h-21q-104 -223 -352 -223q-186 0 -279.5 117.5t-93.5 322.5zM547 1350l457 342l145 -238l-498 -278z" />
    <glyph glyph-name="ucircumflex" unicode="&#xfb;" horiz-adv-x="1302" 
d="M96 420v688h363v-631q0 -205 176 -205q96 0 152.5 70t56.5 180v586h360v-1108h-317l-45 203h-21q-104 -223 -352 -223q-186 0 -279.5 117.5t-93.5 322.5zM252 1350l301 290h199l303 -290l-170 -166l-232 250l-233 -250z" />
    <glyph glyph-name="udieresis" unicode="&#xfc;" horiz-adv-x="1302" 
d="M96 420v688h363v-631q0 -205 176 -205q96 0 152.5 70t56.5 180v586h360v-1108h-317l-45 203h-21q-104 -223 -352 -223q-186 0 -279.5 117.5t-93.5 322.5zM293 1208v320h272v-320h-272zM737 1208v320h273v-320h-273z" />
    <glyph glyph-name="yacute" unicode="&#xfd;" horiz-adv-x="1112" 
d="M-27 1108h385l111 -385l82 -305h16l80 305l107 385h374l-393 -1131q-66 -190 -194.5 -264.5t-341.5 -74.5q-80 0 -156 14v287q49 -8 125 -9q170 0 201 109l12 45zM436 1352l457 342l145 -238l-497 -278z" />
    <glyph glyph-name="thorn" unicode="&#xfe;" horiz-adv-x="1335" 
d="M109 -342v1835h360v-588h18q45 104 141.5 163.5t215.5 59.5q207 0 324.5 -155.5t117.5 -425.5q0 -266 -119.5 -416.5t-320.5 -150.5q-133 0 -227.5 58t-131.5 159h-18v-539h-360zM469 524q0 -115 60.5 -184.5t164.5 -69.5q113 0 171.5 76t58.5 205q0 141 -60.5 214
t-165 73t-167 -70.5t-62.5 -185.5v-58z" />
    <glyph glyph-name="ydieresis" unicode="&#xff;" horiz-adv-x="1112" 
d="M-27 1108h385l111 -385l82 -305h16l80 305l107 385h374l-393 -1131q-66 -190 -194.5 -264.5t-341.5 -74.5q-80 0 -156 14v287q49 -8 125 -9q170 0 201 109l12 45zM182 1212v320h273v-320h-273zM627 1212v320h272v-320h-272z" />
    <glyph glyph-name="OE" unicode="&#x152;" horiz-adv-x="1927" 
d="M61 747.5q0 331.5 201 537.5t526 206h1049v-324h-612v-274h424v-303h-424v-264h612v-324h-1046q-326 0 -528 207t-202 538.5zM465 748q0 -186 89 -304t237 -118h53v837h-53q-147 0 -236.5 -115.5t-89.5 -299.5z" />
    <glyph glyph-name="oe" unicode="&#x153;" horiz-adv-x="1992" 
d="M49 555q0 254 154.5 413.5t408.5 159.5q244 0 400 -151q152 152 395 151q242 0 386 -138t144 -365q0 -90 -16 -156h-711q-4 -104 49.5 -161.5t147.5 -57.5q68 0 117 29.5t65 76.5h357q-31 -170 -177.5 -273t-355.5 -103q-246 0 -401 151q-156 -150 -400 -149
q-254 0 -408.5 158.5t-154.5 414.5zM414 553q0 -129 54 -204t142 -75q94 0 145.5 77t51.5 204q0 129 -53.5 205t-145.5 76t-143 -78t-51 -205zM1214 700h363q-2 74 -51 117t-131 43q-80 0 -128 -44t-53 -116z" />
    <glyph glyph-name="Ydieresis" unicode="&#x178;" horiz-adv-x="1490" 
d="M0 1493h451l133 -283l153 -315h15l153 309l137 289h449l-555 -934v-559h-383v559zM385 1589v320h272v-320h-272zM829 1589v320h273v-320h-273z" />
    <glyph glyph-name="circumflex" unicode="&#x2c6;" horiz-adv-x="786" 
d="M-6 1626l301 291h199l303 -291l-170 -166l-232 250l-233 -250z" />
    <glyph glyph-name="tilde" unicode="&#x2dc;" horiz-adv-x="729" 
d="M-33 1575q90 231 271 227q61 0 134.5 -39t121.5 -39q12 0 24 2.5t21.5 6.5t17.5 7t16.5 10t12.5 11t10 12.5t8 11.5t6 11l6 8l146 -90q-43 -121 -114.5 -179t-155.5 -58q-57 2 -133 42t-121 40q-59 0 -129 -78z" />
    <glyph glyph-name="uni2000" unicode="&#x2000;" horiz-adv-x="1040" 
 />
    <glyph glyph-name="uni2001" unicode="&#x2001;" horiz-adv-x="2081" 
 />
    <glyph glyph-name="uni2002" unicode="&#x2002;" horiz-adv-x="1040" 
 />
    <glyph glyph-name="uni2003" unicode="&#x2003;" horiz-adv-x="2081" 
 />
    <glyph glyph-name="uni2004" unicode="&#x2004;" horiz-adv-x="693" 
 />
    <glyph glyph-name="uni2005" unicode="&#x2005;" horiz-adv-x="520" 
 />
    <glyph glyph-name="uni2006" unicode="&#x2006;" horiz-adv-x="346" 
 />
    <glyph glyph-name="uni2007" unicode="&#x2007;" horiz-adv-x="346" 
 />
    <glyph glyph-name="uni2008" unicode="&#x2008;" horiz-adv-x="260" 
 />
    <glyph glyph-name="uni2009" unicode="&#x2009;" horiz-adv-x="416" 
 />
    <glyph glyph-name="uni200A" unicode="&#x200a;" horiz-adv-x="115" 
 />
    <glyph glyph-name="uni2010" unicode="&#x2010;" horiz-adv-x="978" 
d="M111 518v193h755v-193h-755z" />
    <glyph glyph-name="uni2011" unicode="&#x2011;" horiz-adv-x="978" 
d="M111 518v193h755v-193h-755z" />
    <glyph glyph-name="figuredash" unicode="&#x2012;" horiz-adv-x="978" 
d="M111 518v193h755v-193h-755z" />
    <glyph glyph-name="endash" unicode="&#x2013;" horiz-adv-x="1339" 
d="M111 518v193h1116v-193h-1116z" />
    <glyph glyph-name="emdash" unicode="&#x2014;" horiz-adv-x="1740" 
d="M111 518v193h1517v-193h-1517z" />
    <glyph glyph-name="quoteleft" unicode="&#x2018;" horiz-adv-x="495" 
d="M57 860v334q0 143 98.5 223t266.5 80v-123q-195 0 -195 -162v-12h160v-340h-330z" />
    <glyph glyph-name="quoteright" unicode="&#x2019;" horiz-adv-x="493" 
d="M70 874v123q195 0 194 162v12h-160v340h330v-333q0 -143 -98 -223.5t-266 -80.5z" />
    <glyph glyph-name="quotesinglbase" unicode="&#x201a;" horiz-adv-x="493" 
d="M70 -174q197 0 196 162v12h-160v338h330v-334q0 -141 -99 -221t-267 -80v123z" />
    <glyph glyph-name="quotedblleft" unicode="&#x201c;" horiz-adv-x="1013" 
d="M63 860v334q0 143 98.5 223t266.5 80v-123q-197 0 -197 -162v-12h162v-340h-330zM575 860v334q0 143 98.5 223t266.5 80v-123q-195 0 -195 -162v-12h160v-340h-330z" />
    <glyph glyph-name="quotedblright" unicode="&#x201d;" horiz-adv-x="999" 
d="M80 874v123q197 0 196 162v12h-159v340h327v-333q0 -143 -98 -223.5t-266 -80.5zM580 874v123q197 0 196 162v12h-160v340h328v-333q0 -143 -98 -223.5t-266 -80.5z" />
    <glyph glyph-name="quotedblbase" unicode="&#x201e;" horiz-adv-x="950" 
d="M68 -174q197 0 196 162v12h-160v338h328v-334q0 -141 -98 -221t-266 -80v123zM524 -174q197 0 197 162v12h-160v338h328v-334q0 -141 -98.5 -221t-266.5 -80v123z" />
    <glyph glyph-name="bullet" unicode="&#x2022;" horiz-adv-x="804" 
d="M86 567.5q0 143.5 89 236.5t231 93q135 0 224 -94t89 -235.5t-89 -232.5t-224 -91q-141 0 -230.5 90t-89.5 233.5z" />
    <glyph glyph-name="ellipsis" unicode="&#x2026;" horiz-adv-x="1667" 
d="M127 0v365h330v-365h-330zM670 0v365h327v-365h-327zM1212 0v365h330v-365h-330z" />
    <glyph glyph-name="uni202F" unicode="&#x202f;" horiz-adv-x="416" 
 />
    <glyph glyph-name="guilsinglleft" unicode="&#x2039;" horiz-adv-x="649" 
d="M43 561l244 443h305l-225 -443l225 -446h-305z" />
    <glyph glyph-name="guilsinglright" unicode="&#x203a;" horiz-adv-x="647" 
d="M57 115l224 446l-224 443h308l239 -443l-239 -446h-308z" />
    <glyph glyph-name="uni205F" unicode="&#x205f;" horiz-adv-x="520" 
 />
    <glyph glyph-name="Euro" unicode="&#x20ac;" horiz-adv-x="1507" 
d="M49 469v223h109q-2 18 -2 56q0 39 2 57h-109v221h141q63 233 228.5 359t402.5 126q248 0 411 -128t202 -345h-400q-47 143 -213 144q-164 0 -231 -156h371l-27 -221h-391q-2 -18 -2 -57q0 -37 2 -56h377l-35 -223h-295q72 -156 231.5 -156t212.5 144h400
q-39 -219 -203 -347t-410 -128q-244 0 -406.5 129t-224.5 358h-141z" />
    <glyph glyph-name="trademark" unicode="&#x2122;" horiz-adv-x="1308" 
d="M16 1366v139h492v-139h-172v-500h-156v500h-164zM594 866v639h192l144 -327h4l143 327h191v-639h-150v246l8 174h-6l-188 -409l-189 409h-10l12 -174v-246h-151z" />
    <glyph glyph-name="uni25FC" unicode="&#x25fc;" horiz-adv-x="1105" 
d="M0 0v1106h1106v-1106h-1106z" />
    <glyph glyph-name="uniFB03" unicode="&#xfb03;" horiz-adv-x="2121" 
d="M14 817v291h211v51q0 195 116 293t316 98q92 0 164 -20v-281q-47 10 -86 11q-150 0 -149 -123v-29h350v51q0 195 115.5 293t316.5 98q94 0 166 -20v-281q-45 10 -88 11q-150 0 -150 -123v-29h719v-1108h-360v817h-359v-817h-360v817h-350v-817h-361v817h-211zM1655 1198
v330h360v-330h-360z" />
    </font>
</defs>
</svg>
