<?xml version="1.0" standalone="no"?>
<!DOCTYPE svg PUBLIC "-//W3C//DTD SVG 1.1//EN" "http://www.w3.org/Graphics/SVG/1.1/DTD/svg11.dtd" >
<svg xmlns="http://www.w3.org/2000/svg" xmlns:xlink="http://www.w3.org/1999/xlink" version="1.1">
<metadata>
Created by FontForge 20170731 at Fri May  5 01:32:36 2017
 By Aleksey,,,
Copyright (c) 2016-2017 Apple Inc. All rights reserved.
</metadata>
<defs>
<font id="SFMono-RegularItalic" horiz-adv-x="1266" >
  <font-face 
    font-family="SF Mono"
    font-weight="400"
    font-style="italic"
    font-stretch="normal"
    units-per-em="2048"
    panose-1="2 11 0 9 0 0 2 0 0 0"
    ascent="1638"
    descent="-410"
    x-height="1085"
    cap-height="1443"
    bbox="-33 -594 1687 2304"
    underline-thickness="100"
    underline-position="-300"
    slope="-10"
    unicode-range="U+0020-FB02"
  />
<missing-glyph 
 />
    <glyph glyph-name=".notdef" 
 />
    <glyph glyph-name="glyph1" 
 />
    <glyph glyph-name="nonmarkingreturn" horiz-adv-x="0" 
 />
    <glyph glyph-name="space" unicode=" " 
 />
    <glyph glyph-name="exclam" unicode="!" 
d="M790 1443h199l-193 -994h-166zM654 -19q-57 0 -97 41.5t-40 100.5t40 100.5t97 41.5t97 -41.5t40 -100.5t-40 -100.5t-97 -41.5z" />
    <glyph glyph-name="quotedbl" unicode="&#x22;" 
d="M670 811h-178l110 632h178zM1061 811h-180l110 632h180z" />
    <glyph glyph-name="numbersign" unicode="#" 
d="M1324 899h-207l-129 -339h208l-54 -149h-208l-155 -411h-147l154 411h-291l-153 -411h-149l156 411h-208l56 149h207l128 339h-208l54 147h208l149 397h148l-150 -397h291l150 397h148l-150 -397h207zM677 902l-130 -346h295l130 346h-295z" />
    <glyph glyph-name="dollar" unicode="$" 
d="M803 632l-91 -516q145 3 236 77t91 190q0 86 -52.5 141.5t-183.5 107.5zM720 837l87 490q-134 -4 -218 -72.5t-84 -174.5q0 -82 49.5 -138.5t165.5 -104.5zM1279 1065h-162v20q0 81 -53 143t-141 86l-91 -517l32 -11q185 -69 263 -158t78 -228q0 -194 -141.5 -313
t-372.5 -119h-5l-19 -109h-119l21 120q-167 30 -271.5 133.5t-104.5 244.5q0 37 3 47l161 1q-1 -13 -1 -27q0 -92 65 -160t174 -91l96 544l-14 4q-179 68 -260.5 161.5t-81.5 230.5q0 181 136 294.5t353 113.5h9l19 109h119l-21 -122q149 -31 240.5 -128t91.5 -228
q0 -23 -3 -41z" />
    <glyph glyph-name="percent" unicode="%" 
d="M434 746q-116 0 -183.5 67t-67.5 185q0 37 6 76l19 103q23 131 105 208.5t199 77.5q118 0 185.5 -67.5t67.5 -183.5q0 -36 -6 -73l-19 -104q-23 -134 -105 -211.5t-201 -77.5zM318 1013q0 -140 127 -140q133 0 168 190l10 63q7 34 7 70q0 140 -127 140q-131 0 -167 -190
l-11 -63q-7 -31 -7 -70zM1007 -20q-117 0 -184 67t-67 185q0 45 6 76l20 103q24 132 105 209t198 77q118 0 185.5 -67t67.5 -184q0 -35 -6 -73l-19 -103q-23 -135 -105 -212.5t-201 -77.5zM891 247q0 -140 128 -140q131 0 167 190l11 63q6 36 6 70q0 140 -126 140
q-132 0 -168 -190l-11 -63q-7 -31 -7 -70zM1520 1443l-29 -167l-1491 -1276l30 167z" />
    <glyph glyph-name="ampersand" unicode="&#x26;" 
d="M547 678q-117 -59 -176 -127.5t-70 -156.5q-15 -113 49.5 -188.5t182.5 -81.5q88 -5 176.5 26t160.5 94l-277 458zM1008 0l-70 124q-92 -78 -204 -117t-226 -32q-188 11 -289.5 125.5t-79.5 289.5q30 243 335 404l52 28q-124 200 -102 350q19 139 123.5 223.5t248.5 76.5
q140 -8 216 -96t56 -221q-16 -113 -93 -198.5t-246 -175.5l243 -410q45 61 72.5 139.5t49.5 204.5l1 13h147l-3 -28q-44 -285 -188 -462l154 -238h-197zM918 1153q12 73 -28.5 123.5t-113.5 55.5q-74 4 -132 -43.5t-70 -121.5q-9 -60 11.5 -125t77.5 -157
q132 71 187.5 129.5t67.5 138.5z" />
    <glyph glyph-name="quotesingle" unicode="'" 
d="M865 811h-178l111 632h178z" />
    <glyph glyph-name="parenleft" unicode="(" 
d="M938 1582h187q-230 -222 -356.5 -495t-126.5 -548q0 -368 169 -679h-169q-78 122 -124.5 304t-46.5 364q0 292 121 564.5t346 489.5z" />
    <glyph glyph-name="parenright" unicode=")" 
d="M582 -140h-187q230 222 356.5 495t126.5 548q0 368 -169 679h169q78 -122 124.5 -304t46.5 -364q0 -292 -121 -564.5t-346 -489.5z" />
    <glyph glyph-name="asterisk" unicode="*" 
d="M1317 766l-451 -150l370 -295l-91 -115l-359 319l-71 -474l-140 27l94 466l-446 -175l-48 140l450 151l-370 295l91 115l359 -319l72 473l140 -26l-94 -466l445 175z" />
    <glyph glyph-name="plus" unicode="+" 
d="M810 561l-80 -452h-155l79 452h-455l27 158h455l81 453h155l-80 -453h455l-27 -158h-455z" />
    <glyph glyph-name="comma" unicode="," 
d="M526 -335h-186l255 714h237z" />
    <glyph glyph-name="hyphen" unicode="-" 
d="M1262 561h-1058l27 158h1058z" />
    <glyph glyph-name="hyphen" unicode="&#x2011;" 
d="M1262 561h-1058l27 158h1058z" />
    <glyph glyph-name="period" unicode="." 
d="M664 -6q-74 0 -127.5 54.5t-53.5 130.5t53.5 130t127.5 54t127 -54t53 -130t-53 -130.5t-127 -54.5z" />
    <glyph glyph-name="slash" unicode="/" 
d="M342 -137h-167l1002 1717h169z" />
    <glyph glyph-name="zero" unicode="0" 
d="M678 -30q-210 0 -323.5 142t-111.5 400q2 127 19 230q7 54 18 99q56 302 201 467.5t357 165.5q209 0 323 -144.5t112 -407.5q0 -105 -17 -199q0 -6 -4 -31.5t-9 -54t-5 -30.5q-55 -303 -201 -470t-359 -167zM832 1311q-141 0 -240.5 -132t-143.5 -376l-14 -76
q-14 -77 -17 -159l675 490q-22 121 -89.5 187t-170.5 66zM682 133q144 0 244.5 131.5t143.5 375.5l14 76q15 78 15 165l-675 -494q22 -124 88 -189t170 -65z" />
    <glyph glyph-name="one" unicode="1" 
d="M783 155h421l-26 -155h-1006l26 155h409l197 1097h-12l-441 -230l30 180l446 241h183z" />
    <glyph glyph-name="two" unicode="2" 
d="M519 1074h-167q5 172 138 286t330 114q193 0 314.5 -103.5t121.5 -268.5q0 -118 -69.5 -228t-247.5 -273l-476 -429l-2 -12h698l-27 -160h-946l23 136l618 569q141 131 198.5 217t57.5 165q0 99 -76.5 162.5t-195.5 63.5q-120 0 -201.5 -67t-90.5 -172z" />
    <glyph glyph-name="three" unicode="3" 
d="M586 672l25 159h135q152 0 246.5 70.5t94.5 183.5q0 104 -78 168t-205 64q-106 0 -182.5 -53t-93.5 -136h-165q13 154 138 250.5t310 96.5q198 0 320 -100t122 -263q0 -139 -93 -240.5t-235 -115.5l-3 -13q124 -25 196 -114.5t72 -219.5q0 -196 -142 -317.5t-369 -121.5
q-204 0 -339 103.5t-135 259.5q0 29 4 49h166v-19q0 -97 90 -163t220 -66q147 0 239.5 77t92.5 199q0 117 -87.5 189.5t-228.5 72.5h-115z" />
    <glyph glyph-name="four" unicode="4" 
d="M802 0l54 305h-658l25 143l665 995h188l-655 -972l-3 -13h466l73 412h160l-73 -410h220l-26 -155h-220l-55 -305h-161z" />
    <glyph glyph-name="five" unicode="5" 
d="M500 811h14q45 57 121.5 89t167.5 32q184 0 300.5 -122.5t116.5 -314.5q0 -225 -151 -375t-377 -150q-196 0 -325 111t-129 281v19h166q1 -104 86 -175.5t208 -71.5q154 0 252 99.5t98 254.5q0 132 -81.5 214.5t-211.5 82.5q-89 0 -163 -34.5t-118 -95.5h-170l195 788
h787l-26 -159h-636z" />
    <glyph glyph-name="six" unicode="6" 
d="M1241 471q0 -215 -149.5 -358t-375.5 -143q-220 0 -359.5 137.5t-139.5 353.5q0 148 71 282t237 298l405 402h228l-475 -463q-102 -102 -121 -125h19q87 69 220 69q189 0 314.5 -129.5t125.5 -323.5zM724 135q146 0 245.5 94t99.5 233q0 140 -96.5 231t-243.5 91
q-146 0 -243.5 -93.5t-97.5 -232.5q0 -141 95 -232t241 -91z" />
    <glyph glyph-name="seven" unicode="7" 
d="M279 0l881 1272l2 13h-775l26 158h963l-27 -163l-869 -1280h-201z" />
    <glyph glyph-name="eight" unicode="8" 
d="M821 830q121 0 199 71t78 180q0 108 -73.5 174t-192.5 66q-121 0 -199 -71t-78 -181q0 -106 74 -172.5t192 -66.5zM708 121q145 0 236.5 79t91.5 203q0 121 -89.5 198.5t-229.5 77.5q-142 0 -234.5 -80.5t-92.5 -203.5q0 -122 88 -198t230 -76zM1270 1104
q0 -133 -90.5 -230t-223.5 -107l-3 -14q119 -39 190 -137.5t71 -224.5q0 -188 -141 -305.5t-366 -117.5q-221 0 -360 114.5t-139 296.5q0 152 109.5 263t272.5 124l3 12q-101 47 -157 129.5t-56 183.5q0 167 127.5 275.5t324.5 108.5q194 0 316 -103.5t122 -267.5z" />
    <glyph glyph-name="nine" unicode="9" 
d="M283 972q0 215 149.5 358t375.5 143q220 0 359.5 -137t139.5 -353q0 -148 -71 -282t-236 -299l-406 -402h-228l475 463l38.5 38.5t53.5 54.5t29 32h-19q-87 -69 -219 -69q-189 0 -315 129.5t-126 323.5zM801 1309q-147 0 -246 -94t-99 -234t96 -231t243 -91
q146 0 243.5 93.5t97.5 233.5q0 141 -94.5 232t-240.5 91z" />
    <glyph glyph-name="colon" unicode=":" 
d="M664 -6q-74 0 -127.5 54.5t-53.5 130.5t53.5 130t127.5 54t127.5 -54t53.5 -130t-53.5 -130.5t-127.5 -54.5zM800 762q-74 0 -127.5 54.5t-53.5 130.5t53.5 130.5t127.5 54.5t127.5 -54.5t53.5 -130.5t-53.5 -130.5t-127.5 -54.5z" />
    <glyph glyph-name="semicolon" unicode=";" 
d="M800 762q-74 0 -127 54.5t-53 130.5t53 130.5t127 54.5q75 0 128 -54.5t53 -130.5t-53 -130.5t-128 -54.5zM554 -332h-187l254 711h238z" />
    <glyph glyph-name="less" unicode="&#x3c;" 
d="M1245 1019l-756 -381l-2 -17l617 -382l-30 -180l-770 507l24 148l950 507z" />
    <glyph glyph-name="equal" unicode="=" 
d="M1222 329h-1058l27 165h1058zM1301 785h-1058l27 165h1058z" />
    <glyph glyph-name="greater" unicode="&#x3e;" 
d="M247 261l756 381l2 17l-617 382l30 180l770 -507l-24 -148l-950 -507z" />
    <glyph glyph-name="question" unicode="?" 
d="M648 -19q-58 0 -97.5 41.5t-39.5 100.5t39.5 100.5t97.5 41.5q57 0 97 -41.5t40 -100.5t-40 -100.5t-97 -41.5zM401 1090q26 173 161 275t323 92q177 -9 279 -115t83 -261q-27 -228 -266 -347q-112 -56 -157.5 -114.5t-52.5 -157.5l-1 -13h-174l1 15q6 140 64 223.5
t198 152.5q96 48 142 101t57 131q16 94 -39.5 156t-160.5 69q-108 6 -186.5 -50.5t-98.5 -156.5h-172z" />
    <glyph glyph-name="at" unicode="@" 
d="M684 -201q-499 0 -499 530q0 90 24 251l34 187q61 348 219 528.5t400 180.5q227 0 351 -123t124 -348q0 -84 -17 -181l-46 -262q-24 -133 -91 -194.5t-187 -61.5h-278q-46 0 -72 28t-26 78q0 6 4 38l65 377q10 61 43.5 95t83.5 34q49 0 76.5 -28.5t27.5 -78.5
q0 -14 -4 -38l-68 -390h142q72 0 109 32t51 105l45 252q17 97 17 174q0 179 -94 275t-270 96q-193 0 -310 -146.5t-172 -459.5l-28 -154q-25 -137 -25 -253q0 -215 98 -319.5t301 -104.5q119 0 189 25l-20 -118q-62 -26 -197 -26z" />
    <glyph glyph-name="A" unicode="A" 
d="M531 565h410l-83 666h-5zM1012 0l-52 414h-503l-200 -414h-184l720 1443h188l207 -1443h-176z" />
    <glyph glyph-name="B" unicode="B" 
d="M592 1291l-85 -471h272q143 0 231.5 73t89.5 191q1 101 -64 154t-190 53h-254zM388 153h310q167 0 266.5 77t99.5 206q0 115 -78.5 176t-225.5 61h-278zM188 0l254 1443h451q184 0 288.5 -87.5t103.5 -241.5q-1 -131 -84 -231t-212 -126l-2 -11q119 -23 189 -110t69 -213
q-2 -194 -147 -308.5t-392 -114.5h-518z" />
    <glyph glyph-name="C" unicode="C" 
d="M1237 399q-20 -190 -168 -310t-360 -120q-226 0 -357.5 139.5t-131.5 380.5q0 83 14 160l40 229q50 289 201 442t389 153q209 0 340 -120.5t131 -311.5q0 -34 -6 -74h-174q3 34 3 57q0 127 -82.5 203t-221.5 76q-155 0 -257.5 -106.5t-139.5 -305.5l-44 -251
q-13 -68 -13 -153q0 -165 86 -256.5t240 -91.5q132 0 219.5 70.5t113.5 198.5q1 3 1 5h178q0 -10 -1 -14z" />
    <glyph glyph-name="D" unicode="D" 
d="M790 1443q254 0 389.5 -139.5t135.5 -400.5q0 -87 -9 -149q0 -5 -12.5 -74.5t-12.5 -71.5q-105 -608 -711 -608h-410l254 1443h376zM757 1282h-193l-200 -1120h198q460 0 542 462q0 2 11 63.5t11 64.5q9 70 9 135q0 395 -378 395z" />
    <glyph glyph-name="E" unicode="E" 
d="M1109 162l-27 -162h-852l254 1443h852l-27 -162h-674l-85 -468h638l-26 -155h-638l-90 -496h675z" />
    <glyph glyph-name="F" unicode="F" 
d="M431 0h-177l254 1443h851l-26 -162h-675l-89 -495h617l-27 -157h-617z" />
    <glyph glyph-name="G" unicode="G" 
d="M1221 395q-34 -197 -175 -311.5t-347 -114.5q-224 0 -356.5 138.5t-132.5 372.5q0 84 15 169l47 263q48 268 200 414.5t383 146.5q207 0 336 -118.5t129 -308.5q0 -17 -4 -63h-173q2 34 2 46q0 123 -84 199.5t-220 76.5q-153 0 -255 -107.5t-139 -306.5l-44 -252
q-15 -85 -15 -155q0 -162 86.5 -255.5t237.5 -93.5q135 0 225.5 75.5t113.5 208.5l30 164h-336l26 151h510z" />
    <glyph glyph-name="H" unicode="H" 
d="M1113 0h-175l116 656h-609l-117 -656h-175l254 1443h175l-110 -625h609l111 625h175z" />
    <glyph glyph-name="I" unicode="I" 
d="M1013 0h-760l26 157h292l202 1129h-292l26 157h760l-25 -157h-293l-202 -1129h293z" />
    <glyph glyph-name="J" unicode="J" 
d="M631 -30q-178 0 -292 101t-114 258q0 18 4 52h166q-2 -16 -2 -29q0 -95 68.5 -154.5t178.5 -59.5t179.5 65t91.5 188l160 895h-495l26 157h673l-191 -1075q-34 -196 -148.5 -297t-304.5 -101z" />
    <glyph glyph-name="K" unicode="K" 
d="M821 801l415 -801h-201l-354 685l-204 -187l-89 -498h-172l254 1443h172l-128 -709h11l737 709h214z" />
    <glyph glyph-name="L" unicode="L" 
d="M1150 164l-28 -164h-859l254 1443h175l-226 -1279h684z" />
    <glyph glyph-name="M" unicode="M" 
d="M356 554l-99 -554h-158l254 1443h192l173 -893h12l485 893h206l-254 -1443h-158l99 554l113 584h-13l-445 -799h-138l-162 799h-13z" />
    <glyph glyph-name="N" unicode="N" 
d="M312 0h-159l254 1443h169l417 -1123h14l201 1123h159l-254 -1443h-167l-419 1126h-14z" />
    <glyph glyph-name="O" unicode="O" 
d="M1258 524q-49 -271 -193.5 -412.5t-373.5 -141.5q-217 0 -351.5 143.5t-134.5 374.5q0 131 15 205l42 232q45 258 192.5 403t365.5 145q225 0 360 -144.5t135 -384.5q0 -88 -14 -188zM705 137q147 0 244.5 108.5t134.5 313.5l42 234q12 72 12 150q0 164 -89 263.5
t-237 99.5q-146 0 -242.5 -104t-131.5 -305l-41 -225q-14 -84 -14 -164q0 -172 86.5 -271.5t235.5 -99.5z" />
    <glyph glyph-name="P" unicode="P" 
d="M452 1443h454q194 0 308.5 -106t114.5 -284q0 -249 -152.5 -392t-420.5 -143h-289l-92 -518h-177zM603 1286l-109 -611h272q182 0 284.5 96.5t102.5 267.5q0 117 -73.5 182t-205.5 65h-271z" />
    <glyph glyph-name="Q" unicode="Q" 
d="M1085 557l42 235q12 70 12 150q0 165 -89.5 264.5t-237.5 99.5q-147 0 -243 -104.5t-132 -305.5l-40 -227q-15 -82 -15 -164q0 -172 87 -272t236 -100q54 0 102 15l-146 313h180l105 -225q101 109 139 321zM220 693l42 232q45 258 192.5 403t365.5 145q225 0 360 -144.5
t135 -384.5q0 -90 -15 -188l-42 -232q-56 -310 -237 -450l112 -239h-180l-76 163q-84 -28 -186 -28q-217 0 -351.5 143.5t-134.5 374.5q0 131 15 205z" />
    <glyph glyph-name="R" unicode="R" 
d="M584 1286l-100 -562h271q153 0 247.5 71t115.5 195q6 34 6 68q1 107 -66.5 167.5t-189.5 60.5h-284zM356 0h-174l254 1443h470q186 0 294.5 -101t107.5 -276q0 -49 -7 -95q-22 -140 -111.5 -237t-227.5 -132l194 -602h-188l-180 577q-34 -2 -73 -2h-257z" />
    <glyph glyph-name="S" unicode="S" 
d="M199 413h174q-2 -26 -2 -28q0 -111 94 -183t239 -72q142 0 232 71t90 183q0 86 -57 142t-199 109l-95 36q-178 67 -258.5 159.5t-80.5 228.5q0 184 134.5 299t349.5 115q202 0 332 -106t130 -271q0 -28 -3 -40h-174q1 3 1 23q0 102 -80.5 168t-205.5 66
q-133 0 -217 -66.5t-84 -170.5q0 -85 54.5 -141.5t185.5 -105.5l106 -40q186 -71 264.5 -158t78.5 -222q0 -199 -139 -319t-369 -120q-217 0 -361 113t-144 283q0 35 4 47z" />
    <glyph glyph-name="T" unicode="T" 
d="M721 0h-176l228 1281h-436l26 162h1048l-27 -162h-435z" />
    <glyph glyph-name="U" unicode="U" 
d="M229 563l155 880h176l-156 -885q-11 -60 -11 -108q0 -143 84 -228t222 -85q135 0 230.5 90.5t123.5 246.5l171 969h177l-176 -991q-40 -228 -180.5 -355t-350.5 -127q-216 0 -347 126.5t-131 336.5q0 56 13 130z" />
    <glyph glyph-name="V" unicode="V" 
d="M668 212l602 1231h184l-727 -1443h-188l-219 1443h180l163 -1231h5z" />
    <glyph glyph-name="W" unicode="W" 
d="M803 895h-11l-368 -895h-178l9 1443h156l-7 -571l-11 -624h10l352 865h153l48 -865h11l190 604l196 591h167l-494 -1443h-174z" />
    <glyph glyph-name="X" unicode="X" 
d="M58 0l587 727l-336 716h189l269 -584h9l476 584h206l-602 -724l348 -719h-188l-279 581h-9l-469 -581h-201z" />
    <glyph glyph-name="Y" unicode="Y" 
d="M721 0h-175l106 598l-351 845h185l270 -663h12l493 663h205l-639 -844z" />
    <glyph glyph-name="Z" unicode="Z" 
d="M137 0l22 137l960 1132l1 12h-730l26 162h956l-23 -140l-960 -1129l-2 -12h772l-27 -162h-995z" />
    <glyph glyph-name="bracketleft" unicode="[" 
d="M650 1580h527l-23 -137h-362l-254 -1443h364l-23 -137h-529z" />
    <glyph glyph-name="backslash" unicode="\" 
d="M1044 -137h-163l-405 1717h166z" />
    <glyph glyph-name="bracketright" unicode="]" 
d="M644 1580h527l-300 -1717h-529l22 137h364l254 1443h-362z" />
    <glyph glyph-name="asciicircum" unicode="^" 
d="M858 1275l-329 -570h-175l439 738h188l183 -738h-161l-127 570h-18z" />
    <glyph glyph-name="underscore" unicode="_" 
d="M1098 -312h-1038l23 147h1038z" />
    <glyph glyph-name="grave" unicode="`" 
d="M1065 1296h-176l-206 339h202z" />
    <glyph glyph-name="a" unicode="a" 
d="M566 -18q-144 0 -235 84.5t-92 220.5q-1 169 119 260.5t345 93.5l270 2l10 55q8 44 8 72q0 83 -60.5 132.5t-161.5 49.5q-88 0 -156 -40.5t-89 -105.5h-170q26 130 145.5 211.5t285.5 81.5q170 0 273 -83.5t103 -220.5q0 -57 -21 -169l-110 -626h-162l27 156h-10
q-41 -80 -126.5 -127t-192.5 -47zM625 131q110 0 196.5 71.5t105.5 180.5l24 128l-249 -1q-137 -1 -211.5 -52.5t-75.5 -146.5q-1 -82 56 -131t154 -49z" />
    <glyph glyph-name="b" unicode="b" 
d="M750 -18q-130 0 -218.5 64.5t-114.5 178.5h-14l-40 -225h-173l267 1511h172l-104 -586h19q45 83 129.5 130.5t187.5 47.5q171 0 270.5 -107.5t99.5 -291.5q0 -51 -11 -107l-34 -195q-35 -199 -150 -309.5t-286 -110.5zM722 137q116 0 196 76t104 210l29 166q7 39 7 96
q0 125 -70.5 195t-195.5 70q-116 0 -203.5 -82t-111.5 -213l-29 -162q-7 -35 -7 -75q0 -121 79.5 -201t201.5 -80z" />
    <glyph glyph-name="c" unicode="c" 
d="M1221 725h-169v5q0 98 -72 161t-186 63q-271 0 -332 -340l-12 -66q-13 -76 -13 -130q0 -137 71.5 -211.5t202.5 -74.5q99 0 172.5 48.5t101.5 134.5h169q-34 -152 -156.5 -244t-293.5 -92q-203 0 -320 111.5t-117 303.5q0 48 9 117q8 56 27 163q35 203 167 317.5
t330 114.5q190 0 305.5 -100t115.5 -264v-17z" />
    <glyph glyph-name="d" unicode="d" 
d="M719 1103q124 0 218 -65t113 -171h9l114 644h170l-267 -1511h-167l34 191h-12q-37 -95 -125 -152t-197 -57q-174 0 -276 106.5t-102 287.5q0 79 11 138l29 175q32 192 152 303t296 111zM741 947q-124 0 -201 -74t-103 -218l-25 -145q-7 -40 -7 -99q0 -123 68 -195.5
t183 -72.5q130 0 217 78.5t112 215.5l29 161q6 44 6 64q0 124 -79 204.5t-200 80.5z" />
    <glyph glyph-name="e" unicode="e" 
d="M793 959q-123 0 -207 -71t-107 -194q-1 -1 -7 -33.5t-6 -33.5h577q0 2 2.5 23t2.5 24q15 125 -56.5 205t-198.5 80zM1141 280q-21 -129 -147 -214.5t-293 -85.5q-199 0 -313 112t-114 306q0 54 15 154l21 136q30 193 163 305t333 112q128 0 225.5 -55.5t145.5 -154
t35 -219.5q0 -1 -10 -91l-12 -87h-741q-1 -5 -4.5 -36t-3.5 -35q-13 -136 61 -218t208 -82q96 0 170.5 43t92.5 110h168z" />
    <glyph glyph-name="f" unicode="f" 
d="M473 0l166 937h-291l25 145h291l20 109q27 161 138 239t312 78q52 0 132.5 -6.5t117.5 -16.5l-24 -142q-34 8 -117 15.5t-130 7.5q-231 0 -261 -172l-20 -112h478l-24 -145h-477l-166 -937h-170z" />
    <glyph glyph-name="g" unicode="g" 
d="M1261 1085l-189 -1078q-36 -204 -162.5 -309t-337.5 -105q-181 0 -299 88t-118 224v18h168v-13q2 -75 76.5 -125t186.5 -50q267 0 320 284l32 182h-12q-37 -89 -125.5 -143t-199.5 -54q-164 0 -270.5 114.5t-106.5 290.5q0 74 13 148l21 122q34 196 154 310t293 114
q136 0 224 -62t112 -175h12l38 219h170zM975 448l22 128q9 51 9 90q0 125 -77 203.5t-199 78.5q-116 0 -198 -80t-107 -218l-17 -95q-11 -64 -11 -111q0 -132 72.5 -208.5t197.5 -76.5q114 0 199.5 80t108.5 209z" />
    <glyph glyph-name="h" unicode="h" 
d="M188 0l267 1511h163l-108 -612h11q44 96 133.5 150.5t203.5 54.5q154 0 249 -94.5t95 -249.5q0 -46 -17 -148l-107 -612h-170l108 609q12 70 12 110q0 103 -64 166t-169 63q-121 0 -210 -83.5t-114 -223.5l-113 -641h-170z" />
    <glyph glyph-name="i" unicode="i" 
d="M914 1351q-60 0 -100.5 40t-40.5 100q0 59 40.5 99t100.5 40t100.5 -40t40.5 -99q0 -60 -40.5 -100t-100.5 -40zM1107 0h-899l24 141h372l143 803h-368l23 141h537l-168 -944h360z" />
    <glyph glyph-name="j" unicode="j" 
d="M1039 1351q-60 0 -100.5 40t-40.5 100q0 59 40.5 99t100.5 40t100.5 -40t40.5 -99q0 -60 -40.5 -100t-100.5 -40zM1066 1085l-191 -1079q-30 -172 -138.5 -253.5t-308.5 -81.5q-141 0 -298 16l26 151q159 -15 277 -15q130 0 194.5 47t83.5 156l163 918h-496l24 141h664z
" />
    <glyph glyph-name="k" unicode="k" 
d="M517 434l-78 -434h-170l267 1511h170l-153 -865h11l549 439h232l-530 -431l381 -654h-194l-325 556z" />
    <glyph glyph-name="l" unicode="l" 
d="M1107 0h-899l24 141h371l219 1229h-368l24 141h537l-242 -1370h358z" />
    <glyph glyph-name="m" unicode="m" 
d="M392 733l-129 -733h-153l191 1085h150l-26 -153h18q34 83 92 128t131 45q79 0 127.5 -46.5t53.5 -126.5h18q73 173 228 173q100 0 155 -59t55 -164q0 -41 -10 -101l-137 -781h-153l132 747q7 47 7 75q0 128 -110 128q-71 0 -122 -57t-70 -159l-129 -734h-152l132 748
q7 36 7 74q0 128 -111 128q-72 0 -124 -57.5t-71 -159.5z" />
    <glyph glyph-name="n" unicode="n" 
d="M189 0l191 1085h163l-32 -186h11q42 96 131 151t205 55q155 0 248.5 -95t93.5 -250q0 -50 -16 -149l-107 -611h-170l108 609q11 66 11 111q0 104 -62.5 166.5t-168.5 62.5q-121 0 -209.5 -84t-113.5 -224l-113 -641h-170z" />
    <glyph glyph-name="o" unicode="o" 
d="M686 -19q-195 0 -315 119t-120 310q0 65 10 124l26 150q34 194 162 307t313 113q203 0 324.5 -119.5t121.5 -315.5q0 -52 -10 -116l-27 -151q-36 -202 -162.5 -311.5t-322.5 -109.5zM759 954q-121 0 -202.5 -78.5t-106.5 -218.5l-24 -137q-9 -58 -9 -102
q0 -130 77.5 -208.5t205.5 -78.5q123 0 203.5 79t106.5 227l25 141q6 45 6 92q0 128 -77.5 206t-204.5 78z" />
    <glyph glyph-name="p" unicode="p" 
d="M738 -18q-128 0 -220 66.5t-111 169.5h-8l-103 -584h-170l255 1451h167l-34 -191h12q37 95 125 152t197 57q173 0 276 -105.5t103 -288.5q0 -68 -12 -138l-31 -174q-34 -195 -153 -305t-293 -110zM716 141q123 0 201 74t103 218l25 145q8 52 8 99q0 123 -67.5 195.5
t-183.5 72.5q-129 0 -216.5 -77.5t-112.5 -216.5l-29 -161q-4 -25 -4 -72q0 -121 77 -199t199 -78z" />
    <glyph glyph-name="q" unicode="q" 
d="M708 1103q130 0 217.5 -64t114.5 -178h14l40 224h173l-255 -1451h-172l92 527h-19q-44 -83 -129 -131t-188 -48q-171 0 -270.5 107.5t-99.5 292.5q0 44 11 107l34 194q35 198 150.5 309t286.5 111zM736 951q-116 0 -196.5 -76.5t-104.5 -209.5l-29 -166q-7 -36 -7 -96
q0 -125 70.5 -195t195.5 -70q116 0 204 82t112 213l28 162q7 38 7 74q0 122 -79.5 202t-200.5 80z" />
    <glyph glyph-name="r" unicode="r" 
d="M731 808h22q53 149 159 227t253 78q96 0 160 -33l-32 -189q-64 37 -176 37q-170 0 -287 -117t-154 -323l-63 -352h337l-24 -136h-721l24 136h219l143 813h-240l23 136h405z" />
    <glyph glyph-name="s" unicode="s" 
d="M774 454l-150 49q-128 43 -187.5 109t-59.5 164q0 147 115.5 238.5t299.5 91.5q175 0 279 -80t111 -220q0 -3 -0.5 -7.5t-0.5 -6.5h-165v3q-9 83 -68 127t-160 44q-106 0 -172.5 -47t-66.5 -121q0 -53 38.5 -89t127.5 -65l143 -47q136 -45 197 -110t61 -164
q0 -154 -120 -249t-314 -95q-188 0 -303 84.5t-120 227.5v10h168v-2q11 -85 78.5 -131t180.5 -46t182.5 48t69.5 127q0 56 -38 92.5t-126 64.5z" />
    <glyph glyph-name="t" unicode="t" 
d="M690 1376h168l-51 -294h440l-25 -145h-438l-110 -595q-5 -25 -5 -51q0 -75 51 -111.5t157 -36.5q147 0 201 6l-24 -144q-52 -10 -225 -10q-163 0 -248.5 66t-85.5 193q0 38 9 87l110 596h-289l24 145h290z" />
    <glyph glyph-name="u" unicode="u" 
d="M1268 1085l-191 -1085h-163l33 186h-12q-42 -96 -131 -151t-204 -55q-155 0 -249 95t-94 250q0 52 17 149l106 611h170l-107 -609q-12 -63 -12 -111q0 -104 62.5 -166.5t168.5 -62.5q121 0 209.5 83.5t113.5 224.5l113 641h170z" />
    <glyph glyph-name="v" unicode="v" 
d="M334 1085h173l150 -903h13l454 903h190l-587 -1085h-187z" />
    <glyph glyph-name="w" unicode="w" 
d="M1410 1085l-424 -1085h-164l-31 846h-12l-336 -846h-163l-42 1085h155l4 -870h18l327 869h159l23 -869h18l299 870h169z" />
    <glyph glyph-name="x" unicode="x" 
d="M719 418h-13l-348 -418h-196l468 543l-280 542h185l206 -411h13l342 411h199l-465 -535l277 -550h-181z" />
    <glyph glyph-name="y" unicode="y" 
d="M277 -386q-61 0 -80 3l25 149q18 -4 67 -4q73 0 119 36t100 136l30 59l-208 1092h176l146 -908h13l461 908h190l-607 -1125q-111 -206 -198 -276t-234 -70z" />
    <glyph glyph-name="z" unicode="z" 
d="M211 0l21 120l769 806l2 13h-623l25 146h837l-21 -127l-763 -799l-2 -13h624l-25 -146h-844z" />
    <glyph glyph-name="braceleft" unicode="{" 
d="M978 -137h-135q-145 0 -209 52.5t-64 172.5q0 54 12 124l39 217q5 35 5 58q0 192 -286 192l30 180q185 0 262.5 41.5t96.5 150.5l38 223q16 91 40 146.5t67.5 91t105 48.5t159.5 13h137l-24 -146h-109q-64 0 -97 -5t-58 -26.5t-35.5 -54.5t-22.5 -98l-47 -267
q-34 -197 -344 -201l-3 -17q121 -8 193 -68.5t72 -153.5q0 -33 -4 -52l-45 -260q-12 -65 -12 -106q0 -64 33.5 -88.5t119.5 -24.5h108z" />
    <glyph glyph-name="bar" unicode="|" 
d="M626 -483h-156l362 2063h157z" />
    <glyph glyph-name="braceright" unicode="}" 
d="M534 1573h135q145 0 209 -52.5t64 -172.5q0 -54 -12 -124l-39 -217q-6 -31 -6 -58q0 -192 287 -192l-30 -180q-185 0 -262.5 -41.5t-96.5 -150.5l-38 -223q-16 -91 -40 -146.5t-67.5 -91t-105.5 -48.5t-160 -13h-136l24 146h109q64 0 97 5t58 26.5t35.5 54.5t22.5 98
l47 267q34 197 344 201l3 17q-121 8 -193.5 68.5t-72.5 153.5q0 33 4 52l46 260q12 64 12 106q0 64 -33.5 88.5t-119.5 24.5h-108z" />
    <glyph glyph-name="asciitilde" unicode="~" 
d="M546 905q73 0 131.5 -28.5t124.5 -96.5q53 -55 89 -77t73 -22q58 0 91.5 46t38.5 133h156q1 -5 1 -22q0 -148 -76.5 -237t-203.5 -89q-73 0 -132 28.5t-124 95.5q-52 55 -86.5 77t-68.5 22q-125 0 -136 -179h-159q-1 5 -1 23q0 147 77.5 236.5t204.5 89.5z" />
    <glyph glyph-name="exclamdown" unicode="&#xa1;" 
d="M682 -350h-198l192 994h166zM818 1112q57 0 97 -41.5t40 -100.5t-40 -100.5t-97 -41.5t-97 41.5t-40 100.5t40 100.5t97 41.5z" />
    <glyph glyph-name="cent" unicode="&#xa2;" 
d="M1167 479q-24 -135 -130.5 -218.5t-267.5 -94.5l-30 -168h-171l33 186q-137 35 -215 139t-78 252q0 70 13 151l26 149q33 181 150.5 288t296.5 119l28 163h171l-32 -178q135 -29 207.5 -125.5t63.5 -235.5h-169q-1 105 -64 162t-180 57q-122 0 -204 -76t-105 -212
l-21 -121q-11 -60 -11 -109q0 -135 70.5 -208.5t199.5 -73.5q99 0 167 41.5t84 112.5h168z" />
    <glyph glyph-name="sterling" unicode="&#xa3;" 
d="M1179 163l-27 -163h-1008l26 158q157 25 249.5 127.5t100.5 258.5q3 57 -2 112h-260l24 148h219q-19 136 -19 203q0 226 137.5 347t393.5 121q69 0 155 -16.5t144 -40.5l-27 -165q-57 25 -136 41t-145 16q-170 0 -259 -84.5t-89 -246.5q0 -64 16 -175h450l-25 -148h-408
q5 -56 2 -108q-9 -276 -224 -370l-1 -15h713z" />
    <glyph glyph-name="currency" unicode="&#xa4;" 
d="M1296 954l-193 -140q47 -108 26 -229q-21 -123 -104 -206l134 -197l-122 -89l-134 199q-102 -48 -223 -28q-118 20 -201 104l-195 -143l-87 128l196 141q-47 105 -26 228t103 205l-137 197l124 90l134 -199q106 49 224 28q119 -20 201 -103l194 142zM702 399
q109 -19 193 41t104 170q19 111 -38.5 196t-166.5 104q-110 18 -194 -42t-103 -170q-20 -111 38 -195.5t167 -103.5z" />
    <glyph glyph-name="yen" unicode="&#xa5;" 
d="M1466 1443l-558 -737h209l-24 -138h-271l-30 -164h272l-24 -138h-272l-47 -266h-175l47 266h-272l24 138h273l29 164h-273l24 138h209l-306 737h185l270 -663h12l493 663h205z" />
    <glyph glyph-name="brokenbar" unicode="&#xa6;" 
d="M849 782h-156l139 798h157zM626 -483h-156l139 798h157z" />
    <glyph glyph-name="section" unicode="&#xa7;" 
d="M635 -260q-167 0 -279 83t-112 208q0 26 2 33h174q0 -79 65 -127t171 -48q96 0 158 45.5t62 116.5q0 51 -39.5 87.5t-124.5 63.5l-135 51q-256 88 -256 268q0 105 71.5 183t195.5 109l3 17q-88 45 -129.5 103.5t-41.5 137.5q0 141 117 236t291 95q173 0 278 -81t105 -215
q0 -3 -0.5 -10.5t-0.5 -8.5h-172q0 73 -62.5 118.5t-160.5 45.5q-95 0 -157 -46t-62 -117q0 -52 39.5 -88t122.5 -62l138 -49q251 -85 251 -269q0 -112 -85 -199t-213 -104l-3 -16q204 -62 204 -228q0 -147 -115.5 -240t-299.5 -93zM633 418l103 -37q103 5 168.5 61.5
t65.5 140.5q0 53 -36.5 92t-103.5 56l-98 30q-89 -4 -157.5 -63t-68.5 -132q0 -105 127 -148z" />
    <glyph glyph-name="dieresis" unicode="&#xa8;" 
d="M685 1320q-47 0 -82 36t-35 85t35 85.5t82 36.5t82 -36.5t35 -85.5t-35 -85t-82 -36zM1088 1320q-47 0 -82 36t-35 85t35 85.5t82 36.5t82.5 -36.5t35.5 -85.5t-35.5 -85t-82.5 -36z" />
    <glyph glyph-name="copyright" unicode="&#xa9;" 
d="M760 200q-142 0 -260 69t-185.5 188.5t-67.5 263.5q0 108 40 204.5t108.5 166t163.5 110t201 40.5t201 -40.5t163.5 -110t108.5 -166t40 -204.5q0 -144 -67.5 -263.5t-185.5 -188.5t-260 -69zM760 298q171 0 289.5 123t118.5 300q0 178 -118.5 300.5t-289.5 122.5
t-289.5 -122.5t-118.5 -300.5q0 -177 118.5 -300t289.5 -123zM1008 806h-113q-15 84 -111 84q-66 0 -107.5 -57.5t-41.5 -148.5q0 -62 30.5 -96t85.5 -34q37 0 68 20t44 54h113q-18 -82 -82 -131.5t-150 -49.5q-103 0 -165.5 63.5t-62.5 168.5q0 143 78 230.5t206 87.5
q91 0 150 -54t58 -137z" />
    <glyph glyph-name="ordfeminine" unicode="&#xaa;" 
d="M673 519q-121 0 -197 68t-76 176q0 145 103 228t282 83h241l10 57q5 30 5 47q0 68 -47.5 105t-133.5 37q-68 0 -116 -26t-66 -72h-164q28 110 125.5 175t232.5 65q158 0 246 -68.5t88 -190.5q0 -38 -7 -70l-106 -594h-156l19 104h-15q-47 -59 -116.5 -91.5t-151.5 -32.5z
M736 653q95 0 166.5 56.5t88.5 145.5l17 95h-223q-100 0 -157.5 -44.5t-57.5 -122.5q0 -59 45 -94.5t121 -35.5z" />
    <glyph glyph-name="guillemotleft" unicode="&#xab;" 
d="M422 638l-1 -4l272 -417h-171l-276 420l1 4l424 420h183zM888 638l-2 -4l273 -417h-172l-276 420l1 4l424 420h183z" />
    <glyph glyph-name="logicalnot" unicode="&#xac;" 
d="M1288 719l-93 -538h-157l66 380h-901l27 158h1058z" />
    <glyph glyph-name="registered" unicode="&#xae;" 
d="M663 738h-106l90 512h246q70 0 109.5 -38.5t39.5 -105.5q0 -125 -138 -170l100 -198h-126l-92 183h-91zM737 1153l-25 -140h119q47 0 73 21.5t26 59.5q0 59 -74 59h-119zM807 470q-142 0 -260 69t-185.5 188.5t-67.5 263.5t67.5 263.5t185.5 188.5t260 69t260 -69
t185.5 -188.5t67.5 -263.5t-67.5 -263.5t-185.5 -188.5t-260 -69zM807 568q171 0 289.5 122.5t118.5 300.5t-118.5 300.5t-289.5 122.5t-289.5 -122.5t-118.5 -300.5t118.5 -300.5t289.5 -122.5z" />
    <glyph glyph-name="macron" unicode="&#xaf;" 
d="M1205 1370h-660l24 139h660z" />
    <glyph glyph-name="degree" unicode="&#xb0;" 
d="M837 838q-137 0 -227.5 91t-90.5 227t90.5 227t227.5 91t227.5 -91t90.5 -227t-90.5 -227t-227.5 -91zM837 960q84 0 139 55.5t55 140.5t-55 140.5t-139 55.5t-139 -55.5t-55 -140.5t55 -140.5t139 -55.5z" />
    <glyph glyph-name="plusminus" unicode="&#xb1;" 
d="M1153 110h-1000l25 148h1000zM825 662l-53 -288h-148l52 288h-426l23 140h426l52 288h149l-53 -288h426l-23 -140h-425z" />
    <glyph glyph-name="acute" unicode="&#xb4;" 
d="M823 1296h-187l298 339h213z" />
    <glyph glyph-name="mugreek" unicode="&#xb5;" 
d="M283 -366h-166l255 1451h168l-113 -639q-7 -42 -7 -88q0 -98 60.5 -159.5t164.5 -61.5q121 0 207.5 83t109.5 213l115 652h168l-143 -807q-8 -46 -8 -66q0 -74 86 -74q22 0 45 5l-24 -141q-36 -12 -91 -12q-88 0 -134.5 39.5t-48.5 114.5v25h-9q-36 -83 -114.5 -136
t-180.5 -53q-86 0 -152 36.5t-94 100.5h-9z" />
    <glyph glyph-name="mugreek" unicode="&#x3bc;" 
d="M283 -366h-166l255 1451h168l-113 -639q-7 -42 -7 -88q0 -98 60.5 -159.5t164.5 -61.5q121 0 207.5 83t109.5 213l115 652h168l-143 -807q-8 -46 -8 -66q0 -74 86 -74q22 0 45 5l-24 -141q-36 -12 -91 -12q-88 0 -134.5 39.5t-48.5 114.5v25h-9q-36 -83 -114.5 -136
t-180.5 -53q-86 0 -152 36.5t-94 100.5h-9z" />
    <glyph glyph-name="paragraph" unicode="&#xb6;" 
d="M779 -137h-166l125 707q-181 20 -295.5 139.5t-114.5 289.5q0 191 132 317.5t332 126.5h264zM940 -137l277 1580h166l-276 -1580h-167z" />
    <glyph glyph-name="periodcentered" unicode="&#xb7;" 
d="M764 589q-63 0 -105.5 43.5t-42.5 106.5t42.5 106.5t105.5 43.5t105.5 -43.5t42.5 -106.5t-42.5 -106.5t-105.5 -43.5z" />
    <glyph glyph-name="cedilla" unicode="&#xb8;" 
d="M464 -226l5 84l74 142h133l-67 -133q88 -3 136 -42.5t48 -109.5q0 -89 -69.5 -144.5t-180.5 -55.5q-83 0 -158 27l18 108q23 -9 66 -15.5t73 -6.5q114 0 114 72q0 74 -138 74h-54z" />
    <glyph glyph-name="ordmasculine" unicode="&#xba;" 
d="M552 899q0 -115 56.5 -177t160.5 -62q110 0 184 81.5t99 231.5q11 63 11 107q0 115 -56.5 177t-160.5 62q-111 0 -186 -81.5t-97 -230.5q-11 -75 -11 -108zM760 514q-178 0 -278.5 102.5t-100.5 279.5q0 66 12 131q38 204 161 321t301 117q176 0 278 -102t102 -280
q0 -60 -12 -126q-37 -206 -160.5 -324.5t-302.5 -118.5z" />
    <glyph glyph-name="guillemotright" unicode="&#xbb;" 
d="M1069 640l1 4l-272 417h171l276 -420l-1 -4l-424 -420h-183zM603 640l2 4l-273 417h172l276 -420l-1 -4l-424 -420h-183z" />
    <glyph glyph-name="onequarter" unicode="&#xbc;" 
d="M1028 0l23 128h-330l22 131q118 172 336 428h213l-78 -441h94l-19 -109h-94l-24 -137h-143zM878 246l-1 -3h197l59 330h-2q-174 -213 -253 -327zM327 758l96 542h-3l-196 -127l25 144l195 126h154l-120 -685h-151zM1520 1443l-29 -167l-1491 -1276l30 167z" />
    <glyph glyph-name="onehalf" unicode="&#xbd;" 
d="M327 758l96 542h-3l-196 -127l25 144l195 126h154l-120 -685h-151zM864 484q13 100 89.5 160.5t186.5 60.5q102 0 168 -53.5t66 -136.5q0 -63 -36 -116t-126 -122l-187 -142v-6h286l-22 -129h-499l21 124l298 234q59 45 82.5 76t23.5 64q0 36 -25 58t-66 22
q-43 0 -73.5 -26t-38.5 -68h-148zM1520 1443l-29 -167l-1491 -1276l30 167z" />
    <glyph glyph-name="threequarters" unicode="&#xbe;" 
d="M1028 0l23 128h-330l22 131q118 172 336 428h213l-78 -441h94l-19 -109h-94l-24 -137h-143zM878 246l-1 -3h197l59 330h-2q-173 -211 -253 -327zM330 1052l19 115h82q50 0 82 26.5t32 68.5q0 33 -26 53t-68 20q-43 0 -72.5 -21.5t-39.5 -58.5h-143q20 95 94 151t181 56
q103 0 165.5 -47t62.5 -124q0 -68 -49 -120t-120 -59l-2 -7q65 -8 102 -46t37 -96q0 -95 -79.5 -158t-200.5 -63q-119 0 -187.5 51.5t-68.5 141.5q0 13 2 33h151q-1 -2 -1 -11q0 -38 30 -62.5t77 -24.5q52 0 84 28t32 72q0 38 -26 60t-69 22h-81zM1520 1443l-29 -167
l-1491 -1276l30 167z" />
    <glyph glyph-name="questiondown" unicode="&#xbf;" 
d="M810 1110q58 0 97.5 -41.5t39.5 -100.5t-39.5 -100.5t-97.5 -41.5q-57 0 -97 41.5t-40 100.5t40 100.5t97 41.5zM1057 1q-26 -173 -161 -275t-323 -92q-177 9 -279 115t-83 261q27 228 266 347q112 56 157.5 114.5t52.5 157.5l1 13h174l-1 -15q-6 -140 -64 -223.5
t-198 -152.5q-96 -48 -142 -101t-57 -131q-16 -94 39.5 -156t160.5 -69q108 -6 186.5 50.5t98.5 156.5h172z" />
    <glyph glyph-name="Agrave" unicode="&#xc0;" 
d="M978 1612h-177l-226 304h198zM531 565h410l-83 666h-5zM1012 0l-52 414h-503l-200 -414h-184l720 1443h188l207 -1443h-176z" />
    <glyph glyph-name="Aacute" unicode="&#xc1;" 
d="M1297 1916l-332 -304h-193l310 304h215zM531 565h410l-83 666h-5zM793 1443h188l207 -1443h-176l-52 414h-503l-200 -414h-184z" />
    <glyph glyph-name="Acircumflex" unicode="&#xc2;" 
d="M960 1811l-216 -199h-190l341 309h159l233 -309h-170l-144 199h-13zM531 565h410l-83 666h-5zM793 1443h188l207 -1443h-176l-52 414h-503l-200 -414h-184z" />
    <glyph glyph-name="Atilde" unicode="&#xc3;" 
d="M531 565h410l-83 666h-5zM793 1443h188l207 -1443h-176l-52 414h-503l-200 -414h-184zM1160 1886h123q-4 -120 -64 -194t-155 -74q-43 0 -79 16.5t-60 40t-46 46.5t-47 39.5t-53 16.5q-90 0 -99 -147h-124q5 124 64.5 197t155.5 73q45 0 82.5 -16.5t62.5 -40t46.5 -47
t45.5 -40t48 -16.5q43 0 69 38t30 108z" />
    <glyph glyph-name="Adieresis" unicode="&#xc4;" 
d="M743 1651q-47 0 -82 36t-35 85t35 85t82 36t82 -36t35 -85t-35 -85t-82 -36zM531 565h410l-83 666h-5zM793 1443h188l207 -1443h-176l-52 414h-503l-200 -414h-184zM1146 1893q47 0 82.5 -36t35.5 -85t-35.5 -85t-82.5 -36t-82 36t-35 85t35 85t82 36z" />
    <glyph glyph-name="Aring" unicode="&#xc5;" 
d="M919 1852q-44 0 -73 -28.5t-29 -72.5t29 -72.5t73 -28.5t73.5 28.5t29.5 72.5t-29.5 72.5t-73.5 28.5zM919 1559q-81 0 -137 56t-56 136q0 81 56 136.5t137 55.5q82 0 137.5 -55.5t55.5 -136.5t-56 -136.5t-137 -55.5zM531 565h410l-83 666h-5zM1012 0l-52 414h-503
l-200 -414h-184l720 1443h188l207 -1443h-176z" />
    <glyph glyph-name="AE" unicode="&#xc6;" 
d="M747 589l122 687h-92l-318 -687h288zM1461 1282h-430l-86 -476h393l-26 -157h-394l-87 -487h429l-27 -162h-591l77 435h-332l-201 -435h-182l686 1443h797z" />
    <glyph glyph-name="Ccedilla" unicode="&#xc7;" 
d="M1329 967h-174q3 34 3 57q0 127 -82.5 203t-221.5 76q-155 0 -257.5 -106.5t-139.5 -305.5l-44 -251q-13 -68 -13 -153q0 -165 86 -256.5t240 -91.5q132 0 219.5 70.5t113.5 198.5q1 3 1 5h178q0 -10 -1 -14q-19 -185 -160 -304t-346 -126l-52 -102q88 -3 136 -42.5
t48 -109.5q0 -89 -69.5 -144.5t-180.5 -55.5q-82 0 -158 27l19 108q57 -22 138 -22q115 0 115 72q0 74 -139 74h-53l4 84l63 120q-180 32 -281 166.5t-101 344.5q0 83 14 160l40 229q50 289 201 442t389 153q209 0 340 -120.5t131 -311.5q0 -34 -6 -74z" />
    <glyph glyph-name="Egrave" unicode="&#xc8;" 
d="M792 1916l206 -304h-177l-226 304h197zM1109 162l-27 -162h-852l254 1443h852l-27 -162h-674l-85 -468h638l-26 -155h-638l-90 -496h675z" />
    <glyph glyph-name="Eacute" unicode="&#xc9;" 
d="M1109 162l-27 -162h-852l254 1443h852l-27 -162h-674l-85 -468h638l-26 -155h-638l-90 -496h675zM791 1612l311 304h215l-332 -304h-194z" />
    <glyph glyph-name="Ecircumflex" unicode="&#xca;" 
d="M1109 162l-27 -162h-852l254 1443h852l-27 -162h-674l-85 -468h638l-26 -155h-638l-90 -496h675zM1074 1921l233 -309h-170l-144 199h-14l-215 -199h-190l340 309h160z" />
    <glyph glyph-name="Edieresis" unicode="&#xcb;" 
d="M1109 162l-27 -162h-852l254 1443h852l-27 -162h-674l-85 -468h638l-26 -155h-638l-90 -496h675zM762 1651q-47 0 -82 36t-35 85t35 85t82 36t82.5 -36t35.5 -85t-35.5 -85t-82.5 -36zM1166 1651q-47 0 -82 36t-35 85t35 85t82 36t82 -36t35 -85t-35 -85t-82 -36z" />
    <glyph glyph-name="Igrave" unicode="&#xcc;" 
d="M773 1916l205 -304h-176l-227 304h198zM1013 0h-760l26 157h292l202 1129h-292l26 157h760l-25 -157h-293l-202 -1129h293z" />
    <glyph glyph-name="Iacute" unicode="&#xcd;" 
d="M1013 0h-760l26 157h292l202 1129h-292l26 157h760l-25 -157h-293l-202 -1129h293zM772 1612l311 304h215l-333 -304h-193z" />
    <glyph glyph-name="Icircumflex" unicode="&#xce;" 
d="M1013 0h-760l26 157h292l202 1129h-292l26 157h760l-25 -157h-293l-202 -1129h293zM1055 1921l232 -309h-170l-144 199h-13l-216 -199h-190l341 309h160z" />
    <glyph glyph-name="Idieresis" unicode="&#xcf;" 
d="M1013 0h-760l26 157h292l202 1129h-292l26 157h760l-25 -157h-293l-202 -1129h293zM743 1651q-47 0 -82 36t-35 85t35 85t82 36t82 -36t35 -85t-35 -85t-82 -36zM1147 1651q-47 0 -82.5 36t-35.5 85t35.5 85t82.5 36t82 -36t35 -85t-35 -85t-82 -36z" />
    <glyph glyph-name="Eth" unicode="&#xd0;" 
d="M364 162h198q460 0 542 462q0 2 11 63.5t11 64.5q9 70 9 135q0 395 -378 395h-193l-83 -467h260l-26 -157h-262zM414 1443h376q254 0 389.5 -139.5t135.5 -400.5q0 -87 -9 -149q0 -5 -12.5 -74.5t-12.5 -71.5q-105 -608 -711 -608h-410l116 658h-134l26 157h135z" />
    <glyph glyph-name="Ntilde" unicode="&#xd1;" 
d="M312 0h-159l254 1443h169l417 -1123h14l201 1123h159l-254 -1443h-167l-419 1126h-14zM777 1777q-91 0 -99 -147h-124q5 124 64 197t156 73q45 0 82.5 -16.5t62.5 -40t46.5 -47t45 -40t47.5 -16.5q43 0 69 38t30 108h124q-5 -120 -65 -194t-155 -74q-43 0 -78.5 16.5
t-60 40t-46 46.5t-46.5 39.5t-53 16.5z" />
    <glyph glyph-name="Ograve" unicode="&#xd2;" 
d="M773 1916l205 -304h-177l-226 304h198zM438 897l-41 -225q-14 -84 -14 -164q0 -172 86.5 -271.5t235.5 -99.5q147 0 244.5 108.5t134.5 313.5l42 234q12 72 12 150q0 164 -89 263.5t-237 99.5q-146 0 -242.5 -104t-131.5 -305zM1301 756l-43 -232q-49 -271 -193.5 -412.5
t-373.5 -141.5q-217 0 -351.5 143.5t-134.5 374.5q0 131 15 205l42 232q45 258 192.5 403t365.5 145q225 0 360 -144.5t135 -384.5q0 -88 -14 -188z" />
    <glyph glyph-name="Oacute" unicode="&#xd3;" 
d="M1258 524q-49 -271 -193.5 -412.5t-373.5 -141.5q-217 0 -351.5 143.5t-134.5 374.5q0 131 15 205l42 232q45 258 192.5 403t365.5 145q225 0 360 -144.5t135 -384.5q0 -88 -14 -188zM705 137q147 0 244.5 108.5t134.5 313.5l42 234q12 72 12 150q0 164 -89 263.5
t-237 99.5q-146 0 -242.5 -104t-131.5 -305l-41 -225q-14 -84 -14 -164q0 -172 86.5 -271.5t235.5 -99.5zM772 1612l310 304h215l-332 -304h-193z" />
    <glyph glyph-name="Ocircumflex" unicode="&#xd4;" 
d="M1258 524q-49 -271 -193.5 -412.5t-373.5 -141.5q-217 0 -351.5 143.5t-134.5 374.5q0 131 15 205l42 232q45 258 192.5 403t365.5 145q225 0 360 -144.5t135 -384.5q0 -88 -14 -188zM705 137q147 0 244.5 108.5t134.5 313.5l42 234q12 72 12 150q0 164 -89 263.5
t-237 99.5q-146 0 -242.5 -104t-131.5 -305l-41 -225q-14 -84 -14 -164q0 -172 86.5 -271.5t235.5 -99.5zM1054 1921l233 -309h-170l-144 199h-13l-216 -199h-190l341 309h159z" />
    <glyph glyph-name="Otilde" unicode="&#xd5;" 
d="M1258 524q-49 -271 -193.5 -412.5t-373.5 -141.5q-217 0 -351.5 143.5t-134.5 374.5q0 131 15 205l42 232q45 258 192.5 403t365.5 145q225 0 360 -144.5t135 -384.5q0 -88 -14 -188zM705 137q147 0 244.5 108.5t134.5 313.5l42 234q12 72 12 150q0 164 -89 263.5
t-237 99.5q-146 0 -242.5 -104t-131.5 -305l-41 -225q-14 -84 -14 -164q0 -172 86.5 -271.5t235.5 -99.5zM779 1777q-90 0 -99 -147h-124q5 124 64.5 197t155.5 73q45 0 82.5 -16.5t62.5 -40t46.5 -47t45.5 -40t48 -16.5q43 0 69 38t30 108h123q-4 -120 -64 -194t-155 -74
q-43 0 -79 16.5t-60 40t-46 46.5t-47 39.5t-53 16.5z" />
    <glyph glyph-name="Odieresis" unicode="&#xd6;" 
d="M1258 524q-49 -271 -193.5 -412.5t-373.5 -141.5q-217 0 -351.5 143.5t-134.5 374.5q0 131 15 205l42 232q45 258 192.5 403t365.5 145q225 0 360 -144.5t135 -384.5q0 -88 -14 -188zM705 137q147 0 244.5 108.5t134.5 313.5l42 234q12 72 12 150q0 164 -89 263.5
t-237 99.5q-146 0 -242.5 -104t-131.5 -305l-41 -225q-14 -84 -14 -164q0 -172 86.5 -271.5t235.5 -99.5zM743 1651q-47 0 -82 36t-35 85t35 85t82 36t82 -36t35 -85t-35 -85t-82 -36zM1146 1651q-47 0 -82 36t-35 85t35 85t82 36t82.5 -36t35.5 -85t-35.5 -85t-82.5 -36z
" />
    <glyph glyph-name="multiply" unicode="&#xd7;" 
d="M765 754l377 264l87 -135l-377 -264l262 -376l-126 -96l-263 375l-377 -264l-87 135l377 264l-263 377l126 96z" />
    <glyph glyph-name="Oslash" unicode="&#xd8;" 
d="M1084 559l42 234q12 72 12 150q0 68 -17 128l-664 -819q87 -115 248 -115q147 0 244.5 108.5t134.5 313.5zM438 897l-41 -225q-14 -84 -14 -164q0 -73 17 -136l665 815q-90 119 -253 119q-146 0 -242.5 -104t-131.5 -305zM1423 1443l-173 -213q65 -124 65 -286
q0 -88 -14 -188l-43 -232q-49 -271 -193.5 -412.5t-373.5 -141.5q-214 0 -348 140l-90 -110h-156l173 212q-65 119 -65 276q0 131 15 205l42 232q45 258 192.5 403t365.5 145q226 0 360 -145l94 115h149z" />
    <glyph glyph-name="Ugrave" unicode="&#xd9;" 
d="M803 1916l205 -304h-176l-227 304h198zM229 563l155 880h176l-156 -885q-11 -60 -11 -108q0 -143 84 -228t222 -85q135 0 230.5 90.5t123.5 246.5l171 969h177l-176 -991q-40 -228 -180.5 -355t-350.5 -127q-216 0 -347 126.5t-131 336.5q0 56 13 130z" />
    <glyph glyph-name="Uacute" unicode="&#xda;" 
d="M229 563l155 880h176l-156 -885q-11 -60 -11 -108q0 -143 84 -228t222 -85q135 0 230.5 90.5t123.5 246.5l171 969h177l-176 -991q-40 -228 -180.5 -355t-350.5 -127q-216 0 -347 126.5t-131 336.5q0 56 13 130zM777 1612l311 304h215l-332 -304h-194z" />
    <glyph glyph-name="Ucircumflex" unicode="&#xdb;" 
d="M229 563l155 880h176l-156 -885q-11 -60 -11 -108q0 -143 84 -228t222 -85q135 0 230.5 90.5t123.5 246.5l171 969h177l-176 -991q-40 -228 -180.5 -355t-350.5 -127q-216 0 -347 126.5t-131 336.5q0 56 13 130zM1060 1921l233 -309h-170l-145 199h-13l-216 -199h-189
l340 309h160z" />
    <glyph glyph-name="Udieresis" unicode="&#xdc;" 
d="M229 563l155 880h176l-156 -885q-11 -60 -11 -108q0 -143 84 -228t222 -85q135 0 230.5 90.5t123.5 246.5l171 969h177l-176 -991q-40 -228 -180.5 -355t-350.5 -127q-216 0 -347 126.5t-131 336.5q0 56 13 130zM748 1651q-47 0 -82 36t-35 85t35 85t82 36t82 -36t35 -85
t-35 -85t-82 -36zM1152 1651q-47 0 -82 36t-35 85t35 85t82 36t82 -36t35 -85t-35 -85t-82 -36z" />
    <glyph glyph-name="Yacute" unicode="&#xdd;" 
d="M721 0h-175l106 598l-351 845h185l270 -663h12l493 663h205l-639 -844zM759 1612l310 304h215l-332 -304h-193z" />
    <glyph glyph-name="Thorn" unicode="&#xde;" 
d="M442 1443h180l-47 -266h325q187 0 285.5 -109t79.5 -294q-20 -205 -148.5 -318.5t-340.5 -113.5h-346l-61 -342h-181zM548 1014l-90 -508h304q143 0 225.5 67.5t96.5 195.5q27 245 -243 245h-293z" />
    <glyph glyph-name="germandbls" unicode="&#xdf;" 
d="M368 0h-176l205 1160q28 160 140 248t286 88q186 0 300.5 -101t114.5 -266q0 -135 -85.5 -237.5t-215.5 -124.5l-2 -8q137 -23 216 -119.5t79 -241.5q0 -187 -124.5 -304t-323.5 -117q-130 0 -252 45l27 161q36 -19 97.5 -31.5t115.5 -12.5q128 0 205.5 71t77.5 187
q0 123 -88 200.5t-228 77.5h-58l30 175h51q138 0 221.5 71t83.5 189q0 101 -67.5 162t-178.5 61q-106 0 -171 -53t-82 -153z" />
    <glyph glyph-name="agrave" unicode="&#xe0;" 
d="M566 -18q-144 0 -235 84.5t-92 220.5q-1 169 119 260.5t345 93.5l270 2l10 55q8 44 8 72q0 83 -60.5 132.5t-161.5 49.5q-88 0 -156 -40.5t-89 -105.5h-170q26 130 145.5 211.5t285.5 81.5q170 0 273 -83.5t103 -220.5q0 -57 -21 -169l-110 -626h-162l27 156h-10
q-41 -80 -126.5 -127t-192.5 -47zM625 131q110 0 196.5 71.5t105.5 180.5l24 128l-249 -1q-137 -1 -211.5 -52.5t-75.5 -146.5q-1 -82 56 -131t154 -49zM986 1296h-176l-206 339h202z" />
    <glyph glyph-name="aacute" unicode="&#xe1;" 
d="M926 1296h-186l298 339h212zM951 511l-249 -1q-137 -1 -211.5 -52.5t-75.5 -146.5q-1 -82 56 -131t154 -49q110 0 196.5 71.5t105.5 180.5zM895 156h-10q-41 -80 -126.5 -127t-192.5 -47q-144 0 -235 84.5t-92 220.5q-1 169 119 260.5t345 93.5l270 2l10 55q8 44 8 72
q0 83 -60.5 132.5t-161.5 49.5q-88 0 -156 -40.5t-89 -105.5h-170q26 130 145.5 211.5t285.5 81.5q170 0 273 -83.5t103 -220.5q0 -57 -21 -169l-110 -626h-162z" />
    <glyph glyph-name="acircumflex" unicode="&#xe2;" 
d="M566 -18q-144 0 -235 84.5t-92 220.5q-1 169 119 260.5t345 93.5l270 2l10 55q8 44 8 72q0 83 -60.5 132.5t-161.5 49.5q-88 0 -156 -40.5t-89 -105.5h-170q26 130 145.5 211.5t285.5 81.5q170 0 273 -83.5t103 -220.5q0 -57 -21 -169l-110 -626h-162l27 156h-10
q-41 -80 -126.5 -127t-192.5 -47zM625 131q110 0 196.5 71.5t105.5 180.5l24 128l-249 -1q-137 -1 -211.5 -52.5t-75.5 -146.5q-1 -82 56 -131t154 -49zM823 1623h200l214 -341h-186l-133 226h-15l-212 -226h-202z" />
    <glyph glyph-name="atilde" unicode="&#xe3;" 
d="M566 -18q-144 0 -235 84.5t-92 220.5q-1 169 119 260.5t345 93.5l270 2l10 55q8 44 8 72q0 83 -60.5 132.5t-161.5 49.5q-88 0 -156 -40.5t-89 -105.5h-170q26 130 145.5 211.5t285.5 81.5q170 0 273 -83.5t103 -220.5q0 -57 -21 -169l-110 -626h-162l27 156h-10
q-41 -80 -126.5 -127t-192.5 -47zM625 131q110 0 196.5 71.5t105.5 180.5l24 128l-249 -1q-137 -1 -211.5 -52.5t-75.5 -146.5q-1 -82 56 -131t154 -49zM739 1425q-45 0 -66 -37t-23 -120h-140q5 138 66.5 214.5t165.5 76.5q44 0 82 -16.5t64 -39.5t48.5 -46t46 -39.5
t47.5 -16.5q45 0 66 36.5t23 118.5h139q-4 -136 -65.5 -213t-165.5 -77q-44 0 -82 16.5t-64 40t-48.5 46.5t-46 39.5t-47.5 16.5z" />
    <glyph glyph-name="adieresis" unicode="&#xe4;" 
d="M566 -18q-144 0 -235 84.5t-92 220.5q-1 169 119 260.5t345 93.5l270 2l10 55q8 44 8 72q0 83 -60.5 132.5t-161.5 49.5q-88 0 -156 -40.5t-89 -105.5h-170q26 130 145.5 211.5t285.5 81.5q170 0 273 -83.5t103 -220.5q0 -57 -21 -169l-110 -626h-162l27 156h-10
q-41 -80 -126.5 -127t-192.5 -47zM625 131q110 0 196.5 71.5t105.5 180.5l24 128l-249 -1q-137 -1 -211.5 -52.5t-75.5 -146.5q-1 -82 56 -131t154 -49zM688 1299q-47 0 -82 36t-35 85t35 85t82 36t82 -36t35 -85t-35 -85t-82 -36zM1092 1299q-47 0 -82 36t-35 85t35 85
t82 36t82 -36t35 -85t-35 -85t-82 -36z" />
    <glyph glyph-name="aring" unicode="&#xe5;" 
d="M566 -18q-144 0 -235 84.5t-92 220.5q-1 169 119 260.5t345 93.5l270 2l10 55q8 44 8 72q0 83 -60.5 132.5t-161.5 49.5q-88 0 -156 -40.5t-89 -105.5h-170q26 130 145.5 211.5t285.5 81.5q170 0 273 -83.5t103 -220.5q0 -57 -21 -169l-110 -626h-162l27 156h-10
q-41 -80 -126.5 -127t-192.5 -47zM625 131q110 0 196.5 71.5t105.5 180.5l24 128l-249 -1q-137 -1 -211.5 -52.5t-75.5 -146.5q-1 -82 56 -131t154 -49zM898 1360q50 0 84 35t34 87t-34 87t-84 35q-51 0 -85 -35t-34 -87t34 -87t85 -35zM898 1251q-94 0 -160 68t-66 163
t66 163t160 68q93 0 159 -68t66 -163t-66 -163t-159 -68z" />
    <glyph glyph-name="ae" unicode="&#xe6;" 
d="M1273 289q-22 -133 -116.5 -219.5t-215.5 -86.5q-104 0 -175 61.5t-86 164.5h-4q-41 -105 -122.5 -165.5t-183.5 -60.5q-112 0 -184.5 79t-72.5 199q0 153 91.5 245.5t256.5 105.5l200 17l14 79q5 38 5 67q0 81 -39.5 127t-109.5 46q-61 0 -106.5 -38t-60.5 -102h-144
q21 130 110 210.5t212 80.5q184 0 238 -166h4q44 77 118 121t159 44q139 0 214.5 -115.5t58.5 -301.5q0 -20 -12 -102q-6 -48 -13 -83h-523q-13 -67 -13 -134q0 -103 47.5 -164.5t126.5 -61.5q66 0 118 43t65 110h143zM1188 629q10 70 10 115q0 94 -43 149t-117 55
q-79 0 -137.5 -68.5t-81.5 -190.5q0 -2 -5 -30t-6 -30h380zM400 137q77 0 138 66.5t79 170.5l22 123l-184 -15q-86 -7 -140 -60.5t-54 -133.5q0 -66 39 -108.5t100 -42.5z" />
    <glyph glyph-name="ccedilla" unicode="&#xe7;" 
d="M1221 725h-169v5q0 98 -72 161t-186 63q-271 0 -332 -340l-12 -66q-13 -76 -13 -130q0 -137 71.5 -211.5t202.5 -74.5q99 0 172.5 48.5t101.5 134.5h169q-32 -145 -145 -235.5t-271 -99.5l-58 -113q88 -3 136 -42.5t48 -109.5q0 -89 -69.5 -144.5t-180.5 -55.5
q-82 0 -158 27l19 108q57 -22 138 -22q115 0 115 72q0 74 -139 74h-53l4 84l67 128q-160 26 -250 133t-90 275q0 48 9 117q8 56 27 163q35 203 167 317.5t330 114.5q190 0 305.5 -100t115.5 -264v-17z" />
    <glyph glyph-name="egrave" unicode="&#xe8;" 
d="M793 959q-123 0 -207 -71t-107 -194q-1 -1 -7 -33.5t-6 -33.5h577q0 2 2.5 23t2.5 24q15 125 -56.5 205t-198.5 80zM1141 280q-21 -129 -147 -214.5t-293 -85.5q-199 0 -313 112t-114 306q0 54 15 154l21 136q30 193 163 305t333 112q128 0 225.5 -55.5t145.5 -154
t35 -219.5q0 -1 -10 -91l-12 -87h-741q-1 -5 -4.5 -36t-3.5 -35q-13 -136 61 -218t208 -82q96 0 170.5 43t92.5 110h168zM971 1296h-176l-206 339h202z" />
    <glyph glyph-name="eacute" unicode="&#xe9;" 
d="M912 1296h-187l298 339h212zM973 280h168q-21 -129 -147 -214.5t-293 -85.5q-199 0 -313 112t-114 306q0 54 15 154l21 136q30 193 163 305t333 112q128 0 225.5 -55.5t145.5 -154t35 -219.5q0 -1 -10 -91l-12 -87h-741q-1 -5 -4.5 -36t-3.5 -35q-13 -136 61 -218
t208 -82q96 0 170.5 43t92.5 110zM466 627h577q0 2 2.5 23t2.5 24q15 125 -56.5 205t-198.5 80q-123 0 -207 -71t-107 -194q-1 -1 -7 -33.5t-6 -33.5z" />
    <glyph glyph-name="ecircumflex" unicode="&#xea;" 
d="M793 959q-123 0 -207 -71t-107 -194q-1 -1 -7 -33.5t-6 -33.5h577q0 2 2.5 23t2.5 24q15 125 -56.5 205t-198.5 80zM1141 280q-21 -129 -147 -214.5t-293 -85.5q-199 0 -313 112t-114 306q0 54 15 154l21 136q30 193 163 305t333 112q128 0 225.5 -55.5t145.5 -154
t35 -219.5q0 -1 -10 -91l-12 -87h-741q-1 -5 -4.5 -36t-3.5 -35q-13 -136 61 -218t208 -82q96 0 170.5 43t92.5 110h168zM808 1623h200l214 -341h-186l-133 226h-15l-212 -226h-202z" />
    <glyph glyph-name="edieresis" unicode="&#xeb;" 
d="M793 959q-123 0 -207 -71t-107 -194q-1 -1 -7 -33.5t-6 -33.5h577q0 2 2.5 23t2.5 24q15 125 -56.5 205t-198.5 80zM1141 280q-21 -129 -147 -214.5t-293 -85.5q-199 0 -313 112t-114 306q0 54 15 154l21 136q30 193 163 305t333 112q128 0 225.5 -55.5t145.5 -154
t35 -219.5q0 -1 -10 -91l-12 -87h-741q-1 -5 -4.5 -36t-3.5 -35q-13 -136 61 -218t208 -82q96 0 170.5 43t92.5 110h168zM691 1319q-47 0 -82 36t-35 85t35 85.5t82 36.5t82.5 -36.5t35.5 -85.5t-35.5 -85t-82.5 -36zM1095 1319q-47 0 -82 36t-35 85t35 85.5t82 36.5
t82 -36.5t35 -85.5t-35 -85t-82 -36z" />
    <glyph glyph-name="igrave" unicode="&#xec;" 
d="M1107 0h-899l24 141h372l143 803h-368l23 141h537l-168 -944h360zM1014 1296h-176l-206 339h202z" />
    <glyph glyph-name="iacute" unicode="&#xed;" 
d="M954 1296h-186l298 339h212zM1107 0h-899l24 141h372l143 803h-368l23 141h537l-168 -944h360z" />
    <glyph glyph-name="icircumflex" unicode="&#xee;" 
d="M1107 0h-899l24 141h372l143 803h-368l23 141h537l-168 -944h360zM851 1623h200l214 -341h-186l-133 226h-15l-212 -226h-202z" />
    <glyph glyph-name="idieresis" unicode="&#xef;" 
d="M1107 0h-899l24 141h372l143 803h-368l23 141h537l-168 -944h360zM716 1311q-47 0 -82 36t-35 85t35 85t82 36t82 -36t35 -85t-35 -85t-82 -36zM1120 1311q-47 0 -82 36t-35 85t35 85t82 36t82 -36t35 -85t-35 -85t-82 -36z" />
    <glyph glyph-name="eth" unicode="&#xf0;" 
d="M973 442l12 71q7 42 7 86q0 125 -75 201.5t-198 76.5q-125 0 -210 -82.5t-107 -224.5l-6 -41q-8 -58 -8 -97q0 -137 75 -221t198 -84q122 0 204.5 83.5t107.5 231.5zM1371 1492l-21 -122l-251 -86q94 -223 94 -478q0 -193 -52 -405q-51 -206 -178 -312.5t-321 -106.5
q-192 0 -308.5 122.5t-116.5 324.5q0 63 9 119l10 60q32 186 156 297t301 111q113 0 200.5 -50t127.5 -138l9 -1q-6 202 -93 401l-307 -105l21 122l237 81q-66 119 -149 197h218q51 -64 94 -141z" />
    <glyph glyph-name="ntilde" unicode="&#xf1;" 
d="M189 0l191 1085h163l-32 -186h11q42 96 131 151t205 55q155 0 248.5 -95t93.5 -250q0 -50 -16 -149l-107 -611h-170l108 609q11 66 11 111q0 104 -62.5 166.5t-168.5 62.5q-121 0 -209.5 -84t-113.5 -224l-113 -641h-170zM745 1425q-45 0 -66 -37t-23 -120h-140
q5 138 66.5 214.5t165.5 76.5q44 0 82 -16.5t64 -39.5t48.5 -46t46 -39.5t46.5 -16.5q46 0 67 36t23 119h139q-4 -136 -65.5 -213t-165.5 -77q-44 0 -82 16.5t-64 40t-48.5 46.5t-46 39.5t-47.5 16.5z" />
    <glyph glyph-name="ograve" unicode="&#xf2;" 
d="M686 -19q-195 0 -315 119t-120 310q0 65 10 124l26 150q34 194 162 307t313 113q203 0 324.5 -119.5t121.5 -315.5q0 -52 -10 -116l-27 -151q-36 -202 -162.5 -311.5t-322.5 -109.5zM759 954q-121 0 -202.5 -78.5t-106.5 -218.5l-24 -137q-9 -58 -9 -102
q0 -130 77.5 -208.5t205.5 -78.5q123 0 203.5 79t106.5 227l25 141q6 45 6 92q0 128 -77.5 206t-204.5 78zM965 1296h-176l-206 339h202z" />
    <glyph glyph-name="oacute" unicode="&#xf3;" 
d="M906 1296h-187l298 339h212zM1010 437l25 141q6 45 6 92q0 128 -77.5 206t-204.5 78q-121 0 -202.5 -78.5t-106.5 -218.5l-24 -137q-9 -58 -9 -102q0 -130 77.5 -208.5t205.5 -78.5q123 0 203.5 79t106.5 227zM1198 553l-27 -151q-36 -202 -162.5 -311.5t-322.5 -109.5
q-195 0 -315 119t-120 310q0 65 10 124l26 150q34 194 162 307t313 113q203 0 324.5 -119.5t121.5 -315.5q0 -52 -10 -116z" />
    <glyph glyph-name="ocircumflex" unicode="&#xf4;" 
d="M686 -19q-195 0 -315 119t-120 310q0 65 10 124l26 150q34 194 162 307t313 113q203 0 324.5 -119.5t121.5 -315.5q0 -52 -10 -116l-27 -151q-36 -202 -162.5 -311.5t-322.5 -109.5zM759 954q-121 0 -202.5 -78.5t-106.5 -218.5l-24 -137q-9 -58 -9 -102
q0 -130 77.5 -208.5t205.5 -78.5q123 0 203.5 79t106.5 227l25 141q6 45 6 92q0 128 -77.5 206t-204.5 78zM802 1623h200l214 -341h-186l-133 226h-15l-212 -226h-202z" />
    <glyph glyph-name="otilde" unicode="&#xf5;" 
d="M686 -19q-195 0 -315 119t-120 310q0 65 10 124l26 150q34 194 162 307t313 113q203 0 324.5 -119.5t121.5 -315.5q0 -52 -10 -116l-27 -151q-36 -202 -162.5 -311.5t-322.5 -109.5zM759 954q-121 0 -202.5 -78.5t-106.5 -218.5l-24 -137q-9 -58 -9 -102
q0 -130 77.5 -208.5t205.5 -78.5q123 0 203.5 79t106.5 227l25 141q6 45 6 92q0 128 -77.5 206t-204.5 78zM709 1425q-45 0 -66.5 -37t-23.5 -120h-139q4 138 65.5 214.5t166.5 76.5q44 0 82 -16.5t63.5 -39.5t48 -46t46 -39.5t47.5 -16.5q45 0 66 36.5t23 118.5h140
q-4 -136 -66 -213t-166 -77q-44 0 -82 16.5t-63.5 40t-48 46.5t-46 39.5t-47.5 16.5z" />
    <glyph glyph-name="odieresis" unicode="&#xf6;" 
d="M686 -19q-195 0 -315 119t-120 310q0 65 10 124l26 150q34 194 162 307t313 113q203 0 324.5 -119.5t121.5 -315.5q0 -52 -10 -116l-27 -151q-36 -202 -162.5 -311.5t-322.5 -109.5zM759 954q-121 0 -202.5 -78.5t-106.5 -218.5l-24 -137q-9 -58 -9 -102
q0 -130 77.5 -208.5t205.5 -78.5q123 0 203.5 79t106.5 227l25 141q6 45 6 92q0 128 -77.5 206t-204.5 78zM667 1299q-47 0 -82 36t-35 85t35 85t82 36t82.5 -36t35.5 -85t-35.5 -85t-82.5 -36zM1071 1299q-47 0 -82 36t-35 85t35 85t82 36t82 -36t35 -85t-35 -85t-82 -36z
" />
    <glyph glyph-name="divide" unicode="&#xf7;" 
d="M1229 564h-995l26 152h995zM802 872q-53 0 -88.5 36t-35.5 91t35.5 91t88.5 36t88.5 -36t35.5 -91t-35.5 -91t-88.5 -36zM689 155q-53 0 -88.5 35.5t-35.5 90.5t35.5 91t88.5 36t88.5 -36t35.5 -91t-35 -90.5t-89 -35.5z" />
    <glyph glyph-name="oslash" unicode="&#xf8;" 
d="M1006 437l25 141q7 42 7 92q0 103 -53 176l-412 -691q54 -24 123 -24q123 0 203.5 79t106.5 227zM446 657l-23 -137q-10 -56 -10 -102q0 -117 66 -196l416 701q-62 31 -140 31q-120 0 -202 -79t-107 -218zM1154 1129l-81 -135q132 -121 132 -325q0 -45 -11 -116l-26 -151
q-37 -202 -163 -311.5t-322 -109.5q-106 0 -192 37l-37 -62h-133l72 121q-146 119 -146 333q0 60 11 124l25 150q34 194 162 307t313 113q121 0 217 -45l42 70h137z" />
    <glyph glyph-name="ugrave" unicode="&#xf9;" 
d="M1268 1085l-191 -1085h-163l33 186h-12q-42 -96 -131 -151t-204 -55q-155 0 -249 95t-94 250q0 52 17 149l106 611h170l-107 -609q-12 -63 -12 -111q0 -104 62.5 -166.5t168.5 -62.5q121 0 209.5 83.5t113.5 224.5l113 641h170zM968 1296h-177l-205 339h202z" />
    <glyph glyph-name="uacute" unicode="&#xfa;" 
d="M908 1296h-187l298 339h213zM1268 1085l-191 -1085h-163l33 186h-12q-42 -96 -131 -151t-204 -55q-155 0 -249 95t-94 250q0 52 17 149l106 611h170l-107 -609q-12 -63 -12 -111q0 -104 62.5 -166.5t168.5 -62.5q121 0 209.5 83.5t113.5 224.5l113 641h170z" />
    <glyph glyph-name="ucircumflex" unicode="&#xfb;" 
d="M1268 1085l-191 -1085h-163l33 186h-12q-42 -96 -131 -151t-204 -55q-155 0 -249 95t-94 250q0 52 17 149l106 611h170l-107 -609q-12 -63 -12 -111q0 -104 62.5 -166.5t168.5 -62.5q121 0 209.5 83.5t113.5 224.5l113 641h170zM804 1623h201l213 -341h-186l-132 226h-15
l-212 -226h-202z" />
    <glyph glyph-name="udieresis" unicode="&#xfc;" 
d="M1268 1085l-191 -1085h-163l33 186h-12q-42 -96 -131 -151t-204 -55q-155 0 -249 95t-94 250q0 52 17 149l106 611h170l-107 -609q-12 -63 -12 -111q0 -104 62.5 -166.5t168.5 -62.5q121 0 209.5 83.5t113.5 224.5l113 641h170zM670 1299q-47 0 -82 36t-35 85t35 85
t82 36t82 -36t35 -85t-35 -85t-82 -36zM1073 1299q-47 0 -82 36t-35 85t35 85t82 36t82.5 -36t35.5 -85t-35.5 -85t-82.5 -36z" />
    <glyph glyph-name="yacute" unicode="&#xfd;" 
d="M897 1296h-186l298 339h212zM1316 1085l-607 -1125q-111 -206 -198 -276t-234 -70q-61 0 -80 3l25 149q18 -4 67 -4q73 0 119 36t100 136l30 59l-208 1092h176l146 -908h13l461 908h190z" />
    <glyph glyph-name="thorn" unicode="&#xfe;" 
d="M759 -21q-130 0 -224 66t-120 173h-8l-100 -563h-173l318 1807h174l-94 -533h11q45 77 130 121t187 44q173 0 274.5 -110t101.5 -297q0 -53 -11 -122l-29 -164q-34 -195 -151.5 -308.5t-285.5 -113.5zM730 143q114 0 195 78t106 211l24 140q6 44 6 82q0 132 -71 209
t-193 77q-118 0 -204 -76.5t-111 -203.5q-14 -70 -25 -147q-7 -49 -7 -85q0 -125 78.5 -205t201.5 -80z" />
    <glyph glyph-name="ydieresis" unicode="&#xff;" 
d="M277 -386q-61 0 -80 3l25 149q18 -4 67 -4q73 0 119 36t100 136l30 59l-208 1092h176l146 -908h13l461 908h190l-607 -1125q-111 -206 -198 -276t-234 -70zM659 1319q-47 0 -82 36t-35 85t35 85.5t82 36.5t82 -36.5t35 -85.5t-35 -85t-82 -36zM1063 1319q-47 0 -82 36
t-35 85t35 85.5t82 36.5t82 -36.5t35 -85.5t-35 -85t-82 -36z" />
    <glyph glyph-name="Amacron" unicode="&#x100;" 
d="M531 565h410l-83 666h-5zM793 1443h188l207 -1443h-176l-52 414h-503l-200 -414h-184zM625 1834h660l-24 -139h-660z" />
    <glyph glyph-name="amacron" unicode="&#x101;" 
d="M566 -18q-144 0 -235 84.5t-92 220.5q-1 169 119 260.5t345 93.5l270 2l10 55q8 44 8 72q0 83 -60.5 132.5t-161.5 49.5q-88 0 -156 -40.5t-89 -105.5h-170q26 130 145.5 211.5t285.5 81.5q170 0 273 -83.5t103 -220.5q0 -57 -21 -169l-110 -626h-162l27 156h-10
q-41 -80 -126.5 -127t-192.5 -47zM625 131q110 0 196.5 71.5t105.5 180.5l24 128l-249 -1q-137 -1 -211.5 -52.5t-75.5 -146.5q-1 -82 56 -131t154 -49zM1208 1370h-660l24 139h660z" />
    <glyph glyph-name="Abreve" unicode="&#x102;" 
d="M531 565h410l-83 666h-5zM793 1443h188l207 -1443h-176l-52 414h-503l-200 -414h-184zM1172 1918h140q-24 -139 -130.5 -224t-256.5 -85q-151 0 -238.5 89.5t-65.5 219.5h133q-11 -86 38 -138t141 -52q90 0 157 53t82 137z" />
    <glyph glyph-name="abreve" unicode="&#x103;" 
d="M566 -18q-144 0 -235 84.5t-92 220.5q-1 169 119 260.5t345 93.5l270 2l10 55q8 44 8 72q0 83 -60.5 132.5t-161.5 49.5q-88 0 -156 -40.5t-89 -105.5h-170q26 130 145.5 211.5t285.5 81.5q170 0 273 -83.5t103 -220.5q0 -57 -21 -169l-110 -626h-162l27 156h-10
q-41 -80 -126.5 -127t-192.5 -47zM625 131q110 0 196.5 71.5t105.5 180.5l24 128l-249 -1q-137 -1 -211.5 -52.5t-75.5 -146.5q-1 -82 56 -131t154 -49zM879 1249q-154 0 -247 97.5t-68 232.5h139q-12 -89 41 -144t151 -55q90 0 156 55.5t79 143.5h142
q-22 -149 -129.5 -239.5t-263.5 -90.5z" />
    <glyph glyph-name="Aogonek" unicode="&#x104;" 
d="M854 1231l-326 -666h416l-85 666h-5zM1007 44l-47 370h-499l-203 -414h-184l719 1443h189l206 -1443q-115 -26 -176 -73.5t-61 -111.5q0 -50 36 -81t94 -31q33 0 52 4l-21 -121q-36 -11 -96 -11q-100 0 -163 58t-63 149q0 80 56.5 148t160.5 114z" />
    <glyph glyph-name="aogonek" unicode="&#x105;" 
d="M625 131q108 0 197.5 73.5t108.5 178.5l24 128l-253 -1q-137 -1 -211.5 -52.5t-75.5 -146.5q-1 -82 56 -131t154 -49zM888 36l20 120h-19q-39 -74 -132 -124t-190 -50q-144 0 -235 85t-93 220q-1 169 119 260.5t345 93.5l274 2l10 55q6 40 6 75q0 82 -59.5 130.5
t-160.5 48.5q-89 0 -158.5 -40.5t-90.5 -105.5h-170q26 129 147 211t287 82q170 0 273.5 -83.5t103.5 -220.5q0 -67 -21 -169l-110 -626q-116 -44 -166.5 -89.5t-50.5 -103.5q0 -47 35 -76t90 -29q22 0 40 5l-21 -121q-30 -11 -85 -11q-95 0 -157 55.5t-62 140.5
q0 82 49.5 139t181.5 126z" />
    <glyph glyph-name="Cacute" unicode="&#x106;" 
d="M1237 399q-20 -190 -168 -310t-360 -120q-226 0 -357.5 139.5t-131.5 380.5q0 83 14 160l40 229q50 289 201 442t389 153q209 0 340 -120.5t131 -311.5q0 -34 -6 -74h-174q3 34 3 57q0 127 -82.5 203t-221.5 76q-155 0 -257.5 -106.5t-139.5 -305.5l-44 -251
q-13 -68 -13 -153q0 -165 86 -256.5t240 -91.5q132 0 219.5 70.5t113.5 198.5q1 3 1 5h178q0 -10 -1 -14zM777 1612l311 304h215l-333 -304h-193z" />
    <glyph glyph-name="cacute" unicode="&#x107;" 
d="M1221 725h-169v5q0 98 -72 161t-186 63q-271 0 -332 -340l-12 -66q-13 -76 -13 -130q0 -137 71.5 -211.5t202.5 -74.5q99 0 172.5 48.5t101.5 134.5h169q-34 -152 -156.5 -244t-293.5 -92q-203 0 -320 111.5t-117 303.5q0 48 9 117q8 56 27 163q35 203 167 317.5
t330 114.5q190 0 305.5 -100t115.5 -264v-17zM899 1296h-187l298 339h213z" />
    <glyph glyph-name="Ccircumflex" unicode="&#x108;" 
d="M1237 399q-20 -190 -168 -310t-360 -120q-226 0 -357.5 139.5t-131.5 380.5q0 83 14 160l40 229q50 289 201 442t389 153q209 0 340 -120.5t131 -311.5q0 -34 -6 -74h-174q3 34 3 57q0 127 -82.5 203t-221.5 76q-155 0 -257.5 -106.5t-139.5 -305.5l-44 -251
q-13 -68 -13 -153q0 -165 86 -256.5t240 -91.5q132 0 219.5 70.5t113.5 198.5q1 3 1 5h178q0 -10 -1 -14zM1060 1921l232 -309h-170l-144 199h-13l-216 -199h-190l341 309h160z" />
    <glyph glyph-name="ccircumflex" unicode="&#x109;" 
d="M795 1623h201l213 -341h-186l-132 226h-15l-212 -226h-203zM1221 725h-169v5q0 98 -72 161t-186 63q-271 0 -332 -340l-12 -66q-13 -76 -13 -130q0 -137 71.5 -211.5t202.5 -74.5q99 0 172.5 48.5t101.5 134.5h169q-34 -152 -156.5 -244t-293.5 -92q-203 0 -320 111.5
t-117 303.5q0 48 9 117q8 56 27 163q35 203 167 317.5t330 114.5q190 0 305.5 -100t115.5 -264v-17z" />
    <glyph glyph-name="Cdotaccent" unicode="&#x10a;" 
d="M1237 399q-20 -190 -168 -310t-360 -120q-226 0 -357.5 139.5t-131.5 380.5q0 83 14 160l40 229q50 289 201 442t389 153q209 0 340 -120.5t131 -311.5q0 -34 -6 -74h-174q3 34 3 57q0 127 -82.5 203t-221.5 76q-155 0 -257.5 -106.5t-139.5 -305.5l-44 -251
q-13 -68 -13 -153q0 -165 86 -256.5t240 -91.5q132 0 219.5 70.5t113.5 198.5q1 3 1 5h178q0 -10 -1 -14zM953 1640q-51 0 -88.5 38.5t-37.5 90.5t37.5 90t88.5 38t88.5 -38t37.5 -90t-37.5 -90.5t-88.5 -38.5z" />
    <glyph glyph-name="cdotaccent" unicode="&#x10b;" 
d="M860 1299q-51 0 -88.5 38.5t-37.5 90.5t37.5 90t88.5 38t88.5 -38t37.5 -90t-37.5 -90.5t-88.5 -38.5zM1221 725h-169v5q0 98 -72 161t-186 63q-271 0 -332 -340l-12 -66q-13 -76 -13 -130q0 -137 71.5 -211.5t202.5 -74.5q99 0 172.5 48.5t101.5 134.5h169
q-34 -152 -156.5 -244t-293.5 -92q-203 0 -320 111.5t-117 303.5q0 48 9 117q8 56 27 163q35 203 167 317.5t330 114.5q190 0 305.5 -100t115.5 -264v-17z" />
    <glyph glyph-name="Ccaron" unicode="&#x10c;" 
d="M1237 399q-20 -190 -168 -310t-360 -120q-226 0 -357.5 139.5t-131.5 380.5q0 83 14 160l40 229q50 289 201 442t389 153q209 0 340 -120.5t131 -311.5q0 -34 -6 -74h-174q3 34 3 57q0 127 -82.5 203t-221.5 76q-155 0 -257.5 -106.5t-139.5 -305.5l-44 -251
q-13 -68 -13 -153q0 -165 86 -256.5t240 -91.5q132 0 219.5 70.5t113.5 198.5q1 3 1 5h178q0 -10 -1 -14zM842 1610l-232 309h170l144 -200h13l216 200h189l-340 -309h-160z" />
    <glyph glyph-name="ccaron" unicode="&#x10d;" 
d="M932 1296h-200l-214 342h186l133 -227h15l212 227h202zM1221 725h-169v5q0 98 -72 161t-186 63q-271 0 -332 -340l-12 -66q-13 -76 -13 -130q0 -137 71.5 -211.5t202.5 -74.5q99 0 172.5 48.5t101.5 134.5h169q-34 -152 -156.5 -244t-293.5 -92q-203 0 -320 111.5
t-117 303.5q0 48 9 117q8 56 27 163q35 203 167 317.5t330 114.5q190 0 305.5 -100t115.5 -264v-17z" />
    <glyph glyph-name="Dcaron" unicode="&#x10e;" 
d="M790 1443q254 0 389.5 -139.5t135.5 -400.5q0 -87 -9 -149q0 -5 -12.5 -74.5t-12.5 -71.5q-105 -608 -711 -608h-410l254 1443h376zM757 1282h-193l-200 -1120h198q460 0 542 462q0 2 11 63.5t11 64.5q9 70 9 135q0 395 -378 395zM784 1610l-233 309h170l144 -200h13
l216 200h190l-341 -309h-159z" />
    <glyph glyph-name="dcaron" unicode="&#x10f;" 
d="M1373 1511h159l-118 -458h-122zM626 1103q117 0 194.5 -62t97.5 -167h9l113 637h162l-267 -1511h-156l32 183h-12q-39 -96 -112 -148.5t-173 -52.5q-163 0 -254 102.5t-91 284.5q0 76 12 133l33 198q34 193 141 298t271 105zM641 947q-115 0 -181.5 -68.5t-93.5 -216.5
l-27 -160q-7 -38 -7 -89q0 -129 58 -199.5t165 -70.5q244 0 297 287l30 175q6 34 6 85q0 113 -68.5 185t-178.5 72z" />
    <glyph glyph-name="Dcroat" unicode="&#x110;" 
d="M369 157h197q227 0 365 117t179 346q0 1 6 34t11.5 64.5t5.5 35.5q9 72 9 142q0 390 -380 390h-191l-84 -471h278l-26 -152h-279zM427 1443h361q253 0 390 -139t137 -396q0 -83 -10 -155q0 -21 -26 -151q-106 -602 -716 -602h-390l117 663h-149l27 152h148z" />
    <glyph glyph-name="dcroat" unicode="&#x111;" 
d="M984 437l28 161q6 35 6 64q0 124 -79 204.5t-199 80.5q-124 0 -201 -74.5t-103 -217.5l-25 -145q-8 -46 -8 -99q0 -123 68 -195.5t183 -72.5q130 0 217 78t113 216zM1489 1384l-19 -112h-171l-224 -1272h-167l34 191h-13q-36 -95 -124 -152t-197 -57q-175 0 -277 106.5
t-102 287.5q0 68 11 138l30 175q32 192 152 303t296 111q124 0 217.5 -65t113.5 -171h8l72 405h-219l19 112h220l23 127h169l-22 -127h170z" />
    <glyph glyph-name="Emacron" unicode="&#x112;" 
d="M1109 162l-27 -162h-852l254 1443h852l-27 -162h-674l-85 -468h638l-26 -155h-638l-90 -496h675zM1281 1695h-660l24 139h660z" />
    <glyph glyph-name="emacron" unicode="&#x113;" 
d="M793 959q-123 0 -207 -71t-107 -194q-1 -1 -7 -33.5t-6 -33.5h577q0 2 2.5 23t2.5 24q15 125 -56.5 205t-198.5 80zM1141 280q-21 -129 -147 -214.5t-293 -85.5q-199 0 -313 112t-114 306q0 54 15 154l21 136q30 193 163 305t333 112q128 0 225.5 -55.5t145.5 -154
t35 -219.5q0 -1 -10 -91l-12 -87h-741q-1 -5 -4.5 -36t-3.5 -35q-13 -136 61 -218t208 -82q96 0 170.5 43t92.5 110h168zM1193 1370h-659l24 139h659z" />
    <glyph glyph-name="Ebreve" unicode="&#x114;" 
d="M1109 162l-27 -162h-852l254 1443h852l-27 -162h-674l-85 -468h638l-26 -155h-638l-90 -496h675zM944 1609q-150 0 -237.5 89.5t-65.5 219.5h132q-11 -86 38 -138t141 -52q90 0 157 53t83 137h140q-24 -139 -131 -224t-257 -85z" />
    <glyph glyph-name="ebreve" unicode="&#x115;" 
d="M793 959q-123 0 -207 -71t-107 -194q-1 -1 -7 -33.5t-6 -33.5h577q0 2 2.5 23t2.5 24q15 125 -56.5 205t-198.5 80zM1141 280q-21 -129 -147 -214.5t-293 -85.5q-199 0 -313 112t-114 306q0 54 15 154l21 136q30 193 163 305t333 112q128 0 225.5 -55.5t145.5 -154
t35 -219.5q0 -1 -10 -91l-12 -87h-741q-1 -5 -4.5 -36t-3.5 -35q-13 -136 61 -218t208 -82q96 0 170.5 43t92.5 110h168zM864 1249q-153 0 -246.5 97.5t-68.5 232.5h139q-12 -89 41 -144t151 -55q91 0 156.5 55.5t78.5 143.5h142q-22 -149 -129.5 -239.5t-263.5 -90.5z" />
    <glyph glyph-name="Edotaccent" unicode="&#x116;" 
d="M1109 162l-27 -162h-852l254 1443h852l-27 -162h-674l-85 -468h638l-26 -155h-638l-90 -496h675zM967 1640q-51 0 -88.5 38.5t-37.5 90.5t37.5 90t88.5 38t88.5 -38t37.5 -90t-37.5 -90.5t-88.5 -38.5z" />
    <glyph glyph-name="edotaccent" unicode="&#x117;" 
d="M793 959q-123 0 -207 -71t-107 -194q-1 -1 -7 -33.5t-6 -33.5h577q0 2 2.5 23t2.5 24q15 125 -56.5 205t-198.5 80zM1141 280q-21 -129 -147 -214.5t-293 -85.5q-199 0 -313 112t-114 306q0 54 15 154l21 136q30 193 163 305t333 112q128 0 225.5 -55.5t145.5 -154
t35 -219.5q0 -1 -10 -91l-12 -87h-741q-1 -5 -4.5 -36t-3.5 -35q-13 -136 61 -218t208 -82q96 0 170.5 43t92.5 110h168zM873 1299q-51 0 -88.5 38.5t-37.5 90.5t37.5 90t88.5 38t88.5 -38t37.5 -90t-37.5 -90.5t-88.5 -38.5z" />
    <glyph glyph-name="Eogonek" unicode="&#x118;" 
d="M856 -12l1 12h-627l254 1443h852l-27 -162h-674l-85 -468h638l-26 -155h-638l-90 -496h683l-26 -157q-115 -30 -176.5 -81.5t-61.5 -115.5q0 -49 34 -77t95 -28q34 0 53 4l-21 -121q-36 -11 -96 -11q-97 0 -160.5 54t-63.5 135q0 147 162 224z" />
    <glyph glyph-name="eogonek" unicode="&#x119;" 
d="M864 -423q-94 0 -158 55.5t-64 138.5q0 65 37.5 118.5t122.5 107.5l-3 12q-51 -27 -108 -27q-191 -1 -304 111.5t-113 304.5q0 54 15 154l21 136q30 193 163 305t333 112q128 0 225.5 -55.5t145.5 -154t35 -219.5q0 -1 -10 -91l-12 -87h-741q-1 -5 -4.5 -36t-3.5 -35
q-13 -136 61 -218t208 -82q100 0 180 44t98 109h166q-15 -75 -52.5 -126.5t-122.5 -114.5q-104 -77 -140.5 -123t-36.5 -103q0 -47 37 -77.5t93 -30.5q27 0 53 4l-20 -119q-38 -13 -101 -13zM793 959q-122 0 -206 -69.5t-107 -190.5q0 -2 -3.5 -18.5t-7 -34.5t-3.5 -19h577
q0 2 2.5 23t2.5 24q15 125 -56.5 205t-198.5 80z" />
    <glyph glyph-name="Ecaron" unicode="&#x11a;" 
d="M1109 162l-27 -162h-852l254 1443h852l-27 -162h-674l-85 -468h638l-26 -155h-638l-90 -496h675zM857 1610l-233 309h170l144 -200h14l215 200h190l-340 -309h-160z" />
    <glyph glyph-name="ecaron" unicode="&#x11b;" 
d="M793 959q-123 0 -207 -71t-107 -194q-1 -1 -7 -33.5t-6 -33.5h577q0 2 2.5 23t2.5 24q15 125 -56.5 205t-198.5 80zM1141 280q-21 -129 -147 -214.5t-293 -85.5q-199 0 -313 112t-114 306q0 54 15 154l21 136q30 193 163 305t333 112q128 0 225.5 -55.5t145.5 -154
t35 -219.5q0 -1 -10 -91l-12 -87h-741q-1 -5 -4.5 -36t-3.5 -35q-13 -136 61 -218t208 -82q96 0 170.5 43t92.5 110h168zM945 1296h-201l-213 342h186l132 -227h15l212 227h203z" />
    <glyph glyph-name="Gcircumflex" unicode="&#x11c;" 
d="M1221 395q-34 -197 -175 -311.5t-347 -114.5q-224 0 -356.5 138.5t-132.5 372.5q0 84 15 169l47 263q48 268 200 414.5t383 146.5q207 0 336 -118.5t129 -308.5q0 -17 -4 -63h-173q2 34 2 46q0 123 -84 199.5t-220 76.5q-153 0 -255 -107.5t-139 -306.5l-44 -252
q-15 -85 -15 -155q0 -162 86.5 -255.5t237.5 -93.5q135 0 225.5 75.5t113.5 208.5l30 164h-336l26 151h510zM1016 1921l233 -309h-170l-145 199h-13l-216 -199h-189l340 309h160z" />
    <glyph glyph-name="gcircumflex" unicode="&#x11d;" 
d="M745 1623h201l214 -341h-187l-132 226h-15l-212 -226h-202zM1261 1085l-189 -1078q-36 -204 -162.5 -309t-337.5 -105q-181 0 -299 88t-118 224v18h168v-13q2 -75 76.5 -125t186.5 -50q267 0 320 284l32 182h-12q-37 -89 -125.5 -143t-199.5 -54q-164 0 -270.5 114.5
t-106.5 290.5q0 74 13 148l21 122q34 196 154 310t293 114q136 0 224 -62t112 -175h12l38 219h170zM975 448l22 128q9 51 9 90q0 125 -77 203.5t-199 78.5q-116 0 -198 -80t-107 -218l-17 -95q-11 -64 -11 -111q0 -132 72.5 -208.5t197.5 -76.5q114 0 199.5 80t108.5 209z
" />
    <glyph glyph-name="Gbreve" unicode="&#x11e;" 
d="M1221 395q-34 -197 -175 -311.5t-347 -114.5q-224 0 -356.5 138.5t-132.5 372.5q0 84 15 169l47 263q48 268 200 414.5t383 146.5q207 0 336 -118.5t129 -308.5q0 -17 -4 -63h-173q2 34 2 46q0 123 -84 199.5t-220 76.5q-153 0 -255 -107.5t-139 -306.5l-44 -252
q-15 -85 -15 -155q0 -162 86.5 -255.5t237.5 -93.5q135 0 225.5 75.5t113.5 208.5l30 164h-336l26 151h510zM886 1609q-151 0 -238.5 89t-64.5 220h132q-11 -86 38 -138t141 -52q90 0 157 53t82 137h141q-25 -139 -131.5 -224t-256.5 -85z" />
    <glyph glyph-name="gbreve" unicode="&#x11f;" 
d="M1052 1579h143q-22 -149 -129.5 -239.5t-263.5 -90.5q-154 0 -247 97.5t-68 232.5h139q-12 -89 41 -144t151 -55q90 0 155.5 55.5t78.5 143.5zM1261 1085l-189 -1078q-36 -204 -162.5 -309t-337.5 -105q-181 0 -299 88t-118 224v18h168v-13q2 -75 76.5 -125t186.5 -50
q267 0 320 284l32 182h-12q-37 -89 -125.5 -143t-199.5 -54q-164 0 -270.5 114.5t-106.5 290.5q0 74 13 148l21 122q34 196 154 310t293 114q136 0 224 -62t112 -175h12l38 219h170zM975 448l22 128q9 51 9 90q0 125 -77 203.5t-199 78.5q-116 0 -198 -80t-107 -218l-17 -95
q-11 -64 -11 -111q0 -132 72.5 -208.5t197.5 -76.5q114 0 199.5 80t108.5 209z" />
    <glyph glyph-name="Gdotaccent" unicode="&#x120;" 
d="M1221 395q-34 -197 -175 -311.5t-347 -114.5q-224 0 -356.5 138.5t-132.5 372.5q0 84 15 169l47 263q48 268 200 414.5t383 146.5q207 0 336 -118.5t129 -308.5q0 -17 -4 -63h-173q2 34 2 46q0 123 -84 199.5t-220 76.5q-153 0 -255 -107.5t-139 -306.5l-44 -252
q-15 -85 -15 -155q0 -162 86.5 -255.5t237.5 -93.5q135 0 225.5 75.5t113.5 208.5l30 164h-336l26 151h510zM909 1640q-51 0 -88.5 38.5t-37.5 90.5t37.5 90t88.5 38t88.5 -38t37.5 -90t-37.5 -90.5t-88.5 -38.5z" />
    <glyph glyph-name="gdotaccent" unicode="&#x121;" 
d="M811 1299q-51 0 -88.5 38.5t-37.5 90.5t37.5 90t88.5 38t88.5 -38t37.5 -90t-38 -90.5t-88 -38.5zM1261 1085l-189 -1078q-36 -204 -162.5 -309t-337.5 -105q-181 0 -299 88t-118 224v18h168v-13q2 -75 76.5 -125t186.5 -50q267 0 320 284l32 182h-12
q-37 -89 -125.5 -143t-199.5 -54q-164 0 -270.5 114.5t-106.5 290.5q0 74 13 148l21 122q34 196 154 310t293 114q136 0 224 -62t112 -175h12l38 219h170zM975 448l22 128q9 51 9 90q0 125 -77 203.5t-199 78.5q-116 0 -198 -80t-107 -218l-17 -95q-11 -64 -11 -111
q0 -132 72.5 -208.5t197.5 -76.5q114 0 199.5 80t108.5 209z" />
    <glyph glyph-name="Gcommaaccent" unicode="&#x122;" 
d="M1221 395q-34 -197 -175 -311.5t-347 -114.5q-224 0 -356.5 138.5t-132.5 372.5q0 84 15 169l47 263q48 268 200 414.5t383 146.5q207 0 336 -118.5t129 -308.5q0 -17 -4 -63h-173q2 34 2 46q0 123 -84 199.5t-220 76.5q-153 0 -255 -107.5t-139 -306.5l-44 -252
q-15 -85 -15 -155q0 -162 86.5 -255.5t237.5 -93.5q135 0 225.5 75.5t113.5 208.5l30 164h-336l26 151h510zM608 -503h-157l121 361h176z" />
    <glyph glyph-name="gcommaaccent" unicode="&#x123;" 
d="M874 1261h-157l120 361h177zM1261 1085l-189 -1078q-36 -204 -162.5 -309t-337.5 -105q-181 0 -299 88t-118 224v18h168v-13q2 -75 76.5 -125t186.5 -50q267 0 320 284l32 182h-12q-37 -89 -125.5 -143t-199.5 -54q-164 0 -270.5 114.5t-106.5 290.5q0 74 13 148l21 122
q34 196 154 310t293 114q136 0 224 -62t112 -175h12l38 219h170zM975 448l22 128q9 51 9 90q0 125 -77 203.5t-199 78.5q-116 0 -198 -80t-107 -218l-17 -95q-11 -64 -11 -111q0 -132 72.5 -208.5t197.5 -76.5q114 0 199.5 80t108.5 209z" />
    <glyph glyph-name="Hcircumflex" unicode="&#x124;" 
d="M1113 0h-175l116 656h-609l-117 -656h-175l254 1443h175l-110 -625h609l111 625h175zM1051 1921l233 -309h-170l-144 199h-14l-215 -199h-190l340 309h160z" />
    <glyph glyph-name="hcircumflex" unicode="&#x125;" 
d="M188 0l267 1511h163l-108 -612h11q44 96 133.5 150.5t203.5 54.5q154 0 249 -94.5t95 -249.5q0 -46 -17 -148l-107 -612h-170l108 609q12 70 12 110q0 103 -64 166t-169 63q-121 0 -210 -83.5t-114 -223.5l-113 -641h-170zM705 1989l232 -309h-170l-144 200h-13
l-216 -200h-189l340 309h160z" />
    <glyph glyph-name="Hbar" unicode="&#x126;" 
d="M478 816h595l49 270h-596zM453 656l-116 -656h-177l192 1084h-119l23 138h119l39 221h177l-39 -221h591l39 221h177l-39 -221h120l-24 -138h-119l-192 -1084h-177l116 656h-591z" />
    <glyph glyph-name="hbar" unicode="&#x127;" 
d="M510 899h11q44 96 133.5 150.5t203.5 54.5q154 0 249 -94.5t95 -249.5q0 -46 -17 -148l-107 -612h-170l108 609q12 70 12 110q0 103 -64 166t-169 63q-121 0 -210 -83.5t-114 -223.5l-113 -641h-170l225 1272h-163l19 112h164l22 127h163l-22 -127h252l-19 -112h-253z
" />
    <glyph glyph-name="Itilde" unicode="&#x128;" 
d="M1013 0h-760l26 157h292l202 1129h-292l26 157h760l-25 -157h-293l-202 -1129h293zM780 1777q-91 0 -99 -147h-124q5 124 64 197t156 73q45 0 82 -16.5t62 -40t46.5 -47t45.5 -40t48 -16.5q43 0 69 38t30 108h124q-5 -120 -65 -194t-155 -74q-43 0 -79 16.5t-60 40
t-45.5 46.5t-47 39.5t-52.5 16.5z" />
    <glyph glyph-name="itilde" unicode="&#x129;" 
d="M1107 0h-899l24 141h372l143 803h-368l23 141h537l-168 -944h360zM767 1425q-45 0 -66 -37t-23 -120h-140q5 138 66.5 214.5t165.5 76.5q44 0 82 -16.5t64 -39.5t48.5 -46t46 -39.5t47.5 -16.5q45 0 66 36.5t23 118.5h139q-4 -136 -65.5 -213t-165.5 -77q-44 0 -82 16.5
t-64 40t-48.5 46.5t-46 39.5t-47.5 16.5z" />
    <glyph glyph-name="Imacron" unicode="&#x12a;" 
d="M1013 0h-760l26 157h292l202 1129h-292l26 157h760l-25 -157h-293l-202 -1129h293zM1261 1695h-659l24 139h659z" />
    <glyph glyph-name="imacron" unicode="&#x12b;" 
d="M1107 0h-899l24 141h372l143 803h-368l23 141h537l-168 -944h360zM1236 1370h-660l24 139h660z" />
    <glyph glyph-name="Ibreve" unicode="&#x12c;" 
d="M1013 0h-760l26 157h292l202 1129h-292l26 157h760l-25 -157h-293l-202 -1129h293zM925 1609q-151 0 -238.5 89t-65.5 220h133q-11 -86 38 -138t141 -52q90 0 157 53t82 137h141q-25 -139 -131.5 -224t-256.5 -85z" />
    <glyph glyph-name="ibreve" unicode="&#x12d;" 
d="M1107 0h-899l24 141h372l143 803h-368l23 141h537l-168 -944h360zM907 1249q-154 0 -247 97.5t-68 232.5h139q-12 -89 41 -144t151 -55q90 0 156 55.5t79 143.5h142q-22 -149 -129.5 -239.5t-263.5 -90.5z" />
    <glyph glyph-name="Iogonek" unicode="&#x12e;" 
d="M783 0h-530l26 157h292l202 1129h-292l26 157h760l-25 -157h-293l-202 -1129h293l-26 -152q-112 -29 -173.5 -81t-61.5 -116q0 -49 34.5 -77t94.5 -28q32 0 53 4l-21 -121q-36 -11 -96 -11q-97 0 -160.5 54.5t-63.5 136.5q0 145 162 222z" />
    <glyph glyph-name="iogonek" unicode="&#x12f;" 
d="M914 1351q-60 0 -100.5 40t-40.5 100q0 59 40.5 99t100.5 40t100.5 -40t40.5 -99q0 -60 -40.5 -100t-100.5 -40zM883 -8v8h-675l24 141h372l143 803h-368l23 141h537l-168 -944h360l-23 -136l-15 -4q-102 -29 -159 -80.5t-57 -114.5q0 -49 33.5 -76t92.5 -27q32 0 51 4
l-21 -121q-36 -11 -95 -11q-95 0 -157.5 53.5t-62.5 135.5q0 144 165 228z" />
    <glyph glyph-name="Idotaccent" unicode="&#x130;" 
d="M1013 0h-760l26 157h292l202 1129h-292l26 157h760l-25 -157h-293l-202 -1129h293zM948 1640q-51 0 -88.5 38.5t-37.5 90.5t37.5 90t88.5 38t88.5 -38t37.5 -90t-37.5 -90.5t-88.5 -38.5z" />
    <glyph glyph-name="dotlessi" unicode="&#x131;" 
d="M1107 0h-899l24 141h372l143 803h-368l23 141h537l-168 -944h360z" />
    <glyph glyph-name="IJ" unicode="&#x132;" 
d="M861 -32q-135 0 -209 76.5t-74 214.5q0 52 8 100h165q-5 -35 -5 -69q0 -74 35 -114t100 -40q84 0 136 65t76 201l158 881h-374l27 160h540l-186 -1052q-36 -208 -137.5 -315.5t-259.5 -107.5zM384 0h-171l254 1443h171z" />
    <glyph glyph-name="ij" unicode="&#x133;" 
d="M438 0h-165l191 1085h165zM1190 1085l-190 -1079q-31 -178 -146 -256.5t-338 -78.5q-175 0 -258 8l25 150q72 -8 256 -8q147 0 213 44t86 159l187 1061h165zM1165 1351q-60 0 -100.5 40t-40.5 100q0 59 40.5 99t100.5 40t100.5 -40t40.5 -99q0 -60 -40.5 -100t-100.5 -40
zM616 1351q-60 0 -101 40t-41 100q0 59 41 99t101 40t100.5 -40t40.5 -99q0 -60 -40.5 -100t-100.5 -40z" />
    <glyph glyph-name="Jcircumflex" unicode="&#x134;" 
d="M631 -30q-178 0 -292 101t-114 258q0 18 4 52h166q-2 -16 -2 -29q0 -95 68.5 -154.5t178.5 -59.5t179.5 65t91.5 188l160 895h-495l26 157h673l-191 -1075q-34 -196 -148.5 -297t-304.5 -101zM1102 1921l233 -309h-170l-144 199h-14l-215 -199h-190l340 309h160z" />
    <glyph glyph-name="jcircumflex" unicode="&#x135;" 
d="M1066 1085l-191 -1079q-30 -172 -138.5 -253.5t-308.5 -81.5q-141 0 -298 16l26 151q159 -15 277 -15q130 0 194.5 47t83.5 156l163 918h-496l24 141h664zM976 1623h201l213 -341h-186l-132 226h-15l-212 -226h-202z" />
    <glyph glyph-name="Kcommaaccent" unicode="&#x136;" 
d="M821 801l415 -801h-201l-354 685l-204 -187l-89 -498h-172l254 1443h172l-128 -709h11l737 709h214zM631 -503h-158l121 361h177z" />
    <glyph glyph-name="kcommaaccent" unicode="&#x137;" 
d="M517 434l-78 -434h-170l267 1511h170l-153 -865h11l549 439h232l-530 -431l381 -654h-194l-325 556zM620 -503h-157l121 361h176z" />
    <glyph glyph-name="Lacute" unicode="&#x139;" 
d="M1150 164l-28 -164h-859l254 1443h175l-226 -1279h684zM490 1612l311 304h215l-332 -304h-194z" />
    <glyph glyph-name="lacute" unicode="&#x13a;" 
d="M1107 0h-899l24 141h371l219 1229h-368l24 141h537l-242 -1370h358zM854 1681l310 303h215l-332 -303h-193z" />
    <glyph glyph-name="Lcommaaccent" unicode="&#x13b;" 
d="M1150 164l-28 -164h-859l254 1443h175l-226 -1279h684zM639 -503h-157l120 361h177z" />
    <glyph glyph-name="lcommaaccent" unicode="&#x13c;" 
d="M1107 0h-899l24 141h371l219 1229h-368l24 141h537l-242 -1370h358zM561 -503h-158l121 361h177z" />
    <glyph glyph-name="Lcaron" unicode="&#x13d;" 
d="M1017 1443h157l-122 -481h-119zM1150 164l-28 -164h-859l254 1443h175l-226 -1279h684z" />
    <glyph glyph-name="lcaron" unicode="&#x13e;" 
d="M1274 1511h167l-121 -458h-127zM1107 0h-899l24 141h371l219 1229h-368l24 141h537l-242 -1370h358z" />
    <glyph glyph-name="Ldot" unicode="&#x13f;" 
d="M1150 164l-28 -164h-859l254 1443h175l-226 -1279h684zM1146 902q-51 0 -88.5 38t-37.5 90t37.5 90.5t88.5 38.5t88.5 -38.5t37.5 -90.5t-37.5 -90t-88.5 -38z" />
    <glyph glyph-name="ldot" unicode="&#x140;" 
d="M1107 0h-899l24 141h371l219 1229h-368l24 141h537l-242 -1370h358zM1261 706q-51 0 -88.5 38.5t-37.5 90.5t37.5 90t88.5 38t88.5 -38t37.5 -90t-37.5 -90.5t-88.5 -38.5z" />
    <glyph glyph-name="Lslash" unicode="&#x141;" 
d="M466 164h684l-28 -164h-859l101 573l-201 -103l27 161l203 106l124 706h175l-107 -605l540 282l-28 -169l-541 -279z" />
    <glyph glyph-name="lslash" unicode="&#x142;" 
d="M1244 954l-360 -185l-111 -628h358l-24 -141h-899l24 141h371l95 532l-389 -200l26 154l391 204l96 539h-368l24 141h537l-103 -582l359 187z" />
    <glyph glyph-name="Nacute" unicode="&#x143;" 
d="M312 0h-159l254 1443h169l417 -1123h14l201 1123h159l-254 -1443h-167l-419 1126h-14zM769 1612l311 304h215l-332 -304h-194z" />
    <glyph glyph-name="nacute" unicode="&#x144;" 
d="M932 1296h-186l298 339h212zM189 0l191 1085h163l-32 -186h11q42 96 131 151t205 55q155 0 248.5 -95t93.5 -250q0 -50 -16 -149l-107 -611h-170l108 609q11 66 11 111q0 104 -62.5 166.5t-168.5 62.5q-121 0 -209.5 -84t-113.5 -224l-113 -641h-170z" />
    <glyph glyph-name="Ncommaaccent" unicode="&#x145;" 
d="M312 0h-159l254 1443h169l417 -1123h14l201 1123h159l-254 -1443h-167l-419 1126h-14zM577 -503h-158l121 361h177z" />
    <glyph glyph-name="ncommaaccent" unicode="&#x146;" 
d="M189 0l191 1085h163l-32 -186h11q42 96 131 151t205 55q155 0 248.5 -95t93.5 -250q0 -50 -16 -149l-107 -611h-170l108 609q11 66 11 111q0 104 -62.5 166.5t-168.5 62.5q-121 0 -209.5 -84t-113.5 -224l-113 -641h-170zM538 -503h-158l121 361h177z" />
    <glyph glyph-name="Ncaron" unicode="&#x147;" 
d="M312 0h-159l254 1443h169l417 -1123h14l201 1123h159l-254 -1443h-167l-419 1126h-14zM834 1610l-232 309h170l144 -200h13l216 200h190l-341 -309h-160z" />
    <glyph glyph-name="ncaron" unicode="&#x148;" 
d="M189 0l191 1085h163l-32 -186h11q42 96 131 151t205 55q155 0 248.5 -95t93.5 -250q0 -50 -16 -149l-107 -611h-170l108 609q11 66 11 111q0 104 -62.5 166.5t-168.5 62.5q-121 0 -209.5 -84t-113.5 -224l-113 -641h-170zM966 1296h-201l-214 342h187l132 -227h15
l212 227h202z" />
    <glyph glyph-name="Omacron" unicode="&#x14c;" 
d="M1258 524q-49 -271 -193.5 -412.5t-373.5 -141.5q-217 0 -351.5 143.5t-134.5 374.5q0 131 15 205l42 232q45 258 192.5 403t365.5 145q225 0 360 -144.5t135 -384.5q0 -88 -14 -188zM705 137q147 0 244.5 108.5t134.5 313.5l42 234q12 72 12 150q0 164 -89 263.5
t-237 99.5q-146 0 -242.5 -104t-131.5 -305l-41 -225q-14 -84 -14 -164q0 -172 86.5 -271.5t235.5 -99.5zM1261 1695h-660l24 139h660z" />
    <glyph glyph-name="omacron" unicode="&#x14d;" 
d="M686 -19q-195 0 -315 119t-120 310q0 65 10 124l26 150q34 194 162 307t313 113q203 0 324.5 -119.5t121.5 -315.5q0 -52 -10 -116l-27 -151q-36 -202 -162.5 -311.5t-322.5 -109.5zM759 954q-121 0 -202.5 -78.5t-106.5 -218.5l-24 -137q-9 -58 -9 -102
q0 -130 77.5 -208.5t205.5 -78.5q123 0 203.5 79t106.5 227l25 141q6 45 6 92q0 128 -77.5 206t-204.5 78zM1188 1370h-660l24 139h660z" />
    <glyph glyph-name="Obreve" unicode="&#x14e;" 
d="M1258 524q-49 -271 -193.5 -412.5t-373.5 -141.5q-217 0 -351.5 143.5t-134.5 374.5q0 131 15 205l42 232q45 258 192.5 403t365.5 145q225 0 360 -144.5t135 -384.5q0 -88 -14 -188zM705 137q147 0 244.5 108.5t134.5 313.5l42 234q12 72 12 150q0 164 -89 263.5
t-237 99.5q-146 0 -242.5 -104t-131.5 -305l-41 -225q-14 -84 -14 -164q0 -172 86.5 -271.5t235.5 -99.5zM925 1609q-151 0 -238.5 89.5t-65.5 219.5h133q-11 -86 38 -138t141 -52q90 0 157 53t82 137h140q-24 -139 -130.5 -224t-256.5 -85z" />
    <glyph glyph-name="obreve" unicode="&#x14f;" 
d="M686 -19q-195 0 -315 119t-120 310q0 65 10 124l26 150q34 194 162 307t313 113q203 0 324.5 -119.5t121.5 -315.5q0 -52 -10 -116l-27 -151q-36 -202 -162.5 -311.5t-322.5 -109.5zM759 954q-121 0 -202.5 -78.5t-106.5 -218.5l-24 -137q-9 -58 -9 -102
q0 -130 77.5 -208.5t205.5 -78.5q123 0 203.5 79t106.5 227l25 141q6 45 6 92q0 128 -77.5 206t-204.5 78zM858 1249q-153 0 -246 97.5t-68 232.5h138q-12 -89 41 -144t151 -55q91 0 156.5 55.5t78.5 143.5h142q-22 -149 -129.5 -239.5t-263.5 -90.5z" />
    <glyph glyph-name="Ohungarumlaut" unicode="&#x150;" 
d="M1258 524q-49 -271 -193.5 -412.5t-373.5 -141.5q-217 0 -351.5 143.5t-134.5 374.5q0 131 15 205l42 232q45 258 192.5 403t365.5 145q225 0 360 -144.5t135 -384.5q0 -88 -14 -188zM705 137q147 0 244.5 108.5t134.5 313.5l42 234q12 72 12 150q0 164 -89 263.5
t-237 99.5q-146 0 -242.5 -104t-131.5 -305l-41 -225q-14 -84 -14 -164q0 -172 86.5 -271.5t235.5 -99.5zM1048 1612l306 304h194l-323 -304h-177zM670 1612l305 304h194l-323 -304h-176z" />
    <glyph glyph-name="ohungarumlaut" unicode="&#x151;" 
d="M686 -19q-195 0 -315 119t-120 310q0 65 10 124l26 150q34 194 162 307t313 113q203 0 324.5 -119.5t121.5 -315.5q0 -52 -10 -116l-27 -151q-36 -202 -162.5 -311.5t-322.5 -109.5zM759 954q-121 0 -202.5 -78.5t-106.5 -218.5l-24 -137q-9 -58 -9 -102
q0 -130 77.5 -208.5t205.5 -78.5q123 0 203.5 79t106.5 227l25 141q6 45 6 92q0 128 -77.5 206t-204.5 78zM948 1296l286 339h203l-309 -339h-180zM560 1296l286 339h202l-308 -339h-180z" />
    <glyph glyph-name="OE" unicode="&#x152;" 
d="M360 896l-39 -220q-21 -136 -21 -248q0 -124 50 -197t135 -73q219 0 288 379l43 238q19 95 19 213q0 298 -197 298q-208 0 -278 -390zM716 174q-46 -107 -115 -157t-170 -50q-143 0 -224 112t-81 309q0 146 25 299l43 251q45 267 154 403t278 136q118 0 189 -71.5
t83 -200.5h8l42 238h564l-26 -162h-420l-84 -465h385l-26 -159h-386l-90 -496h420l-27 -161h-564l30 174h-8z" />
    <glyph glyph-name="oe" unicode="&#x153;" 
d="M1210 633q10 40 10 116q-1 95 -41.5 149t-110.5 54q-76 0 -130.5 -65.5t-80.5 -184.5q-5 -18 -13 -69h366zM712 202h-2q-82 -220 -292 -220q-134 0 -209.5 94t-75.5 261q0 109 12 176l27 162q74 422 376 422q95 0 160.5 -59.5t82.5 -160.5h3q40 104 119 163.5t178 59.5
q139 0 211 -111t55 -298q0 -23 -11 -105l-12 -89h-516q-12 -85 -12 -126q0 -107 46 -170.5t124 -63.5q65 0 115.5 42.5t64.5 109.5h142q-22 -132 -117 -219t-215 -87q-99 0 -166 58t-88 161zM530 945q-81 0 -137 -76.5t-78 -220.5l-24 -150q-10 -67 -10 -132
q0 -112 41.5 -172.5t118.5 -60.5q85 0 142 76t80 223l24 155q10 50 10 107q0 123 -42.5 187t-124.5 64z" />
    <glyph glyph-name="Racute" unicode="&#x154;" 
d="M584 1286l-100 -562h271q153 0 247.5 71t115.5 195q6 34 6 68q1 107 -66.5 167.5t-189.5 60.5h-284zM356 0h-174l254 1443h470q186 0 294.5 -101t107.5 -276q0 -49 -7 -95q-22 -140 -111.5 -237t-227.5 -132l194 -602h-188l-180 577q-34 -2 -73 -2h-257zM742 1612
l311 304h215l-332 -304h-194z" />
    <glyph glyph-name="racute" unicode="&#x155;" 
d="M1263 1634l-323 -339h-187l298 339h212zM731 808h22q53 149 159 227t253 78q96 0 160 -33l-32 -189q-64 37 -176 37q-170 0 -287 -117t-154 -323l-63 -352h337l-24 -136h-721l24 136h219l143 813h-240l23 136h405z" />
    <glyph glyph-name="Rcommaaccent" unicode="&#x156;" 
d="M584 1286l-100 -562h271q153 0 247.5 71t115.5 195q6 34 6 68q1 107 -66.5 167.5t-189.5 60.5h-284zM356 0h-174l254 1443h470q186 0 294.5 -101t107.5 -276q0 -49 -7 -95q-22 -140 -111.5 -237t-227.5 -132l194 -602h-188l-180 577q-34 -2 -73 -2h-257zM584 -503h-157
l121 361h176z" />
    <glyph glyph-name="rcommaaccent" unicode="&#x157;" 
d="M292 -519l121 361h176l-140 -361h-157zM731 808h22q53 149 159 227t253 78q96 0 160 -33l-32 -189q-64 37 -176 37q-170 0 -287 -117t-154 -323l-63 -352h337l-24 -136h-721l24 136h219l143 813h-240l23 136h405z" />
    <glyph glyph-name="Rcaron" unicode="&#x158;" 
d="M584 1286l-100 -562h271q153 0 247.5 71t115.5 195q6 34 6 68q1 107 -66.5 167.5t-189.5 60.5h-284zM356 0h-174l254 1443h470q186 0 294.5 -101t107.5 -276q0 -49 -7 -95q-22 -140 -111.5 -237t-227.5 -132l194 -602h-188l-180 577q-34 -2 -73 -2h-257zM808 1610
l-233 309h170l144 -200h14l215 200h190l-340 -309h-160z" />
    <glyph glyph-name="rcaron" unicode="&#x159;" 
d="M973 1295h-201l-213 342h186l132 -227h15l212 227h202zM731 808h22q53 149 159 227t253 78q96 0 160 -33l-32 -189q-64 37 -176 37q-170 0 -287 -117t-154 -323l-63 -352h337l-24 -136h-721l24 136h219l143 813h-240l23 136h405z" />
    <glyph glyph-name="Sacute" unicode="&#x15a;" 
d="M199 413h174q-2 -26 -2 -28q0 -111 94 -183t239 -72q142 0 232 71t90 183q0 86 -57 142t-199 109l-95 36q-178 67 -258.5 159.5t-80.5 228.5q0 184 134.5 299t349.5 115q202 0 332 -106t130 -271q0 -28 -3 -40h-174q1 3 1 23q0 102 -80.5 168t-205.5 66
q-133 0 -217 -66.5t-84 -170.5q0 -85 54.5 -141.5t185.5 -105.5l106 -40q186 -71 264.5 -158t78.5 -222q0 -199 -139 -319t-369 -120q-217 0 -361 113t-144 283q0 35 4 47zM752 1612l311 304h215l-333 -304h-193z" />
    <glyph glyph-name="sacute" unicode="&#x15b;" 
d="M774 454l-150 49q-128 43 -187.5 109t-59.5 164q0 147 115.5 238.5t299.5 91.5q175 0 279 -80t111 -220q0 -3 -0.5 -7.5t-0.5 -6.5h-165v3q-9 83 -68 127t-160 44q-106 0 -172.5 -47t-66.5 -121q0 -53 38.5 -89t127.5 -65l143 -47q136 -45 197 -110t61 -164
q0 -154 -120 -249t-314 -95q-188 0 -303 84.5t-120 227.5v10h168v-2q11 -85 78.5 -131t180.5 -46t182.5 48t69.5 127q0 56 -38 92.5t-126 64.5zM904 1296h-187l298 339h213z" />
    <glyph glyph-name="Scircumflex" unicode="&#x15c;" 
d="M199 413h174q-2 -26 -2 -28q0 -111 94 -183t239 -72q142 0 232 71t90 183q0 86 -57 142t-199 109l-95 36q-178 67 -258.5 159.5t-80.5 228.5q0 184 134.5 299t349.5 115q202 0 332 -106t130 -271q0 -28 -3 -40h-174q1 3 1 23q0 102 -80.5 168t-205.5 66
q-133 0 -217 -66.5t-84 -170.5q0 -85 54.5 -141.5t185.5 -105.5l106 -40q186 -71 264.5 -158t78.5 -222q0 -199 -139 -319t-369 -120q-217 0 -361 113t-144 283q0 35 4 47zM1035 1921l232 -309h-170l-144 199h-13l-216 -199h-190l341 309h160z" />
    <glyph glyph-name="scircumflex" unicode="&#x15d;" 
d="M800 1623h201l213 -341h-186l-132 226h-15l-212 -226h-203zM774 454l-150 49q-128 43 -187.5 109t-59.5 164q0 147 115.5 238.5t299.5 91.5q175 0 279 -80t111 -220q0 -3 -0.5 -7.5t-0.5 -6.5h-165v3q-9 83 -68 127t-160 44q-106 0 -172.5 -47t-66.5 -121q0 -53 38.5 -89
t127.5 -65l143 -47q136 -45 197 -110t61 -164q0 -154 -120 -249t-314 -95q-188 0 -303 84.5t-120 227.5v10h168v-2q11 -85 78.5 -131t180.5 -46t182.5 48t69.5 127q0 56 -38 92.5t-126 64.5z" />
    <glyph glyph-name="Scedilla" unicode="&#x15e;" 
d="M1279 1056h-174q1 3 1 23q0 102 -80.5 168t-205.5 66q-133 0 -217 -66.5t-84 -170.5q0 -85 54.5 -141.5t185.5 -105.5l106 -40q186 -71 264.5 -158t78.5 -222q0 -199 -139 -319t-369 -120h-8l-52 -103q88 -3 135.5 -42.5t47.5 -109.5q0 -89 -69 -144.5t-180 -55.5
q-83 0 -159 27l19 108q23 -9 66 -15.5t73 -6.5q114 0 114 72q0 74 -139 74h-53l5 84l65 125q-166 33 -268 137.5t-102 245.5q0 35 4 47h174q-2 -26 -2 -28q0 -111 94 -183t239 -72q142 0 232 71t90 183q0 86 -57 142t-199 109l-95 36q-178 67 -258.5 159.5t-80.5 228.5
q0 184 134.5 299t349.5 115q202 0 332 -106t130 -271q0 -28 -3 -40z" />
    <glyph glyph-name="scedilla" unicode="&#x15f;" 
d="M1181 792h-165v3q-9 83 -68 127t-160 44q-106 0 -172.5 -47t-66.5 -121q0 -53 38.5 -89t127.5 -65l143 -47q136 -45 197 -110t61 -164q0 -150 -114 -244.5t-300 -99.5l-57 -112q88 -3 136 -42.5t48 -109.5q0 -89 -69.5 -144.5t-180.5 -55.5q-83 0 -158 27l18 108
q23 -9 66 -15.5t73 -6.5q114 0 114 72q0 74 -138 74h-54l5 84l67 129q-142 23 -225.5 103t-87.5 201v10h168v-2q11 -85 78.5 -131t180.5 -46t182.5 48t69.5 127q0 56 -38 92.5t-126 64.5l-150 49q-128 43 -187.5 109t-59.5 164q0 147 115.5 238.5t299.5 91.5q175 0 279 -80
t111 -220q0 -3 -0.5 -7.5t-0.5 -6.5z" />
    <glyph glyph-name="Scaron" unicode="&#x160;" 
d="M199 413h174q-2 -26 -2 -28q0 -111 94 -183t239 -72q142 0 232 71t90 183q0 86 -57 142t-199 109l-95 36q-178 67 -258.5 159.5t-80.5 228.5q0 184 134.5 299t349.5 115q202 0 332 -106t130 -271q0 -28 -3 -40h-174q1 3 1 23q0 102 -80.5 168t-205.5 66
q-133 0 -217 -66.5t-84 -170.5q0 -85 54.5 -141.5t185.5 -105.5l106 -40q186 -71 264.5 -158t78.5 -222q0 -199 -139 -319t-369 -120q-217 0 -361 113t-144 283q0 35 4 47zM817 1610l-232 309h170l144 -200h13l216 200h189l-340 -309h-160z" />
    <glyph glyph-name="scaron" unicode="&#x161;" 
d="M937 1296h-200l-214 342h186l133 -227h15l212 227h202zM774 454l-150 49q-128 43 -187.5 109t-59.5 164q0 147 115.5 238.5t299.5 91.5q175 0 279 -80t111 -220q0 -3 -0.5 -7.5t-0.5 -6.5h-165v3q-9 83 -68 127t-160 44q-106 0 -172.5 -47t-66.5 -121q0 -53 38.5 -89
t127.5 -65l143 -47q136 -45 197 -110t61 -164q0 -154 -120 -249t-314 -95q-188 0 -303 84.5t-120 227.5v10h168v-2q11 -85 78.5 -131t180.5 -46t182.5 48t69.5 127q0 56 -38 92.5t-126 64.5z" />
    <glyph glyph-name="Tcedilla" unicode="&#x162;" 
d="M575 -2l-30 2l228 1281h-436l26 162h1048l-27 -162h-435l-228 -1281l-32 -133q71 -10 109.5 -49.5t38.5 -102.5q0 -89 -69.5 -144.5t-179.5 -55.5q-83 0 -159 27l19 108q60 -22 138 -22q115 0 115 72q0 75 -137 75h-37l16 92z" />
    <glyph glyph-name="tcedilla" unicode="&#x163;" 
d="M694 -486q-70 0 -141 18l4 109q46 -14 119 -14q56 0 86 19t30 54q0 34 -33.5 49t-109.5 15h-57l4 86l71 168q-172 52 -172 236q0 38 9 87l110 596h-289l24 145h290l51 294h168l-51 -294h440l-25 -145h-438l-110 -595q-5 -24 -5 -53q0 -146 208 -146q149 0 201 6l-24 -144
q-50 -10 -197 -10q-41 0 -67 3l-56 -133q96 -3 150 -44.5t54 -112.5q0 -90 -66 -142t-178 -52z" />
    <glyph glyph-name="Tcaron" unicode="&#x164;" 
d="M721 0h-176l228 1281h-436l26 162h1048l-27 -162h-435zM837 1610l-232 309h170l144 -200h13l216 200h189l-340 -309h-160z" />
    <glyph glyph-name="tcaron" unicode="&#x165;" 
d="M1123 1230h-119l80 459h159zM690 1376h168l-51 -294h440l-25 -145h-438l-110 -595q-5 -25 -5 -51q0 -75 51 -111.5t157 -36.5q147 0 201 6l-24 -144q-52 -10 -225 -10q-163 0 -248.5 66t-85.5 193q0 38 9 87l110 596h-289l24 145h290z" />
    <glyph glyph-name="Tbar" unicode="&#x166;" 
d="M1384 1281h-435l-87 -489h297l-23 -141h-299l-116 -651h-176l116 651h-298l23 141h300l87 489h-436l26 162h1048z" />
    <glyph glyph-name="tbar" unicode="&#x167;" 
d="M1222 937h-438l-48 -261h439l-22 -124h-440l-39 -210q-5 -25 -5 -51q0 -75 51 -111.5t157 -36.5q147 0 201 6l-24 -144q-52 -10 -225 -10q-163 0 -248.5 66t-85.5 193q0 38 9 87l39 211h-287l22 124h288l48 261h-289l24 145h290l51 294h168l-51 -294h440z" />
    <glyph glyph-name="Utilde" unicode="&#x168;" 
d="M229 563l155 880h176l-156 -885q-11 -60 -11 -108q0 -143 84 -228t222 -85q135 0 230.5 90.5t123.5 246.5l171 969h177l-176 -991q-40 -228 -180.5 -355t-350.5 -127q-216 0 -347 126.5t-131 336.5q0 56 13 130zM785 1777q-91 0 -99 -147h-124q5 124 64 197t156 73
q45 0 82.5 -16.5t62.5 -40t46.5 -47t45 -40t47.5 -16.5q43 0 69 38t30 108h124q-5 -120 -65 -194t-155 -74q-43 0 -78.5 16.5t-60 40t-46 46.5t-46.5 39.5t-53 16.5z" />
    <glyph glyph-name="utilde" unicode="&#x169;" 
d="M1268 1085l-191 -1085h-163l33 186h-12q-42 -96 -131 -151t-204 -55q-155 0 -249 95t-94 250q0 52 17 149l106 611h170l-107 -609q-12 -63 -12 -111q0 -104 62.5 -166.5t168.5 -62.5q121 0 209.5 83.5t113.5 224.5l113 641h170zM721 1425q-45 0 -66 -37t-23 -120h-140
q5 138 66 214.5t166 76.5q44 0 82 -16.5t64 -39.5t48.5 -46t46 -39.5t46.5 -16.5q45 0 66.5 36.5t22.5 118.5h140q-4 -136 -66 -213t-166 -77q-44 0 -82 16.5t-63.5 40t-48 46.5t-46 39.5t-47.5 16.5z" />
    <glyph glyph-name="Umacron" unicode="&#x16a;" 
d="M229 563l155 880h176l-156 -885q-11 -60 -11 -108q0 -143 84 -228t222 -85q135 0 230.5 90.5t123.5 246.5l171 969h177l-176 -991q-40 -228 -180.5 -355t-350.5 -127q-216 0 -347 126.5t-131 336.5q0 56 13 130zM1252 1695h-660l24 139h660z" />
    <glyph glyph-name="umacron" unicode="&#x16b;" 
d="M1268 1085l-191 -1085h-163l33 186h-12q-42 -96 -131 -151t-204 -55q-155 0 -249 95t-94 250q0 52 17 149l106 611h170l-107 -609q-12 -63 -12 -111q0 -104 62.5 -166.5t168.5 -62.5q121 0 209.5 83.5t113.5 224.5l113 641h170zM1190 1370h-660l24 139h660z" />
    <glyph glyph-name="Ubreve" unicode="&#x16c;" 
d="M229 563l155 880h176l-156 -885q-11 -60 -11 -108q0 -143 84 -228t222 -85q135 0 230.5 90.5t123.5 246.5l171 969h177l-176 -991q-40 -228 -180.5 -355t-350.5 -127q-216 0 -347 126.5t-131 336.5q0 56 13 130zM930 1609q-151 0 -238.5 89t-64.5 220h132
q-11 -86 38 -138t141 -52q90 0 157 53t82 137h141q-25 -139 -131.5 -224t-256.5 -85z" />
    <glyph glyph-name="ubreve" unicode="&#x16d;" 
d="M1268 1085l-191 -1085h-163l33 186h-12q-42 -96 -131 -151t-204 -55q-155 0 -249 95t-94 250q0 52 17 149l106 611h170l-107 -609q-12 -63 -12 -111q0 -104 62.5 -166.5t168.5 -62.5q121 0 209.5 83.5t113.5 224.5l113 641h170zM861 1249q-154 0 -247 97.5t-68 232.5h139
q-12 -89 41 -144t150 -55q91 0 156.5 55.5t78.5 143.5h143q-23 -149 -130 -239.5t-263 -90.5z" />
    <glyph glyph-name="Uring" unicode="&#x16e;" 
d="M229 563l155 880h176l-156 -885q-11 -60 -11 -108q0 -143 84 -228t222 -85q135 0 230.5 90.5t123.5 246.5l171 969h177l-176 -991q-40 -228 -180.5 -355t-350.5 -127q-216 0 -347 126.5t-131 336.5q0 56 13 130zM917 1559q-82 0 -138 56t-56 136q0 81 56 136.5t138 55.5
q81 0 136.5 -55.5t55.5 -136.5q0 -80 -55.5 -136t-136.5 -56zM916 1650q44 0 73.5 28.5t29.5 72.5t-29.5 72.5t-73.5 28.5t-73 -28.5t-29 -72.5t29 -72.5t73 -28.5z" />
    <glyph glyph-name="uring" unicode="&#x16f;" 
d="M1268 1085l-191 -1085h-163l33 186h-12q-42 -96 -131 -151t-204 -55q-155 0 -249 95t-94 250q0 52 17 149l106 611h170l-107 -609q-12 -63 -12 -111q0 -104 62.5 -166.5t168.5 -62.5q121 0 209.5 83.5t113.5 224.5l113 641h170zM879 1360q51 0 84.5 35t33.5 87t-33.5 87
t-84.5 35q-50 0 -84 -35t-34 -87t34 -87t84 -35zM879 1251q-93 0 -159 68t-66 163t66 163t159 68q94 0 160 -68t66 -163t-66 -163t-160 -68z" />
    <glyph glyph-name="Uhungarumlaut" unicode="&#x170;" 
d="M229 563l155 880h176l-156 -885q-11 -60 -11 -108q0 -143 84 -228t222 -85q135 0 230.5 90.5t123.5 246.5l171 969h177l-176 -991q-40 -228 -180.5 -355t-350.5 -127q-216 0 -347 126.5t-131 336.5q0 56 13 130zM996 1612l305 304h195l-324 -304h-176zM617 1612l305 304
h195l-323 -304h-177z" />
    <glyph glyph-name="uhungarumlaut" unicode="&#x171;" 
d="M1268 1085l-191 -1085h-163l33 186h-12q-42 -96 -131 -151t-204 -55q-155 0 -249 95t-94 250q0 52 17 149l106 611h170l-107 -609q-12 -63 -12 -111q0 -104 62.5 -166.5t168.5 -62.5q121 0 209.5 83.5t113.5 224.5l113 641h170zM951 1296l286 339h202l-308 -339h-180z
M562 1296l286 339h203l-309 -339h-180z" />
    <glyph glyph-name="Uogonek" unicode="&#x172;" 
d="M890 -423q-97 0 -161 52.5t-64 131.5q0 126 141 224l1 12q-50 -25 -115 -25q-215 -2 -345.5 125t-130.5 336q0 72 13 130l156 880h175l-156 -885q-11 -47 -11 -108q0 -142 83.5 -227.5t222.5 -85.5q133 0 229.5 92t124.5 245l172 969h175l-175 -991q-45 -255 -205 -384
q-117 -99 -156.5 -152t-39.5 -112q0 -44 34 -71t91 -27q42 0 58 4l-21 -121q-37 -12 -96 -12z" />
    <glyph glyph-name="uogonek" unicode="&#x173;" 
d="M1268 1085l-191 -1085q-113 -45 -163.5 -91t-50.5 -102q0 -45 33.5 -73.5t87.5 -28.5q22 0 41 5l-21 -122q-30 -13 -86 -13q-91 0 -152 54t-61 135q0 79 47.5 137t165.5 123l29 162h-12q-42 -96 -131 -151t-204 -55q-155 0 -249 95t-94 250q0 52 17 149l106 611h170
l-107 -609q-12 -63 -12 -111q0 -104 62.5 -166.5t168.5 -62.5q121 0 209.5 83.5t113.5 224.5l113 641h170z" />
    <glyph glyph-name="Wcircumflex" unicode="&#x174;" 
d="M803 895h-11l-368 -895h-178l9 1443h156l-7 -571l-11 -624h10l352 865h153l48 -865h11l190 604l196 591h167l-494 -1443h-174zM1055 1921l232 -309h-170l-144 199h-13l-216 -199h-190l341 309h160z" />
    <glyph glyph-name="wcircumflex" unicode="&#x175;" 
d="M1410 1085l-424 -1085h-164l-31 846h-12l-336 -846h-163l-42 1085h155l4 -870h18l327 869h159l23 -869h18l299 870h169zM803 1623h200l214 -341h-186l-133 226h-15l-212 -226h-202z" />
    <glyph glyph-name="Ycircumflex" unicode="&#x176;" 
d="M721 0h-175l106 598l-351 845h185l270 -663h12l493 663h205l-639 -844zM1041 1921l233 -309h-170l-144 199h-13l-216 -199h-190l341 309h159z" />
    <glyph glyph-name="ycircumflex" unicode="&#x177;" 
d="M277 -386q-61 0 -80 3l25 149q18 -4 67 -4q73 0 119 36t100 136l30 59l-208 1092h176l146 -908h13l461 908h190l-607 -1125q-111 -206 -198 -276t-234 -70zM794 1623h200l214 -341h-186l-133 226h-15l-212 -226h-202z" />
    <glyph glyph-name="Ydieresis" unicode="&#x178;" 
d="M721 0h-175l106 598l-351 845h185l270 -663h12l493 663h205l-639 -844zM730 1651q-47 0 -82 36t-35 85t35 85t82 36t82 -36t35 -85t-35 -85t-82 -36zM1133 1651q-47 0 -82 36t-35 85t35 85t82 36t82.5 -36t35.5 -85t-35.5 -85t-82.5 -36z" />
    <glyph glyph-name="Zacute" unicode="&#x179;" 
d="M137 0l22 137l960 1132l1 12h-730l26 162h956l-23 -140l-960 -1129l-2 -12h772l-27 -162h-995zM770 1612l311 304h215l-332 -304h-194z" />
    <glyph glyph-name="zacute" unicode="&#x17a;" 
d="M923 1296h-187l298 339h212zM211 0l21 120l769 806l2 13h-623l25 146h837l-21 -127l-763 -799l-2 -13h624l-25 -146h-844z" />
    <glyph glyph-name="Zdotaccent" unicode="&#x17b;" 
d="M137 0l22 137l960 1132l1 12h-730l26 162h956l-23 -140l-960 -1129l-2 -12h772l-27 -162h-995zM946 1640q-50 0 -88 38.5t-38 90.5t37.5 90t88.5 38t89 -38t38 -90t-38 -90.5t-89 -38.5z" />
    <glyph glyph-name="zdotaccent" unicode="&#x17c;" 
d="M211 0l21 120l769 806l2 13h-623l25 146h837l-21 -127l-763 -799l-2 -13h624l-25 -146h-844zM884 1307q-51 0 -88.5 38.5t-37.5 90.5t37.5 90t88.5 38t88.5 -38t37.5 -90t-37.5 -90.5t-88.5 -38.5z" />
    <glyph glyph-name="Zcaron" unicode="&#x17d;" 
d="M137 0l22 137l960 1132l1 12h-730l26 162h956l-23 -140l-960 -1129l-2 -12h772l-27 -162h-995zM836 1610l-233 309h170l145 -200h13l216 200h189l-340 -309h-160z" />
    <glyph glyph-name="zcaron" unicode="&#x17e;" 
d="M211 0l21 120l769 806l2 13h-623l25 146h837l-21 -127l-763 -799l-2 -13h624l-25 -146h-844zM956 1296h-200l-214 342h186l132 -227h16l211 227h203z" />
    <glyph glyph-name="florin" unicode="&#x192;" 
d="M1432 1458l-27 -160q-63 20 -173 20q-103 0 -165.5 -51t-97.5 -162l-72 -231h360l-25 -148h-382l-124 -396q-55 -185 -160.5 -270.5t-278.5 -85.5q-101 0 -180 25l27 159q66 -21 157 -21q101 0 165.5 52t98.5 161l116 376h-320l25 148h341l80 258q56 181 164 265.5
t286 84.5q104 0 185 -24z" />
    <glyph glyph-name="Ohorn" unicode="&#x1a0;" 
d="M689 -30q-216 0 -350 143t-134 375q0 129 16 205l41 232q46 259 194 403.5t366 144.5q79 0 148 -20t127.5 -40t112.5 -20q130 0 157 147l24 136h148q-40 -212 -47 -230q-31 -93 -99 -140t-160 -40h-10l-1 -3v-3q88 -132 88 -316q0 -108 -27 -248l-30 -172
q-48 -271 -192.5 -412.5t-371.5 -141.5zM706 137q146 0 241.5 107.5t132.5 314.5l42 234q11 65 11 150q0 165 -88.5 264t-234.5 99q-144 0 -239.5 -104.5t-132.5 -304.5l-40 -225q-16 -100 -16 -165q0 -169 88 -269.5t236 -100.5z" />
    <glyph glyph-name="ohorn" unicode="&#x1a1;" 
d="M759 954q-121 0 -202.5 -78.5t-106.5 -218.5l-24 -137q-9 -61 -9 -102q0 -130 77.5 -208.5t205.5 -78.5q123 0 204 79.5t108 226.5l23 141q6 42 6 92q0 128 -77.5 206t-204.5 78zM686 -19q-195 0 -315 118.5t-120 310.5q0 51 11 126l27 148q34 195 160.5 307.5
t312.5 112.5q62 0 161 -20t167 -20q64 0 92.5 21t37.5 74l23 135h148l-33 -185q-13 -78 -63 -121.5t-125 -43.5h-60l-2 -8q48 -37 74 -107t26 -160q0 -53 -10 -116l-27 -151q-36 -202 -162.5 -311.5t-322.5 -109.5z" />
    <glyph glyph-name="Uhorn" unicode="&#x1af;" 
d="M689 -30q-214 0 -343 125t-129 333q0 52 13 129l156 886h176l-158 -894q-11 -68 -11 -106q0 -139 82.5 -222.5t219.5 -83.5q132 0 226 89t122 240l173 977h158q122 0 148 143l18 112h147l-21 -127q-45 -257 -261 -257h-35l-154 -867q-40 -225 -179 -351t-348 -126z" />
    <glyph glyph-name="uhorn" unicode="&#x1b0;" 
d="M928 182q-41 -94 -127 -148t-201 -54q-155 0 -249 95t-94 250q0 52 17 149l107 611h168l-108 -617q-11 -66 -11 -109q0 -102 61.5 -163t165.5 -61q119 0 206 82t112 220l115 648h155q94 0 111 89l26 147h149l-32 -182q-15 -87 -76.5 -135t-151.5 -48h-35l-169 -956h-160
l32 182h-11z" />
    <glyph glyph-name="uni01C4" unicode="&#x1c4;" 
d="M1307 1581h-158l-222 303h167l139 -200h14l210 200h179zM659 0l21 129l604 1155l1 14h-371l24 145h537l-21 -130l-600 -1154v-14h401l-24 -145h-572zM303 1443h164q179 0 260.5 -92t81.5 -294q0 -69 -11 -166q-42 -434 -191.5 -662.5t-387.5 -228.5h-170zM430 1304
l-207 -1165h7q157 0 264.5 193t147.5 556q13 107 13 175q0 131 -50 186t-168 55h-7z" />
    <glyph glyph-name="uni01C5" unicode="&#x1c5;" 
d="M1303 1296h-175l-149 341h152l88 -242h17l172 242h164zM716 0l21 120l509 817l2 14h-353l23 134h510l-21 -127l-502 -810l-2 -14h361l-23 -134h-525zM303 1443h164q179 0 260.5 -92t81.5 -294q0 -67 -11 -166q-42 -434 -191.5 -662.5t-387.5 -228.5h-170zM430 1304
l-207 -1165h7q157 0 264.5 193t147.5 556q13 107 13 175q0 131 -50 186t-168 55h-7z" />
    <glyph glyph-name="uni01C6" unicode="&#x1c6;" 
d="M287 628l-27 -171q-28 -169 -2.5 -249t107.5 -80q88 0 140 76.5t83 252.5l30 171q31 176 6.5 252.5t-111.5 76.5q-90 0 -143.5 -78t-82.5 -251zM540 166h-18q-47 -99 -97 -141.5t-118 -42.5q-278 0 -205 447l36 228q37 228 120 337t218 109q89 0 131 -45t42 -141h19
l105 594h148l-267 -1511h-143zM728 0l21 120l498 817l2 14h-345l23 134h502l-22 -127l-495 -810l-2 -14h354l-24 -134h-512zM1308 1296h-174l-141 341h153l79 -242h17l164 242h163z" />
    <glyph glyph-name="uni01C7" unicode="&#x1c7;" 
d="M1447 1443l-27 -154l-160 -908q-38 -210 -127 -310.5t-237 -100.5q-125 0 -194 72.5t-69 204.5q0 42 9 96h155q-7 -51 -7 -71q0 -144 119 -144q79 0 123.5 60.5t71.5 206.5l158 894h-332l25 154h492zM499 1443l-228 -1289h329l-26 -154h-495l254 1443h166z" />
    <glyph glyph-name="uni01C8" unicode="&#x1c8;" 
d="M1268 1085l-191 -1079q-30 -173 -147.5 -254t-335.5 -81q-176 0 -259 8l26 150q72 -8 256 -8q141 0 210 47t89 156l187 1061h165zM697 154l-25 -154h-483l254 1443h161l-228 -1289h321zM1225 1351q-60 0 -100.5 40t-40.5 100q0 59 40.5 99t100.5 40t100.5 -40t40.5 -99
q0 -60 -40.5 -100t-100.5 -40z" />
    <glyph glyph-name="uni01C9" unicode="&#x1c9;" 
d="M506 0h-165l242 1362h-352l26 149h516zM1245 1085l-191 -1079q-29 -173 -147 -254t-336 -81q-176 0 -259 8l26 150q74 -8 256 -8q141 0 210 47t89 156l187 1061h165zM1203 1351q-60 0 -100.5 40t-40.5 100q0 59 40.5 99t100.5 40t100.5 -40t40.5 -99q0 -60 -40.5 -100
t-100.5 -40z" />
    <glyph glyph-name="uni01CA" unicode="&#x1ca;" 
d="M940 -30q-123 0 -172 96.5t-18 276.5h139q-39 -223 72 -223q61 0 92 53t59 207l187 1063h144l-187 -1062q-38 -216 -113 -313.5t-203 -97.5zM202 0h-130l254 1443h158l63 -1090h14l20 210l159 880h130l-254 -1443h-155l-65 1092h-15l-19 -204z" />
    <glyph glyph-name="uni01CB" unicode="&#x1cb;" 
d="M217 0h-138l254 1443h173l110 -1090h18l195 1090h138l-254 -1443h-171l-112 1092h-18zM1268 1085l-190 -1079q-31 -175 -146.5 -255t-335.5 -80q-176 0 -259 8l25 146q74 -8 262 -8q144 0 211.5 46.5t87.5 160.5l187 1061h158zM1248 1357q-59 0 -99 39t-40 97t40 97.5
t99 39.5t99 -39.5t40 -97.5t-40 -97t-99 -39z" />
    <glyph glyph-name="uni01CC" unicode="&#x1cc;" 
d="M146 0l191 1085h154l-33 -191h14q62 211 223 211q102 0 147.5 -74t22.5 -203l-145 -828h-161l134 757q33 192 -77 192q-142 0 -193 -287l-116 -662h-161zM1269 1085l-190 -1079q-30 -173 -148 -254t-336 -81q-190 0 -258 8l26 150q61 -8 260 -8q142 0 210.5 47t87.5 156
l187 1061h161zM1248 1351q-60 0 -100.5 40t-40.5 100q0 59 40.5 99t100.5 40t100.5 -40t40.5 -99q0 -60 -40.5 -100t-100.5 -40z" />
    <glyph glyph-name="Acaron" unicode="&#x1cd;" 
d="M997 1610h-160l-233 309h170l145 -200h13l216 200h189zM531 565h410l-83 666h-5zM793 1443h188l207 -1443h-176l-52 414h-503l-200 -414h-184z" />
    <glyph glyph-name="acaron" unicode="&#x1ce;" 
d="M566 -18q-144 0 -235 84.5t-92 220.5q-1 169 119 260.5t345 93.5l270 2l10 55q8 44 8 72q0 83 -60.5 132.5t-161.5 49.5q-88 0 -156 -40.5t-89 -105.5h-170q26 130 145.5 211.5t285.5 81.5q170 0 273 -83.5t103 -220.5q0 -57 -21 -169l-110 -626h-162l27 156h-10
q-41 -80 -126.5 -127t-192.5 -47zM625 131q110 0 196.5 71.5t105.5 180.5l24 128l-249 -1q-137 -1 -211.5 -52.5t-75.5 -146.5q-1 -82 56 -131t154 -49zM960 1296h-201l-213 342h186l132 -227h15l212 227h202z" />
    <glyph glyph-name="Icaron" unicode="&#x1cf;" 
d="M1013 0h-760l26 157h292l202 1129h-292l26 157h760l-25 -157h-293l-202 -1129h293zM837 1610l-232 309h170l144 -200h13l216 200h189l-340 -309h-160z" />
    <glyph glyph-name="icaron" unicode="&#x1d0;" 
d="M1107 0h-899l24 141h372l143 803h-368l23 141h537l-168 -944h360zM988 1296h-201l-213 342h186l132 -227h15l212 227h202z" />
    <glyph glyph-name="Ocaron" unicode="&#x1d1;" 
d="M1258 524q-49 -271 -193.5 -412.5t-373.5 -141.5q-217 0 -351.5 143.5t-134.5 374.5q0 131 15 205l42 232q45 258 192.5 403t365.5 145q225 0 360 -144.5t135 -384.5q0 -88 -14 -188zM705 137q147 0 244.5 108.5t134.5 313.5l42 234q12 72 12 150q0 164 -89 263.5
t-237 99.5q-146 0 -242.5 -104t-131.5 -305l-41 -225q-14 -84 -14 -164q0 -172 86.5 -271.5t235.5 -99.5zM837 1610l-233 309h170l145 -200h13l216 200h189l-340 -309h-160z" />
    <glyph glyph-name="ocaron" unicode="&#x1d2;" 
d="M686 -19q-195 0 -315 119t-120 310q0 65 10 124l26 150q34 194 162 307t313 113q203 0 324.5 -119.5t121.5 -315.5q0 -52 -10 -116l-27 -151q-36 -202 -162.5 -311.5t-322.5 -109.5zM759 954q-121 0 -202.5 -78.5t-106.5 -218.5l-24 -137q-9 -58 -9 -102
q0 -130 77.5 -208.5t205.5 -78.5q123 0 203.5 79t106.5 227l25 141q6 45 6 92q0 128 -77.5 206t-204.5 78zM929 1296h-200l-214 342h186l133 -227h15l211 227h203z" />
    <glyph glyph-name="Ucaron" unicode="&#x1d3;" 
d="M229 563l155 880h176l-156 -885q-11 -60 -11 -108q0 -143 84 -228t222 -85q135 0 230.5 90.5t123.5 246.5l171 969h177l-176 -991q-40 -228 -180.5 -355t-350.5 -127q-216 0 -347 126.5t-131 336.5q0 56 13 130zM842 1610l-232 309h170l144 -200h13l216 200h190
l-341 -309h-160z" />
    <glyph glyph-name="ucaron" unicode="&#x1d4;" 
d="M1268 1085l-191 -1085h-163l33 186h-12q-42 -96 -131 -151t-204 -55q-155 0 -249 95t-94 250q0 52 17 149l106 611h170l-107 -609q-12 -63 -12 -111q0 -104 62.5 -166.5t168.5 -62.5q121 0 209.5 83.5t113.5 224.5l113 641h170zM941 1296h-200l-214 342h186l133 -227h15
l212 227h202z" />
    <glyph glyph-name="Udieresismacron" unicode="&#x1d5;" 
d="M229 563l155 880h176l-156 -885q-11 -60 -11 -108q0 -143 84 -228t222 -85q135 0 230.5 90.5t123.5 246.5l171 969h177l-176 -991q-40 -228 -180.5 -355t-350.5 -127q-216 0 -347 126.5t-131 336.5q0 56 13 130zM1126 1786q44 0 75 -32t31 -78t-31 -78t-75 -32t-75.5 32
t-31.5 78t31.5 78t75.5 32zM1303 2051l-20 -120h-663l20 120h663zM737 1786q44 0 75 -32t31 -78t-31 -78t-75 -32t-75 32t-31 78t31 78t75 32z" />
    <glyph glyph-name="udieresismacron" unicode="&#x1d6;" 
d="M1268 1085l-191 -1085h-163l33 186h-12q-42 -96 -131 -151t-204 -55q-155 0 -249 95t-94 250q0 52 17 149l106 611h170l-107 -609q-12 -63 -12 -111q0 -104 62.5 -166.5t168.5 -62.5q121 0 209.5 83.5t113.5 224.5l113 641h170zM1072 1554q47 0 82 -36t35 -85t-35 -85
t-82 -36t-82 36t-35 85t35 85t82 36zM669 1554q47 0 82 -36t35 -85t-35 -85t-82 -36t-82 36t-35 85t35 85t82 36zM617 1868h659l-24 -139h-659z" />
    <glyph glyph-name="Udieresisacute" unicode="&#x1d7;" 
d="M229 563l155 880h176l-156 -885q-11 -60 -11 -108q0 -143 84 -228t222 -85q135 0 230.5 90.5t123.5 246.5l171 969h177l-176 -991q-40 -228 -180.5 -355t-350.5 -127q-216 0 -347 126.5t-131 336.5q0 56 13 130zM823 1859l247 224h204l-272 -224h-179zM736 1566
q-44 0 -75.5 32t-31.5 78t31.5 78.5t75.5 32.5t75 -32.5t31 -78.5t-31 -78t-75 -32zM1125 1566q-45 0 -76 32t-31 78q0 47 31 79t76 32q44 0 75 -32.5t31 -78.5t-31 -78t-75 -32z" />
    <glyph glyph-name="udieresisacute" unicode="&#x1d8;" 
d="M1268 1085l-191 -1085h-163l33 186h-12q-42 -96 -131 -151t-204 -55q-155 0 -249 95t-94 250q0 52 17 149l106 611h170l-107 -609q-12 -63 -12 -111q0 -104 62.5 -166.5t168.5 -62.5q121 0 209.5 83.5t113.5 224.5l113 641h170zM800 1662l264 308h196l-290 -308h-170z
M669 1311q-47 0 -82 36.5t-35 85.5t35 85t82 36t82 -36t35 -85t-35 -85.5t-82 -36.5zM1072 1311q-47 0 -82 36.5t-35 85.5t35 85t82 36t82 -36t35 -85t-35 -85.5t-82 -36.5z" />
    <glyph glyph-name="Udieresiscaron" unicode="&#x1d9;" 
d="M229 563l155 880h176l-156 -885q-11 -60 -11 -108q0 -143 84 -228t222 -85q135 0 230.5 90.5t123.5 246.5l171 969h177l-176 -991q-40 -228 -180.5 -355t-350.5 -127q-216 0 -347 126.5t-131 336.5q0 56 13 130zM1024 1854h-175l-240 246h183l145 -153h14l197 153h200z
M736 1566q-44 0 -75 32t-31 78t31 78.5t75 32.5t75.5 -32.5t31.5 -78.5t-31.5 -78t-75.5 -32zM1125 1566q-44 0 -75.5 32t-31.5 78t31.5 78.5t75.5 32.5t75 -32.5t31 -78.5t-31 -78t-75 -32z" />
    <glyph glyph-name="udieresiscaron" unicode="&#x1da;" 
d="M1268 1085l-191 -1085h-163l33 186h-12q-42 -96 -131 -151t-204 -55q-155 0 -249 95t-94 250q0 52 17 149l106 611h170l-107 -609q-12 -63 -12 -111q0 -104 62.5 -166.5t168.5 -62.5q121 0 209.5 83.5t113.5 224.5l113 641h170zM1001 1662h-181l-218 317h167l144 -215h13
l220 215h184zM669 1311q-47 0 -82 36.5t-35 85.5t35 85t82 36t82 -36t35 -85t-35 -85.5t-82 -36.5zM1072 1311q-47 0 -82 36.5t-35 85.5t35 85t82 36t82 -36t35 -85t-35 -85.5t-82 -36.5z" />
    <glyph glyph-name="Udieresisgrave" unicode="&#x1db;" 
d="M736 1566q-44 0 -75 32t-31 78t31 78.5t75 32.5t75.5 -32.5t31.5 -78.5t-31.5 -78t-75.5 -32zM1125 1566q-44 0 -75 32t-31 78t31 78.5t75 32.5t75 -32.5t31 -78.5t-31 -78t-75 -32zM872 2083l169 -224h-174l-194 224h199zM229 563l155 880h176l-156 -885
q-11 -60 -11 -108q0 -143 84 -228t222 -85q135 0 230.5 90.5t123.5 246.5l171 969h177l-176 -991q-40 -228 -180.5 -355t-350.5 -127q-216 0 -347 126.5t-131 336.5q0 56 13 130z" />
    <glyph glyph-name="udieresisgrave" unicode="&#x1dc;" 
d="M669 1311q-47 0 -82 36.5t-35 85.5t35 85t82 36t82 -36t35 -85t-35 -85.5t-82 -36.5zM1073 1311q-47 0 -82.5 36.5t-35.5 85.5t35.5 85t82.5 36t82 -36t35 -85t-35 -85.5t-82 -36.5zM677 1970l264 -308h-170l-290 308h196zM1268 1085l-191 -1085h-163l33 186h-12
q-42 -96 -131 -151t-204 -55q-155 0 -249 95t-94 250q0 52 17 149l106 611h170l-107 -609q-12 -63 -12 -111q0 -104 62.5 -166.5t168.5 -62.5q121 0 209.5 83.5t113.5 224.5l113 641h170z" />
    <glyph glyph-name="Adieresismacron" unicode="&#x1de;" 
d="M531 565h410l-83 666h-5zM793 1443h188l207 -1443h-176l-52 414h-503l-200 -414h-184zM838 1676q0 -46 -31 -78t-75 -32t-75.5 32t-31.5 78t31.5 78t75.5 32t75 -32t31 -78zM1120 1786q45 0 76 -32t31 -78t-31 -78t-76 -32q-44 0 -75 32t-31 78t31 78t75 32zM635 2051
h663l-20 -120h-663z" />
    <glyph glyph-name="adieresismacron" unicode="&#x1df;" 
d="M566 -18q-144 0 -235 84.5t-92 220.5q-1 169 119 260.5t345 93.5l270 2l10 55q8 44 8 72q0 83 -60.5 132.5t-161.5 49.5q-88 0 -156 -40.5t-89 -105.5h-170q26 130 145.5 211.5t285.5 81.5q170 0 273 -83.5t103 -220.5q0 -57 -21 -169l-110 -626h-162l27 156h-10
q-41 -80 -126.5 -127t-192.5 -47zM625 131q110 0 196.5 71.5t105.5 180.5l24 128l-249 -1q-137 -1 -211.5 -52.5t-75.5 -146.5q-1 -82 56 -131t154 -49zM1090 1554q47 0 82.5 -36t35.5 -85t-35.5 -85t-82.5 -36t-82 36t-35 85t35 85t82 36zM687 1554q47 0 82 -36t35 -85
t-35 -85t-82 -36t-82 36t-35 85t35 85t82 36zM635 1868h660l-24 -139h-660z" />
    <glyph glyph-name="Adotmacron" unicode="&#x1e0;" 
d="M531 565h410l-83 666h-5zM793 1443h188l207 -1443h-176l-52 414h-503l-200 -414h-184zM1035 1693q0 -49 -34 -84t-82 -35t-81.5 34.5t-33.5 84.5q0 49 33.5 83.5t81.5 34.5t82 -34.5t34 -83.5zM649 2051h663l-21 -120h-663z" />
    <glyph glyph-name="adotmacron" unicode="&#x1e1;" 
d="M566 -18q-144 0 -235 84.5t-92 220.5q-1 169 119 260.5t345 93.5l270 2l10 55q8 44 8 72q0 83 -60.5 132.5t-161.5 49.5q-88 0 -156 -40.5t-89 -105.5h-170q26 130 145.5 211.5t285.5 81.5q170 0 273 -83.5t103 -220.5q0 -57 -21 -169l-110 -626h-162l27 156h-10
q-41 -80 -126.5 -127t-192.5 -47zM625 131q110 0 196.5 71.5t105.5 180.5l24 128l-249 -1q-137 -1 -211.5 -52.5t-75.5 -146.5q-1 -82 56 -131t154 -49zM1271 1730h-660l24 139h660zM887 1292q-51 0 -88.5 38t-37.5 90t37.5 90.5t88.5 38.5t88.5 -38.5t37.5 -90.5t-37.5 -90
t-88.5 -38z" />
    <glyph glyph-name="AEmacron" unicode="&#x1e2;" 
d="M1485 1834l-24 -139h-660l24 139h660zM747 589l122 687h-92l-318 -687h288zM1461 1282h-430l-86 -476h393l-26 -157h-394l-87 -487h429l-27 -162h-591l77 435h-332l-201 -435h-182l686 1443h797z" />
    <glyph glyph-name="aemacron" unicode="&#x1e3;" 
d="M1273 289q-22 -133 -116.5 -219.5t-215.5 -86.5q-104 0 -175 61.5t-86 164.5h-4q-41 -105 -122.5 -165.5t-183.5 -60.5q-112 0 -184.5 79t-72.5 199q0 153 91.5 245.5t256.5 105.5l200 17l14 79q5 38 5 67q0 81 -39.5 127t-109.5 46q-61 0 -106.5 -38t-60.5 -102h-144
q21 130 110 210.5t212 80.5q184 0 238 -166h4q44 77 118 121t159 44q139 0 214.5 -115.5t58.5 -301.5q0 -20 -12 -102q-6 -48 -13 -83h-523q-13 -67 -13 -134q0 -103 47.5 -164.5t126.5 -61.5q66 0 118 43t65 110h143zM1188 629q10 70 10 115q0 94 -43 149t-117 55
q-79 0 -137.5 -68.5t-81.5 -190.5q0 -2 -5 -30t-6 -30h380zM400 137q77 0 138 66.5t79 170.5l22 123l-184 -15q-86 -7 -140 -60.5t-54 -133.5q0 -66 39 -108.5t100 -42.5zM1181 1370h-660l24 139h660z" />
    <glyph glyph-name="Gcaron" unicode="&#x1e6;" 
d="M1221 395q-34 -197 -175 -311.5t-347 -114.5q-224 0 -356.5 138.5t-132.5 372.5q0 84 15 169l47 263q48 268 200 414.5t383 146.5q207 0 336 -118.5t129 -308.5q0 -17 -4 -63h-173q2 34 2 46q0 123 -84 199.5t-220 76.5q-153 0 -255 -107.5t-139 -306.5l-44 -252
q-15 -85 -15 -155q0 -162 86.5 -255.5t237.5 -93.5q135 0 225.5 75.5t113.5 208.5l30 164h-336l26 151h510zM799 1610l-233 309h170l144 -200h13l216 200h190l-341 -309h-159z" />
    <glyph glyph-name="gcaron" unicode="&#x1e7;" 
d="M883 1296h-201l-214 342h187l132 -227h15l212 227h202zM1261 1085l-189 -1078q-36 -204 -162.5 -309t-337.5 -105q-181 0 -299 88t-118 224v18h168v-13q2 -75 76.5 -125t186.5 -50q267 0 320 284l32 182h-12q-37 -89 -125.5 -143t-199.5 -54q-164 0 -270.5 114.5
t-106.5 290.5q0 74 13 148l21 122q34 196 154 310t293 114q136 0 224 -62t112 -175h12l38 219h170zM975 448l22 128q9 51 9 90q0 125 -77 203.5t-199 78.5q-116 0 -198 -80t-107 -218l-17 -95q-11 -64 -11 -111q0 -132 72.5 -208.5t197.5 -76.5q114 0 199.5 80t108.5 209z
" />
    <glyph glyph-name="Kcaron" unicode="&#x1e8;" 
d="M821 801l415 -801h-201l-354 685l-204 -187l-89 -498h-172l254 1443h172l-128 -709h11l737 709h214zM867 1610l-232 309h170l144 -200h13l216 200h190l-341 -309h-160z" />
    <glyph glyph-name="kcaron" unicode="&#x1e9;" 
d="M517 434l-78 -434h-170l267 1511h170l-153 -865h11l549 439h232l-530 -431l381 -654h-194l-325 556zM572 1678l-233 309h170l144 -199h13l216 199h190l-341 -309h-159z" />
    <glyph glyph-name="Oogonek" unicode="&#x1ea;" 
d="M885 -423q-96 0 -159.5 53t-63.5 133q0 65 35 119.5t116 111.5l-4 11q-56 -33 -136 -33q-206 -1 -337 143t-131 373q0 141 15 205l42 232q45 258 192.5 403t365.5 145q225 0 360 -144.5t135 -384.5q0 -94 -14 -188l-43 -232q-27 -154 -84 -262.5t-153 -189.5
q-118 -101 -159 -155t-41 -110q0 -44 32.5 -72.5t84.5 -28.5q45 0 66 4l-22 -121q-34 -12 -97 -12zM705 137q149 0 245.5 107.5t133.5 314.5l42 234q12 72 12 150q0 164 -89 263.5t-237 99.5q-147 0 -242.5 -104.5t-131.5 -304.5l-40 -225q-15 -89 -15 -164
q0 -172 86.5 -271.5t235.5 -99.5z" />
    <glyph glyph-name="oogonek" unicode="&#x1eb;" 
d="M851 -423q-94 0 -157.5 56t-63.5 138q0 68 39.5 122t124.5 104l-4 12q-55 -26 -106 -26q-193 -1 -313 117t-120 310q0 74 10 124l27 150q35 195 161.5 307.5t312.5 112.5q202 0 324 -119t122 -316q0 -53 -10 -116l-27 -151q-42 -224 -188 -339q-113 -90 -153 -141.5
t-40 -106.5q0 -48 35.5 -79t90.5 -31q40 0 56 4l-20 -119q-55 -13 -101 -13zM759 954q-121 0 -202.5 -78.5t-106.5 -218.5l-24 -137q-9 -75 -9 -102q0 -130 77.5 -208.5t205.5 -78.5q122 0 205 81t107 225l23 141q6 39 6 92q0 128 -77.5 206t-204.5 78z" />
    <glyph glyph-name="Oogonekmacron" unicode="&#x1ec;" 
d="M1262 1695h-660l24 139h660zM885 -423q-96 0 -159.5 53t-63.5 133q0 65 35 119.5t116 111.5l-4 11q-56 -33 -136 -33q-206 -1 -337 143t-131 373q0 141 15 205l42 232q45 258 192.5 403t365.5 145q225 0 360 -144.5t135 -384.5q0 -94 -14 -188l-43 -232
q-27 -154 -84 -262.5t-153 -189.5q-118 -101 -159 -155t-41 -110q0 -44 32.5 -72.5t84.5 -28.5q45 0 66 4l-22 -121q-34 -12 -97 -12zM705 137q149 0 245.5 107.5t133.5 314.5l42 234q12 72 12 150q0 164 -89 263.5t-237 99.5q-147 0 -242.5 -104.5t-131.5 -304.5l-40 -225
q-15 -89 -15 -164q0 -172 86.5 -271.5t235.5 -99.5z" />
    <glyph glyph-name="oogonekmacron" unicode="&#x1ed;" 
d="M1188 1370h-660l24 139h660zM851 -423q-94 0 -157.5 56t-63.5 138q0 68 39.5 122t124.5 104l-4 12q-55 -26 -106 -26q-193 -1 -313 117t-120 310q0 74 10 124l27 150q35 195 161.5 307.5t312.5 112.5q202 0 324 -119t122 -316q0 -53 -10 -116l-27 -151
q-42 -224 -188 -339q-113 -90 -153 -141.5t-40 -106.5q0 -48 35.5 -79t90.5 -31q40 0 56 4l-20 -119q-55 -13 -101 -13zM759 954q-121 0 -202.5 -78.5t-106.5 -218.5l-24 -137q-9 -75 -9 -102q0 -130 77.5 -208.5t205.5 -78.5q122 0 205 81t107 225l23 141q6 39 6 92
q0 128 -77.5 206t-204.5 78z" />
    <glyph glyph-name="uni01F1" unicode="&#x1f1;" 
d="M659 0l21 129l604 1155l1 14h-371l24 145h537l-21 -130l-600 -1154v-14h401l-24 -145h-572zM303 1443h164q179 0 260.5 -92t81.5 -294q0 -69 -11 -166q-42 -434 -191.5 -662.5t-387.5 -228.5h-170zM430 1304l-207 -1165h7q157 0 264.5 193t147.5 556q13 107 13 175
q0 131 -50 186t-168 55h-7z" />
    <glyph glyph-name="uni01F2" unicode="&#x1f2;" 
d="M716 0l21 120l509 817l2 14h-353l23 134h510l-21 -127l-502 -810l-2 -14h361l-23 -134h-525zM303 1443h164q179 0 260.5 -92t81.5 -294q0 -67 -11 -166q-42 -434 -191.5 -662.5t-387.5 -228.5h-170zM430 1304l-207 -1165h7q157 0 264.5 193t147.5 556q13 107 13 175
q0 131 -50 186t-168 55h-7z" />
    <glyph glyph-name="uni01F3" unicode="&#x1f3;" 
d="M288 628l-27 -171q-28 -169 -2.5 -249t107.5 -80q88 0 140 76.5t83 252.5l29 171q32 176 7.5 252.5t-112.5 76.5q-89 0 -143 -78.5t-82 -250.5zM541 166h-18q-47 -99 -97 -141.5t-118 -42.5q-278 0 -205 447l36 228q37 228 120 337t218 109q89 0 130.5 -44.5t42.5 -141.5
h19l104 594h149l-267 -1511h-143zM729 0l21 120l498 817l2 14h-345l23 134h501l-21 -127l-495 -810l-2 -14h353l-23 -134h-512z" />
    <glyph glyph-name="Gacute" unicode="&#x1f4;" 
d="M1221 395q-34 -197 -175 -311.5t-347 -114.5q-224 0 -356.5 138.5t-132.5 372.5q0 84 15 169l47 263q48 268 200 414.5t383 146.5q207 0 336 -118.5t129 -308.5q0 -17 -4 -63h-173q2 34 2 46q0 123 -84 199.5t-220 76.5q-153 0 -255 -107.5t-139 -306.5l-44 -252
q-15 -85 -15 -155q0 -162 86.5 -255.5t237.5 -93.5q135 0 225.5 75.5t113.5 208.5l30 164h-336l26 151h510zM733 1612l311 304h215l-332 -304h-194z" />
    <glyph glyph-name="gacute" unicode="&#x1f5;" 
d="M975 448l22 128q9 51 9 90q0 125 -77 203.5t-199 78.5q-116 0 -198 -80t-107 -218l-17 -95q-11 -64 -11 -111q0 -132 72.5 -208.5t197.5 -76.5q114 0 199.5 80t108.5 209zM1261 1085l-189 -1078q-36 -204 -162.5 -309t-337.5 -105q-181 0 -299 88t-118 224v18h168v-13
q2 -75 76.5 -125t186.5 -50q267 0 320 284l32 182h-12q-37 -89 -125.5 -143t-199.5 -54q-164 0 -270.5 114.5t-106.5 290.5q0 74 13 148l21 122q34 196 154 310t293 114q136 0 224 -62t112 -175h12l38 219h170zM849 1296h-186l298 339h212z" />
    <glyph glyph-name="Ngrave" unicode="&#x1f8;" 
d="M770 1916l205 -304h-176l-227 304h198zM312 0h-159l254 1443h169l417 -1123h14l201 1123h159l-254 -1443h-167l-419 1126h-14z" />
    <glyph glyph-name="ngrave" unicode="&#x1f9;" 
d="M189 0l191 1085h163l-32 -186h11q42 96 131 151t205 55q155 0 248.5 -95t93.5 -250q0 -50 -16 -149l-107 -611h-170l108 609q11 66 11 111q0 104 -62.5 166.5t-168.5 62.5q-121 0 -209.5 -84t-113.5 -224l-113 -641h-170zM944 1296h-176l-206 339h202z" />
    <glyph glyph-name="Aringacute" unicode="&#x1fa;" 
d="M1215 2158l-171 -175h-151l148 175h174zM927 1832q-44 0 -73 -29t-29 -73t29 -72.5t73 -28.5t73.5 29t29.5 72q0 44 -29.5 73t-73.5 29zM927 1538q-81 0 -137 56t-56 137q0 80 56 135.5t137 55.5q82 0 137.5 -55.5t55.5 -135.5q0 -81 -55.5 -137t-137.5 -56zM531 565h410
l-83 666h-5zM793 1443h188l207 -1443h-176l-52 414h-503l-200 -414h-184z" />
    <glyph glyph-name="aringacute" unicode="&#x1fb;" 
d="M1014 1723h-149l206 241h178zM888 1230q-84 0 -142 57t-58 140q0 84 58 141t142 57t141.5 -57t57.5 -141q0 -83 -58 -140t-141 -57zM888 1323q44 0 74 30t30 74q0 45 -30 75t-74 30q-45 0 -75 -30t-30 -75q0 -44 30 -74t75 -30zM951 511l-249 -1q-137 -1 -211.5 -52.5
t-75.5 -146.5q-1 -82 56 -131t154 -49q110 0 196.5 71.5t105.5 180.5zM895 156h-10q-41 -80 -126.5 -127t-192.5 -47q-144 0 -235 84.5t-92 220.5q-1 169 119 260.5t345 93.5l270 2l10 55q8 44 8 72q0 83 -60.5 132.5t-161.5 49.5q-88 0 -156 -40.5t-89 -105.5h-170
q26 130 145.5 211.5t285.5 81.5q170 0 273 -83.5t103 -220.5q0 -57 -21 -169l-110 -626h-162z" />
    <glyph glyph-name="AEacute" unicode="&#x1fc;" 
d="M1497 1916l-332 -304h-194l311 304h215zM869 1276h-92l-318 -687h288zM4 0l686 1443h797l-26 -161h-430l-86 -476h393l-26 -157h-394l-87 -487h429l-27 -162h-591l77 435h-332l-201 -435h-182z" />
    <glyph glyph-name="aeacute" unicode="&#x1fd;" 
d="M900 1296h-187l298 339h213zM639 497l-184 -15q-86 -7 -140 -60.5t-54 -133.5q0 -66 39 -108.5t100 -42.5q77 0 138 66.5t79 170.5zM808 629h380q10 70 10 115q0 94 -43 149t-117 55q-79 0 -137.5 -68.5t-81.5 -190.5q0 -2 -5 -30t-6 -30zM1130 289h143
q-22 -133 -116.5 -219.5t-215.5 -86.5q-104 0 -175 61.5t-86 164.5h-4q-41 -105 -122.5 -165.5t-183.5 -60.5q-112 0 -184.5 79t-72.5 199q0 153 91.5 245.5t256.5 105.5l200 17l14 79q5 38 5 67q0 81 -39.5 127t-109.5 46q-61 0 -106.5 -38t-60.5 -102h-144
q21 130 110 210.5t212 80.5q184 0 238 -166h4q44 77 118 121t159 44q139 0 214.5 -115.5t58.5 -301.5q0 -20 -12 -102q-6 -48 -13 -83h-523q-13 -67 -13 -134q0 -103 47.5 -164.5t126.5 -61.5q66 0 118 43t65 110z" />
    <glyph glyph-name="Oslashacute" unicode="&#x1fe;" 
d="M1294 1916l-332 -304h-194l311 304h215zM1084 559l42 234q12 72 12 150q0 68 -17 128l-664 -819q87 -115 248 -115q147 0 244.5 108.5t134.5 313.5zM438 897l-41 -225q-14 -84 -14 -164q0 -73 17 -136l665 815q-90 119 -253 119q-146 0 -242.5 -104t-131.5 -305z
M1423 1443l-173 -213q65 -124 65 -286q0 -88 -14 -188l-43 -232q-49 -271 -193.5 -412.5t-373.5 -141.5q-214 0 -348 140l-90 -110h-156l173 212q-65 119 -65 276q0 131 15 205l42 232q45 258 192.5 403t365.5 145q226 0 360 -145l94 115h149z" />
    <glyph glyph-name="oslashacute" unicode="&#x1ff;" 
d="M1166 1635l-324 -339h-187l298 339h213zM1006 437l25 141q7 42 7 92q0 103 -53 176l-412 -691q54 -24 123 -24q123 0 203.5 79t106.5 227zM446 657l-23 -137q-10 -56 -10 -102q0 -117 66 -196l416 701q-62 31 -140 31q-120 0 -202 -79t-107 -218zM1154 1129l-81 -135
q132 -121 132 -325q0 -45 -11 -116l-26 -151q-37 -202 -163 -311.5t-322 -109.5q-106 0 -192 37l-37 -62h-133l72 121q-146 119 -146 333q0 60 11 124l25 150q34 194 162 307t313 113q121 0 217 -45l42 70h137z" />
    <glyph glyph-name="Adblgrave" unicode="&#x200;" 
d="M1175 1612h-164l-217 304h182zM796 1612h-164l-217 304h182zM531 565h410l-83 666h-5zM1012 0l-52 414h-503l-200 -414h-184l720 1443h188l207 -1443h-176z" />
    <glyph glyph-name="adblgrave" unicode="&#x201;" 
d="M948 1635l168 -339h-165l-190 339h187zM567 1635l168 -339h-165l-191 339h188zM951 511l-249 -1q-137 -1 -211.5 -52.5t-75.5 -146.5q-1 -82 56 -131t154 -49q110 0 196.5 71.5t105.5 180.5zM895 156h-10q-41 -80 -126.5 -127t-192.5 -47q-144 0 -235 84.5t-92 220.5
q-1 169 119 260.5t345 93.5l270 2l10 55q8 44 8 72q0 83 -60.5 132.5t-161.5 49.5q-88 0 -156 -40.5t-89 -105.5h-170q26 130 145.5 211.5t285.5 81.5q170 0 273 -83.5t103 -220.5q0 -57 -21 -169l-110 -626h-162z" />
    <glyph glyph-name="Ainvertedbreve" unicode="&#x202;" 
d="M531 565h410l-83 666h-5zM793 1443h188l207 -1443h-176l-52 414h-503l-200 -414h-184zM741 1609h-141q25 139 131.5 224t256.5 85q151 0 238.5 -89t64.5 -220h-132q11 86 -38 138t-141 52q-90 0 -157 -53t-82 -137z" />
    <glyph glyph-name="ainvertedbreve" unicode="&#x203;" 
d="M566 -18q-144 0 -235 84.5t-92 220.5q-1 169 119 260.5t345 93.5l270 2l10 55q8 44 8 72q0 83 -60.5 132.5t-161.5 49.5q-88 0 -156 -40.5t-89 -105.5h-170q26 130 145.5 211.5t285.5 81.5q170 0 273 -83.5t103 -220.5q0 -57 -21 -169l-110 -626h-162l27 156h-10
q-41 -80 -126.5 -127t-192.5 -47zM625 131q110 0 196.5 71.5t105.5 180.5l24 128l-249 -1q-137 -1 -211.5 -52.5t-75.5 -146.5q-1 -82 56 -131t154 -49zM907 1589q153 0 246 -98t68 -233h-138q12 89 -41 144.5t-151 55.5q-91 0 -156.5 -55.5t-78.5 -144.5h-142
q22 149 129.5 240t263.5 91z" />
    <glyph glyph-name="Edblgrave" unicode="&#x204;" 
d="M995 1916l200 -304h-164l-218 304h182zM616 1916l200 -304h-164l-218 304h182zM1109 162l-27 -162h-852l254 1443h852l-27 -162h-674l-85 -468h638l-26 -155h-638l-90 -496h675z" />
    <glyph glyph-name="edblgrave" unicode="&#x205;" 
d="M934 1635l167 -339h-165l-190 339h188zM553 1635l168 -339h-166l-190 339h188zM973 280h168q-21 -129 -147 -214.5t-293 -85.5q-199 0 -313 112t-114 306q0 54 15 154l21 136q30 193 163 305t333 112q128 0 225.5 -55.5t145.5 -154t35 -219.5q0 -1 -10 -91l-12 -87h-741
q-1 -5 -4.5 -36t-3.5 -35q-13 -136 61 -218t208 -82q96 0 170.5 43t92.5 110zM466 627h577q0 2 2.5 23t2.5 24q15 125 -56.5 205t-198.5 80q-123 0 -207 -71t-107 -194q-1 -1 -7 -33.5t-6 -33.5z" />
    <glyph glyph-name="Einvertedbreve" unicode="&#x206;" 
d="M1109 162l-27 -162h-852l254 1443h852l-27 -162h-674l-85 -468h638l-26 -155h-638l-90 -496h675zM1008 1918q150 0 237.5 -89.5t65.5 -219.5h-132q11 86 -38.5 138t-141.5 52q-89 0 -156 -53t-83 -137h-140q24 139 131 224t257 85z" />
    <glyph glyph-name="einvertedbreve" unicode="&#x207;" 
d="M793 959q-123 0 -207 -71t-107 -194q-1 -1 -7 -33.5t-6 -33.5h577q0 2 2.5 23t2.5 24q15 125 -56.5 205t-198.5 80zM1141 280q-21 -129 -147 -214.5t-293 -85.5q-199 0 -313 112t-114 306q0 54 15 154l21 136q30 193 163 305t333 112q128 0 225.5 -55.5t145.5 -154
t35 -219.5q0 -1 -10 -91l-12 -87h-741q-1 -5 -4.5 -36t-3.5 -35q-13 -136 61 -218t208 -82q96 0 170.5 43t92.5 110h168zM892 1589q153 0 246.5 -98t68.5 -233h-139q12 89 -41 144.5t-151 55.5q-91 0 -156.5 -55.5t-78.5 -144.5h-142q22 149 129.5 240t263.5 91z" />
    <glyph glyph-name="Idblgrave" unicode="&#x208;" 
d="M976 1916l199 -304h-164l-217 304h182zM597 1916l199 -304h-164l-217 304h182zM1013 0h-760l26 157h292l202 1129h-292l26 157h760l-25 -157h-293l-202 -1129h293z" />
    <glyph glyph-name="idblgrave" unicode="&#x209;" 
d="M976 1635l168 -339h-165l-190 339h187zM595 1635l168 -339h-165l-191 339h188zM1107 0h-899l24 141h372l143 803h-368l23 141h537l-168 -944h360z" />
    <glyph glyph-name="Iinvertedbreve" unicode="&#x20a;" 
d="M1013 0h-760l26 157h292l202 1129h-292l26 157h760l-25 -157h-293l-202 -1129h293zM988 1918q151 0 238.5 -89t65.5 -220h-133q11 86 -38 138t-141 52q-90 0 -157 -53t-82 -137h-141q25 139 131.5 224t256.5 85z" />
    <glyph glyph-name="iinvertedbreve" unicode="&#x20b;" 
d="M1107 0h-899l24 141h372l143 803h-368l23 141h537l-168 -944h360zM935 1589q153 0 246 -98t68 -233h-138q12 89 -41 144.5t-151 55.5q-91 0 -156.5 -55.5t-78.5 -144.5h-142q22 149 129.5 240t263.5 91z" />
    <glyph glyph-name="Odblgrave" unicode="&#x20c;" 
d="M976 1916l199 -304h-164l-217 304h182zM597 1916l199 -304h-164l-217 304h182zM438 897l-41 -225q-14 -84 -14 -164q0 -172 86.5 -271.5t235.5 -99.5q147 0 244.5 108.5t134.5 313.5l42 234q12 72 12 150q0 164 -89 263.5t-237 99.5q-146 0 -242.5 -104t-131.5 -305z
M1301 756l-43 -232q-49 -271 -193.5 -412.5t-373.5 -141.5q-217 0 -351.5 143.5t-134.5 374.5q0 131 15 205l42 232q45 258 192.5 403t365.5 145q225 0 360 -144.5t135 -384.5q0 -88 -14 -188z" />
    <glyph glyph-name="odblgrave" unicode="&#x20d;" 
d="M918 1635l168 -339h-165l-191 339h188zM537 1635l168 -339h-166l-190 339h188zM1010 437l25 141q6 45 6 92q0 128 -77.5 206t-204.5 78q-121 0 -202.5 -78.5t-106.5 -218.5l-24 -137q-9 -58 -9 -102q0 -130 77.5 -208.5t205.5 -78.5q123 0 203.5 79t106.5 227zM1198 553
l-27 -151q-36 -202 -162.5 -311.5t-322.5 -109.5q-195 0 -315 119t-120 310q0 65 10 124l26 150q34 194 162 307t313 113q203 0 324.5 -119.5t121.5 -315.5q0 -52 -10 -116z" />
    <glyph glyph-name="Oinvertedbreve" unicode="&#x20e;" 
d="M1258 524q-49 -271 -193.5 -412.5t-373.5 -141.5q-217 0 -351.5 143.5t-134.5 374.5q0 131 15 205l42 232q45 258 192.5 403t365.5 145q225 0 360 -144.5t135 -384.5q0 -88 -14 -188zM705 137q147 0 244.5 108.5t134.5 313.5l42 234q12 72 12 150q0 164 -89 263.5
t-237 99.5q-146 0 -242.5 -104t-131.5 -305l-41 -225q-14 -84 -14 -164q0 -172 86.5 -271.5t235.5 -99.5zM988 1918q151 0 238.5 -89t64.5 -220h-132q11 86 -38 138t-141 52q-90 0 -157 -53t-82 -137h-141q25 139 131.5 224t256.5 85z" />
    <glyph glyph-name="oinvertedbreve" unicode="&#x20f;" 
d="M686 -19q-195 0 -315 119t-120 310q0 65 10 124l26 150q34 194 162 307t313 113q203 0 324.5 -119.5t121.5 -315.5q0 -52 -10 -116l-27 -151q-36 -202 -162.5 -311.5t-322.5 -109.5zM759 954q-121 0 -202.5 -78.5t-106.5 -218.5l-24 -137q-9 -58 -9 -102
q0 -130 77.5 -208.5t205.5 -78.5q123 0 203.5 79t106.5 227l25 141q6 45 6 92q0 128 -77.5 206t-204.5 78zM886 1589q154 0 247 -98t68 -233h-139q12 89 -41 144.5t-151 55.5q-91 0 -156.5 -55.5t-78.5 -144.5h-142q22 149 129.5 240t263.5 91z" />
    <glyph glyph-name="Rdblgrave" unicode="&#x210;" 
d="M946 1916l199 -304h-163l-218 304h182zM567 1916l200 -304h-164l-218 304h182zM356 0h-174l254 1443h470q186 0 294.5 -101t107.5 -276q0 -49 -7 -95q-22 -140 -111.5 -237t-227.5 -132l194 -602h-188l-180 577q-34 -2 -73 -2h-257zM584 1286l-100 -562h271
q153 0 247.5 71t115.5 195q6 34 6 68q1 107 -66.5 167.5t-189.5 60.5h-284z" />
    <glyph glyph-name="rdblgrave" unicode="&#x211;" 
d="M1129 1295h-165l-190 339h188zM748 1295h-165l-190 339h187zM731 808h22q53 149 159 227t253 78q96 0 160 -33l-32 -189q-64 37 -176 37q-170 0 -287 -117t-154 -323l-63 -352h337l-24 -136h-721l24 136h219l143 813h-240l23 136h405z" />
    <glyph glyph-name="Rinvertedbreve" unicode="&#x212;" 
d="M584 1286l-100 -562h271q153 0 247.5 71t115.5 195q6 34 6 68q1 107 -66.5 167.5t-189.5 60.5h-284zM356 0h-174l254 1443h470q186 0 294.5 -101t107.5 -276q0 -49 -7 -95q-22 -140 -111.5 -237t-227.5 -132l194 -602h-188l-180 577q-34 -2 -73 -2h-257zM958 1918
q151 0 238.5 -89.5t65.5 -219.5h-133q12 86 -37.5 138t-141.5 52q-89 0 -156 -53t-83 -137h-140q24 139 130.5 224t256.5 85z" />
    <glyph glyph-name="rinvertedbreve" unicode="&#x213;" 
d="M1234 1258h-138q12 89 -41 144t-151 55q-91 0 -156.5 -55.5t-78.5 -143.5h-142q22 149 129.5 239.5t263.5 90.5q153 0 246 -97.5t68 -232.5zM731 808h22q53 149 159 227t253 78q96 0 160 -33l-32 -189q-64 37 -176 37q-170 0 -287 -117t-154 -323l-63 -352h337l-24 -136
h-721l24 136h219l143 813h-240l23 136h405z" />
    <glyph glyph-name="Udblgrave" unicode="&#x214;" 
d="M981 1916l199 -304h-164l-217 304h182zM602 1916l199 -304h-163l-218 304h182zM229 563l155 880h176l-156 -885q-11 -60 -11 -108q0 -143 84 -228t222 -85q135 0 230.5 90.5t123.5 246.5l171 969h177l-176 -991q-40 -228 -180.5 -355t-350.5 -127q-216 0 -347 126.5
t-131 336.5q0 56 13 130z" />
    <glyph glyph-name="udblgrave" unicode="&#x215;" 
d="M930 1635l168 -339h-165l-191 339h188zM549 1635l168 -339h-165l-191 339h188zM1268 1085l-191 -1085h-163l33 186h-12q-42 -96 -131 -151t-204 -55q-155 0 -249 95t-94 250q0 52 17 149l106 611h170l-107 -609q-12 -63 -12 -111q0 -104 62.5 -166.5t168.5 -62.5
q121 0 209.5 83.5t113.5 224.5l113 641h170z" />
    <glyph glyph-name="Uinvertedbreve" unicode="&#x216;" 
d="M229 563l155 880h176l-156 -885q-11 -60 -11 -108q0 -143 84 -228t222 -85q135 0 230.5 90.5t123.5 246.5l171 969h177l-176 -991q-40 -228 -180.5 -355t-350.5 -127q-216 0 -347 126.5t-131 336.5q0 56 13 130zM961 1918q151 0 238.5 -89t64.5 -220h-132q11 86 -38 138
t-141 52q-90 0 -157 -53t-82 -137h-141q25 139 131.5 224t256.5 85z" />
    <glyph glyph-name="uinvertedbreve" unicode="&#x217;" 
d="M1268 1085l-191 -1085h-163l33 186h-12q-42 -96 -131 -151t-204 -55q-155 0 -249 95t-94 250q0 52 17 149l106 611h170l-107 -609q-12 -63 -12 -111q0 -104 62.5 -166.5t168.5 -62.5q121 0 209.5 83.5t113.5 224.5l113 641h170zM888 1589q154 0 247 -98t68 -233h-138
q11 89 -42 144.5t-150 55.5q-91 0 -156.5 -55.5t-78.5 -144.5h-143q23 150 130 240.5t263 90.5z" />
    <glyph glyph-name="Scommaaccent" unicode="&#x218;" 
d="M199 413h174q-2 -26 -2 -28q0 -111 94 -183t239 -72q142 0 232 71t90 183q0 86 -57 142t-199 109l-95 36q-178 67 -258.5 159.5t-80.5 228.5q0 184 134.5 299t349.5 115q202 0 332 -106t130 -271q0 -28 -3 -40h-174q1 3 1 23q0 102 -80.5 168t-205.5 66
q-133 0 -217 -66.5t-84 -170.5q0 -85 54.5 -141.5t185.5 -105.5l106 -40q186 -71 264.5 -158t78.5 -222q0 -199 -139 -319t-369 -120q-217 0 -361 113t-144 283q0 35 4 47zM576 -519h-157l120 361h177z" />
    <glyph glyph-name="scommaaccent" unicode="&#x219;" 
d="M585 -503h-158l121 361h177zM774 454l-150 49q-128 43 -187.5 109t-59.5 164q0 147 115.5 238.5t299.5 91.5q175 0 279 -80t111 -220q0 -3 -0.5 -7.5t-0.5 -6.5h-165v3q-9 83 -68 127t-160 44q-106 0 -172.5 -47t-66.5 -121q0 -53 38.5 -89t127.5 -65l143 -47
q136 -45 197 -110t61 -164q0 -154 -120 -249t-314 -95q-188 0 -303 84.5t-120 227.5v10h168v-2q11 -85 78.5 -131t180.5 -46t182.5 48t69.5 127q0 56 -38 92.5t-126 64.5z" />
    <glyph glyph-name="Tcommaaccent" unicode="&#x21a;" 
d="M721 0h-176l228 1281h-436l26 162h1048l-27 -162h-435zM579 -503h-157l120 361h177z" />
    <glyph glyph-name="tcommaaccent" unicode="&#x21b;" 
d="M690 1376h168l-51 -294h440l-25 -145h-438l-110 -595q-5 -25 -5 -51q0 -75 51 -111.5t157 -36.5q147 0 201 6l-24 -144q-52 -10 -225 -10q-163 0 -248.5 66t-85.5 193q0 38 9 87l110 596h-289l24 145h290zM651 -503h-157l121 361h176z" />
    <glyph glyph-name="Hcaron" unicode="&#x21e;" 
d="M1113 0h-175l116 656h-609l-117 -656h-175l254 1443h175l-110 -625h609l111 625h175zM834 1610l-233 309h170l144 -200h14l215 200h190l-340 -309h-160z" />
    <glyph glyph-name="hcaron" unicode="&#x21f;" 
d="M188 0l267 1511h163l-108 -612h11q44 96 133.5 150.5t203.5 54.5q154 0 249 -94.5t95 -249.5q0 -46 -17 -148l-107 -612h-170l108 609q12 70 12 110q0 103 -64 166t-169 63q-121 0 -210 -83.5t-114 -223.5l-113 -641h-170zM487 1678l-232 309h170l144 -199h13l216 199
h190l-341 -309h-160z" />
    <glyph glyph-name="Adotaccent" unicode="&#x226;" 
d="M948 1640q-51 0 -88.5 38.5t-37.5 90.5t37.5 90t88.5 38t88.5 -38t37.5 -90t-37.5 -90.5t-88.5 -38.5zM531 565h410l-83 666h-5zM1012 0l-52 414h-503l-200 -414h-184l720 1443h188l207 -1443h-176z" />
    <glyph glyph-name="adotaccent" unicode="&#x227;" 
d="M566 -18q-144 0 -235 84.5t-92 220.5q-1 169 119 260.5t345 93.5l270 2l10 55q8 44 8 72q0 83 -60.5 132.5t-161.5 49.5q-88 0 -156 -40.5t-89 -105.5h-170q26 130 145.5 211.5t285.5 81.5q170 0 273 -83.5t103 -220.5q0 -57 -21 -169l-110 -626h-162l27 156h-10
q-41 -80 -126.5 -127t-192.5 -47zM625 131q110 0 196.5 71.5t105.5 180.5l24 128l-249 -1q-137 -1 -211.5 -52.5t-75.5 -146.5q-1 -82 56 -131t154 -49zM888 1299q-51 0 -88.5 38.5t-37.5 90.5t37.5 90t88.5 38t88.5 -38t37.5 -90t-37.5 -90.5t-88.5 -38.5z" />
    <glyph glyph-name="Ecedilla" unicode="&#x228;" 
d="M1309 1281h-674l-85 -468h638l-26 -155h-638l-90 -496h675l-27 -162h-353l-67 -133q88 -3 136 -42.5t48 -109.5q0 -89 -69.5 -144.5t-180.5 -55.5q-83 0 -158 27l18 108q23 -9 66 -15.5t73 -6.5q114 0 114 72q0 74 -138 74h-54l5 84l74 142h-366l254 1443h852z" />
    <glyph glyph-name="ecedilla" unicode="&#x229;" 
d="M466 627h577q0 2 2.5 23t2.5 24q15 125 -56.5 205t-198.5 80q-123 0 -207 -71t-107 -194q-1 -1 -7 -33.5t-6 -33.5zM289 552l21 136q30 193 163 305t333 112q128 0 225.5 -55.5t145.5 -154t35 -219.5q0 -1 -10 -91l-12 -87h-741q-1 -5 -4.5 -36t-3.5 -35
q-13 -136 61 -218t208 -82q96 0 170.5 43t92.5 110h168q-19 -116 -124.5 -198t-251.5 -98l-59 -117q88 -3 136 -42.5t48 -109.5q0 -89 -69.5 -144.5t-180.5 -55.5q-83 0 -158 27l18 108q59 -22 139 -22q115 0 115 72q0 74 -139 74h-54l5 84l66 126q-169 20 -263.5 129
t-94.5 285q0 54 15 154z" />
    <glyph glyph-name="Odieresismacron" unicode="&#x22a;" 
d="M1258 524q-49 -271 -193.5 -412.5t-373.5 -141.5q-217 0 -351.5 143.5t-134.5 374.5q0 131 15 205l42 232q45 258 192.5 403t365.5 145q225 0 360 -144.5t135 -384.5q0 -88 -14 -188zM705 137q147 0 244.5 108.5t134.5 313.5l42 234q12 72 12 150q0 164 -89 263.5
t-237 99.5q-146 0 -242.5 -104t-131.5 -305l-41 -225q-14 -84 -14 -164q0 -172 86.5 -271.5t235.5 -99.5zM1120 1786q45 0 76 -32t31 -78t-31 -78t-76 -32q-44 0 -75 32t-31 78t31 78t75 32zM1298 2051l-20 -120h-663l20 120h663zM732 1786q44 0 75 -32t31 -78t-31 -78
t-75 -32t-75.5 32t-31.5 78t31.5 78t75.5 32z" />
    <glyph glyph-name="odieresismacron" unicode="&#x22b;" 
d="M686 -19q-195 0 -315 119t-120 310q0 65 10 124l26 150q34 194 162 307t313 113q203 0 324.5 -119.5t121.5 -315.5q0 -52 -10 -116l-27 -151q-36 -202 -162.5 -311.5t-322.5 -109.5zM759 954q-121 0 -202.5 -78.5t-106.5 -218.5l-24 -137q-9 -58 -9 -102
q0 -130 77.5 -208.5t205.5 -78.5q123 0 203.5 79t106.5 227l25 141q6 45 6 92q0 128 -77.5 206t-204.5 78zM1070 1554q47 0 82 -36t35 -85t-35 -85t-82 -36t-82 36t-35 85t35 85t82 36zM666 1554q47 0 82 -36t35 -85t-35 -85t-82 -36t-82 36t-35 85t35 85t82 36zM614 1868
h660l-24 -139h-660z" />
    <glyph glyph-name="Otildemacron" unicode="&#x22c;" 
d="M1258 524q-49 -271 -193.5 -412.5t-373.5 -141.5q-217 0 -351.5 143.5t-134.5 374.5q0 131 15 205l42 232q45 258 192.5 403t365.5 145q225 0 360 -144.5t135 -384.5q0 -88 -14 -188zM705 137q147 0 244.5 108.5t134.5 313.5l42 234q12 72 12 150q0 164 -89 263.5
t-237 99.5q-146 0 -242.5 -104t-131.5 -305l-41 -225q-14 -84 -14 -164q0 -172 86.5 -271.5t235.5 -99.5zM1289 1935h-663l20 120h663zM796 1692q-85 0 -94 -121h-124q5 108 64.5 173.5t153.5 65.5q46 0 82 -14t58 -34t41.5 -39.5t42.5 -33.5t51 -14q41 0 65.5 31t28.5 89
h123q-4 -105 -64.5 -171.5t-153.5 -66.5q-46 0 -82 14t-58 33.5t-41 39.5t-42 34t-51 14z" />
    <glyph glyph-name="otildemacron" unicode="&#x22d;" 
d="M686 -19q-195 0 -315 119t-120 310q0 65 10 124l26 150q34 194 162 307t313 113q203 0 324.5 -119.5t121.5 -315.5q0 -52 -10 -116l-27 -151q-36 -202 -162.5 -311.5t-322.5 -109.5zM759 954q-121 0 -202.5 -78.5t-106.5 -218.5l-24 -137q-9 -58 -9 -102
q0 -130 77.5 -208.5t205.5 -78.5q123 0 203.5 79t106.5 227l25 141q6 45 6 92q0 128 -77.5 206t-204.5 78zM709 1429q-45 0 -66.5 -37t-23.5 -121h-139q4 138 65.5 214.5t166.5 76.5q44 0 82 -16.5t63.5 -39.5t48 -46t46 -39.5t47.5 -16.5q45 0 66 36.5t23 118.5h140
q-4 -136 -66 -213t-166 -77q-44 0 -82 16.5t-63.5 40t-48 47t-46 40t-47.5 16.5zM1189 1730h-660l24 139h660z" />
    <glyph glyph-name="Odotaccent" unicode="&#x22e;" 
d="M1258 524q-49 -271 -193.5 -412.5t-373.5 -141.5q-217 0 -351.5 143.5t-134.5 374.5q0 131 15 205l42 232q45 258 192.5 403t365.5 145q225 0 360 -144.5t135 -384.5q0 -88 -14 -188zM705 137q147 0 244.5 108.5t134.5 313.5l42 234q12 72 12 150q0 164 -89 263.5
t-237 99.5q-146 0 -242.5 -104t-131.5 -305l-41 -225q-14 -84 -14 -164q0 -172 86.5 -271.5t235.5 -99.5zM948 1640q-51 0 -88.5 38.5t-37.5 90.5t37.5 90t88.5 38t88.5 -38t37.5 -90t-37.5 -90.5t-88.5 -38.5z" />
    <glyph glyph-name="odotaccent" unicode="&#x22f;" 
d="M686 -19q-195 0 -315 119t-120 310q0 65 10 124l26 150q34 194 162 307t313 113q203 0 324.5 -119.5t121.5 -315.5q0 -52 -10 -116l-27 -151q-36 -202 -162.5 -311.5t-322.5 -109.5zM759 954q-121 0 -202.5 -78.5t-106.5 -218.5l-24 -137q-9 -58 -9 -102
q0 -130 77.5 -208.5t205.5 -78.5q123 0 203.5 79t106.5 227l25 141q6 45 6 92q0 128 -77.5 206t-204.5 78zM867 1299q-51 0 -88.5 38.5t-37.5 90.5t37.5 90t88.5 38t88.5 -38t37.5 -90t-37.5 -90.5t-88.5 -38.5z" />
    <glyph glyph-name="Odotaccentmacron" unicode="&#x230;" 
d="M919 1811q48 0 82 -34.5t34 -83.5t-34 -84t-82 -35t-81.5 34.5t-33.5 84.5q0 49 33.5 83.5t81.5 34.5zM628 1931l21 120h663l-21 -120h-663zM438 897l-41 -225q-14 -84 -14 -164q0 -172 86.5 -271.5t235.5 -99.5q147 0 244.5 108.5t134.5 313.5l42 234q12 72 12 150
q0 164 -89 263.5t-237 99.5q-146 0 -242.5 -104t-131.5 -305zM1301 756l-43 -232q-49 -271 -193.5 -412.5t-373.5 -141.5q-217 0 -351.5 143.5t-134.5 374.5q0 131 15 205l42 232q45 258 192.5 403t365.5 145q225 0 360 -144.5t135 -384.5q0 -88 -14 -188z" />
    <glyph glyph-name="odotaccentmacron" unicode="&#x231;" 
d="M686 -19q-195 0 -315 119t-120 310q0 65 10 124l26 150q34 194 162 307t313 113q203 0 324.5 -119.5t121.5 -315.5q0 -52 -10 -116l-27 -151q-36 -202 -162.5 -311.5t-322.5 -109.5zM759 954q-121 0 -202.5 -78.5t-106.5 -218.5l-24 -137q-9 -58 -9 -102
q0 -130 77.5 -208.5t205.5 -78.5q123 0 203.5 79t106.5 227l25 141q6 45 6 92q0 128 -77.5 206t-204.5 78zM1250 1730h-660l24 139h660zM866 1292q-51 0 -88.5 38t-37.5 90t37.5 90.5t88.5 38.5t88.5 -38.5t37.5 -90.5t-37.5 -90t-88.5 -38z" />
    <glyph glyph-name="Ymacron" unicode="&#x232;" 
d="M721 0h-175l106 598l-351 845h185l270 -663h12l493 663h205l-639 -844zM1248 1695h-660l24 139h660z" />
    <glyph glyph-name="ymacron" unicode="&#x233;" 
d="M277 -386q-61 0 -80 3l25 149q18 -4 67 -4q73 0 119 36t100 136l30 59l-208 1092h176l146 -908h13l461 908h190l-607 -1125q-111 -206 -198 -276t-234 -70zM1179 1370h-660l24 139h660z" />
    <glyph glyph-name="dotlessj" unicode="&#x237;" 
d="M1066 1085l-191 -1079q-30 -172 -138.5 -253.5t-308.5 -81.5q-141 0 -298 16l26 151q159 -15 277 -15q130 0 194.5 47t83.5 156l163 918h-496l24 141h664z" />
    <glyph glyph-name="uni02BC" unicode="&#x2bc;" 
d="M770 811h-161l259 632h187z" />
    <glyph glyph-name="circumflex" unicode="&#x2c6;" 
d="M819 1623h201l213 -341h-186l-132 226h-15l-212 -226h-203z" />
    <glyph glyph-name="caron" unicode="&#x2c7;" 
d="M959 1296h-201l-213 342h186l132 -227h15l212 227h202z" />
    <glyph glyph-name="breve" unicode="&#x2d8;" 
d="M876 1249q-154 0 -247 97.5t-68 232.5h138q-11 -89 42 -144t150 -55q91 0 156.5 55.5t78.5 143.5h143q-23 -149 -130 -239.5t-263 -90.5z" />
    <glyph glyph-name="dotaccent" unicode="&#x2d9;" 
d="M884 1299q-51 0 -88.5 38.5t-37.5 90.5t37.5 90t88.5 38t88.5 -38t37.5 -90t-37.5 -90.5t-88.5 -38.5z" />
    <glyph glyph-name="ring" unicode="&#x2da;" 
d="M894 1360q51 0 84.5 35t33.5 87t-33.5 87t-84.5 35q-50 0 -84 -35t-34 -87t34 -87t84 -35zM894 1251q-93 0 -159.5 68t-66.5 163t66.5 163t159.5 68q94 0 160 -68t66 -163t-66 -163t-160 -68z" />
    <glyph glyph-name="ogonek" unicode="&#x2db;" 
d="M759 -296l-22 -124q-40 -15 -91 -15q-106 0 -169.5 49t-63.5 131q0 144 158 255h145q-62 -39 -100.5 -95.5t-38.5 -109.5q0 -97 123 -97q46 0 59 6z" />
    <glyph glyph-name="tilde" unicode="&#x2dc;" 
d="M736 1431q-45 0 -66 -37t-23 -121h-140q5 138 66.5 214.5t165.5 76.5q44 0 82 -16.5t64 -39.5t48.5 -46t46 -39.5t47.5 -16.5q45 0 66 36.5t23 118.5h139q-4 -136 -65.5 -213t-165.5 -77q-44 0 -82 16.5t-64 40t-48.5 47t-46 40t-47.5 16.5z" />
    <glyph glyph-name="hungarumlaut" unicode="&#x2dd;" 
d="M860 1296l286 339h203l-309 -339h-180zM472 1296l286 339h202l-308 -339h-180z" />
    <glyph glyph-name="gravecmb" unicode="&#x300;" 
d="M1065 1296h-176l-206 339h202z" />
    <glyph glyph-name="acutecmb" unicode="&#x301;" 
d="M842 1296h-187l298 339h213z" />
    <glyph glyph-name="circumflexcmb" unicode="&#x302;" 
d="M819 1623h201l213 -341h-186l-132 226h-15l-212 -226h-203z" />
    <glyph glyph-name="tildecmb" unicode="&#x303;" 
d="M736 1425q-45 0 -66 -37t-23 -120h-140q5 138 66 214.5t166 76.5q44 0 82 -16.5t63.5 -39.5t48 -46t46 -39.5t47.5 -16.5q45 0 66 36.5t23 118.5h140q-4 -136 -66 -213t-166 -77q-44 0 -82 16.5t-63.5 40t-48 46.5t-46 39.5t-47.5 16.5z" />
    <glyph glyph-name="macroncmb" unicode="&#x304;" 
d="M1205 1370h-660l24 139h660z" />
    <glyph glyph-name="brevecmb" unicode="&#x306;" 
d="M876 1249q-154 0 -247 97.5t-68 232.5h138q-11 -89 42 -144t150 -55q91 0 156.5 55.5t78.5 143.5h143q-23 -149 -130 -239.5t-263 -90.5z" />
    <glyph glyph-name="dotaccentcmb" unicode="&#x307;" 
d="M884 1299q-51 0 -88.5 38.5t-37.5 90.5t37.5 90t88.5 38t88.5 -38t37.5 -90t-37.5 -90.5t-88.5 -38.5z" />
    <glyph glyph-name="dieresiscmb" unicode="&#x308;" 
d="M685 1299q-47 0 -82 36t-35 85t35 85t82 36t82 -36t35 -85t-35 -85t-82 -36zM1088 1299q-47 0 -82 36t-35 85t35 85t82 36t82 -36t35 -85t-35 -85t-82 -36z" />
    <glyph glyph-name="hookabovecmb" unicode="&#x309;" 
d="M715 1488l5 119q56 28 138 28q91 0 146.5 -49t55.5 -129q0 -72 -46.5 -129.5t-128.5 -86.5l-65 93q48 15 76 44t28 64q0 33 -27 52.5t-73 19.5q-60 0 -109 -26z" />
    <glyph glyph-name="ringcmb" unicode="&#x30a;" 
d="M894 1360q51 0 84.5 35t33.5 87t-33.5 87t-84.5 35q-50 0 -84 -35t-34 -87t34 -87t84 -35zM894 1251q-93 0 -159.5 68t-66.5 163t66.5 163t159.5 68q94 0 160 -68t66 -163t-66 -163t-160 -68z" />
    <glyph glyph-name="hungarumlautcmb" unicode="&#x30b;" 
d="M841 1296l287 339h202l-309 -339h-180zM453 1296l286 339h202l-308 -339h-180z" />
    <glyph glyph-name="caroncmb" unicode="&#x30c;" 
d="M956 1296h-200l-214 342h186l133 -227h15l212 227h202z" />
    <glyph glyph-name="dblgravecmb" unicode="&#x30f;" 
d="M945 1635l168 -339h-165l-191 339h188zM564 1635l168 -339h-165l-191 339h188z" />
    <glyph glyph-name="invertedbrevecmb" unicode="&#x311;" 
d="M903 1589q154 0 247 -98t68 -233h-139q12 89 -41 144.5t-150 55.5q-91 0 -156.5 -55.5t-78.5 -144.5h-143q23 150 130 240.5t263 90.5z" />
    <glyph glyph-name="horncmb" unicode="&#x31b;" 
d="M634 971l7 137q26 -26 76 -26q64 0 95 36.5t32 118.5l5 146h148l-7 -187q-4 -116 -71.5 -184.5t-175.5 -68.5q-71 0 -109 28z" />
    <glyph glyph-name="dotbelowcmb" unicode="&#x323;" 
d="M576 -451q-51 0 -88.5 38t-37.5 90t37.5 90.5t88.5 38.5t88.5 -38.5t37.5 -90.5t-37.5 -90t-88.5 -38z" />
    <glyph glyph-name="dieresisbelowcmb" unicode="&#x324;" 
d="M374 -444q-47 0 -82 36t-35 85t35 85.5t82 36.5t82 -36.5t35 -85.5t-35 -85t-82 -36zM777 -444q-47 0 -82 36t-35 85t35 85.5t82 36.5t82 -36.5t35 -85.5t-35 -85t-82 -36z" />
    <glyph glyph-name="ringbelowcmb" unicode="&#x325;" 
d="M574 -484q51 0 85 34.5t34 86.5t-34 87t-85 35q-50 0 -84 -35t-34 -87t34 -86.5t84 -34.5zM574 -593q-93 0 -159 67.5t-66 162.5q0 96 66 163.5t159 67.5q94 0 160 -67.5t66 -163.5q0 -95 -66 -162.5t-160 -67.5z" />
    <glyph glyph-name="commabelowcmb" unicode="&#x326;" 
d="M580 -519h-158l121 361h177z" />
    <glyph glyph-name="cedillacmb" unicode="&#x327;" 
d="M494 -226l5 84l74 142h133l-67 -133q88 -3 136 -42.5t48 -109.5q0 -89 -69.5 -144.5t-180.5 -55.5q-83 0 -158 27l18 108q59 -22 139 -22q115 0 115 72q0 74 -139 74h-54z" />
    <glyph glyph-name="ogonekcmb" unicode="&#x328;" 
d="M883 -296l-22 -124q-40 -15 -91 -15q-106 0 -169.5 49t-63.5 131q0 144 158 255h145q-62 -39 -100.5 -95.5t-38.5 -109.5q0 -97 123 -97q46 0 59 6z" />
    <glyph glyph-name="circumflexbelowcmb" unicode="&#x32d;" 
d="M504 -166h201l213 -342h-186l-132 227h-15l-212 -227h-203z" />
    <glyph glyph-name="brevebelowcmb" unicode="&#x32e;" 
d="M585 -477q-154 0 -247 97.5t-68 232.5h139q-12 -89 41 -144t151 -55q91 0 156.5 55.5t78.5 143.5h142q-22 -149 -129.5 -239.5t-263.5 -90.5z" />
    <glyph glyph-name="tildebelowcmb" unicode="&#x330;" 
d="M432 -308q-45 0 -66.5 -37t-23.5 -120h-139q4 138 65.5 214.5t166.5 76.5q44 0 82 -16.5t63.5 -39.5t48 -46t46 -39.5t47.5 -16.5q45 0 66 36.5t23 118.5h140q-5 -136 -67 -213t-165 -77q-44 0 -82 16.5t-63.5 39.5t-48 46.5t-46 40t-47.5 16.5z" />
    <glyph glyph-name="macronbelowcmb" unicode="&#x331;" 
d="M894 -395h-660l24 139h660z" />
    <glyph glyph-name="greekquestionmark" unicode="&#x37e;" 
d="M800 762q-74 0 -127 54.5t-53 130.5t53 130.5t127 54.5q75 0 128 -54.5t53 -130.5t-53 -130.5t-128 -54.5zM554 -332h-187l254 711h238z" />
    <glyph glyph-name="tonosgreek" unicode="&#x384;" 
d="M728 1290l175 346h200l-234 -346h-141z" />
    <glyph glyph-name="dieresistonosgreek" unicode="&#x385;" 
d="M579 1305q-46 0 -79 34t-33 81t33 81t79 34t79 -34t33 -81t-33 -81t-79 -34zM1191 1305q-46 0 -79 34t-33 81t33 81t79 34t79 -34t33 -81t-33 -81t-79 -34zM762 1290l96 342h182l-143 -342h-135z" />
    <glyph glyph-name="Alphatonosgreek" unicode="&#x386;" 
d="M653 1443l-234 -346h-141l175 346h200zM629 565h323l-40 666h-5zM986 0l-25 414h-394l-173 -414h-176l630 1443h189l122 -1443h-173z" />
    <glyph glyph-name="anoteleia" unicode="&#x387;" 
d="M793 785q-63 0 -105.5 43t-42.5 107q0 63 42.5 106.5t105.5 43.5t105.5 -43.5t42.5 -106.5q0 -64 -42 -107t-106 -43z" />
    <glyph glyph-name="Epsilontonosgreek" unicode="&#x388;" 
d="M1158 162l-27 -162h-663l254 1443h663l-27 -162h-488l-85 -468h452l-26 -155h-452l-90 -496h489zM223 1097l175 346h200l-234 -346h-141z" />
    <glyph glyph-name="Etatonosgreek" unicode="&#x389;" 
d="M1186 0h-168l117 660h-427l-117 -660h-168l254 1443h168l-111 -630h427l111 630h168zM206 1097l176 346h199l-234 -346h-141z" />
    <glyph glyph-name="Iotatonosgreek" unicode="&#x38a;" 
d="M1184 0h-716l26 157h275l202 1129h-275l26 157h716l-26 -157h-275l-202 -1129h275zM266 1097l176 346h199l-234 -346h-141z" />
    <glyph glyph-name="Omicrontonosgreek" unicode="&#x38c;" 
d="M592 463q0 -145 55 -236t173 -91q119 0 203 103.5t120 300.5l38 224q22 122 22 228q0 141 -58 227.5t-173 86.5q-111 0 -196.5 -100t-119.5 -285l-49 -278q-15 -89 -15 -180zM1316 534q-49 -278 -176.5 -421t-326.5 -143q-184 0 -284 127t-100 351q0 112 31 286l33 187
q47 271 175.5 411.5t324.5 140.5q187 0 285.5 -128t98.5 -346q0 -107 -19 -225zM224 1097l175 346h200l-234 -346h-141z" />
    <glyph glyph-name="Upsilontonosgreek" unicode="&#x38e;" 
d="M885 0h-169l106 597l-204 846h180l133 -660h12l358 660h197l-507 -845zM211 1097l176 346h199l-234 -346h-141z" />
    <glyph glyph-name="Omegatonosgreek" unicode="&#x38f;" 
d="M935 1473q213 0 323 -127.5t110 -372.5q0 -111 -14 -188q0 -5 -10 -59.5t-10 -57.5q-34 -188 -106.5 -306.5t-209.5 -198.5l-2 -12h245l-26 -151h-434l33 199q132 48 217 174t119 319q0 3 8.5 49.5t8.5 49.5q16 87 16 167q0 350 -278 350q-142 0 -226.5 -96t-121.5 -304
q-1 -5 -15 -85t-15 -85q-12 -71 -12 -153q0 -127 44.5 -226.5t126.5 -150.5l-34 -208h-407l26 151h243l2 12q-79 65 -124.5 178t-45.5 245q0 74 12 147q0 4 7.5 45.5t15 85t8.5 46.5q49 277 182.5 420t343.5 143zM164 1097l175 346h200l-234 -346h-141z" />
    <glyph glyph-name="iotadieresistonosgreek" unicode="&#x390;" 
d="M919 -7q-161 0 -244.5 58.5t-83.5 165.5q0 45 11 107l114 616h-362l25 145h531l-129 -710q-16 -79 -16 -118q0 -116 194 -116q90 0 157 10l-25 -144q-68 -14 -172 -14zM560 1305q-46 0 -79 34t-33 81t33 81t79 34t79 -34t33 -81t-33 -81t-79 -34zM1172 1305q-46 0 -79 34
t-33 81t33 81t79 34t79 -34t33 -81t-33 -81t-79 -34zM743 1290l96 342h182l-143 -342h-135z" />
    <glyph glyph-name="Alphagreek" unicode="&#x391;" 
d="M531 565h410l-83 666h-5zM1012 0l-52 414h-503l-200 -414h-184l720 1443h188l207 -1443h-176z" />
    <glyph glyph-name="Betagreek" unicode="&#x392;" 
d="M592 1291l-85 -471h272q143 0 231.5 73t89.5 191q1 101 -64 154t-190 53h-254zM388 153h310q167 0 266.5 77t99.5 206q0 115 -78.5 176t-225.5 61h-278zM188 0l254 1443h451q184 0 288.5 -87.5t103.5 -241.5q-1 -131 -84 -231t-212 -126l-2 -11q119 -23 189 -110t69 -213
q-2 -194 -147 -308.5t-392 -114.5h-518z" />
    <glyph glyph-name="Gammagreek" unicode="&#x393;" 
d="M263 0l254 1443h852l-27 -162h-674l-228 -1281h-177z" />
    <glyph glyph-name="Deltagreek" unicode="&#x394;" 
d="M90 0l21 119l682 1324h188l209 -1324l-20 -119h-1080zM314 162h697l2 14l-155 1058h-5l-537 -1058z" />
    <glyph glyph-name="Deltagreek" unicode="&#x2206;" 
d="M90 0l21 119l682 1324h188l209 -1324l-20 -119h-1080zM314 162h697l2 14l-155 1058h-5l-537 -1058z" />
    <glyph glyph-name="Epsilongreek" unicode="&#x395;" 
d="M1109 162l-27 -162h-852l254 1443h852l-27 -162h-674l-85 -468h638l-26 -155h-638l-90 -496h675z" />
    <glyph glyph-name="Zetagreek" unicode="&#x396;" 
d="M137 0l22 137l960 1132l1 12h-730l26 162h956l-23 -140l-960 -1129l-2 -12h772l-27 -162h-995z" />
    <glyph glyph-name="Etagreek" unicode="&#x397;" 
d="M1113 0h-175l116 656h-609l-117 -656h-175l254 1443h175l-110 -625h609l111 625h175z" />
    <glyph glyph-name="Thetagreek" unicode="&#x398;" 
d="M498 643l27 159h495l-26 -159h-496zM1258 524q-49 -271 -193.5 -412.5t-373.5 -141.5q-217 0 -351.5 143.5t-134.5 374.5q0 133 15 205l42 232q45 258 192.5 403t365.5 145q225 0 360 -144.5t135 -384.5q0 -84 -14 -188zM704 137q152 0 250.5 108.5t135.5 313.5l41 234
q13 78 13 150q0 164 -90 263.5t-241 99.5q-152 0 -249 -104t-132 -305l-40 -225q-14 -83 -14 -164q0 -172 87 -271.5t239 -99.5z" />
    <glyph glyph-name="Iotagreek" unicode="&#x399;" 
d="M1013 0h-760l26 157h292l202 1129h-292l26 157h760l-25 -157h-293l-202 -1129h293z" />
    <glyph glyph-name="Kappagreek" unicode="&#x39a;" 
d="M821 801l415 -801h-201l-354 685l-204 -187l-89 -498h-172l254 1443h172l-128 -709h11l737 709h214z" />
    <glyph glyph-name="Lambdagreek" unicode="&#x39b;" 
d="M91 0l702 1443h188l188 -1443h-175l-136 1227h-5l-578 -1227h-184z" />
    <glyph glyph-name="Mugreek" unicode="&#x39c;" 
d="M356 554l-99 -554h-158l254 1443h192l173 -893h12l485 893h206l-254 -1443h-158l99 554l113 584h-13l-445 -799h-138l-162 799h-13z" />
    <glyph glyph-name="Nugreek" unicode="&#x39d;" 
d="M312 0h-159l254 1443h169l417 -1123h14l201 1123h159l-254 -1443h-167l-419 1126h-14z" />
    <glyph glyph-name="Xigreek" unicode="&#x39e;" 
d="M159 0l29 167h947l-28 -167h-948zM355 651l27 166h789l-27 -166h-789zM386 1276l27 167h948l-28 -167h-947z" />
    <glyph glyph-name="Omicrongreek" unicode="&#x39f;" 
d="M1258 524q-49 -271 -193.5 -412.5t-373.5 -141.5q-217 0 -351.5 143.5t-134.5 374.5q0 131 15 205l42 232q45 258 192.5 403t365.5 145q225 0 360 -144.5t135 -384.5q0 -88 -14 -188zM705 137q147 0 244.5 108.5t134.5 313.5l42 234q12 72 12 150q0 164 -89 263.5
t-237 99.5q-146 0 -242.5 -104t-131.5 -305l-41 -225q-14 -84 -14 -164q0 -172 86.5 -271.5t235.5 -99.5z" />
    <glyph glyph-name="Pigreek" unicode="&#x3a0;" 
d="M160 0l254 1443h946l-254 -1443h-176l227 1281h-594l-227 -1281h-176z" />
    <glyph glyph-name="Rhogreek" unicode="&#x3a1;" 
d="M452 1443h454q194 0 308.5 -106t114.5 -284q0 -249 -152.5 -392t-420.5 -143h-289l-92 -518h-177zM603 1286l-109 -611h272q182 0 284.5 96.5t102.5 267.5q0 117 -73.5 182t-205.5 65h-271z" />
    <glyph glyph-name="Sigmagreek" unicode="&#x3a3;" 
d="M137 0l22 131l488 598l-261 573l23 141h904l-26 -162h-695l-3 -14l249 -539l-6 -28l-439 -526l-2 -12h714l-27 -162h-941z" />
    <glyph glyph-name="Taugreek" unicode="&#x3a4;" 
d="M721 0h-176l228 1281h-436l26 162h1048l-27 -162h-435z" />
    <glyph glyph-name="Upsilongreek" unicode="&#x3a5;" 
d="M721 0h-175l106 598l-351 845h185l270 -663h12l493 663h205l-639 -844z" />
    <glyph glyph-name="Phigreek" unicode="&#x3a6;" 
d="M731 58l-24 -132h-165l24 138q-190 30 -292 168.5t-102 365.5q0 335 156 544q166 222 467 226l25 140h166l-26 -145q190 -31 292 -169.5t102 -365.5q0 -336 -156 -543q-165 -224 -467 -227zM329 595q0 -166 68 -262.5t197 -119.5l179 1008q-206 0 -324 -178
q-63 -93 -91.5 -215.5t-28.5 -232.5zM1197 831q0 167 -67.5 263t-196.5 119l-180 -1008q206 0 324 178q63 93 91.5 215.5t28.5 232.5z" />
    <glyph glyph-name="Chigreek" unicode="&#x3a7;" 
d="M58 0l587 727l-336 716h189l269 -584h9l476 584h206l-602 -724l348 -719h-188l-279 581h-9l-469 -581h-201z" />
    <glyph glyph-name="Psigreek" unicode="&#x3a8;" 
d="M547 0l58 329q-191 25 -284 122.5t-93 275.5q0 80 19 190l92 526h163l-94 -540q-19 -113 -19 -159q0 -121 60 -185.5t186 -77.5l170 962h164l-171 -968q161 2 249 93.5t124 295.5l101 579h163l-106 -607q-45 -259 -179.5 -383t-372.5 -131l-58 -322h-172z" />
    <glyph glyph-name="Omegagreek" unicode="&#x3a9;" 
d="M828 1474q238 0 364 -137t126 -386q0 -106 -13 -182q-1 -4 -11 -58t-10 -59q-34 -178 -113 -292t-216 -189l-2 -12h256l-27 -159h-453l30 185q124 41 213.5 156.5t124.5 281.5q5 10 16.5 61t14.5 72q16 90 16 175q0 180 -84.5 278t-246.5 98q-148 0 -247.5 -101
t-137.5 -285q-4 -10 -18.5 -91t-16.5 -97q-9 -60 -9 -133q1 -138 46.5 -247t129.5 -161l-32 -192h-430l26 159h259l2 12q-82 64 -128.5 182t-46.5 262q0 83 12 153q2 14 18 97t19 92q51 244 199 380.5t370 136.5z" />
    <glyph glyph-name="Omegagreek" unicode="&#x2126;" 
d="M828 1474q238 0 364 -137t126 -386q0 -106 -13 -182q-1 -4 -11 -58t-10 -59q-34 -178 -113 -292t-216 -189l-2 -12h256l-27 -159h-453l30 185q124 41 213.5 156.5t124.5 281.5q5 10 16.5 61t14.5 72q16 90 16 175q0 180 -84.5 278t-246.5 98q-148 0 -247.5 -101
t-137.5 -285q-4 -10 -18.5 -91t-16.5 -97q-9 -60 -9 -133q1 -138 46.5 -247t129.5 -161l-32 -192h-430l26 159h259l2 12q-82 64 -128.5 182t-46.5 262q0 83 12 153q2 14 18 97t19 92q51 244 199 380.5t370 136.5z" />
    <glyph glyph-name="Iotadieresisgreek" unicode="&#x3aa;" 
d="M1013 0h-760l26 157h292l202 1129h-292l26 157h760l-25 -157h-293l-202 -1129h293zM743 1651q-47 0 -82 36t-35 85t35 85t82 36t82 -36t35 -85t-35 -85t-82 -36zM1147 1651q-47 0 -82.5 36t-35.5 85t35.5 85t82.5 36t82 -36t35 -85t-35 -85t-82 -36z" />
    <glyph glyph-name="Upsilondieresisgreek" unicode="&#x3ab;" 
d="M721 0h-175l106 598l-351 845h185l270 -663h12l493 663h205l-639 -844zM730 1651q-47 0 -82 36t-35 85t35 85t82 36t82 -36t35 -85t-35 -85t-82 -36zM1133 1651q-47 0 -82 36t-35 85t35 85t82 36t82.5 -36t35.5 -85t-35.5 -85t-82.5 -36z" />
    <glyph glyph-name="alphatonosgreek" unicode="&#x3ac;" 
d="M920 167h-10q-41 -77 -125.5 -131t-195.5 -54q-171 0 -276.5 103t-105.5 296q0 44 21 165q30 174 47 222q20 68 51.5 125t80.5 106t121.5 76.5t162.5 27.5q125 0 212 -65t113 -177h14l40 224h171l-143 -809q-6 -37 -6 -63q0 -75 85 -75q20 0 45 5l-24 -141
q-36 -12 -93 -12q-89 0 -136.5 39.5t-49.5 107.5q0 5 0.5 16t0.5 14zM715 951q-108 0 -186 -66t-107 -185q-6 -22 -19 -97.5t-15 -85.5q-10 -54 -10 -110q0 -139 72.5 -204t188.5 -65q108 0 196 73.5t119 207.5q2 10 13.5 75.5t13.5 78.5q11 63 11 100q0 120 -79.5 199
t-197.5 79zM706 1290l175 346h200l-234 -346h-141z" />
    <glyph glyph-name="epsilontonosgreek" unicode="&#x3ad;" 
d="M661 -21q-200 0 -312.5 81t-112.5 224q0 108 65.5 180.5t180.5 92.5l1 10q-136 68 -136 217q0 147 119.5 234t314.5 87q205 0 319 -86t123 -246h-167q-32 181 -276 181q-125 0 -197 -47.5t-72 -128.5q0 -76 63 -116t179 -40h114l-25 -142h-200q-108 0 -170.5 -44.5
t-62.5 -122.5q-1 -88 67 -135t199 -47q264 0 335 197h172q-36 -159 -175.5 -254t-345.5 -95zM755 1290l176 346h199l-234 -346h-141z" />
    <glyph glyph-name="etatonosgreek" unicode="&#x3ae;" 
d="M670 1290l175 346h200l-234 -346h-141zM404 0h-170l143 807q7 47 7 65q0 77 -82 77q-23 0 -48 -5l24 141q38 12 95 12q181 0 181 -168q0 -3 -2 -35h11q41 98 130.5 154.5t208.5 56.5q149 0 242 -92.5t93 -246.5q0 -50 -11 -119l-177 -1006h-170l172 974q12 63 12 109
q0 104 -62 164.5t-166 60.5q-121 0 -207 -84t-112 -229z" />
    <glyph glyph-name="iotatonosgreek" unicode="&#x3af;" 
d="M919 -7q-161 0 -244.5 58.5t-83.5 165.5q0 45 11 107l114 616h-362l25 145h531l-129 -710q-16 -79 -16 -118q0 -116 194 -116q90 0 157 10l-25 -144q-68 -14 -172 -14zM769 1290l176 346h199l-233 -346h-142z" />
    <glyph glyph-name="upsilondieresistonosgreek" unicode="&#x3b0;" 
d="M720 1290l96 342h182l-143 -342h-135zM1149 1305q-46 0 -79 34t-33 81t33 81t79 34t79 -34t33 -81t-33 -81t-79 -34zM537 1305q-46 0 -79 34t-33 81t33 81t79 34t79 -34t33 -81t-33 -81t-79 -34zM1011 1085h165q39 -117 37 -309q-3 -379 -145 -587.5t-405 -208.5
q-192 0 -296 89t-104 260q0 60 13 138l109 618h166l-109 -617q-10 -53 -10 -114q2 -218 238 -218q182 0 278.5 166t98.5 477q0 181 -36 306z" />
    <glyph glyph-name="alphagreek" unicode="&#x3b1;" 
d="M920 167h-10q-41 -77 -125.5 -131t-195.5 -54q-171 0 -276.5 103t-105.5 296q0 44 21 165q30 174 47 222q20 68 51.5 125t80.5 106t121.5 76.5t162.5 27.5q125 0 212 -65t113 -177h14l40 224h171l-143 -809q-6 -37 -6 -63q0 -75 85 -75q20 0 45 5l-24 -141
q-36 -12 -93 -12q-89 0 -136.5 39.5t-49.5 107.5q0 5 0.5 16t0.5 14zM715 951q-108 0 -186 -66t-107 -185q-6 -22 -19 -97.5t-15 -85.5q-10 -54 -10 -110q0 -139 72.5 -204t188.5 -65q108 0 196 73.5t119 207.5q2 10 13.5 75.5t13.5 78.5q11 63 11 100q0 120 -79.5 199
t-197.5 79z" />
    <glyph glyph-name="betagreek" unicode="&#x3b2;" 
d="M129 -366l254 1448q40 232 156 340.5t319 108.5q171 0 276.5 -92t105.5 -246q0 -143 -68.5 -240t-195.5 -136l-2 -11q110 -28 173.5 -123t63.5 -227q0 -207 -120.5 -340.5t-335.5 -133.5q-131 0 -227.5 64.5t-123.5 171.5h-9l-102 -584h-164zM729 138q144 0 229 87
t85 231q0 129 -85.5 206.5t-226.5 77.5h-74l26 152h94q146 0 224 71.5t78 209.5q0 97 -62 152.5t-174 55.5q-124 0 -197 -77.5t-104 -244.5l-90 -501q-15 -83 -15 -135q0 -125 84 -205t208 -80z" />
    <glyph glyph-name="gammagreek" unicode="&#x3b3;" 
d="M623 -345h-171l62 343l-185 1087h170l142 -909h13q213 237 315.5 428.5t102.5 381.5q0 55 -7 99h168q6 -35 6 -92q0 -150 -47.5 -292.5t-172.5 -323.5t-338 -395z" />
    <glyph glyph-name="deltagreek" unicode="&#x3b4;" 
d="M1211 575q0 -121 -38 -233q-57 -174 -184.5 -267.5t-312.5 -93.5q-204 0 -325.5 123.5t-121.5 335.5q0 114 37 229q46 146 160 234t291 100l3 12q-182 105 -182 255q0 89 49 149.5t124.5 86t171.5 25.5q225 0 386 -99l-25 -151q-178 103 -346 103q-97 0 -142 -30t-45 -91
q0 -54 39 -95.5t146 -106.5q175 -112 245 -220t70 -266zM763 880q-137 0 -224.5 -70.5t-121.5 -199.5q-10 -37 -16 -84q-6 -45 -6 -91q0 -134 82 -219t213 -85q115 0 200.5 68.5t124.5 187.5q13 38 21 89q8 50 8 97q0 148 -77 227.5t-204 79.5z" />
    <glyph glyph-name="epsilongreek" unicode="&#x3b5;" 
d="M661 -21q-199 0 -312 81.5t-113 224.5q0 107 65.5 179.5t180.5 93.5l1 10q-136 68 -136 217q0 147 119.5 233.5t314.5 86.5q205 0 319 -86t123 -245h-167q-32 181 -276 181q-125 0 -197 -47.5t-72 -128.5q0 -76 63 -116.5t179 -40.5h114l-25 -141h-200q-108 0 -170.5 -45
t-62.5 -122q-1 -88 67 -135t199 -47q264 0 335 197h172q-36 -159 -175.5 -254.5t-345.5 -95.5z" />
    <glyph glyph-name="zetagreek" unicode="&#x3b6;" 
d="M954 -358l-116 66q86 99 86 174q0 64 -42.5 97.5t-169.5 83.5q-91 37 -158 79.5t-119 98.5t-78 128.5t-26 160.5q0 445 694 817l3 10h-502l26 154h798l-22 -148q-417 -199 -621.5 -399t-204.5 -410q0 -126 69 -209t222 -143q166 -66 232 -125t66 -158q0 -143 -137 -277z
" />
    <glyph glyph-name="etagreek" unicode="&#x3b7;" 
d="M404 0h-170l143 807q7 47 7 65q0 77 -82 77q-23 0 -48 -5l24 141q38 12 95 12q181 0 181 -168q0 -3 -2 -35h11q41 98 130.5 154.5t208.5 56.5q149 0 242 -92.5t93 -246.5q0 -50 -11 -119l-177 -1006h-170l172 974q12 63 12 109q0 104 -62 164.5t-166 60.5
q-121 0 -207 -84t-112 -229z" />
    <glyph glyph-name="thetagreek" unicode="&#x3b8;" 
d="M859 1529q193 0 297 -115.5t104 -329.5q0 -151 -53 -448q-58 -340 -187.5 -497.5t-347.5 -157.5q-193 0 -297 114t-104 328q0 132 51 437q56 349 186 509t351 160zM480 836h592q22 143 22 241q0 150 -61.5 225.5t-183.5 74.5q-151 0 -235.5 -125.5t-133.5 -415.5z
M1053 689h-592q-25 -183 -25 -256q0 -302 244 -302q154 0 239 128t134 430z" />
    <glyph glyph-name="iotagreek" unicode="&#x3b9;" 
d="M919 -7q-161 0 -244.5 58.5t-83.5 165.5q0 45 11 107l114 616h-362l25 145h531l-129 -710q-16 -79 -16 -118q0 -116 194 -116q90 0 157 10l-25 -144q-68 -14 -172 -14z" />
    <glyph glyph-name="kappagreek" unicode="&#x3ba;" 
d="M366 0h-166l191 1085h166l-95 -533h8l449 404q85 81 141 111t123 30q37 0 88 -12l-24 -141q-26 5 -57 5q-40 0 -70.5 -17.5t-90.5 -70.5l-213 -186l334 -675h-171l-282 567l-271 -232z" />
    <glyph glyph-name="lambdagreek" unicode="&#x3bb;" 
d="M309 0h-185l591 1013l-28 151q-25 131 -65 175.5t-130 44.5q-26 0 -48 -5l25 140q37 13 91 13q122 0 182.5 -72t94.5 -262l174 -943q12 -67 36.5 -92t78.5 -25q24 0 50 5l-24 -141q-34 -12 -87 -12q-97 0 -140 42.5t-61 149.5l-108 591h-10z" />
    <glyph glyph-name="nugreek" unicode="&#x3bd;" 
d="M685 0h-182l-185 1085h169l142 -909h13q219 236 318.5 428t99.5 379q0 62 -7 102h168q6 -26 6 -89q0 -238 -126 -469t-416 -527z" />
    <glyph glyph-name="xigreek" unicode="&#x3be;" 
d="M961 -358l-116 66q86 100 86 173q0 64 -43.5 98.5t-178.5 88.5q-68 29 -104 45t-87 41.5t-77.5 45t-57.5 48t-46 57.5t-25 67t-10 83q0 76 32.5 138.5t88.5 104t124.5 68t147.5 39.5q-1 1 2 10q-108 41 -159.5 101.5t-51.5 147.5q0 109 87 184.5t243 98.5l2 10h-305
l26 154h809l-21 -137l-107 -12q-303 -30 -436.5 -95.5t-133.5 -183.5q0 -87 100.5 -140t263.5 -53h148l-25 -151h-187q-229 0 -350.5 -67t-121.5 -193q0 -43 13.5 -76.5t35 -58t63.5 -48t84.5 -42.5t111.5 -47q9 -3 13 -5q170 -68 234.5 -128t64.5 -156q0 -140 -137 -276z
" />
    <glyph glyph-name="omicrongreek" unicode="&#x3bf;" 
d="M686 -19q-195 0 -315 119t-120 310q0 65 10 124l26 150q34 194 162 307t313 113q203 0 324.5 -119.5t121.5 -315.5q0 -52 -10 -116l-27 -151q-36 -202 -162.5 -311.5t-322.5 -109.5zM759 954q-121 0 -202.5 -78.5t-106.5 -218.5l-24 -137q-9 -58 -9 -102
q0 -130 77.5 -208.5t205.5 -78.5q123 0 203.5 79t106.5 227l25 141q6 45 6 92q0 128 -77.5 206t-204.5 78z" />
    <glyph glyph-name="pigreek" unicode="&#x3c0;" 
d="M430 0h-160l165 931h-219l26 154h1155l-25 -154h-210l-116 -641q-8 -46 -8 -69q0 -83 91 -83q36 0 54 5l-24 -141q-33 -12 -92 -12q-89 0 -141.5 47.5t-52.5 135.5q0 39 10 99l118 659h-405z" />
    <glyph glyph-name="rhogreek" unicode="&#x3c1;" 
d="M713 135q110 0 187.5 75t106.5 221q34 162 34 253q0 121 -71 195.5t-201 74.5q-114 0 -199 -75.5t-112 -220.5q-1 -4 -12 -63.5t-11 -61.5q-11 -61 -11 -104q0 -133 79 -213.5t210 -80.5zM280 -366h-168l177 997q41 235 166.5 354t319.5 119q207 0 320.5 -111t113.5 -308
q0 -112 -46 -325q-12 -56 -34.5 -108t-60 -101.5t-85.5 -86t-114.5 -59t-143.5 -22.5q-130 0 -222 65t-113 166h-8z" />
    <glyph glyph-name="sigmafinalgreek" unicode="&#x3c2;" 
d="M1040 -81q0 -141 -137 -277l-116 66q85 99 85 174q0 64 -42.5 97.5t-168.5 83.5q-93 38 -158.5 77.5t-118 93t-78.5 123.5t-26 158q0 85 21 174q48 205 176.5 310.5t319.5 105.5q194 0 308.5 -103.5t114.5 -276.5h-167q0 101 -73.5 164t-192.5 63q-131 0 -210 -73
t-111 -226q-16 -82 -16 -128q2 -118 70.5 -190t220.5 -133q167 -66 233 -125t66 -158z" />
    <glyph glyph-name="sigmagreek" unicode="&#x3c3;" 
d="M686 -19q-195 0 -315 118.5t-120 310.5q0 63 10 124l24 137q34 193 161 303.5t313 110.5h664l-26 -154h-312l-2 -11q55 -44 88 -120t32 -161q0 -55 -9 -112l-23 -125q-35 -201 -161.5 -311t-323.5 -110zM767 935q-126 0 -210 -75.5t-109 -214.5l-22 -125q-9 -54 -9 -102
q0 -130 77.5 -208.5t205.5 -78.5q123 0 204 79.5t106 226.5l22 129q6 29 6 91q0 121 -72.5 199.5t-198.5 78.5z" />
    <glyph glyph-name="taugreek" unicode="&#x3c4;" 
d="M1005 152l-25 -143q-66 -16 -161 -16q-283 0 -283 212q0 43 11 111l113 615h-394l26 154h1010l-26 -154h-447l-102 -563q-16 -84 -16 -112q0 -115 152 -115q83 0 142 11z" />
    <glyph glyph-name="upsilongreek" unicode="&#x3c5;" 
d="M1011 1085h165q39 -117 37 -309q-3 -379 -145 -587.5t-405 -208.5q-192 0 -296 89t-104 260q0 60 13 138l109 618h166l-109 -617q-10 -53 -10 -114q2 -218 238 -218q182 0 278.5 166t98.5 477q0 181 -36 306z" />
    <glyph glyph-name="phigreek" unicode="&#x3c6;" 
d="M880 958l-152 -838q203 4 307.5 140t104.5 374q0 139 -67.5 223.5t-192.5 100.5zM578 124l151 837q-201 -3 -306 -135t-105 -376q0 -140 67.5 -224.5t192.5 -101.5zM644 -366h-151l61 348q-187 20 -289.5 139t-102.5 319q0 70 14 159q39 245 182.5 373.5t392.5 132.5
l45 254h152l-44 -259q186 -21 289 -138.5t103 -320.5q0 -84 -15 -179q-40 -236 -187 -359.5t-388 -125.5z" />
    <glyph glyph-name="chigreek" unicode="&#x3c7;" 
d="M68 -360l560 736l-148 446q-24 73 -53 100t-84 27q-24 0 -48 -5l24 141q41 12 91 12q86 0 130.5 -39t76.5 -139l124 -381h13l416 547h181l-550 -724l157 -472q19 -61 48 -86t81 -25q16 0 53 5l-24 -141q-41 -12 -91 -12q-86 0 -132 37.5t-75 128.5l-130 404h-13
l-427 -560h-180z" />
    <glyph glyph-name="psigreek" unicode="&#x3c8;" 
d="M490 -366l63 346q-174 11 -268 101t-94 248q0 61 15 151l108 605h157l-108 -605q-13 -77 -13 -135q2 -210 226 -219l219 1233h150l-218 -1234h30q173 0 273 181t100 481q0 171 -36 298h156q37 -123 37 -299q0 -387 -141.5 -596.5t-399.5 -209.5h-43l-61 -346h-152z" />
    <glyph glyph-name="omegagreek" unicode="&#x3c9;" 
d="M903 -20q-100 0 -159.5 57.5t-65.5 158.5h-8q-83 -216 -272 -216q-116 0 -180.5 90.5t-64.5 254.5q0 114 38 298q52 269 206 462h176q-99 -117 -150.5 -230t-83.5 -287q-28 -142 -28 -233q0 -199 125 -199q67 0 118.5 71t73.5 192l66 367h153l-61 -347q-10 -59 -10 -113
q0 -170 116 -170q79 0 130.5 74.5t79.5 232.5q29 155 29 258q0 222 -86 384h169q36 -65 56.5 -161.5t20.5 -198.5q0 -130 -30 -291q-83 -454 -358 -454z" />
    <glyph glyph-name="iotadieresisgreek" unicode="&#x3ca;" 
d="M919 -7q-161 0 -244.5 58.5t-83.5 165.5q0 45 11 107l114 616h-362l25 145h531l-129 -710q-16 -79 -16 -118q0 -116 194 -116q90 0 157 10l-25 -144q-68 -14 -172 -14zM639 1299q-47 0 -82 36t-35 85t35 85t82 36t82 -36t35 -85t-35 -85t-82 -36zM1042 1299q-47 0 -82 36
t-35 85t35 85t82 36t82.5 -36t35.5 -85t-35.5 -85t-82.5 -36z" />
    <glyph glyph-name="upsilondieresisgreek" unicode="&#x3cb;" 
d="M1031 1299q-47 0 -82 36t-35 85t35 85t82 36t82 -36t35 -85t-35 -85t-82 -36zM627 1299q-47 0 -82 36t-35 85t35 85t82 36t82 -36t35 -85t-35 -85t-82 -36zM1011 1085h165q39 -117 37 -309q-3 -379 -145 -587.5t-405 -208.5q-192 0 -296 89t-104 260q0 60 13 138l109 618
h166l-109 -617q-10 -53 -10 -114q2 -218 238 -218q182 0 278.5 166t98.5 477q0 181 -36 306z" />
    <glyph glyph-name="omicrontonosgreek" unicode="&#x3cc;" 
d="M686 -19q-195 0 -315 119t-120 310q0 65 10 124l26 150q34 194 162 307t313 113q203 0 324.5 -119.5t121.5 -315.5q0 -52 -10 -116l-27 -151q-36 -202 -162.5 -311.5t-322.5 -109.5zM759 954q-121 0 -202.5 -78.5t-106.5 -218.5l-24 -137q-9 -58 -9 -102
q0 -130 77.5 -208.5t205.5 -78.5q123 0 203.5 79t106.5 227l25 141q6 45 6 92q0 128 -77.5 206t-204.5 78zM735 1290l176 346h200l-234 -346h-142z" />
    <glyph glyph-name="upsilontonosgreek" unicode="&#x3cd;" 
d="M708 1290l175 346h200l-234 -346h-141zM1011 1085h165q39 -117 37 -309q-3 -379 -145 -587.5t-405 -208.5q-192 0 -296 89t-104 260q0 60 13 138l109 618h166l-109 -617q-10 -53 -10 -114q2 -218 238 -218q182 0 278.5 166t98.5 477q0 181 -36 306z" />
    <glyph glyph-name="omegatonosgreek" unicode="&#x3ce;" 
d="M903 -20q-100 0 -159.5 57.5t-65.5 158.5h-8q-83 -216 -272 -216q-116 0 -180.5 90.5t-64.5 254.5q0 114 38 298q52 269 206 462h176q-99 -117 -150.5 -230t-83.5 -287q-28 -142 -28 -233q0 -199 125 -199q67 0 118.5 71t73.5 192l66 367h153l-61 -347q-10 -59 -10 -113
q0 -170 116 -170q79 0 130.5 74.5t79.5 232.5q29 155 29 258q0 222 -86 384h169q36 -65 56.5 -161.5t20.5 -198.5q0 -130 -30 -291q-83 -454 -358 -454zM754 1290l175 346h200l-234 -346h-141z" />
    <glyph glyph-name="uni0400" unicode="&#x400;" 
d="M792 1916l206 -304h-177l-226 304h197zM1109 162l-27 -162h-852l254 1443h852l-27 -162h-674l-85 -468h638l-26 -155h-638l-90 -496h675z" />
    <glyph glyph-name="Iocyrillic" unicode="&#x401;" 
d="M1109 162l-27 -162h-852l254 1443h852l-27 -162h-674l-85 -468h638l-26 -155h-638l-90 -496h675zM762 1651q-47 0 -82 36t-35 85t35 85t82 36t82.5 -36t35.5 -85t-35.5 -85t-82.5 -36zM1166 1651q-47 0 -82 36t-35 85t35 85t82 36t82 -36t35 -85t-35 -85t-82 -36z" />
    <glyph glyph-name="Djecyrillic" unicode="&#x402;" 
d="M1320 490q0 -221 -127 -369t-320 -148q-83 0 -120 16l29 158q37 -11 87 -11q119 0 197 93.5t78 235.5q0 116 -60.5 183t-165.5 67q-78 0 -149.5 -27.5t-111.5 -67.5l-109 -620h-169l227 1282h-378l26 161h933l-26 -161h-386l-87 -487h7q115 82 271 82q162 0 258 -104
t96 -283z" />
    <glyph glyph-name="Gjecyrillic" unicode="&#x403;" 
d="M1371 1916l-332 -304h-194l311 304h215zM1464 1443l-73 -424h-163l46 261h-555l-198 -1118h271l-26 -162h-701l26 162h252l196 1119h-247l27 162h1145z" />
    <glyph glyph-name="Ecyrillic" unicode="&#x404;" 
d="M718 -29q-228 0 -366 145.5t-138 386.5q0 57 7 116q16 130 54 317q49 255 198.5 396.5t370.5 141.5q216 0 351 -124t135 -322q0 -1 -0.5 -19t-0.5 -23h-178q0 28 -1 45q-10 123 -95 198t-217 75q-145 0 -245 -102t-140 -290l-21 -97h559l-26 -157h-558q-16 -75 -16 -150
q0 -170 91 -270t246 -100q118 0 205.5 62t120.5 169q6 21 9 38h176q-2 -25 -6 -44q-34 -176 -176 -284t-339 -108z" />
    <glyph glyph-name="Dzecyrillic" unicode="&#x405;" 
d="M199 413h174q-2 -26 -2 -28q0 -111 94 -183t239 -72q142 0 232 71t90 183q0 86 -57 142t-199 109l-95 36q-178 67 -258.5 159.5t-80.5 228.5q0 184 134.5 299t349.5 115q202 0 332 -106t130 -271q0 -28 -3 -40h-174q1 3 1 23q0 102 -80.5 168t-205.5 66
q-133 0 -217 -66.5t-84 -170.5q0 -85 54.5 -141.5t185.5 -105.5l106 -40q186 -71 264.5 -158t78.5 -222q0 -199 -139 -319t-369 -120q-217 0 -361 113t-144 283q0 35 4 47z" />
    <glyph glyph-name="Icyrillic" unicode="&#x406;" 
d="M1013 0h-760l26 157h292l202 1129h-292l26 157h760l-25 -157h-293l-202 -1129h293z" />
    <glyph glyph-name="Yicyrillic" unicode="&#x407;" 
d="M1013 0h-760l26 157h292l202 1129h-292l26 157h760l-25 -157h-293l-202 -1129h293zM743 1651q-47 0 -82 36t-35 85t35 85t82 36t82 -36t35 -85t-35 -85t-82 -36zM1147 1651q-47 0 -82.5 36t-35.5 85t35.5 85t82.5 36t82 -36t35 -85t-35 -85t-82 -36z" />
    <glyph glyph-name="Jecyrillic" unicode="&#x408;" 
d="M631 -30q-178 0 -292 101t-114 258q0 18 4 52h166q-2 -16 -2 -29q0 -95 68.5 -154.5t178.5 -59.5t179.5 65t91.5 188l160 895h-495l26 157h673l-191 -1075q-34 -196 -148.5 -297t-304.5 -101z" />
    <glyph glyph-name="Ljecyrillic" unicode="&#x409;" 
d="M885 750l-106 -594h105q125 0 204.5 101.5t79.5 263.5q0 109 -46 169t-130 60h-107zM566 1295l-81 -424q-33 -163 -56.5 -270t-49 -209t-48 -162t-49 -111.5t-56 -76.5t-64 -38t-78.5 -13q-49 0 -82 11l31 170q20 -9 41 -9q19 0 34.5 7t31 26t28.5 44t28 70t28 94
t30.5 126.5t34.5 156.5t40 195l106 561h577l-97 -539h109q141 0 222.5 -95.5t81.5 -260.5q0 -254 -121.5 -400.5t-329.5 -146.5h-279l230 1294h-262z" />
    <glyph glyph-name="Njecyrillic" unicode="&#x40a;" 
d="M256 0h-155l254 1443h155l-111 -626h342l111 626h157l-111 -626h93q149 0 229.5 -83.5t80.5 -242.5q0 -239 -115 -365t-332 -126h-256l117 662h-341zM870 665l-93 -518h94q130 0 201.5 85.5t71.5 238.5q0 93 -45 143.5t-129 50.5h-100z" />
    <glyph glyph-name="Tshecyrillic" unicode="&#x40b;" 
d="M518 0h-173l227 1281h-344l26 162h874l-26 -162h-357l-90 -496h7q56 49 137.5 79t159.5 30q162 0 249.5 -90.5t87.5 -257.5q0 -68 -13 -137l-72 -409h-173l71 402q9 54 9 100q0 110 -55.5 169.5t-158.5 59.5q-72 0 -148.5 -31t-128.5 -81z" />
    <glyph glyph-name="Kjecyrillic" unicode="&#x40c;" 
d="M726 1612l310 304h215l-332 -304h-193zM586 1443l-113 -640h42l699 640h217l-784 -713l567 -730h-213l-506 657h-46l-117 -657h-173l254 1443h173z" />
    <glyph glyph-name="uni040D" unicode="&#x40d;" 
d="M786 1916l205 -304h-176l-227 304h198zM406 1443h157l-200 -1123h14l828 1123h163l-254 -1443h-157l200 1122h-14l-828 -1122h-163z" />
    <glyph glyph-name="Ushortcyrillic" unicode="&#x40e;" 
d="M1460 1443l-609 -1063q-124 -218 -230 -304t-253 -86q-72 0 -99 11l24 170q30 -10 82 -10q80 0 144.5 46t137.5 157l-341 1079h185l268 -878h8l490 878h193zM1147 1924h143q-21 -142 -120.5 -227t-249.5 -85q-147 0 -230.5 92t-59.5 220h137q-12 -87 32.5 -142.5
t135.5 -55.5q84 0 141 55t71 143z" />
    <glyph glyph-name="Dzhecyrillic" unicode="&#x40f;" 
d="M500 -285l50 285h-436l254 1443h177l-227 -1281h685l226 1281h177l-254 -1443h-436l-50 -285h-166z" />
    <glyph glyph-name="Acyrillic" unicode="&#x410;" 
d="M531 565h410l-83 666h-5zM1012 0l-52 414h-503l-200 -414h-184l720 1443h188l207 -1443h-176z" />
    <glyph glyph-name="Becyrillic" unicode="&#x411;" 
d="M690 0h-512l254 1443h850l-26 -162h-672l-76 -414h305q201 0 315 -107t114 -294q0 -207 -153 -336.5t-399 -129.5zM383 159h311q163 0 264.5 84t101.5 219q0 121 -74.5 185t-215.5 64h-288z" />
    <glyph glyph-name="Vecyrillic" unicode="&#x412;" 
d="M592 1291l-85 -471h272q143 0 231.5 73t89.5 191q1 101 -64 154t-190 53h-254zM388 153h310q167 0 266.5 77t99.5 206q0 115 -78.5 176t-225.5 61h-278zM188 0l254 1443h451q184 0 288.5 -87.5t103.5 -241.5q-1 -131 -84 -231t-212 -126l-2 -11q119 -23 189 -110t69 -213
q-2 -194 -147 -308.5t-392 -114.5h-518z" />
    <glyph glyph-name="Gecyrillic" unicode="&#x413;" 
d="M1464 1443l-73 -424h-163l46 261h-555l-198 -1118h271l-26 -162h-701l26 162h252l196 1119h-247l27 162h1145z" />
    <glyph glyph-name="Decyrillic" unicode="&#x414;" 
d="M1091 0h-910l-50 -285h-163l78 447h89q69 39 117 130t87 260l208 891h796l-227 -1281h164l-77 -447h-162zM682 1281l-176 -745q-68 -289 -157 -359l-2 -15h593l201 1119h-459z" />
    <glyph glyph-name="Iecyrillic" unicode="&#x415;" 
d="M1109 162l-27 -162h-852l254 1443h852l-27 -162h-674l-85 -468h638l-26 -155h-638l-90 -496h675z" />
    <glyph glyph-name="Zhecyrillic" unicode="&#x416;" 
d="M168 0h-177l507 739l-217 704h163l190 -642h63l114 642h152l-113 -642h51l416 642h175l-461 -711l244 -732h-165l-220 658h-63l-118 -658h-152l117 658h-52z" />
    <glyph glyph-name="Zecyrillic" unicode="&#x417;" 
d="M563 661l27 164h168q146 0 238.5 74t92.5 191q0 104 -76 165.5t-206 61.5q-112 0 -190 -49.5t-101 -134.5h-168q29 157 154.5 248.5t313.5 91.5q201 0 323 -100t122 -264q0 -139 -95.5 -243.5t-233.5 -118.5v-13q123 -23 195.5 -109t72.5 -209q0 -200 -146 -323
t-385 -123q-205 0 -338.5 104.5t-133.5 265.5q0 46 1 50h168q-1 -2 -1 -19q0 -102 89.5 -171.5t219.5 -69.5q157 0 251 80t94 213q0 109 -81 173.5t-216 64.5h-159z" />
    <glyph glyph-name="Iicyrillic" unicode="&#x418;" 
d="M406 1443h157l-200 -1123h14l828 1123h163l-254 -1443h-157l200 1122h-14l-828 -1122h-163z" />
    <glyph glyph-name="Iishortcyrillic" unicode="&#x419;" 
d="M1150 1924h143q-21 -142 -121 -227t-249 -85q-147 0 -231 92t-59 220h137q-12 -87 32.5 -142.5t135.5 -55.5q84 0 141 55t71 143zM406 1443h157l-200 -1123h14l828 1123h163l-254 -1443h-157l200 1122h-14l-828 -1122h-163z" />
    <glyph glyph-name="Kacyrillic" unicode="&#x41a;" 
d="M586 1443l-113 -640h42l699 640h217l-784 -713l567 -730h-213l-506 657h-46l-117 -657h-173l254 1443h173z" />
    <glyph glyph-name="Elcyrillic" unicode="&#x41b;" 
d="M1379 1443l-254 -1443h-175l227 1281h-494l-94 -405q-39 -156 -67 -260.5t-58 -202.5t-52.5 -157t-50.5 -111.5t-52.5 -78.5t-58 -46t-67.5 -25.5t-81 -5.5q-60 0 -88 12l30 173q30 -9 63 -9q58 0 89 33q47 50 108 255q37 124 118 435l129 555h828z" />
    <glyph glyph-name="Emcyrillic" unicode="&#x41c;" 
d="M356 554l-99 -554h-158l254 1443h192l173 -893h12l485 893h206l-254 -1443h-158l99 554l113 584h-13l-445 -799h-138l-162 799h-13z" />
    <glyph glyph-name="Encyrillic" unicode="&#x41d;" 
d="M1113 0h-175l116 656h-609l-117 -656h-175l254 1443h175l-110 -625h609l111 625h175z" />
    <glyph glyph-name="Ocyrillic" unicode="&#x41e;" 
d="M1258 524q-49 -271 -193.5 -412.5t-373.5 -141.5q-217 0 -351.5 143.5t-134.5 374.5q0 131 15 205l42 232q45 258 192.5 403t365.5 145q225 0 360 -144.5t135 -384.5q0 -88 -14 -188zM705 137q147 0 244.5 108.5t134.5 313.5l42 234q12 72 12 150q0 164 -89 263.5
t-237 99.5q-146 0 -242.5 -104t-131.5 -305l-41 -225q-14 -84 -14 -164q0 -172 86.5 -271.5t235.5 -99.5z" />
    <glyph glyph-name="Pecyrillic" unicode="&#x41f;" 
d="M1389 1443l-254 -1443h-177l227 1280h-650l-227 -1280h-177l254 1443h1004z" />
    <glyph glyph-name="Ercyrillic" unicode="&#x420;" 
d="M452 1443h454q194 0 308.5 -106t114.5 -284q0 -249 -152.5 -392t-420.5 -143h-289l-92 -518h-177zM603 1286l-109 -611h272q182 0 284.5 96.5t102.5 267.5q0 117 -73.5 182t-205.5 65h-271z" />
    <glyph glyph-name="Escyrillic" unicode="&#x421;" 
d="M1237 399q-20 -190 -168 -310t-360 -120q-226 0 -357.5 139.5t-131.5 380.5q0 83 14 160l40 229q50 289 201 442t389 153q209 0 340 -120.5t131 -311.5q0 -34 -6 -74h-174q3 34 3 57q0 127 -82.5 203t-221.5 76q-155 0 -257.5 -106.5t-139.5 -305.5l-44 -251
q-13 -68 -13 -153q0 -165 86 -256.5t240 -91.5q132 0 219.5 70.5t113.5 198.5q1 3 1 5h178q0 -10 -1 -14z" />
    <glyph glyph-name="Tecyrillic" unicode="&#x422;" 
d="M721 0h-176l228 1281h-436l26 162h1048l-27 -162h-435z" />
    <glyph glyph-name="Ucyrillic" unicode="&#x423;" 
d="M1460 1443l-609 -1063q-124 -218 -230 -304t-253 -86q-72 0 -99 11l24 170q30 -10 82 -10q80 0 144.5 46t137.5 157l-341 1079h185l268 -878h8l490 878h193z" />
    <glyph glyph-name="Efcyrillic" unicode="&#x424;" 
d="M923 1144l-152 -848q179 7 278 98t127 274q0 2 3.5 30t4.5 31q9 60 9 103q0 133 -68.5 212.5t-201.5 99.5zM979 1464l-29 -165q192 -26 300.5 -146t108.5 -309q0 -73 -8 -109q0 -5 -6.5 -46t-8.5 -48q-79 -486 -589 -497l-29 -165h-176l32 176q-196 26 -303.5 144.5
t-107.5 310.5q0 67 7 108q0 5 7 46t9 48q42 247 187.5 369t402.5 128l28 155h175zM347 785l-9 -61q-9 -61 -9 -105q0 -133 70 -214t201 -100l152 852q-179 -4 -278 -95t-127 -277z" />
    <glyph glyph-name="Xacyrillic" unicode="&#x425;" 
d="M58 0l587 727l-336 716h189l269 -584h9l476 584h206l-602 -724l348 -719h-188l-279 581h-9l-469 -581h-201z" />
    <glyph glyph-name="Tsecyrillic" unicode="&#x426;" 
d="M1292 162l-78 -447h-162l50 285h-997l254 1443h177l-226 -1281h647l227 1281h177l-227 -1281h158z" />
    <glyph glyph-name="Checyrillic" unicode="&#x427;" 
d="M1375 1443l-254 -1443h-176l116 656h-8q-158 -120 -366 -120q-225 0 -334.5 141t-68.5 377l68 389h177l-70 -400q-28 -159 43 -249t225 -90q200 0 365 127l107 612h176z" />
    <glyph glyph-name="Shacyrillic" unicode="&#x428;" 
d="M1192 0h-1118l254 1443h156l-228 -1285h326l227 1285h156l-228 -1285h326l227 1285h156z" />
    <glyph glyph-name="Shchacyrillic" unicode="&#x429;" 
d="M1077 -285l50 285h-1079l254 1443h156l-228 -1288h308l227 1288h156l-228 -1288h307l228 1288h156l-228 -1285h147l-77 -443h-149z" />
    <glyph glyph-name="Hardsigncyrillic" unicode="&#x42a;" 
d="M657 910h255q167 0 267.5 -106t100.5 -282q0 -248 -138 -385t-389 -137h-432l228 1281h-297l26 162h473zM628 750l-105 -588h236q165 0 255 90.5t90 254.5q0 115 -62 179t-173 64h-241z" />
    <glyph glyph-name="Yericyrillic" unicode="&#x42b;" 
d="M402 749l-106 -590h126q162 0 252 92.5t90 257.5q0 114 -60.5 177t-169.5 63h-132zM402 0h-296l254 1443h165l-95 -536h138q167 0 265 -101.5t98 -274.5q0 -255 -137.5 -393t-391.5 -138zM1160 0h-164l254 1443h164z" />
    <glyph glyph-name="Softsigncyrillic" unicode="&#x42c;" 
d="M487 749l-106 -590h334q169 0 260 90.5t91 257.5q0 115 -63 178.5t-177 63.5h-339zM711 0h-534l254 1443h177l-95 -536h356q171 0 273 -104.5t102 -280.5q0 -249 -139 -385.5t-394 -136.5z" />
    <glyph glyph-name="Ereversedcyrillic" unicode="&#x42d;" 
d="M277 1071q64 191 210 297.5t342 106.5q240 0 373.5 -142.5t133.5 -398.5q0 -99 -21 -221q-33 -191 -58 -257q-74 -238 -224.5 -362t-367.5 -124q-234 0 -367.5 123.5t-133.5 339.5q0 24 1 32h179q-1 -4 -1 -16q1 -149 84.5 -230t237.5 -81q157 0 268.5 105t166.5 304
q11 33 26 110h-573l27 157h570q6 60 6 111q0 182 -90 281.5t-248 99.5q-126 0 -219 -66.5t-146 -195.5q-2 -5 -5.5 -14.5t-5.5 -14.5h-181q5 25 16 56z" />
    <glyph glyph-name="IUcyrillic" unicode="&#x42e;" 
d="M835 -31q-169 0 -272 131t-103 346q0 110 14 196h-156l-114 -642h-153l254 1443h153l-113 -639h154q1 4 13 70t13 69q49 259 172.5 394.5t308.5 135.5q183 0 286.5 -130.5t103.5 -362.5q0 -128 -20 -243q-1 -6 -10.5 -58t-20 -106t-10.5 -57q-53 -279 -175.5 -413
t-324.5 -134zM1234 967q0 159 -63.5 249.5t-174.5 90.5q-243 0 -320 -407q-1 -5 -20 -105.5t-19 -102.5q-20 -117 -20 -221q0 -154 64.5 -244.5t174.5 -90.5q126 0 206 103.5t119 316.5q1 4 19 107t19 107q15 93 15 197z" />
    <glyph glyph-name="IAcyrillic" unicode="&#x42f;" 
d="M1067 562h-264l-436 -562h-206l464 594q-114 41 -180 135.5t-66 217.5q0 233 145.5 364.5t410.5 131.5h461l-254 -1443h-174zM812 716h281l102 570h-276q-170 0 -265.5 -85.5t-95.5 -237.5q0 -111 69.5 -179t184.5 -68z" />
    <glyph glyph-name="acyrillic" unicode="&#x430;" 
d="M566 -18q-144 0 -235 84.5t-92 220.5q-1 169 119 260.5t345 93.5l270 2l10 55q8 44 8 72q0 83 -60.5 132.5t-161.5 49.5q-88 0 -156 -40.5t-89 -105.5h-170q26 130 145.5 211.5t285.5 81.5q170 0 273 -83.5t103 -220.5q0 -57 -21 -169l-110 -626h-162l27 156h-10
q-41 -80 -126.5 -127t-192.5 -47zM625 131q110 0 196.5 71.5t105.5 180.5l24 128l-249 -1q-137 -1 -211.5 -52.5t-75.5 -146.5q-1 -82 56 -131t154 -49z" />
    <glyph glyph-name="becyrillic" unicode="&#x431;" 
d="M712 137q124 0 212 87t120 241q14 63 14 153q0 134 -80.5 216.5t-212.5 82.5q-120 0 -206.5 -79t-120.5 -216q-19 -70 -19 -155q0 -149 80 -239.5t213 -90.5zM452 862h6q105 198 357 198q190 0 305.5 -119.5t115.5 -314.5q0 -76 -18 -170q-43 -226 -179 -350.5
t-342 -124.5q-209 0 -331 138.5t-122 377.5q0 121 34 268q80 368 239 528.5t447 163.5q248 3 388 55l-27 -157q-107 -46 -377 -47q-201 -1 -312 -101t-184 -345z" />
    <glyph glyph-name="vecyrillic" unicode="&#x432;" 
d="M695 0h-473l191 1085h425q157 0 241.5 -66t84.5 -184q0 -97 -65.5 -170t-166.5 -90l-3 -11q99 -16 153.5 -75t54.5 -150q0 -154 -120 -246.5t-322 -92.5zM411 133h287q125 0 196.5 54t71.5 146q0 78 -56.5 121t-159.5 43h-274zM498 624h245q109 0 179.5 51t70.5 131
q0 70 -48 108t-137 38h-251z" />
    <glyph glyph-name="gecyrillic" unicode="&#x433;" 
d="M1291 1085l-63 -361h-154l37 214h-445l-140 -793h261l-24 -145h-634l25 145h202l139 795h-200l25 145h971z" />
    <glyph glyph-name="decyrillic" unicode="&#x434;" 
d="M214 0l-50 -285h-158l75 430h83q126 65 191 348q6 32 70.5 305t66.5 287h716l-167 -940h170l-75 -430h-158l50 285h-814zM365 145h514l142 796h-398q-4 -20 -30.5 -134.5t-53.5 -228t-28 -116.5q-52 -215 -144 -304z" />
    <glyph glyph-name="iecyrillic" unicode="&#x435;" 
d="M793 959q-123 0 -207 -71t-107 -194q-1 -1 -7 -33.5t-6 -33.5h577q0 2 2.5 23t2.5 24q15 125 -56.5 205t-198.5 80zM1141 280q-21 -129 -147 -214.5t-293 -85.5q-199 0 -313 112t-114 306q0 54 15 154l21 136q30 193 163 305t333 112q128 0 225.5 -55.5t145.5 -154
t35 -219.5q0 -1 -10 -91l-12 -87h-741q-1 -5 -4.5 -36t-3.5 -35q-13 -136 61 -218t208 -82q96 0 170.5 43t92.5 110h168z" />
    <glyph glyph-name="zhecyrillic" unicode="&#x436;" 
d="M185 0h-180l454 576l-232 509h162l212 -459h65l82 459h153l-82 -459h69l367 459h182l-429 -530l253 -555h-171l-222 494h-73l-87 -494h-151l87 494h-71z" />
    <glyph glyph-name="zecyrillic" unicode="&#x437;" 
d="M926 565l-2 -10q93 -22 145 -83t52 -148q0 -151 -129.5 -248t-334.5 -97q-204 0 -325 97.5t-108 249.5v9h162q-8 -91 70 -150t207 -59q127 0 208 58t81 146q0 73 -62.5 117t-165.5 44h-167l23 135h167q111 0 177.5 46t66.5 122q0 74 -66 119.5t-174 45.5
q-97 0 -169 -45.5t-99 -122.5h-165q25 139 148 226.5t295 87.5q179 0 290 -81t111 -211q0 -95 -65 -163.5t-171 -84.5z" />
    <glyph glyph-name="iicyrillic" unicode="&#x438;" 
d="M1060 817l-717 -817h-161l191 1085h159l-146 -814h9l718 814h160l-191 -1085h-158l146 817h-10z" />
    <glyph glyph-name="iishortcyrillic" unicode="&#x439;" 
d="M1069 1574h144q-21 -142 -121 -227t-249 -85q-148 0 -231.5 92t-59.5 220h137q-12 -87 32.5 -142t136.5 -55q84 0 140.5 55t70.5 142zM1060 817l-717 -817h-161l191 1085h159l-146 -814h9l718 814h160l-191 -1085h-158l146 817h-10z" />
    <glyph glyph-name="kacyrillic" unicode="&#x43a;" 
d="M597 1085l-81 -460h84l476 460h207l-557 -530l393 -555h-189l-352 488h-86l-86 -488h-163l187 1085h167z" />
    <glyph glyph-name="elcyrillic" unicode="&#x43b;" 
d="M668 940l-57 -273q-59 -283 -112.5 -425t-119.5 -196.5t-174 -54.5q-59 0 -89 10l25 156q19 -7 58 -7q59 0 97.5 45t73.5 154t79 324l81 412h727l-191 -1085h-169l167 940h-396z" />
    <glyph glyph-name="emcyrillic" unicode="&#x43c;" 
d="M399 801l-138 -801h-144l191 1085h172l187 -796h6l477 796h190l-191 -1085h-143l144 796h-8l-446 -712h-112l-178 717h-7z" />
    <glyph glyph-name="encyrillic" unicode="&#x43d;" 
d="M352 0h-168l191 1085h168l-80 -450h562l80 450h168l-191 -1085h-168l87 488h-562z" />
    <glyph glyph-name="ocyrillic" unicode="&#x43e;" 
d="M686 -19q-195 0 -315 119t-120 310q0 65 10 124l26 150q34 194 162 307t313 113q203 0 324.5 -119.5t121.5 -315.5q0 -52 -10 -116l-27 -151q-36 -202 -162.5 -311.5t-322.5 -109.5zM759 954q-121 0 -202.5 -78.5t-106.5 -218.5l-24 -137q-9 -58 -9 -102
q0 -130 77.5 -208.5t205.5 -78.5q123 0 203.5 79t106.5 227l25 141q6 45 6 92q0 128 -77.5 206t-204.5 78z" />
    <glyph glyph-name="pecyrillic" unicode="&#x43f;" 
d="M906 0l166 938h-546l-166 -938h-170l191 1085h886l-191 -1085h-170z" />
    <glyph glyph-name="ercyrillic" unicode="&#x440;" 
d="M738 -18q-128 0 -220 66.5t-111 169.5h-8l-103 -584h-170l255 1451h167l-34 -191h12q37 95 125 152t197 57q173 0 276 -105.5t103 -288.5q0 -68 -12 -138l-31 -174q-34 -195 -153 -305t-293 -110zM716 141q123 0 201 74t103 218l25 145q8 52 8 99q0 123 -67.5 195.5
t-183.5 72.5q-129 0 -216.5 -77.5t-112.5 -216.5l-29 -161q-4 -25 -4 -72q0 -121 77 -199t199 -78z" />
    <glyph glyph-name="escyrillic" unicode="&#x441;" 
d="M1221 725h-169v5q0 98 -72 161t-186 63q-271 0 -332 -340l-12 -66q-13 -76 -13 -130q0 -137 71.5 -211.5t202.5 -74.5q99 0 172.5 48.5t101.5 134.5h169q-34 -152 -156.5 -244t-293.5 -92q-203 0 -320 111.5t-117 303.5q0 48 9 117q8 56 27 163q35 203 167 317.5
t330 114.5q190 0 305.5 -100t115.5 -264v-17z" />
    <glyph glyph-name="tecyrillic" unicode="&#x442;" 
d="M349 1085h950l-25 -147h-390l-166 -938h-170l166 938h-390z" />
    <glyph glyph-name="ucyrillic" unicode="&#x443;" 
d="M277 -386q-61 0 -80 3l25 149q18 -4 67 -4q73 0 119 36t100 136l30 59l-208 1092h176l146 -908h13l461 908h190l-607 -1125q-111 -206 -198 -276t-234 -70z" />
    <glyph glyph-name="efcyrillic" unicode="&#x444;" 
d="M883 965l-148 -834h17q154 1 253.5 94t129.5 265q9 45 9 54q9 54 9 104q0 144 -67.5 228.5t-202.5 88.5zM726 965h-17q-154 -1 -253.5 -94.5t-129.5 -264.5q-9 -45 -9 -55q-9 -54 -9 -104q0 -144 67.5 -228t201.5 -88zM489 -359l62 349q-189 13 -295 134t-106 314
q0 51 12 124l14 80q38 220 182.5 341t367.5 123h21l62 349h163l-62 -350q190 -13 295.5 -134t105.5 -315q0 -50 -12 -122l-14 -80q-38 -221 -182 -341t-367 -122h-22l-62 -350h-163z" />
    <glyph glyph-name="hacyrillic" unicode="&#x445;" 
d="M719 418h-13l-348 -418h-196l468 543l-280 542h185l206 -411h13l342 411h199l-465 -535l277 -550h-181z" />
    <glyph glyph-name="tsecyrillic" unicode="&#x446;" 
d="M1237 147l-75 -432h-158l50 285h-887l191 1085h169l-167 -938h538l166 938h168l-166 -938h171z" />
    <glyph glyph-name="checyrillic" unicode="&#x447;" 
d="M1238 1085l-191 -1085h-171l82 467h-9q-118 -86 -312 -86q-156 0 -247 84t-91 233q0 49 8 93l51 294h170l-52 -296q-6 -35 -6 -60q0 -91 57.5 -141t159.5 -50q89 0 171 26.5t129 72.5l80 448h171z" />
    <glyph glyph-name="shacyrillic" unicode="&#x448;" 
d="M1192 0h-1118l191 1085h154l-166 -943h327l167 943h154l-166 -943h327l167 943h154z" />
    <glyph glyph-name="shchacyrillic" unicode="&#x449;" 
d="M1119 -285l50 285h-1096l191 1085h155l-167 -940h317l167 940h155l-167 -940h317l167 940h155l-167 -940h146l-74 -430h-149z" />
    <glyph glyph-name="hardsigncyrillic" unicode="&#x44a;" 
d="M556 145h220q129 0 206.5 70t77.5 184q0 87 -59 138t-163 51h-202zM659 731h201q172 0 272 -86.5t100 -233.5q0 -185 -125.5 -298t-334.5 -113h-409l167 940h-290l25 145h458z" />
    <glyph glyph-name="yericyrillic" unicode="&#x44b;" 
d="M307 145h177q126 0 202.5 69.5t76.5 185.5q0 88 -58 138t-160 50h-158zM412 733h145q170 0 267.5 -85.5t97.5 -234.5q0 -188 -122.5 -300.5t-327.5 -112.5h-348l191 1085h159zM1147 0h-161l191 1085h162z" />
    <glyph glyph-name="softsigncyrillic" unicode="&#x44c;" 
d="M432 145h294q128 0 204.5 69.5t76.5 184.5q0 89 -58 139t-161 50h-276zM536 731h270q173 0 272.5 -84.5t99.5 -235.5q0 -187 -124.5 -299t-334.5 -112h-481l191 1085h170z" />
    <glyph glyph-name="ereversedcyrillic" unicode="&#x44d;" 
d="M1202 540l-27 -153q-35 -192 -163.5 -299t-325.5 -107q-188 0 -307.5 95.5t-119.5 245.5v31h166v-14q0 -89 75 -147.5t189 -58.5q128 0 213 75.5t111 214.5l9 48h-494l22 135h490q6 24 6 57q0 138 -74 213t-210 75q-89 0 -163 -44.5t-96 -113.5h-170q25 133 154 223
t294 90q196 0 315 -114t119 -302q0 -69 -13 -150z" />
    <glyph glyph-name="iucyrillic" unicode="&#x44e;" 
d="M1128 454l19 110q10 80 10 125q0 122 -53.5 192.5t-145.5 70.5q-97 0 -163.5 -83t-92.5 -239l-18 -111q-11 -72 -11 -124q0 -122 53 -192t145 -70q98 0 165 82.5t92 238.5zM548 631l8 43q38 213 142 322t262 109q165 0 259.5 -111.5t94.5 -304.5q0 -74 -24 -207l-11 -60
q-38 -221 -143 -331.5t-264 -110.5q-165 0 -259.5 111t-94.5 305q0 41 7 90h-213l-87 -486h-154l191 1085h154l-81 -454h213z" />
    <glyph glyph-name="iacyrillic" unicode="&#x44f;" 
d="M998 941h-195q-132 0 -210 -62.5t-78 -166.5q0 -84 60.5 -132t171.5 -48h177zM999 0h-168l70 393h-185l-352 -393h-207l395 426q-96 33 -151 108.5t-55 176.5q0 171 121.5 272.5t333.5 101.5h389z" />
    <glyph glyph-name="uni0450" unicode="&#x450;" 
d="M793 959q-123 0 -207 -71t-107 -194q-1 -1 -7 -33.5t-6 -33.5h577q0 2 2.5 23t2.5 24q15 125 -56.5 205t-198.5 80zM1141 280q-21 -129 -147 -214.5t-293 -85.5q-199 0 -313 112t-114 306q0 54 15 154l21 136q30 193 163 305t333 112q128 0 225.5 -55.5t145.5 -154
t35 -219.5q0 -1 -10 -91l-12 -87h-741q-1 -5 -4.5 -36t-3.5 -35q-13 -136 61 -218t208 -82q96 0 170.5 43t92.5 110h168zM971 1296h-176l-206 339h202z" />
    <glyph glyph-name="iocyrillic" unicode="&#x451;" 
d="M793 959q-123 0 -207 -71t-107 -194q-1 -1 -7 -33.5t-6 -33.5h577q0 2 2.5 23t2.5 24q15 125 -56.5 205t-198.5 80zM1141 280q-21 -129 -147 -214.5t-293 -85.5q-199 0 -313 112t-114 306q0 54 15 154l21 136q30 193 163 305t333 112q128 0 225.5 -55.5t145.5 -154
t35 -219.5q0 -1 -10 -91l-12 -87h-741q-1 -5 -4.5 -36t-3.5 -35q-13 -136 61 -218t208 -82q96 0 170.5 43t92.5 110h168zM691 1319q-47 0 -82 36t-35 85t35 85.5t82 36.5t82.5 -36.5t35.5 -85.5t-35.5 -85t-82.5 -36zM1095 1319q-47 0 -82 36t-35 85t35 85.5t82 36.5
t82 -36.5t35 -85.5t-35 -85t-82 -36z" />
    <glyph glyph-name="djecyrillic" unicode="&#x452;" 
d="M510 899h11q44 96 133.5 150.5t203.5 54.5q154 0 249 -94.5t95 -249.5q0 -46 -17 -148l-107 -612h-2l-9 -61q-53 -308 -397 -308q-24 0 -27 1l24 145q4 -2 15 -2q96 0 147.5 40t67.5 126l28 176h4l87 492q12 70 12 110q0 103 -64 166t-169 63q-121 0 -210 -83.5
t-114 -223.5l-113 -641h-170l225 1272h-163l19 112h164l22 127h163l-22 -127h252l-19 -112h-253z" />
    <glyph glyph-name="gjecyrillic" unicode="&#x453;" 
d="M1301 1635l-323 -339h-187l298 339h212zM1291 1085l-63 -361h-154l37 214h-445l-140 -793h261l-24 -145h-634l25 145h202l139 795h-200l25 145h971z" />
    <glyph glyph-name="ecyrillic" unicode="&#x454;" 
d="M957 296h169q-25 -143 -143.5 -229t-292.5 -86q-203 0 -324.5 113t-121.5 303q0 56 13 150l28 153q34 191 163 298.5t325 107.5q188 0 308 -96.5t120 -247.5q0 -25 -1 -31h-166v15q0 89 -75 148.5t-188 59.5q-129 0 -213.5 -75t-110.5 -213l-9 -48h489l-22 -134h-486
q-6 -39 -6 -60q0 -138 74 -213t211 -75q102 0 171.5 42.5t87.5 117.5z" />
    <glyph glyph-name="dzecyrillic" unicode="&#x455;" 
d="M774 454l-150 49q-128 43 -187.5 109t-59.5 164q0 147 115.5 238.5t299.5 91.5q175 0 279 -80t111 -220q0 -3 -0.5 -7.5t-0.5 -6.5h-165v3q-9 83 -68 127t-160 44q-106 0 -172.5 -47t-66.5 -121q0 -53 38.5 -89t127.5 -65l143 -47q136 -45 197 -110t61 -164
q0 -154 -120 -249t-314 -95q-188 0 -303 84.5t-120 227.5v10h168v-2q11 -85 78.5 -131t180.5 -46t182.5 48t69.5 127q0 56 -38 92.5t-126 64.5z" />
    <glyph glyph-name="icyrillic" unicode="&#x456;" 
d="M914 1351q-60 0 -100.5 40t-40.5 100q0 59 40.5 99t100.5 40t100.5 -40t40.5 -99q0 -60 -40.5 -100t-100.5 -40zM1107 0h-899l24 141h372l143 803h-368l23 141h537l-168 -944h360z" />
    <glyph glyph-name="yicyrillic" unicode="&#x457;" 
d="M1107 0h-899l24 141h372l143 803h-368l23 141h537l-168 -944h360zM716 1311q-47 0 -82 36t-35 85t35 85t82 36t82 -36t35 -85t-35 -85t-82 -36zM1120 1311q-47 0 -82 36t-35 85t35 85t82 36t82 -36t35 -85t-35 -85t-82 -36z" />
    <glyph glyph-name="jecyrillic" unicode="&#x458;" 
d="M1039 1351q-60 0 -100.5 40t-40.5 100q0 59 40.5 99t100.5 40t100.5 -40t40.5 -99q0 -60 -40.5 -100t-100.5 -40zM1066 1085l-191 -1079q-30 -172 -138.5 -253.5t-308.5 -81.5q-141 0 -298 16l26 151q159 -15 277 -15q130 0 194.5 47t83.5 156l163 918h-496l24 141h664z
" />
    <glyph glyph-name="ljecyrillic" unicode="&#x459;" 
d="M481 945l-55 -287q-32 -164 -60 -272.5t-58.5 -189t-66 -123.5t-77 -62.5t-98.5 -19.5q-38 0 -65 11l26 157q16 -7 39 -7q35 0 60 22t50 84t48 154.5t55 251.5l80 421h601l-65 -354h126q139 0 221 -87.5t82 -231.5q0 -181 -111 -296.5t-287 -115.5h-318l168 945h-295z
M789 145h148q102 0 164 70t62 186q0 84 -45 135.5t-119 51.5h-130z" />
    <glyph glyph-name="njecyrillic" unicode="&#x45a;" 
d="M934 0h-335l90 510h-361l-90 -510h-156l191 1085h156l-77 -432h361l77 432h156l-77 -430h154q134 0 211 -80.5t77 -217.5q0 -159 -104 -258t-273 -99zM778 143h168q97 0 154 56t57 149q0 76 -40 119.5t-113 43.5h-159z" />
    <glyph glyph-name="tshecyrillic" unicode="&#x45b;" 
d="M510 899h11q44 96 133.5 150.5t203.5 54.5q154 0 249 -94.5t95 -249.5q0 -46 -17 -148l-107 -612h-170l108 609q12 70 12 110q0 103 -64 166t-169 63q-121 0 -210 -83.5t-114 -223.5l-113 -641h-170l225 1272h-163l19 112h164l22 127h163l-22 -127h252l-19 -112h-253z
" />
    <glyph glyph-name="kjecyrillic" unicode="&#x45c;" 
d="M597 1085l-81 -460h84l476 460h207l-557 -530l393 -555h-189l-352 488h-86l-86 -488h-163l187 1085h167zM930 1296h-187l298 339h213z" />
    <glyph glyph-name="uni045D" unicode="&#x45d;" 
d="M944 1296h-176l-206 339h202zM1060 817l-717 -817h-161l191 1085h159l-146 -814h9l718 814h160l-191 -1085h-158l146 817h-10z" />
    <glyph glyph-name="ushortcyrillic" unicode="&#x45e;" 
d="M277 -386q-61 0 -80 3l25 149q18 -4 67 -4q73 0 119 36t100 136l30 59l-208 1092h176l146 -908h13l461 908h190l-607 -1125q-111 -206 -198 -276t-234 -70zM869 1263q-147 0 -231 92t-59 220h137q-12 -87 32.5 -142.5t135.5 -55.5q84 0 141 55t71 143h143
q-21 -142 -120.5 -227t-249.5 -85z" />
    <glyph glyph-name="dzhecyrillic" unicode="&#x45f;" 
d="M1282 1085l-191 -1085h-370l-50 -285h-158l50 285h-371l191 1085h170l-166 -940h559l167 940h169z" />
    <glyph glyph-name="uni0462" unicode="&#x462;" 
d="M503 159h223q186 0 284 88t98 239q0 102 -74 158t-210 56h-223zM627 858h246q197 0 307 -95t110 -263q0 -221 -147 -360.5t-399 -139.5h-444l191 1084h-306l26 154h307l36 205h177l-36 -205h496l-26 -154h-498z" />
    <glyph glyph-name="uni0463" unicode="&#x463;" 
d="M502 145h235q150 0 230 71t80 194q0 82 -58 125.5t-173 43.5h-236zM605 722h238q183 0 278.5 -79t95.5 -224q0 -189 -128.5 -304t-365.5 -115h-416l169 955h-267l21 130h269l75 426h170l-75 -426h465l-22 -130h-466z" />
    <glyph glyph-name="uni0472" unicode="&#x472;" 
d="M1084 560l19 109q-87 -74 -190 -74q-62 0 -111.5 15.5t-76.5 33.5t-68.5 33.5t-90.5 15.5q-105 0 -178 -82q-5 -57 -5 -103q0 -171 87 -271t235 -100q147 0 244.5 109t134.5 314zM438 898l-22 -122q89 74 192 74q62 0 111.5 -15.5t76.5 -33.5t69 -33.5t91 -15.5
q101 0 175 81q7 65 7 110q0 165 -89 264.5t-237 99.5q-146 0 -242.5 -104.5t-131.5 -304.5zM220 694l42 231q45 259 192.5 404t365.5 145q225 0 360 -144.5t135 -385.5q0 -87 -14 -188l-43 -231q-49 -271 -193.5 -412.5t-373.5 -141.5q-217 0 -351.5 143.5t-134.5 373.5
q0 132 15 206z" />
    <glyph glyph-name="uni0473" unicode="&#x473;" 
d="M1010 437l9 50q-69 -56 -151 -56q-45 0 -81 9.5t-60 22.5t-46.5 26.5t-51.5 23t-64 9.5q-81 0 -147 -66q-1 -13 -1 -38q0 -130 77.5 -208.5t205.5 -78.5q123 0 203.5 79t106.5 227zM450 657l-10 -58q72 62 158 62q55 0 98 -14t66.5 -31t59.5 -31t79 -14q77 0 139 58
q1 14 1 41q0 128 -77.5 206t-204.5 78q-121 0 -202.5 -78.5t-106.5 -218.5zM261 534l26 150q34 194 162 307t313 113q203 0 324.5 -119.5t121.5 -315.5q0 -52 -10 -116l-27 -151q-36 -202 -162.5 -311.5t-322.5 -109.5q-195 0 -315 119t-120 310q0 65 10 124z" />
    <glyph glyph-name="uni0474" unicode="&#x474;" 
d="M1024 1212q55 138 125 200t183 62q40 0 75 -8t52 -16t23 -14l-73 -144q-36 18 -79 18q-51 0 -84 -28.5t-62 -93.5l-539 -1188h-182l-160 1443h177l109 -1217h5z" />
    <glyph glyph-name="uni0475" unicode="&#x475;" 
d="M910 828q70 151 138.5 216t184.5 65q51 0 93 -13.5t53 -23.5l-77 -148q-3 2 -12 6t-29 8.5t-39 4.5q-47 0 -76 -26.5t-62 -88.5l-437 -828h-186l-207 1085h172l151 -903h13z" />
    <glyph glyph-name="uni048A" unicode="&#x48a;" 
d="M1142 1924h141q-20 -140 -120 -226t-248 -86q-153 0 -234 88t-57 224h141q-14 -87 29.5 -142t126.5 -55t144.5 54.5t76.5 142.5zM1353 1443l-225 -1277h165l-8 -48l-207 -404h-151l155 286h-137l27 166h3l171 956h-14l-827 -1122h-161l254 1443h155l-202 -1123h14
l825 1123h163z" />
    <glyph glyph-name="uni048B" unicode="&#x48b;" 
d="M1068 1574h144q-21 -142 -121 -227t-249 -85q-148 0 -231.5 92t-59.5 220h137q-12 -87 32.5 -142t136.5 -55q84 0 140.5 55t70.5 142zM1272 1085l-163 -928h160l-8 -48l-206 -395h-161l153 286h-124l27 157h1l118 660h-10l-717 -817h-161l191 1085h159l-146 -814h9
l718 814h160z" />
    <glyph glyph-name="uni048C" unicode="&#x48c;" 
d="M503 159h223q186 0 284 88t98 239q0 102 -74 158t-210 56h-223zM627 858h246q197 0 307 -95t110 -263q0 -221 -147 -360.5t-399 -139.5h-444l191 1084h-306l26 154h307l36 205h177l-36 -205h496l-26 -154h-498z" />
    <glyph glyph-name="uni048D" unicode="&#x48d;" 
d="M502 145h235q150 0 230 71t80 194q0 82 -58 125.5t-173 43.5h-236zM605 722h238q183 0 278.5 -79t95.5 -224q0 -189 -128.5 -304t-365.5 -115h-416l169 955h-267l21 130h269l75 426h170l-75 -426h465l-22 -130h-466z" />
    <glyph glyph-name="uni048E" unicode="&#x48e;" 
d="M849 970l121 -253q88 42 135.5 124.5t47.5 197.5q0 117 -73.5 182t-205.5 65h-271l-109 -611h272q44 0 83 6l-112 230zM452 1443h454q194 0 308.5 -106t114.5 -284q0 -169 -71.5 -290.5t-204.5 -184.5l118 -244l-132 -74l-131 272q-73 -14 -152 -14h-289l-92 -518h-177z
" />
    <glyph glyph-name="uni048F" unicode="&#x48f;" 
d="M1020 433l25 145q8 52 8 99q0 123 -67.5 195.5t-183.5 72.5q-129 0 -216.5 -77.5t-112.5 -216.5l-29 -161q-4 -25 -4 -72q0 -121 77 -199t199 -78q28 0 60 5l-101 281l115 47l99 -282q101 72 131 241zM514 894h12q37 95 125 152t197 57q173 0 276 -105.5t103 -288.5
q0 -68 -12 -138l-31 -174q-46 -253 -225 -358l88 -250l-136 -60l-92 260q-36 -7 -81 -7q-128 0 -220 66.5t-111 169.5h-8l-103 -584h-170l255 1451h167z" />
    <glyph glyph-name="Geupturncyrillic" unicode="&#x490;" 
d="M1513 1719l-73 -420h-1l-48 -280h-163l46 261h-555l-198 -1118h271l-26 -162h-701l26 162h252l196 1119h-247l27 162h984l48 276h162z" />
    <glyph glyph-name="geupturncyrillic" unicode="&#x491;" 
d="M1340 1361l-53 -301l-59 -336h-154l37 214h-445l-140 -793h261l-24 -145h-634l25 145h202l139 795h-200l25 145h817l48 276h155z" />
    <glyph glyph-name="uni0492" unicode="&#x492;" 
d="M1464 1443l-73 -424h-163l46 261h-555l-83 -467h352l-25 -152h-354l-88 -499h271l-26 -162h-701l26 162h252l87 499h-250l26 152h251l82 468h-247l27 162h1145z" />
    <glyph glyph-name="uni0493" unicode="&#x493;" 
d="M1291 1085l-63 -361h-154l37 214h-445l-63 -357h344l-22 -130h-345l-54 -306h261l-24 -145h-634l25 145h202l53 306h-201l22 130h202l63 359h-200l25 145h971z" />
    <glyph glyph-name="uni0494" unicode="&#x494;" 
d="M700 -14q-75 0 -107 15l26 161q28 -12 95 -12q119 0 197 98.5t78 250.5q0 105 -60.5 164.5t-169.5 59.5q-97 0 -182.5 -37t-141.5 -93l-106 -593h-176l254 1443h784l-27 -161h-608l-89 -498h11q133 108 324 108q177 0 272.5 -99t95.5 -274q0 -149 -56 -269.5t-164.5 -192
t-249.5 -71.5z" />
    <glyph glyph-name="uni0495" unicode="&#x495;" 
d="M472 517h9q138 96 317 96q163 0 250.5 -96.5t87.5 -269.5q0 -157 -62 -288.5t-175 -209.5t-253 -78q-73 0 -108 11l25 156q32 -10 96 -10q89 0 160 58.5t107.5 149.5t36.5 194q0 102 -54 161t-156 59q-165 0 -312 -116l-60 -334h-170l191 1085h757l-25 -147h-587z" />
    <glyph glyph-name="uni0496" unicode="&#x496;" 
d="M981 732l170 -573h141l-77 -445h-144l51 286h-81l-198 658h-55l-119 -658h-145l118 658h-45l-435 -658h-168l483 739l-195 704h155l170 -642h59l116 642h144l-115 -642h49l399 642h166z" />
    <glyph glyph-name="uni0497" unicode="&#x497;" 
d="M991 555l182 -408h135l-75 -432h-142l50 285h-69l-218 494h-72l-87 -494h-148l86 494h-70l-381 -494h-178l447 576l-228 509h160l208 -459h64l81 459h150l-81 -459h68l361 459h180z" />
    <glyph glyph-name="uni0498" unicode="&#x498;" 
d="M932 747v-13q123 -23 195.5 -109t72.5 -209q0 -185 -126.5 -305.5t-337.5 -137.5l-45 -259h-166l46 263q-167 24 -270.5 123.5t-103.5 239.5q0 46 1 50h168q-1 -2 -1 -19q0 -102 89.5 -171.5t219.5 -69.5q157 0 251 80t94 213q0 109 -81 173.5t-216 64.5h-159l27 164h168
q146 0 238.5 74t92.5 191q0 104 -76 165.5t-206 61.5q-112 0 -190 -49.5t-101 -134.5h-168q29 157 154.5 248.5t313.5 91.5q201 0 323 -100t122 -264q0 -139 -95.5 -243.5t-233.5 -118.5z" />
    </font>
</defs>
</svg>
